# Original Quiet Camp Ukrainian rural presentation asset
# Units: metres; Y up; no external geometry or textures
mtllib palette.mtl
o ua_concrete_fence
v -1.7600000 0.0000000 -0.1250000
v -1.7600000 1.6400000 -0.1250000
v -1.5400000 1.6400000 -0.1250000
v -1.7600000 0.0000000 -0.1250000
v -1.5400000 1.6400000 -0.1250000
v -1.5400000 0.0000000 -0.1250000
v -1.7600000 0.0000000 0.1250000
v -1.5400000 0.0000000 0.1250000
v -1.5400000 1.6400000 0.1250000
v -1.7600000 0.0000000 0.1250000
v -1.5400000 1.6400000 0.1250000
v -1.7600000 1.6400000 0.1250000
v -1.7600000 0.0000000 -0.1250000
v -1.7600000 0.0000000 0.1250000
v -1.7600000 1.6400000 0.1250000
v -1.7600000 0.0000000 -0.1250000
v -1.7600000 1.6400000 0.1250000
v -1.7600000 1.6400000 -0.1250000
v -1.5400000 0.0000000 -0.1250000
v -1.5400000 1.6400000 -0.1250000
v -1.5400000 1.6400000 0.1250000
v -1.5400000 0.0000000 -0.1250000
v -1.5400000 1.6400000 0.1250000
v -1.5400000 0.0000000 0.1250000
v -1.7600000 0.0000000 -0.1250000
v -1.5400000 0.0000000 -0.1250000
v -1.5400000 0.0000000 0.1250000
v -1.7600000 0.0000000 -0.1250000
v -1.5400000 0.0000000 0.1250000
v -1.7600000 0.0000000 0.1250000
v -1.7600000 1.6400000 -0.1250000
v -1.7600000 1.6400000 0.1250000
v -1.5400000 1.6400000 0.1250000
v -1.7600000 1.6400000 -0.1250000
v -1.5400000 1.6400000 0.1250000
v -1.5400000 1.6400000 -0.1250000
v 1.5400000 0.0000000 -0.1250000
v 1.5400000 1.6400000 -0.1250000
v 1.7600000 1.6400000 -0.1250000
v 1.5400000 0.0000000 -0.1250000
v 1.7600000 1.6400000 -0.1250000
v 1.7600000 0.0000000 -0.1250000
v 1.5400000 0.0000000 0.1250000
v 1.7600000 0.0000000 0.1250000
v 1.7600000 1.6400000 0.1250000
v 1.5400000 0.0000000 0.1250000
v 1.7600000 1.6400000 0.1250000
v 1.5400000 1.6400000 0.1250000
v 1.5400000 0.0000000 -0.1250000
v 1.5400000 0.0000000 0.1250000
v 1.5400000 1.6400000 0.1250000
v 1.5400000 0.0000000 -0.1250000
v 1.5400000 1.6400000 0.1250000
v 1.5400000 1.6400000 -0.1250000
v 1.7600000 0.0000000 -0.1250000
v 1.7600000 1.6400000 -0.1250000
v 1.7600000 1.6400000 0.1250000
v 1.7600000 0.0000000 -0.1250000
v 1.7600000 1.6400000 0.1250000
v 1.7600000 0.0000000 0.1250000
v 1.5400000 0.0000000 -0.1250000
v 1.7600000 0.0000000 -0.1250000
v 1.7600000 0.0000000 0.1250000
v 1.5400000 0.0000000 -0.1250000
v 1.7600000 0.0000000 0.1250000
v 1.5400000 0.0000000 0.1250000
v 1.5400000 1.6400000 -0.1250000
v 1.5400000 1.6400000 0.1250000
v 1.7600000 1.6400000 0.1250000
v 1.5400000 1.6400000 -0.1250000
v 1.7600000 1.6400000 0.1250000
v 1.7600000 1.6400000 -0.1250000
v -1.5500000 0.0250000 -0.0550000
v -1.5500000 0.4550000 -0.0550000
v 1.5500000 0.4550000 -0.0550000
v -1.5500000 0.0250000 -0.0550000
v 1.5500000 0.4550000 -0.0550000
v 1.5500000 0.0250000 -0.0550000
v -1.5500000 0.0250000 0.0550000
v 1.5500000 0.0250000 0.0550000
v 1.5500000 0.4550000 0.0550000
v -1.5500000 0.0250000 0.0550000
v 1.5500000 0.4550000 0.0550000
v -1.5500000 0.4550000 0.0550000
v -1.5500000 0.0250000 -0.0550000
v -1.5500000 0.0250000 0.0550000
v -1.5500000 0.4550000 0.0550000
v -1.5500000 0.0250000 -0.0550000
v -1.5500000 0.4550000 0.0550000
v -1.5500000 0.4550000 -0.0550000
v 1.5500000 0.0250000 -0.0550000
v 1.5500000 0.4550000 -0.0550000
v 1.5500000 0.4550000 0.0550000
v 1.5500000 0.0250000 -0.0550000
v 1.5500000 0.4550000 0.0550000
v 1.5500000 0.0250000 0.0550000
v -1.5500000 0.0250000 -0.0550000
v 1.5500000 0.0250000 -0.0550000
v 1.5500000 0.0250000 0.0550000
v -1.5500000 0.0250000 -0.0550000
v 1.5500000 0.0250000 0.0550000
v -1.5500000 0.0250000 0.0550000
v -1.5500000 0.4550000 -0.0550000
v -1.5500000 0.4550000 0.0550000
v 1.5500000 0.4550000 0.0550000
v -1.5500000 0.4550000 -0.0550000
v 1.5500000 0.4550000 0.0550000
v 1.5500000 0.4550000 -0.0550000
v -1.5000000 0.0425000 -0.0870000
v -1.5000000 0.0875000 -0.0870000
v 1.5000000 0.0875000 -0.0870000
v -1.5000000 0.0425000 -0.0870000
v 1.5000000 0.0875000 -0.0870000
v 1.5000000 0.0425000 -0.0870000
v -1.5000000 0.0425000 -0.0570000
v 1.5000000 0.0425000 -0.0570000
v 1.5000000 0.0875000 -0.0570000
v -1.5000000 0.0425000 -0.0570000
v 1.5000000 0.0875000 -0.0570000
v -1.5000000 0.0875000 -0.0570000
v -1.5000000 0.0425000 -0.0870000
v -1.5000000 0.0425000 -0.0570000
v -1.5000000 0.0875000 -0.0570000
v -1.5000000 0.0425000 -0.0870000
v -1.5000000 0.0875000 -0.0570000
v -1.5000000 0.0875000 -0.0870000
v 1.5000000 0.0425000 -0.0870000
v 1.5000000 0.0875000 -0.0870000
v 1.5000000 0.0875000 -0.0570000
v 1.5000000 0.0425000 -0.0870000
v 1.5000000 0.0875000 -0.0570000
v 1.5000000 0.0425000 -0.0570000
v -1.5000000 0.0425000 -0.0870000
v 1.5000000 0.0425000 -0.0870000
v 1.5000000 0.0425000 -0.0570000
v -1.5000000 0.0425000 -0.0870000
v 1.5000000 0.0425000 -0.0570000
v -1.5000000 0.0425000 -0.0570000
v -1.5000000 0.0875000 -0.0870000
v -1.5000000 0.0875000 -0.0570000
v 1.5000000 0.0875000 -0.0570000
v -1.5000000 0.0875000 -0.0870000
v 1.5000000 0.0875000 -0.0570000
v 1.5000000 0.0875000 -0.0870000
v -1.5000000 0.3925000 -0.0870000
v -1.5000000 0.4375000 -0.0870000
v 1.5000000 0.4375000 -0.0870000
v -1.5000000 0.3925000 -0.0870000
v 1.5000000 0.4375000 -0.0870000
v 1.5000000 0.3925000 -0.0870000
v -1.5000000 0.3925000 -0.0570000
v 1.5000000 0.3925000 -0.0570000
v 1.5000000 0.4375000 -0.0570000
v -1.5000000 0.3925000 -0.0570000
v 1.5000000 0.4375000 -0.0570000
v -1.5000000 0.4375000 -0.0570000
v -1.5000000 0.3925000 -0.0870000
v -1.5000000 0.3925000 -0.0570000
v -1.5000000 0.4375000 -0.0570000
v -1.5000000 0.3925000 -0.0870000
v -1.5000000 0.4375000 -0.0570000
v -1.5000000 0.4375000 -0.0870000
v 1.5000000 0.3925000 -0.0870000
v 1.5000000 0.4375000 -0.0870000
v 1.5000000 0.4375000 -0.0570000
v 1.5000000 0.3925000 -0.0870000
v 1.5000000 0.4375000 -0.0570000
v 1.5000000 0.3925000 -0.0570000
v -1.5000000 0.3925000 -0.0870000
v 1.5000000 0.3925000 -0.0870000
v 1.5000000 0.3925000 -0.0570000
v -1.5000000 0.3925000 -0.0870000
v 1.5000000 0.3925000 -0.0570000
v -1.5000000 0.3925000 -0.0570000
v -1.5000000 0.4375000 -0.0870000
v -1.5000000 0.4375000 -0.0570000
v 1.5000000 0.4375000 -0.0570000
v -1.5000000 0.4375000 -0.0870000
v 1.5000000 0.4375000 -0.0570000
v 1.5000000 0.4375000 -0.0870000
v -1.5500000 0.5150000 -0.0550000
v -1.5500000 0.9450000 -0.0550000
v 1.5500000 0.9450000 -0.0550000
v -1.5500000 0.5150000 -0.0550000
v 1.5500000 0.9450000 -0.0550000
v 1.5500000 0.5150000 -0.0550000
v -1.5500000 0.5150000 0.0550000
v 1.5500000 0.5150000 0.0550000
v 1.5500000 0.9450000 0.0550000
v -1.5500000 0.5150000 0.0550000
v 1.5500000 0.9450000 0.0550000
v -1.5500000 0.9450000 0.0550000
v -1.5500000 0.5150000 -0.0550000
v -1.5500000 0.5150000 0.0550000
v -1.5500000 0.9450000 0.0550000
v -1.5500000 0.5150000 -0.0550000
v -1.5500000 0.9450000 0.0550000
v -1.5500000 0.9450000 -0.0550000
v 1.5500000 0.5150000 -0.0550000
v 1.5500000 0.9450000 -0.0550000
v 1.5500000 0.9450000 0.0550000
v 1.5500000 0.5150000 -0.0550000
v 1.5500000 0.9450000 0.0550000
v 1.5500000 0.5150000 0.0550000
v -1.5500000 0.5150000 -0.0550000
v 1.5500000 0.5150000 -0.0550000
v 1.5500000 0.5150000 0.0550000
v -1.5500000 0.5150000 -0.0550000
v 1.5500000 0.5150000 0.0550000
v -1.5500000 0.5150000 0.0550000
v -1.5500000 0.9450000 -0.0550000
v -1.5500000 0.9450000 0.0550000
v 1.5500000 0.9450000 0.0550000
v -1.5500000 0.9450000 -0.0550000
v 1.5500000 0.9450000 0.0550000
v 1.5500000 0.9450000 -0.0550000
v -1.5000000 0.5325000 -0.0870000
v -1.5000000 0.5775000 -0.0870000
v 1.5000000 0.5775000 -0.0870000
v -1.5000000 0.5325000 -0.0870000
v 1.5000000 0.5775000 -0.0870000
v 1.5000000 0.5325000 -0.0870000
v -1.5000000 0.5325000 -0.0570000
v 1.5000000 0.5325000 -0.0570000
v 1.5000000 0.5775000 -0.0570000
v -1.5000000 0.5325000 -0.0570000
v 1.5000000 0.5775000 -0.0570000
v -1.5000000 0.5775000 -0.0570000
v -1.5000000 0.5325000 -0.0870000
v -1.5000000 0.5325000 -0.0570000
v -1.5000000 0.5775000 -0.0570000
v -1.5000000 0.5325000 -0.0870000
v -1.5000000 0.5775000 -0.0570000
v -1.5000000 0.5775000 -0.0870000
v 1.5000000 0.5325000 -0.0870000
v 1.5000000 0.5775000 -0.0870000
v 1.5000000 0.5775000 -0.0570000
v 1.5000000 0.5325000 -0.0870000
v 1.5000000 0.5775000 -0.0570000
v 1.5000000 0.5325000 -0.0570000
v -1.5000000 0.5325000 -0.0870000
v 1.5000000 0.5325000 -0.0870000
v 1.5000000 0.5325000 -0.0570000
v -1.5000000 0.5325000 -0.0870000
v 1.5000000 0.5325000 -0.0570000
v -1.5000000 0.5325000 -0.0570000
v -1.5000000 0.5775000 -0.0870000
v -1.5000000 0.5775000 -0.0570000
v 1.5000000 0.5775000 -0.0570000
v -1.5000000 0.5775000 -0.0870000
v 1.5000000 0.5775000 -0.0570000
v 1.5000000 0.5775000 -0.0870000
v -1.5000000 0.8825000 -0.0870000
v -1.5000000 0.9275000 -0.0870000
v 1.5000000 0.9275000 -0.0870000
v -1.5000000 0.8825000 -0.0870000
v 1.5000000 0.9275000 -0.0870000
v 1.5000000 0.8825000 -0.0870000
v -1.5000000 0.8825000 -0.0570000
v 1.5000000 0.8825000 -0.0570000
v 1.5000000 0.9275000 -0.0570000
v -1.5000000 0.8825000 -0.0570000
v 1.5000000 0.9275000 -0.0570000
v -1.5000000 0.9275000 -0.0570000
v -1.5000000 0.8825000 -0.0870000
v -1.5000000 0.8825000 -0.0570000
v -1.5000000 0.9275000 -0.0570000
v -1.5000000 0.8825000 -0.0870000
v -1.5000000 0.9275000 -0.0570000
v -1.5000000 0.9275000 -0.0870000
v 1.5000000 0.8825000 -0.0870000
v 1.5000000 0.9275000 -0.0870000
v 1.5000000 0.9275000 -0.0570000
v 1.5000000 0.8825000 -0.0870000
v 1.5000000 0.9275000 -0.0570000
v 1.5000000 0.8825000 -0.0570000
v -1.5000000 0.8825000 -0.0870000
v 1.5000000 0.8825000 -0.0870000
v 1.5000000 0.8825000 -0.0570000
v -1.5000000 0.8825000 -0.0870000
v 1.5000000 0.8825000 -0.0570000
v -1.5000000 0.8825000 -0.0570000
v -1.5000000 0.9275000 -0.0870000
v -1.5000000 0.9275000 -0.0570000
v 1.5000000 0.9275000 -0.0570000
v -1.5000000 0.9275000 -0.0870000
v 1.5000000 0.9275000 -0.0570000
v 1.5000000 0.9275000 -0.0870000
v -1.5500000 0.9950000 -0.0550000
v -1.5500000 1.4250000 -0.0550000
v 1.5500000 1.4250000 -0.0550000
v -1.5500000 0.9950000 -0.0550000
v 1.5500000 1.4250000 -0.0550000
v 1.5500000 0.9950000 -0.0550000
v -1.5500000 0.9950000 0.0550000
v 1.5500000 0.9950000 0.0550000
v 1.5500000 1.4250000 0.0550000
v -1.5500000 0.9950000 0.0550000
v 1.5500000 1.4250000 0.0550000
v -1.5500000 1.4250000 0.0550000
v -1.5500000 0.9950000 -0.0550000
v -1.5500000 0.9950000 0.0550000
v -1.5500000 1.4250000 0.0550000
v -1.5500000 0.9950000 -0.0550000
v -1.5500000 1.4250000 0.0550000
v -1.5500000 1.4250000 -0.0550000
v 1.5500000 0.9950000 -0.0550000
v 1.5500000 1.4250000 -0.0550000
v 1.5500000 1.4250000 0.0550000
v 1.5500000 0.9950000 -0.0550000
v 1.5500000 1.4250000 0.0550000
v 1.5500000 0.9950000 0.0550000
v -1.5500000 0.9950000 -0.0550000
v 1.5500000 0.9950000 -0.0550000
v 1.5500000 0.9950000 0.0550000
v -1.5500000 0.9950000 -0.0550000
v 1.5500000 0.9950000 0.0550000
v -1.5500000 0.9950000 0.0550000
v -1.5500000 1.4250000 -0.0550000
v -1.5500000 1.4250000 0.0550000
v 1.5500000 1.4250000 0.0550000
v -1.5500000 1.4250000 -0.0550000
v 1.5500000 1.4250000 0.0550000
v 1.5500000 1.4250000 -0.0550000
v -1.5000000 1.0125000 -0.0870000
v -1.5000000 1.0575000 -0.0870000
v 1.5000000 1.0575000 -0.0870000
v -1.5000000 1.0125000 -0.0870000
v 1.5000000 1.0575000 -0.0870000
v 1.5000000 1.0125000 -0.0870000
v -1.5000000 1.0125000 -0.0570000
v 1.5000000 1.0125000 -0.0570000
v 1.5000000 1.0575000 -0.0570000
v -1.5000000 1.0125000 -0.0570000
v 1.5000000 1.0575000 -0.0570000
v -1.5000000 1.0575000 -0.0570000
v -1.5000000 1.0125000 -0.0870000
v -1.5000000 1.0125000 -0.0570000
v -1.5000000 1.0575000 -0.0570000
v -1.5000000 1.0125000 -0.0870000
v -1.5000000 1.0575000 -0.0570000
v -1.5000000 1.0575000 -0.0870000
v 1.5000000 1.0125000 -0.0870000
v 1.5000000 1.0575000 -0.0870000
v 1.5000000 1.0575000 -0.0570000
v 1.5000000 1.0125000 -0.0870000
v 1.5000000 1.0575000 -0.0570000
v 1.5000000 1.0125000 -0.0570000
v -1.5000000 1.0125000 -0.0870000
v 1.5000000 1.0125000 -0.0870000
v 1.5000000 1.0125000 -0.0570000
v -1.5000000 1.0125000 -0.0870000
v 1.5000000 1.0125000 -0.0570000
v -1.5000000 1.0125000 -0.0570000
v -1.5000000 1.0575000 -0.0870000
v -1.5000000 1.0575000 -0.0570000
v 1.5000000 1.0575000 -0.0570000
v -1.5000000 1.0575000 -0.0870000
v 1.5000000 1.0575000 -0.0570000
v 1.5000000 1.0575000 -0.0870000
v -1.5000000 1.3625000 -0.0870000
v -1.5000000 1.4075000 -0.0870000
v 1.5000000 1.4075000 -0.0870000
v -1.5000000 1.3625000 -0.0870000
v 1.5000000 1.4075000 -0.0870000
v 1.5000000 1.3625000 -0.0870000
v -1.5000000 1.3625000 -0.0570000
v 1.5000000 1.3625000 -0.0570000
v 1.5000000 1.4075000 -0.0570000
v -1.5000000 1.3625000 -0.0570000
v 1.5000000 1.4075000 -0.0570000
v -1.5000000 1.4075000 -0.0570000
v -1.5000000 1.3625000 -0.0870000
v -1.5000000 1.3625000 -0.0570000
v -1.5000000 1.4075000 -0.0570000
v -1.5000000 1.3625000 -0.0870000
v -1.5000000 1.4075000 -0.0570000
v -1.5000000 1.4075000 -0.0870000
v 1.5000000 1.3625000 -0.0870000
v 1.5000000 1.4075000 -0.0870000
v 1.5000000 1.4075000 -0.0570000
v 1.5000000 1.3625000 -0.0870000
v 1.5000000 1.4075000 -0.0570000
v 1.5000000 1.3625000 -0.0570000
v -1.5000000 1.3625000 -0.0870000
v 1.5000000 1.3625000 -0.0870000
v 1.5000000 1.3625000 -0.0570000
v -1.5000000 1.3625000 -0.0870000
v 1.5000000 1.3625000 -0.0570000
v -1.5000000 1.3625000 -0.0570000
v -1.5000000 1.4075000 -0.0870000
v -1.5000000 1.4075000 -0.0570000
v 1.5000000 1.4075000 -0.0570000
v -1.5000000 1.4075000 -0.0870000
v 1.5000000 1.4075000 -0.0570000
v 1.5000000 1.4075000 -0.0870000
v -1.2800000 0.7300000 -0.0990000
v -0.9600000 0.7300000 -0.0990000
v -1.1200000 0.6000000 -0.0990000
v -1.2800000 0.7300000 -0.0590000
v -1.1200000 0.6000000 -0.0590000
v -0.9600000 0.7300000 -0.0590000
v -1.2800000 0.7300000 -0.0990000
v -1.1200000 0.8600000 -0.0990000
v -0.9600000 0.7300000 -0.0990000
v -1.2800000 0.7300000 -0.0590000
v -0.9600000 0.7300000 -0.0590000
v -1.1200000 0.8600000 -0.0590000
v -1.2800000 0.7300000 -0.0990000
v -1.1200000 0.6000000 -0.0990000
v -1.1200000 0.6000000 -0.0590000
v -1.2800000 0.7300000 -0.0990000
v -1.1200000 0.6000000 -0.0590000
v -1.2800000 0.7300000 -0.0590000
v -1.1200000 0.6000000 -0.0990000
v -0.9600000 0.7300000 -0.0990000
v -0.9600000 0.7300000 -0.0590000
v -1.1200000 0.6000000 -0.0990000
v -0.9600000 0.7300000 -0.0590000
v -1.1200000 0.6000000 -0.0590000
v -0.9600000 0.7300000 -0.0990000
v -1.1200000 0.8600000 -0.0990000
v -1.1200000 0.8600000 -0.0590000
v -0.9600000 0.7300000 -0.0990000
v -1.1200000 0.8600000 -0.0590000
v -0.9600000 0.7300000 -0.0590000
v -1.1200000 0.8600000 -0.0990000
v -1.2800000 0.7300000 -0.0990000
v -1.2800000 0.7300000 -0.0590000
v -1.1200000 0.8600000 -0.0990000
v -1.2800000 0.7300000 -0.0590000
v -1.1200000 0.8600000 -0.0590000
v -1.2800000 1.2100000 -0.0990000
v -0.9600000 1.2100000 -0.0990000
v -1.1200000 1.0800000 -0.0990000
v -1.2800000 1.2100000 -0.0590000
v -1.1200000 1.0800000 -0.0590000
v -0.9600000 1.2100000 -0.0590000
v -1.2800000 1.2100000 -0.0990000
v -1.1200000 1.3400000 -0.0990000
v -0.9600000 1.2100000 -0.0990000
v -1.2800000 1.2100000 -0.0590000
v -0.9600000 1.2100000 -0.0590000
v -1.1200000 1.3400000 -0.0590000
v -1.2800000 1.2100000 -0.0990000
v -1.1200000 1.0800000 -0.0990000
v -1.1200000 1.0800000 -0.0590000
v -1.2800000 1.2100000 -0.0990000
v -1.1200000 1.0800000 -0.0590000
v -1.2800000 1.2100000 -0.0590000
v -1.1200000 1.0800000 -0.0990000
v -0.9600000 1.2100000 -0.0990000
v -0.9600000 1.2100000 -0.0590000
v -1.1200000 1.0800000 -0.0990000
v -0.9600000 1.2100000 -0.0590000
v -1.1200000 1.0800000 -0.0590000
v -0.9600000 1.2100000 -0.0990000
v -1.1200000 1.3400000 -0.0990000
v -1.1200000 1.3400000 -0.0590000
v -0.9600000 1.2100000 -0.0990000
v -1.1200000 1.3400000 -0.0590000
v -0.9600000 1.2100000 -0.0590000
v -1.1200000 1.3400000 -0.0990000
v -1.2800000 1.2100000 -0.0990000
v -1.2800000 1.2100000 -0.0590000
v -1.1200000 1.3400000 -0.0990000
v -1.2800000 1.2100000 -0.0590000
v -1.1200000 1.3400000 -0.0590000
v -0.7200000 0.7300000 -0.0990000
v -0.4000000 0.7300000 -0.0990000
v -0.5600000 0.6000000 -0.0990000
v -0.7200000 0.7300000 -0.0590000
v -0.5600000 0.6000000 -0.0590000
v -0.4000000 0.7300000 -0.0590000
v -0.7200000 0.7300000 -0.0990000
v -0.5600000 0.8600000 -0.0990000
v -0.4000000 0.7300000 -0.0990000
v -0.7200000 0.7300000 -0.0590000
v -0.4000000 0.7300000 -0.0590000
v -0.5600000 0.8600000 -0.0590000
v -0.7200000 0.7300000 -0.0990000
v -0.5600000 0.6000000 -0.0990000
v -0.5600000 0.6000000 -0.0590000
v -0.7200000 0.7300000 -0.0990000
v -0.5600000 0.6000000 -0.0590000
v -0.7200000 0.7300000 -0.0590000
v -0.5600000 0.6000000 -0.0990000
v -0.4000000 0.7300000 -0.0990000
v -0.4000000 0.7300000 -0.0590000
v -0.5600000 0.6000000 -0.0990000
v -0.4000000 0.7300000 -0.0590000
v -0.5600000 0.6000000 -0.0590000
v -0.4000000 0.7300000 -0.0990000
v -0.5600000 0.8600000 -0.0990000
v -0.5600000 0.8600000 -0.0590000
v -0.4000000 0.7300000 -0.0990000
v -0.5600000 0.8600000 -0.0590000
v -0.4000000 0.7300000 -0.0590000
v -0.5600000 0.8600000 -0.0990000
v -0.7200000 0.7300000 -0.0990000
v -0.7200000 0.7300000 -0.0590000
v -0.5600000 0.8600000 -0.0990000
v -0.7200000 0.7300000 -0.0590000
v -0.5600000 0.8600000 -0.0590000
v -0.7200000 1.2100000 -0.0990000
v -0.4000000 1.2100000 -0.0990000
v -0.5600000 1.0800000 -0.0990000
v -0.7200000 1.2100000 -0.0590000
v -0.5600000 1.0800000 -0.0590000
v -0.4000000 1.2100000 -0.0590000
v -0.7200000 1.2100000 -0.0990000
v -0.5600000 1.3400000 -0.0990000
v -0.4000000 1.2100000 -0.0990000
v -0.7200000 1.2100000 -0.0590000
v -0.4000000 1.2100000 -0.0590000
v -0.5600000 1.3400000 -0.0590000
v -0.7200000 1.2100000 -0.0990000
v -0.5600000 1.0800000 -0.0990000
v -0.5600000 1.0800000 -0.0590000
v -0.7200000 1.2100000 -0.0990000
v -0.5600000 1.0800000 -0.0590000
v -0.7200000 1.2100000 -0.0590000
v -0.5600000 1.0800000 -0.0990000
v -0.4000000 1.2100000 -0.0990000
v -0.4000000 1.2100000 -0.0590000
v -0.5600000 1.0800000 -0.0990000
v -0.4000000 1.2100000 -0.0590000
v -0.5600000 1.0800000 -0.0590000
v -0.4000000 1.2100000 -0.0990000
v -0.5600000 1.3400000 -0.0990000
v -0.5600000 1.3400000 -0.0590000
v -0.4000000 1.2100000 -0.0990000
v -0.5600000 1.3400000 -0.0590000
v -0.4000000 1.2100000 -0.0590000
v -0.5600000 1.3400000 -0.0990000
v -0.7200000 1.2100000 -0.0990000
v -0.7200000 1.2100000 -0.0590000
v -0.5600000 1.3400000 -0.0990000
v -0.7200000 1.2100000 -0.0590000
v -0.5600000 1.3400000 -0.0590000
v -0.1600000 0.7300000 -0.0990000
v 0.1600000 0.7300000 -0.0990000
v 0.0000000 0.6000000 -0.0990000
v -0.1600000 0.7300000 -0.0590000
v 0.0000000 0.6000000 -0.0590000
v 0.1600000 0.7300000 -0.0590000
v -0.1600000 0.7300000 -0.0990000
v 0.0000000 0.8600000 -0.0990000
v 0.1600000 0.7300000 -0.0990000
v -0.1600000 0.7300000 -0.0590000
v 0.1600000 0.7300000 -0.0590000
v 0.0000000 0.8600000 -0.0590000
v -0.1600000 0.7300000 -0.0990000
v 0.0000000 0.6000000 -0.0990000
v 0.0000000 0.6000000 -0.0590000
v -0.1600000 0.7300000 -0.0990000
v 0.0000000 0.6000000 -0.0590000
v -0.1600000 0.7300000 -0.0590000
v 0.0000000 0.6000000 -0.0990000
v 0.1600000 0.7300000 -0.0990000
v 0.1600000 0.7300000 -0.0590000
v 0.0000000 0.6000000 -0.0990000
v 0.1600000 0.7300000 -0.0590000
v 0.0000000 0.6000000 -0.0590000
v 0.1600000 0.7300000 -0.0990000
v 0.0000000 0.8600000 -0.0990000
v 0.0000000 0.8600000 -0.0590000
v 0.1600000 0.7300000 -0.0990000
v 0.0000000 0.8600000 -0.0590000
v 0.1600000 0.7300000 -0.0590000
v 0.0000000 0.8600000 -0.0990000
v -0.1600000 0.7300000 -0.0990000
v -0.1600000 0.7300000 -0.0590000
v 0.0000000 0.8600000 -0.0990000
v -0.1600000 0.7300000 -0.0590000
v 0.0000000 0.8600000 -0.0590000
v -0.1600000 1.2100000 -0.0990000
v 0.1600000 1.2100000 -0.0990000
v 0.0000000 1.0800000 -0.0990000
v -0.1600000 1.2100000 -0.0590000
v 0.0000000 1.0800000 -0.0590000
v 0.1600000 1.2100000 -0.0590000
v -0.1600000 1.2100000 -0.0990000
v 0.0000000 1.3400000 -0.0990000
v 0.1600000 1.2100000 -0.0990000
v -0.1600000 1.2100000 -0.0590000
v 0.1600000 1.2100000 -0.0590000
v 0.0000000 1.3400000 -0.0590000
v -0.1600000 1.2100000 -0.0990000
v 0.0000000 1.0800000 -0.0990000
v 0.0000000 1.0800000 -0.0590000
v -0.1600000 1.2100000 -0.0990000
v 0.0000000 1.0800000 -0.0590000
v -0.1600000 1.2100000 -0.0590000
v 0.0000000 1.0800000 -0.0990000
v 0.1600000 1.2100000 -0.0990000
v 0.1600000 1.2100000 -0.0590000
v 0.0000000 1.0800000 -0.0990000
v 0.1600000 1.2100000 -0.0590000
v 0.0000000 1.0800000 -0.0590000
v 0.1600000 1.2100000 -0.0990000
v 0.0000000 1.3400000 -0.0990000
v 0.0000000 1.3400000 -0.0590000
v 0.1600000 1.2100000 -0.0990000
v 0.0000000 1.3400000 -0.0590000
v 0.1600000 1.2100000 -0.0590000
v 0.0000000 1.3400000 -0.0990000
v -0.1600000 1.2100000 -0.0990000
v -0.1600000 1.2100000 -0.0590000
v 0.0000000 1.3400000 -0.0990000
v -0.1600000 1.2100000 -0.0590000
v 0.0000000 1.3400000 -0.0590000
v 0.4000000 0.7300000 -0.0990000
v 0.7200000 0.7300000 -0.0990000
v 0.5600000 0.6000000 -0.0990000
v 0.4000000 0.7300000 -0.0590000
v 0.5600000 0.6000000 -0.0590000
v 0.7200000 0.7300000 -0.0590000
v 0.4000000 0.7300000 -0.0990000
v 0.5600000 0.8600000 -0.0990000
v 0.7200000 0.7300000 -0.0990000
v 0.4000000 0.7300000 -0.0590000
v 0.7200000 0.7300000 -0.0590000
v 0.5600000 0.8600000 -0.0590000
v 0.4000000 0.7300000 -0.0990000
v 0.5600000 0.6000000 -0.0990000
v 0.5600000 0.6000000 -0.0590000
v 0.4000000 0.7300000 -0.0990000
v 0.5600000 0.6000000 -0.0590000
v 0.4000000 0.7300000 -0.0590000
v 0.5600000 0.6000000 -0.0990000
v 0.7200000 0.7300000 -0.0990000
v 0.7200000 0.7300000 -0.0590000
v 0.5600000 0.6000000 -0.0990000
v 0.7200000 0.7300000 -0.0590000
v 0.5600000 0.6000000 -0.0590000
v 0.7200000 0.7300000 -0.0990000
v 0.5600000 0.8600000 -0.0990000
v 0.5600000 0.8600000 -0.0590000
v 0.7200000 0.7300000 -0.0990000
v 0.5600000 0.8600000 -0.0590000
v 0.7200000 0.7300000 -0.0590000
v 0.5600000 0.8600000 -0.0990000
v 0.4000000 0.7300000 -0.0990000
v 0.4000000 0.7300000 -0.0590000
v 0.5600000 0.8600000 -0.0990000
v 0.4000000 0.7300000 -0.0590000
v 0.5600000 0.8600000 -0.0590000
v 0.4000000 1.2100000 -0.0990000
v 0.7200000 1.2100000 -0.0990000
v 0.5600000 1.0800000 -0.0990000
v 0.4000000 1.2100000 -0.0590000
v 0.5600000 1.0800000 -0.0590000
v 0.7200000 1.2100000 -0.0590000
v 0.4000000 1.2100000 -0.0990000
v 0.5600000 1.3400000 -0.0990000
v 0.7200000 1.2100000 -0.0990000
v 0.4000000 1.2100000 -0.0590000
v 0.7200000 1.2100000 -0.0590000
v 0.5600000 1.3400000 -0.0590000
v 0.4000000 1.2100000 -0.0990000
v 0.5600000 1.0800000 -0.0990000
v 0.5600000 1.0800000 -0.0590000
v 0.4000000 1.2100000 -0.0990000
v 0.5600000 1.0800000 -0.0590000
v 0.4000000 1.2100000 -0.0590000
v 0.5600000 1.0800000 -0.0990000
v 0.7200000 1.2100000 -0.0990000
v 0.7200000 1.2100000 -0.0590000
v 0.5600000 1.0800000 -0.0990000
v 0.7200000 1.2100000 -0.0590000
v 0.5600000 1.0800000 -0.0590000
v 0.7200000 1.2100000 -0.0990000
v 0.5600000 1.3400000 -0.0990000
v 0.5600000 1.3400000 -0.0590000
v 0.7200000 1.2100000 -0.0990000
v 0.5600000 1.3400000 -0.0590000
v 0.7200000 1.2100000 -0.0590000
v 0.5600000 1.3400000 -0.0990000
v 0.4000000 1.2100000 -0.0990000
v 0.4000000 1.2100000 -0.0590000
v 0.5600000 1.3400000 -0.0990000
v 0.4000000 1.2100000 -0.0590000
v 0.5600000 1.3400000 -0.0590000
v 0.9600000 0.7300000 -0.0990000
v 1.2800000 0.7300000 -0.0990000
v 1.1200000 0.6000000 -0.0990000
v 0.9600000 0.7300000 -0.0590000
v 1.1200000 0.6000000 -0.0590000
v 1.2800000 0.7300000 -0.0590000
v 0.9600000 0.7300000 -0.0990000
v 1.1200000 0.8600000 -0.0990000
v 1.2800000 0.7300000 -0.0990000
v 0.9600000 0.7300000 -0.0590000
v 1.2800000 0.7300000 -0.0590000
v 1.1200000 0.8600000 -0.0590000
v 0.9600000 0.7300000 -0.0990000
v 1.1200000 0.6000000 -0.0990000
v 1.1200000 0.6000000 -0.0590000
v 0.9600000 0.7300000 -0.0990000
v 1.1200000 0.6000000 -0.0590000
v 0.9600000 0.7300000 -0.0590000
v 1.1200000 0.6000000 -0.0990000
v 1.2800000 0.7300000 -0.0990000
v 1.2800000 0.7300000 -0.0590000
v 1.1200000 0.6000000 -0.0990000
v 1.2800000 0.7300000 -0.0590000
v 1.1200000 0.6000000 -0.0590000
v 1.2800000 0.7300000 -0.0990000
v 1.1200000 0.8600000 -0.0990000
v 1.1200000 0.8600000 -0.0590000
v 1.2800000 0.7300000 -0.0990000
v 1.1200000 0.8600000 -0.0590000
v 1.2800000 0.7300000 -0.0590000
v 1.1200000 0.8600000 -0.0990000
v 0.9600000 0.7300000 -0.0990000
v 0.9600000 0.7300000 -0.0590000
v 1.1200000 0.8600000 -0.0990000
v 0.9600000 0.7300000 -0.0590000
v 1.1200000 0.8600000 -0.0590000
v 0.9600000 1.2100000 -0.0990000
v 1.2800000 1.2100000 -0.0990000
v 1.1200000 1.0800000 -0.0990000
v 0.9600000 1.2100000 -0.0590000
v 1.1200000 1.0800000 -0.0590000
v 1.2800000 1.2100000 -0.0590000
v 0.9600000 1.2100000 -0.0990000
v 1.1200000 1.3400000 -0.0990000
v 1.2800000 1.2100000 -0.0990000
v 0.9600000 1.2100000 -0.0590000
v 1.2800000 1.2100000 -0.0590000
v 1.1200000 1.3400000 -0.0590000
v 0.9600000 1.2100000 -0.0990000
v 1.1200000 1.0800000 -0.0990000
v 1.1200000 1.0800000 -0.0590000
v 0.9600000 1.2100000 -0.0990000
v 1.1200000 1.0800000 -0.0590000
v 0.9600000 1.2100000 -0.0590000
v 1.1200000 1.0800000 -0.0990000
v 1.2800000 1.2100000 -0.0990000
v 1.2800000 1.2100000 -0.0590000
v 1.1200000 1.0800000 -0.0990000
v 1.2800000 1.2100000 -0.0590000
v 1.1200000 1.0800000 -0.0590000
v 1.2800000 1.2100000 -0.0990000
v 1.1200000 1.3400000 -0.0990000
v 1.1200000 1.3400000 -0.0590000
v 1.2800000 1.2100000 -0.0990000
v 1.1200000 1.3400000 -0.0590000
v 1.2800000 1.2100000 -0.0590000
v 1.1200000 1.3400000 -0.0990000
v 0.9600000 1.2100000 -0.0990000
v 0.9600000 1.2100000 -0.0590000
v 1.1200000 1.3400000 -0.0990000
v 0.9600000 1.2100000 -0.0590000
v 1.1200000 1.3400000 -0.0590000
v -1.5150000 1.4150000 -0.0550000
v -1.5150000 1.5650000 -0.0550000
v -1.2850000 1.5650000 -0.0550000
v -1.5150000 1.4150000 -0.0550000
v -1.2850000 1.5650000 -0.0550000
v -1.2850000 1.4150000 -0.0550000
v -1.5150000 1.4150000 0.0550000
v -1.2850000 1.4150000 0.0550000
v -1.2850000 1.5650000 0.0550000
v -1.5150000 1.4150000 0.0550000
v -1.2850000 1.5650000 0.0550000
v -1.5150000 1.5650000 0.0550000
v -1.5150000 1.4150000 -0.0550000
v -1.5150000 1.4150000 0.0550000
v -1.5150000 1.5650000 0.0550000
v -1.5150000 1.4150000 -0.0550000
v -1.5150000 1.5650000 0.0550000
v -1.5150000 1.5650000 -0.0550000
v -1.2850000 1.4150000 -0.0550000
v -1.2850000 1.5650000 -0.0550000
v -1.2850000 1.5650000 0.0550000
v -1.2850000 1.4150000 -0.0550000
v -1.2850000 1.5650000 0.0550000
v -1.2850000 1.4150000 0.0550000
v -1.5150000 1.4150000 -0.0550000
v -1.2850000 1.4150000 -0.0550000
v -1.2850000 1.4150000 0.0550000
v -1.5150000 1.4150000 -0.0550000
v -1.2850000 1.4150000 0.0550000
v -1.5150000 1.4150000 0.0550000
v -1.5150000 1.5650000 -0.0550000
v -1.5150000 1.5650000 0.0550000
v -1.2850000 1.5650000 0.0550000
v -1.5150000 1.5650000 -0.0550000
v -1.2850000 1.5650000 0.0550000
v -1.2850000 1.5650000 -0.0550000
v -0.1150000 1.4150000 -0.0550000
v -0.1150000 1.5650000 -0.0550000
v 0.1150000 1.5650000 -0.0550000
v -0.1150000 1.4150000 -0.0550000
v 0.1150000 1.5650000 -0.0550000
v 0.1150000 1.4150000 -0.0550000
v -0.1150000 1.4150000 0.0550000
v 0.1150000 1.4150000 0.0550000
v 0.1150000 1.5650000 0.0550000
v -0.1150000 1.4150000 0.0550000
v 0.1150000 1.5650000 0.0550000
v -0.1150000 1.5650000 0.0550000
v -0.1150000 1.4150000 -0.0550000
v -0.1150000 1.4150000 0.0550000
v -0.1150000 1.5650000 0.0550000
v -0.1150000 1.4150000 -0.0550000
v -0.1150000 1.5650000 0.0550000
v -0.1150000 1.5650000 -0.0550000
v 0.1150000 1.4150000 -0.0550000
v 0.1150000 1.5650000 -0.0550000
v 0.1150000 1.5650000 0.0550000
v 0.1150000 1.4150000 -0.0550000
v 0.1150000 1.5650000 0.0550000
v 0.1150000 1.4150000 0.0550000
v -0.1150000 1.4150000 -0.0550000
v 0.1150000 1.4150000 -0.0550000
v 0.1150000 1.4150000 0.0550000
v -0.1150000 1.4150000 -0.0550000
v 0.1150000 1.4150000 0.0550000
v -0.1150000 1.4150000 0.0550000
v -0.1150000 1.5650000 -0.0550000
v -0.1150000 1.5650000 0.0550000
v 0.1150000 1.5650000 0.0550000
v -0.1150000 1.5650000 -0.0550000
v 0.1150000 1.5650000 0.0550000
v 0.1150000 1.5650000 -0.0550000
v 1.2850000 1.4150000 -0.0550000
v 1.2850000 1.5650000 -0.0550000
v 1.5150000 1.5650000 -0.0550000
v 1.2850000 1.4150000 -0.0550000
v 1.5150000 1.5650000 -0.0550000
v 1.5150000 1.4150000 -0.0550000
v 1.2850000 1.4150000 0.0550000
v 1.5150000 1.4150000 0.0550000
v 1.5150000 1.5650000 0.0550000
v 1.2850000 1.4150000 0.0550000
v 1.5150000 1.5650000 0.0550000
v 1.2850000 1.5650000 0.0550000
v 1.2850000 1.4150000 -0.0550000
v 1.2850000 1.4150000 0.0550000
v 1.2850000 1.5650000 0.0550000
v 1.2850000 1.4150000 -0.0550000
v 1.2850000 1.5650000 0.0550000
v 1.2850000 1.5650000 -0.0550000
v 1.5150000 1.4150000 -0.0550000
v 1.5150000 1.5650000 -0.0550000
v 1.5150000 1.5650000 0.0550000
v 1.5150000 1.4150000 -0.0550000
v 1.5150000 1.5650000 0.0550000
v 1.5150000 1.4150000 0.0550000
v 1.2850000 1.4150000 -0.0550000
v 1.5150000 1.4150000 -0.0550000
v 1.5150000 1.4150000 0.0550000
v 1.2850000 1.4150000 -0.0550000
v 1.5150000 1.4150000 0.0550000
v 1.2850000 1.4150000 0.0550000
v 1.2850000 1.5650000 -0.0550000
v 1.2850000 1.5650000 0.0550000
v 1.5150000 1.5650000 0.0550000
v 1.2850000 1.5650000 -0.0550000
v 1.5150000 1.5650000 0.0550000
v 1.5150000 1.5650000 -0.0550000
v -1.6000000 1.5600000 -0.0650000
v -1.6000000 1.6600000 -0.0650000
v 1.6000000 1.6600000 -0.0650000
v -1.6000000 1.5600000 -0.0650000
v 1.6000000 1.6600000 -0.0650000
v 1.6000000 1.5600000 -0.0650000
v -1.6000000 1.5600000 0.0650000
v 1.6000000 1.5600000 0.0650000
v 1.6000000 1.6600000 0.0650000
v -1.6000000 1.5600000 0.0650000
v 1.6000000 1.6600000 0.0650000
v -1.6000000 1.6600000 0.0650000
v -1.6000000 1.5600000 -0.0650000
v -1.6000000 1.5600000 0.0650000
v -1.6000000 1.6600000 0.0650000
v -1.6000000 1.5600000 -0.0650000
v -1.6000000 1.6600000 0.0650000
v -1.6000000 1.6600000 -0.0650000
v 1.6000000 1.5600000 -0.0650000
v 1.6000000 1.6600000 -0.0650000
v 1.6000000 1.6600000 0.0650000
v 1.6000000 1.5600000 -0.0650000
v 1.6000000 1.6600000 0.0650000
v 1.6000000 1.5600000 0.0650000
v -1.6000000 1.5600000 -0.0650000
v 1.6000000 1.5600000 -0.0650000
v 1.6000000 1.5600000 0.0650000
v -1.6000000 1.5600000 -0.0650000
v 1.6000000 1.5600000 0.0650000
v -1.6000000 1.5600000 0.0650000
v -1.6000000 1.6600000 -0.0650000
v -1.6000000 1.6600000 0.0650000
v 1.6000000 1.6600000 0.0650000
v -1.6000000 1.6600000 -0.0650000
v 1.6000000 1.6600000 0.0650000
v 1.6000000 1.6600000 -0.0650000
vn 0.0000000 0.0000000 -1.0000000
vn 0.0000000 0.0000000 -1.0000000
vn 0.0000000 0.0000000 1.0000000
vn 0.0000000 0.0000000 1.0000000
vn -1.0000000 0.0000000 0.0000000
vn -1.0000000 0.0000000 0.0000000
vn 1.0000000 0.0000000 0.0000000
vn 1.0000000 0.0000000 0.0000000
vn 0.0000000 -1.0000000 0.0000000
vn 0.0000000 -1.0000000 0.0000000
vn 0.0000000 1.0000000 0.0000000
vn 0.0000000 1.0000000 0.0000000
vn 0.0000000 0.0000000 -1.0000000
vn 0.0000000 0.0000000 -1.0000000
vn 0.0000000 0.0000000 1.0000000
vn 0.0000000 0.0000000 1.0000000
vn -1.0000000 0.0000000 0.0000000
vn -1.0000000 0.0000000 0.0000000
vn 1.0000000 0.0000000 0.0000000
vn 1.0000000 0.0000000 0.0000000
vn 0.0000000 -1.0000000 0.0000000
vn 0.0000000 -1.0000000 0.0000000
vn 0.0000000 1.0000000 0.0000000
vn 0.0000000 1.0000000 0.0000000
vn 0.0000000 0.0000000 -1.0000000
vn 0.0000000 0.0000000 -1.0000000
vn 0.0000000 0.0000000 1.0000000
vn 0.0000000 0.0000000 1.0000000
vn -1.0000000 0.0000000 0.0000000
vn -1.0000000 0.0000000 0.0000000
vn 1.0000000 0.0000000 0.0000000
vn 1.0000000 0.0000000 0.0000000
vn 0.0000000 -1.0000000 0.0000000
vn 0.0000000 -1.0000000 0.0000000
vn 0.0000000 1.0000000 0.0000000
vn 0.0000000 1.0000000 0.0000000
vn 0.0000000 0.0000000 -1.0000000
vn 0.0000000 0.0000000 -1.0000000
vn 0.0000000 0.0000000 1.0000000
vn 0.0000000 0.0000000 1.0000000
vn -1.0000000 0.0000000 0.0000000
vn -1.0000000 0.0000000 0.0000000
vn 1.0000000 0.0000000 0.0000000
vn 1.0000000 0.0000000 0.0000000
vn 0.0000000 -1.0000000 0.0000000
vn 0.0000000 -1.0000000 0.0000000
vn 0.0000000 1.0000000 0.0000000
vn 0.0000000 1.0000000 0.0000000
vn 0.0000000 0.0000000 -1.0000000
vn 0.0000000 0.0000000 -1.0000000
vn 0.0000000 0.0000000 1.0000000
vn 0.0000000 0.0000000 1.0000000
vn -1.0000000 0.0000000 0.0000000
vn -1.0000000 0.0000000 0.0000000
vn 1.0000000 0.0000000 0.0000000
vn 1.0000000 0.0000000 0.0000000
vn 0.0000000 -1.0000000 0.0000000
vn 0.0000000 -1.0000000 0.0000000
vn 0.0000000 1.0000000 0.0000000
vn 0.0000000 1.0000000 0.0000000
vn 0.0000000 0.0000000 -1.0000000
vn 0.0000000 0.0000000 -1.0000000
vn 0.0000000 0.0000000 1.0000000
vn 0.0000000 0.0000000 1.0000000
vn -1.0000000 0.0000000 0.0000000
vn -1.0000000 0.0000000 0.0000000
vn 1.0000000 0.0000000 0.0000000
vn 1.0000000 0.0000000 0.0000000
vn 0.0000000 -1.0000000 0.0000000
vn 0.0000000 -1.0000000 0.0000000
vn 0.0000000 1.0000000 0.0000000
vn 0.0000000 1.0000000 0.0000000
vn 0.0000000 0.0000000 -1.0000000
vn 0.0000000 0.0000000 -1.0000000
vn 0.0000000 0.0000000 1.0000000
vn 0.0000000 0.0000000 1.0000000
vn -1.0000000 0.0000000 0.0000000
vn -1.0000000 0.0000000 0.0000000
vn 1.0000000 0.0000000 0.0000000
vn 1.0000000 0.0000000 0.0000000
vn 0.0000000 -1.0000000 0.0000000
vn 0.0000000 -1.0000000 0.0000000
vn 0.0000000 1.0000000 0.0000000
vn 0.0000000 1.0000000 0.0000000
vn 0.0000000 0.0000000 -1.0000000
vn 0.0000000 0.0000000 -1.0000000
vn 0.0000000 0.0000000 1.0000000
vn 0.0000000 0.0000000 1.0000000
vn -1.0000000 0.0000000 0.0000000
vn -1.0000000 0.0000000 0.0000000
vn 1.0000000 0.0000000 0.0000000
vn 1.0000000 0.0000000 0.0000000
vn 0.0000000 -1.0000000 0.0000000
vn 0.0000000 -1.0000000 0.0000000
vn 0.0000000 1.0000000 0.0000000
vn 0.0000000 1.0000000 0.0000000
vn 0.0000000 0.0000000 -1.0000000
vn 0.0000000 0.0000000 -1.0000000
vn 0.0000000 0.0000000 1.0000000
vn 0.0000000 0.0000000 1.0000000
vn -1.0000000 0.0000000 0.0000000
vn -1.0000000 0.0000000 0.0000000
vn 1.0000000 0.0000000 0.0000000
vn 1.0000000 0.0000000 0.0000000
vn 0.0000000 -1.0000000 0.0000000
vn 0.0000000 -1.0000000 0.0000000
vn 0.0000000 1.0000000 0.0000000
vn 0.0000000 1.0000000 0.0000000
vn 0.0000000 0.0000000 -1.0000000
vn 0.0000000 0.0000000 -1.0000000
vn 0.0000000 0.0000000 1.0000000
vn 0.0000000 0.0000000 1.0000000
vn -1.0000000 0.0000000 0.0000000
vn -1.0000000 0.0000000 0.0000000
vn 1.0000000 0.0000000 0.0000000
vn 1.0000000 0.0000000 0.0000000
vn 0.0000000 -1.0000000 0.0000000
vn 0.0000000 -1.0000000 0.0000000
vn 0.0000000 1.0000000 0.0000000
vn 0.0000000 1.0000000 0.0000000
vn 0.0000000 0.0000000 -1.0000000
vn 0.0000000 0.0000000 -1.0000000
vn 0.0000000 0.0000000 1.0000000
vn 0.0000000 0.0000000 1.0000000
vn -1.0000000 0.0000000 0.0000000
vn -1.0000000 0.0000000 0.0000000
vn 1.0000000 0.0000000 0.0000000
vn 1.0000000 0.0000000 0.0000000
vn 0.0000000 -1.0000000 0.0000000
vn 0.0000000 -1.0000000 0.0000000
vn 0.0000000 1.0000000 0.0000000
vn 0.0000000 1.0000000 0.0000000
vn 0.0000000 0.0000000 -1.0000000
vn -0.0000000 0.0000000 1.0000000
vn 0.0000000 0.0000000 -1.0000000
vn 0.0000000 0.0000000 1.0000000
vn -0.6305926 -0.7761140 0.0000000
vn -0.6305926 -0.7761140 0.0000000
vn 0.6305926 -0.7761140 0.0000000
vn 0.6305926 -0.7761140 0.0000000
vn 0.6305926 0.7761140 0.0000000
vn 0.6305926 0.7761140 -0.0000000
vn -0.6305926 0.7761140 0.0000000
vn -0.6305926 0.7761140 0.0000000
vn 0.0000000 0.0000000 -1.0000000
vn -0.0000000 0.0000000 1.0000000
vn 0.0000000 0.0000000 -1.0000000
vn 0.0000000 0.0000000 1.0000000
vn -0.6305926 -0.7761140 0.0000000
vn -0.6305926 -0.7761140 0.0000000
vn 0.6305926 -0.7761140 0.0000000
vn 0.6305926 -0.7761140 0.0000000
vn 0.6305926 0.7761140 0.0000000
vn 0.6305926 0.7761140 -0.0000000
vn -0.6305926 0.7761140 0.0000000
vn -0.6305926 0.7761140 0.0000000
vn 0.0000000 0.0000000 -1.0000000
vn -0.0000000 0.0000000 1.0000000
vn 0.0000000 0.0000000 -1.0000000
vn 0.0000000 0.0000000 1.0000000
vn -0.6305926 -0.7761140 0.0000000
vn -0.6305926 -0.7761140 0.0000000
vn 0.6305926 -0.7761140 0.0000000
vn 0.6305926 -0.7761140 0.0000000
vn 0.6305926 0.7761140 0.0000000
vn 0.6305926 0.7761140 -0.0000000
vn -0.6305926 0.7761140 0.0000000
vn -0.6305926 0.7761140 0.0000000
vn 0.0000000 0.0000000 -1.0000000
vn -0.0000000 0.0000000 1.0000000
vn 0.0000000 0.0000000 -1.0000000
vn 0.0000000 0.0000000 1.0000000
vn -0.6305926 -0.7761140 0.0000000
vn -0.6305926 -0.7761140 0.0000000
vn 0.6305926 -0.7761140 0.0000000
vn 0.6305926 -0.7761140 0.0000000
vn 0.6305926 0.7761140 0.0000000
vn 0.6305926 0.7761140 -0.0000000
vn -0.6305926 0.7761140 0.0000000
vn -0.6305926 0.7761140 0.0000000
vn 0.0000000 0.0000000 -1.0000000
vn -0.0000000 0.0000000 1.0000000
vn 0.0000000 0.0000000 -1.0000000
vn 0.0000000 0.0000000 1.0000000
vn -0.6305926 -0.7761140 0.0000000
vn -0.6305926 -0.7761140 0.0000000
vn 0.6305926 -0.7761140 0.0000000
vn 0.6305926 -0.7761140 0.0000000
vn 0.6305926 0.7761140 0.0000000
vn 0.6305926 0.7761140 -0.0000000
vn -0.6305926 0.7761140 0.0000000
vn -0.6305926 0.7761140 0.0000000
vn 0.0000000 0.0000000 -1.0000000
vn -0.0000000 0.0000000 1.0000000
vn 0.0000000 0.0000000 -1.0000000
vn 0.0000000 0.0000000 1.0000000
vn -0.6305926 -0.7761140 0.0000000
vn -0.6305926 -0.7761140 0.0000000
vn 0.6305926 -0.7761140 0.0000000
vn 0.6305926 -0.7761140 0.0000000
vn 0.6305926 0.7761140 0.0000000
vn 0.6305926 0.7761140 -0.0000000
vn -0.6305926 0.7761140 0.0000000
vn -0.6305926 0.7761140 0.0000000
vn 0.0000000 0.0000000 -1.0000000
vn -0.0000000 0.0000000 1.0000000
vn 0.0000000 0.0000000 -1.0000000
vn 0.0000000 0.0000000 1.0000000
vn -0.6305926 -0.7761140 0.0000000
vn -0.6305926 -0.7761140 0.0000000
vn 0.6305926 -0.7761140 0.0000000
vn 0.6305926 -0.7761140 0.0000000
vn 0.6305926 0.7761140 0.0000000
vn 0.6305926 0.7761140 -0.0000000
vn -0.6305926 0.7761140 0.0000000
vn -0.6305926 0.7761140 0.0000000
vn 0.0000000 0.0000000 -1.0000000
vn -0.0000000 0.0000000 1.0000000
vn 0.0000000 0.0000000 -1.0000000
vn 0.0000000 0.0000000 1.0000000
vn -0.6305926 -0.7761140 0.0000000
vn -0.6305926 -0.7761140 0.0000000
vn 0.6305926 -0.7761140 0.0000000
vn 0.6305926 -0.7761140 0.0000000
vn 0.6305926 0.7761140 0.0000000
vn 0.6305926 0.7761140 -0.0000000
vn -0.6305926 0.7761140 0.0000000
vn -0.6305926 0.7761140 0.0000000
vn 0.0000000 0.0000000 -1.0000000
vn -0.0000000 0.0000000 1.0000000
vn 0.0000000 0.0000000 -1.0000000
vn 0.0000000 0.0000000 1.0000000
vn -0.6305926 -0.7761140 0.0000000
vn -0.6305926 -0.7761140 0.0000000
vn 0.6305926 -0.7761140 0.0000000
vn 0.6305926 -0.7761140 0.0000000
vn 0.6305926 0.7761140 0.0000000
vn 0.6305926 0.7761140 -0.0000000
vn -0.6305926 0.7761140 0.0000000
vn -0.6305926 0.7761140 0.0000000
vn 0.0000000 0.0000000 -1.0000000
vn -0.0000000 0.0000000 1.0000000
vn 0.0000000 0.0000000 -1.0000000
vn 0.0000000 0.0000000 1.0000000
vn -0.6305926 -0.7761140 0.0000000
vn -0.6305926 -0.7761140 0.0000000
vn 0.6305926 -0.7761140 0.0000000
vn 0.6305926 -0.7761140 0.0000000
vn 0.6305926 0.7761140 0.0000000
vn 0.6305926 0.7761140 -0.0000000
vn -0.6305926 0.7761140 0.0000000
vn -0.6305926 0.7761140 0.0000000
vn 0.0000000 0.0000000 -1.0000000
vn 0.0000000 0.0000000 -1.0000000
vn 0.0000000 0.0000000 1.0000000
vn 0.0000000 0.0000000 1.0000000
vn -1.0000000 0.0000000 0.0000000
vn -1.0000000 0.0000000 0.0000000
vn 1.0000000 0.0000000 0.0000000
vn 1.0000000 0.0000000 0.0000000
vn 0.0000000 -1.0000000 0.0000000
vn 0.0000000 -1.0000000 0.0000000
vn 0.0000000 1.0000000 0.0000000
vn 0.0000000 1.0000000 0.0000000
vn 0.0000000 0.0000000 -1.0000000
vn 0.0000000 0.0000000 -1.0000000
vn 0.0000000 0.0000000 1.0000000
vn 0.0000000 0.0000000 1.0000000
vn -1.0000000 0.0000000 0.0000000
vn -1.0000000 0.0000000 0.0000000
vn 1.0000000 0.0000000 0.0000000
vn 1.0000000 0.0000000 0.0000000
vn 0.0000000 -1.0000000 0.0000000
vn 0.0000000 -1.0000000 0.0000000
vn 0.0000000 1.0000000 0.0000000
vn 0.0000000 1.0000000 0.0000000
vn 0.0000000 0.0000000 -1.0000000
vn 0.0000000 0.0000000 -1.0000000
vn 0.0000000 0.0000000 1.0000000
vn 0.0000000 0.0000000 1.0000000
vn -1.0000000 0.0000000 0.0000000
vn -1.0000000 0.0000000 0.0000000
vn 1.0000000 0.0000000 0.0000000
vn 1.0000000 0.0000000 0.0000000
vn 0.0000000 -1.0000000 0.0000000
vn 0.0000000 -1.0000000 0.0000000
vn 0.0000000 1.0000000 0.0000000
vn 0.0000000 1.0000000 0.0000000
vn 0.0000000 0.0000000 -1.0000000
vn 0.0000000 0.0000000 -1.0000000
vn 0.0000000 0.0000000 1.0000000
vn 0.0000000 0.0000000 1.0000000
vn -1.0000000 0.0000000 0.0000000
vn -1.0000000 0.0000000 0.0000000
vn 1.0000000 0.0000000 0.0000000
vn 1.0000000 0.0000000 0.0000000
vn 0.0000000 -1.0000000 0.0000000
vn 0.0000000 -1.0000000 0.0000000
vn 0.0000000 1.0000000 0.0000000
vn 0.0000000 1.0000000 0.0000000
usemtl concrete_dark
f 1//1 2//1 3//1
usemtl concrete_dark
f 4//2 5//2 6//2
usemtl concrete_dark
f 7//3 8//3 9//3
usemtl concrete_dark
f 10//4 11//4 12//4
usemtl concrete_dark
f 13//5 14//5 15//5
usemtl concrete_dark
f 16//6 17//6 18//6
usemtl concrete_dark
f 19//7 20//7 21//7
usemtl concrete_dark
f 22//8 23//8 24//8
usemtl concrete_dark
f 25//9 26//9 27//9
usemtl concrete_dark
f 28//10 29//10 30//10
usemtl concrete_dark
f 31//11 32//11 33//11
usemtl concrete_dark
f 34//12 35//12 36//12
usemtl concrete_dark
f 37//13 38//13 39//13
usemtl concrete_dark
f 40//14 41//14 42//14
usemtl concrete_dark
f 43//15 44//15 45//15
usemtl concrete_dark
f 46//16 47//16 48//16
usemtl concrete_dark
f 49//17 50//17 51//17
usemtl concrete_dark
f 52//18 53//18 54//18
usemtl concrete_dark
f 55//19 56//19 57//19
usemtl concrete_dark
f 58//20 59//20 60//20
usemtl concrete_dark
f 61//21 62//21 63//21
usemtl concrete_dark
f 64//22 65//22 66//22
usemtl concrete_dark
f 67//23 68//23 69//23
usemtl concrete_dark
f 70//24 71//24 72//24
usemtl concrete
f 73//25 74//25 75//25
usemtl concrete
f 76//26 77//26 78//26
usemtl concrete
f 79//27 80//27 81//27
usemtl concrete
f 82//28 83//28 84//28
usemtl concrete
f 85//29 86//29 87//29
usemtl concrete
f 88//30 89//30 90//30
usemtl concrete
f 91//31 92//31 93//31
usemtl concrete
f 94//32 95//32 96//32
usemtl concrete
f 97//33 98//33 99//33
usemtl concrete
f 100//34 101//34 102//34
usemtl concrete
f 103//35 104//35 105//35
usemtl concrete
f 106//36 107//36 108//36
usemtl plaster_worn
f 109//37 110//37 111//37
usemtl plaster_worn
f 112//38 113//38 114//38
usemtl plaster_worn
f 115//39 116//39 117//39
usemtl plaster_worn
f 118//40 119//40 120//40
usemtl plaster_worn
f 121//41 122//41 123//41
usemtl plaster_worn
f 124//42 125//42 126//42
usemtl plaster_worn
f 127//43 128//43 129//43
usemtl plaster_worn
f 130//44 131//44 132//44
usemtl plaster_worn
f 133//45 134//45 135//45
usemtl plaster_worn
f 136//46 137//46 138//46
usemtl plaster_worn
f 139//47 140//47 141//47
usemtl plaster_worn
f 142//48 143//48 144//48
usemtl plaster_worn
f 145//49 146//49 147//49
usemtl plaster_worn
f 148//50 149//50 150//50
usemtl plaster_worn
f 151//51 152//51 153//51
usemtl plaster_worn
f 154//52 155//52 156//52
usemtl plaster_worn
f 157//53 158//53 159//53
usemtl plaster_worn
f 160//54 161//54 162//54
usemtl plaster_worn
f 163//55 164//55 165//55
usemtl plaster_worn
f 166//56 167//56 168//56
usemtl plaster_worn
f 169//57 170//57 171//57
usemtl plaster_worn
f 172//58 173//58 174//58
usemtl plaster_worn
f 175//59 176//59 177//59
usemtl plaster_worn
f 178//60 179//60 180//60
usemtl concrete
f 181//61 182//61 183//61
usemtl concrete
f 184//62 185//62 186//62
usemtl concrete
f 187//63 188//63 189//63
usemtl concrete
f 190//64 191//64 192//64
usemtl concrete
f 193//65 194//65 195//65
usemtl concrete
f 196//66 197//66 198//66
usemtl concrete
f 199//67 200//67 201//67
usemtl concrete
f 202//68 203//68 204//68
usemtl concrete
f 205//69 206//69 207//69
usemtl concrete
f 208//70 209//70 210//70
usemtl concrete
f 211//71 212//71 213//71
usemtl concrete
f 214//72 215//72 216//72
usemtl plaster_worn
f 217//73 218//73 219//73
usemtl plaster_worn
f 220//74 221//74 222//74
usemtl plaster_worn
f 223//75 224//75 225//75
usemtl plaster_worn
f 226//76 227//76 228//76
usemtl plaster_worn
f 229//77 230//77 231//77
usemtl plaster_worn
f 232//78 233//78 234//78
usemtl plaster_worn
f 235//79 236//79 237//79
usemtl plaster_worn
f 238//80 239//80 240//80
usemtl plaster_worn
f 241//81 242//81 243//81
usemtl plaster_worn
f 244//82 245//82 246//82
usemtl plaster_worn
f 247//83 248//83 249//83
usemtl plaster_worn
f 250//84 251//84 252//84
usemtl plaster_worn
f 253//85 254//85 255//85
usemtl plaster_worn
f 256//86 257//86 258//86
usemtl plaster_worn
f 259//87 260//87 261//87
usemtl plaster_worn
f 262//88 263//88 264//88
usemtl plaster_worn
f 265//89 266//89 267//89
usemtl plaster_worn
f 268//90 269//90 270//90
usemtl plaster_worn
f 271//91 272//91 273//91
usemtl plaster_worn
f 274//92 275//92 276//92
usemtl plaster_worn
f 277//93 278//93 279//93
usemtl plaster_worn
f 280//94 281//94 282//94
usemtl plaster_worn
f 283//95 284//95 285//95
usemtl plaster_worn
f 286//96 287//96 288//96
usemtl concrete
f 289//97 290//97 291//97
usemtl concrete
f 292//98 293//98 294//98
usemtl concrete
f 295//99 296//99 297//99
usemtl concrete
f 298//100 299//100 300//100
usemtl concrete
f 301//101 302//101 303//101
usemtl concrete
f 304//102 305//102 306//102
usemtl concrete
f 307//103 308//103 309//103
usemtl concrete
f 310//104 311//104 312//104
usemtl concrete
f 313//105 314//105 315//105
usemtl concrete
f 316//106 317//106 318//106
usemtl concrete
f 319//107 320//107 321//107
usemtl concrete
f 322//108 323//108 324//108
usemtl plaster_worn
f 325//109 326//109 327//109
usemtl plaster_worn
f 328//110 329//110 330//110
usemtl plaster_worn
f 331//111 332//111 333//111
usemtl plaster_worn
f 334//112 335//112 336//112
usemtl plaster_worn
f 337//113 338//113 339//113
usemtl plaster_worn
f 340//114 341//114 342//114
usemtl plaster_worn
f 343//115 344//115 345//115
usemtl plaster_worn
f 346//116 347//116 348//116
usemtl plaster_worn
f 349//117 350//117 351//117
usemtl plaster_worn
f 352//118 353//118 354//118
usemtl plaster_worn
f 355//119 356//119 357//119
usemtl plaster_worn
f 358//120 359//120 360//120
usemtl plaster_worn
f 361//121 362//121 363//121
usemtl plaster_worn
f 364//122 365//122 366//122
usemtl plaster_worn
f 367//123 368//123 369//123
usemtl plaster_worn
f 370//124 371//124 372//124
usemtl plaster_worn
f 373//125 374//125 375//125
usemtl plaster_worn
f 376//126 377//126 378//126
usemtl plaster_worn
f 379//127 380//127 381//127
usemtl plaster_worn
f 382//128 383//128 384//128
usemtl plaster_worn
f 385//129 386//129 387//129
usemtl plaster_worn
f 388//130 389//130 390//130
usemtl plaster_worn
f 391//131 392//131 393//131
usemtl plaster_worn
f 394//132 395//132 396//132
usemtl concrete_dark
f 397//133 398//133 399//133
usemtl concrete_dark
f 400//134 401//134 402//134
usemtl concrete_dark
f 403//135 404//135 405//135
usemtl concrete_dark
f 406//136 407//136 408//136
usemtl concrete_dark
f 409//137 410//137 411//137
usemtl concrete_dark
f 412//138 413//138 414//138
usemtl concrete_dark
f 415//139 416//139 417//139
usemtl concrete_dark
f 418//140 419//140 420//140
usemtl concrete_dark
f 421//141 422//141 423//141
usemtl concrete_dark
f 424//142 425//142 426//142
usemtl concrete_dark
f 427//143 428//143 429//143
usemtl concrete_dark
f 430//144 431//144 432//144
usemtl concrete_dark
f 433//145 434//145 435//145
usemtl concrete_dark
f 436//146 437//146 438//146
usemtl concrete_dark
f 439//147 440//147 441//147
usemtl concrete_dark
f 442//148 443//148 444//148
usemtl concrete_dark
f 445//149 446//149 447//149
usemtl concrete_dark
f 448//150 449//150 450//150
usemtl concrete_dark
f 451//151 452//151 453//151
usemtl concrete_dark
f 454//152 455//152 456//152
usemtl concrete_dark
f 457//153 458//153 459//153
usemtl concrete_dark
f 460//154 461//154 462//154
usemtl concrete_dark
f 463//155 464//155 465//155
usemtl concrete_dark
f 466//156 467//156 468//156
usemtl concrete_dark
f 469//157 470//157 471//157
usemtl concrete_dark
f 472//158 473//158 474//158
usemtl concrete_dark
f 475//159 476//159 477//159
usemtl concrete_dark
f 478//160 479//160 480//160
usemtl concrete_dark
f 481//161 482//161 483//161
usemtl concrete_dark
f 484//162 485//162 486//162
usemtl concrete_dark
f 487//163 488//163 489//163
usemtl concrete_dark
f 490//164 491//164 492//164
usemtl concrete_dark
f 493//165 494//165 495//165
usemtl concrete_dark
f 496//166 497//166 498//166
usemtl concrete_dark
f 499//167 500//167 501//167
usemtl concrete_dark
f 502//168 503//168 504//168
usemtl concrete_dark
f 505//169 506//169 507//169
usemtl concrete_dark
f 508//170 509//170 510//170
usemtl concrete_dark
f 511//171 512//171 513//171
usemtl concrete_dark
f 514//172 515//172 516//172
usemtl concrete_dark
f 517//173 518//173 519//173
usemtl concrete_dark
f 520//174 521//174 522//174
usemtl concrete_dark
f 523//175 524//175 525//175
usemtl concrete_dark
f 526//176 527//176 528//176
usemtl concrete_dark
f 529//177 530//177 531//177
usemtl concrete_dark
f 532//178 533//178 534//178
usemtl concrete_dark
f 535//179 536//179 537//179
usemtl concrete_dark
f 538//180 539//180 540//180
usemtl concrete_dark
f 541//181 542//181 543//181
usemtl concrete_dark
f 544//182 545//182 546//182
usemtl concrete_dark
f 547//183 548//183 549//183
usemtl concrete_dark
f 550//184 551//184 552//184
usemtl concrete_dark
f 553//185 554//185 555//185
usemtl concrete_dark
f 556//186 557//186 558//186
usemtl concrete_dark
f 559//187 560//187 561//187
usemtl concrete_dark
f 562//188 563//188 564//188
usemtl concrete_dark
f 565//189 566//189 567//189
usemtl concrete_dark
f 568//190 569//190 570//190
usemtl concrete_dark
f 571//191 572//191 573//191
usemtl concrete_dark
f 574//192 575//192 576//192
usemtl concrete_dark
f 577//193 578//193 579//193
usemtl concrete_dark
f 580//194 581//194 582//194
usemtl concrete_dark
f 583//195 584//195 585//195
usemtl concrete_dark
f 586//196 587//196 588//196
usemtl concrete_dark
f 589//197 590//197 591//197
usemtl concrete_dark
f 592//198 593//198 594//198
usemtl concrete_dark
f 595//199 596//199 597//199
usemtl concrete_dark
f 598//200 599//200 600//200
usemtl concrete_dark
f 601//201 602//201 603//201
usemtl concrete_dark
f 604//202 605//202 606//202
usemtl concrete_dark
f 607//203 608//203 609//203
usemtl concrete_dark
f 610//204 611//204 612//204
usemtl concrete_dark
f 613//205 614//205 615//205
usemtl concrete_dark
f 616//206 617//206 618//206
usemtl concrete_dark
f 619//207 620//207 621//207
usemtl concrete_dark
f 622//208 623//208 624//208
usemtl concrete_dark
f 625//209 626//209 627//209
usemtl concrete_dark
f 628//210 629//210 630//210
usemtl concrete_dark
f 631//211 632//211 633//211
usemtl concrete_dark
f 634//212 635//212 636//212
usemtl concrete_dark
f 637//213 638//213 639//213
usemtl concrete_dark
f 640//214 641//214 642//214
usemtl concrete_dark
f 643//215 644//215 645//215
usemtl concrete_dark
f 646//216 647//216 648//216
usemtl concrete_dark
f 649//217 650//217 651//217
usemtl concrete_dark
f 652//218 653//218 654//218
usemtl concrete_dark
f 655//219 656//219 657//219
usemtl concrete_dark
f 658//220 659//220 660//220
usemtl concrete_dark
f 661//221 662//221 663//221
usemtl concrete_dark
f 664//222 665//222 666//222
usemtl concrete_dark
f 667//223 668//223 669//223
usemtl concrete_dark
f 670//224 671//224 672//224
usemtl concrete_dark
f 673//225 674//225 675//225
usemtl concrete_dark
f 676//226 677//226 678//226
usemtl concrete_dark
f 679//227 680//227 681//227
usemtl concrete_dark
f 682//228 683//228 684//228
usemtl concrete_dark
f 685//229 686//229 687//229
usemtl concrete_dark
f 688//230 689//230 690//230
usemtl concrete_dark
f 691//231 692//231 693//231
usemtl concrete_dark
f 694//232 695//232 696//232
usemtl concrete_dark
f 697//233 698//233 699//233
usemtl concrete_dark
f 700//234 701//234 702//234
usemtl concrete_dark
f 703//235 704//235 705//235
usemtl concrete_dark
f 706//236 707//236 708//236
usemtl concrete_dark
f 709//237 710//237 711//237
usemtl concrete_dark
f 712//238 713//238 714//238
usemtl concrete_dark
f 715//239 716//239 717//239
usemtl concrete_dark
f 718//240 719//240 720//240
usemtl concrete_dark
f 721//241 722//241 723//241
usemtl concrete_dark
f 724//242 725//242 726//242
usemtl concrete_dark
f 727//243 728//243 729//243
usemtl concrete_dark
f 730//244 731//244 732//244
usemtl concrete_dark
f 733//245 734//245 735//245
usemtl concrete_dark
f 736//246 737//246 738//246
usemtl concrete_dark
f 739//247 740//247 741//247
usemtl concrete_dark
f 742//248 743//248 744//248
usemtl concrete_dark
f 745//249 746//249 747//249
usemtl concrete_dark
f 748//250 749//250 750//250
usemtl concrete_dark
f 751//251 752//251 753//251
usemtl concrete_dark
f 754//252 755//252 756//252
usemtl concrete
f 757//253 758//253 759//253
usemtl concrete
f 760//254 761//254 762//254
usemtl concrete
f 763//255 764//255 765//255
usemtl concrete
f 766//256 767//256 768//256
usemtl concrete
f 769//257 770//257 771//257
usemtl concrete
f 772//258 773//258 774//258
usemtl concrete
f 775//259 776//259 777//259
usemtl concrete
f 778//260 779//260 780//260
usemtl concrete
f 781//261 782//261 783//261
usemtl concrete
f 784//262 785//262 786//262
usemtl concrete
f 787//263 788//263 789//263
usemtl concrete
f 790//264 791//264 792//264
usemtl concrete
f 793//265 794//265 795//265
usemtl concrete
f 796//266 797//266 798//266
usemtl concrete
f 799//267 800//267 801//267
usemtl concrete
f 802//268 803//268 804//268
usemtl concrete
f 805//269 806//269 807//269
usemtl concrete
f 808//270 809//270 810//270
usemtl concrete
f 811//271 812//271 813//271
usemtl concrete
f 814//272 815//272 816//272
usemtl concrete
f 817//273 818//273 819//273
usemtl concrete
f 820//274 821//274 822//274
usemtl concrete
f 823//275 824//275 825//275
usemtl concrete
f 826//276 827//276 828//276
usemtl concrete
f 829//277 830//277 831//277
usemtl concrete
f 832//278 833//278 834//278
usemtl concrete
f 835//279 836//279 837//279
usemtl concrete
f 838//280 839//280 840//280
usemtl concrete
f 841//281 842//281 843//281
usemtl concrete
f 844//282 845//282 846//282
usemtl concrete
f 847//283 848//283 849//283
usemtl concrete
f 850//284 851//284 852//284
usemtl concrete
f 853//285 854//285 855//285
usemtl concrete
f 856//286 857//286 858//286
usemtl concrete
f 859//287 860//287 861//287
usemtl concrete
f 862//288 863//288 864//288
usemtl plaster_worn
f 865//289 866//289 867//289
usemtl plaster_worn
f 868//290 869//290 870//290
usemtl plaster_worn
f 871//291 872//291 873//291
usemtl plaster_worn
f 874//292 875//292 876//292
usemtl plaster_worn
f 877//293 878//293 879//293
usemtl plaster_worn
f 880//294 881//294 882//294
usemtl plaster_worn
f 883//295 884//295 885//295
usemtl plaster_worn
f 886//296 887//296 888//296
usemtl plaster_worn
f 889//297 890//297 891//297
usemtl plaster_worn
f 892//298 893//298 894//298
usemtl plaster_worn
f 895//299 896//299 897//299
usemtl plaster_worn
f 898//300 899//300 900//300
