# Original Quiet Camp Ukrainian rural presentation asset
# Units: metres; Y up; no external geometry or textures
mtllib palette.mtl
o ua_gate
v -1.8300000 0.0000000 -0.1150000
v -1.8300000 1.8800000 -0.1150000
v -1.6100000 1.8800000 -0.1150000
v -1.8300000 0.0000000 -0.1150000
v -1.6100000 1.8800000 -0.1150000
v -1.6100000 0.0000000 -0.1150000
v -1.8300000 0.0000000 0.1150000
v -1.6100000 0.0000000 0.1150000
v -1.6100000 1.8800000 0.1150000
v -1.8300000 0.0000000 0.1150000
v -1.6100000 1.8800000 0.1150000
v -1.8300000 1.8800000 0.1150000
v -1.8300000 0.0000000 -0.1150000
v -1.8300000 0.0000000 0.1150000
v -1.8300000 1.8800000 0.1150000
v -1.8300000 0.0000000 -0.1150000
v -1.8300000 1.8800000 0.1150000
v -1.8300000 1.8800000 -0.1150000
v -1.6100000 0.0000000 -0.1150000
v -1.6100000 1.8800000 -0.1150000
v -1.6100000 1.8800000 0.1150000
v -1.6100000 0.0000000 -0.1150000
v -1.6100000 1.8800000 0.1150000
v -1.6100000 0.0000000 0.1150000
v -1.8300000 0.0000000 -0.1150000
v -1.6100000 0.0000000 -0.1150000
v -1.6100000 0.0000000 0.1150000
v -1.8300000 0.0000000 -0.1150000
v -1.6100000 0.0000000 0.1150000
v -1.8300000 0.0000000 0.1150000
v -1.8300000 1.8800000 -0.1150000
v -1.8300000 1.8800000 0.1150000
v -1.6100000 1.8800000 0.1150000
v -1.8300000 1.8800000 -0.1150000
v -1.6100000 1.8800000 0.1150000
v -1.6100000 1.8800000 -0.1150000
v 1.6100000 0.0000000 -0.1150000
v 1.6100000 1.8800000 -0.1150000
v 1.8300000 1.8800000 -0.1150000
v 1.6100000 0.0000000 -0.1150000
v 1.8300000 1.8800000 -0.1150000
v 1.8300000 0.0000000 -0.1150000
v 1.6100000 0.0000000 0.1150000
v 1.8300000 0.0000000 0.1150000
v 1.8300000 1.8800000 0.1150000
v 1.6100000 0.0000000 0.1150000
v 1.8300000 1.8800000 0.1150000
v 1.6100000 1.8800000 0.1150000
v 1.6100000 0.0000000 -0.1150000
v 1.6100000 0.0000000 0.1150000
v 1.6100000 1.8800000 0.1150000
v 1.6100000 0.0000000 -0.1150000
v 1.6100000 1.8800000 0.1150000
v 1.6100000 1.8800000 -0.1150000
v 1.8300000 0.0000000 -0.1150000
v 1.8300000 1.8800000 -0.1150000
v 1.8300000 1.8800000 0.1150000
v 1.8300000 0.0000000 -0.1150000
v 1.8300000 1.8800000 0.1150000
v 1.8300000 0.0000000 0.1150000
v 1.6100000 0.0000000 -0.1150000
v 1.8300000 0.0000000 -0.1150000
v 1.8300000 0.0000000 0.1150000
v 1.6100000 0.0000000 -0.1150000
v 1.8300000 0.0000000 0.1150000
v 1.6100000 0.0000000 0.1150000
v 1.6100000 1.8800000 -0.1150000
v 1.6100000 1.8800000 0.1150000
v 1.8300000 1.8800000 0.1150000
v 1.6100000 1.8800000 -0.1150000
v 1.8300000 1.8800000 0.1150000
v 1.8300000 1.8800000 -0.1150000
v -1.6311294 0.3275000 -0.0372453
v -1.6311294 0.4325000 -0.0372453
v -0.2537311 0.4325000 -0.7696209
v -1.6311294 0.3275000 -0.0372453
v -0.2537311 0.4325000 -0.7696209
v -0.2537311 0.3275000 -0.7696209
v -1.5865296 0.3275000 0.0466347
v -0.2091313 0.3275000 -0.6857409
v -0.2091313 0.4325000 -0.6857409
v -1.5865296 0.3275000 0.0466347
v -0.2091313 0.4325000 -0.6857409
v -1.5865296 0.4325000 0.0466347
v -1.6311294 0.3275000 -0.0372453
v -1.5865296 0.3275000 0.0466347
v -1.5865296 0.4325000 0.0466347
v -1.6311294 0.3275000 -0.0372453
v -1.5865296 0.4325000 0.0466347
v -1.6311294 0.4325000 -0.0372453
v -0.2537311 0.3275000 -0.7696209
v -0.2537311 0.4325000 -0.7696209
v -0.2091313 0.4325000 -0.6857409
v -0.2537311 0.3275000 -0.7696209
v -0.2091313 0.4325000 -0.6857409
v -0.2091313 0.3275000 -0.6857409
v -1.6311294 0.3275000 -0.0372453
v -0.2537311 0.3275000 -0.7696209
v -0.2091313 0.3275000 -0.6857409
v -1.6311294 0.3275000 -0.0372453
v -0.2091313 0.3275000 -0.6857409
v -1.5865296 0.3275000 0.0466347
v -1.6311294 0.4325000 -0.0372453
v -1.5865296 0.4325000 0.0466347
v -0.2091313 0.4325000 -0.6857409
v -1.6311294 0.4325000 -0.0372453
v -0.2091313 0.4325000 -0.6857409
v -0.2537311 0.4325000 -0.7696209
v -1.6311294 1.2275000 -0.0372453
v -1.6311294 1.3325000 -0.0372453
v -0.2537311 1.3325000 -0.7696209
v -1.6311294 1.2275000 -0.0372453
v -0.2537311 1.3325000 -0.7696209
v -0.2537311 1.2275000 -0.7696209
v -1.5865296 1.2275000 0.0466347
v -0.2091313 1.2275000 -0.6857409
v -0.2091313 1.3325000 -0.6857409
v -1.5865296 1.2275000 0.0466347
v -0.2091313 1.3325000 -0.6857409
v -1.5865296 1.3325000 0.0466347
v -1.6311294 1.2275000 -0.0372453
v -1.5865296 1.2275000 0.0466347
v -1.5865296 1.3325000 0.0466347
v -1.6311294 1.2275000 -0.0372453
v -1.5865296 1.3325000 0.0466347
v -1.6311294 1.3325000 -0.0372453
v -0.2537311 1.2275000 -0.7696209
v -0.2537311 1.3325000 -0.7696209
v -0.2091313 1.3325000 -0.6857409
v -0.2537311 1.2275000 -0.7696209
v -0.2091313 1.3325000 -0.6857409
v -0.2091313 1.2275000 -0.6857409
v -1.6311294 1.2275000 -0.0372453
v -0.2537311 1.2275000 -0.7696209
v -0.2091313 1.2275000 -0.6857409
v -1.6311294 1.2275000 -0.0372453
v -0.2091313 1.2275000 -0.6857409
v -1.5865296 1.2275000 0.0466347
v -1.6311294 1.3325000 -0.0372453
v -1.5865296 1.3325000 0.0466347
v -0.2091313 1.3325000 -0.6857409
v -1.6311294 1.3325000 -0.0372453
v -0.2091313 1.3325000 -0.6857409
v -0.2537311 1.3325000 -0.7696209
v -0.4587689 0.1500000 -0.7398803
v -0.2556910 1.5400000 -0.8478588
v -0.2556910 0.1500000 -0.8478588
v -0.4235586 0.1500000 -0.6736592
v -0.2204806 0.1500000 -0.7816377
v -0.2204806 1.5400000 -0.7816377
v -0.4587689 0.1500000 -0.7398803
v -0.3572299 1.6500000 -0.7938695
v -0.2556910 1.5400000 -0.8478588
v -0.4235586 0.1500000 -0.6736592
v -0.2204806 1.5400000 -0.7816377
v -0.3220196 1.6500000 -0.7276485
v -0.4587689 0.1500000 -0.7398803
v -0.4587689 1.5400000 -0.7398803
v -0.3572299 1.6500000 -0.7938695
v -0.4235586 0.1500000 -0.6736592
v -0.3220196 1.6500000 -0.7276485
v -0.4235586 1.5400000 -0.6736592
v -0.4587689 0.1500000 -0.7398803
v -0.2556910 0.1500000 -0.8478588
v -0.2204806 0.1500000 -0.7816377
v -0.4587689 0.1500000 -0.7398803
v -0.2204806 0.1500000 -0.7816377
v -0.4235586 0.1500000 -0.6736592
v -0.2556910 0.1500000 -0.8478588
v -0.2556910 1.5400000 -0.8478588
v -0.2204806 1.5400000 -0.7816377
v -0.2556910 0.1500000 -0.8478588
v -0.2204806 1.5400000 -0.7816377
v -0.2204806 0.1500000 -0.7816377
v -0.2556910 1.5400000 -0.8478588
v -0.3572299 1.6500000 -0.7938695
v -0.3220196 1.6500000 -0.7276485
v -0.2556910 1.5400000 -0.8478588
v -0.3220196 1.6500000 -0.7276485
v -0.2204806 1.5400000 -0.7816377
v -0.3572299 1.6500000 -0.7938695
v -0.4587689 1.5400000 -0.7398803
v -0.4235586 1.5400000 -0.6736592
v -0.3572299 1.6500000 -0.7938695
v -0.4235586 1.5400000 -0.6736592
v -0.3220196 1.6500000 -0.7276485
v -0.4587689 1.5400000 -0.7398803
v -0.4587689 0.1500000 -0.7398803
v -0.4235586 0.1500000 -0.6736592
v -0.4587689 1.5400000 -0.7398803
v -0.4235586 0.1500000 -0.6736592
v -0.4235586 1.5400000 -0.6736592
v -0.7059942 0.1500000 -0.6084283
v -0.5029163 1.5400000 -0.7164067
v -0.5029163 0.1500000 -0.7164067
v -0.6707839 0.1500000 -0.5422072
v -0.4677059 0.1500000 -0.6501857
v -0.4677059 1.5400000 -0.6501857
v -0.7059942 0.1500000 -0.6084283
v -0.6044553 1.6500000 -0.6624175
v -0.5029163 1.5400000 -0.7164067
v -0.6707839 0.1500000 -0.5422072
v -0.4677059 1.5400000 -0.6501857
v -0.5692449 1.6500000 -0.5961964
v -0.7059942 0.1500000 -0.6084283
v -0.7059942 1.5400000 -0.6084283
v -0.6044553 1.6500000 -0.6624175
v -0.6707839 0.1500000 -0.5422072
v -0.5692449 1.6500000 -0.5961964
v -0.6707839 1.5400000 -0.5422072
v -0.7059942 0.1500000 -0.6084283
v -0.5029163 0.1500000 -0.7164067
v -0.4677059 0.1500000 -0.6501857
v -0.7059942 0.1500000 -0.6084283
v -0.4677059 0.1500000 -0.6501857
v -0.6707839 0.1500000 -0.5422072
v -0.5029163 0.1500000 -0.7164067
v -0.5029163 1.5400000 -0.7164067
v -0.4677059 1.5400000 -0.6501857
v -0.5029163 0.1500000 -0.7164067
v -0.4677059 1.5400000 -0.6501857
v -0.4677059 0.1500000 -0.6501857
v -0.5029163 1.5400000 -0.7164067
v -0.6044553 1.6500000 -0.6624175
v -0.5692449 1.6500000 -0.5961964
v -0.5029163 1.5400000 -0.7164067
v -0.5692449 1.6500000 -0.5961964
v -0.4677059 1.5400000 -0.6501857
v -0.6044553 1.6500000 -0.6624175
v -0.7059942 1.5400000 -0.6084283
v -0.6707839 1.5400000 -0.5422072
v -0.6044553 1.6500000 -0.6624175
v -0.6707839 1.5400000 -0.5422072
v -0.5692449 1.6500000 -0.5961964
v -0.7059942 1.5400000 -0.6084283
v -0.7059942 0.1500000 -0.6084283
v -0.6707839 0.1500000 -0.5422072
v -0.7059942 1.5400000 -0.6084283
v -0.6707839 0.1500000 -0.5422072
v -0.6707839 1.5400000 -0.5422072
v -0.9532196 0.1500000 -0.4769762
v -0.7501416 1.5400000 -0.5849547
v -0.7501416 0.1500000 -0.5849547
v -0.9180092 0.1500000 -0.4107552
v -0.7149313 0.1500000 -0.5187336
v -0.7149313 1.5400000 -0.5187336
v -0.9532196 0.1500000 -0.4769762
v -0.8516806 1.6500000 -0.5309655
v -0.7501416 1.5400000 -0.5849547
v -0.9180092 0.1500000 -0.4107552
v -0.7149313 1.5400000 -0.5187336
v -0.8164702 1.6500000 -0.4647444
v -0.9532196 0.1500000 -0.4769762
v -0.9532196 1.5400000 -0.4769762
v -0.8516806 1.6500000 -0.5309655
v -0.9180092 0.1500000 -0.4107552
v -0.8164702 1.6500000 -0.4647444
v -0.9180092 1.5400000 -0.4107552
v -0.9532196 0.1500000 -0.4769762
v -0.7501416 0.1500000 -0.5849547
v -0.7149313 0.1500000 -0.5187336
v -0.9532196 0.1500000 -0.4769762
v -0.7149313 0.1500000 -0.5187336
v -0.9180092 0.1500000 -0.4107552
v -0.7501416 0.1500000 -0.5849547
v -0.7501416 1.5400000 -0.5849547
v -0.7149313 1.5400000 -0.5187336
v -0.7501416 0.1500000 -0.5849547
v -0.7149313 1.5400000 -0.5187336
v -0.7149313 0.1500000 -0.5187336
v -0.7501416 1.5400000 -0.5849547
v -0.8516806 1.6500000 -0.5309655
v -0.8164702 1.6500000 -0.4647444
v -0.7501416 1.5400000 -0.5849547
v -0.8164702 1.6500000 -0.4647444
v -0.7149313 1.5400000 -0.5187336
v -0.8516806 1.6500000 -0.5309655
v -0.9532196 1.5400000 -0.4769762
v -0.9180092 1.5400000 -0.4107552
v -0.8516806 1.6500000 -0.5309655
v -0.9180092 1.5400000 -0.4107552
v -0.8164702 1.6500000 -0.4647444
v -0.9532196 1.5400000 -0.4769762
v -0.9532196 0.1500000 -0.4769762
v -0.9180092 0.1500000 -0.4107552
v -0.9532196 1.5400000 -0.4769762
v -0.9180092 0.1500000 -0.4107552
v -0.9180092 1.5400000 -0.4107552
v -1.2004449 0.1500000 -0.3455242
v -0.9973670 1.5400000 -0.4535027
v -0.9973670 0.1500000 -0.4535027
v -1.1652345 0.1500000 -0.2793031
v -0.9621566 0.1500000 -0.3872816
v -0.9621566 1.5400000 -0.3872816
v -1.2004449 0.1500000 -0.3455242
v -1.0989059 1.6500000 -0.3995134
v -0.9973670 1.5400000 -0.4535027
v -1.1652345 0.1500000 -0.2793031
v -0.9621566 1.5400000 -0.3872816
v -1.0636956 1.6500000 -0.3332924
v -1.2004449 0.1500000 -0.3455242
v -1.2004449 1.5400000 -0.3455242
v -1.0989059 1.6500000 -0.3995134
v -1.1652345 0.1500000 -0.2793031
v -1.0636956 1.6500000 -0.3332924
v -1.1652345 1.5400000 -0.2793031
v -1.2004449 0.1500000 -0.3455242
v -0.9973670 0.1500000 -0.4535027
v -0.9621566 0.1500000 -0.3872816
v -1.2004449 0.1500000 -0.3455242
v -0.9621566 0.1500000 -0.3872816
v -1.1652345 0.1500000 -0.2793031
v -0.9973670 0.1500000 -0.4535027
v -0.9973670 1.5400000 -0.4535027
v -0.9621566 1.5400000 -0.3872816
v -0.9973670 0.1500000 -0.4535027
v -0.9621566 1.5400000 -0.3872816
v -0.9621566 0.1500000 -0.3872816
v -0.9973670 1.5400000 -0.4535027
v -1.0989059 1.6500000 -0.3995134
v -1.0636956 1.6500000 -0.3332924
v -0.9973670 1.5400000 -0.4535027
v -1.0636956 1.6500000 -0.3332924
v -0.9621566 1.5400000 -0.3872816
v -1.0989059 1.6500000 -0.3995134
v -1.2004449 1.5400000 -0.3455242
v -1.1652345 1.5400000 -0.2793031
v -1.0989059 1.6500000 -0.3995134
v -1.1652345 1.5400000 -0.2793031
v -1.0636956 1.6500000 -0.3332924
v -1.2004449 1.5400000 -0.3455242
v -1.2004449 0.1500000 -0.3455242
v -1.1652345 0.1500000 -0.2793031
v -1.2004449 1.5400000 -0.3455242
v -1.1652345 0.1500000 -0.2793031
v -1.1652345 1.5400000 -0.2793031
v -1.4476702 0.1500000 -0.2140722
v -1.2445923 1.5400000 -0.3220506
v -1.2445923 0.1500000 -0.3220506
v -1.4124599 0.1500000 -0.1478511
v -1.2093819 0.1500000 -0.2558295
v -1.2093819 1.5400000 -0.2558295
v -1.4476702 0.1500000 -0.2140722
v -1.3461313 1.6500000 -0.2680614
v -1.2445923 1.5400000 -0.3220506
v -1.4124599 0.1500000 -0.1478511
v -1.2093819 1.5400000 -0.2558295
v -1.3109209 1.6500000 -0.2018403
v -1.4476702 0.1500000 -0.2140722
v -1.4476702 1.5400000 -0.2140722
v -1.3461313 1.6500000 -0.2680614
v -1.4124599 0.1500000 -0.1478511
v -1.3109209 1.6500000 -0.2018403
v -1.4124599 1.5400000 -0.1478511
v -1.4476702 0.1500000 -0.2140722
v -1.2445923 0.1500000 -0.3220506
v -1.2093819 0.1500000 -0.2558295
v -1.4476702 0.1500000 -0.2140722
v -1.2093819 0.1500000 -0.2558295
v -1.4124599 0.1500000 -0.1478511
v -1.2445923 0.1500000 -0.3220506
v -1.2445923 1.5400000 -0.3220506
v -1.2093819 1.5400000 -0.2558295
v -1.2445923 0.1500000 -0.3220506
v -1.2093819 1.5400000 -0.2558295
v -1.2093819 0.1500000 -0.2558295
v -1.2445923 1.5400000 -0.3220506
v -1.3461313 1.6500000 -0.2680614
v -1.3109209 1.6500000 -0.2018403
v -1.2445923 1.5400000 -0.3220506
v -1.3109209 1.6500000 -0.2018403
v -1.2093819 1.5400000 -0.2558295
v -1.3461313 1.6500000 -0.2680614
v -1.4476702 1.5400000 -0.2140722
v -1.4124599 1.5400000 -0.1478511
v -1.3461313 1.6500000 -0.2680614
v -1.4124599 1.5400000 -0.1478511
v -1.3109209 1.6500000 -0.2018403
v -1.4476702 1.5400000 -0.2140722
v -1.4476702 0.1500000 -0.2140722
v -1.4124599 0.1500000 -0.1478511
v -1.4476702 1.5400000 -0.2140722
v -1.4124599 0.1500000 -0.1478511
v -1.4124599 1.5400000 -0.1478511
v -1.6948956 0.1500000 -0.0826201
v -1.4918176 1.5400000 -0.1905986
v -1.4918176 0.1500000 -0.1905986
v -1.6596852 0.1500000 -0.0163991
v -1.4566072 0.1500000 -0.1243775
v -1.4566072 1.5400000 -0.1243775
v -1.6948956 0.1500000 -0.0826201
v -1.5933566 1.6500000 -0.1366094
v -1.4918176 1.5400000 -0.1905986
v -1.6596852 0.1500000 -0.0163991
v -1.4566072 1.5400000 -0.1243775
v -1.5581462 1.6500000 -0.0703883
v -1.6948956 0.1500000 -0.0826201
v -1.6948956 1.5400000 -0.0826201
v -1.5933566 1.6500000 -0.1366094
v -1.6596852 0.1500000 -0.0163991
v -1.5581462 1.6500000 -0.0703883
v -1.6596852 1.5400000 -0.0163991
v -1.6948956 0.1500000 -0.0826201
v -1.4918176 0.1500000 -0.1905986
v -1.4566072 0.1500000 -0.1243775
v -1.6948956 0.1500000 -0.0826201
v -1.4566072 0.1500000 -0.1243775
v -1.6596852 0.1500000 -0.0163991
v -1.4918176 0.1500000 -0.1905986
v -1.4918176 1.5400000 -0.1905986
v -1.4566072 1.5400000 -0.1243775
v -1.4918176 0.1500000 -0.1905986
v -1.4566072 1.5400000 -0.1243775
v -1.4566072 0.1500000 -0.1243775
v -1.4918176 1.5400000 -0.1905986
v -1.5933566 1.6500000 -0.1366094
v -1.5581462 1.6500000 -0.0703883
v -1.4918176 1.5400000 -0.1905986
v -1.5581462 1.6500000 -0.0703883
v -1.4566072 1.5400000 -0.1243775
v -1.5933566 1.6500000 -0.1366094
v -1.6948956 1.5400000 -0.0826201
v -1.6596852 1.5400000 -0.0163991
v -1.5933566 1.6500000 -0.1366094
v -1.6596852 1.5400000 -0.0163991
v -1.5581462 1.6500000 -0.0703883
v -1.6948956 1.5400000 -0.0826201
v -1.6948956 0.1500000 -0.0826201
v -1.6596852 0.1500000 -0.0163991
v -1.6948956 1.5400000 -0.0826201
v -1.6596852 0.1500000 -0.0163991
v -1.6596852 1.5400000 -0.0163991
v -0.2700062 0.3163749 -0.6901817
v -0.2324485 0.3163749 -0.6195459
v -1.5480404 1.2763749 0.0799667
v -0.2700062 0.3163749 -0.6901817
v -1.5480404 1.2763749 0.0799667
v -1.5855981 1.2763749 0.0093309
v -0.2324485 0.3163749 -0.6195459
v -0.1941912 0.3836251 -0.6398876
v -1.5097831 1.3436251 0.0596250
v -0.2324485 0.3163749 -0.6195459
v -1.5097831 1.3436251 0.0596250
v -1.5480404 1.2763749 0.0799667
v -0.1941912 0.3836251 -0.6398876
v -0.2317490 0.3836251 -0.7105234
v -1.5473409 1.3436251 -0.0110108
v -0.1941912 0.3836251 -0.6398876
v -1.5473409 1.3436251 -0.0110108
v -1.5097831 1.3436251 0.0596250
v -0.2317490 0.3836251 -0.7105234
v -0.2700062 0.3163749 -0.6901817
v -1.5855981 1.2763749 0.0093309
v -0.2317490 0.3836251 -0.7105234
v -1.5855981 1.2763749 0.0093309
v -1.5473409 1.3436251 -0.0110108
v -0.2317490 0.3836251 -0.7105234
v -0.1941912 0.3836251 -0.6398876
v -0.2324485 0.3163749 -0.6195459
v -0.2317490 0.3836251 -0.7105234
v -0.2324485 0.3163749 -0.6195459
v -0.2700062 0.3163749 -0.6901817
v -1.5855981 1.2763749 0.0093309
v -1.5480404 1.2763749 0.0799667
v -1.5097831 1.3436251 0.0596250
v -1.5855981 1.2763749 0.0093309
v -1.5097831 1.3436251 0.0596250
v -1.5473409 1.3436251 -0.0110108
v -0.3651120 0.8750000 -0.8406443
v -0.3651120 1.0050000 -0.8406443
v -0.3297940 1.0050000 -0.8594231
v -0.3651120 0.8750000 -0.8406443
v -0.3297940 1.0050000 -0.8594231
v -0.3297940 0.8750000 -0.8594231
v -0.3486804 0.8750000 -0.8097411
v -0.3133625 0.8750000 -0.8285200
v -0.3133625 1.0050000 -0.8285200
v -0.3486804 0.8750000 -0.8097411
v -0.3133625 1.0050000 -0.8285200
v -0.3486804 1.0050000 -0.8097411
v -0.3651120 0.8750000 -0.8406443
v -0.3486804 0.8750000 -0.8097411
v -0.3486804 1.0050000 -0.8097411
v -0.3651120 0.8750000 -0.8406443
v -0.3486804 1.0050000 -0.8097411
v -0.3651120 1.0050000 -0.8406443
v -0.3297940 0.8750000 -0.8594231
v -0.3297940 1.0050000 -0.8594231
v -0.3133625 1.0050000 -0.8285200
v -0.3297940 0.8750000 -0.8594231
v -0.3133625 1.0050000 -0.8285200
v -0.3133625 0.8750000 -0.8285200
v -0.3651120 0.8750000 -0.8406443
v -0.3297940 0.8750000 -0.8594231
v -0.3133625 0.8750000 -0.8285200
v -0.3651120 0.8750000 -0.8406443
v -0.3133625 0.8750000 -0.8285200
v -0.3486804 0.8750000 -0.8097411
v -0.3651120 1.0050000 -0.8406443
v -0.3486804 1.0050000 -0.8097411
v -0.3133625 1.0050000 -0.8285200
v -0.3651120 1.0050000 -0.8406443
v -0.3133625 1.0050000 -0.8285200
v -0.3297940 1.0050000 -0.8594231
v 0.2033245 0.3275000 -0.6738352
v 0.2033245 0.4325000 -0.6738352
v 1.6284554 0.4325000 -0.0393260
v 0.2033245 0.3275000 -0.6738352
v 1.6284554 0.4325000 -0.0393260
v 1.6284554 0.3275000 -0.0393260
v 0.1646846 0.3275000 -0.5870484
v 1.5898155 0.3275000 0.0474608
v 1.5898155 0.4325000 0.0474608
v 0.1646846 0.3275000 -0.5870484
v 1.5898155 0.4325000 0.0474608
v 0.1646846 0.4325000 -0.5870484
v 0.2033245 0.3275000 -0.6738352
v 0.1646846 0.3275000 -0.5870484
v 0.1646846 0.4325000 -0.5870484
v 0.2033245 0.3275000 -0.6738352
v 0.1646846 0.4325000 -0.5870484
v 0.2033245 0.4325000 -0.6738352
v 1.6284554 0.3275000 -0.0393260
v 1.6284554 0.4325000 -0.0393260
v 1.5898155 0.4325000 0.0474608
v 1.6284554 0.3275000 -0.0393260
v 1.5898155 0.4325000 0.0474608
v 1.5898155 0.3275000 0.0474608
v 0.2033245 0.3275000 -0.6738352
v 1.6284554 0.3275000 -0.0393260
v 1.5898155 0.3275000 0.0474608
v 0.2033245 0.3275000 -0.6738352
v 1.5898155 0.3275000 0.0474608
v 0.1646846 0.3275000 -0.5870484
v 0.2033245 0.4325000 -0.6738352
v 0.1646846 0.4325000 -0.5870484
v 1.5898155 0.4325000 0.0474608
v 0.2033245 0.4325000 -0.6738352
v 1.5898155 0.4325000 0.0474608
v 1.6284554 0.4325000 -0.0393260
v 0.2033245 1.2275000 -0.6738352
v 0.2033245 1.3325000 -0.6738352
v 1.6284554 1.3325000 -0.0393260
v 0.2033245 1.2275000 -0.6738352
v 1.6284554 1.3325000 -0.0393260
v 1.6284554 1.2275000 -0.0393260
v 0.1646846 1.2275000 -0.5870484
v 1.5898155 1.2275000 0.0474608
v 1.5898155 1.3325000 0.0474608
v 0.1646846 1.2275000 -0.5870484
v 1.5898155 1.3325000 0.0474608
v 0.1646846 1.3325000 -0.5870484
v 0.2033245 1.2275000 -0.6738352
v 0.1646846 1.2275000 -0.5870484
v 0.1646846 1.3325000 -0.5870484
v 0.2033245 1.2275000 -0.6738352
v 0.1646846 1.3325000 -0.5870484
v 0.2033245 1.3325000 -0.6738352
v 1.6284554 1.2275000 -0.0393260
v 1.6284554 1.3325000 -0.0393260
v 1.5898155 1.3325000 0.0474608
v 1.6284554 1.2275000 -0.0393260
v 1.5898155 1.3325000 0.0474608
v 1.5898155 1.2275000 0.0474608
v 0.2033245 1.2275000 -0.6738352
v 1.6284554 1.2275000 -0.0393260
v 1.5898155 1.2275000 0.0474608
v 0.2033245 1.2275000 -0.6738352
v 1.5898155 1.2275000 0.0474608
v 0.1646846 1.2275000 -0.5870484
v 0.2033245 1.3325000 -0.6738352
v 0.1646846 1.3325000 -0.5870484
v 1.5898155 1.3325000 0.0474608
v 0.2033245 1.3325000 -0.6738352
v 1.5898155 1.3325000 0.0474608
v 1.6284554 1.3325000 -0.0393260
v 0.1998220 0.1500000 -0.7520192
v 0.4099375 1.5400000 -0.6584697
v 0.4099375 0.1500000 -0.6584697
v 0.1693168 0.1500000 -0.6835033
v 0.3794322 0.1500000 -0.5899538
v 0.3794322 1.5400000 -0.5899538
v 0.1998220 0.1500000 -0.7520192
v 0.3048797 1.6500000 -0.7052445
v 0.4099375 1.5400000 -0.6584697
v 0.1693168 0.1500000 -0.6835033
v 0.3794322 1.5400000 -0.5899538
v 0.2743745 1.6500000 -0.6367285
v 0.1998220 0.1500000 -0.7520192
v 0.1998220 1.5400000 -0.7520192
v 0.3048797 1.6500000 -0.7052445
v 0.1693168 0.1500000 -0.6835033
v 0.2743745 1.6500000 -0.6367285
v 0.1693168 1.5400000 -0.6835033
v 0.1998220 0.1500000 -0.7520192
v 0.4099375 0.1500000 -0.6584697
v 0.3794322 0.1500000 -0.5899538
v 0.1998220 0.1500000 -0.7520192
v 0.3794322 0.1500000 -0.5899538
v 0.1693168 0.1500000 -0.6835033
v 0.4099375 0.1500000 -0.6584697
v 0.4099375 1.5400000 -0.6584697
v 0.3794322 1.5400000 -0.5899538
v 0.4099375 0.1500000 -0.6584697
v 0.3794322 1.5400000 -0.5899538
v 0.3794322 0.1500000 -0.5899538
v 0.4099375 1.5400000 -0.6584697
v 0.3048797 1.6500000 -0.7052445
v 0.2743745 1.6500000 -0.6367285
v 0.4099375 1.5400000 -0.6584697
v 0.2743745 1.6500000 -0.6367285
v 0.3794322 1.5400000 -0.5899538
v 0.3048797 1.6500000 -0.7052445
v 0.1998220 1.5400000 -0.7520192
v 0.1693168 1.5400000 -0.6835033
v 0.3048797 1.6500000 -0.7052445
v 0.1693168 1.5400000 -0.6835033
v 0.2743745 1.6500000 -0.6367285
v 0.1998220 1.5400000 -0.7520192
v 0.1998220 0.1500000 -0.7520192
v 0.1693168 0.1500000 -0.6835033
v 0.1998220 1.5400000 -0.7520192
v 0.1693168 0.1500000 -0.6835033
v 0.1693168 1.5400000 -0.6835033
v 0.4556147 0.1500000 -0.6381329
v 0.6657302 1.5400000 -0.5445835
v 0.6657302 0.1500000 -0.5445835
v 0.4251095 0.1500000 -0.5696170
v 0.6352249 0.1500000 -0.4760676
v 0.6352249 1.5400000 -0.4760676
v 0.4556147 0.1500000 -0.6381329
v 0.5606725 1.6500000 -0.5913582
v 0.6657302 1.5400000 -0.5445835
v 0.4251095 0.1500000 -0.5696170
v 0.6352249 1.5400000 -0.4760676
v 0.5301672 1.6500000 -0.5228423
v 0.4556147 0.1500000 -0.6381329
v 0.4556147 1.5400000 -0.6381329
v 0.5606725 1.6500000 -0.5913582
v 0.4251095 0.1500000 -0.5696170
v 0.5301672 1.6500000 -0.5228423
v 0.4251095 1.5400000 -0.5696170
v 0.4556147 0.1500000 -0.6381329
v 0.6657302 0.1500000 -0.5445835
v 0.6352249 0.1500000 -0.4760676
v 0.4556147 0.1500000 -0.6381329
v 0.6352249 0.1500000 -0.4760676
v 0.4251095 0.1500000 -0.5696170
v 0.6657302 0.1500000 -0.5445835
v 0.6657302 1.5400000 -0.5445835
v 0.6352249 1.5400000 -0.4760676
v 0.6657302 0.1500000 -0.5445835
v 0.6352249 1.5400000 -0.4760676
v 0.6352249 0.1500000 -0.4760676
v 0.6657302 1.5400000 -0.5445835
v 0.5606725 1.6500000 -0.5913582
v 0.5301672 1.6500000 -0.5228423
v 0.6657302 1.5400000 -0.5445835
v 0.5301672 1.6500000 -0.5228423
v 0.6352249 1.5400000 -0.4760676
v 0.5606725 1.6500000 -0.5913582
v 0.4556147 1.5400000 -0.6381329
v 0.4251095 1.5400000 -0.5696170
v 0.5606725 1.6500000 -0.5913582
v 0.4251095 1.5400000 -0.5696170
v 0.5301672 1.6500000 -0.5228423
v 0.4556147 1.5400000 -0.6381329
v 0.4556147 0.1500000 -0.6381329
v 0.4251095 0.1500000 -0.5696170
v 0.4556147 1.5400000 -0.6381329
v 0.4251095 0.1500000 -0.5696170
v 0.4251095 1.5400000 -0.5696170
v 0.7114075 0.1500000 -0.5242467
v 0.9215229 1.5400000 -0.4306972
v 0.9215229 0.1500000 -0.4306972
v 0.6809022 0.1500000 -0.4557307
v 0.8910177 0.1500000 -0.3621813
v 0.8910177 1.5400000 -0.3621813
v 0.7114075 0.1500000 -0.5242467
v 0.8164652 1.6500000 -0.4774719
v 0.9215229 1.5400000 -0.4306972
v 0.6809022 0.1500000 -0.4557307
v 0.8910177 1.5400000 -0.3621813
v 0.7859599 1.6500000 -0.4089560
v 0.7114075 0.1500000 -0.5242467
v 0.7114075 1.5400000 -0.5242467
v 0.8164652 1.6500000 -0.4774719
v 0.6809022 0.1500000 -0.4557307
v 0.7859599 1.6500000 -0.4089560
v 0.6809022 1.5400000 -0.4557307
v 0.7114075 0.1500000 -0.5242467
v 0.9215229 0.1500000 -0.4306972
v 0.8910177 0.1500000 -0.3621813
v 0.7114075 0.1500000 -0.5242467
v 0.8910177 0.1500000 -0.3621813
v 0.6809022 0.1500000 -0.4557307
v 0.9215229 0.1500000 -0.4306972
v 0.9215229 1.5400000 -0.4306972
v 0.8910177 1.5400000 -0.3621813
v 0.9215229 0.1500000 -0.4306972
v 0.8910177 1.5400000 -0.3621813
v 0.8910177 0.1500000 -0.3621813
v 0.9215229 1.5400000 -0.4306972
v 0.8164652 1.6500000 -0.4774719
v 0.7859599 1.6500000 -0.4089560
v 0.9215229 1.5400000 -0.4306972
v 0.7859599 1.6500000 -0.4089560
v 0.8910177 1.5400000 -0.3621813
v 0.8164652 1.6500000 -0.4774719
v 0.7114075 1.5400000 -0.5242467
v 0.6809022 1.5400000 -0.4557307
v 0.8164652 1.6500000 -0.4774719
v 0.6809022 1.5400000 -0.4557307
v 0.7859599 1.6500000 -0.4089560
v 0.7114075 1.5400000 -0.5242467
v 0.7114075 0.1500000 -0.5242467
v 0.6809022 0.1500000 -0.4557307
v 0.7114075 1.5400000 -0.5242467
v 0.6809022 0.1500000 -0.4557307
v 0.6809022 1.5400000 -0.4557307
v 0.9672002 0.1500000 -0.4103604
v 1.1773156 1.5400000 -0.3168110
v 1.1773156 0.1500000 -0.3168110
v 0.9366949 0.1500000 -0.3418445
v 1.1468104 0.1500000 -0.2482951
v 1.1468104 1.5400000 -0.2482951
v 0.9672002 0.1500000 -0.4103604
v 1.0722579 1.6500000 -0.3635857
v 1.1773156 1.5400000 -0.3168110
v 0.9366949 0.1500000 -0.3418445
v 1.1468104 1.5400000 -0.2482951
v 1.0417527 1.6500000 -0.2950698
v 0.9672002 0.1500000 -0.4103604
v 0.9672002 1.5400000 -0.4103604
v 1.0722579 1.6500000 -0.3635857
v 0.9366949 0.1500000 -0.3418445
v 1.0417527 1.6500000 -0.2950698
v 0.9366949 1.5400000 -0.3418445
v 0.9672002 0.1500000 -0.4103604
v 1.1773156 0.1500000 -0.3168110
v 1.1468104 0.1500000 -0.2482951
v 0.9672002 0.1500000 -0.4103604
v 1.1468104 0.1500000 -0.2482951
v 0.9366949 0.1500000 -0.3418445
v 1.1773156 0.1500000 -0.3168110
v 1.1773156 1.5400000 -0.3168110
v 1.1468104 1.5400000 -0.2482951
v 1.1773156 0.1500000 -0.3168110
v 1.1468104 1.5400000 -0.2482951
v 1.1468104 0.1500000 -0.2482951
v 1.1773156 1.5400000 -0.3168110
v 1.0722579 1.6500000 -0.3635857
v 1.0417527 1.6500000 -0.2950698
v 1.1773156 1.5400000 -0.3168110
v 1.0417527 1.6500000 -0.2950698
v 1.1468104 1.5400000 -0.2482951
v 1.0722579 1.6500000 -0.3635857
v 0.9672002 1.5400000 -0.4103604
v 0.9366949 1.5400000 -0.3418445
v 1.0722579 1.6500000 -0.3635857
v 0.9366949 1.5400000 -0.3418445
v 1.0417527 1.6500000 -0.2950698
v 0.9672002 1.5400000 -0.4103604
v 0.9672002 0.1500000 -0.4103604
v 0.9366949 0.1500000 -0.3418445
v 0.9672002 1.5400000 -0.4103604
v 0.9366949 0.1500000 -0.3418445
v 0.9366949 1.5400000 -0.3418445
v 1.2229929 0.1500000 -0.2964741
v 1.4331084 1.5400000 -0.2029247
v 1.4331084 0.1500000 -0.2029247
v 1.1924877 0.1500000 -0.2279582
v 1.4026031 0.1500000 -0.1344088
v 1.4026031 1.5400000 -0.1344088
v 1.2229929 0.1500000 -0.2964741
v 1.3280506 1.6500000 -0.2496994
v 1.4331084 1.5400000 -0.2029247
v 1.1924877 0.1500000 -0.2279582
v 1.4026031 1.5400000 -0.1344088
v 1.2975454 1.6500000 -0.1811835
v 1.2229929 0.1500000 -0.2964741
v 1.2229929 1.5400000 -0.2964741
v 1.3280506 1.6500000 -0.2496994
v 1.1924877 0.1500000 -0.2279582
v 1.2975454 1.6500000 -0.1811835
v 1.1924877 1.5400000 -0.2279582
v 1.2229929 0.1500000 -0.2964741
v 1.4331084 0.1500000 -0.2029247
v 1.4026031 0.1500000 -0.1344088
v 1.2229929 0.1500000 -0.2964741
v 1.4026031 0.1500000 -0.1344088
v 1.1924877 0.1500000 -0.2279582
v 1.4331084 0.1500000 -0.2029247
v 1.4331084 1.5400000 -0.2029247
v 1.4026031 1.5400000 -0.1344088
v 1.4331084 0.1500000 -0.2029247
v 1.4026031 1.5400000 -0.1344088
v 1.4026031 0.1500000 -0.1344088
v 1.4331084 1.5400000 -0.2029247
v 1.3280506 1.6500000 -0.2496994
v 1.2975454 1.6500000 -0.1811835
v 1.4331084 1.5400000 -0.2029247
v 1.2975454 1.6500000 -0.1811835
v 1.4026031 1.5400000 -0.1344088
v 1.3280506 1.6500000 -0.2496994
v 1.2229929 1.5400000 -0.2964741
v 1.1924877 1.5400000 -0.2279582
v 1.3280506 1.6500000 -0.2496994
v 1.1924877 1.5400000 -0.2279582
v 1.2975454 1.6500000 -0.1811835
v 1.2229929 1.5400000 -0.2964741
v 1.2229929 0.1500000 -0.2964741
v 1.1924877 0.1500000 -0.2279582
v 1.2229929 1.5400000 -0.2964741
v 1.1924877 0.1500000 -0.2279582
v 1.1924877 1.5400000 -0.2279582
v 1.4787856 0.1500000 -0.1825879
v 1.6889011 1.5400000 -0.0890384
v 1.6889011 0.1500000 -0.0890384
v 1.4482804 0.1500000 -0.1140720
v 1.6583959 0.1500000 -0.0205225
v 1.6583959 1.5400000 -0.0205225
v 1.4787856 0.1500000 -0.1825879
v 1.5838434 1.6500000 -0.1358132
v 1.6889011 1.5400000 -0.0890384
v 1.4482804 0.1500000 -0.1140720
v 1.6583959 1.5400000 -0.0205225
v 1.5533381 1.6500000 -0.0672972
v 1.4787856 0.1500000 -0.1825879
v 1.4787856 1.5400000 -0.1825879
v 1.5838434 1.6500000 -0.1358132
v 1.4482804 0.1500000 -0.1140720
v 1.5533381 1.6500000 -0.0672972
v 1.4482804 1.5400000 -0.1140720
v 1.4787856 0.1500000 -0.1825879
v 1.6889011 0.1500000 -0.0890384
v 1.6583959 0.1500000 -0.0205225
v 1.4787856 0.1500000 -0.1825879
v 1.6583959 0.1500000 -0.0205225
v 1.4482804 0.1500000 -0.1140720
v 1.6889011 0.1500000 -0.0890384
v 1.6889011 1.5400000 -0.0890384
v 1.6583959 1.5400000 -0.0205225
v 1.6889011 0.1500000 -0.0890384
v 1.6583959 1.5400000 -0.0205225
v 1.6583959 0.1500000 -0.0205225
v 1.6889011 1.5400000 -0.0890384
v 1.5838434 1.6500000 -0.1358132
v 1.5533381 1.6500000 -0.0672972
v 1.6889011 1.5400000 -0.0890384
v 1.5533381 1.6500000 -0.0672972
v 1.6583959 1.5400000 -0.0205225
v 1.5838434 1.6500000 -0.1358132
v 1.4787856 1.5400000 -0.1825879
v 1.4482804 1.5400000 -0.1140720
v 1.5838434 1.6500000 -0.1358132
v 1.4482804 1.5400000 -0.1140720
v 1.5533381 1.6500000 -0.0672972
v 1.4787856 1.5400000 -0.1825879
v 1.4787856 0.1500000 -0.1825879
v 1.4482804 0.1500000 -0.1140720
v 1.4787856 1.5400000 -0.1825879
v 1.4482804 0.1500000 -0.1140720
v 1.4482804 1.5400000 -0.1140720
v 0.1925624 0.3163749 -0.5226411
v 0.2251014 0.3163749 -0.5957248
v 1.5862841 1.2763749 0.0103128
v 0.1925624 0.3163749 -0.5226411
v 1.5862841 1.2763749 0.0103128
v 1.5537452 1.2763749 0.0833965
v 0.2251014 0.3163749 -0.5957248
v 0.1855183 0.3836251 -0.6133483
v 1.5467011 1.3436251 -0.0073107
v 0.2251014 0.3163749 -0.5957248
v 1.5467011 1.3436251 -0.0073107
v 1.5862841 1.2763749 0.0103128
v 0.1855183 0.3836251 -0.6133483
v 0.1529794 0.3836251 -0.5402646
v 1.5141621 1.3436251 0.0657730
v 0.1855183 0.3836251 -0.6133483
v 1.5141621 1.3436251 0.0657730
v 1.5467011 1.3436251 -0.0073107
v 0.1529794 0.3836251 -0.5402646
v 0.1925624 0.3163749 -0.5226411
v 1.5537452 1.2763749 0.0833965
v 0.1529794 0.3836251 -0.5402646
v 1.5537452 1.2763749 0.0833965
v 1.5141621 1.3436251 0.0657730
v 0.1529794 0.3836251 -0.5402646
v 0.1855183 0.3836251 -0.6133483
v 0.2251014 0.3163749 -0.5957248
v 0.1529794 0.3836251 -0.5402646
v 0.2251014 0.3163749 -0.5957248
v 0.1925624 0.3163749 -0.5226411
v 1.5537452 1.2763749 0.0833965
v 1.5862841 1.2763749 0.0103128
v 1.5467011 1.3436251 -0.0073107
v 1.5537452 1.2763749 0.0833965
v 1.5467011 1.3436251 -0.0073107
v 1.5141621 1.3436251 0.0657730
v 0.2729379 0.8750000 -0.7687245
v 0.2729379 1.0050000 -0.7687245
v 0.3094797 1.0050000 -0.7524551
v 0.2729379 0.8750000 -0.7687245
v 0.3094797 1.0050000 -0.7524551
v 0.3094797 0.8750000 -0.7524551
v 0.2587021 0.8750000 -0.7367504
v 0.2952439 0.8750000 -0.7204810
v 0.2952439 1.0050000 -0.7204810
v 0.2587021 0.8750000 -0.7367504
v 0.2952439 1.0050000 -0.7204810
v 0.2587021 1.0050000 -0.7367504
v 0.2729379 0.8750000 -0.7687245
v 0.2587021 0.8750000 -0.7367504
v 0.2587021 1.0050000 -0.7367504
v 0.2729379 0.8750000 -0.7687245
v 0.2587021 1.0050000 -0.7367504
v 0.2729379 1.0050000 -0.7687245
v 0.3094797 0.8750000 -0.7524551
v 0.3094797 1.0050000 -0.7524551
v 0.2952439 1.0050000 -0.7204810
v 0.3094797 0.8750000 -0.7524551
v 0.2952439 1.0050000 -0.7204810
v 0.2952439 0.8750000 -0.7204810
v 0.2729379 0.8750000 -0.7687245
v 0.3094797 0.8750000 -0.7524551
v 0.2952439 0.8750000 -0.7204810
v 0.2729379 0.8750000 -0.7687245
v 0.2952439 0.8750000 -0.7204810
v 0.2587021 0.8750000 -0.7367504
v 0.2729379 1.0050000 -0.7687245
v 0.2587021 1.0050000 -0.7367504
v 0.2952439 1.0050000 -0.7204810
v 0.2729379 1.0050000 -0.7687245
v 0.2952439 1.0050000 -0.7204810
v 0.3094797 1.0050000 -0.7524551
vn 0.0000000 0.0000000 -1.0000000
vn 0.0000000 0.0000000 -1.0000000
vn 0.0000000 0.0000000 1.0000000
vn 0.0000000 0.0000000 1.0000000
vn -1.0000000 0.0000000 0.0000000
vn -1.0000000 0.0000000 0.0000000
vn 1.0000000 0.0000000 0.0000000
vn 1.0000000 0.0000000 0.0000000
vn 0.0000000 -1.0000000 0.0000000
vn 0.0000000 -1.0000000 0.0000000
vn 0.0000000 1.0000000 0.0000000
vn 0.0000000 1.0000000 0.0000000
vn 0.0000000 0.0000000 -1.0000000
vn 0.0000000 0.0000000 -1.0000000
vn 0.0000000 0.0000000 1.0000000
vn 0.0000000 0.0000000 1.0000000
vn -1.0000000 0.0000000 0.0000000
vn -1.0000000 0.0000000 0.0000000
vn 1.0000000 0.0000000 0.0000000
vn 1.0000000 0.0000000 0.0000000
vn 0.0000000 -1.0000000 0.0000000
vn 0.0000000 -1.0000000 0.0000000
vn 0.0000000 1.0000000 0.0000000
vn 0.0000000 1.0000000 0.0000000
vn -0.4694716 0.0000000 -0.8829476
vn -0.4694716 0.0000000 -0.8829476
vn 0.4694716 0.0000000 0.8829476
vn 0.4694716 0.0000000 0.8829476
vn -0.8829476 0.0000000 0.4694716
vn -0.8829476 0.0000000 0.4694716
vn 0.8829476 0.0000000 -0.4694716
vn 0.8829476 0.0000000 -0.4694716
vn 0.0000000 -1.0000000 0.0000000
vn 0.0000000 -1.0000000 0.0000000
vn 0.0000000 1.0000000 0.0000000
vn 0.0000000 1.0000000 0.0000000
vn -0.4694716 0.0000000 -0.8829476
vn -0.4694716 0.0000000 -0.8829476
vn 0.4694716 0.0000000 0.8829476
vn 0.4694716 0.0000000 0.8829476
vn -0.8829476 0.0000000 0.4694716
vn -0.8829476 0.0000000 0.4694716
vn 0.8829476 0.0000000 -0.4694716
vn 0.8829476 0.0000000 -0.4694716
vn 0.0000000 -1.0000000 0.0000000
vn 0.0000000 -1.0000000 0.0000000
vn 0.0000000 1.0000000 0.0000000
vn 0.0000000 1.0000000 0.0000000
vn -0.4694716 0.0000000 -0.8829476
vn 0.4694716 0.0000000 0.8829476
vn -0.4694716 0.0000000 -0.8829476
vn 0.4694716 0.0000000 0.8829476
vn -0.4694716 0.0000000 -0.8829476
vn 0.4694716 0.0000000 0.8829476
vn 0.0000000 -1.0000000 0.0000000
vn 0.0000000 -1.0000000 0.0000000
vn 0.8829476 0.0000000 -0.4694716
vn 0.8829476 0.0000000 -0.4694716
vn 0.6103134 0.7226419 -0.3245094
vn 0.6103134 0.7226419 -0.3245094
vn -0.6103134 0.7226419 0.3245094
vn -0.6103134 0.7226419 0.3245094
vn -0.8829476 0.0000000 0.4694716
vn -0.8829476 0.0000000 0.4694716
vn -0.4694716 0.0000000 -0.8829476
vn 0.4694716 0.0000000 0.8829476
vn -0.4694716 0.0000000 -0.8829476
vn 0.4694716 0.0000000 0.8829476
vn -0.4694716 0.0000000 -0.8829476
vn 0.4694716 0.0000000 0.8829476
vn 0.0000000 -1.0000000 0.0000000
vn 0.0000000 -1.0000000 0.0000000
vn 0.8829476 0.0000000 -0.4694716
vn 0.8829476 0.0000000 -0.4694716
vn 0.6103134 0.7226419 -0.3245094
vn 0.6103134 0.7226419 -0.3245094
vn -0.6103134 0.7226419 0.3245094
vn -0.6103134 0.7226419 0.3245094
vn -0.8829476 0.0000000 0.4694716
vn -0.8829476 0.0000000 0.4694716
vn -0.4694716 0.0000000 -0.8829476
vn 0.4694716 0.0000000 0.8829476
vn -0.4694716 0.0000000 -0.8829476
vn 0.4694716 0.0000000 0.8829476
vn -0.4694716 0.0000000 -0.8829476
vn 0.4694716 0.0000000 0.8829476
vn 0.0000000 -1.0000000 0.0000000
vn 0.0000000 -1.0000000 0.0000000
vn 0.8829476 0.0000000 -0.4694716
vn 0.8829476 0.0000000 -0.4694716
vn 0.6103134 0.7226419 -0.3245094
vn 0.6103134 0.7226419 -0.3245094
vn -0.6103134 0.7226419 0.3245094
vn -0.6103134 0.7226419 0.3245094
vn -0.8829476 0.0000000 0.4694716
vn -0.8829476 0.0000000 0.4694716
vn -0.4694716 0.0000000 -0.8829476
vn 0.4694716 0.0000000 0.8829476
vn -0.4694716 0.0000000 -0.8829476
vn 0.4694716 0.0000000 0.8829476
vn -0.4694716 0.0000000 -0.8829476
vn 0.4694716 0.0000000 0.8829476
vn 0.0000000 -1.0000000 0.0000000
vn 0.0000000 -1.0000000 0.0000000
vn 0.8829476 0.0000000 -0.4694716
vn 0.8829476 0.0000000 -0.4694716
vn 0.6103134 0.7226419 -0.3245094
vn 0.6103134 0.7226419 -0.3245094
vn -0.6103134 0.7226419 0.3245094
vn -0.6103134 0.7226419 0.3245094
vn -0.8829476 0.0000000 0.4694716
vn -0.8829476 0.0000000 0.4694716
vn -0.4694716 0.0000000 -0.8829476
vn 0.4694716 0.0000000 0.8829476
vn -0.4694716 0.0000000 -0.8829476
vn 0.4694716 0.0000000 0.8829476
vn -0.4694716 0.0000000 -0.8829476
vn 0.4694716 0.0000000 0.8829476
vn 0.0000000 -1.0000000 0.0000000
vn 0.0000000 -1.0000000 0.0000000
vn 0.8829476 0.0000000 -0.4694716
vn 0.8829476 0.0000000 -0.4694716
vn 0.6103134 0.7226419 -0.3245094
vn 0.6103134 0.7226419 -0.3245094
vn -0.6103134 0.7226419 0.3245094
vn -0.6103134 0.7226419 0.3245094
vn -0.8829476 0.0000000 0.4694716
vn -0.8829476 0.0000000 0.4694716
vn -0.4694716 0.0000000 -0.8829476
vn 0.4694716 0.0000000 0.8829476
vn -0.4694716 0.0000000 -0.8829476
vn 0.4694716 0.0000000 0.8829476
vn -0.4694716 0.0000000 -0.8829476
vn 0.4694716 0.0000000 0.8829476
vn 0.0000000 -1.0000000 0.0000000
vn 0.0000000 -1.0000000 0.0000000
vn 0.8829476 0.0000000 -0.4694716
vn 0.8829476 0.0000000 -0.4694716
vn 0.6103134 0.7226419 -0.3245094
vn 0.6103134 0.7226419 -0.3245094
vn -0.6103134 0.7226419 0.3245094
vn -0.6103134 0.7226419 0.3245094
vn -0.8829476 0.0000000 0.4694716
vn -0.8829476 0.0000000 0.4694716
vn -0.4782157 -0.8406281 0.2542718
vn -0.4782157 -0.8406281 0.2542718
vn 0.4694716 0.0000000 0.8829476
vn 0.4694716 0.0000000 0.8829476
vn 0.4782157 0.8406281 -0.2542718
vn 0.4782157 0.8406281 -0.2542718
vn -0.4694716 0.0000000 -0.8829476
vn -0.4694716 0.0000000 -0.8829476
vn 0.7422306 -0.5416127 -0.3946510
vn 0.7422306 -0.5416127 -0.3946510
vn -0.7422306 0.5416127 0.3946510
vn -0.7422306 0.5416127 0.3946510
vn -0.4694716 0.0000000 -0.8829476
vn -0.4694716 0.0000000 -0.8829476
vn 0.4694716 0.0000000 0.8829476
vn 0.4694716 0.0000000 0.8829476
vn -0.8829476 0.0000000 0.4694716
vn -0.8829476 0.0000000 0.4694716
vn 0.8829476 0.0000000 -0.4694716
vn 0.8829476 0.0000000 -0.4694716
vn 0.0000000 -1.0000000 0.0000000
vn 0.0000000 -1.0000000 0.0000000
vn 0.0000000 1.0000000 0.0000000
vn 0.0000000 1.0000000 0.0000000
vn 0.4067366 0.0000000 -0.9135455
vn 0.4067366 0.0000000 -0.9135455
vn -0.4067366 0.0000000 0.9135455
vn -0.4067366 0.0000000 0.9135455
vn -0.9135455 0.0000000 -0.4067366
vn -0.9135455 0.0000000 -0.4067366
vn 0.9135455 0.0000000 0.4067366
vn 0.9135455 0.0000000 0.4067366
vn 0.0000000 -1.0000000 0.0000000
vn 0.0000000 -1.0000000 0.0000000
vn 0.0000000 1.0000000 0.0000000
vn 0.0000000 1.0000000 0.0000000
vn 0.4067366 0.0000000 -0.9135455
vn 0.4067366 0.0000000 -0.9135455
vn -0.4067366 0.0000000 0.9135455
vn -0.4067366 0.0000000 0.9135455
vn -0.9135455 0.0000000 -0.4067366
vn -0.9135455 0.0000000 -0.4067366
vn 0.9135455 0.0000000 0.4067366
vn 0.9135455 0.0000000 0.4067366
vn 0.0000000 -1.0000000 0.0000000
vn 0.0000000 -1.0000000 0.0000000
vn 0.0000000 1.0000000 0.0000000
vn 0.0000000 1.0000000 0.0000000
vn 0.4067366 0.0000000 -0.9135455
vn -0.4067366 0.0000000 0.9135455
vn 0.4067366 0.0000000 -0.9135455
vn -0.4067366 0.0000000 0.9135455
vn 0.4067366 0.0000000 -0.9135455
vn -0.4067366 0.0000000 0.9135455
vn 0.0000000 -1.0000000 0.0000000
vn 0.0000000 -1.0000000 0.0000000
vn 0.9135455 0.0000000 0.4067366
vn 0.9135455 0.0000000 0.4067366
vn 0.6314633 0.7226419 0.2811456
vn 0.6314633 0.7226419 0.2811456
vn -0.6314633 0.7226419 -0.2811456
vn -0.6314633 0.7226419 -0.2811456
vn -0.9135455 0.0000000 -0.4067366
vn -0.9135455 0.0000000 -0.4067366
vn 0.4067366 0.0000000 -0.9135455
vn -0.4067366 0.0000000 0.9135455
vn 0.4067366 0.0000000 -0.9135455
vn -0.4067366 0.0000000 0.9135455
vn 0.4067366 0.0000000 -0.9135455
vn -0.4067366 0.0000000 0.9135455
vn 0.0000000 -1.0000000 0.0000000
vn 0.0000000 -1.0000000 0.0000000
vn 0.9135455 0.0000000 0.4067366
vn 0.9135455 0.0000000 0.4067366
vn 0.6314633 0.7226419 0.2811456
vn 0.6314633 0.7226419 0.2811456
vn -0.6314633 0.7226419 -0.2811456
vn -0.6314633 0.7226419 -0.2811456
vn -0.9135455 0.0000000 -0.4067366
vn -0.9135455 0.0000000 -0.4067366
vn 0.4067366 0.0000000 -0.9135455
vn -0.4067366 0.0000000 0.9135455
vn 0.4067366 0.0000000 -0.9135455
vn -0.4067366 0.0000000 0.9135455
vn 0.4067366 0.0000000 -0.9135455
vn -0.4067366 0.0000000 0.9135455
vn 0.0000000 -1.0000000 0.0000000
vn 0.0000000 -1.0000000 0.0000000
vn 0.9135455 0.0000000 0.4067366
vn 0.9135455 0.0000000 0.4067366
vn 0.6314633 0.7226419 0.2811456
vn 0.6314633 0.7226419 0.2811456
vn -0.6314633 0.7226419 -0.2811456
vn -0.6314633 0.7226419 -0.2811456
vn -0.9135455 0.0000000 -0.4067366
vn -0.9135455 0.0000000 -0.4067366
vn 0.4067366 0.0000000 -0.9135455
vn -0.4067366 0.0000000 0.9135455
vn 0.4067366 0.0000000 -0.9135455
vn -0.4067366 0.0000000 0.9135455
vn 0.4067366 0.0000000 -0.9135455
vn -0.4067366 0.0000000 0.9135455
vn 0.0000000 -1.0000000 0.0000000
vn 0.0000000 -1.0000000 0.0000000
vn 0.9135455 0.0000000 0.4067366
vn 0.9135455 0.0000000 0.4067366
vn 0.6314633 0.7226419 0.2811456
vn 0.6314633 0.7226419 0.2811456
vn -0.6314633 0.7226419 -0.2811456
vn -0.6314633 0.7226419 -0.2811456
vn -0.9135455 0.0000000 -0.4067366
vn -0.9135455 0.0000000 -0.4067366
vn 0.4067366 0.0000000 -0.9135455
vn -0.4067366 0.0000000 0.9135455
vn 0.4067366 0.0000000 -0.9135455
vn -0.4067366 0.0000000 0.9135455
vn 0.4067366 0.0000000 -0.9135455
vn -0.4067366 0.0000000 0.9135455
vn 0.0000000 -1.0000000 0.0000000
vn 0.0000000 -1.0000000 0.0000000
vn 0.9135455 0.0000000 0.4067366
vn 0.9135455 0.0000000 0.4067366
vn 0.6314633 0.7226419 0.2811456
vn 0.6314633 0.7226419 0.2811456
vn -0.6314633 0.7226419 -0.2811456
vn -0.6314633 0.7226419 -0.2811456
vn -0.9135455 0.0000000 -0.4067366
vn -0.9135455 0.0000000 -0.4067366
vn 0.4067366 0.0000000 -0.9135455
vn -0.4067366 0.0000000 0.9135455
vn 0.4067366 0.0000000 -0.9135455
vn -0.4067366 0.0000000 0.9135455
vn 0.4067366 0.0000000 -0.9135455
vn -0.4067366 0.0000000 0.9135455
vn 0.0000000 -1.0000000 0.0000000
vn 0.0000000 -1.0000000 0.0000000
vn 0.9135455 0.0000000 0.4067366
vn 0.9135455 0.0000000 0.4067366
vn 0.6314633 0.7226419 0.2811456
vn 0.6314633 0.7226419 0.2811456
vn -0.6314633 0.7226419 -0.2811456
vn -0.6314633 0.7226419 -0.2811456
vn -0.9135455 0.0000000 -0.4067366
vn -0.9135455 0.0000000 -0.4067366
vn 0.4947879 -0.8406281 0.2202938
vn 0.4947879 -0.8406281 0.2202938
vn 0.4067366 0.0000000 -0.9135455
vn 0.4067366 0.0000000 -0.9135455
vn -0.4947879 0.8406281 -0.2202938
vn -0.4947879 0.8406281 -0.2202938
vn -0.4067366 0.0000000 0.9135455
vn -0.4067366 0.0000000 0.9135455
vn -0.7679520 -0.5416127 -0.3419143
vn -0.7679520 -0.5416127 -0.3419143
vn 0.7679520 0.5416127 0.3419143
vn 0.7679520 0.5416127 0.3419143
vn 0.4067366 0.0000000 -0.9135455
vn 0.4067366 0.0000000 -0.9135455
vn -0.4067366 0.0000000 0.9135455
vn -0.4067366 0.0000000 0.9135455
vn -0.9135455 0.0000000 -0.4067366
vn -0.9135455 0.0000000 -0.4067366
vn 0.9135455 0.0000000 0.4067366
vn 0.9135455 0.0000000 0.4067366
vn 0.0000000 -1.0000000 0.0000000
vn 0.0000000 -1.0000000 0.0000000
vn 0.0000000 1.0000000 0.0000000
vn 0.0000000 1.0000000 0.0000000
usemtl plaster_worn
f 1//1 2//1 3//1
usemtl plaster_worn
f 4//2 5//2 6//2
usemtl plaster_worn
f 7//3 8//3 9//3
usemtl plaster_worn
f 10//4 11//4 12//4
usemtl plaster_worn
f 13//5 14//5 15//5
usemtl plaster_worn
f 16//6 17//6 18//6
usemtl plaster_worn
f 19//7 20//7 21//7
usemtl plaster_worn
f 22//8 23//8 24//8
usemtl plaster_worn
f 25//9 26//9 27//9
usemtl plaster_worn
f 28//10 29//10 30//10
usemtl plaster_worn
f 31//11 32//11 33//11
usemtl plaster_worn
f 34//12 35//12 36//12
usemtl plaster_worn
f 37//13 38//13 39//13
usemtl plaster_worn
f 40//14 41//14 42//14
usemtl plaster_worn
f 43//15 44//15 45//15
usemtl plaster_worn
f 46//16 47//16 48//16
usemtl plaster_worn
f 49//17 50//17 51//17
usemtl plaster_worn
f 52//18 53//18 54//18
usemtl plaster_worn
f 55//19 56//19 57//19
usemtl plaster_worn
f 58//20 59//20 60//20
usemtl plaster_worn
f 61//21 62//21 63//21
usemtl plaster_worn
f 64//22 65//22 66//22
usemtl plaster_worn
f 67//23 68//23 69//23
usemtl plaster_worn
f 70//24 71//24 72//24
usemtl blue_dark
f 73//25 74//25 75//25
usemtl blue_dark
f 76//26 77//26 78//26
usemtl blue_dark
f 79//27 80//27 81//27
usemtl blue_dark
f 82//28 83//28 84//28
usemtl blue_dark
f 85//29 86//29 87//29
usemtl blue_dark
f 88//30 89//30 90//30
usemtl blue_dark
f 91//31 92//31 93//31
usemtl blue_dark
f 94//32 95//32 96//32
usemtl blue_dark
f 97//33 98//33 99//33
usemtl blue_dark
f 100//34 101//34 102//34
usemtl blue_dark
f 103//35 104//35 105//35
usemtl blue_dark
f 106//36 107//36 108//36
usemtl blue_dark
f 109//37 110//37 111//37
usemtl blue_dark
f 112//38 113//38 114//38
usemtl blue_dark
f 115//39 116//39 117//39
usemtl blue_dark
f 118//40 119//40 120//40
usemtl blue_dark
f 121//41 122//41 123//41
usemtl blue_dark
f 124//42 125//42 126//42
usemtl blue_dark
f 127//43 128//43 129//43
usemtl blue_dark
f 130//44 131//44 132//44
usemtl blue_dark
f 133//45 134//45 135//45
usemtl blue_dark
f 136//46 137//46 138//46
usemtl blue_dark
f 139//47 140//47 141//47
usemtl blue_dark
f 142//48 143//48 144//48
usemtl wood
f 145//49 146//49 147//49
usemtl wood
f 148//50 149//50 150//50
usemtl wood
f 151//51 152//51 153//51
usemtl wood
f 154//52 155//52 156//52
usemtl wood
f 157//53 158//53 159//53
usemtl wood
f 160//54 161//54 162//54
usemtl wood
f 163//55 164//55 165//55
usemtl wood
f 166//56 167//56 168//56
usemtl wood
f 169//57 170//57 171//57
usemtl wood
f 172//58 173//58 174//58
usemtl wood
f 175//59 176//59 177//59
usemtl wood
f 178//60 179//60 180//60
usemtl wood
f 181//61 182//61 183//61
usemtl wood
f 184//62 185//62 186//62
usemtl wood
f 187//63 188//63 189//63
usemtl wood
f 190//64 191//64 192//64
usemtl blue
f 193//65 194//65 195//65
usemtl blue
f 196//66 197//66 198//66
usemtl blue
f 199//67 200//67 201//67
usemtl blue
f 202//68 203//68 204//68
usemtl blue
f 205//69 206//69 207//69
usemtl blue
f 208//70 209//70 210//70
usemtl blue
f 211//71 212//71 213//71
usemtl blue
f 214//72 215//72 216//72
usemtl blue
f 217//73 218//73 219//73
usemtl blue
f 220//74 221//74 222//74
usemtl blue
f 223//75 224//75 225//75
usemtl blue
f 226//76 227//76 228//76
usemtl blue
f 229//77 230//77 231//77
usemtl blue
f 232//78 233//78 234//78
usemtl blue
f 235//79 236//79 237//79
usemtl blue
f 238//80 239//80 240//80
usemtl blue
f 241//81 242//81 243//81
usemtl blue
f 244//82 245//82 246//82
usemtl blue
f 247//83 248//83 249//83
usemtl blue
f 250//84 251//84 252//84
usemtl blue
f 253//85 254//85 255//85
usemtl blue
f 256//86 257//86 258//86
usemtl blue
f 259//87 260//87 261//87
usemtl blue
f 262//88 263//88 264//88
usemtl blue
f 265//89 266//89 267//89
usemtl blue
f 268//90 269//90 270//90
usemtl blue
f 271//91 272//91 273//91
usemtl blue
f 274//92 275//92 276//92
usemtl blue
f 277//93 278//93 279//93
usemtl blue
f 280//94 281//94 282//94
usemtl blue
f 283//95 284//95 285//95
usemtl blue
f 286//96 287//96 288//96
usemtl wood
f 289//97 290//97 291//97
usemtl wood
f 292//98 293//98 294//98
usemtl wood
f 295//99 296//99 297//99
usemtl wood
f 298//100 299//100 300//100
usemtl wood
f 301//101 302//101 303//101
usemtl wood
f 304//102 305//102 306//102
usemtl wood
f 307//103 308//103 309//103
usemtl wood
f 310//104 311//104 312//104
usemtl wood
f 313//105 314//105 315//105
usemtl wood
f 316//106 317//106 318//106
usemtl wood
f 319//107 320//107 321//107
usemtl wood
f 322//108 323//108 324//108
usemtl wood
f 325//109 326//109 327//109
usemtl wood
f 328//110 329//110 330//110
usemtl wood
f 331//111 332//111 333//111
usemtl wood
f 334//112 335//112 336//112
usemtl blue
f 337//113 338//113 339//113
usemtl blue
f 340//114 341//114 342//114
usemtl blue
f 343//115 344//115 345//115
usemtl blue
f 346//116 347//116 348//116
usemtl blue
f 349//117 350//117 351//117
usemtl blue
f 352//118 353//118 354//118
usemtl blue
f 355//119 356//119 357//119
usemtl blue
f 358//120 359//120 360//120
usemtl blue
f 361//121 362//121 363//121
usemtl blue
f 364//122 365//122 366//122
usemtl blue
f 367//123 368//123 369//123
usemtl blue
f 370//124 371//124 372//124
usemtl blue
f 373//125 374//125 375//125
usemtl blue
f 376//126 377//126 378//126
usemtl blue
f 379//127 380//127 381//127
usemtl blue
f 382//128 383//128 384//128
usemtl blue
f 385//129 386//129 387//129
usemtl blue
f 388//130 389//130 390//130
usemtl blue
f 391//131 392//131 393//131
usemtl blue
f 394//132 395//132 396//132
usemtl blue
f 397//133 398//133 399//133
usemtl blue
f 400//134 401//134 402//134
usemtl blue
f 403//135 404//135 405//135
usemtl blue
f 406//136 407//136 408//136
usemtl blue
f 409//137 410//137 411//137
usemtl blue
f 412//138 413//138 414//138
usemtl blue
f 415//139 416//139 417//139
usemtl blue
f 418//140 419//140 420//140
usemtl blue
f 421//141 422//141 423//141
usemtl blue
f 424//142 425//142 426//142
usemtl blue
f 427//143 428//143 429//143
usemtl blue
f 430//144 431//144 432//144
usemtl wood_dark
f 433//145 434//145 435//145
usemtl wood_dark
f 436//146 437//146 438//146
usemtl wood_dark
f 439//147 440//147 441//147
usemtl wood_dark
f 442//148 443//148 444//148
usemtl wood_dark
f 445//149 446//149 447//149
usemtl wood_dark
f 448//150 449//150 450//150
usemtl wood_dark
f 451//151 452//151 453//151
usemtl wood_dark
f 454//152 455//152 456//152
usemtl wood_dark
f 457//153 458//153 459//153
usemtl wood_dark
f 460//154 461//154 462//154
usemtl wood_dark
f 463//155 464//155 465//155
usemtl wood_dark
f 466//156 467//156 468//156
usemtl steel_dark
f 469//157 470//157 471//157
usemtl steel_dark
f 472//158 473//158 474//158
usemtl steel_dark
f 475//159 476//159 477//159
usemtl steel_dark
f 478//160 479//160 480//160
usemtl steel_dark
f 481//161 482//161 483//161
usemtl steel_dark
f 484//162 485//162 486//162
usemtl steel_dark
f 487//163 488//163 489//163
usemtl steel_dark
f 490//164 491//164 492//164
usemtl steel_dark
f 493//165 494//165 495//165
usemtl steel_dark
f 496//166 497//166 498//166
usemtl steel_dark
f 499//167 500//167 501//167
usemtl steel_dark
f 502//168 503//168 504//168
usemtl blue_dark
f 505//169 506//169 507//169
usemtl blue_dark
f 508//170 509//170 510//170
usemtl blue_dark
f 511//171 512//171 513//171
usemtl blue_dark
f 514//172 515//172 516//172
usemtl blue_dark
f 517//173 518//173 519//173
usemtl blue_dark
f 520//174 521//174 522//174
usemtl blue_dark
f 523//175 524//175 525//175
usemtl blue_dark
f 526//176 527//176 528//176
usemtl blue_dark
f 529//177 530//177 531//177
usemtl blue_dark
f 532//178 533//178 534//178
usemtl blue_dark
f 535//179 536//179 537//179
usemtl blue_dark
f 538//180 539//180 540//180
usemtl blue_dark
f 541//181 542//181 543//181
usemtl blue_dark
f 544//182 545//182 546//182
usemtl blue_dark
f 547//183 548//183 549//183
usemtl blue_dark
f 550//184 551//184 552//184
usemtl blue_dark
f 553//185 554//185 555//185
usemtl blue_dark
f 556//186 557//186 558//186
usemtl blue_dark
f 559//187 560//187 561//187
usemtl blue_dark
f 562//188 563//188 564//188
usemtl blue_dark
f 565//189 566//189 567//189
usemtl blue_dark
f 568//190 569//190 570//190
usemtl blue_dark
f 571//191 572//191 573//191
usemtl blue_dark
f 574//192 575//192 576//192
usemtl wood
f 577//193 578//193 579//193
usemtl wood
f 580//194 581//194 582//194
usemtl wood
f 583//195 584//195 585//195
usemtl wood
f 586//196 587//196 588//196
usemtl wood
f 589//197 590//197 591//197
usemtl wood
f 592//198 593//198 594//198
usemtl wood
f 595//199 596//199 597//199
usemtl wood
f 598//200 599//200 600//200
usemtl wood
f 601//201 602//201 603//201
usemtl wood
f 604//202 605//202 606//202
usemtl wood
f 607//203 608//203 609//203
usemtl wood
f 610//204 611//204 612//204
usemtl wood
f 613//205 614//205 615//205
usemtl wood
f 616//206 617//206 618//206
usemtl wood
f 619//207 620//207 621//207
usemtl wood
f 622//208 623//208 624//208
usemtl blue
f 625//209 626//209 627//209
usemtl blue
f 628//210 629//210 630//210
usemtl blue
f 631//211 632//211 633//211
usemtl blue
f 634//212 635//212 636//212
usemtl blue
f 637//213 638//213 639//213
usemtl blue
f 640//214 641//214 642//214
usemtl blue
f 643//215 644//215 645//215
usemtl blue
f 646//216 647//216 648//216
usemtl blue
f 649//217 650//217 651//217
usemtl blue
f 652//218 653//218 654//218
usemtl blue
f 655//219 656//219 657//219
usemtl blue
f 658//220 659//220 660//220
usemtl blue
f 661//221 662//221 663//221
usemtl blue
f 664//222 665//222 666//222
usemtl blue
f 667//223 668//223 669//223
usemtl blue
f 670//224 671//224 672//224
usemtl blue
f 673//225 674//225 675//225
usemtl blue
f 676//226 677//226 678//226
usemtl blue
f 679//227 680//227 681//227
usemtl blue
f 682//228 683//228 684//228
usemtl blue
f 685//229 686//229 687//229
usemtl blue
f 688//230 689//230 690//230
usemtl blue
f 691//231 692//231 693//231
usemtl blue
f 694//232 695//232 696//232
usemtl blue
f 697//233 698//233 699//233
usemtl blue
f 700//234 701//234 702//234
usemtl blue
f 703//235 704//235 705//235
usemtl blue
f 706//236 707//236 708//236
usemtl blue
f 709//237 710//237 711//237
usemtl blue
f 712//238 713//238 714//238
usemtl blue
f 715//239 716//239 717//239
usemtl blue
f 718//240 719//240 720//240
usemtl wood
f 721//241 722//241 723//241
usemtl wood
f 724//242 725//242 726//242
usemtl wood
f 727//243 728//243 729//243
usemtl wood
f 730//244 731//244 732//244
usemtl wood
f 733//245 734//245 735//245
usemtl wood
f 736//246 737//246 738//246
usemtl wood
f 739//247 740//247 741//247
usemtl wood
f 742//248 743//248 744//248
usemtl wood
f 745//249 746//249 747//249
usemtl wood
f 748//250 749//250 750//250
usemtl wood
f 751//251 752//251 753//251
usemtl wood
f 754//252 755//252 756//252
usemtl wood
f 757//253 758//253 759//253
usemtl wood
f 760//254 761//254 762//254
usemtl wood
f 763//255 764//255 765//255
usemtl wood
f 766//256 767//256 768//256
usemtl blue
f 769//257 770//257 771//257
usemtl blue
f 772//258 773//258 774//258
usemtl blue
f 775//259 776//259 777//259
usemtl blue
f 778//260 779//260 780//260
usemtl blue
f 781//261 782//261 783//261
usemtl blue
f 784//262 785//262 786//262
usemtl blue
f 787//263 788//263 789//263
usemtl blue
f 790//264 791//264 792//264
usemtl blue
f 793//265 794//265 795//265
usemtl blue
f 796//266 797//266 798//266
usemtl blue
f 799//267 800//267 801//267
usemtl blue
f 802//268 803//268 804//268
usemtl blue
f 805//269 806//269 807//269
usemtl blue
f 808//270 809//270 810//270
usemtl blue
f 811//271 812//271 813//271
usemtl blue
f 814//272 815//272 816//272
usemtl blue
f 817//273 818//273 819//273
usemtl blue
f 820//274 821//274 822//274
usemtl blue
f 823//275 824//275 825//275
usemtl blue
f 826//276 827//276 828//276
usemtl blue
f 829//277 830//277 831//277
usemtl blue
f 832//278 833//278 834//278
usemtl blue
f 835//279 836//279 837//279
usemtl blue
f 838//280 839//280 840//280
usemtl blue
f 841//281 842//281 843//281
usemtl blue
f 844//282 845//282 846//282
usemtl blue
f 847//283 848//283 849//283
usemtl blue
f 850//284 851//284 852//284
usemtl blue
f 853//285 854//285 855//285
usemtl blue
f 856//286 857//286 858//286
usemtl blue
f 859//287 860//287 861//287
usemtl blue
f 862//288 863//288 864//288
usemtl wood_dark
f 865//289 866//289 867//289
usemtl wood_dark
f 868//290 869//290 870//290
usemtl wood_dark
f 871//291 872//291 873//291
usemtl wood_dark
f 874//292 875//292 876//292
usemtl wood_dark
f 877//293 878//293 879//293
usemtl wood_dark
f 880//294 881//294 882//294
usemtl wood_dark
f 883//295 884//295 885//295
usemtl wood_dark
f 886//296 887//296 888//296
usemtl wood_dark
f 889//297 890//297 891//297
usemtl wood_dark
f 892//298 893//298 894//298
usemtl wood_dark
f 895//299 896//299 897//299
usemtl wood_dark
f 898//300 899//300 900//300
usemtl steel_dark
f 901//301 902//301 903//301
usemtl steel_dark
f 904//302 905//302 906//302
usemtl steel_dark
f 907//303 908//303 909//303
usemtl steel_dark
f 910//304 911//304 912//304
usemtl steel_dark
f 913//305 914//305 915//305
usemtl steel_dark
f 916//306 917//306 918//306
usemtl steel_dark
f 919//307 920//307 921//307
usemtl steel_dark
f 922//308 923//308 924//308
usemtl steel_dark
f 925//309 926//309 927//309
usemtl steel_dark
f 928//310 929//310 930//310
usemtl steel_dark
f 931//311 932//311 933//311
usemtl steel_dark
f 934//312 935//312 936//312
