# Original Quiet Camp Ukrainian rural presentation asset
# Units: metres; Y up; no external geometry or textures
mtllib palette.mtl
o ua_orchard_tree
v 0.0750000 1.5600000 0.0000000
v 0.0231763 1.5600000 0.0713292
v 0.0401722 0.0000000 0.1236373
v 0.0750000 1.5600000 0.0000000
v 0.0401722 0.0000000 0.1236373
v 0.1300000 0.0000000 0.0000000
v 0.0000000 0.0000000 0.0000000
v 0.1300000 0.0000000 0.0000000
v 0.0401722 0.0000000 0.1236373
v 0.0000000 1.5600000 0.0000000
v 0.0231763 1.5600000 0.0713292
v 0.0750000 1.5600000 0.0000000
v 0.0231763 1.5600000 0.0713292
v -0.0606763 1.5600000 0.0440839
v -0.1051722 0.0000000 0.0764121
v 0.0231763 1.5600000 0.0713292
v -0.1051722 0.0000000 0.0764121
v 0.0401722 0.0000000 0.1236373
v 0.0000000 0.0000000 0.0000000
v 0.0401722 0.0000000 0.1236373
v -0.1051722 0.0000000 0.0764121
v 0.0000000 1.5600000 0.0000000
v -0.0606763 1.5600000 0.0440839
v 0.0231763 1.5600000 0.0713292
v -0.0606763 1.5600000 0.0440839
v -0.0606763 1.5600000 -0.0440839
v -0.1051722 0.0000000 -0.0764121
v -0.0606763 1.5600000 0.0440839
v -0.1051722 0.0000000 -0.0764121
v -0.1051722 0.0000000 0.0764121
v 0.0000000 0.0000000 0.0000000
v -0.1051722 0.0000000 0.0764121
v -0.1051722 0.0000000 -0.0764121
v 0.0000000 1.5600000 0.0000000
v -0.0606763 1.5600000 -0.0440839
v -0.0606763 1.5600000 0.0440839
v -0.0606763 1.5600000 -0.0440839
v 0.0231763 1.5600000 -0.0713292
v 0.0401722 0.0000000 -0.1236373
v -0.0606763 1.5600000 -0.0440839
v 0.0401722 0.0000000 -0.1236373
v -0.1051722 0.0000000 -0.0764121
v 0.0000000 0.0000000 0.0000000
v -0.1051722 0.0000000 -0.0764121
v 0.0401722 0.0000000 -0.1236373
v 0.0000000 1.5600000 0.0000000
v 0.0231763 1.5600000 -0.0713292
v -0.0606763 1.5600000 -0.0440839
v 0.0231763 1.5600000 -0.0713292
v 0.0750000 1.5600000 0.0000000
v 0.1300000 0.0000000 0.0000000
v 0.0231763 1.5600000 -0.0713292
v 0.1300000 0.0000000 0.0000000
v 0.0401722 0.0000000 -0.1236373
v 0.0000000 0.0000000 0.0000000
v 0.0401722 0.0000000 -0.1236373
v 0.1300000 0.0000000 0.0000000
v 0.0000000 1.5600000 0.0000000
v 0.0750000 1.5600000 0.0000000
v 0.0231763 1.5600000 -0.0713292
v -0.0393416 0.7041462 -0.0373673
v -0.0274594 0.7041462 0.0467981
v -0.8774594 1.8241462 0.1667981
v -0.0393416 0.7041462 -0.0373673
v -0.8774594 1.8241462 0.1667981
v -0.8893416 1.8241462 0.0826327
v -0.0274594 0.7041462 0.0467981
v 0.0393416 0.7558538 0.0373673
v -0.8106584 1.8758538 0.1573673
v -0.0274594 0.7041462 0.0467981
v -0.8106584 1.8758538 0.1573673
v -0.8774594 1.8241462 0.1667981
v 0.0393416 0.7558538 0.0373673
v 0.0274594 0.7558538 -0.0467981
v -0.8225406 1.8758538 0.0732019
v 0.0393416 0.7558538 0.0373673
v -0.8225406 1.8758538 0.0732019
v -0.8106584 1.8758538 0.1573673
v 0.0274594 0.7558538 -0.0467981
v -0.0393416 0.7041462 -0.0373673
v -0.8893416 1.8241462 0.0826327
v 0.0274594 0.7558538 -0.0467981
v -0.8893416 1.8241462 0.0826327
v -0.8225406 1.8758538 0.0732019
v 0.0190962 0.9231217 0.0502533
v 0.0438843 0.9231217 -0.0310519
v 0.8638843 1.9731217 0.2189481
v 0.0190962 0.9231217 0.0502533
v 0.8638843 1.9731217 0.2189481
v 0.8390962 1.9731217 0.3002533
v 0.0438843 0.9231217 -0.0310519
v -0.0190962 0.9768783 -0.0502533
v 0.8009038 2.0268783 0.1997467
v 0.0438843 0.9231217 -0.0310519
v 0.8009038 2.0268783 0.1997467
v 0.8638843 1.9731217 0.2189481
v -0.0190962 0.9768783 -0.0502533
v -0.0438843 0.9768783 0.0310519
v 0.7761157 2.0268783 0.2810519
v -0.0190962 0.9768783 -0.0502533
v 0.7761157 2.0268783 0.2810519
v 0.8009038 2.0268783 0.1997467
v -0.0438843 0.9768783 0.0310519
v 0.0190962 0.9231217 0.0502533
v 0.8390962 1.9731217 0.3002533
v -0.0438843 0.9768783 0.0310519
v 0.8390962 1.9731217 0.3002533
v 0.7761157 2.0268783 0.2810519
v -0.0423340 1.0871407 -0.0406813
v -0.0423340 1.1197884 0.0377988
v 0.0776660 2.3697884 -0.4822012
v -0.0423340 1.0871407 -0.0406813
v 0.0776660 2.3697884 -0.4822012
v 0.0776660 2.3371407 -0.5606813
v -0.0423340 1.1197884 0.0377988
v 0.0423340 1.1128593 0.0406813
v 0.1623340 2.3628593 -0.4793187
v -0.0423340 1.1197884 0.0377988
v 0.1623340 2.3628593 -0.4793187
v 0.0776660 2.3697884 -0.4822012
v 0.0423340 1.1128593 0.0406813
v 0.0423340 1.0802116 -0.0377988
v 0.1623340 2.3302116 -0.5577988
v 0.0423340 1.1128593 0.0406813
v 0.1623340 2.3302116 -0.5577988
v 0.1623340 2.3628593 -0.4793187
v 0.0423340 1.0802116 -0.0377988
v -0.0423340 1.0871407 -0.0406813
v 0.0776660 2.3371407 -0.5606813
v 0.0423340 1.0802116 -0.0377988
v 0.0776660 2.3371407 -0.5606813
v 0.1623340 2.3302116 -0.5577988
v -0.6380000 2.6045000 0.0808000
v -0.2087384 2.0100000 0.7711018
v 0.1000000 2.0100000 0.1300000
v -0.7774000 1.4155000 0.1792000
v 0.1000000 2.0100000 0.1300000
v -0.2087384 2.0100000 0.7711018
v -0.6380000 2.6045000 0.0808000
v -0.9024672 2.0100000 0.9294409
v -0.2087384 2.0100000 0.7711018
v -0.7774000 1.4155000 0.1792000
v -0.2087384 2.0100000 0.7711018
v -0.9024672 2.0100000 0.9294409
v -0.6380000 2.6045000 0.0808000
v -1.4587945 2.0100000 0.4857847
v -0.9024672 2.0100000 0.9294409
v -0.7774000 1.4155000 0.1792000
v -0.9024672 2.0100000 0.9294409
v -1.4587945 2.0100000 0.4857847
v -0.6380000 2.6045000 0.0808000
v -1.4587945 2.0100000 -0.2257847
v -1.4587945 2.0100000 0.4857847
v -0.7774000 1.4155000 0.1792000
v -1.4587945 2.0100000 0.4857847
v -1.4587945 2.0100000 -0.2257847
v -0.6380000 2.6045000 0.0808000
v -0.9024672 2.0100000 -0.6694409
v -1.4587945 2.0100000 -0.2257847
v -0.7774000 1.4155000 0.1792000
v -1.4587945 2.0100000 -0.2257847
v -0.9024672 2.0100000 -0.6694409
v -0.6380000 2.6045000 0.0808000
v -0.2087384 2.0100000 -0.5111018
v -0.9024672 2.0100000 -0.6694409
v -0.7774000 1.4155000 0.1792000
v -0.9024672 2.0100000 -0.6694409
v -0.2087384 2.0100000 -0.5111018
v -0.6380000 2.6045000 0.0808000
v 0.1000000 2.0100000 0.1300000
v -0.2087384 2.0100000 -0.5111018
v -0.7774000 1.4155000 0.1792000
v -0.2087384 2.0100000 -0.5111018
v 0.1000000 2.0100000 0.1300000
v 0.7170000 2.7607500 0.1978000
v 1.1724361 2.1300000 0.9301934
v 1.5000000 2.1300000 0.2500000
v 0.5691000 1.4992500 0.3022000
v 1.5000000 2.1300000 0.2500000
v 1.1724361 2.1300000 0.9301934
v 0.7170000 2.7607500 0.1978000
v 0.4364068 2.1300000 1.0981873
v 1.1724361 2.1300000 0.9301934
v 0.5691000 1.4992500 0.3022000
v 1.1724361 2.1300000 0.9301934
v 0.4364068 2.1300000 1.0981873
v 0.7170000 2.7607500 0.1978000
v -0.1538429 2.1300000 0.6274789
v 0.4364068 2.1300000 1.0981873
v 0.5691000 1.4992500 0.3022000
v 0.4364068 2.1300000 1.0981873
v -0.1538429 2.1300000 0.6274789
v 0.7170000 2.7607500 0.1978000
v -0.1538429 2.1300000 -0.1274789
v -0.1538429 2.1300000 0.6274789
v 0.5691000 1.4992500 0.3022000
v -0.1538429 2.1300000 0.6274789
v -0.1538429 2.1300000 -0.1274789
v 0.7170000 2.7607500 0.1978000
v 0.4364068 2.1300000 -0.5981873
v -0.1538429 2.1300000 -0.1274789
v 0.5691000 1.4992500 0.3022000
v -0.1538429 2.1300000 -0.1274789
v 0.4364068 2.1300000 -0.5981873
v 0.7170000 2.7607500 0.1978000
v 1.1724361 2.1300000 -0.4301934
v 0.4364068 2.1300000 -0.5981873
v 0.5691000 1.4992500 0.3022000
v 0.4364068 2.1300000 -0.5981873
v 1.1724361 2.1300000 -0.4301934
v 0.7170000 2.7607500 0.1978000
v 1.5000000 2.1300000 0.2500000
v 1.1724361 2.1300000 -0.4301934
v 0.5691000 1.4992500 0.3022000
v 1.1724361 2.1300000 -0.4301934
v 1.5000000 2.1300000 0.2500000
v 0.1780000 2.9655000 -0.4668000
v 0.5863220 2.4000000 0.1898286
v 0.8800000 2.4000000 -0.4200000
v 0.0454000 1.8345000 -0.3732000
v 0.8800000 2.4000000 -0.4200000
v 0.5863220 2.4000000 0.1898286
v 0.1780000 2.9655000 -0.4668000
v -0.0735663 2.4000000 0.3404438
v 0.5863220 2.4000000 0.1898286
v 0.0454000 1.8345000 -0.3732000
v 0.5863220 2.4000000 0.1898286
v -0.0735663 2.4000000 0.3404438
v 0.1780000 2.9655000 -0.4668000
v -0.6027557 2.4000000 -0.0815707
v -0.0735663 2.4000000 0.3404438
v 0.0454000 1.8345000 -0.3732000
v -0.0735663 2.4000000 0.3404438
v -0.6027557 2.4000000 -0.0815707
v 0.1780000 2.9655000 -0.4668000
v -0.6027557 2.4000000 -0.7584293
v -0.6027557 2.4000000 -0.0815707
v 0.0454000 1.8345000 -0.3732000
v -0.6027557 2.4000000 -0.0815707
v -0.6027557 2.4000000 -0.7584293
v 0.1780000 2.9655000 -0.4668000
v -0.0735663 2.4000000 -1.1804438
v -0.6027557 2.4000000 -0.7584293
v 0.0454000 1.8345000 -0.3732000
v -0.6027557 2.4000000 -0.7584293
v -0.0735663 2.4000000 -1.1804438
v 0.1780000 2.9655000 -0.4668000
v 0.5863220 2.4000000 -1.0298286
v -0.0735663 2.4000000 -1.1804438
v 0.0454000 1.8345000 -0.3732000
v -0.0735663 2.4000000 -1.1804438
v 0.5863220 2.4000000 -1.0298286
v 0.1780000 2.9655000 -0.4668000
v 0.8800000 2.4000000 -0.4200000
v 0.5863220 2.4000000 -1.0298286
v 0.0454000 1.8345000 -0.3732000
v 0.5863220 2.4000000 -1.0298286
v 0.8800000 2.4000000 -0.4200000
v 0.0670000 2.3457500 0.4598000
v 0.4177382 1.8600000 1.0238271
v 0.6700000 1.8600000 0.5000000
v -0.0469000 1.3742500 0.5402000
v 0.6700000 1.8600000 0.5000000
v 0.4177382 1.8600000 1.0238271
v 0.0670000 2.3457500 0.4598000
v -0.1490890 1.8600000 1.1532017
v 0.4177382 1.8600000 1.0238271
v -0.0469000 1.3742500 0.5402000
v 0.4177382 1.8600000 1.0238271
v -0.1490890 1.8600000 1.1532017
v 0.0670000 2.3457500 0.4598000
v -0.6036491 1.8600000 0.7907021
v -0.1490890 1.8600000 1.1532017
v -0.0469000 1.3742500 0.5402000
v -0.1490890 1.8600000 1.1532017
v -0.6036491 1.8600000 0.7907021
v 0.0670000 2.3457500 0.4598000
v -0.6036491 1.8600000 0.2092979
v -0.6036491 1.8600000 0.7907021
v -0.0469000 1.3742500 0.5402000
v -0.6036491 1.8600000 0.7907021
v -0.6036491 1.8600000 0.2092979
v 0.0670000 2.3457500 0.4598000
v -0.1490890 1.8600000 -0.1532017
v -0.6036491 1.8600000 0.2092979
v -0.0469000 1.3742500 0.5402000
v -0.6036491 1.8600000 0.2092979
v -0.1490890 1.8600000 -0.1532017
v 0.0670000 2.3457500 0.4598000
v 0.4177382 1.8600000 -0.0238271
v -0.1490890 1.8600000 -0.1532017
v -0.0469000 1.3742500 0.5402000
v -0.1490890 1.8600000 -0.1532017
v 0.4177382 1.8600000 -0.0238271
v 0.0670000 2.3457500 0.4598000
v 0.6700000 1.8600000 0.5000000
v 0.4177382 1.8600000 -0.0238271
v -0.0469000 1.3742500 0.5402000
v 0.4177382 1.8600000 -0.0238271
v 0.6700000 1.8600000 0.5000000
v -0.8345000 1.7625000 -0.4333000
v -0.8400000 1.7200000 -0.3750000
v -0.7850000 1.7200000 -0.4300000
v -0.8438500 1.6775000 -0.4267000
v -0.7850000 1.7200000 -0.4300000
v -0.8400000 1.7200000 -0.3750000
v -0.8345000 1.7625000 -0.4333000
v -0.8950000 1.7200000 -0.4300000
v -0.8400000 1.7200000 -0.3750000
v -0.8438500 1.6775000 -0.4267000
v -0.8400000 1.7200000 -0.3750000
v -0.8950000 1.7200000 -0.4300000
v -0.8345000 1.7625000 -0.4333000
v -0.8400000 1.7200000 -0.4850000
v -0.8950000 1.7200000 -0.4300000
v -0.8438500 1.6775000 -0.4267000
v -0.8950000 1.7200000 -0.4300000
v -0.8400000 1.7200000 -0.4850000
v -0.8345000 1.7625000 -0.4333000
v -0.7850000 1.7200000 -0.4300000
v -0.8400000 1.7200000 -0.4850000
v -0.8438500 1.6775000 -0.4267000
v -0.8400000 1.7200000 -0.4850000
v -0.7850000 1.7200000 -0.4300000
v 0.6755000 1.9325000 -0.3833000
v 0.6700000 1.8900000 -0.3250000
v 0.7250000 1.8900000 -0.3800000
v 0.6661500 1.8475000 -0.3767000
v 0.7250000 1.8900000 -0.3800000
v 0.6700000 1.8900000 -0.3250000
v 0.6755000 1.9325000 -0.3833000
v 0.6150000 1.8900000 -0.3800000
v 0.6700000 1.8900000 -0.3250000
v 0.6661500 1.8475000 -0.3767000
v 0.6700000 1.8900000 -0.3250000
v 0.6150000 1.8900000 -0.3800000
v 0.6755000 1.9325000 -0.3833000
v 0.6700000 1.8900000 -0.4350000
v 0.6150000 1.8900000 -0.3800000
v 0.6661500 1.8475000 -0.3767000
v 0.6150000 1.8900000 -0.3800000
v 0.6700000 1.8900000 -0.4350000
v 0.6755000 1.9325000 -0.3833000
v 0.7250000 1.8900000 -0.3800000
v 0.6700000 1.8900000 -0.4350000
v 0.6661500 1.8475000 -0.3767000
v 0.6700000 1.8900000 -0.4350000
v 0.7250000 1.8900000 -0.3800000
v 0.2755000 1.5725000 0.8567000
v 0.2700000 1.5300000 0.9150000
v 0.3250000 1.5300000 0.8600000
v 0.2661500 1.4875000 0.8633000
v 0.3250000 1.5300000 0.8600000
v 0.2700000 1.5300000 0.9150000
v 0.2755000 1.5725000 0.8567000
v 0.2150000 1.5300000 0.8600000
v 0.2700000 1.5300000 0.9150000
v 0.2661500 1.4875000 0.8633000
v 0.2700000 1.5300000 0.9150000
v 0.2150000 1.5300000 0.8600000
v 0.2755000 1.5725000 0.8567000
v 0.2700000 1.5300000 0.8050000
v 0.2150000 1.5300000 0.8600000
v 0.2661500 1.4875000 0.8633000
v 0.2150000 1.5300000 0.8600000
v 0.2700000 1.5300000 0.8050000
v 0.2755000 1.5725000 0.8567000
v 0.3250000 1.5300000 0.8600000
v 0.2700000 1.5300000 0.8050000
v 0.2661500 1.4875000 0.8633000
v 0.2700000 1.5300000 0.8050000
v 0.3250000 1.5300000 0.8600000
v -0.0345000 2.1525000 -1.0533000
v -0.0400000 2.1100000 -0.9950000
v 0.0150000 2.1100000 -1.0500000
v -0.0438500 2.0675000 -1.0467000
v 0.0150000 2.1100000 -1.0500000
v -0.0400000 2.1100000 -0.9950000
v -0.0345000 2.1525000 -1.0533000
v -0.0950000 2.1100000 -1.0500000
v -0.0400000 2.1100000 -0.9950000
v -0.0438500 2.0675000 -1.0467000
v -0.0400000 2.1100000 -0.9950000
v -0.0950000 2.1100000 -1.0500000
v -0.0345000 2.1525000 -1.0533000
v -0.0400000 2.1100000 -1.1050000
v -0.0950000 2.1100000 -1.0500000
v -0.0438500 2.0675000 -1.0467000
v -0.0950000 2.1100000 -1.0500000
v -0.0400000 2.1100000 -1.1050000
v -0.0345000 2.1525000 -1.0533000
v 0.0150000 2.1100000 -1.0500000
v -0.0400000 2.1100000 -1.1050000
v -0.0438500 2.0675000 -1.0467000
v -0.0400000 2.1100000 -1.1050000
v 0.0150000 2.1100000 -1.0500000
vn 0.8086881 0.0285114 0.5875463
vn 0.8086881 0.0285114 0.5875463
vn 0.0000000 -1.0000000 0.0000000
vn 0.0000000 1.0000000 0.0000000
vn -0.3088914 0.0285114 0.9506699
vn -0.3088914 0.0285114 0.9506699
vn 0.0000000 -1.0000000 0.0000000
vn 0.0000000 1.0000000 -0.0000000
vn -0.9995935 0.0285114 0.0000000
vn -0.9995935 0.0285114 0.0000000
vn -0.0000000 -1.0000000 0.0000000
vn 0.0000000 1.0000000 0.0000000
vn -0.3088914 0.0285114 -0.9506699
vn -0.3088914 0.0285114 -0.9506699
vn 0.0000000 -1.0000000 -0.0000000
vn 0.0000000 1.0000000 0.0000000
vn 0.8086881 0.0285114 -0.5875463
vn 0.8086881 0.0285114 -0.5875463
vn 0.0000000 -1.0000000 0.0000000
vn -0.0000000 1.0000000 0.0000000
vn -0.7858946 -0.6083254 0.1109498
vn -0.7858946 -0.6083254 0.1109498
vn 0.1397903 0.0000000 0.9901811
vn 0.1397903 0.0000000 0.9901811
vn 0.7858946 0.6083254 -0.1109498
vn 0.7858946 0.6083254 -0.1109498
vn -0.1397903 -0.0000000 -0.9901811
vn -0.1397903 0.0000000 -0.9901811
vn 0.7409470 -0.6324297 0.2258985
vn 0.7409470 -0.6324297 0.2258985
vn 0.2916258 -0.0000000 -0.9565325
vn 0.2916258 0.0000000 -0.9565325
vn -0.7409470 0.6324297 -0.2258985
vn -0.7409470 0.6324297 -0.2258985
vn -0.2916258 0.0000000 0.9565325
vn -0.2916258 -0.0000000 0.9565325
vn -0.9960948 0.0815179 -0.0339115
vn -0.9960948 0.0815179 -0.0339115
vn -0.0000000 0.3840908 0.9232953
vn -0.0000000 0.3840908 0.9232953
vn 0.9960948 -0.0815179 0.0339115
vn 0.9960948 -0.0815179 0.0339115
vn 0.0000000 -0.3840908 -0.9232953
vn 0.0000000 -0.3840908 -0.9232953
vn 0.5899244 0.7558311 0.2840926
vn 0.5509803 -0.7912119 0.2653381
vn 0.1361528 0.7909622 0.5965243
vn 0.1436153 -0.7638435 0.6292199
vn -0.3635270 0.8124349 0.4558484
vn -0.4157054 -0.7452906 0.5212781
vn -0.5865950 0.8098804 0.0000000
vn -0.6574266 -0.7535186 0.0000000
vn -0.3868413 0.7842497 -0.4850837
vn -0.3900197 -0.7801897 -0.4890692
vn 0.1473704 0.7492595 -0.6456718
vn 0.1327753 -0.8024744 -0.5817264
vn 0.6113520 0.7345546 -0.2944116
vn 0.5322983 -0.8068133 -0.2563413
vn 0.5899244 0.7558311 0.2840926
vn 0.5509803 -0.7912119 0.2653381
vn 0.1361528 0.7909622 0.5965243
vn 0.1436153 -0.7638435 0.6292199
vn -0.3635270 0.8124349 0.4558484
vn -0.4157054 -0.7452906 0.5212781
vn -0.5865950 0.8098804 0.0000000
vn -0.6574266 -0.7535186 0.0000000
vn -0.3868413 0.7842497 -0.4850837
vn -0.3900197 -0.7801897 -0.4890692
vn 0.1473704 0.7492595 -0.6456718
vn 0.1327753 -0.8024744 -0.5817264
vn 0.6113520 0.7345546 -0.2944116
vn 0.5322983 -0.8068133 -0.2563413
vn 0.5899244 0.7558311 0.2840926
vn 0.5509803 -0.7912119 0.2653381
vn 0.1361528 0.7909622 0.5965243
vn 0.1436153 -0.7638435 0.6292199
vn -0.3635270 0.8124349 0.4558484
vn -0.4157054 -0.7452906 0.5212781
vn -0.5865950 0.8098804 0.0000000
vn -0.6574266 -0.7535186 0.0000000
vn -0.3868413 0.7842497 -0.4850837
vn -0.3900197 -0.7801897 -0.4890692
vn 0.1473704 0.7492595 -0.6456718
vn 0.1327753 -0.8024744 -0.5817264
vn 0.6113520 0.7345546 -0.2944116
vn 0.5322983 -0.8068133 -0.2563413
vn 0.5899244 0.7558311 0.2840926
vn 0.5509803 -0.7912119 0.2653381
vn 0.1361528 0.7909622 0.5965243
vn 0.1436153 -0.7638435 0.6292199
vn -0.3635270 0.8124349 0.4558484
vn -0.4157054 -0.7452906 0.5212781
vn -0.5865950 0.8098804 0.0000000
vn -0.6574266 -0.7535186 0.0000000
vn -0.3868413 0.7842497 -0.4850837
vn -0.3900197 -0.7801897 -0.4890692
vn 0.1473704 0.7492595 -0.6456718
vn 0.1327753 -0.8024744 -0.5817264
vn 0.6113520 0.7345546 -0.2944116
vn 0.5322983 -0.8068133 -0.2563413
vn 0.5312359 0.6599825 0.5312359
vn 0.5192859 -0.6787373 0.5192859
vn -0.4848699 0.7278753 0.4848699
vn -0.5532034 -0.6228419 0.5532034
vn -0.5122215 0.6893898 -0.5122215
vn -0.5240407 -0.6713886 -0.5240407
vn 0.5606226 0.6094297 -0.5606226
vn 0.4915637 -0.7188396 -0.4915637
vn 0.5312359 0.6599825 0.5312359
vn 0.5192859 -0.6787373 0.5192859
vn -0.4848699 0.7278753 0.4848699
vn -0.5532034 -0.6228419 0.5532034
vn -0.5122215 0.6893898 -0.5122215
vn -0.5240407 -0.6713886 -0.5240407
vn 0.5606226 0.6094297 -0.5606226
vn 0.4915637 -0.7188396 -0.4915637
vn 0.5312359 0.6599825 0.5312359
vn 0.5192859 -0.6787373 0.5192859
vn -0.4848699 0.7278753 0.4848699
vn -0.5532034 -0.6228419 0.5532034
vn -0.5122215 0.6893898 -0.5122215
vn -0.5240407 -0.6713886 -0.5240407
vn 0.5606226 0.6094297 -0.5606226
vn 0.4915637 -0.7188396 -0.4915637
vn 0.5312359 0.6599825 0.5312359
vn 0.5192859 -0.6787373 0.5192859
vn -0.4848699 0.7278753 0.4848699
vn -0.5532034 -0.6228419 0.5532034
vn -0.5122215 0.6893898 -0.5122215
vn -0.5240407 -0.6713886 -0.5240407
vn 0.5606226 0.6094297 -0.5606226
vn 0.4915637 -0.7188396 -0.4915637
usemtl wood_dark
f 1//1 2//1 3//1
usemtl wood_dark
f 4//2 5//2 6//2
usemtl wood_dark
f 7//3 8//3 9//3
usemtl wood_dark
f 10//4 11//4 12//4
usemtl wood_dark
f 13//5 14//5 15//5
usemtl wood_dark
f 16//6 17//6 18//6
usemtl wood_dark
f 19//7 20//7 21//7
usemtl wood_dark
f 22//8 23//8 24//8
usemtl wood_dark
f 25//9 26//9 27//9
usemtl wood_dark
f 28//10 29//10 30//10
usemtl wood_dark
f 31//11 32//11 33//11
usemtl wood_dark
f 34//12 35//12 36//12
usemtl wood_dark
f 37//13 38//13 39//13
usemtl wood_dark
f 40//14 41//14 42//14
usemtl wood_dark
f 43//15 44//15 45//15
usemtl wood_dark
f 46//16 47//16 48//16
usemtl wood_dark
f 49//17 50//17 51//17
usemtl wood_dark
f 52//18 53//18 54//18
usemtl wood_dark
f 55//19 56//19 57//19
usemtl wood_dark
f 58//20 59//20 60//20
usemtl wood
f 61//21 62//21 63//21
usemtl wood
f 64//22 65//22 66//22
usemtl wood
f 67//23 68//23 69//23
usemtl wood
f 70//24 71//24 72//24
usemtl wood
f 73//25 74//25 75//25
usemtl wood
f 76//26 77//26 78//26
usemtl wood
f 79//27 80//27 81//27
usemtl wood
f 82//28 83//28 84//28
usemtl wood
f 85//29 86//29 87//29
usemtl wood
f 88//30 89//30 90//30
usemtl wood
f 91//31 92//31 93//31
usemtl wood
f 94//32 95//32 96//32
usemtl wood
f 97//33 98//33 99//33
usemtl wood
f 100//34 101//34 102//34
usemtl wood
f 103//35 104//35 105//35
usemtl wood
f 106//36 107//36 108//36
usemtl wood
f 109//37 110//37 111//37
usemtl wood
f 112//38 113//38 114//38
usemtl wood
f 115//39 116//39 117//39
usemtl wood
f 118//40 119//40 120//40
usemtl wood
f 121//41 122//41 123//41
usemtl wood
f 124//42 125//42 126//42
usemtl wood
f 127//43 128//43 129//43
usemtl wood
f 130//44 131//44 132//44
usemtl leaf
f 133//45 134//45 135//45
usemtl leaf
f 136//46 137//46 138//46
usemtl leaf
f 139//47 140//47 141//47
usemtl leaf
f 142//48 143//48 144//48
usemtl leaf
f 145//49 146//49 147//49
usemtl leaf
f 148//50 149//50 150//50
usemtl leaf
f 151//51 152//51 153//51
usemtl leaf
f 154//52 155//52 156//52
usemtl leaf
f 157//53 158//53 159//53
usemtl leaf
f 160//54 161//54 162//54
usemtl leaf
f 163//55 164//55 165//55
usemtl leaf
f 166//56 167//56 168//56
usemtl leaf
f 169//57 170//57 171//57
usemtl leaf
f 172//58 173//58 174//58
usemtl leaf_light
f 175//59 176//59 177//59
usemtl leaf_light
f 178//60 179//60 180//60
usemtl leaf_light
f 181//61 182//61 183//61
usemtl leaf_light
f 184//62 185//62 186//62
usemtl leaf_light
f 187//63 188//63 189//63
usemtl leaf_light
f 190//64 191//64 192//64
usemtl leaf_light
f 193//65 194//65 195//65
usemtl leaf_light
f 196//66 197//66 198//66
usemtl leaf_light
f 199//67 200//67 201//67
usemtl leaf_light
f 202//68 203//68 204//68
usemtl leaf_light
f 205//69 206//69 207//69
usemtl leaf_light
f 208//70 209//70 210//70
usemtl leaf_light
f 211//71 212//71 213//71
usemtl leaf_light
f 214//72 215//72 216//72
usemtl leaf
f 217//73 218//73 219//73
usemtl leaf
f 220//74 221//74 222//74
usemtl leaf
f 223//75 224//75 225//75
usemtl leaf
f 226//76 227//76 228//76
usemtl leaf
f 229//77 230//77 231//77
usemtl leaf
f 232//78 233//78 234//78
usemtl leaf
f 235//79 236//79 237//79
usemtl leaf
f 238//80 239//80 240//80
usemtl leaf
f 241//81 242//81 243//81
usemtl leaf
f 244//82 245//82 246//82
usemtl leaf
f 247//83 248//83 249//83
usemtl leaf
f 250//84 251//84 252//84
usemtl leaf
f 253//85 254//85 255//85
usemtl leaf
f 256//86 257//86 258//86
usemtl leaf_dark
f 259//87 260//87 261//87
usemtl leaf_dark
f 262//88 263//88 264//88
usemtl leaf_dark
f 265//89 266//89 267//89
usemtl leaf_dark
f 268//90 269//90 270//90
usemtl leaf_dark
f 271//91 272//91 273//91
usemtl leaf_dark
f 274//92 275//92 276//92
usemtl leaf_dark
f 277//93 278//93 279//93
usemtl leaf_dark
f 280//94 281//94 282//94
usemtl leaf_dark
f 283//95 284//95 285//95
usemtl leaf_dark
f 286//96 287//96 288//96
usemtl leaf_dark
f 289//97 290//97 291//97
usemtl leaf_dark
f 292//98 293//98 294//98
usemtl leaf_dark
f 295//99 296//99 297//99
usemtl leaf_dark
f 298//100 299//100 300//100
usemtl apple
f 301//101 302//101 303//101
usemtl apple
f 304//102 305//102 306//102
usemtl apple
f 307//103 308//103 309//103
usemtl apple
f 310//104 311//104 312//104
usemtl apple
f 313//105 314//105 315//105
usemtl apple
f 316//106 317//106 318//106
usemtl apple
f 319//107 320//107 321//107
usemtl apple
f 322//108 323//108 324//108
usemtl apple
f 325//109 326//109 327//109
usemtl apple
f 328//110 329//110 330//110
usemtl apple
f 331//111 332//111 333//111
usemtl apple
f 334//112 335//112 336//112
usemtl apple
f 337//113 338//113 339//113
usemtl apple
f 340//114 341//114 342//114
usemtl apple
f 343//115 344//115 345//115
usemtl apple
f 346//116 347//116 348//116
usemtl apple
f 349//117 350//117 351//117
usemtl apple
f 352//118 353//118 354//118
usemtl apple
f 355//119 356//119 357//119
usemtl apple
f 358//120 359//120 360//120
usemtl apple
f 361//121 362//121 363//121
usemtl apple
f 364//122 365//122 366//122
usemtl apple
f 367//123 368//123 369//123
usemtl apple
f 370//124 371//124 372//124
usemtl apple
f 373//125 374//125 375//125
usemtl apple
f 376//126 377//126 378//126
usemtl apple
f 379//127 380//127 381//127
usemtl apple
f 382//128 383//128 384//128
usemtl apple
f 385//129 386//129 387//129
usemtl apple
f 388//130 389//130 390//130
usemtl apple
f 391//131 392//131 393//131
usemtl apple
f 394//132 395//132 396//132
