# Original Quiet Camp Ukrainian rural presentation asset
# Units: metres; Y up; no external geometry or textures
mtllib palette.mtl
o ua_rural_pole
v 0.0800000 7.3000000 0.0000000
v 0.0247214 7.3000000 0.0760845
v 0.0370820 0.0000000 0.1141268
v 0.0800000 7.3000000 0.0000000
v 0.0370820 0.0000000 0.1141268
v 0.1200000 0.0000000 0.0000000
v 0.0000000 0.0000000 0.0000000
v 0.1200000 0.0000000 0.0000000
v 0.0370820 0.0000000 0.1141268
v 0.0000000 7.3000000 0.0000000
v 0.0247214 7.3000000 0.0760845
v 0.0800000 7.3000000 0.0000000
v 0.0247214 7.3000000 0.0760845
v -0.0647214 7.3000000 0.0470228
v -0.0970820 0.0000000 0.0705342
v 0.0247214 7.3000000 0.0760845
v -0.0970820 0.0000000 0.0705342
v 0.0370820 0.0000000 0.1141268
v 0.0000000 0.0000000 0.0000000
v 0.0370820 0.0000000 0.1141268
v -0.0970820 0.0000000 0.0705342
v 0.0000000 7.3000000 0.0000000
v -0.0647214 7.3000000 0.0470228
v 0.0247214 7.3000000 0.0760845
v -0.0647214 7.3000000 0.0470228
v -0.0647214 7.3000000 -0.0470228
v -0.0970820 0.0000000 -0.0705342
v -0.0647214 7.3000000 0.0470228
v -0.0970820 0.0000000 -0.0705342
v -0.0970820 0.0000000 0.0705342
v 0.0000000 0.0000000 0.0000000
v -0.0970820 0.0000000 0.0705342
v -0.0970820 0.0000000 -0.0705342
v 0.0000000 7.3000000 0.0000000
v -0.0647214 7.3000000 -0.0470228
v -0.0647214 7.3000000 0.0470228
v -0.0647214 7.3000000 -0.0470228
v 0.0247214 7.3000000 -0.0760845
v 0.0370820 0.0000000 -0.1141268
v -0.0647214 7.3000000 -0.0470228
v 0.0370820 0.0000000 -0.1141268
v -0.0970820 0.0000000 -0.0705342
v 0.0000000 0.0000000 0.0000000
v -0.0970820 0.0000000 -0.0705342
v 0.0370820 0.0000000 -0.1141268
v 0.0000000 7.3000000 0.0000000
v 0.0247214 7.3000000 -0.0760845
v -0.0647214 7.3000000 -0.0470228
v 0.0247214 7.3000000 -0.0760845
v 0.0800000 7.3000000 0.0000000
v 0.1200000 0.0000000 0.0000000
v 0.0247214 7.3000000 -0.0760845
v 0.1200000 0.0000000 0.0000000
v 0.0370820 0.0000000 -0.1141268
v 0.0000000 0.0000000 0.0000000
v 0.0370820 0.0000000 -0.1141268
v 0.1200000 0.0000000 0.0000000
v 0.0000000 7.3000000 0.0000000
v 0.0800000 7.3000000 0.0000000
v 0.0247214 7.3000000 -0.0760845
v -1.1000000 6.3450000 0.0550000
v -1.1000000 6.3450000 -0.0550000
v 1.1000000 6.3450000 -0.0550000
v -1.1000000 6.3450000 0.0550000
v 1.1000000 6.3450000 -0.0550000
v 1.1000000 6.3450000 0.0550000
v -1.1000000 6.3450000 -0.0550000
v -1.1000000 6.4550000 -0.0550000
v 1.1000000 6.4550000 -0.0550000
v -1.1000000 6.3450000 -0.0550000
v 1.1000000 6.4550000 -0.0550000
v 1.1000000 6.3450000 -0.0550000
v -1.1000000 6.4550000 -0.0550000
v -1.1000000 6.4550000 0.0550000
v 1.1000000 6.4550000 0.0550000
v -1.1000000 6.4550000 -0.0550000
v 1.1000000 6.4550000 0.0550000
v 1.1000000 6.4550000 -0.0550000
v -1.1000000 6.4550000 0.0550000
v -1.1000000 6.3450000 0.0550000
v 1.1000000 6.3450000 0.0550000
v -1.1000000 6.4550000 0.0550000
v 1.1000000 6.3450000 0.0550000
v 1.1000000 6.4550000 0.0550000
v -1.1000000 6.4550000 0.0550000
v -1.1000000 6.4550000 -0.0550000
v -1.1000000 6.3450000 -0.0550000
v -1.1000000 6.4550000 0.0550000
v -1.1000000 6.3450000 -0.0550000
v -1.1000000 6.3450000 0.0550000
v 1.1000000 6.3450000 0.0550000
v 1.1000000 6.3450000 -0.0550000
v 1.1000000 6.4550000 -0.0550000
v 1.1000000 6.3450000 0.0550000
v 1.1000000 6.4550000 -0.0550000
v 1.1000000 6.4550000 0.0550000
v -0.9050000 6.6100000 0.0000000
v -0.9800000 6.6100000 0.0750000
v -0.9800000 6.4300000 0.0750000
v -0.9050000 6.6100000 0.0000000
v -0.9800000 6.4300000 0.0750000
v -0.9050000 6.4300000 0.0000000
v -0.9800000 6.4300000 0.0000000
v -0.9050000 6.4300000 0.0000000
v -0.9800000 6.4300000 0.0750000
v -0.9800000 6.6100000 0.0000000
v -0.9800000 6.6100000 0.0750000
v -0.9050000 6.6100000 0.0000000
v -0.9800000 6.6100000 0.0750000
v -1.0550000 6.6100000 0.0000000
v -1.0550000 6.4300000 0.0000000
v -0.9800000 6.6100000 0.0750000
v -1.0550000 6.4300000 0.0000000
v -0.9800000 6.4300000 0.0750000
v -0.9800000 6.4300000 0.0000000
v -0.9800000 6.4300000 0.0750000
v -1.0550000 6.4300000 0.0000000
v -0.9800000 6.6100000 0.0000000
v -1.0550000 6.6100000 0.0000000
v -0.9800000 6.6100000 0.0750000
v -1.0550000 6.6100000 0.0000000
v -0.9800000 6.6100000 -0.0750000
v -0.9800000 6.4300000 -0.0750000
v -1.0550000 6.6100000 0.0000000
v -0.9800000 6.4300000 -0.0750000
v -1.0550000 6.4300000 0.0000000
v -0.9800000 6.4300000 0.0000000
v -1.0550000 6.4300000 0.0000000
v -0.9800000 6.4300000 -0.0750000
v -0.9800000 6.6100000 0.0000000
v -0.9800000 6.6100000 -0.0750000
v -1.0550000 6.6100000 0.0000000
v -0.9800000 6.6100000 -0.0750000
v -0.9050000 6.6100000 0.0000000
v -0.9050000 6.4300000 0.0000000
v -0.9800000 6.6100000 -0.0750000
v -0.9050000 6.4300000 0.0000000
v -0.9800000 6.4300000 -0.0750000
v -0.9800000 6.4300000 0.0000000
v -0.9800000 6.4300000 -0.0750000
v -0.9050000 6.4300000 0.0000000
v -0.9800000 6.6100000 0.0000000
v -0.9050000 6.6100000 0.0000000
v -0.9800000 6.6100000 -0.0750000
v 1.0550000 6.6100000 0.0000000
v 0.9800000 6.6100000 0.0750000
v 0.9800000 6.4300000 0.0750000
v 1.0550000 6.6100000 0.0000000
v 0.9800000 6.4300000 0.0750000
v 1.0550000 6.4300000 0.0000000
v 0.9800000 6.4300000 0.0000000
v 1.0550000 6.4300000 0.0000000
v 0.9800000 6.4300000 0.0750000
v 0.9800000 6.6100000 0.0000000
v 0.9800000 6.6100000 0.0750000
v 1.0550000 6.6100000 0.0000000
v 0.9800000 6.6100000 0.0750000
v 0.9050000 6.6100000 0.0000000
v 0.9050000 6.4300000 0.0000000
v 0.9800000 6.6100000 0.0750000
v 0.9050000 6.4300000 0.0000000
v 0.9800000 6.4300000 0.0750000
v 0.9800000 6.4300000 0.0000000
v 0.9800000 6.4300000 0.0750000
v 0.9050000 6.4300000 0.0000000
v 0.9800000 6.6100000 0.0000000
v 0.9050000 6.6100000 0.0000000
v 0.9800000 6.6100000 0.0750000
v 0.9050000 6.6100000 0.0000000
v 0.9800000 6.6100000 -0.0750000
v 0.9800000 6.4300000 -0.0750000
v 0.9050000 6.6100000 0.0000000
v 0.9800000 6.4300000 -0.0750000
v 0.9050000 6.4300000 0.0000000
v 0.9800000 6.4300000 0.0000000
v 0.9050000 6.4300000 0.0000000
v 0.9800000 6.4300000 -0.0750000
v 0.9800000 6.6100000 0.0000000
v 0.9800000 6.6100000 -0.0750000
v 0.9050000 6.6100000 0.0000000
v 0.9800000 6.6100000 -0.0750000
v 1.0550000 6.6100000 0.0000000
v 1.0550000 6.4300000 0.0000000
v 0.9800000 6.6100000 -0.0750000
v 1.0550000 6.4300000 0.0000000
v 0.9800000 6.4300000 -0.0750000
v 0.9800000 6.4300000 0.0000000
v 0.9800000 6.4300000 -0.0750000
v 1.0550000 6.4300000 0.0000000
v 0.9800000 6.6100000 0.0000000
v 1.0550000 6.6100000 0.0000000
v 0.9800000 6.6100000 -0.0750000
v -0.7200000 7.0450000 0.0550000
v -0.7200000 7.0450000 -0.0550000
v 0.7200000 7.0450000 -0.0550000
v -0.7200000 7.0450000 0.0550000
v 0.7200000 7.0450000 -0.0550000
v 0.7200000 7.0450000 0.0550000
v -0.7200000 7.0450000 -0.0550000
v -0.7200000 7.1550000 -0.0550000
v 0.7200000 7.1550000 -0.0550000
v -0.7200000 7.0450000 -0.0550000
v 0.7200000 7.1550000 -0.0550000
v 0.7200000 7.0450000 -0.0550000
v -0.7200000 7.1550000 -0.0550000
v -0.7200000 7.1550000 0.0550000
v 0.7200000 7.1550000 0.0550000
v -0.7200000 7.1550000 -0.0550000
v 0.7200000 7.1550000 0.0550000
v 0.7200000 7.1550000 -0.0550000
v -0.7200000 7.1550000 0.0550000
v -0.7200000 7.0450000 0.0550000
v 0.7200000 7.0450000 0.0550000
v -0.7200000 7.1550000 0.0550000
v 0.7200000 7.0450000 0.0550000
v 0.7200000 7.1550000 0.0550000
v -0.7200000 7.1550000 0.0550000
v -0.7200000 7.1550000 -0.0550000
v -0.7200000 7.0450000 -0.0550000
v -0.7200000 7.1550000 0.0550000
v -0.7200000 7.0450000 -0.0550000
v -0.7200000 7.0450000 0.0550000
v 0.7200000 7.0450000 0.0550000
v 0.7200000 7.0450000 -0.0550000
v 0.7200000 7.1550000 -0.0550000
v 0.7200000 7.0450000 0.0550000
v 0.7200000 7.1550000 -0.0550000
v 0.7200000 7.1550000 0.0550000
v -0.5250000 7.3100000 0.0000000
v -0.6000000 7.3100000 0.0750000
v -0.6000000 7.1300000 0.0750000
v -0.5250000 7.3100000 0.0000000
v -0.6000000 7.1300000 0.0750000
v -0.5250000 7.1300000 0.0000000
v -0.6000000 7.1300000 0.0000000
v -0.5250000 7.1300000 0.0000000
v -0.6000000 7.1300000 0.0750000
v -0.6000000 7.3100000 0.0000000
v -0.6000000 7.3100000 0.0750000
v -0.5250000 7.3100000 0.0000000
v -0.6000000 7.3100000 0.0750000
v -0.6750000 7.3100000 0.0000000
v -0.6750000 7.1300000 0.0000000
v -0.6000000 7.3100000 0.0750000
v -0.6750000 7.1300000 0.0000000
v -0.6000000 7.1300000 0.0750000
v -0.6000000 7.1300000 0.0000000
v -0.6000000 7.1300000 0.0750000
v -0.6750000 7.1300000 0.0000000
v -0.6000000 7.3100000 0.0000000
v -0.6750000 7.3100000 0.0000000
v -0.6000000 7.3100000 0.0750000
v -0.6750000 7.3100000 0.0000000
v -0.6000000 7.3100000 -0.0750000
v -0.6000000 7.1300000 -0.0750000
v -0.6750000 7.3100000 0.0000000
v -0.6000000 7.1300000 -0.0750000
v -0.6750000 7.1300000 0.0000000
v -0.6000000 7.1300000 0.0000000
v -0.6750000 7.1300000 0.0000000
v -0.6000000 7.1300000 -0.0750000
v -0.6000000 7.3100000 0.0000000
v -0.6000000 7.3100000 -0.0750000
v -0.6750000 7.3100000 0.0000000
v -0.6000000 7.3100000 -0.0750000
v -0.5250000 7.3100000 0.0000000
v -0.5250000 7.1300000 0.0000000
v -0.6000000 7.3100000 -0.0750000
v -0.5250000 7.1300000 0.0000000
v -0.6000000 7.1300000 -0.0750000
v -0.6000000 7.1300000 0.0000000
v -0.6000000 7.1300000 -0.0750000
v -0.5250000 7.1300000 0.0000000
v -0.6000000 7.3100000 0.0000000
v -0.5250000 7.3100000 0.0000000
v -0.6000000 7.3100000 -0.0750000
v 0.6750000 7.3100000 0.0000000
v 0.6000000 7.3100000 0.0750000
v 0.6000000 7.1300000 0.0750000
v 0.6750000 7.3100000 0.0000000
v 0.6000000 7.1300000 0.0750000
v 0.6750000 7.1300000 0.0000000
v 0.6000000 7.1300000 0.0000000
v 0.6750000 7.1300000 0.0000000
v 0.6000000 7.1300000 0.0750000
v 0.6000000 7.3100000 0.0000000
v 0.6000000 7.3100000 0.0750000
v 0.6750000 7.3100000 0.0000000
v 0.6000000 7.3100000 0.0750000
v 0.5250000 7.3100000 0.0000000
v 0.5250000 7.1300000 0.0000000
v 0.6000000 7.3100000 0.0750000
v 0.5250000 7.1300000 0.0000000
v 0.6000000 7.1300000 0.0750000
v 0.6000000 7.1300000 0.0000000
v 0.6000000 7.1300000 0.0750000
v 0.5250000 7.1300000 0.0000000
v 0.6000000 7.3100000 0.0000000
v 0.5250000 7.3100000 0.0000000
v 0.6000000 7.3100000 0.0750000
v 0.5250000 7.3100000 0.0000000
v 0.6000000 7.3100000 -0.0750000
v 0.6000000 7.1300000 -0.0750000
v 0.5250000 7.3100000 0.0000000
v 0.6000000 7.1300000 -0.0750000
v 0.5250000 7.1300000 0.0000000
v 0.6000000 7.1300000 0.0000000
v 0.5250000 7.1300000 0.0000000
v 0.6000000 7.1300000 -0.0750000
v 0.6000000 7.3100000 0.0000000
v 0.6000000 7.3100000 -0.0750000
v 0.5250000 7.3100000 0.0000000
v 0.6000000 7.3100000 -0.0750000
v 0.6750000 7.3100000 0.0000000
v 0.6750000 7.1300000 0.0000000
v 0.6000000 7.3100000 -0.0750000
v 0.6750000 7.1300000 0.0000000
v 0.6000000 7.1300000 -0.0750000
v 0.6000000 7.1300000 0.0000000
v 0.6000000 7.1300000 -0.0750000
v 0.6750000 7.1300000 0.0000000
v 0.6000000 7.3100000 0.0000000
v 0.6750000 7.3100000 0.0000000
v 0.6000000 7.3100000 -0.0750000
v -0.0950000 0.2300000 -0.1750000
v -0.0950000 0.4700000 -0.1750000
v 0.0950000 0.4700000 -0.1750000
v -0.0950000 0.2300000 -0.1750000
v 0.0950000 0.4700000 -0.1750000
v 0.0950000 0.2300000 -0.1750000
v -0.0950000 0.2300000 -0.1050000
v 0.0950000 0.2300000 -0.1050000
v 0.0950000 0.4700000 -0.1050000
v -0.0950000 0.2300000 -0.1050000
v 0.0950000 0.4700000 -0.1050000
v -0.0950000 0.4700000 -0.1050000
v -0.0950000 0.2300000 -0.1750000
v -0.0950000 0.2300000 -0.1050000
v -0.0950000 0.4700000 -0.1050000
v -0.0950000 0.2300000 -0.1750000
v -0.0950000 0.4700000 -0.1050000
v -0.0950000 0.4700000 -0.1750000
v 0.0950000 0.2300000 -0.1750000
v 0.0950000 0.4700000 -0.1750000
v 0.0950000 0.4700000 -0.1050000
v 0.0950000 0.2300000 -0.1750000
v 0.0950000 0.4700000 -0.1050000
v 0.0950000 0.2300000 -0.1050000
v -0.0950000 0.2300000 -0.1750000
v 0.0950000 0.2300000 -0.1750000
v 0.0950000 0.2300000 -0.1050000
v -0.0950000 0.2300000 -0.1750000
v 0.0950000 0.2300000 -0.1050000
v -0.0950000 0.2300000 -0.1050000
v -0.0950000 0.4700000 -0.1750000
v -0.0950000 0.4700000 -0.1050000
v 0.0950000 0.4700000 -0.1050000
v -0.0950000 0.4700000 -0.1750000
v 0.0950000 0.4700000 -0.1050000
v 0.0950000 0.4700000 -0.1750000
vn 0.8090090 0.0044329 0.5877795
vn 0.8090090 0.0044329 0.5877795
vn 0.0000000 -1.0000000 0.0000000
vn 0.0000000 1.0000000 0.0000000
vn -0.3090140 0.0044329 0.9510472
vn -0.3090140 0.0044329 0.9510472
vn 0.0000000 -1.0000000 0.0000000
vn 0.0000000 1.0000000 -0.0000000
vn -0.9999902 0.0044329 0.0000000
vn -0.9999902 0.0044329 0.0000000
vn -0.0000000 -1.0000000 0.0000000
vn 0.0000000 1.0000000 0.0000000
vn -0.3090140 0.0044329 -0.9510472
vn -0.3090140 0.0044329 -0.9510472
vn 0.0000000 -1.0000000 -0.0000000
vn 0.0000000 1.0000000 0.0000000
vn 0.8090090 0.0044329 -0.5877795
vn 0.8090090 0.0044329 -0.5877795
vn 0.0000000 -1.0000000 0.0000000
vn -0.0000000 1.0000000 0.0000000
vn 0.0000000 -1.0000000 0.0000000
vn 0.0000000 -1.0000000 0.0000000
vn 0.0000000 0.0000000 -1.0000000
vn 0.0000000 0.0000000 -1.0000000
vn 0.0000000 1.0000000 0.0000000
vn 0.0000000 1.0000000 0.0000000
vn 0.0000000 0.0000000 1.0000000
vn -0.0000000 0.0000000 1.0000000
vn -1.0000000 0.0000000 -0.0000000
vn -1.0000000 -0.0000000 0.0000000
vn 1.0000000 0.0000000 0.0000000
vn 1.0000000 -0.0000000 0.0000000
vn 0.7071068 0.0000000 0.7071068
vn 0.7071068 0.0000000 0.7071068
vn 0.0000000 -1.0000000 0.0000000
vn 0.0000000 1.0000000 0.0000000
vn -0.7071068 0.0000000 0.7071068
vn -0.7071068 0.0000000 0.7071068
vn 0.0000000 -1.0000000 0.0000000
vn 0.0000000 1.0000000 -0.0000000
vn -0.7071068 0.0000000 -0.7071068
vn -0.7071068 -0.0000000 -0.7071068
vn -0.0000000 -1.0000000 -0.0000000
vn 0.0000000 1.0000000 0.0000000
vn 0.7071068 0.0000000 -0.7071068
vn 0.7071068 0.0000000 -0.7071068
vn 0.0000000 -1.0000000 0.0000000
vn -0.0000000 1.0000000 0.0000000
vn 0.7071068 0.0000000 0.7071068
vn 0.7071068 0.0000000 0.7071068
vn 0.0000000 -1.0000000 0.0000000
vn 0.0000000 1.0000000 0.0000000
vn -0.7071068 0.0000000 0.7071068
vn -0.7071068 0.0000000 0.7071068
vn 0.0000000 -1.0000000 0.0000000
vn 0.0000000 1.0000000 -0.0000000
vn -0.7071068 0.0000000 -0.7071068
vn -0.7071068 -0.0000000 -0.7071068
vn -0.0000000 -1.0000000 -0.0000000
vn 0.0000000 1.0000000 0.0000000
vn 0.7071068 0.0000000 -0.7071068
vn 0.7071068 0.0000000 -0.7071068
vn 0.0000000 -1.0000000 0.0000000
vn -0.0000000 1.0000000 0.0000000
vn 0.0000000 -1.0000000 0.0000000
vn 0.0000000 -1.0000000 0.0000000
vn 0.0000000 0.0000000 -1.0000000
vn 0.0000000 0.0000000 -1.0000000
vn 0.0000000 1.0000000 0.0000000
vn 0.0000000 1.0000000 0.0000000
vn 0.0000000 0.0000000 1.0000000
vn -0.0000000 0.0000000 1.0000000
vn -1.0000000 0.0000000 -0.0000000
vn -1.0000000 -0.0000000 0.0000000
vn 1.0000000 0.0000000 0.0000000
vn 1.0000000 -0.0000000 0.0000000
vn 0.7071068 0.0000000 0.7071068
vn 0.7071068 0.0000000 0.7071068
vn 0.0000000 -1.0000000 0.0000000
vn 0.0000000 1.0000000 0.0000000
vn -0.7071068 0.0000000 0.7071068
vn -0.7071068 0.0000000 0.7071068
vn 0.0000000 -1.0000000 0.0000000
vn 0.0000000 1.0000000 -0.0000000
vn -0.7071068 0.0000000 -0.7071068
vn -0.7071068 -0.0000000 -0.7071068
vn -0.0000000 -1.0000000 -0.0000000
vn 0.0000000 1.0000000 0.0000000
vn 0.7071068 0.0000000 -0.7071068
vn 0.7071068 0.0000000 -0.7071068
vn 0.0000000 -1.0000000 0.0000000
vn -0.0000000 1.0000000 0.0000000
vn 0.7071068 0.0000000 0.7071068
vn 0.7071068 0.0000000 0.7071068
vn 0.0000000 -1.0000000 0.0000000
vn 0.0000000 1.0000000 0.0000000
vn -0.7071068 0.0000000 0.7071068
vn -0.7071068 0.0000000 0.7071068
vn 0.0000000 -1.0000000 0.0000000
vn 0.0000000 1.0000000 -0.0000000
vn -0.7071068 0.0000000 -0.7071068
vn -0.7071068 -0.0000000 -0.7071068
vn -0.0000000 -1.0000000 -0.0000000
vn 0.0000000 1.0000000 0.0000000
vn 0.7071068 0.0000000 -0.7071068
vn 0.7071068 0.0000000 -0.7071068
vn 0.0000000 -1.0000000 0.0000000
vn -0.0000000 1.0000000 0.0000000
vn 0.0000000 0.0000000 -1.0000000
vn 0.0000000 0.0000000 -1.0000000
vn 0.0000000 0.0000000 1.0000000
vn 0.0000000 0.0000000 1.0000000
vn -1.0000000 0.0000000 0.0000000
vn -1.0000000 0.0000000 0.0000000
vn 1.0000000 0.0000000 0.0000000
vn 1.0000000 0.0000000 0.0000000
vn 0.0000000 -1.0000000 0.0000000
vn 0.0000000 -1.0000000 0.0000000
vn 0.0000000 1.0000000 0.0000000
vn 0.0000000 1.0000000 0.0000000
usemtl concrete
f 1//1 2//1 3//1
usemtl concrete
f 4//2 5//2 6//2
usemtl concrete
f 7//3 8//3 9//3
usemtl concrete
f 10//4 11//4 12//4
usemtl concrete
f 13//5 14//5 15//5
usemtl concrete
f 16//6 17//6 18//6
usemtl concrete
f 19//7 20//7 21//7
usemtl concrete
f 22//8 23//8 24//8
usemtl concrete
f 25//9 26//9 27//9
usemtl concrete
f 28//10 29//10 30//10
usemtl concrete
f 31//11 32//11 33//11
usemtl concrete
f 34//12 35//12 36//12
usemtl concrete
f 37//13 38//13 39//13
usemtl concrete
f 40//14 41//14 42//14
usemtl concrete
f 43//15 44//15 45//15
usemtl concrete
f 46//16 47//16 48//16
usemtl concrete
f 49//17 50//17 51//17
usemtl concrete
f 52//18 53//18 54//18
usemtl concrete
f 55//19 56//19 57//19
usemtl concrete
f 58//20 59//20 60//20
usemtl steel_dark
f 61//21 62//21 63//21
usemtl steel_dark
f 64//22 65//22 66//22
usemtl steel_dark
f 67//23 68//23 69//23
usemtl steel_dark
f 70//24 71//24 72//24
usemtl steel_dark
f 73//25 74//25 75//25
usemtl steel_dark
f 76//26 77//26 78//26
usemtl steel_dark
f 79//27 80//27 81//27
usemtl steel_dark
f 82//28 83//28 84//28
usemtl steel_dark
f 85//29 86//29 87//29
usemtl steel_dark
f 88//30 89//30 90//30
usemtl steel_dark
f 91//31 92//31 93//31
usemtl steel_dark
f 94//32 95//32 96//32
usemtl insulator
f 97//33 98//33 99//33
usemtl insulator
f 100//34 101//34 102//34
usemtl insulator
f 103//35 104//35 105//35
usemtl insulator
f 106//36 107//36 108//36
usemtl insulator
f 109//37 110//37 111//37
usemtl insulator
f 112//38 113//38 114//38
usemtl insulator
f 115//39 116//39 117//39
usemtl insulator
f 118//40 119//40 120//40
usemtl insulator
f 121//41 122//41 123//41
usemtl insulator
f 124//42 125//42 126//42
usemtl insulator
f 127//43 128//43 129//43
usemtl insulator
f 130//44 131//44 132//44
usemtl insulator
f 133//45 134//45 135//45
usemtl insulator
f 136//46 137//46 138//46
usemtl insulator
f 139//47 140//47 141//47
usemtl insulator
f 142//48 143//48 144//48
usemtl insulator
f 145//49 146//49 147//49
usemtl insulator
f 148//50 149//50 150//50
usemtl insulator
f 151//51 152//51 153//51
usemtl insulator
f 154//52 155//52 156//52
usemtl insulator
f 157//53 158//53 159//53
usemtl insulator
f 160//54 161//54 162//54
usemtl insulator
f 163//55 164//55 165//55
usemtl insulator
f 166//56 167//56 168//56
usemtl insulator
f 169//57 170//57 171//57
usemtl insulator
f 172//58 173//58 174//58
usemtl insulator
f 175//59 176//59 177//59
usemtl insulator
f 178//60 179//60 180//60
usemtl insulator
f 181//61 182//61 183//61
usemtl insulator
f 184//62 185//62 186//62
usemtl insulator
f 187//63 188//63 189//63
usemtl insulator
f 190//64 191//64 192//64
usemtl steel_dark
f 193//65 194//65 195//65
usemtl steel_dark
f 196//66 197//66 198//66
usemtl steel_dark
f 199//67 200//67 201//67
usemtl steel_dark
f 202//68 203//68 204//68
usemtl steel_dark
f 205//69 206//69 207//69
usemtl steel_dark
f 208//70 209//70 210//70
usemtl steel_dark
f 211//71 212//71 213//71
usemtl steel_dark
f 214//72 215//72 216//72
usemtl steel_dark
f 217//73 218//73 219//73
usemtl steel_dark
f 220//74 221//74 222//74
usemtl steel_dark
f 223//75 224//75 225//75
usemtl steel_dark
f 226//76 227//76 228//76
usemtl insulator
f 229//77 230//77 231//77
usemtl insulator
f 232//78 233//78 234//78
usemtl insulator
f 235//79 236//79 237//79
usemtl insulator
f 238//80 239//80 240//80
usemtl insulator
f 241//81 242//81 243//81
usemtl insulator
f 244//82 245//82 246//82
usemtl insulator
f 247//83 248//83 249//83
usemtl insulator
f 250//84 251//84 252//84
usemtl insulator
f 253//85 254//85 255//85
usemtl insulator
f 256//86 257//86 258//86
usemtl insulator
f 259//87 260//87 261//87
usemtl insulator
f 262//88 263//88 264//88
usemtl insulator
f 265//89 266//89 267//89
usemtl insulator
f 268//90 269//90 270//90
usemtl insulator
f 271//91 272//91 273//91
usemtl insulator
f 274//92 275//92 276//92
usemtl insulator
f 277//93 278//93 279//93
usemtl insulator
f 280//94 281//94 282//94
usemtl insulator
f 283//95 284//95 285//95
usemtl insulator
f 286//96 287//96 288//96
usemtl insulator
f 289//97 290//97 291//97
usemtl insulator
f 292//98 293//98 294//98
usemtl insulator
f 295//99 296//99 297//99
usemtl insulator
f 298//100 299//100 300//100
usemtl insulator
f 301//101 302//101 303//101
usemtl insulator
f 304//102 305//102 306//102
usemtl insulator
f 307//103 308//103 309//103
usemtl insulator
f 310//104 311//104 312//104
usemtl insulator
f 313//105 314//105 315//105
usemtl insulator
f 316//106 317//106 318//106
usemtl insulator
f 319//107 320//107 321//107
usemtl insulator
f 322//108 323//108 324//108
usemtl steel_dark
f 325//109 326//109 327//109
usemtl steel_dark
f 328//110 329//110 330//110
usemtl steel_dark
f 331//111 332//111 333//111
usemtl steel_dark
f 334//112 335//112 336//112
usemtl steel_dark
f 337//113 338//113 339//113
usemtl steel_dark
f 340//114 341//114 342//114
usemtl steel_dark
f 343//115 344//115 345//115
usemtl steel_dark
f 346//116 347//116 348//116
usemtl steel_dark
f 349//117 350//117 351//117
usemtl steel_dark
f 352//118 353//118 354//118
usemtl steel_dark
f 355//119 356//119 357//119
usemtl steel_dark
f 358//120 359//120 360//120
