# Original Quiet Camp Ukrainian rural presentation asset
# Units: metres; Y up; no external geometry or textures
mtllib palette.mtl
o ua_sunflower_patch
v -0.5340243 0.0007459 -0.4787018
v -0.5340243 0.0007459 -0.4497018
v -0.4640243 1.3596744 -0.4497018
v -0.5340243 0.0007459 -0.4787018
v -0.4640243 1.3596744 -0.4497018
v -0.4640243 1.3596744 -0.4787018
v -0.5340243 0.0007459 -0.4497018
v -0.5050627 -0.0007459 -0.4497018
v -0.4350627 1.3581826 -0.4497018
v -0.5340243 0.0007459 -0.4497018
v -0.4350627 1.3581826 -0.4497018
v -0.4640243 1.3596744 -0.4497018
v -0.5050627 -0.0007459 -0.4497018
v -0.5050627 -0.0007459 -0.4787018
v -0.4350627 1.3581826 -0.4787018
v -0.5050627 -0.0007459 -0.4497018
v -0.4350627 1.3581826 -0.4787018
v -0.4350627 1.3581826 -0.4497018
v -0.5050627 -0.0007459 -0.4787018
v -0.5340243 0.0007459 -0.4787018
v -0.4640243 1.3596744 -0.4787018
v -0.5050627 -0.0007459 -0.4787018
v -0.4640243 1.3596744 -0.4787018
v -0.4350627 1.3581826 -0.4787018
v -0.4795435 0.7146857 -0.4642018
v -0.6076354 0.8790703 -0.5062018
v -0.6475435 0.8290214 -0.5062018
v -0.6076354 0.8790703 -0.5062018
v -0.7595435 0.8635785 -0.5342018
v -0.6475435 0.8290214 -0.5062018
v -0.4795435 0.7146857 -0.4642018
v -0.6475435 0.8290214 -0.5062018
v -0.6874515 0.7289724 -0.5062018
v -0.6874515 0.7289724 -0.5062018
v -0.6475435 0.8290214 -0.5062018
v -0.7595435 0.8635785 -0.5342018
v -0.4795435 0.7146857 -0.4642018
v -0.6475435 0.8290214 -0.5062018
v -0.6076354 0.8790703 -0.5062018
v -0.6076354 0.8790703 -0.5062018
v -0.6475435 0.8290214 -0.5062018
v -0.7595435 0.8635785 -0.5342018
v -0.4795435 0.7146857 -0.4642018
v -0.6874515 0.7289724 -0.5062018
v -0.6475435 0.8290214 -0.5062018
v -0.6874515 0.7289724 -0.5062018
v -0.7595435 0.8635785 -0.5342018
v -0.6475435 0.8290214 -0.5062018
v -0.4795435 0.7146857 -0.4642018
v -0.3087854 0.7358406 -0.5062018
v -0.3595435 0.8290214 -0.5062018
v -0.3087854 0.7358406 -0.5062018
v -0.2795435 0.8635785 -0.5342018
v -0.3595435 0.8290214 -0.5062018
v -0.4795435 0.7146857 -0.4642018
v -0.3595435 0.8290214 -0.5062018
v -0.4103016 0.8722021 -0.5062018
v -0.4103016 0.8722021 -0.5062018
v -0.3595435 0.8290214 -0.5062018
v -0.2795435 0.8635785 -0.5342018
v -0.4795435 0.7146857 -0.4642018
v -0.3595435 0.8290214 -0.5062018
v -0.3087854 0.7358406 -0.5062018
v -0.3087854 0.7358406 -0.5062018
v -0.3595435 0.8290214 -0.5062018
v -0.2795435 0.8635785 -0.5342018
v -0.4795435 0.7146857 -0.4642018
v -0.4103016 0.8722021 -0.5062018
v -0.3595435 0.8290214 -0.5062018
v -0.4103016 0.8722021 -0.5062018
v -0.2795435 0.8635785 -0.5342018
v -0.3595435 0.8290214 -0.5062018
v -0.3725435 1.3589285 -0.4892018
v -0.3213967 1.4013950 -0.4822018
v -0.2295435 1.3589285 -0.4642018
v -0.3725435 1.3589285 -0.4892018
v -0.2295435 1.3589285 -0.4642018
v -0.3213967 1.3164620 -0.4822018
v -0.4015348 1.4191295 -0.4892018
v -0.4028469 1.4855951 -0.4822018
v -0.3123757 1.5309314 -0.4642018
v -0.4015348 1.4191295 -0.4892018
v -0.3123757 1.5309314 -0.4642018
v -0.3364436 1.4326403 -0.4822018
v -0.4666776 1.4339979 -0.4892018
v -0.5194606 1.4744127 -0.4822018
v -0.4984981 1.5734126 -0.4642018
v -0.4666776 1.4339979 -0.4892018
v -0.4984981 1.5734126 -0.4642018
v -0.4366571 1.4933120 -0.4822018
v -0.5189181 1.3923375 -0.4892018
v -0.5834253 1.3762683 -0.4822018
v -0.6477566 1.4543829 -0.4642018
v -0.5189181 1.3923375 -0.4892018
v -0.6477566 1.4543829 -0.4642018
v -0.5465742 1.4527903 -0.4822018
v -0.5189181 1.3255194 -0.4892018
v -0.5465742 1.2650667 -0.4822018
v -0.6477566 1.2634741 -0.4642018
v -0.5189181 1.3255194 -0.4892018
v -0.6477566 1.2634741 -0.4642018
v -0.5834253 1.3415887 -0.4822018
v -0.4666776 1.2838590 -0.4892018
v -0.4366571 1.2245449 -0.4822018
v -0.4984981 1.1444443 -0.4642018
v -0.4666776 1.2838590 -0.4892018
v -0.4984981 1.1444443 -0.4642018
v -0.5194606 1.2434443 -0.4822018
v -0.4015348 1.2987275 -0.4892018
v -0.3364436 1.2852167 -0.4822018
v -0.3123757 1.1869256 -0.4642018
v -0.4015348 1.2987275 -0.4892018
v -0.3123757 1.1869256 -0.4642018
v -0.4028469 1.2322619 -0.4822018
v -0.4495435 1.3589285 -0.4992018
v -0.3921824 1.4308570 -0.4942018
v -0.3575435 1.3589285 -0.4942018
v -0.4495435 1.3589285 -0.4992018
v -0.4700154 1.4486219 -0.4942018
v -0.3921824 1.4308570 -0.4942018
v -0.4495435 1.3589285 -0.4992018
v -0.5324326 1.3988458 -0.4942018
v -0.4700154 1.4486219 -0.4942018
v -0.4495435 1.3589285 -0.4992018
v -0.5324326 1.3190112 -0.4942018
v -0.5324326 1.3988458 -0.4942018
v -0.4495435 1.3589285 -0.4992018
v -0.4700154 1.2692351 -0.4942018
v -0.5324326 1.3190112 -0.4942018
v -0.4495435 1.3589285 -0.4992018
v -0.3921824 1.2870000 -0.4942018
v -0.4700154 1.2692351 -0.4942018
v -0.4495435 1.3589285 -0.4992018
v -0.3575435 1.3589285 -0.4942018
v -0.3921824 1.2870000 -0.4942018
v 0.0559497 0.0007943 -0.4747024
v 0.0559497 0.0007943 -0.4457024
v 0.1259497 1.2767152 -0.4457024
v 0.0559497 0.0007943 -0.4747024
v 0.1259497 1.2767152 -0.4457024
v 0.1259497 1.2767152 -0.4747024
v 0.0559497 0.0007943 -0.4457024
v 0.0849061 -0.0007943 -0.4457024
v 0.1549061 1.2751266 -0.4457024
v 0.0559497 0.0007943 -0.4457024
v 0.1549061 1.2751266 -0.4457024
v 0.1259497 1.2767152 -0.4457024
v 0.0849061 -0.0007943 -0.4457024
v 0.0849061 -0.0007943 -0.4747024
v 0.1549061 1.2751266 -0.4747024
v 0.0849061 -0.0007943 -0.4457024
v 0.1549061 1.2751266 -0.4747024
v 0.1549061 1.2751266 -0.4457024
v 0.0849061 -0.0007943 -0.4747024
v 0.0559497 0.0007943 -0.4747024
v 0.1259497 1.2767152 -0.4747024
v 0.0849061 -0.0007943 -0.4747024
v 0.1259497 1.2767152 -0.4747024
v 0.1549061 1.2751266 -0.4747024
v 0.1104279 0.6748420 -0.4602024
v -0.0194305 0.8351592 -0.5022024
v -0.0575721 0.7841973 -0.5022024
v -0.0194305 0.8351592 -0.5022024
v -0.1695721 0.8154341 -0.5302024
v -0.0575721 0.7841973 -0.5022024
v 0.1104279 0.6748420 -0.4602024
v -0.0575721 0.7841973 -0.5022024
v -0.0957137 0.6832353 -0.5022024
v -0.0957137 0.6832353 -0.5022024
v -0.0575721 0.7841973 -0.5022024
v -0.1695721 0.8154341 -0.5302024
v 0.1104279 0.6748420 -0.4602024
v -0.0575721 0.7841973 -0.5022024
v -0.0194305 0.8351592 -0.5022024
v -0.0194305 0.8351592 -0.5022024
v -0.0575721 0.7841973 -0.5022024
v -0.1695721 0.8154341 -0.5302024
v 0.1104279 0.6748420 -0.4602024
v -0.0957137 0.6832353 -0.5022024
v -0.0575721 0.7841973 -0.5022024
v -0.0957137 0.6832353 -0.5022024
v -0.1695721 0.8154341 -0.5302024
v -0.0575721 0.7841973 -0.5022024
v 0.1104279 0.6748420 -0.4602024
v 0.2793103 0.6896594 -0.5022024
v 0.2304279 0.7841973 -0.5022024
v 0.2793103 0.6896594 -0.5022024
v 0.3104279 0.8154341 -0.5302024
v 0.2304279 0.7841973 -0.5022024
v 0.1104279 0.6748420 -0.4602024
v 0.2304279 0.7841973 -0.5022024
v 0.1815455 0.8287352 -0.5022024
v 0.1815455 0.8287352 -0.5022024
v 0.2304279 0.7841973 -0.5022024
v 0.3104279 0.8154341 -0.5302024
v 0.1104279 0.6748420 -0.4602024
v 0.2304279 0.7841973 -0.5022024
v 0.2793103 0.6896594 -0.5022024
v 0.2793103 0.6896594 -0.5022024
v 0.2304279 0.7841973 -0.5022024
v 0.3104279 0.8154341 -0.5302024
v 0.1104279 0.6748420 -0.4602024
v 0.1815455 0.8287352 -0.5022024
v 0.2304279 0.7841973 -0.5022024
v 0.1815455 0.8287352 -0.5022024
v 0.3104279 0.8154341 -0.5302024
v 0.2304279 0.7841973 -0.5022024
v 0.2174279 1.2759209 -0.4852024
v 0.2685747 1.3183874 -0.4782024
v 0.3604279 1.2759209 -0.4602024
v 0.2174279 1.2759209 -0.4852024
v 0.3604279 1.2759209 -0.4602024
v 0.2685747 1.2334544 -0.4782024
v 0.1884366 1.3361219 -0.4852024
v 0.1871245 1.4025875 -0.4782024
v 0.2775957 1.4479238 -0.4602024
v 0.1884366 1.3361219 -0.4852024
v 0.2775957 1.4479238 -0.4602024
v 0.2535278 1.3496327 -0.4782024
v 0.1232938 1.3509904 -0.4852024
v 0.0705108 1.3914051 -0.4782024
v 0.0914733 1.4904050 -0.4602024
v 0.1232938 1.3509904 -0.4852024
v 0.0914733 1.4904050 -0.4602024
v 0.1533143 1.4103045 -0.4782024
v 0.0710533 1.3093300 -0.4852024
v 0.0065461 1.2932607 -0.4782024
v -0.0577852 1.3713753 -0.4602024
v 0.0710533 1.3093300 -0.4852024
v -0.0577852 1.3713753 -0.4602024
v 0.0433972 1.3697827 -0.4782024
v 0.0710533 1.2425119 -0.4852024
v 0.0433972 1.1820591 -0.4782024
v -0.0577852 1.1804665 -0.4602024
v 0.0710533 1.2425119 -0.4852024
v -0.0577852 1.1804665 -0.4602024
v 0.0065461 1.2585811 -0.4782024
v 0.1232938 1.2008515 -0.4852024
v 0.1533143 1.1415374 -0.4782024
v 0.0914733 1.0614368 -0.4602024
v 0.1232938 1.2008515 -0.4852024
v 0.0914733 1.0614368 -0.4602024
v 0.0705108 1.1604367 -0.4782024
v 0.1884366 1.2157199 -0.4852024
v 0.2535278 1.2022091 -0.4782024
v 0.2775957 1.1039180 -0.4602024
v 0.1884366 1.2157199 -0.4852024
v 0.2775957 1.1039180 -0.4602024
v 0.1871245 1.1492543 -0.4782024
v 0.1404279 1.2759209 -0.4952024
v 0.1977890 1.3478494 -0.4902024
v 0.2324279 1.2759209 -0.4902024
v 0.1404279 1.2759209 -0.4952024
v 0.1199560 1.3656143 -0.4902024
v 0.1977890 1.3478494 -0.4902024
v 0.1404279 1.2759209 -0.4952024
v 0.0575388 1.3158382 -0.4902024
v 0.1199560 1.3656143 -0.4902024
v 0.1404279 1.2759209 -0.4952024
v 0.0575388 1.2360036 -0.4902024
v 0.0575388 1.3158382 -0.4902024
v 0.1404279 1.2759209 -0.4952024
v 0.1199560 1.1862275 -0.4902024
v 0.0575388 1.2360036 -0.4902024
v 0.1404279 1.2759209 -0.4952024
v 0.1977890 1.2039924 -0.4902024
v 0.1199560 1.1862275 -0.4902024
v 0.1404279 1.2759209 -0.4952024
v 0.2324279 1.2759209 -0.4902024
v 0.1977890 1.2039924 -0.4902024
v 0.3992037 0.0009497 -0.4783626
v 0.3992037 0.0009497 -0.4493626
v 0.4692037 1.0673799 -0.4493626
v 0.3992037 0.0009497 -0.4783626
v 0.4692037 1.0673799 -0.4493626
v 0.4692037 1.0673799 -0.4783626
v 0.3992037 0.0009497 -0.4493626
v 0.4281414 -0.0009497 -0.4493626
v 0.4981414 1.0654805 -0.4493626
v 0.3992037 0.0009497 -0.4493626
v 0.4981414 1.0654805 -0.4493626
v 0.4692037 1.0673799 -0.4493626
v 0.4281414 -0.0009497 -0.4493626
v 0.4281414 -0.0009497 -0.4783626
v 0.4981414 1.0654805 -0.4783626
v 0.4281414 -0.0009497 -0.4493626
v 0.4981414 1.0654805 -0.4783626
v 0.4981414 1.0654805 -0.4493626
v 0.4281414 -0.0009497 -0.4783626
v 0.3992037 0.0009497 -0.4783626
v 0.4692037 1.0673799 -0.4783626
v 0.4281414 -0.0009497 -0.4783626
v 0.4692037 1.0673799 -0.4783626
v 0.4981414 1.0654805 -0.4783626
v 0.4536725 0.5742865 -0.4638626
v 0.3190714 0.7242357 -0.5058626
v 0.2856725 0.6710723 -0.5058626
v 0.3190714 0.7242357 -0.5058626
v 0.1736725 0.6939295 -0.5338626
v 0.2856725 0.6710723 -0.5058626
v 0.4536725 0.5742865 -0.4638626
v 0.2856725 0.6710723 -0.5058626
v 0.2522736 0.5679089 -0.5058626
v 0.2522736 0.5679089 -0.5058626
v 0.2856725 0.6710723 -0.5058626
v 0.1736725 0.6939295 -0.5338626
v 0.4536725 0.5742865 -0.4638626
v 0.2856725 0.6710723 -0.5058626
v 0.3190714 0.7242357 -0.5058626
v 0.3190714 0.7242357 -0.5058626
v 0.2856725 0.6710723 -0.5058626
v 0.1736725 0.6939295 -0.5338626
v 0.4536725 0.5742865 -0.4638626
v 0.2522736 0.5679089 -0.5058626
v 0.2856725 0.6710723 -0.5058626
v 0.2522736 0.5679089 -0.5058626
v 0.1736725 0.6939295 -0.5338626
v 0.2856725 0.6710723 -0.5058626
v 0.4536725 0.5742865 -0.4638626
v 0.6173089 0.5731280 -0.5058626
v 0.5736725 0.6710723 -0.5058626
v 0.6173089 0.5731280 -0.5058626
v 0.6536725 0.6939295 -0.5338626
v 0.5736725 0.6710723 -0.5058626
v 0.4536725 0.5742865 -0.4638626
v 0.5736725 0.6710723 -0.5058626
v 0.5300361 0.7190166 -0.5058626
v 0.5300361 0.7190166 -0.5058626
v 0.5736725 0.6710723 -0.5058626
v 0.6536725 0.6939295 -0.5338626
v 0.4536725 0.5742865 -0.4638626
v 0.5736725 0.6710723 -0.5058626
v 0.6173089 0.5731280 -0.5058626
v 0.6173089 0.5731280 -0.5058626
v 0.5736725 0.6710723 -0.5058626
v 0.6536725 0.6939295 -0.5338626
v 0.4536725 0.5742865 -0.4638626
v 0.5300361 0.7190166 -0.5058626
v 0.5736725 0.6710723 -0.5058626
v 0.5300361 0.7190166 -0.5058626
v 0.6536725 0.6939295 -0.5338626
v 0.5736725 0.6710723 -0.5058626
v 0.5606725 1.0664302 -0.4888626
v 0.6118193 1.1088967 -0.4818626
v 0.7036725 1.0664302 -0.4638626
v 0.5606725 1.0664302 -0.4888626
v 0.7036725 1.0664302 -0.4638626
v 0.6118193 1.0239637 -0.4818626
v 0.5316812 1.1266312 -0.4888626
v 0.5303691 1.1930968 -0.4818626
v 0.6208403 1.2384331 -0.4638626
v 0.5316812 1.1266312 -0.4888626
v 0.6208403 1.2384331 -0.4638626
v 0.5967724 1.1401420 -0.4818626
v 0.4665384 1.1414996 -0.4888626
v 0.4137554 1.1819144 -0.4818626
v 0.4347179 1.2809143 -0.4638626
v 0.4665384 1.1414996 -0.4888626
v 0.4347179 1.2809143 -0.4638626
v 0.4965589 1.2008138 -0.4818626
v 0.4142979 1.0998392 -0.4888626
v 0.3497907 1.0837700 -0.4818626
v 0.2854594 1.1618846 -0.4638626
v 0.4142979 1.0998392 -0.4888626
v 0.2854594 1.1618846 -0.4638626
v 0.3866418 1.1602920 -0.4818626
v 0.4142979 1.0330211 -0.4888626
v 0.3866418 0.9725684 -0.4818626
v 0.2854594 0.9709758 -0.4638626
v 0.4142979 1.0330211 -0.4888626
v 0.2854594 0.9709758 -0.4638626
v 0.3497907 1.0490904 -0.4818626
v 0.4665384 0.9913607 -0.4888626
v 0.4965589 0.9320466 -0.4818626
v 0.4347179 0.8519461 -0.4638626
v 0.4665384 0.9913607 -0.4888626
v 0.4347179 0.8519461 -0.4638626
v 0.4137554 0.9509460 -0.4818626
v 0.5316812 1.0062292 -0.4888626
v 0.5967724 0.9927184 -0.4818626
v 0.6208403 0.8944273 -0.4638626
v 0.5316812 1.0062292 -0.4888626
v 0.6208403 0.8944273 -0.4638626
v 0.5303691 0.9397636 -0.4818626
v 0.4836725 1.0664302 -0.4988626
v 0.5410336 1.1383587 -0.4938626
v 0.5756725 1.0664302 -0.4938626
v 0.4836725 1.0664302 -0.4988626
v 0.4632006 1.1561236 -0.4938626
v 0.5410336 1.1383587 -0.4938626
v 0.4836725 1.0664302 -0.4988626
v 0.4007834 1.1063475 -0.4938626
v 0.4632006 1.1561236 -0.4938626
v 0.4836725 1.0664302 -0.4988626
v 0.4007834 1.0265129 -0.4938626
v 0.4007834 1.1063475 -0.4938626
v 0.4836725 1.0664302 -0.4988626
v 0.4632006 0.9767368 -0.4938626
v 0.4007834 1.0265129 -0.4938626
v 0.4836725 1.0664302 -0.4988626
v 0.5410336 0.9945017 -0.4938626
v 0.4632006 0.9767368 -0.4938626
v 0.4836725 1.0664302 -0.4988626
v 0.5756725 1.0664302 -0.4938626
v 0.5410336 0.9945017 -0.4938626
v -0.4760786 0.0008554 0.0517901
v -0.4760786 0.0008554 0.0807901
v -0.4060786 1.1853853 0.0807901
v -0.4760786 0.0008554 0.0517901
v -0.4060786 1.1853853 0.0807901
v -0.4060786 1.1853853 0.0517901
v -0.4760786 0.0008554 0.0807901
v -0.4471291 -0.0008554 0.0807901
v -0.3771291 1.1836745 0.0807901
v -0.4760786 0.0008554 0.0807901
v -0.3771291 1.1836745 0.0807901
v -0.4060786 1.1853853 0.0807901
v -0.4471291 -0.0008554 0.0807901
v -0.4471291 -0.0008554 0.0517901
v -0.3771291 1.1836745 0.0517901
v -0.4471291 -0.0008554 0.0807901
v -0.3771291 1.1836745 0.0517901
v -0.3771291 1.1836745 0.0807901
v -0.4471291 -0.0008554 0.0517901
v -0.4760786 0.0008554 0.0517901
v -0.4060786 1.1853853 0.0517901
v -0.4471291 -0.0008554 0.0517901
v -0.4060786 1.1853853 0.0517901
v -0.3771291 1.1836745 0.0517901
v -0.4216039 0.6309744 0.0662901
v -0.5534813 0.7867887 0.0242901
v -0.5896039 0.7348461 0.0242901
v -0.5534813 0.7867887 0.0242901
v -0.7016039 0.7624273 -0.0037099
v -0.5896039 0.7348461 0.0242901
v -0.4216039 0.6309744 0.0662901
v -0.5896039 0.7348461 0.0242901
v -0.6257265 0.6329036 0.0242901
v -0.6257265 0.6329036 0.0242901
v -0.5896039 0.7348461 0.0242901
v -0.7016039 0.7624273 -0.0037099
v -0.4216039 0.6309744 0.0662901
v -0.5896039 0.7348461 0.0242901
v -0.5534813 0.7867887 0.0242901
v -0.5534813 0.7867887 0.0242901
v -0.5896039 0.7348461 0.0242901
v -0.7016039 0.7624273 -0.0037099
v -0.4216039 0.6309744 0.0662901
v -0.6257265 0.6329036 0.0242901
v -0.5896039 0.7348461 0.0242901
v -0.6257265 0.6329036 0.0242901
v -0.7016039 0.7624273 -0.0037099
v -0.5896039 0.7348461 0.0242901
v -0.4216039 0.6309744 0.0662901
v -0.2549177 0.6388152 0.0242901
v -0.3016039 0.7348461 0.0242901
v -0.2549177 0.6388152 0.0242901
v -0.2216039 0.7624273 -0.0037099
v -0.3016039 0.7348461 0.0242901
v -0.4216039 0.6309744 0.0662901
v -0.3016039 0.7348461 0.0242901
v -0.3482901 0.7808771 0.0242901
v -0.3482901 0.7808771 0.0242901
v -0.3016039 0.7348461 0.0242901
v -0.2216039 0.7624273 -0.0037099
v -0.4216039 0.6309744 0.0662901
v -0.3016039 0.7348461 0.0242901
v -0.2549177 0.6388152 0.0242901
v -0.2549177 0.6388152 0.0242901
v -0.3016039 0.7348461 0.0242901
v -0.2216039 0.7624273 -0.0037099
v -0.4216039 0.6309744 0.0662901
v -0.3482901 0.7808771 0.0242901
v -0.3016039 0.7348461 0.0242901
v -0.3482901 0.7808771 0.0242901
v -0.2216039 0.7624273 -0.0037099
v -0.3016039 0.7348461 0.0242901
v -0.3146039 1.1845299 0.0412901
v -0.2634571 1.2269964 0.0482901
v -0.1716039 1.1845299 0.0662901
v -0.3146039 1.1845299 0.0412901
v -0.1716039 1.1845299 0.0662901
v -0.2634571 1.1420634 0.0482901
v -0.3435952 1.2447309 0.0412901
v -0.3449073 1.3111965 0.0482901
v -0.2544361 1.3565328 0.0662901
v -0.3435952 1.2447309 0.0412901
v -0.2544361 1.3565328 0.0662901
v -0.2785040 1.2582417 0.0482901
v -0.4087380 1.2595994 0.0412901
v -0.4615210 1.3000141 0.0482901
v -0.4405585 1.3990140 0.0662901
v -0.4087380 1.2595994 0.0412901
v -0.4405585 1.3990140 0.0662901
v -0.3787175 1.3189135 0.0482901
v -0.4609785 1.2179390 0.0412901
v -0.5254857 1.2018697 0.0482901
v -0.5898170 1.2799843 0.0662901
v -0.4609785 1.2179390 0.0412901
v -0.5898170 1.2799843 0.0662901
v -0.4886346 1.2783917 0.0482901
v -0.4609785 1.1511209 0.0412901
v -0.4886346 1.0906681 0.0482901
v -0.5898170 1.0890755 0.0662901
v -0.4609785 1.1511209 0.0412901
v -0.5898170 1.0890755 0.0662901
v -0.5254857 1.1671901 0.0482901
v -0.4087380 1.1094605 0.0412901
v -0.3787175 1.0501464 0.0482901
v -0.4405585 0.9700458 0.0662901
v -0.4087380 1.1094605 0.0412901
v -0.4405585 0.9700458 0.0662901
v -0.4615210 1.0690457 0.0482901
v -0.3435952 1.1243289 0.0412901
v -0.2785040 1.1108181 0.0482901
v -0.2544361 1.0125270 0.0662901
v -0.3435952 1.1243289 0.0412901
v -0.2544361 1.0125270 0.0662901
v -0.3449073 1.0578633 0.0482901
v -0.3916039 1.1845299 0.0312901
v -0.3342428 1.2564584 0.0362901
v -0.2996039 1.1845299 0.0362901
v -0.3916039 1.1845299 0.0312901
v -0.4120758 1.2742233 0.0362901
v -0.3342428 1.2564584 0.0362901
v -0.3916039 1.1845299 0.0312901
v -0.4744930 1.2244472 0.0362901
v -0.4120758 1.2742233 0.0362901
v -0.3916039 1.1845299 0.0312901
v -0.4744930 1.1446126 0.0362901
v -0.4744930 1.2244472 0.0362901
v -0.3916039 1.1845299 0.0312901
v -0.4120758 1.0948365 0.0362901
v -0.4744930 1.1446126 0.0362901
v -0.3916039 1.1845299 0.0312901
v -0.3342428 1.1126014 0.0362901
v -0.4120758 1.0948365 0.0362901
v -0.3916039 1.1845299 0.0312901
v -0.2996039 1.1845299 0.0362901
v -0.3342428 1.1126014 0.0362901
v -0.0190107 0.0009607 -0.0483593
v -0.0190107 0.0009607 -0.0193593
v 0.0509893 1.0551768 -0.0193593
v -0.0190107 0.0009607 -0.0483593
v 0.0509893 1.0551768 -0.0193593
v 0.0509893 1.0551768 -0.0483593
v -0.0190107 0.0009607 -0.0193593
v 0.0099256 -0.0009607 -0.0193593
v 0.0799256 1.0532555 -0.0193593
v -0.0190107 0.0009607 -0.0193593
v 0.0799256 1.0532555 -0.0193593
v 0.0509893 1.0551768 -0.0193593
v 0.0099256 -0.0009607 -0.0193593
v 0.0099256 -0.0009607 -0.0483593
v 0.0799256 1.0532555 -0.0483593
v 0.0099256 -0.0009607 -0.0193593
v 0.0799256 1.0532555 -0.0483593
v 0.0799256 1.0532555 -0.0193593
v 0.0099256 -0.0009607 -0.0483593
v -0.0190107 0.0009607 -0.0483593
v 0.0509893 1.0551768 -0.0483593
v 0.0099256 -0.0009607 -0.0483593
v 0.0509893 1.0551768 -0.0483593
v 0.0799256 1.0532555 -0.0483593
v 0.0354574 0.5684238 -0.0338593
v -0.0994326 0.7177629 -0.0758593
v -0.1325426 0.6644767 -0.0758593
v -0.0994326 0.7177629 -0.0758593
v -0.2445426 0.6868454 -0.1038593
v -0.1325426 0.6644767 -0.0758593
v 0.0354574 0.5684238 -0.0338593
v -0.1325426 0.6644767 -0.0758593
v -0.1656525 0.5611905 -0.0758593
v -0.1656525 0.5611905 -0.0758593
v -0.1325426 0.6644767 -0.0758593
v -0.2445426 0.6868454 -0.1038593
v 0.0354574 0.5684238 -0.0338593
v -0.1325426 0.6644767 -0.0758593
v -0.0994326 0.7177629 -0.0758593
v -0.0994326 0.7177629 -0.0758593
v -0.1325426 0.6644767 -0.0758593
v -0.2445426 0.6868454 -0.1038593
v 0.0354574 0.5684238 -0.0338593
v -0.1656525 0.5611905 -0.0758593
v -0.1325426 0.6644767 -0.0758593
v -0.1656525 0.5611905 -0.0758593
v -0.2445426 0.6868454 -0.1038593
v -0.1325426 0.6644767 -0.0758593
v 0.0354574 0.5684238 -0.0338593
v 0.1987644 0.5663364 -0.0758593
v 0.1554574 0.6644767 -0.0758593
v 0.1987644 0.5663364 -0.0758593
v 0.2354574 0.6868454 -0.1038593
v 0.1554574 0.6644767 -0.0758593
v 0.0354574 0.5684238 -0.0338593
v 0.1554574 0.6644767 -0.0758593
v 0.1121505 0.7126170 -0.0758593
v 0.1121505 0.7126170 -0.0758593
v 0.1554574 0.6644767 -0.0758593
v 0.2354574 0.6868454 -0.1038593
v 0.0354574 0.5684238 -0.0338593
v 0.1554574 0.6644767 -0.0758593
v 0.1987644 0.5663364 -0.0758593
v 0.1987644 0.5663364 -0.0758593
v 0.1554574 0.6644767 -0.0758593
v 0.2354574 0.6868454 -0.1038593
v 0.0354574 0.5684238 -0.0338593
v 0.1121505 0.7126170 -0.0758593
v 0.1554574 0.6644767 -0.0758593
v 0.1121505 0.7126170 -0.0758593
v 0.2354574 0.6868454 -0.1038593
v 0.1554574 0.6644767 -0.0758593
v 0.1424574 1.0542162 -0.0588593
v 0.1936042 1.0966826 -0.0518593
v 0.2854574 1.0542162 -0.0338593
v 0.1424574 1.0542162 -0.0588593
v 0.2854574 1.0542162 -0.0338593
v 0.1936042 1.0117497 -0.0518593
v 0.1134662 1.1144172 -0.0588593
v 0.1121540 1.1808828 -0.0518593
v 0.2026252 1.2262191 -0.0338593
v 0.1134662 1.1144172 -0.0588593
v 0.2026252 1.2262191 -0.0338593
v 0.1785573 1.1279279 -0.0518593
v 0.0483233 1.1292856 -0.0588593
v -0.0044597 1.1697004 -0.0518593
v 0.0165028 1.2687003 -0.0338593
v 0.0483233 1.1292856 -0.0588593
v 0.0165028 1.2687003 -0.0338593
v 0.0783439 1.1885997 -0.0518593
v -0.0039172 1.0876252 -0.0588593
v -0.0684243 1.0715560 -0.0518593
v -0.1327557 1.1496706 -0.0338593
v -0.0039172 1.0876252 -0.0588593
v -0.1327557 1.1496706 -0.0338593
v -0.0315733 1.1480779 -0.0518593
v -0.0039172 1.0208071 -0.0588593
v -0.0315733 0.9603544 -0.0518593
v -0.1327557 0.9587617 -0.0338593
v -0.0039172 1.0208071 -0.0588593
v -0.1327557 0.9587617 -0.0338593
v -0.0684243 1.0368763 -0.0518593
v 0.0483233 0.9791467 -0.0588593
v 0.0783439 0.9198326 -0.0518593
v 0.0165028 0.8397320 -0.0338593
v 0.0483233 0.9791467 -0.0588593
v 0.0165028 0.8397320 -0.0338593
v -0.0044597 0.9387320 -0.0518593
v 0.1134662 0.9940151 -0.0588593
v 0.1785573 0.9805044 -0.0518593
v 0.2026252 0.8822132 -0.0338593
v 0.1134662 0.9940151 -0.0588593
v 0.2026252 0.8822132 -0.0338593
v 0.1121540 0.9275496 -0.0518593
v 0.0654574 1.0542162 -0.0688593
v 0.1228185 1.1261447 -0.0638593
v 0.1574574 1.0542162 -0.0638593
v 0.0654574 1.0542162 -0.0688593
v 0.0449855 1.1439095 -0.0638593
v 0.1228185 1.1261447 -0.0638593
v 0.0654574 1.0542162 -0.0688593
v -0.0174317 1.0941335 -0.0638593
v 0.0449855 1.1439095 -0.0638593
v 0.0654574 1.0542162 -0.0688593
v -0.0174317 1.0142989 -0.0638593
v -0.0174317 1.0941335 -0.0638593
v 0.0654574 1.0542162 -0.0688593
v 0.0449855 0.9645228 -0.0638593
v -0.0174317 1.0142989 -0.0638593
v 0.0654574 1.0542162 -0.0688593
v 0.1228185 0.9822877 -0.0638593
v 0.0449855 0.9645228 -0.0638593
v 0.0654574 1.0542162 -0.0688593
v 0.1574574 1.0542162 -0.0638593
v 0.1228185 0.9822877 -0.0638593
v 0.4344451 0.0009075 -0.0527187
v 0.4344451 0.0009075 -0.0237187
v 0.5044451 1.1171956 -0.0237187
v 0.4344451 0.0009075 -0.0527187
v 0.5044451 1.1171956 -0.0237187
v 0.5044451 1.1171956 -0.0527187
v 0.4344451 0.0009075 -0.0237187
v 0.4633883 -0.0009075 -0.0237187
v 0.5333883 1.1153807 -0.0237187
v 0.4344451 0.0009075 -0.0237187
v 0.5333883 1.1153807 -0.0237187
v 0.5044451 1.1171956 -0.0237187
v 0.4633883 -0.0009075 -0.0237187
v 0.4633883 -0.0009075 -0.0527187
v 0.5333883 1.1153807 -0.0527187
v 0.4633883 -0.0009075 -0.0237187
v 0.5333883 1.1153807 -0.0527187
v 0.5333883 1.1153807 -0.0237187
v 0.4633883 -0.0009075 -0.0527187
v 0.4344451 0.0009075 -0.0527187
v 0.5044451 1.1171956 -0.0527187
v 0.4633883 -0.0009075 -0.0527187
v 0.5044451 1.1171956 -0.0527187
v 0.5333883 1.1153807 -0.0527187
v 0.4889167 0.5982183 -0.0382187
v 0.3554812 0.7506506 -0.0802187
v 0.3209167 0.6979956 -0.0802187
v 0.3554812 0.7506506 -0.0802187
v 0.2089167 0.7228471 -0.1082187
v 0.3209167 0.6979956 -0.0802187
v 0.4889167 0.5982183 -0.0382187
v 0.3209167 0.6979956 -0.0802187
v 0.2863523 0.5953406 -0.0802187
v 0.2863523 0.5953406 -0.0802187
v 0.3209167 0.6979956 -0.0802187
v 0.2089167 0.7228471 -0.1082187
v 0.4889167 0.5982183 -0.0382187
v 0.3209167 0.6979956 -0.0802187
v 0.3554812 0.7506506 -0.0802187
v 0.3554812 0.7506506 -0.0802187
v 0.3209167 0.6979956 -0.0802187
v 0.2089167 0.7228471 -0.1082187
v 0.4889167 0.5982183 -0.0382187
v 0.2863523 0.5953406 -0.0802187
v 0.3209167 0.6979956 -0.0802187
v 0.2863523 0.5953406 -0.0802187
v 0.2089167 0.7228471 -0.1082187
v 0.3209167 0.6979956 -0.0802187
v 0.4889167 0.5982183 -0.0382187
v 0.6538703 0.6008556 -0.0802187
v 0.6089167 0.6979956 -0.0802187
v 0.6538703 0.6008556 -0.0802187
v 0.6889167 0.7228471 -0.1082187
v 0.6089167 0.6979956 -0.0802187
v 0.4889167 0.5982183 -0.0382187
v 0.6089167 0.6979956 -0.0802187
v 0.5639631 0.7451356 -0.0802187
v 0.5639631 0.7451356 -0.0802187
v 0.6089167 0.6979956 -0.0802187
v 0.6889167 0.7228471 -0.1082187
v 0.4889167 0.5982183 -0.0382187
v 0.6089167 0.6979956 -0.0802187
v 0.6538703 0.6008556 -0.0802187
v 0.6538703 0.6008556 -0.0802187
v 0.6089167 0.6979956 -0.0802187
v 0.6889167 0.7228471 -0.1082187
v 0.4889167 0.5982183 -0.0382187
v 0.5639631 0.7451356 -0.0802187
v 0.6089167 0.6979956 -0.0802187
v 0.5639631 0.7451356 -0.0802187
v 0.6889167 0.7228471 -0.1082187
v 0.6089167 0.6979956 -0.0802187
v 0.5959167 1.1162882 -0.0632187
v 0.6470635 1.1587546 -0.0562187
v 0.7389167 1.1162882 -0.0382187
v 0.5959167 1.1162882 -0.0632187
v 0.7389167 1.1162882 -0.0382187
v 0.6470635 1.0738217 -0.0562187
v 0.5669254 1.1764892 -0.0632187
v 0.5656133 1.2429548 -0.0562187
v 0.6560845 1.2882911 -0.0382187
v 0.5669254 1.1764892 -0.0632187
v 0.6560845 1.2882911 -0.0382187
v 0.6320166 1.1899999 -0.0562187
v 0.5017826 1.1913576 -0.0632187
v 0.4489996 1.2317724 -0.0562187
v 0.4699621 1.3307723 -0.0382187
v 0.5017826 1.1913576 -0.0632187
v 0.4699621 1.3307723 -0.0382187
v 0.5318031 1.2506717 -0.0562187
v 0.4495421 1.1496972 -0.0632187
v 0.3850349 1.1336280 -0.0562187
v 0.3207036 1.2117426 -0.0382187
v 0.4495421 1.1496972 -0.0632187
v 0.3207036 1.2117426 -0.0382187
v 0.4218860 1.2101499 -0.0562187
v 0.4495421 1.0828791 -0.0632187
v 0.4218860 1.0224264 -0.0562187
v 0.3207036 1.0208337 -0.0382187
v 0.4495421 1.0828791 -0.0632187
v 0.3207036 1.0208337 -0.0382187
v 0.3850349 1.0989483 -0.0562187
v 0.5017826 1.0412187 -0.0632187
v 0.5318031 0.9819046 -0.0562187
v 0.4699621 0.9018040 -0.0382187
v 0.5017826 1.0412187 -0.0632187
v 0.4699621 0.9018040 -0.0382187
v 0.4489996 1.0008040 -0.0562187
v 0.5669254 1.0560871 -0.0632187
v 0.6320166 1.0425764 -0.0562187
v 0.6560845 0.9442852 -0.0382187
v 0.5669254 1.0560871 -0.0632187
v 0.6560845 0.9442852 -0.0382187
v 0.5656133 0.9896216 -0.0562187
v 0.5189167 1.1162882 -0.0732187
v 0.5762778 1.1882167 -0.0682187
v 0.6109167 1.1162882 -0.0682187
v 0.5189167 1.1162882 -0.0732187
v 0.4984448 1.2059815 -0.0682187
v 0.5762778 1.1882167 -0.0682187
v 0.5189167 1.1162882 -0.0732187
v 0.4360276 1.1562055 -0.0682187
v 0.4984448 1.2059815 -0.0682187
v 0.5189167 1.1162882 -0.0732187
v 0.4360276 1.0763709 -0.0682187
v 0.4360276 1.1562055 -0.0682187
v 0.5189167 1.1162882 -0.0732187
v 0.4984448 1.0265948 -0.0682187
v 0.4360276 1.0763709 -0.0682187
v 0.5189167 1.1162882 -0.0732187
v 0.5762778 1.0443597 -0.0682187
v 0.4984448 1.0265948 -0.0682187
v 0.5189167 1.1162882 -0.0732187
v 0.6109167 1.1162882 -0.0682187
v 0.5762778 1.0443597 -0.0682187
v -0.5172403 0.0007969 0.4731767
v -0.5172403 0.0007969 0.5021767
v -0.4472403 1.2725778 0.5021767
v -0.5172403 0.0007969 0.4731767
v -0.4472403 1.2725778 0.5021767
v -0.4472403 1.2725778 0.4731767
v -0.5172403 0.0007969 0.5021767
v -0.4882841 -0.0007969 0.5021767
v -0.4182841 1.2709840 0.5021767
v -0.5172403 0.0007969 0.5021767
v -0.4182841 1.2709840 0.5021767
v -0.4472403 1.2725778 0.5021767
v -0.4882841 -0.0007969 0.5021767
v -0.4882841 -0.0007969 0.4731767
v -0.4182841 1.2709840 0.4731767
v -0.4882841 -0.0007969 0.5021767
v -0.4182841 1.2709840 0.4731767
v -0.4182841 1.2709840 0.5021767
v -0.4882841 -0.0007969 0.4731767
v -0.5172403 0.0007969 0.4731767
v -0.4472403 1.2725778 0.4731767
v -0.4882841 -0.0007969 0.4731767
v -0.4472403 1.2725778 0.4731767
v -0.4182841 1.2709840 0.4731767
v -0.4627622 0.6728548 0.4876767
v -0.5927103 0.8329686 0.4456767
v -0.6307622 0.7819617 0.4456767
v -0.5927103 0.8329686 0.4456767
v -0.7427622 0.8130329 0.4176767
v -0.6307622 0.7819617 0.4456767
v -0.4627622 0.6728548 0.4876767
v -0.6307622 0.7819617 0.4456767
v -0.6688140 0.6809547 0.4456767
v -0.6688140 0.6809547 0.4456767
v -0.6307622 0.7819617 0.4456767
v -0.7427622 0.8130329 0.4176767
v -0.4627622 0.6728548 0.4876767
v -0.6307622 0.7819617 0.4456767
v -0.5927103 0.8329686 0.4456767
v -0.5927103 0.8329686 0.4456767
v -0.6307622 0.7819617 0.4456767
v -0.7427622 0.8130329 0.4176767
v -0.4627622 0.6728548 0.4876767
v -0.6688140 0.6809547 0.4456767
v -0.6307622 0.7819617 0.4456767
v -0.6688140 0.6809547 0.4456767
v -0.7427622 0.8130329 0.4176767
v -0.6307622 0.7819617 0.4456767
v -0.4627622 0.6728548 0.4876767
v -0.2939763 0.6873561 0.4456767
v -0.3427622 0.7819617 0.4456767
v -0.2939763 0.6873561 0.4456767
v -0.2627622 0.8130329 0.4176767
v -0.3427622 0.7819617 0.4456767
v -0.4627622 0.6728548 0.4876767
v -0.3427622 0.7819617 0.4456767
v -0.3915481 0.8265673 0.4456767
v -0.3915481 0.8265673 0.4456767
v -0.3427622 0.7819617 0.4456767
v -0.2627622 0.8130329 0.4176767
v -0.4627622 0.6728548 0.4876767
v -0.3427622 0.7819617 0.4456767
v -0.2939763 0.6873561 0.4456767
v -0.2939763 0.6873561 0.4456767
v -0.3427622 0.7819617 0.4456767
v -0.2627622 0.8130329 0.4176767
v -0.4627622 0.6728548 0.4876767
v -0.3915481 0.8265673 0.4456767
v -0.3427622 0.7819617 0.4456767
v -0.3915481 0.8265673 0.4456767
v -0.2627622 0.8130329 0.4176767
v -0.3427622 0.7819617 0.4456767
v -0.3557622 1.2717809 0.4626767
v -0.3046154 1.3142474 0.4696767
v -0.2127622 1.2717809 0.4876767
v -0.3557622 1.2717809 0.4626767
v -0.2127622 1.2717809 0.4876767
v -0.3046154 1.2293144 0.4696767
v -0.3847535 1.3319819 0.4626767
v -0.3860656 1.3984475 0.4696767
v -0.2955944 1.4437838 0.4876767
v -0.3847535 1.3319819 0.4626767
v -0.2955944 1.4437838 0.4876767
v -0.3196623 1.3454927 0.4696767
v -0.4498963 1.3468503 0.4626767
v -0.5026793 1.3872651 0.4696767
v -0.4817168 1.4862650 0.4876767
v -0.4498963 1.3468503 0.4626767
v -0.4817168 1.4862650 0.4876767
v -0.4198757 1.4061644 0.4696767
v -0.5021368 1.3051899 0.4626767
v -0.5666439 1.2891207 0.4696767
v -0.6309753 1.3672353 0.4876767
v -0.5021368 1.3051899 0.4626767
v -0.6309753 1.3672353 0.4876767
v -0.5297929 1.3656427 0.4696767
v -0.5021368 1.2383718 0.4626767
v -0.5297929 1.1779191 0.4696767
v -0.6309753 1.1763265 0.4876767
v -0.5021368 1.2383718 0.4626767
v -0.6309753 1.1763265 0.4876767
v -0.5666439 1.2544411 0.4696767
v -0.4498963 1.1967114 0.4626767
v -0.4198757 1.1373973 0.4696767
v -0.4817168 1.0572968 0.4876767
v -0.4498963 1.1967114 0.4626767
v -0.4817168 1.0572968 0.4876767
v -0.5026793 1.1562967 0.4696767
v -0.3847535 1.2115799 0.4626767
v -0.3196623 1.1980691 0.4696767
v -0.2955944 1.0997780 0.4876767
v -0.3847535 1.2115799 0.4626767
v -0.2955944 1.0997780 0.4876767
v -0.3860656 1.1451143 0.4696767
v -0.4327622 1.2717809 0.4526767
v -0.3754011 1.3437094 0.4576767
v -0.3407622 1.2717809 0.4576767
v -0.4327622 1.2717809 0.4526767
v -0.4532341 1.3614743 0.4576767
v -0.3754011 1.3437094 0.4576767
v -0.4327622 1.2717809 0.4526767
v -0.5156513 1.3116982 0.4576767
v -0.4532341 1.3614743 0.4576767
v -0.4327622 1.2717809 0.4526767
v -0.5156513 1.2318636 0.4576767
v -0.5156513 1.3116982 0.4576767
v -0.4327622 1.2717809 0.4526767
v -0.4532341 1.1820875 0.4576767
v -0.5156513 1.2318636 0.4576767
v -0.4327622 1.2717809 0.4526767
v -0.3754011 1.1998524 0.4576767
v -0.4532341 1.1820875 0.4576767
v -0.4327622 1.2717809 0.4526767
v -0.3407622 1.2717809 0.4576767
v -0.3754011 1.1998524 0.4576767
v -0.0816793 0.0008053 0.4710099
v -0.0816793 0.0008053 0.5000099
v -0.0116793 1.2592918 0.5000099
v -0.0816793 0.0008053 0.4710099
v -0.0116793 1.2592918 0.5000099
v -0.0116793 1.2592918 0.4710099
v -0.0816793 0.0008053 0.5000099
v -0.0527241 -0.0008053 0.5000099
v 0.0172759 1.2576812 0.5000099
v -0.0816793 0.0008053 0.5000099
v 0.0172759 1.2576812 0.5000099
v -0.0116793 1.2592918 0.5000099
v -0.0527241 -0.0008053 0.5000099
v -0.0527241 -0.0008053 0.4710099
v 0.0172759 1.2576812 0.4710099
v -0.0527241 -0.0008053 0.5000099
v 0.0172759 1.2576812 0.4710099
v 0.0172759 1.2576812 0.5000099
v -0.0527241 -0.0008053 0.4710099
v -0.0816793 0.0008053 0.4710099
v -0.0116793 1.2592918 0.4710099
v -0.0527241 -0.0008053 0.4710099
v -0.0116793 1.2592918 0.4710099
v 0.0172759 1.2576812 0.4710099
v -0.0272017 0.6664735 0.4855099
v -0.1574393 0.8259339 0.4435099
v -0.1952017 0.7747827 0.4435099
v -0.1574393 0.8259339 0.4435099
v -0.3072017 0.8053222 0.4155099
v -0.1952017 0.7747827 0.4435099
v -0.0272017 0.6664735 0.4855099
v -0.1952017 0.7747827 0.4435099
v -0.2329642 0.6736316 0.4435099
v -0.2329642 0.6736316 0.4435099
v -0.1952017 0.7747827 0.4435099
v -0.3072017 0.8053222 0.4155099
v -0.0272017 0.6664735 0.4855099
v -0.1952017 0.7747827 0.4435099
v -0.1574393 0.8259339 0.4435099
v -0.1574393 0.8259339 0.4435099
v -0.1952017 0.7747827 0.4435099
v -0.3072017 0.8053222 0.4155099
v -0.0272017 0.6664735 0.4855099
v -0.2329642 0.6736316 0.4435099
v -0.1952017 0.7747827 0.4435099
v -0.2329642 0.6736316 0.4435099
v -0.3072017 0.8053222 0.4155099
v -0.1952017 0.7747827 0.4435099
v -0.0272017 0.6664735 0.4855099
v 0.1412724 0.6799597 0.4435099
v 0.0927983 0.7747827 0.4435099
v 0.1412724 0.6799597 0.4435099
v 0.1727983 0.8053222 0.4155099
v 0.0927983 0.7747827 0.4435099
v -0.0272017 0.6664735 0.4855099
v 0.0927983 0.7747827 0.4435099
v 0.0443241 0.8196057 0.4435099
v 0.0443241 0.8196057 0.4435099
v 0.0927983 0.7747827 0.4435099
v 0.1727983 0.8053222 0.4155099
v -0.0272017 0.6664735 0.4855099
v 0.0927983 0.7747827 0.4435099
v 0.1412724 0.6799597 0.4435099
v 0.1412724 0.6799597 0.4435099
v 0.0927983 0.7747827 0.4435099
v 0.1727983 0.8053222 0.4155099
v -0.0272017 0.6664735 0.4855099
v 0.0443241 0.8196057 0.4435099
v 0.0927983 0.7747827 0.4435099
v 0.0443241 0.8196057 0.4435099
v 0.1727983 0.8053222 0.4155099
v 0.0927983 0.7747827 0.4435099
v 0.0797983 1.2584865 0.4605099
v 0.1309451 1.3009530 0.4675099
v 0.2227983 1.2584865 0.4855099
v 0.0797983 1.2584865 0.4605099
v 0.2227983 1.2584865 0.4855099
v 0.1309451 1.2160200 0.4675099
v 0.0508070 1.3186875 0.4605099
v 0.0494949 1.3851531 0.4675099
v 0.1399660 1.4304894 0.4855099
v 0.0508070 1.3186875 0.4605099
v 0.1399660 1.4304894 0.4855099
v 0.1158981 1.3321983 0.4675099
v -0.0143358 1.3335559 0.4605099
v -0.0671188 1.3739707 0.4675099
v -0.0461563 1.4729706 0.4855099
v -0.0143358 1.3335559 0.4605099
v -0.0461563 1.4729706 0.4855099
v 0.0156847 1.3928700 0.4675099
v -0.0665763 1.2918955 0.4605099
v -0.1310835 1.2758263 0.4675099
v -0.1954149 1.3539409 0.4855099
v -0.0665763 1.2918955 0.4605099
v -0.1954149 1.3539409 0.4855099
v -0.0942325 1.3523483 0.4675099
v -0.0665763 1.2250774 0.4605099
v -0.0942325 1.1646247 0.4675099
v -0.1954149 1.1630321 0.4855099
v -0.0665763 1.2250774 0.4605099
v -0.1954149 1.1630321 0.4855099
v -0.1310835 1.2411467 0.4675099
v -0.0143358 1.1834170 0.4605099
v 0.0156847 1.1241029 0.4675099
v -0.0461563 1.0440024 0.4855099
v -0.0143358 1.1834170 0.4605099
v -0.0461563 1.0440024 0.4855099
v -0.0671188 1.1430023 0.4675099
v 0.0508070 1.1982855 0.4605099
v 0.1158981 1.1847747 0.4675099
v 0.1399660 1.0864836 0.4855099
v 0.0508070 1.1982855 0.4605099
v 0.1399660 1.0864836 0.4855099
v 0.0494949 1.1318199 0.4675099
v 0.0027983 1.2584865 0.4505099
v 0.0601593 1.3304150 0.4555099
v 0.0947983 1.2584865 0.4555099
v 0.0027983 1.2584865 0.4505099
v -0.0176736 1.3481799 0.4555099
v 0.0601593 1.3304150 0.4555099
v 0.0027983 1.2584865 0.4505099
v -0.0800909 1.2984038 0.4555099
v -0.0176736 1.3481799 0.4555099
v 0.0027983 1.2584865 0.4505099
v -0.0800909 1.2185692 0.4555099
v -0.0800909 1.2984038 0.4555099
v 0.0027983 1.2584865 0.4505099
v -0.0176736 1.1687931 0.4555099
v -0.0800909 1.2185692 0.4555099
v 0.0027983 1.2584865 0.4505099
v 0.0601593 1.1865580 0.4555099
v -0.0176736 1.1687931 0.4555099
v 0.0027983 1.2584865 0.4505099
v 0.0947983 1.2584865 0.4555099
v 0.0601593 1.1865580 0.4555099
v 0.5057362 0.0008720 0.4326592
v 0.5057362 0.0008720 0.4616592
v 0.5757362 1.1628058 0.4616592
v 0.5057362 0.0008720 0.4326592
v 0.5757362 1.1628058 0.4616592
v 0.5757362 1.1628058 0.4326592
v 0.5057362 0.0008720 0.4616592
v 0.5346837 -0.0008720 0.4616592
v 0.6046837 1.1610619 0.4616592
v 0.5057362 0.0008720 0.4616592
v 0.6046837 1.1610619 0.4616592
v 0.5757362 1.1628058 0.4616592
v 0.5346837 -0.0008720 0.4616592
v 0.5346837 -0.0008720 0.4326592
v 0.6046837 1.1610619 0.4326592
v 0.5346837 -0.0008720 0.4616592
v 0.6046837 1.1610619 0.4326592
v 0.6046837 1.1610619 0.4616592
v 0.5346837 -0.0008720 0.4326592
v 0.5057362 0.0008720 0.4326592
v 0.5757362 1.1628058 0.4326592
v 0.5346837 -0.0008720 0.4326592
v 0.5757362 1.1628058 0.4326592
v 0.6046837 1.1610619 0.4326592
v 0.5602100 0.6201282 0.4471592
v 0.4278214 0.7748247 0.4051592
v 0.3922100 0.7226443 0.4051592
v 0.4278214 0.7748247 0.4051592
v 0.2802100 0.7493216 0.3771592
v 0.3922100 0.7226443 0.4051592
v 0.5602100 0.6201282 0.4471592
v 0.3922100 0.7226443 0.4051592
v 0.3565985 0.6204638 0.4051592
v 0.3565985 0.6204638 0.4051592
v 0.3922100 0.7226443 0.4051592
v 0.2802100 0.7493216 0.3771592
v 0.5602100 0.6201282 0.4471592
v 0.3922100 0.7226443 0.4051592
v 0.4278214 0.7748247 0.4051592
v 0.4278214 0.7748247 0.4051592
v 0.3922100 0.7226443 0.4051592
v 0.2802100 0.7493216 0.3771592
v 0.5602100 0.6201282 0.4471592
v 0.3565985 0.6204638 0.4051592
v 0.3922100 0.7226443 0.4051592
v 0.3565985 0.6204638 0.4051592
v 0.2802100 0.7493216 0.3771592
v 0.3922100 0.7226443 0.4051592
v 0.5602100 0.6201282 0.4471592
v 0.7263314 0.6262453 0.4051592
v 0.6802100 0.7226443 0.4051592
v 0.7263314 0.6262453 0.4051592
v 0.7602100 0.7493216 0.3771592
v 0.6802100 0.7226443 0.4051592
v 0.5602100 0.6201282 0.4471592
v 0.6802100 0.7226443 0.4051592
v 0.6340886 0.7690433 0.4051592
v 0.6340886 0.7690433 0.4051592
v 0.6802100 0.7226443 0.4051592
v 0.7602100 0.7493216 0.3771592
v 0.5602100 0.6201282 0.4471592
v 0.6802100 0.7226443 0.4051592
v 0.7263314 0.6262453 0.4051592
v 0.7263314 0.6262453 0.4051592
v 0.6802100 0.7226443 0.4051592
v 0.7602100 0.7493216 0.3771592
v 0.5602100 0.6201282 0.4471592
v 0.6340886 0.7690433 0.4051592
v 0.6802100 0.7226443 0.4051592
v 0.6340886 0.7690433 0.4051592
v 0.7602100 0.7493216 0.3771592
v 0.6802100 0.7226443 0.4051592
v 0.6672100 1.1619338 0.4221592
v 0.7183568 1.2044003 0.4291592
v 0.8102100 1.1619338 0.4471592
v 0.6672100 1.1619338 0.4221592
v 0.8102100 1.1619338 0.4471592
v 0.7183568 1.1194674 0.4291592
v 0.6382187 1.2221349 0.4221592
v 0.6369066 1.2886005 0.4291592
v 0.7273777 1.3339368 0.4471592
v 0.6382187 1.2221349 0.4221592
v 0.7273777 1.3339368 0.4471592
v 0.7033098 1.2356456 0.4291592
v 0.5730759 1.2370033 0.4221592
v 0.5202929 1.2774180 0.4291592
v 0.5412554 1.3764180 0.4471592
v 0.5730759 1.2370033 0.4221592
v 0.5412554 1.3764180 0.4471592
v 0.6030964 1.2963174 0.4291592
v 0.5208354 1.1953429 0.4221592
v 0.4563282 1.1792737 0.4291592
v 0.3919968 1.2573883 0.4471592
v 0.5208354 1.1953429 0.4221592
v 0.3919968 1.2573883 0.4471592
v 0.4931792 1.2557956 0.4291592
v 0.5208354 1.1285248 0.4221592
v 0.4931792 1.0680721 0.4291592
v 0.3919968 1.0664794 0.4471592
v 0.5208354 1.1285248 0.4221592
v 0.3919968 1.0664794 0.4471592
v 0.4563282 1.1445940 0.4291592
v 0.5730759 1.0868644 0.4221592
v 0.6030964 1.0275503 0.4291592
v 0.5412554 0.9474497 0.4471592
v 0.5730759 1.0868644 0.4221592
v 0.5412554 0.9474497 0.4471592
v 0.5202929 1.0464497 0.4291592
v 0.6382187 1.1017328 0.4221592
v 0.7033098 1.0882221 0.4291592
v 0.7273777 0.9899309 0.4471592
v 0.6382187 1.1017328 0.4221592
v 0.7273777 0.9899309 0.4471592
v 0.6369066 1.0352672 0.4291592
v 0.5902100 1.1619338 0.4121592
v 0.6475710 1.2338623 0.4171592
v 0.6822100 1.1619338 0.4171592
v 0.5902100 1.1619338 0.4121592
v 0.5697381 1.2516272 0.4171592
v 0.6475710 1.2338623 0.4171592
v 0.5902100 1.1619338 0.4121592
v 0.5073208 1.2018512 0.4171592
v 0.5697381 1.2516272 0.4171592
v 0.5902100 1.1619338 0.4121592
v 0.5073208 1.1220165 0.4171592
v 0.5073208 1.2018512 0.4171592
v 0.5902100 1.1619338 0.4121592
v 0.5697381 1.0722405 0.4171592
v 0.5073208 1.1220165 0.4171592
v 0.5902100 1.1619338 0.4121592
v 0.6475710 1.0900054 0.4171592
v 0.5697381 1.0722405 0.4171592
v 0.5902100 1.1619338 0.4121592
v 0.6822100 1.1619338 0.4171592
v 0.6475710 1.0900054 0.4171592
vn -0.9986759 0.0514430 0.0000000
vn -0.9986759 0.0514430 0.0000000
vn 0.0000000 0.0000000 1.0000000
vn 0.0000000 0.0000000 1.0000000
vn 0.9986759 -0.0514430 0.0000000
vn 0.9986759 -0.0514430 0.0000000
vn 0.0000000 0.0000000 -1.0000000
vn 0.0000000 0.0000000 -1.0000000
vn -0.1586837 0.1265312 0.9791881
vn -0.1943408 0.1549635 0.9686165
vn -0.1923602 0.0767296 0.9783201
vn -0.2164733 0.0863480 0.9724625
vn 0.1586837 -0.1265312 -0.9791881
vn 0.1943408 -0.1549635 -0.9686165
vn 0.1923602 -0.0767296 -0.9783201
vn 0.2164733 -0.0863480 -0.9724625
vn 0.2228686 0.1214027 0.9672595
vn 0.2696441 0.1468826 0.9516919
vn 0.1599835 0.1880575 0.9690406
vn 0.2185315 0.2568795 0.9414122
vn -0.2228686 -0.1214027 -0.9672595
vn -0.2696441 -0.1468826 -0.9516919
vn -0.1599835 -0.1880575 -0.9690406
vn -0.2185315 -0.2568795 -0.9414122
vn 0.1720388 -0.0449954 -0.9840620
vn 0.1720388 0.0449954 -0.9840620
vn 0.1424433 0.1064512 -0.9840620
vn 0.0720856 0.1625595 -0.9840620
vn 0.0055851 0.1777379 -0.9840620
vn -0.0821495 0.1577130 -0.9840620
vn -0.1354788 0.1151843 -0.9840620
vn -0.1745244 0.0341054 -0.9840620
vn -0.1745244 -0.0341054 -0.9840620
vn -0.1354788 -0.1151843 -0.9840620
vn -0.0821495 -0.1577130 -0.9840620
vn 0.0055851 -0.1777379 -0.9840620
vn 0.0720856 -0.1625595 -0.9840620
vn 0.1424433 -0.1064512 -0.9840620
vn 0.0542492 0.0261250 -0.9981856
vn 0.0133985 0.0587024 -0.9981856
vn -0.0375416 0.0470757 -0.9981856
vn -0.0602121 0.0000000 -0.9981856
vn -0.0375416 -0.0470757 -0.9981856
vn 0.0133985 -0.0587024 -0.9981856
vn 0.0542492 -0.0261250 -0.9981856
vn -0.9984985 0.0547800 0.0000000
vn -0.9984985 0.0547800 0.0000000
vn 0.0000000 0.0000000 1.0000000
vn 0.0000000 0.0000000 1.0000000
vn 0.9984985 -0.0547800 0.0000000
vn 0.9984985 -0.0547800 0.0000000
vn 0.0000000 0.0000000 -1.0000000
vn 0.0000000 0.0000000 -1.0000000
vn -0.1645167 0.1231297 0.9786590
vn -0.2002528 0.1498758 0.9682128
vn -0.1961943 0.0741187 0.9777598
vn -0.2198361 0.0830501 0.9719952
vn 0.1645167 -0.1231297 -0.9786590
vn 0.2002528 -0.1498758 -0.9682128
vn 0.1961943 -0.0741187 -0.9777598
vn 0.2198361 -0.0830501 -0.9719952
vn 0.2298021 0.1188230 0.9659566
vn 0.2767165 0.1430809 0.9502399
vn 0.1693607 0.1858813 0.9678663
vn 0.2302425 0.2527018 0.9397501
vn -0.2298021 -0.1188230 -0.9659566
vn -0.2767165 -0.1430809 -0.9502399
vn -0.1693607 -0.1858813 -0.9678663
vn -0.2302425 -0.2527018 -0.9397501
vn 0.1720388 -0.0449954 -0.9840620
vn 0.1720388 0.0449954 -0.9840620
vn 0.1424433 0.1064512 -0.9840620
vn 0.0720856 0.1625595 -0.9840620
vn 0.0055851 0.1777379 -0.9840620
vn -0.0821495 0.1577130 -0.9840620
vn -0.1354788 0.1151843 -0.9840620
vn -0.1745244 0.0341054 -0.9840620
vn -0.1745244 -0.0341054 -0.9840620
vn -0.1354788 -0.1151843 -0.9840620
vn -0.0821495 -0.1577130 -0.9840620
vn 0.0055851 -0.1777379 -0.9840620
vn 0.0720856 -0.1625595 -0.9840620
vn 0.1424433 -0.1064512 -0.9840620
vn 0.0542492 0.0261250 -0.9981856
vn 0.0133985 0.0587024 -0.9981856
vn -0.0375416 0.0470757 -0.9981856
vn -0.0602121 0.0000000 -0.9981856
vn -0.0375416 -0.0470757 -0.9981856
vn 0.0133985 -0.0587024 -0.9981856
vn 0.0542492 -0.0261250 -0.9981856
vn -0.9978527 0.0654986 0.0000000
vn -0.9978527 0.0654986 0.0000000
vn 0.0000000 0.0000000 1.0000000
vn 0.0000000 0.0000000 1.0000000
vn 0.9978527 -0.0654986 0.0000000
vn 0.9978527 -0.0654986 0.0000000
vn 0.0000000 0.0000000 -1.0000000
vn 0.0000000 0.0000000 -1.0000000
vn -0.1793964 0.1127025 0.9772999
vn -0.2143711 0.1346748 0.9674232
vn -0.2057168 0.0666004 0.9763427
vn -0.2276910 0.0737145 0.9709392
vn 0.1793964 -0.1127025 -0.9772999
vn 0.2143711 -0.1346748 -0.9674232
vn 0.2057168 -0.0666004 -0.9763427
vn 0.2276910 -0.0737145 -0.9709392
vn 0.2478217 0.1104101 0.9624936
vn 0.2939617 0.1309665 0.9468022
vn 0.1947150 0.1772194 0.9647172
vn 0.2600321 0.2366676 0.9361473
vn -0.2478217 -0.1104101 -0.9624936
vn -0.2939617 -0.1309665 -0.9468022
vn -0.1947150 -0.1772194 -0.9647172
vn -0.2600321 -0.2366676 -0.9361473
vn 0.1720388 -0.0449954 -0.9840620
vn 0.1720388 0.0449954 -0.9840620
vn 0.1424433 0.1064512 -0.9840620
vn 0.0720856 0.1625595 -0.9840620
vn 0.0055851 0.1777379 -0.9840620
vn -0.0821495 0.1577130 -0.9840620
vn -0.1354788 0.1151843 -0.9840620
vn -0.1745244 0.0341054 -0.9840620
vn -0.1745244 -0.0341054 -0.9840620
vn -0.1354788 -0.1151843 -0.9840620
vn -0.0821495 -0.1577130 -0.9840620
vn 0.0055851 -0.1777379 -0.9840620
vn 0.0720856 -0.1625595 -0.9840620
vn 0.1424433 -0.1064512 -0.9840620
vn 0.0542492 0.0261250 -0.9981856
vn 0.0133985 0.0587024 -0.9981856
vn -0.0375416 0.0470757 -0.9981856
vn -0.0602121 0.0000000 -0.9981856
vn -0.0375416 -0.0470757 -0.9981856
vn 0.0133985 -0.0587024 -0.9981856
vn 0.0542492 -0.0261250 -0.9981856
vn -0.9982584 0.0589923 0.0000000
vn -0.9982584 0.0589923 0.0000000
vn 0.0000000 0.0000000 1.0000000
vn 0.0000000 0.0000000 1.0000000
vn 0.9982584 -0.0589923 0.0000000
vn 0.9982584 -0.0589923 0.0000000
vn 0.0000000 0.0000000 -1.0000000
vn 0.0000000 0.0000000 -1.0000000
vn -0.1709941 0.1189150 0.9780696
vn -0.2065783 0.1436615 0.9678258
vn -0.2003842 0.0710047 0.9771410
vn -0.2233850 0.0791549 0.9715110
vn 0.1709941 -0.1189150 -0.9780696
vn 0.2065783 -0.1436615 -0.9678258
vn 0.2003842 -0.0710047 -0.9771410
vn 0.2233850 -0.0791549 -0.9715110
vn 0.2375860 0.1155042 0.9644748
vn 0.2843775 0.1382522 0.9486916
vn 0.1801376 0.1827016 0.9665250
vn 0.2432593 0.2467218 0.9380582
vn -0.2375860 -0.1155042 -0.9644748
vn -0.2843775 -0.1382522 -0.9486916
vn -0.1801376 -0.1827016 -0.9665250
vn -0.2432593 -0.2467218 -0.9380582
vn 0.1720388 -0.0449954 -0.9840620
vn 0.1720388 0.0449954 -0.9840620
vn 0.1424433 0.1064512 -0.9840620
vn 0.0720856 0.1625595 -0.9840620
vn 0.0055851 0.1777379 -0.9840620
vn -0.0821495 0.1577130 -0.9840620
vn -0.1354788 0.1151843 -0.9840620
vn -0.1745244 0.0341054 -0.9840620
vn -0.1745244 -0.0341054 -0.9840620
vn -0.1354788 -0.1151843 -0.9840620
vn -0.0821495 -0.1577130 -0.9840620
vn 0.0055851 -0.1777379 -0.9840620
vn 0.0720856 -0.1625595 -0.9840620
vn 0.1424433 -0.1064512 -0.9840620
vn 0.0542492 0.0261250 -0.9981856
vn 0.0133985 0.0587024 -0.9981856
vn -0.0375416 0.0470757 -0.9981856
vn -0.0602121 0.0000000 -0.9981856
vn -0.0375416 -0.0470757 -0.9981856
vn 0.0133985 -0.0587024 -0.9981856
vn 0.0542492 -0.0261250 -0.9981856
vn -0.9978028 0.0662541 0.0000000
vn -0.9978028 0.0662541 0.0000000
vn 0.0000000 0.0000000 1.0000000
vn 0.0000000 0.0000000 1.0000000
vn 0.9978028 -0.0662541 0.0000000
vn 0.9978028 -0.0662541 0.0000000
vn 0.0000000 0.0000000 -1.0000000
vn 0.0000000 0.0000000 -1.0000000
vn -0.1802644 0.1120091 0.9772199
vn -0.2151477 0.1336842 0.9673883
vn -0.2062613 0.0661201 0.9762604
vn -0.2281162 0.0731260 0.9708839
vn 0.1802644 -0.1120091 -0.9772199
vn 0.2151477 -0.1336842 -0.9673883
vn 0.2062613 -0.0661201 -0.9762604
vn 0.2281162 -0.0731260 -0.9708839
vn 0.2488884 0.1098285 0.9622849
vn 0.2949262 0.1301439 0.9466156
vn 0.1962610 0.1765562 0.9645255
vn 0.2617503 0.2354702 0.9359704
vn -0.2488884 -0.1098285 -0.9622849
vn -0.2949262 -0.1301439 -0.9466156
vn -0.1962610 -0.1765562 -0.9645255
vn -0.2617503 -0.2354702 -0.9359704
vn 0.1720388 -0.0449954 -0.9840620
vn 0.1720388 0.0449954 -0.9840620
vn 0.1424433 0.1064512 -0.9840620
vn 0.0720856 0.1625595 -0.9840620
vn 0.0055851 0.1777379 -0.9840620
vn -0.0821495 0.1577130 -0.9840620
vn -0.1354788 0.1151843 -0.9840620
vn -0.1745244 0.0341054 -0.9840620
vn -0.1745244 -0.0341054 -0.9840620
vn -0.1354788 -0.1151843 -0.9840620
vn -0.0821495 -0.1577130 -0.9840620
vn 0.0055851 -0.1777379 -0.9840620
vn 0.0720856 -0.1625595 -0.9840620
vn 0.1424433 -0.1064512 -0.9840620
vn 0.0542492 0.0261250 -0.9981856
vn 0.0133985 0.0587024 -0.9981856
vn -0.0375416 0.0470757 -0.9981856
vn -0.0602121 0.0000000 -0.9981856
vn -0.0375416 -0.0470757 -0.9981856
vn 0.0133985 -0.0587024 -0.9981856
vn 0.0542492 -0.0261250 -0.9981856
vn -0.9980396 0.0625849 0.0000000
vn -0.9980396 0.0625849 0.0000000
vn 0.0000000 0.0000000 1.0000000
vn 0.0000000 0.0000000 1.0000000
vn 0.9980396 -0.0625849 0.0000000
vn 0.9980396 -0.0625849 0.0000000
vn 0.0000000 0.0000000 -1.0000000
vn 0.0000000 0.0000000 -1.0000000
vn -0.1758492 0.1154332 0.9776258
vn -0.2111411 0.1385999 0.9675792
vn -0.2034793 0.0685125 0.9766792
vn -0.2259148 0.0760667 0.9711727
vn 0.1758492 -0.1154332 -0.9776258
vn 0.2111411 -0.1385999 -0.9675792
vn 0.2034793 -0.0685125 -0.9766792
vn 0.2259148 -0.0760667 -0.9711727
vn 0.2434809 0.1126760 0.9633385
vn 0.2899686 0.1341892 0.9475819
vn 0.1884763 0.1797347 0.9654906
vn 0.2529778 0.2412446 0.9369116
vn -0.2434809 -0.1126760 -0.9633385
vn -0.2899686 -0.1341892 -0.9475819
vn -0.1884763 -0.1797347 -0.9654906
vn -0.2529778 -0.2412446 -0.9369116
vn 0.1720388 -0.0449954 -0.9840620
vn 0.1720388 0.0449954 -0.9840620
vn 0.1424433 0.1064512 -0.9840620
vn 0.0720856 0.1625595 -0.9840620
vn 0.0055851 0.1777379 -0.9840620
vn -0.0821495 0.1577130 -0.9840620
vn -0.1354788 0.1151843 -0.9840620
vn -0.1745244 0.0341054 -0.9840620
vn -0.1745244 -0.0341054 -0.9840620
vn -0.1354788 -0.1151843 -0.9840620
vn -0.0821495 -0.1577130 -0.9840620
vn 0.0055851 -0.1777379 -0.9840620
vn 0.0720856 -0.1625595 -0.9840620
vn 0.1424433 -0.1064512 -0.9840620
vn 0.0542492 0.0261250 -0.9981856
vn 0.0133985 0.0587024 -0.9981856
vn -0.0375416 0.0470757 -0.9981856
vn -0.0602121 0.0000000 -0.9981856
vn -0.0375416 -0.0470757 -0.9981856
vn 0.0133985 -0.0587024 -0.9981856
vn 0.0542492 -0.0261250 -0.9981856
vn -0.9984887 0.0549577 0.0000000
vn -0.9984887 0.0549577 0.0000000
vn 0.0000000 0.0000000 1.0000000
vn 0.0000000 0.0000000 1.0000000
vn 0.9984887 -0.0549577 0.0000000
vn 0.9984887 -0.0549577 0.0000000
vn 0.0000000 0.0000000 -1.0000000
vn 0.0000000 0.0000000 -1.0000000
vn -0.1648090 0.1229496 0.9786324
vn -0.2005439 0.1496082 0.9681939
vn -0.1963850 0.0739831 0.9777318
vn -0.2200005 0.0828796 0.9719726
vn 0.1648090 -0.1229496 -0.9786324
vn 0.2005439 -0.1496082 -0.9681939
vn 0.1963850 -0.0739831 -0.9777318
vn 0.2200005 -0.0828796 -0.9719726
vn 0.2301516 0.1186838 0.9658905
vn 0.2770669 0.1428769 0.9501685
vn 0.1698389 0.1857557 0.9678066
vn 0.2308303 0.2524630 0.9396700
vn -0.2301516 -0.1186838 -0.9658905
vn -0.2770669 -0.1428769 -0.9501685
vn -0.1698389 -0.1857557 -0.9678066
vn -0.2308303 -0.2524630 -0.9396700
vn 0.1720388 -0.0449954 -0.9840620
vn 0.1720388 0.0449954 -0.9840620
vn 0.1424433 0.1064512 -0.9840620
vn 0.0720856 0.1625595 -0.9840620
vn 0.0055851 0.1777379 -0.9840620
vn -0.0821495 0.1577130 -0.9840620
vn -0.1354788 0.1151843 -0.9840620
vn -0.1745244 0.0341054 -0.9840620
vn -0.1745244 -0.0341054 -0.9840620
vn -0.1354788 -0.1151843 -0.9840620
vn -0.0821495 -0.1577130 -0.9840620
vn 0.0055851 -0.1777379 -0.9840620
vn 0.0720856 -0.1625595 -0.9840620
vn 0.1424433 -0.1064512 -0.9840620
vn 0.0542492 0.0261250 -0.9981856
vn 0.0133985 0.0587024 -0.9981856
vn -0.0375416 0.0470757 -0.9981856
vn -0.0602121 0.0000000 -0.9981856
vn -0.0375416 -0.0470757 -0.9981856
vn 0.0133985 -0.0587024 -0.9981856
vn 0.0542492 -0.0261250 -0.9981856
vn -0.9984567 0.0555365 0.0000000
vn -0.9984567 0.0555365 0.0000000
vn 0.0000000 0.0000000 1.0000000
vn 0.0000000 0.0000000 1.0000000
vn 0.9984567 -0.0555365 0.0000000
vn 0.9984567 -0.0555365 0.0000000
vn 0.0000000 0.0000000 -1.0000000
vn 0.0000000 0.0000000 -1.0000000
vn -0.1657488 0.1223644 0.9785470
vn -0.2014760 0.1487401 0.9681342
vn -0.1969967 0.0735442 0.9776418
vn -0.2205263 0.0823284 0.9719003
vn 0.1657488 -0.1223644 -0.9785470
vn 0.2014760 -0.1487401 -0.9681342
vn 0.1969967 -0.0735442 -0.9776418
vn 0.2205263 -0.0823284 -0.9719003
vn 0.2312758 0.1182297 0.9656776
vn 0.2781902 0.1422127 0.9499399
vn 0.1713807 0.1853408 0.9676143
vn 0.2327196 0.2516762 0.9394151
vn -0.2312758 -0.1182297 -0.9656776
vn -0.2781902 -0.1422127 -0.9499399
vn -0.1713807 -0.1853408 -0.9676143
vn -0.2327196 -0.2516762 -0.9394151
vn 0.1720388 -0.0449954 -0.9840620
vn 0.1720388 0.0449954 -0.9840620
vn 0.1424433 0.1064512 -0.9840620
vn 0.0720856 0.1625595 -0.9840620
vn 0.0055851 0.1777379 -0.9840620
vn -0.0821495 0.1577130 -0.9840620
vn -0.1354788 0.1151843 -0.9840620
vn -0.1745244 0.0341054 -0.9840620
vn -0.1745244 -0.0341054 -0.9840620
vn -0.1354788 -0.1151843 -0.9840620
vn -0.0821495 -0.1577130 -0.9840620
vn 0.0055851 -0.1777379 -0.9840620
vn 0.0720856 -0.1625595 -0.9840620
vn 0.1424433 -0.1064512 -0.9840620
vn 0.0542492 0.0261250 -0.9981856
vn 0.0133985 0.0587024 -0.9981856
vn -0.0375416 0.0470757 -0.9981856
vn -0.0602121 0.0000000 -0.9981856
vn -0.0375416 -0.0470757 -0.9981856
vn 0.0133985 -0.0587024 -0.9981856
vn 0.0542492 -0.0261250 -0.9981856
vn -0.9981902 0.0601354 0.0000000
vn -0.9981902 0.0601354 0.0000000
vn 0.0000000 0.0000000 1.0000000
vn 0.0000000 0.0000000 1.0000000
vn 0.9981902 -0.0601354 0.0000000
vn 0.9981902 -0.0601354 0.0000000
vn 0.0000000 0.0000000 -1.0000000
vn 0.0000000 0.0000000 -1.0000000
vn -0.1726009 0.1177944 0.9779230
vn -0.2081059 0.1420254 0.9677400
vn -0.2014127 0.0701954 0.9769880
vn -0.2242347 0.0781492 0.9713967
vn 0.1726009 -0.1177944 -0.9779230
vn 0.2081059 -0.1420254 -0.9677400
vn 0.2014127 -0.0701954 -0.9769880
vn 0.2242347 -0.0781492 -0.9713967
vn 0.2395310 0.1146019 0.9641013
vn 0.2862431 0.1369509 0.9483192
vn 0.1828720 0.1817779 0.9661856
vn 0.2464816 0.2450069 0.9376665
vn -0.2395310 -0.1146019 -0.9641013
vn -0.2862431 -0.1369509 -0.9483192
vn -0.1828720 -0.1817779 -0.9661856
vn -0.2464816 -0.2450069 -0.9376665
vn 0.1720388 -0.0449954 -0.9840620
vn 0.1720388 0.0449954 -0.9840620
vn 0.1424433 0.1064512 -0.9840620
vn 0.0720856 0.1625595 -0.9840620
vn 0.0055851 0.1777379 -0.9840620
vn -0.0821495 0.1577130 -0.9840620
vn -0.1354788 0.1151843 -0.9840620
vn -0.1745244 0.0341054 -0.9840620
vn -0.1745244 -0.0341054 -0.9840620
vn -0.1354788 -0.1151843 -0.9840620
vn -0.0821495 -0.1577130 -0.9840620
vn 0.0055851 -0.1777379 -0.9840620
vn 0.0720856 -0.1625595 -0.9840620
vn 0.1424433 -0.1064512 -0.9840620
vn 0.0542492 0.0261250 -0.9981856
vn 0.0133985 0.0587024 -0.9981856
vn -0.0375416 0.0470757 -0.9981856
vn -0.0602121 0.0000000 -0.9981856
vn -0.0375416 -0.0470757 -0.9981856
vn 0.0133985 -0.0587024 -0.9981856
vn 0.0542492 -0.0261250 -0.9981856
usemtl leaf_dark
f 1//1 2//1 3//1
usemtl leaf_dark
f 4//2 5//2 6//2
usemtl leaf_dark
f 7//3 8//3 9//3
usemtl leaf_dark
f 10//4 11//4 12//4
usemtl leaf_dark
f 13//5 14//5 15//5
usemtl leaf_dark
f 16//6 17//6 18//6
usemtl leaf_dark
f 19//7 20//7 21//7
usemtl leaf_dark
f 22//8 23//8 24//8
usemtl leaf
f 25//9 26//9 27//9
usemtl leaf
f 28//10 29//10 30//10
usemtl leaf
f 31//11 32//11 33//11
usemtl leaf
f 34//12 35//12 36//12
usemtl leaf
f 37//13 38//13 39//13
usemtl leaf
f 40//14 41//14 42//14
usemtl leaf
f 43//15 44//15 45//15
usemtl leaf
f 46//16 47//16 48//16
usemtl leaf
f 49//17 50//17 51//17
usemtl leaf
f 52//18 53//18 54//18
usemtl leaf
f 55//19 56//19 57//19
usemtl leaf
f 58//20 59//20 60//20
usemtl leaf
f 61//21 62//21 63//21
usemtl leaf
f 64//22 65//22 66//22
usemtl leaf
f 67//23 68//23 69//23
usemtl leaf
f 70//24 71//24 72//24
usemtl sunflower
f 73//25 74//25 75//25
usemtl sunflower
f 76//26 77//26 78//26
usemtl sunflower
f 79//27 80//27 81//27
usemtl sunflower
f 82//28 83//28 84//28
usemtl sunflower
f 85//29 86//29 87//29
usemtl sunflower
f 88//30 89//30 90//30
usemtl sunflower
f 91//31 92//31 93//31
usemtl sunflower
f 94//32 95//32 96//32
usemtl sunflower
f 97//33 98//33 99//33
usemtl sunflower
f 100//34 101//34 102//34
usemtl sunflower
f 103//35 104//35 105//35
usemtl sunflower
f 106//36 107//36 108//36
usemtl sunflower
f 109//37 110//37 111//37
usemtl sunflower
f 112//38 113//38 114//38
usemtl seed
f 115//39 116//39 117//39
usemtl seed
f 118//40 119//40 120//40
usemtl seed
f 121//41 122//41 123//41
usemtl seed
f 124//42 125//42 126//42
usemtl seed
f 127//43 128//43 129//43
usemtl seed
f 130//44 131//44 132//44
usemtl seed
f 133//45 134//45 135//45
usemtl leaf_dark
f 136//46 137//46 138//46
usemtl leaf_dark
f 139//47 140//47 141//47
usemtl leaf_dark
f 142//48 143//48 144//48
usemtl leaf_dark
f 145//49 146//49 147//49
usemtl leaf_dark
f 148//50 149//50 150//50
usemtl leaf_dark
f 151//51 152//51 153//51
usemtl leaf_dark
f 154//52 155//52 156//52
usemtl leaf_dark
f 157//53 158//53 159//53
usemtl leaf
f 160//54 161//54 162//54
usemtl leaf
f 163//55 164//55 165//55
usemtl leaf
f 166//56 167//56 168//56
usemtl leaf
f 169//57 170//57 171//57
usemtl leaf
f 172//58 173//58 174//58
usemtl leaf
f 175//59 176//59 177//59
usemtl leaf
f 178//60 179//60 180//60
usemtl leaf
f 181//61 182//61 183//61
usemtl leaf
f 184//62 185//62 186//62
usemtl leaf
f 187//63 188//63 189//63
usemtl leaf
f 190//64 191//64 192//64
usemtl leaf
f 193//65 194//65 195//65
usemtl leaf
f 196//66 197//66 198//66
usemtl leaf
f 199//67 200//67 201//67
usemtl leaf
f 202//68 203//68 204//68
usemtl leaf
f 205//69 206//69 207//69
usemtl sunflower
f 208//70 209//70 210//70
usemtl sunflower
f 211//71 212//71 213//71
usemtl sunflower
f 214//72 215//72 216//72
usemtl sunflower
f 217//73 218//73 219//73
usemtl sunflower
f 220//74 221//74 222//74
usemtl sunflower
f 223//75 224//75 225//75
usemtl sunflower
f 226//76 227//76 228//76
usemtl sunflower
f 229//77 230//77 231//77
usemtl sunflower
f 232//78 233//78 234//78
usemtl sunflower
f 235//79 236//79 237//79
usemtl sunflower
f 238//80 239//80 240//80
usemtl sunflower
f 241//81 242//81 243//81
usemtl sunflower
f 244//82 245//82 246//82
usemtl sunflower
f 247//83 248//83 249//83
usemtl seed
f 250//84 251//84 252//84
usemtl seed
f 253//85 254//85 255//85
usemtl seed
f 256//86 257//86 258//86
usemtl seed
f 259//87 260//87 261//87
usemtl seed
f 262//88 263//88 264//88
usemtl seed
f 265//89 266//89 267//89
usemtl seed
f 268//90 269//90 270//90
usemtl leaf_dark
f 271//91 272//91 273//91
usemtl leaf_dark
f 274//92 275//92 276//92
usemtl leaf_dark
f 277//93 278//93 279//93
usemtl leaf_dark
f 280//94 281//94 282//94
usemtl leaf_dark
f 283//95 284//95 285//95
usemtl leaf_dark
f 286//96 287//96 288//96
usemtl leaf_dark
f 289//97 290//97 291//97
usemtl leaf_dark
f 292//98 293//98 294//98
usemtl leaf
f 295//99 296//99 297//99
usemtl leaf
f 298//100 299//100 300//100
usemtl leaf
f 301//101 302//101 303//101
usemtl leaf
f 304//102 305//102 306//102
usemtl leaf
f 307//103 308//103 309//103
usemtl leaf
f 310//104 311//104 312//104
usemtl leaf
f 313//105 314//105 315//105
usemtl leaf
f 316//106 317//106 318//106
usemtl leaf
f 319//107 320//107 321//107
usemtl leaf
f 322//108 323//108 324//108
usemtl leaf
f 325//109 326//109 327//109
usemtl leaf
f 328//110 329//110 330//110
usemtl leaf
f 331//111 332//111 333//111
usemtl leaf
f 334//112 335//112 336//112
usemtl leaf
f 337//113 338//113 339//113
usemtl leaf
f 340//114 341//114 342//114
usemtl sunflower
f 343//115 344//115 345//115
usemtl sunflower
f 346//116 347//116 348//116
usemtl sunflower
f 349//117 350//117 351//117
usemtl sunflower
f 352//118 353//118 354//118
usemtl sunflower
f 355//119 356//119 357//119
usemtl sunflower
f 358//120 359//120 360//120
usemtl sunflower
f 361//121 362//121 363//121
usemtl sunflower
f 364//122 365//122 366//122
usemtl sunflower
f 367//123 368//123 369//123
usemtl sunflower
f 370//124 371//124 372//124
usemtl sunflower
f 373//125 374//125 375//125
usemtl sunflower
f 376//126 377//126 378//126
usemtl sunflower
f 379//127 380//127 381//127
usemtl sunflower
f 382//128 383//128 384//128
usemtl seed
f 385//129 386//129 387//129
usemtl seed
f 388//130 389//130 390//130
usemtl seed
f 391//131 392//131 393//131
usemtl seed
f 394//132 395//132 396//132
usemtl seed
f 397//133 398//133 399//133
usemtl seed
f 400//134 401//134 402//134
usemtl seed
f 403//135 404//135 405//135
usemtl leaf_dark
f 406//136 407//136 408//136
usemtl leaf_dark
f 409//137 410//137 411//137
usemtl leaf_dark
f 412//138 413//138 414//138
usemtl leaf_dark
f 415//139 416//139 417//139
usemtl leaf_dark
f 418//140 419//140 420//140
usemtl leaf_dark
f 421//141 422//141 423//141
usemtl leaf_dark
f 424//142 425//142 426//142
usemtl leaf_dark
f 427//143 428//143 429//143
usemtl leaf
f 430//144 431//144 432//144
usemtl leaf
f 433//145 434//145 435//145
usemtl leaf
f 436//146 437//146 438//146
usemtl leaf
f 439//147 440//147 441//147
usemtl leaf
f 442//148 443//148 444//148
usemtl leaf
f 445//149 446//149 447//149
usemtl leaf
f 448//150 449//150 450//150
usemtl leaf
f 451//151 452//151 453//151
usemtl leaf
f 454//152 455//152 456//152
usemtl leaf
f 457//153 458//153 459//153
usemtl leaf
f 460//154 461//154 462//154
usemtl leaf
f 463//155 464//155 465//155
usemtl leaf
f 466//156 467//156 468//156
usemtl leaf
f 469//157 470//157 471//157
usemtl leaf
f 472//158 473//158 474//158
usemtl leaf
f 475//159 476//159 477//159
usemtl sunflower
f 478//160 479//160 480//160
usemtl sunflower
f 481//161 482//161 483//161
usemtl sunflower
f 484//162 485//162 486//162
usemtl sunflower
f 487//163 488//163 489//163
usemtl sunflower
f 490//164 491//164 492//164
usemtl sunflower
f 493//165 494//165 495//165
usemtl sunflower
f 496//166 497//166 498//166
usemtl sunflower
f 499//167 500//167 501//167
usemtl sunflower
f 502//168 503//168 504//168
usemtl sunflower
f 505//169 506//169 507//169
usemtl sunflower
f 508//170 509//170 510//170
usemtl sunflower
f 511//171 512//171 513//171
usemtl sunflower
f 514//172 515//172 516//172
usemtl sunflower
f 517//173 518//173 519//173
usemtl seed
f 520//174 521//174 522//174
usemtl seed
f 523//175 524//175 525//175
usemtl seed
f 526//176 527//176 528//176
usemtl seed
f 529//177 530//177 531//177
usemtl seed
f 532//178 533//178 534//178
usemtl seed
f 535//179 536//179 537//179
usemtl seed
f 538//180 539//180 540//180
usemtl leaf_dark
f 541//181 542//181 543//181
usemtl leaf_dark
f 544//182 545//182 546//182
usemtl leaf_dark
f 547//183 548//183 549//183
usemtl leaf_dark
f 550//184 551//184 552//184
usemtl leaf_dark
f 553//185 554//185 555//185
usemtl leaf_dark
f 556//186 557//186 558//186
usemtl leaf_dark
f 559//187 560//187 561//187
usemtl leaf_dark
f 562//188 563//188 564//188
usemtl leaf
f 565//189 566//189 567//189
usemtl leaf
f 568//190 569//190 570//190
usemtl leaf
f 571//191 572//191 573//191
usemtl leaf
f 574//192 575//192 576//192
usemtl leaf
f 577//193 578//193 579//193
usemtl leaf
f 580//194 581//194 582//194
usemtl leaf
f 583//195 584//195 585//195
usemtl leaf
f 586//196 587//196 588//196
usemtl leaf
f 589//197 590//197 591//197
usemtl leaf
f 592//198 593//198 594//198
usemtl leaf
f 595//199 596//199 597//199
usemtl leaf
f 598//200 599//200 600//200
usemtl leaf
f 601//201 602//201 603//201
usemtl leaf
f 604//202 605//202 606//202
usemtl leaf
f 607//203 608//203 609//203
usemtl leaf
f 610//204 611//204 612//204
usemtl sunflower
f 613//205 614//205 615//205
usemtl sunflower
f 616//206 617//206 618//206
usemtl sunflower
f 619//207 620//207 621//207
usemtl sunflower
f 622//208 623//208 624//208
usemtl sunflower
f 625//209 626//209 627//209
usemtl sunflower
f 628//210 629//210 630//210
usemtl sunflower
f 631//211 632//211 633//211
usemtl sunflower
f 634//212 635//212 636//212
usemtl sunflower
f 637//213 638//213 639//213
usemtl sunflower
f 640//214 641//214 642//214
usemtl sunflower
f 643//215 644//215 645//215
usemtl sunflower
f 646//216 647//216 648//216
usemtl sunflower
f 649//217 650//217 651//217
usemtl sunflower
f 652//218 653//218 654//218
usemtl seed
f 655//219 656//219 657//219
usemtl seed
f 658//220 659//220 660//220
usemtl seed
f 661//221 662//221 663//221
usemtl seed
f 664//222 665//222 666//222
usemtl seed
f 667//223 668//223 669//223
usemtl seed
f 670//224 671//224 672//224
usemtl seed
f 673//225 674//225 675//225
usemtl leaf_dark
f 676//226 677//226 678//226
usemtl leaf_dark
f 679//227 680//227 681//227
usemtl leaf_dark
f 682//228 683//228 684//228
usemtl leaf_dark
f 685//229 686//229 687//229
usemtl leaf_dark
f 688//230 689//230 690//230
usemtl leaf_dark
f 691//231 692//231 693//231
usemtl leaf_dark
f 694//232 695//232 696//232
usemtl leaf_dark
f 697//233 698//233 699//233
usemtl leaf
f 700//234 701//234 702//234
usemtl leaf
f 703//235 704//235 705//235
usemtl leaf
f 706//236 707//236 708//236
usemtl leaf
f 709//237 710//237 711//237
usemtl leaf
f 712//238 713//238 714//238
usemtl leaf
f 715//239 716//239 717//239
usemtl leaf
f 718//240 719//240 720//240
usemtl leaf
f 721//241 722//241 723//241
usemtl leaf
f 724//242 725//242 726//242
usemtl leaf
f 727//243 728//243 729//243
usemtl leaf
f 730//244 731//244 732//244
usemtl leaf
f 733//245 734//245 735//245
usemtl leaf
f 736//246 737//246 738//246
usemtl leaf
f 739//247 740//247 741//247
usemtl leaf
f 742//248 743//248 744//248
usemtl leaf
f 745//249 746//249 747//249
usemtl sunflower
f 748//250 749//250 750//250
usemtl sunflower
f 751//251 752//251 753//251
usemtl sunflower
f 754//252 755//252 756//252
usemtl sunflower
f 757//253 758//253 759//253
usemtl sunflower
f 760//254 761//254 762//254
usemtl sunflower
f 763//255 764//255 765//255
usemtl sunflower
f 766//256 767//256 768//256
usemtl sunflower
f 769//257 770//257 771//257
usemtl sunflower
f 772//258 773//258 774//258
usemtl sunflower
f 775//259 776//259 777//259
usemtl sunflower
f 778//260 779//260 780//260
usemtl sunflower
f 781//261 782//261 783//261
usemtl sunflower
f 784//262 785//262 786//262
usemtl sunflower
f 787//263 788//263 789//263
usemtl seed
f 790//264 791//264 792//264
usemtl seed
f 793//265 794//265 795//265
usemtl seed
f 796//266 797//266 798//266
usemtl seed
f 799//267 800//267 801//267
usemtl seed
f 802//268 803//268 804//268
usemtl seed
f 805//269 806//269 807//269
usemtl seed
f 808//270 809//270 810//270
usemtl leaf_dark
f 811//271 812//271 813//271
usemtl leaf_dark
f 814//272 815//272 816//272
usemtl leaf_dark
f 817//273 818//273 819//273
usemtl leaf_dark
f 820//274 821//274 822//274
usemtl leaf_dark
f 823//275 824//275 825//275
usemtl leaf_dark
f 826//276 827//276 828//276
usemtl leaf_dark
f 829//277 830//277 831//277
usemtl leaf_dark
f 832//278 833//278 834//278
usemtl leaf
f 835//279 836//279 837//279
usemtl leaf
f 838//280 839//280 840//280
usemtl leaf
f 841//281 842//281 843//281
usemtl leaf
f 844//282 845//282 846//282
usemtl leaf
f 847//283 848//283 849//283
usemtl leaf
f 850//284 851//284 852//284
usemtl leaf
f 853//285 854//285 855//285
usemtl leaf
f 856//286 857//286 858//286
usemtl leaf
f 859//287 860//287 861//287
usemtl leaf
f 862//288 863//288 864//288
usemtl leaf
f 865//289 866//289 867//289
usemtl leaf
f 868//290 869//290 870//290
usemtl leaf
f 871//291 872//291 873//291
usemtl leaf
f 874//292 875//292 876//292
usemtl leaf
f 877//293 878//293 879//293
usemtl leaf
f 880//294 881//294 882//294
usemtl sunflower
f 883//295 884//295 885//295
usemtl sunflower
f 886//296 887//296 888//296
usemtl sunflower
f 889//297 890//297 891//297
usemtl sunflower
f 892//298 893//298 894//298
usemtl sunflower
f 895//299 896//299 897//299
usemtl sunflower
f 898//300 899//300 900//300
usemtl sunflower
f 901//301 902//301 903//301
usemtl sunflower
f 904//302 905//302 906//302
usemtl sunflower
f 907//303 908//303 909//303
usemtl sunflower
f 910//304 911//304 912//304
usemtl sunflower
f 913//305 914//305 915//305
usemtl sunflower
f 916//306 917//306 918//306
usemtl sunflower
f 919//307 920//307 921//307
usemtl sunflower
f 922//308 923//308 924//308
usemtl seed
f 925//309 926//309 927//309
usemtl seed
f 928//310 929//310 930//310
usemtl seed
f 931//311 932//311 933//311
usemtl seed
f 934//312 935//312 936//312
usemtl seed
f 937//313 938//313 939//313
usemtl seed
f 940//314 941//314 942//314
usemtl seed
f 943//315 944//315 945//315
usemtl leaf_dark
f 946//316 947//316 948//316
usemtl leaf_dark
f 949//317 950//317 951//317
usemtl leaf_dark
f 952//318 953//318 954//318
usemtl leaf_dark
f 955//319 956//319 957//319
usemtl leaf_dark
f 958//320 959//320 960//320
usemtl leaf_dark
f 961//321 962//321 963//321
usemtl leaf_dark
f 964//322 965//322 966//322
usemtl leaf_dark
f 967//323 968//323 969//323
usemtl leaf
f 970//324 971//324 972//324
usemtl leaf
f 973//325 974//325 975//325
usemtl leaf
f 976//326 977//326 978//326
usemtl leaf
f 979//327 980//327 981//327
usemtl leaf
f 982//328 983//328 984//328
usemtl leaf
f 985//329 986//329 987//329
usemtl leaf
f 988//330 989//330 990//330
usemtl leaf
f 991//331 992//331 993//331
usemtl leaf
f 994//332 995//332 996//332
usemtl leaf
f 997//333 998//333 999//333
usemtl leaf
f 1000//334 1001//334 1002//334
usemtl leaf
f 1003//335 1004//335 1005//335
usemtl leaf
f 1006//336 1007//336 1008//336
usemtl leaf
f 1009//337 1010//337 1011//337
usemtl leaf
f 1012//338 1013//338 1014//338
usemtl leaf
f 1015//339 1016//339 1017//339
usemtl sunflower
f 1018//340 1019//340 1020//340
usemtl sunflower
f 1021//341 1022//341 1023//341
usemtl sunflower
f 1024//342 1025//342 1026//342
usemtl sunflower
f 1027//343 1028//343 1029//343
usemtl sunflower
f 1030//344 1031//344 1032//344
usemtl sunflower
f 1033//345 1034//345 1035//345
usemtl sunflower
f 1036//346 1037//346 1038//346
usemtl sunflower
f 1039//347 1040//347 1041//347
usemtl sunflower
f 1042//348 1043//348 1044//348
usemtl sunflower
f 1045//349 1046//349 1047//349
usemtl sunflower
f 1048//350 1049//350 1050//350
usemtl sunflower
f 1051//351 1052//351 1053//351
usemtl sunflower
f 1054//352 1055//352 1056//352
usemtl sunflower
f 1057//353 1058//353 1059//353
usemtl seed
f 1060//354 1061//354 1062//354
usemtl seed
f 1063//355 1064//355 1065//355
usemtl seed
f 1066//356 1067//356 1068//356
usemtl seed
f 1069//357 1070//357 1071//357
usemtl seed
f 1072//358 1073//358 1074//358
usemtl seed
f 1075//359 1076//359 1077//359
usemtl seed
f 1078//360 1079//360 1080//360
usemtl leaf_dark
f 1081//361 1082//361 1083//361
usemtl leaf_dark
f 1084//362 1085//362 1086//362
usemtl leaf_dark
f 1087//363 1088//363 1089//363
usemtl leaf_dark
f 1090//364 1091//364 1092//364
usemtl leaf_dark
f 1093//365 1094//365 1095//365
usemtl leaf_dark
f 1096//366 1097//366 1098//366
usemtl leaf_dark
f 1099//367 1100//367 1101//367
usemtl leaf_dark
f 1102//368 1103//368 1104//368
usemtl leaf
f 1105//369 1106//369 1107//369
usemtl leaf
f 1108//370 1109//370 1110//370
usemtl leaf
f 1111//371 1112//371 1113//371
usemtl leaf
f 1114//372 1115//372 1116//372
usemtl leaf
f 1117//373 1118//373 1119//373
usemtl leaf
f 1120//374 1121//374 1122//374
usemtl leaf
f 1123//375 1124//375 1125//375
usemtl leaf
f 1126//376 1127//376 1128//376
usemtl leaf
f 1129//377 1130//377 1131//377
usemtl leaf
f 1132//378 1133//378 1134//378
usemtl leaf
f 1135//379 1136//379 1137//379
usemtl leaf
f 1138//380 1139//380 1140//380
usemtl leaf
f 1141//381 1142//381 1143//381
usemtl leaf
f 1144//382 1145//382 1146//382
usemtl leaf
f 1147//383 1148//383 1149//383
usemtl leaf
f 1150//384 1151//384 1152//384
usemtl sunflower
f 1153//385 1154//385 1155//385
usemtl sunflower
f 1156//386 1157//386 1158//386
usemtl sunflower
f 1159//387 1160//387 1161//387
usemtl sunflower
f 1162//388 1163//388 1164//388
usemtl sunflower
f 1165//389 1166//389 1167//389
usemtl sunflower
f 1168//390 1169//390 1170//390
usemtl sunflower
f 1171//391 1172//391 1173//391
usemtl sunflower
f 1174//392 1175//392 1176//392
usemtl sunflower
f 1177//393 1178//393 1179//393
usemtl sunflower
f 1180//394 1181//394 1182//394
usemtl sunflower
f 1183//395 1184//395 1185//395
usemtl sunflower
f 1186//396 1187//396 1188//396
usemtl sunflower
f 1189//397 1190//397 1191//397
usemtl sunflower
f 1192//398 1193//398 1194//398
usemtl seed
f 1195//399 1196//399 1197//399
usemtl seed
f 1198//400 1199//400 1200//400
usemtl seed
f 1201//401 1202//401 1203//401
usemtl seed
f 1204//402 1205//402 1206//402
usemtl seed
f 1207//403 1208//403 1209//403
usemtl seed
f 1210//404 1211//404 1212//404
usemtl seed
f 1213//405 1214//405 1215//405
