# Original Quiet Camp Ukrainian rural presentation asset
# Units: metres; Y up; no external geometry or textures
mtllib palette.mtl
o ua_sunflower_patch_lod
v -0.5754868 0.0006399 -0.4405000
v -0.5754868 0.0006399 -0.4095000
v -0.5254868 1.2106399 -0.4095000
v -0.5754868 0.0006399 -0.4405000
v -0.5254868 1.2106399 -0.4095000
v -0.5254868 1.2106399 -0.4405000
v -0.5754868 0.0006399 -0.4095000
v -0.5445132 -0.0006399 -0.4095000
v -0.4945132 1.2093601 -0.4095000
v -0.5754868 0.0006399 -0.4095000
v -0.4945132 1.2093601 -0.4095000
v -0.5254868 1.2106399 -0.4095000
v -0.5445132 -0.0006399 -0.4095000
v -0.5445132 -0.0006399 -0.4405000
v -0.4945132 1.2093601 -0.4405000
v -0.5445132 -0.0006399 -0.4095000
v -0.4945132 1.2093601 -0.4405000
v -0.4945132 1.2093601 -0.4095000
v -0.5445132 -0.0006399 -0.4405000
v -0.5754868 0.0006399 -0.4405000
v -0.5254868 1.2106399 -0.4405000
v -0.5445132 -0.0006399 -0.4405000
v -0.5254868 1.2106399 -0.4405000
v -0.4945132 1.2093601 -0.4405000
v -0.4330000 1.2100000 -0.4500000
v -0.3818532 1.2524665 -0.4430000
v -0.2900000 1.2100000 -0.4250000
v -0.4330000 1.2100000 -0.4500000
v -0.2900000 1.2100000 -0.4250000
v -0.3818532 1.1675335 -0.4430000
v -0.5100000 1.2100000 -0.4600000
v -0.4526389 1.2819285 -0.4550000
v -0.4180000 1.2100000 -0.4550000
v -0.4619913 1.2702010 -0.4500000
v -0.4633034 1.3366666 -0.4430000
v -0.3728322 1.3820029 -0.4250000
v -0.4619913 1.2702010 -0.4500000
v -0.3728322 1.3820029 -0.4250000
v -0.3969002 1.2837118 -0.4430000
v -0.5100000 1.2100000 -0.4600000
v -0.5304719 1.2996934 -0.4550000
v -0.4526389 1.2819285 -0.4550000
v -0.5271341 1.2850694 -0.4500000
v -0.5799171 1.3254842 -0.4430000
v -0.5589546 1.4244841 -0.4250000
v -0.5271341 1.2850694 -0.4500000
v -0.5589546 1.4244841 -0.4250000
v -0.4971136 1.3443836 -0.4430000
v -0.5100000 1.2100000 -0.4600000
v -0.5928891 1.2499173 -0.4550000
v -0.5304719 1.2996934 -0.4550000
v -0.5793746 1.2434090 -0.4500000
v -0.6438818 1.2273398 -0.4430000
v -0.7082132 1.3054544 -0.4250000
v -0.5793746 1.2434090 -0.4500000
v -0.7082132 1.3054544 -0.4250000
v -0.6070307 1.3038618 -0.4430000
v -0.5100000 1.2100000 -0.4600000
v -0.5928891 1.1700827 -0.4550000
v -0.5928891 1.2499173 -0.4550000
v -0.5793746 1.1765910 -0.4500000
v -0.6070307 1.1161382 -0.4430000
v -0.7082132 1.1145456 -0.4250000
v -0.5793746 1.1765910 -0.4500000
v -0.7082132 1.1145456 -0.4250000
v -0.6438818 1.1926602 -0.4430000
v -0.5100000 1.2100000 -0.4600000
v -0.5304719 1.1203066 -0.4550000
v -0.5928891 1.1700827 -0.4550000
v -0.5271341 1.1349306 -0.4500000
v -0.4971136 1.0756164 -0.4430000
v -0.5589546 0.9955159 -0.4250000
v -0.5271341 1.1349306 -0.4500000
v -0.5589546 0.9955159 -0.4250000
v -0.5799171 1.0945158 -0.4430000
v -0.5100000 1.2100000 -0.4600000
v -0.4526389 1.1380715 -0.4550000
v -0.5304719 1.1203066 -0.4550000
v -0.4619913 1.1497990 -0.4500000
v -0.3969002 1.1362882 -0.4430000
v -0.3728322 1.0379971 -0.4250000
v -0.4619913 1.1497990 -0.4500000
v -0.3728322 1.0379971 -0.4250000
v -0.4633034 1.0833334 -0.4430000
v -0.5100000 1.2100000 -0.4600000
v -0.4180000 1.2100000 -0.4550000
v -0.4526389 1.1380715 -0.4550000
v 0.5445115 0.0005957 -0.4405000
v 0.5445115 0.0005957 -0.4095000
v 0.5945115 1.3005957 -0.4095000
v 0.5445115 0.0005957 -0.4405000
v 0.5945115 1.3005957 -0.4095000
v 0.5945115 1.3005957 -0.4405000
v 0.5445115 0.0005957 -0.4095000
v 0.5754885 -0.0005957 -0.4095000
v 0.6254885 1.2994043 -0.4095000
v 0.5445115 0.0005957 -0.4095000
v 0.6254885 1.2994043 -0.4095000
v 0.5945115 1.3005957 -0.4095000
v 0.5754885 -0.0005957 -0.4095000
v 0.5754885 -0.0005957 -0.4405000
v 0.6254885 1.2994043 -0.4405000
v 0.5754885 -0.0005957 -0.4095000
v 0.6254885 1.2994043 -0.4405000
v 0.6254885 1.2994043 -0.4095000
v 0.5754885 -0.0005957 -0.4405000
v 0.5445115 0.0005957 -0.4405000
v 0.5945115 1.3005957 -0.4405000
v 0.5754885 -0.0005957 -0.4405000
v 0.5945115 1.3005957 -0.4405000
v 0.6254885 1.2994043 -0.4405000
v 0.6870000 1.3000000 -0.4500000
v 0.7381468 1.3424665 -0.4430000
v 0.8300000 1.3000000 -0.4250000
v 0.6870000 1.3000000 -0.4500000
v 0.8300000 1.3000000 -0.4250000
v 0.7381468 1.2575335 -0.4430000
v 0.6100000 1.3000000 -0.4600000
v 0.6673611 1.3719285 -0.4550000
v 0.7020000 1.3000000 -0.4550000
v 0.6580087 1.3602010 -0.4500000
v 0.6566966 1.4266666 -0.4430000
v 0.7471678 1.4720029 -0.4250000
v 0.6580087 1.3602010 -0.4500000
v 0.7471678 1.4720029 -0.4250000
v 0.7230998 1.3737118 -0.4430000
v 0.6100000 1.3000000 -0.4600000
v 0.5895281 1.3896934 -0.4550000
v 0.6673611 1.3719285 -0.4550000
v 0.5928659 1.3750694 -0.4500000
v 0.5400829 1.4154842 -0.4430000
v 0.5610454 1.5144841 -0.4250000
v 0.5928659 1.3750694 -0.4500000
v 0.5610454 1.5144841 -0.4250000
v 0.6228864 1.4343836 -0.4430000
v 0.6100000 1.3000000 -0.4600000
v 0.5271109 1.3399173 -0.4550000
v 0.5895281 1.3896934 -0.4550000
v 0.5406254 1.3334090 -0.4500000
v 0.4761182 1.3173398 -0.4430000
v 0.4117868 1.3954544 -0.4250000
v 0.5406254 1.3334090 -0.4500000
v 0.4117868 1.3954544 -0.4250000
v 0.5129693 1.3938618 -0.4430000
v 0.6100000 1.3000000 -0.4600000
v 0.5271109 1.2600827 -0.4550000
v 0.5271109 1.3399173 -0.4550000
v 0.5406254 1.2665910 -0.4500000
v 0.5129693 1.2061382 -0.4430000
v 0.4117868 1.2045456 -0.4250000
v 0.5406254 1.2665910 -0.4500000
v 0.4117868 1.2045456 -0.4250000
v 0.4761182 1.2826602 -0.4430000
v 0.6100000 1.3000000 -0.4600000
v 0.5895281 1.2103066 -0.4550000
v 0.5271109 1.2600827 -0.4550000
v 0.5928659 1.2249306 -0.4500000
v 0.6228864 1.1656164 -0.4430000
v 0.5610454 1.0855159 -0.4250000
v 0.5928659 1.2249306 -0.4500000
v 0.5610454 1.0855159 -0.4250000
v 0.5400829 1.1845158 -0.4430000
v 0.6100000 1.3000000 -0.4600000
v 0.6673611 1.2280715 -0.4550000
v 0.5895281 1.2103066 -0.4550000
v 0.6580087 1.2397990 -0.4500000
v 0.7230998 1.2262882 -0.4430000
v 0.7471678 1.1279971 -0.4250000
v 0.6580087 1.2397990 -0.4500000
v 0.7471678 1.1279971 -0.4250000
v 0.6566966 1.1733334 -0.4430000
v 0.6100000 1.3000000 -0.4600000
v 0.7020000 1.3000000 -0.4550000
v 0.6673611 1.2280715 -0.4550000
v -0.5754885 0.0005957 0.4095000
v -0.5754885 0.0005957 0.4405000
v -0.5254885 1.3005957 0.4405000
v -0.5754885 0.0005957 0.4095000
v -0.5254885 1.3005957 0.4405000
v -0.5254885 1.3005957 0.4095000
v -0.5754885 0.0005957 0.4405000
v -0.5445115 -0.0005957 0.4405000
v -0.4945115 1.2994043 0.4405000
v -0.5754885 0.0005957 0.4405000
v -0.4945115 1.2994043 0.4405000
v -0.5254885 1.3005957 0.4405000
v -0.5445115 -0.0005957 0.4405000
v -0.5445115 -0.0005957 0.4095000
v -0.4945115 1.2994043 0.4095000
v -0.5445115 -0.0005957 0.4405000
v -0.4945115 1.2994043 0.4095000
v -0.4945115 1.2994043 0.4405000
v -0.5445115 -0.0005957 0.4095000
v -0.5754885 0.0005957 0.4095000
v -0.5254885 1.3005957 0.4095000
v -0.5445115 -0.0005957 0.4095000
v -0.5254885 1.3005957 0.4095000
v -0.4945115 1.2994043 0.4095000
v -0.4330000 1.3000000 0.4000000
v -0.3818532 1.3424665 0.4070000
v -0.2900000 1.3000000 0.4250000
v -0.4330000 1.3000000 0.4000000
v -0.2900000 1.3000000 0.4250000
v -0.3818532 1.2575335 0.4070000
v -0.5100000 1.3000000 0.3900000
v -0.4526389 1.3719285 0.3950000
v -0.4180000 1.3000000 0.3950000
v -0.4619913 1.3602010 0.4000000
v -0.4633034 1.4266666 0.4070000
v -0.3728322 1.4720029 0.4250000
v -0.4619913 1.3602010 0.4000000
v -0.3728322 1.4720029 0.4250000
v -0.3969002 1.3737118 0.4070000
v -0.5100000 1.3000000 0.3900000
v -0.5304719 1.3896934 0.3950000
v -0.4526389 1.3719285 0.3950000
v -0.5271341 1.3750694 0.4000000
v -0.5799171 1.4154842 0.4070000
v -0.5589546 1.5144841 0.4250000
v -0.5271341 1.3750694 0.4000000
v -0.5589546 1.5144841 0.4250000
v -0.4971136 1.4343836 0.4070000
v -0.5100000 1.3000000 0.3900000
v -0.5928891 1.3399173 0.3950000
v -0.5304719 1.3896934 0.3950000
v -0.5793746 1.3334090 0.4000000
v -0.6438818 1.3173398 0.4070000
v -0.7082132 1.3954544 0.4250000
v -0.5793746 1.3334090 0.4000000
v -0.7082132 1.3954544 0.4250000
v -0.6070307 1.3938618 0.4070000
v -0.5100000 1.3000000 0.3900000
v -0.5928891 1.2600827 0.3950000
v -0.5928891 1.3399173 0.3950000
v -0.5793746 1.2665910 0.4000000
v -0.6070307 1.2061382 0.4070000
v -0.7082132 1.2045456 0.4250000
v -0.5793746 1.2665910 0.4000000
v -0.7082132 1.2045456 0.4250000
v -0.6438818 1.2826602 0.4070000
v -0.5100000 1.3000000 0.3900000
v -0.5304719 1.2103066 0.3950000
v -0.5928891 1.2600827 0.3950000
v -0.5271341 1.2249306 0.4000000
v -0.4971136 1.1656164 0.4070000
v -0.5589546 1.0855159 0.4250000
v -0.5271341 1.2249306 0.4000000
v -0.5589546 1.0855159 0.4250000
v -0.5799171 1.1845158 0.4070000
v -0.5100000 1.3000000 0.3900000
v -0.4526389 1.2280715 0.3950000
v -0.5304719 1.2103066 0.3950000
v -0.4619913 1.2397990 0.4000000
v -0.3969002 1.2262882 0.4070000
v -0.3728322 1.1279971 0.4250000
v -0.4619913 1.2397990 0.4000000
v -0.3728322 1.1279971 0.4250000
v -0.4633034 1.1733334 0.4070000
v -0.5100000 1.3000000 0.3900000
v -0.4180000 1.3000000 0.3950000
v -0.4526389 1.2280715 0.3950000
v 0.5445132 0.0006399 0.4095000
v 0.5445132 0.0006399 0.4405000
v 0.5945132 1.2106399 0.4405000
v 0.5445132 0.0006399 0.4095000
v 0.5945132 1.2106399 0.4405000
v 0.5945132 1.2106399 0.4095000
v 0.5445132 0.0006399 0.4405000
v 0.5754868 -0.0006399 0.4405000
v 0.6254868 1.2093601 0.4405000
v 0.5445132 0.0006399 0.4405000
v 0.6254868 1.2093601 0.4405000
v 0.5945132 1.2106399 0.4405000
v 0.5754868 -0.0006399 0.4405000
v 0.5754868 -0.0006399 0.4095000
v 0.6254868 1.2093601 0.4095000
v 0.5754868 -0.0006399 0.4405000
v 0.6254868 1.2093601 0.4095000
v 0.6254868 1.2093601 0.4405000
v 0.5754868 -0.0006399 0.4095000
v 0.5445132 0.0006399 0.4095000
v 0.5945132 1.2106399 0.4095000
v 0.5754868 -0.0006399 0.4095000
v 0.5945132 1.2106399 0.4095000
v 0.6254868 1.2093601 0.4095000
v 0.6870000 1.2100000 0.4000000
v 0.7381468 1.2524665 0.4070000
v 0.8300000 1.2100000 0.4250000
v 0.6870000 1.2100000 0.4000000
v 0.8300000 1.2100000 0.4250000
v 0.7381468 1.1675335 0.4070000
v 0.6100000 1.2100000 0.3900000
v 0.6673611 1.2819285 0.3950000
v 0.7020000 1.2100000 0.3950000
v 0.6580087 1.2702010 0.4000000
v 0.6566966 1.3366666 0.4070000
v 0.7471678 1.3820029 0.4250000
v 0.6580087 1.2702010 0.4000000
v 0.7471678 1.3820029 0.4250000
v 0.7230998 1.2837118 0.4070000
v 0.6100000 1.2100000 0.3900000
v 0.5895281 1.2996934 0.3950000
v 0.6673611 1.2819285 0.3950000
v 0.5928659 1.2850694 0.4000000
v 0.5400829 1.3254842 0.4070000
v 0.5610454 1.4244841 0.4250000
v 0.5928659 1.2850694 0.4000000
v 0.5610454 1.4244841 0.4250000
v 0.6228864 1.3443836 0.4070000
v 0.6100000 1.2100000 0.3900000
v 0.5271109 1.2499173 0.3950000
v 0.5895281 1.2996934 0.3950000
v 0.5406254 1.2434090 0.4000000
v 0.4761182 1.2273398 0.4070000
v 0.4117868 1.3054544 0.4250000
v 0.5406254 1.2434090 0.4000000
v 0.4117868 1.3054544 0.4250000
v 0.5129693 1.3038618 0.4070000
v 0.6100000 1.2100000 0.3900000
v 0.5271109 1.1700827 0.3950000
v 0.5271109 1.2499173 0.3950000
v 0.5406254 1.1765910 0.4000000
v 0.5129693 1.1161382 0.4070000
v 0.4117868 1.1145456 0.4250000
v 0.5406254 1.1765910 0.4000000
v 0.4117868 1.1145456 0.4250000
v 0.4761182 1.1926602 0.4070000
v 0.6100000 1.2100000 0.3900000
v 0.5895281 1.1203066 0.3950000
v 0.5271109 1.1700827 0.3950000
v 0.5928659 1.1349306 0.4000000
v 0.6228864 1.0756164 0.4070000
v 0.5610454 0.9955159 0.4250000
v 0.5928659 1.1349306 0.4000000
v 0.5610454 0.9955159 0.4250000
v 0.5400829 1.0945158 0.4070000
v 0.6100000 1.2100000 0.3900000
v 0.6673611 1.1380715 0.3950000
v 0.5895281 1.1203066 0.3950000
v 0.6580087 1.1497990 0.4000000
v 0.7230998 1.1362882 0.4070000
v 0.7471678 1.0379971 0.4250000
v 0.6580087 1.1497990 0.4000000
v 0.7471678 1.0379971 0.4250000
v 0.6566966 1.0833334 0.4070000
v 0.6100000 1.2100000 0.3900000
v 0.7020000 1.2100000 0.3950000
v 0.6673611 1.1380715 0.3950000
vn -0.9991473 0.0412871 0.0000000
vn -0.9991473 0.0412871 0.0000000
vn -0.0000000 0.0000000 1.0000000
vn 0.0000000 0.0000000 1.0000000
vn 0.9991473 -0.0412871 0.0000000
vn 0.9991473 -0.0412871 0.0000000
vn 0.0000000 0.0000000 -1.0000000
vn 0.0000000 0.0000000 -1.0000000
vn 0.1720388 -0.0449954 -0.9840620
vn 0.1720388 0.0449954 -0.9840620
vn 0.0542492 0.0261250 -0.9981856
vn 0.1424433 0.1064512 -0.9840620
vn 0.0720856 0.1625595 -0.9840620
vn 0.0133985 0.0587024 -0.9981856
vn 0.0055851 0.1777379 -0.9840620
vn -0.0821495 0.1577130 -0.9840620
vn -0.0375416 0.0470757 -0.9981856
vn -0.1354788 0.1151843 -0.9840620
vn -0.1745244 0.0341054 -0.9840620
vn -0.0602121 0.0000000 -0.9981856
vn -0.1745244 -0.0341054 -0.9840620
vn -0.1354788 -0.1151843 -0.9840620
vn -0.0375416 -0.0470757 -0.9981856
vn -0.0821495 -0.1577130 -0.9840620
vn 0.0055851 -0.1777379 -0.9840620
vn 0.0133985 -0.0587024 -0.9981856
vn 0.0720856 -0.1625595 -0.9840620
vn 0.1424433 -0.1064512 -0.9840620
vn 0.0542492 -0.0261250 -0.9981856
vn -0.9992612 0.0384331 0.0000000
vn -0.9992612 0.0384331 0.0000000
vn -0.0000000 0.0000000 1.0000000
vn 0.0000000 0.0000000 1.0000000
vn 0.9992612 -0.0384331 0.0000000
vn 0.9992612 -0.0384331 0.0000000
vn 0.0000000 0.0000000 -1.0000000
vn 0.0000000 0.0000000 -1.0000000
vn 0.1720388 -0.0449954 -0.9840620
vn 0.1720388 0.0449954 -0.9840620
vn 0.0542492 0.0261250 -0.9981856
vn 0.1424433 0.1064512 -0.9840620
vn 0.0720856 0.1625595 -0.9840620
vn 0.0133985 0.0587024 -0.9981856
vn 0.0055851 0.1777379 -0.9840620
vn -0.0821495 0.1577130 -0.9840620
vn -0.0375416 0.0470757 -0.9981856
vn -0.1354788 0.1151843 -0.9840620
vn -0.1745244 0.0341054 -0.9840620
vn -0.0602121 0.0000000 -0.9981856
vn -0.1745244 -0.0341054 -0.9840620
vn -0.1354788 -0.1151843 -0.9840620
vn -0.0375416 -0.0470757 -0.9981856
vn -0.0821495 -0.1577130 -0.9840620
vn 0.0055851 -0.1777379 -0.9840620
vn 0.0133985 -0.0587024 -0.9981856
vn 0.0720856 -0.1625595 -0.9840620
vn 0.1424433 -0.1064512 -0.9840620
vn 0.0542492 -0.0261250 -0.9981856
vn -0.9992612 0.0384331 0.0000000
vn -0.9992612 0.0384331 0.0000000
vn -0.0000000 0.0000000 1.0000000
vn 0.0000000 0.0000000 1.0000000
vn 0.9992612 -0.0384331 0.0000000
vn 0.9992612 -0.0384331 0.0000000
vn 0.0000000 0.0000000 -1.0000000
vn 0.0000000 0.0000000 -1.0000000
vn 0.1720388 -0.0449954 -0.9840620
vn 0.1720388 0.0449954 -0.9840620
vn 0.0542492 0.0261250 -0.9981856
vn 0.1424433 0.1064512 -0.9840620
vn 0.0720856 0.1625595 -0.9840620
vn 0.0133985 0.0587024 -0.9981856
vn 0.0055851 0.1777379 -0.9840620
vn -0.0821495 0.1577130 -0.9840620
vn -0.0375416 0.0470757 -0.9981856
vn -0.1354788 0.1151843 -0.9840620
vn -0.1745244 0.0341054 -0.9840620
vn -0.0602121 0.0000000 -0.9981856
vn -0.1745244 -0.0341054 -0.9840620
vn -0.1354788 -0.1151843 -0.9840620
vn -0.0375416 -0.0470757 -0.9981856
vn -0.0821495 -0.1577130 -0.9840620
vn 0.0055851 -0.1777379 -0.9840620
vn 0.0133985 -0.0587024 -0.9981856
vn 0.0720856 -0.1625595 -0.9840620
vn 0.1424433 -0.1064512 -0.9840620
vn 0.0542492 -0.0261250 -0.9981856
vn -0.9991473 0.0412871 0.0000000
vn -0.9991473 0.0412871 0.0000000
vn -0.0000000 0.0000000 1.0000000
vn 0.0000000 0.0000000 1.0000000
vn 0.9991473 -0.0412871 0.0000000
vn 0.9991473 -0.0412871 0.0000000
vn 0.0000000 0.0000000 -1.0000000
vn 0.0000000 0.0000000 -1.0000000
vn 0.1720388 -0.0449954 -0.9840620
vn 0.1720388 0.0449954 -0.9840620
vn 0.0542492 0.0261250 -0.9981856
vn 0.1424433 0.1064512 -0.9840620
vn 0.0720856 0.1625595 -0.9840620
vn 0.0133985 0.0587024 -0.9981856
vn 0.0055851 0.1777379 -0.9840620
vn -0.0821495 0.1577130 -0.9840620
vn -0.0375416 0.0470757 -0.9981856
vn -0.1354788 0.1151843 -0.9840620
vn -0.1745244 0.0341054 -0.9840620
vn -0.0602121 0.0000000 -0.9981856
vn -0.1745244 -0.0341054 -0.9840620
vn -0.1354788 -0.1151843 -0.9840620
vn -0.0375416 -0.0470757 -0.9981856
vn -0.0821495 -0.1577130 -0.9840620
vn 0.0055851 -0.1777379 -0.9840620
vn 0.0133985 -0.0587024 -0.9981856
vn 0.0720856 -0.1625595 -0.9840620
vn 0.1424433 -0.1064512 -0.9840620
vn 0.0542492 -0.0261250 -0.9981856
usemtl leaf_dark
f 1//1 2//1 3//1
usemtl leaf_dark
f 4//2 5//2 6//2
usemtl leaf_dark
f 7//3 8//3 9//3
usemtl leaf_dark
f 10//4 11//4 12//4
usemtl leaf_dark
f 13//5 14//5 15//5
usemtl leaf_dark
f 16//6 17//6 18//6
usemtl leaf_dark
f 19//7 20//7 21//7
usemtl leaf_dark
f 22//8 23//8 24//8
usemtl sunflower
f 25//9 26//9 27//9
usemtl sunflower
f 28//10 29//10 30//10
usemtl seed
f 31//11 32//11 33//11
usemtl sunflower
f 34//12 35//12 36//12
usemtl sunflower
f 37//13 38//13 39//13
usemtl seed
f 40//14 41//14 42//14
usemtl sunflower
f 43//15 44//15 45//15
usemtl sunflower
f 46//16 47//16 48//16
usemtl seed
f 49//17 50//17 51//17
usemtl sunflower
f 52//18 53//18 54//18
usemtl sunflower
f 55//19 56//19 57//19
usemtl seed
f 58//20 59//20 60//20
usemtl sunflower
f 61//21 62//21 63//21
usemtl sunflower
f 64//22 65//22 66//22
usemtl seed
f 67//23 68//23 69//23
usemtl sunflower
f 70//24 71//24 72//24
usemtl sunflower
f 73//25 74//25 75//25
usemtl seed
f 76//26 77//26 78//26
usemtl sunflower
f 79//27 80//27 81//27
usemtl sunflower
f 82//28 83//28 84//28
usemtl seed
f 85//29 86//29 87//29
usemtl leaf_dark
f 88//30 89//30 90//30
usemtl leaf_dark
f 91//31 92//31 93//31
usemtl leaf_dark
f 94//32 95//32 96//32
usemtl leaf_dark
f 97//33 98//33 99//33
usemtl leaf_dark
f 100//34 101//34 102//34
usemtl leaf_dark
f 103//35 104//35 105//35
usemtl leaf_dark
f 106//36 107//36 108//36
usemtl leaf_dark
f 109//37 110//37 111//37
usemtl sunflower
f 112//38 113//38 114//38
usemtl sunflower
f 115//39 116//39 117//39
usemtl seed
f 118//40 119//40 120//40
usemtl sunflower
f 121//41 122//41 123//41
usemtl sunflower
f 124//42 125//42 126//42
usemtl seed
f 127//43 128//43 129//43
usemtl sunflower
f 130//44 131//44 132//44
usemtl sunflower
f 133//45 134//45 135//45
usemtl seed
f 136//46 137//46 138//46
usemtl sunflower
f 139//47 140//47 141//47
usemtl sunflower
f 142//48 143//48 144//48
usemtl seed
f 145//49 146//49 147//49
usemtl sunflower
f 148//50 149//50 150//50
usemtl sunflower
f 151//51 152//51 153//51
usemtl seed
f 154//52 155//52 156//52
usemtl sunflower
f 157//53 158//53 159//53
usemtl sunflower
f 160//54 161//54 162//54
usemtl seed
f 163//55 164//55 165//55
usemtl sunflower
f 166//56 167//56 168//56
usemtl sunflower
f 169//57 170//57 171//57
usemtl seed
f 172//58 173//58 174//58
usemtl leaf_dark
f 175//59 176//59 177//59
usemtl leaf_dark
f 178//60 179//60 180//60
usemtl leaf_dark
f 181//61 182//61 183//61
usemtl leaf_dark
f 184//62 185//62 186//62
usemtl leaf_dark
f 187//63 188//63 189//63
usemtl leaf_dark
f 190//64 191//64 192//64
usemtl leaf_dark
f 193//65 194//65 195//65
usemtl leaf_dark
f 196//66 197//66 198//66
usemtl sunflower
f 199//67 200//67 201//67
usemtl sunflower
f 202//68 203//68 204//68
usemtl seed
f 205//69 206//69 207//69
usemtl sunflower
f 208//70 209//70 210//70
usemtl sunflower
f 211//71 212//71 213//71
usemtl seed
f 214//72 215//72 216//72
usemtl sunflower
f 217//73 218//73 219//73
usemtl sunflower
f 220//74 221//74 222//74
usemtl seed
f 223//75 224//75 225//75
usemtl sunflower
f 226//76 227//76 228//76
usemtl sunflower
f 229//77 230//77 231//77
usemtl seed
f 232//78 233//78 234//78
usemtl sunflower
f 235//79 236//79 237//79
usemtl sunflower
f 238//80 239//80 240//80
usemtl seed
f 241//81 242//81 243//81
usemtl sunflower
f 244//82 245//82 246//82
usemtl sunflower
f 247//83 248//83 249//83
usemtl seed
f 250//84 251//84 252//84
usemtl sunflower
f 253//85 254//85 255//85
usemtl sunflower
f 256//86 257//86 258//86
usemtl seed
f 259//87 260//87 261//87
usemtl leaf_dark
f 262//88 263//88 264//88
usemtl leaf_dark
f 265//89 266//89 267//89
usemtl leaf_dark
f 268//90 269//90 270//90
usemtl leaf_dark
f 271//91 272//91 273//91
usemtl leaf_dark
f 274//92 275//92 276//92
usemtl leaf_dark
f 277//93 278//93 279//93
usemtl leaf_dark
f 280//94 281//94 282//94
usemtl leaf_dark
f 283//95 284//95 285//95
usemtl sunflower
f 286//96 287//96 288//96
usemtl sunflower
f 289//97 290//97 291//97
usemtl seed
f 292//98 293//98 294//98
usemtl sunflower
f 295//99 296//99 297//99
usemtl sunflower
f 298//100 299//100 300//100
usemtl seed
f 301//101 302//101 303//101
usemtl sunflower
f 304//102 305//102 306//102
usemtl sunflower
f 307//103 308//103 309//103
usemtl seed
f 310//104 311//104 312//104
usemtl sunflower
f 313//105 314//105 315//105
usemtl sunflower
f 316//106 317//106 318//106
usemtl seed
f 319//107 320//107 321//107
usemtl sunflower
f 322//108 323//108 324//108
usemtl sunflower
f 325//109 326//109 327//109
usemtl seed
f 328//110 329//110 330//110
usemtl sunflower
f 331//111 332//111 333//111
usemtl sunflower
f 334//112 335//112 336//112
usemtl seed
f 337//113 338//113 339//113
usemtl sunflower
f 340//114 341//114 342//114
usemtl sunflower
f 343//115 344//115 345//115
usemtl seed
f 346//116 347//116 348//116
