# Original Quiet Camp Ukrainian rural presentation asset
# Units: metres; Y up; no external geometry or textures
mtllib palette.mtl
o ua_well
v 0.6100000 0.8800000 0.0000000
v 0.4313351 0.8800000 0.4313351
v 0.4313351 0.1200000 0.4313351
v 0.6100000 0.8800000 0.0000000
v 0.4313351 0.1200000 0.4313351
v 0.6100000 0.1200000 0.0000000
v 0.4300000 0.1200000 0.0000000
v 0.3040559 0.1200000 0.3040559
v 0.3040559 0.8800000 0.3040559
v 0.4300000 0.1200000 0.0000000
v 0.3040559 0.8800000 0.3040559
v 0.4300000 0.8800000 0.0000000
v 0.4300000 0.8800000 0.0000000
v 0.3040559 0.8800000 0.3040559
v 0.4313351 0.8800000 0.4313351
v 0.4300000 0.8800000 0.0000000
v 0.4313351 0.8800000 0.4313351
v 0.6100000 0.8800000 0.0000000
v 0.4313351 0.8800000 0.4313351
v 0.0000000 0.8800000 0.6100000
v 0.0000000 0.1200000 0.6100000
v 0.4313351 0.8800000 0.4313351
v 0.0000000 0.1200000 0.6100000
v 0.4313351 0.1200000 0.4313351
v 0.3040559 0.1200000 0.3040559
v 0.0000000 0.1200000 0.4300000
v 0.0000000 0.8800000 0.4300000
v 0.3040559 0.1200000 0.3040559
v 0.0000000 0.8800000 0.4300000
v 0.3040559 0.8800000 0.3040559
v 0.3040559 0.8800000 0.3040559
v 0.0000000 0.8800000 0.4300000
v 0.0000000 0.8800000 0.6100000
v 0.3040559 0.8800000 0.3040559
v 0.0000000 0.8800000 0.6100000
v 0.4313351 0.8800000 0.4313351
v 0.0000000 0.8800000 0.6100000
v -0.4313351 0.8800000 0.4313351
v -0.4313351 0.1200000 0.4313351
v 0.0000000 0.8800000 0.6100000
v -0.4313351 0.1200000 0.4313351
v 0.0000000 0.1200000 0.6100000
v 0.0000000 0.1200000 0.4300000
v -0.3040559 0.1200000 0.3040559
v -0.3040559 0.8800000 0.3040559
v 0.0000000 0.1200000 0.4300000
v -0.3040559 0.8800000 0.3040559
v 0.0000000 0.8800000 0.4300000
v 0.0000000 0.8800000 0.4300000
v -0.3040559 0.8800000 0.3040559
v -0.4313351 0.8800000 0.4313351
v 0.0000000 0.8800000 0.4300000
v -0.4313351 0.8800000 0.4313351
v 0.0000000 0.8800000 0.6100000
v -0.4313351 0.8800000 0.4313351
v -0.6100000 0.8800000 0.0000000
v -0.6100000 0.1200000 0.0000000
v -0.4313351 0.8800000 0.4313351
v -0.6100000 0.1200000 0.0000000
v -0.4313351 0.1200000 0.4313351
v -0.3040559 0.1200000 0.3040559
v -0.4300000 0.1200000 0.0000000
v -0.4300000 0.8800000 0.0000000
v -0.3040559 0.1200000 0.3040559
v -0.4300000 0.8800000 0.0000000
v -0.3040559 0.8800000 0.3040559
v -0.3040559 0.8800000 0.3040559
v -0.4300000 0.8800000 0.0000000
v -0.6100000 0.8800000 0.0000000
v -0.3040559 0.8800000 0.3040559
v -0.6100000 0.8800000 0.0000000
v -0.4313351 0.8800000 0.4313351
v -0.6100000 0.8800000 0.0000000
v -0.4313351 0.8800000 -0.4313351
v -0.4313351 0.1200000 -0.4313351
v -0.6100000 0.8800000 0.0000000
v -0.4313351 0.1200000 -0.4313351
v -0.6100000 0.1200000 0.0000000
v -0.4300000 0.1200000 0.0000000
v -0.3040559 0.1200000 -0.3040559
v -0.3040559 0.8800000 -0.3040559
v -0.4300000 0.1200000 0.0000000
v -0.3040559 0.8800000 -0.3040559
v -0.4300000 0.8800000 0.0000000
v -0.4300000 0.8800000 0.0000000
v -0.3040559 0.8800000 -0.3040559
v -0.4313351 0.8800000 -0.4313351
v -0.4300000 0.8800000 0.0000000
v -0.4313351 0.8800000 -0.4313351
v -0.6100000 0.8800000 0.0000000
v -0.4313351 0.8800000 -0.4313351
v -0.0000000 0.8800000 -0.6100000
v -0.0000000 0.1200000 -0.6100000
v -0.4313351 0.8800000 -0.4313351
v -0.0000000 0.1200000 -0.6100000
v -0.4313351 0.1200000 -0.4313351
v -0.3040559 0.1200000 -0.3040559
v -0.0000000 0.1200000 -0.4300000
v -0.0000000 0.8800000 -0.4300000
v -0.3040559 0.1200000 -0.3040559
v -0.0000000 0.8800000 -0.4300000
v -0.3040559 0.8800000 -0.3040559
v -0.3040559 0.8800000 -0.3040559
v -0.0000000 0.8800000 -0.4300000
v -0.0000000 0.8800000 -0.6100000
v -0.3040559 0.8800000 -0.3040559
v -0.0000000 0.8800000 -0.6100000
v -0.4313351 0.8800000 -0.4313351
v -0.0000000 0.8800000 -0.6100000
v 0.4313351 0.8800000 -0.4313351
v 0.4313351 0.1200000 -0.4313351
v -0.0000000 0.8800000 -0.6100000
v 0.4313351 0.1200000 -0.4313351
v -0.0000000 0.1200000 -0.6100000
v -0.0000000 0.1200000 -0.4300000
v 0.3040559 0.1200000 -0.3040559
v 0.3040559 0.8800000 -0.3040559
v -0.0000000 0.1200000 -0.4300000
v 0.3040559 0.8800000 -0.3040559
v -0.0000000 0.8800000 -0.4300000
v -0.0000000 0.8800000 -0.4300000
v 0.3040559 0.8800000 -0.3040559
v 0.4313351 0.8800000 -0.4313351
v -0.0000000 0.8800000 -0.4300000
v 0.4313351 0.8800000 -0.4313351
v -0.0000000 0.8800000 -0.6100000
v 0.4313351 0.8800000 -0.4313351
v 0.6100000 0.8800000 -0.0000000
v 0.6100000 0.1200000 -0.0000000
v 0.4313351 0.8800000 -0.4313351
v 0.6100000 0.1200000 -0.0000000
v 0.4313351 0.1200000 -0.4313351
v 0.3040559 0.1200000 -0.3040559
v 0.4300000 0.1200000 -0.0000000
v 0.4300000 0.8800000 -0.0000000
v 0.3040559 0.1200000 -0.3040559
v 0.4300000 0.8800000 -0.0000000
v 0.3040559 0.8800000 -0.3040559
v 0.3040559 0.8800000 -0.3040559
v 0.4300000 0.8800000 -0.0000000
v 0.6100000 0.8800000 -0.0000000
v 0.3040559 0.8800000 -0.3040559
v 0.6100000 0.8800000 -0.0000000
v 0.4313351 0.8800000 -0.4313351
v -0.8000000 0.0000000 -0.0700000
v -0.8000000 2.0000000 -0.0700000
v -0.6800000 2.0000000 -0.0700000
v -0.8000000 0.0000000 -0.0700000
v -0.6800000 2.0000000 -0.0700000
v -0.6800000 0.0000000 -0.0700000
v -0.8000000 0.0000000 0.0700000
v -0.6800000 0.0000000 0.0700000
v -0.6800000 2.0000000 0.0700000
v -0.8000000 0.0000000 0.0700000
v -0.6800000 2.0000000 0.0700000
v -0.8000000 2.0000000 0.0700000
v -0.8000000 0.0000000 -0.0700000
v -0.8000000 0.0000000 0.0700000
v -0.8000000 2.0000000 0.0700000
v -0.8000000 0.0000000 -0.0700000
v -0.8000000 2.0000000 0.0700000
v -0.8000000 2.0000000 -0.0700000
v -0.6800000 0.0000000 -0.0700000
v -0.6800000 2.0000000 -0.0700000
v -0.6800000 2.0000000 0.0700000
v -0.6800000 0.0000000 -0.0700000
v -0.6800000 2.0000000 0.0700000
v -0.6800000 0.0000000 0.0700000
v -0.8000000 0.0000000 -0.0700000
v -0.6800000 0.0000000 -0.0700000
v -0.6800000 0.0000000 0.0700000
v -0.8000000 0.0000000 -0.0700000
v -0.6800000 0.0000000 0.0700000
v -0.8000000 0.0000000 0.0700000
v -0.8000000 2.0000000 -0.0700000
v -0.8000000 2.0000000 0.0700000
v -0.6800000 2.0000000 0.0700000
v -0.8000000 2.0000000 -0.0700000
v -0.6800000 2.0000000 0.0700000
v -0.6800000 2.0000000 -0.0700000
v 0.6800000 0.0000000 -0.0700000
v 0.6800000 2.0000000 -0.0700000
v 0.8000000 2.0000000 -0.0700000
v 0.6800000 0.0000000 -0.0700000
v 0.8000000 2.0000000 -0.0700000
v 0.8000000 0.0000000 -0.0700000
v 0.6800000 0.0000000 0.0700000
v 0.8000000 0.0000000 0.0700000
v 0.8000000 2.0000000 0.0700000
v 0.6800000 0.0000000 0.0700000
v 0.8000000 2.0000000 0.0700000
v 0.6800000 2.0000000 0.0700000
v 0.6800000 0.0000000 -0.0700000
v 0.6800000 0.0000000 0.0700000
v 0.6800000 2.0000000 0.0700000
v 0.6800000 0.0000000 -0.0700000
v 0.6800000 2.0000000 0.0700000
v 0.6800000 2.0000000 -0.0700000
v 0.8000000 0.0000000 -0.0700000
v 0.8000000 2.0000000 -0.0700000
v 0.8000000 2.0000000 0.0700000
v 0.8000000 0.0000000 -0.0700000
v 0.8000000 2.0000000 0.0700000
v 0.8000000 0.0000000 0.0700000
v 0.6800000 0.0000000 -0.0700000
v 0.8000000 0.0000000 -0.0700000
v 0.8000000 0.0000000 0.0700000
v 0.6800000 0.0000000 -0.0700000
v 0.8000000 0.0000000 0.0700000
v 0.6800000 0.0000000 0.0700000
v 0.6800000 2.0000000 -0.0700000
v 0.6800000 2.0000000 0.0700000
v 0.8000000 2.0000000 0.0700000
v 0.6800000 2.0000000 -0.0700000
v 0.8000000 2.0000000 0.0700000
v 0.8000000 2.0000000 -0.0700000
v -0.8200000 1.3250000 0.0650000
v -0.8200000 1.3250000 -0.0650000
v 0.9000000 1.3250000 -0.0650000
v -0.8200000 1.3250000 0.0650000
v 0.9000000 1.3250000 -0.0650000
v 0.9000000 1.3250000 0.0650000
v -0.8200000 1.3250000 -0.0650000
v -0.8200000 1.4550000 -0.0650000
v 0.9000000 1.4550000 -0.0650000
v -0.8200000 1.3250000 -0.0650000
v 0.9000000 1.4550000 -0.0650000
v 0.9000000 1.3250000 -0.0650000
v -0.8200000 1.4550000 -0.0650000
v -0.8200000 1.4550000 0.0650000
v 0.9000000 1.4550000 0.0650000
v -0.8200000 1.4550000 -0.0650000
v 0.9000000 1.4550000 0.0650000
v 0.9000000 1.4550000 -0.0650000
v -0.8200000 1.4550000 0.0650000
v -0.8200000 1.3250000 0.0650000
v 0.9000000 1.3250000 0.0650000
v -0.8200000 1.4550000 0.0650000
v 0.9000000 1.3250000 0.0650000
v 0.9000000 1.4550000 0.0650000
v -0.8200000 1.4550000 0.0650000
v -0.8200000 1.4550000 -0.0650000
v -0.8200000 1.3250000 -0.0650000
v -0.8200000 1.4550000 0.0650000
v -0.8200000 1.3250000 -0.0650000
v -0.8200000 1.3250000 0.0650000
v 0.9000000 1.3250000 0.0650000
v 0.9000000 1.3250000 -0.0650000
v 0.9000000 1.4550000 -0.0650000
v 0.9000000 1.3250000 0.0650000
v 0.9000000 1.4550000 -0.0650000
v 0.9000000 1.4550000 0.0650000
v 0.8500000 1.3900000 0.0300000
v 0.8500000 1.3900000 -0.0300000
v 0.8500000 1.1200000 -0.0300000
v 0.8500000 1.3900000 0.0300000
v 0.8500000 1.1200000 -0.0300000
v 0.8500000 1.1200000 0.0300000
v 0.8500000 1.3900000 -0.0300000
v 0.9100000 1.3900000 -0.0300000
v 0.9100000 1.1200000 -0.0300000
v 0.8500000 1.3900000 -0.0300000
v 0.9100000 1.1200000 -0.0300000
v 0.8500000 1.1200000 -0.0300000
v 0.9100000 1.3900000 -0.0300000
v 0.9100000 1.3900000 0.0300000
v 0.9100000 1.1200000 0.0300000
v 0.9100000 1.3900000 -0.0300000
v 0.9100000 1.1200000 0.0300000
v 0.9100000 1.1200000 -0.0300000
v 0.9100000 1.3900000 0.0300000
v 0.8500000 1.3900000 0.0300000
v 0.8500000 1.1200000 0.0300000
v 0.9100000 1.3900000 0.0300000
v 0.8500000 1.1200000 0.0300000
v 0.9100000 1.1200000 0.0300000
v 0.9100000 1.3900000 0.0300000
v 0.9100000 1.3900000 -0.0300000
v 0.8500000 1.3900000 -0.0300000
v 0.9100000 1.3900000 0.0300000
v 0.8500000 1.3900000 -0.0300000
v 0.8500000 1.3900000 0.0300000
v 0.8500000 1.1200000 0.0300000
v 0.8500000 1.1200000 -0.0300000
v 0.9100000 1.1200000 -0.0300000
v 0.8500000 1.1200000 0.0300000
v 0.9100000 1.1200000 -0.0300000
v 0.9100000 1.1200000 0.0300000
v 0.8700000 1.0850000 0.0350000
v 0.8700000 1.0850000 -0.0350000
v 1.0200000 1.0850000 -0.0350000
v 0.8700000 1.0850000 0.0350000
v 1.0200000 1.0850000 -0.0350000
v 1.0200000 1.0850000 0.0350000
v 0.8700000 1.0850000 -0.0350000
v 0.8700000 1.1550000 -0.0350000
v 1.0200000 1.1550000 -0.0350000
v 0.8700000 1.0850000 -0.0350000
v 1.0200000 1.1550000 -0.0350000
v 1.0200000 1.0850000 -0.0350000
v 0.8700000 1.1550000 -0.0350000
v 0.8700000 1.1550000 0.0350000
v 1.0200000 1.1550000 0.0350000
v 0.8700000 1.1550000 -0.0350000
v 1.0200000 1.1550000 0.0350000
v 1.0200000 1.1550000 -0.0350000
v 0.8700000 1.1550000 0.0350000
v 0.8700000 1.0850000 0.0350000
v 1.0200000 1.0850000 0.0350000
v 0.8700000 1.1550000 0.0350000
v 1.0200000 1.0850000 0.0350000
v 1.0200000 1.1550000 0.0350000
v 0.8700000 1.1550000 0.0350000
v 0.8700000 1.1550000 -0.0350000
v 0.8700000 1.0850000 -0.0350000
v 0.8700000 1.1550000 0.0350000
v 0.8700000 1.0850000 -0.0350000
v 0.8700000 1.0850000 0.0350000
v 1.0200000 1.0850000 0.0350000
v 1.0200000 1.0850000 -0.0350000
v 1.0200000 1.1550000 -0.0350000
v 1.0200000 1.0850000 0.0350000
v 1.0200000 1.1550000 -0.0350000
v 1.0200000 1.1550000 0.0350000
v -0.0100000 1.3600000 0.0100000
v -0.0100000 1.3600000 -0.0100000
v -0.0100000 0.5500000 -0.0100000
v -0.0100000 1.3600000 0.0100000
v -0.0100000 0.5500000 -0.0100000
v -0.0100000 0.5500000 0.0100000
v -0.0100000 1.3600000 -0.0100000
v 0.0100000 1.3600000 -0.0100000
v 0.0100000 0.5500000 -0.0100000
v -0.0100000 1.3600000 -0.0100000
v 0.0100000 0.5500000 -0.0100000
v -0.0100000 0.5500000 -0.0100000
v 0.0100000 1.3600000 -0.0100000
v 0.0100000 1.3600000 0.0100000
v 0.0100000 0.5500000 0.0100000
v 0.0100000 1.3600000 -0.0100000
v 0.0100000 0.5500000 0.0100000
v 0.0100000 0.5500000 -0.0100000
v 0.0100000 1.3600000 0.0100000
v -0.0100000 1.3600000 0.0100000
v -0.0100000 0.5500000 0.0100000
v 0.0100000 1.3600000 0.0100000
v -0.0100000 0.5500000 0.0100000
v 0.0100000 0.5500000 0.0100000
v 0.0000000 2.2600000 -0.7400000
v -0.9500000 1.8800000 -0.7400000
v -0.9500000 1.9800000 -0.7400000
v 0.0000000 2.2600000 0.7400000
v -0.9500000 1.9800000 0.7400000
v -0.9500000 1.8800000 0.7400000
v 0.0000000 2.2600000 -0.7400000
v 0.0000000 2.1600000 -0.7400000
v -0.9500000 1.8800000 -0.7400000
v 0.0000000 2.2600000 0.7400000
v -0.9500000 1.8800000 0.7400000
v 0.0000000 2.1600000 0.7400000
v 0.0000000 2.2600000 -0.7400000
v -0.9500000 1.9800000 -0.7400000
v -0.9500000 1.9800000 0.7400000
v 0.0000000 2.2600000 -0.7400000
v -0.9500000 1.9800000 0.7400000
v 0.0000000 2.2600000 0.7400000
v -0.9500000 1.9800000 -0.7400000
v -0.9500000 1.8800000 -0.7400000
v -0.9500000 1.8800000 0.7400000
v -0.9500000 1.9800000 -0.7400000
v -0.9500000 1.8800000 0.7400000
v -0.9500000 1.9800000 0.7400000
v -0.9500000 1.8800000 -0.7400000
v 0.0000000 2.1600000 -0.7400000
v 0.0000000 2.1600000 0.7400000
v -0.9500000 1.8800000 -0.7400000
v 0.0000000 2.1600000 0.7400000
v -0.9500000 1.8800000 0.7400000
v 0.0000000 2.1600000 -0.7400000
v 0.0000000 2.2600000 -0.7400000
v 0.0000000 2.2600000 0.7400000
v 0.0000000 2.1600000 -0.7400000
v 0.0000000 2.2600000 0.7400000
v 0.0000000 2.1600000 0.7400000
v 0.0000000 2.1600000 -0.7400000
v 0.9500000 1.9800000 -0.7400000
v 0.9500000 1.8800000 -0.7400000
v 0.0000000 2.1600000 0.7400000
v 0.9500000 1.8800000 0.7400000
v 0.9500000 1.9800000 0.7400000
v 0.0000000 2.1600000 -0.7400000
v 0.0000000 2.2600000 -0.7400000
v 0.9500000 1.9800000 -0.7400000
v 0.0000000 2.1600000 0.7400000
v 0.9500000 1.9800000 0.7400000
v 0.0000000 2.2600000 0.7400000
v 0.0000000 2.1600000 -0.7400000
v 0.9500000 1.8800000 -0.7400000
v 0.9500000 1.8800000 0.7400000
v 0.0000000 2.1600000 -0.7400000
v 0.9500000 1.8800000 0.7400000
v 0.0000000 2.1600000 0.7400000
v 0.9500000 1.8800000 -0.7400000
v 0.9500000 1.9800000 -0.7400000
v 0.9500000 1.9800000 0.7400000
v 0.9500000 1.8800000 -0.7400000
v 0.9500000 1.9800000 0.7400000
v 0.9500000 1.8800000 0.7400000
v 0.9500000 1.9800000 -0.7400000
v 0.0000000 2.2600000 -0.7400000
v 0.0000000 2.2600000 0.7400000
v 0.9500000 1.9800000 -0.7400000
v 0.0000000 2.2600000 0.7400000
v 0.9500000 1.9800000 0.7400000
v 0.0000000 2.2600000 -0.7400000
v 0.0000000 2.1600000 -0.7400000
v 0.0000000 2.1600000 0.7400000
v 0.0000000 2.2600000 -0.7400000
v 0.0000000 2.1600000 0.7400000
v 0.0000000 2.2600000 0.7400000
vn 0.9238795 0.0000000 0.3826834
vn 0.9238795 0.0000000 0.3826834
vn -0.9238795 0.0000000 -0.3826834
vn -0.9238795 0.0000000 -0.3826834
vn 0.0000000 1.0000000 -0.0000000
vn 0.0000000 1.0000000 0.0000000
vn 0.3826834 0.0000000 0.9238795
vn 0.3826834 0.0000000 0.9238795
vn -0.3826834 0.0000000 -0.9238795
vn -0.3826834 0.0000000 -0.9238795
vn 0.0000000 1.0000000 0.0000000
vn 0.0000000 1.0000000 -0.0000000
vn -0.3826834 0.0000000 0.9238795
vn -0.3826834 0.0000000 0.9238795
vn 0.3826834 0.0000000 -0.9238795
vn 0.3826834 0.0000000 -0.9238795
vn 0.0000000 1.0000000 0.0000000
vn 0.0000000 1.0000000 -0.0000000
vn -0.9238795 0.0000000 0.3826834
vn -0.9238795 0.0000000 0.3826834
vn 0.9238795 0.0000000 -0.3826834
vn 0.9238795 0.0000000 -0.3826834
vn 0.0000000 1.0000000 0.0000000
vn 0.0000000 1.0000000 0.0000000
vn -0.9238795 0.0000000 -0.3826834
vn -0.9238795 -0.0000000 -0.3826834
vn 0.9238795 0.0000000 0.3826834
vn 0.9238795 -0.0000000 0.3826834
vn 0.0000000 1.0000000 0.0000000
vn 0.0000000 1.0000000 0.0000000
vn -0.3826834 0.0000000 -0.9238795
vn -0.3826834 -0.0000000 -0.9238795
vn 0.3826834 0.0000000 0.9238795
vn 0.3826834 -0.0000000 0.9238795
vn 0.0000000 1.0000000 0.0000000
vn 0.0000000 1.0000000 0.0000000
vn 0.3826834 0.0000000 -0.9238795
vn 0.3826834 0.0000000 -0.9238795
vn -0.3826834 0.0000000 0.9238795
vn -0.3826834 0.0000000 0.9238795
vn -0.0000000 1.0000000 0.0000000
vn 0.0000000 1.0000000 0.0000000
vn 0.9238795 0.0000000 -0.3826834
vn 0.9238795 0.0000000 -0.3826834
vn -0.9238795 0.0000000 0.3826834
vn -0.9238795 0.0000000 0.3826834
vn 0.0000000 1.0000000 0.0000000
vn -0.0000000 1.0000000 0.0000000
vn 0.0000000 0.0000000 -1.0000000
vn 0.0000000 0.0000000 -1.0000000
vn 0.0000000 0.0000000 1.0000000
vn 0.0000000 0.0000000 1.0000000
vn -1.0000000 0.0000000 0.0000000
vn -1.0000000 0.0000000 0.0000000
vn 1.0000000 0.0000000 0.0000000
vn 1.0000000 0.0000000 0.0000000
vn 0.0000000 -1.0000000 0.0000000
vn 0.0000000 -1.0000000 0.0000000
vn 0.0000000 1.0000000 0.0000000
vn 0.0000000 1.0000000 0.0000000
vn 0.0000000 0.0000000 -1.0000000
vn 0.0000000 0.0000000 -1.0000000
vn 0.0000000 0.0000000 1.0000000
vn 0.0000000 0.0000000 1.0000000
vn -1.0000000 0.0000000 0.0000000
vn -1.0000000 0.0000000 0.0000000
vn 1.0000000 0.0000000 0.0000000
vn 1.0000000 0.0000000 0.0000000
vn 0.0000000 -1.0000000 0.0000000
vn 0.0000000 -1.0000000 0.0000000
vn 0.0000000 1.0000000 0.0000000
vn 0.0000000 1.0000000 0.0000000
vn 0.0000000 -1.0000000 0.0000000
vn 0.0000000 -1.0000000 0.0000000
vn 0.0000000 0.0000000 -1.0000000
vn 0.0000000 0.0000000 -1.0000000
vn 0.0000000 1.0000000 0.0000000
vn 0.0000000 1.0000000 0.0000000
vn 0.0000000 0.0000000 1.0000000
vn -0.0000000 0.0000000 1.0000000
vn -1.0000000 0.0000000 -0.0000000
vn -1.0000000 -0.0000000 0.0000000
vn 1.0000000 0.0000000 0.0000000
vn 1.0000000 -0.0000000 0.0000000
vn -1.0000000 0.0000000 -0.0000000
vn -1.0000000 -0.0000000 0.0000000
vn 0.0000000 0.0000000 -1.0000000
vn 0.0000000 0.0000000 -1.0000000
vn 1.0000000 0.0000000 -0.0000000
vn 1.0000000 0.0000000 0.0000000
vn 0.0000000 0.0000000 1.0000000
vn 0.0000000 0.0000000 1.0000000
vn 0.0000000 1.0000000 0.0000000
vn 0.0000000 1.0000000 0.0000000
vn 0.0000000 -1.0000000 0.0000000
vn 0.0000000 -1.0000000 0.0000000
vn 0.0000000 -1.0000000 0.0000000
vn 0.0000000 -1.0000000 0.0000000
vn 0.0000000 0.0000000 -1.0000000
vn 0.0000000 0.0000000 -1.0000000
vn 0.0000000 1.0000000 0.0000000
vn 0.0000000 1.0000000 0.0000000
vn 0.0000000 0.0000000 1.0000000
vn -0.0000000 0.0000000 1.0000000
vn -1.0000000 0.0000000 -0.0000000
vn -1.0000000 -0.0000000 0.0000000
vn 1.0000000 0.0000000 0.0000000
vn 1.0000000 -0.0000000 0.0000000
vn -1.0000000 0.0000000 -0.0000000
vn -1.0000000 -0.0000000 0.0000000
vn 0.0000000 0.0000000 -1.0000000
vn 0.0000000 0.0000000 -1.0000000
vn 1.0000000 0.0000000 -0.0000000
vn 1.0000000 0.0000000 0.0000000
vn 0.0000000 0.0000000 1.0000000
vn 0.0000000 0.0000000 1.0000000
vn 0.0000000 0.0000000 -1.0000000
vn 0.0000000 0.0000000 1.0000000
vn 0.0000000 -0.0000000 -1.0000000
vn 0.0000000 0.0000000 1.0000000
vn -0.2827129 0.9592046 0.0000000
vn -0.2827129 0.9592046 0.0000000
vn -1.0000000 0.0000000 0.0000000
vn -1.0000000 0.0000000 0.0000000
vn 0.2827129 -0.9592046 0.0000000
vn 0.2827129 -0.9592046 0.0000000
vn 1.0000000 0.0000000 0.0000000
vn 1.0000000 0.0000000 0.0000000
vn 0.0000000 0.0000000 -1.0000000
vn 0.0000000 0.0000000 1.0000000
vn 0.0000000 0.0000000 -1.0000000
vn -0.0000000 0.0000000 1.0000000
vn -0.2827129 -0.9592046 0.0000000
vn -0.2827129 -0.9592046 0.0000000
vn 1.0000000 0.0000000 0.0000000
vn 1.0000000 0.0000000 0.0000000
vn 0.2827129 0.9592046 0.0000000
vn 0.2827129 0.9592046 -0.0000000
vn -1.0000000 0.0000000 0.0000000
vn -1.0000000 0.0000000 0.0000000
usemtl stone
f 1//1 2//1 3//1
usemtl stone
f 4//2 5//2 6//2
usemtl concrete_dark
f 7//3 8//3 9//3
usemtl concrete_dark
f 10//4 11//4 12//4
usemtl plaster_worn
f 13//5 14//5 15//5
usemtl plaster_worn
f 16//6 17//6 18//6
usemtl stone
f 19//7 20//7 21//7
usemtl stone
f 22//8 23//8 24//8
usemtl concrete_dark
f 25//9 26//9 27//9
usemtl concrete_dark
f 28//10 29//10 30//10
usemtl plaster_worn
f 31//11 32//11 33//11
usemtl plaster_worn
f 34//12 35//12 36//12
usemtl stone
f 37//13 38//13 39//13
usemtl stone
f 40//14 41//14 42//14
usemtl concrete_dark
f 43//15 44//15 45//15
usemtl concrete_dark
f 46//16 47//16 48//16
usemtl plaster_worn
f 49//17 50//17 51//17
usemtl plaster_worn
f 52//18 53//18 54//18
usemtl stone
f 55//19 56//19 57//19
usemtl stone
f 58//20 59//20 60//20
usemtl concrete_dark
f 61//21 62//21 63//21
usemtl concrete_dark
f 64//22 65//22 66//22
usemtl plaster_worn
f 67//23 68//23 69//23
usemtl plaster_worn
f 70//24 71//24 72//24
usemtl stone
f 73//25 74//25 75//25
usemtl stone
f 76//26 77//26 78//26
usemtl concrete_dark
f 79//27 80//27 81//27
usemtl concrete_dark
f 82//28 83//28 84//28
usemtl plaster_worn
f 85//29 86//29 87//29
usemtl plaster_worn
f 88//30 89//30 90//30
usemtl stone
f 91//31 92//31 93//31
usemtl stone
f 94//32 95//32 96//32
usemtl concrete_dark
f 97//33 98//33 99//33
usemtl concrete_dark
f 100//34 101//34 102//34
usemtl plaster_worn
f 103//35 104//35 105//35
usemtl plaster_worn
f 106//36 107//36 108//36
usemtl stone
f 109//37 110//37 111//37
usemtl stone
f 112//38 113//38 114//38
usemtl concrete_dark
f 115//39 116//39 117//39
usemtl concrete_dark
f 118//40 119//40 120//40
usemtl plaster_worn
f 121//41 122//41 123//41
usemtl plaster_worn
f 124//42 125//42 126//42
usemtl stone
f 127//43 128//43 129//43
usemtl stone
f 130//44 131//44 132//44
usemtl concrete_dark
f 133//45 134//45 135//45
usemtl concrete_dark
f 136//46 137//46 138//46
usemtl plaster_worn
f 139//47 140//47 141//47
usemtl plaster_worn
f 142//48 143//48 144//48
usemtl wood_dark
f 145//49 146//49 147//49
usemtl wood_dark
f 148//50 149//50 150//50
usemtl wood_dark
f 151//51 152//51 153//51
usemtl wood_dark
f 154//52 155//52 156//52
usemtl wood_dark
f 157//53 158//53 159//53
usemtl wood_dark
f 160//54 161//54 162//54
usemtl wood_dark
f 163//55 164//55 165//55
usemtl wood_dark
f 166//56 167//56 168//56
usemtl wood_dark
f 169//57 170//57 171//57
usemtl wood_dark
f 172//58 173//58 174//58
usemtl wood_dark
f 175//59 176//59 177//59
usemtl wood_dark
f 178//60 179//60 180//60
usemtl wood_dark
f 181//61 182//61 183//61
usemtl wood_dark
f 184//62 185//62 186//62
usemtl wood_dark
f 187//63 188//63 189//63
usemtl wood_dark
f 190//64 191//64 192//64
usemtl wood_dark
f 193//65 194//65 195//65
usemtl wood_dark
f 196//66 197//66 198//66
usemtl wood_dark
f 199//67 200//67 201//67
usemtl wood_dark
f 202//68 203//68 204//68
usemtl wood_dark
f 205//69 206//69 207//69
usemtl wood_dark
f 208//70 209//70 210//70
usemtl wood_dark
f 211//71 212//71 213//71
usemtl wood_dark
f 214//72 215//72 216//72
usemtl wood
f 217//73 218//73 219//73
usemtl wood
f 220//74 221//74 222//74
usemtl wood
f 223//75 224//75 225//75
usemtl wood
f 226//76 227//76 228//76
usemtl wood
f 229//77 230//77 231//77
usemtl wood
f 232//78 233//78 234//78
usemtl wood
f 235//79 236//79 237//79
usemtl wood
f 238//80 239//80 240//80
usemtl wood
f 241//81 242//81 243//81
usemtl wood
f 244//82 245//82 246//82
usemtl wood
f 247//83 248//83 249//83
usemtl wood
f 250//84 251//84 252//84
usemtl steel_dark
f 253//85 254//85 255//85
usemtl steel_dark
f 256//86 257//86 258//86
usemtl steel_dark
f 259//87 260//87 261//87
usemtl steel_dark
f 262//88 263//88 264//88
usemtl steel_dark
f 265//89 266//89 267//89
usemtl steel_dark
f 268//90 269//90 270//90
usemtl steel_dark
f 271//91 272//91 273//91
usemtl steel_dark
f 274//92 275//92 276//92
usemtl steel_dark
f 277//93 278//93 279//93
usemtl steel_dark
f 280//94 281//94 282//94
usemtl steel_dark
f 283//95 284//95 285//95
usemtl steel_dark
f 286//96 287//96 288//96
usemtl wood
f 289//97 290//97 291//97
usemtl wood
f 292//98 293//98 294//98
usemtl wood
f 295//99 296//99 297//99
usemtl wood
f 298//100 299//100 300//100
usemtl wood
f 301//101 302//101 303//101
usemtl wood
f 304//102 305//102 306//102
usemtl wood
f 307//103 308//103 309//103
usemtl wood
f 310//104 311//104 312//104
usemtl wood
f 313//105 314//105 315//105
usemtl wood
f 316//106 317//106 318//106
usemtl wood
f 319//107 320//107 321//107
usemtl wood
f 322//108 323//108 324//108
usemtl wood_dark
f 325//109 326//109 327//109
usemtl wood_dark
f 328//110 329//110 330//110
usemtl wood_dark
f 331//111 332//111 333//111
usemtl wood_dark
f 334//112 335//112 336//112
usemtl wood_dark
f 337//113 338//113 339//113
usemtl wood_dark
f 340//114 341//114 342//114
usemtl wood_dark
f 343//115 344//115 345//115
usemtl wood_dark
f 346//116 347//116 348//116
usemtl roof
f 349//117 350//117 351//117
usemtl roof
f 352//118 353//118 354//118
usemtl roof
f 355//119 356//119 357//119
usemtl roof
f 358//120 359//120 360//120
usemtl roof
f 361//121 362//121 363//121
usemtl roof
f 364//122 365//122 366//122
usemtl roof
f 367//123 368//123 369//123
usemtl roof
f 370//124 371//124 372//124
usemtl roof
f 373//125 374//125 375//125
usemtl roof
f 376//126 377//126 378//126
usemtl roof
f 379//127 380//127 381//127
usemtl roof
f 382//128 383//128 384//128
usemtl roof
f 385//129 386//129 387//129
usemtl roof
f 388//130 389//130 390//130
usemtl roof
f 391//131 392//131 393//131
usemtl roof
f 394//132 395//132 396//132
usemtl roof
f 397//133 398//133 399//133
usemtl roof
f 400//134 401//134 402//134
usemtl roof
f 403//135 404//135 405//135
usemtl roof
f 406//136 407//136 408//136
usemtl roof
f 409//137 410//137 411//137
usemtl roof
f 412//138 413//138 414//138
usemtl roof
f 415//139 416//139 417//139
usemtl roof
f 418//140 419//140 420//140
