# Original Quiet Camp Ukrainian rural presentation asset
# Units: metres; Y up; no external geometry or textures
mtllib palette.mtl
o ua_wheat_patch
v -0.6486596 0.0006164 -0.4655293
v -0.6486596 0.0006164 -0.4475293
v -0.6011443 0.6927006 -0.4475293
v -0.6486596 0.0006164 -0.4655293
v -0.6011443 0.6927006 -0.4475293
v -0.6011443 0.6927006 -0.4655293
v -0.6486596 0.0006164 -0.4475293
v -0.6307019 -0.0006164 -0.4475293
v -0.5831865 0.6914678 -0.4475293
v -0.6486596 0.0006164 -0.4475293
v -0.5831865 0.6914678 -0.4475293
v -0.6011443 0.6927006 -0.4475293
v -0.6307019 -0.0006164 -0.4475293
v -0.6307019 -0.0006164 -0.4655293
v -0.5831865 0.6914678 -0.4655293
v -0.6307019 -0.0006164 -0.4475293
v -0.5831865 0.6914678 -0.4655293
v -0.5831865 0.6914678 -0.4475293
v -0.6307019 -0.0006164 -0.4655293
v -0.6486596 0.0006164 -0.4655293
v -0.6011443 0.6927006 -0.4655293
v -0.6307019 -0.0006164 -0.4655293
v -0.6011443 0.6927006 -0.4655293
v -0.5831865 0.6914678 -0.4655293
v -0.5866654 0.8970842 -0.4598293
v -0.5921654 0.7720842 -0.4015293
v -0.5371654 0.7720842 -0.4565293
v -0.5960154 0.6470842 -0.4532293
v -0.5371654 0.7720842 -0.4565293
v -0.5921654 0.7720842 -0.4015293
v -0.5866654 0.8970842 -0.4598293
v -0.6471654 0.7720842 -0.4565293
v -0.5921654 0.7720842 -0.4015293
v -0.5960154 0.6470842 -0.4532293
v -0.5921654 0.7720842 -0.4015293
v -0.6471654 0.7720842 -0.4565293
v -0.5866654 0.8970842 -0.4598293
v -0.5921654 0.7720842 -0.5115293
v -0.6471654 0.7720842 -0.4565293
v -0.5960154 0.6470842 -0.4532293
v -0.6471654 0.7720842 -0.4565293
v -0.5921654 0.7720842 -0.5115293
v -0.5866654 0.8970842 -0.4598293
v -0.5371654 0.7720842 -0.4565293
v -0.5921654 0.7720842 -0.5115293
v -0.5960154 0.6470842 -0.4532293
v -0.5921654 0.7720842 -0.5115293
v -0.5371654 0.7720842 -0.4565293
v -0.5961428 0.8975085 -0.4605293
v -0.5961428 0.8975085 -0.4525293
v -0.5881428 0.9725085 -0.4525293
v -0.5961428 0.8975085 -0.4605293
v -0.5881428 0.9725085 -0.4525293
v -0.5881428 0.9725085 -0.4605293
v -0.5961428 0.8975085 -0.4525293
v -0.5881880 0.8966599 -0.4525293
v -0.5801880 0.9716599 -0.4525293
v -0.5961428 0.8975085 -0.4525293
v -0.5801880 0.9716599 -0.4525293
v -0.5881428 0.9725085 -0.4525293
v -0.5881880 0.8966599 -0.4525293
v -0.5881880 0.8966599 -0.4605293
v -0.5801880 0.9716599 -0.4605293
v -0.5881880 0.8966599 -0.4525293
v -0.5801880 0.9716599 -0.4605293
v -0.5801880 0.9716599 -0.4525293
v -0.5881880 0.8966599 -0.4605293
v -0.5961428 0.8975085 -0.4605293
v -0.5881428 0.9725085 -0.4605293
v -0.5881880 0.8966599 -0.4605293
v -0.5881428 0.9725085 -0.4605293
v -0.5801880 0.9716599 -0.4605293
v -0.3237207 0.0006839 -0.4488304
v -0.3237207 0.0006839 -0.4308304
v -0.2719259 0.6803206 -0.4308304
v -0.3237207 0.0006839 -0.4488304
v -0.2719259 0.6803206 -0.4308304
v -0.2719259 0.6803206 -0.4488304
v -0.3237207 0.0006839 -0.4308304
v -0.3057727 -0.0006839 -0.4308304
v -0.2539779 0.6789528 -0.4308304
v -0.3237207 0.0006839 -0.4308304
v -0.2539779 0.6789528 -0.4308304
v -0.2719259 0.6803206 -0.4308304
v -0.3057727 -0.0006839 -0.4308304
v -0.3057727 -0.0006839 -0.4488304
v -0.2539779 0.6789528 -0.4488304
v -0.3057727 -0.0006839 -0.4308304
v -0.2539779 0.6789528 -0.4488304
v -0.2539779 0.6789528 -0.4308304
v -0.3057727 -0.0006839 -0.4488304
v -0.3237207 0.0006839 -0.4488304
v -0.2719259 0.6803206 -0.4488304
v -0.3057727 -0.0006839 -0.4488304
v -0.2719259 0.6803206 -0.4488304
v -0.2539779 0.6789528 -0.4488304
v -0.2574519 0.8846367 -0.4431304
v -0.2629519 0.7596367 -0.3848304
v -0.2079519 0.7596367 -0.4398304
v -0.2668019 0.6346367 -0.4365304
v -0.2079519 0.7596367 -0.4398304
v -0.2629519 0.7596367 -0.3848304
v -0.2574519 0.8846367 -0.4431304
v -0.3179519 0.7596367 -0.4398304
v -0.2629519 0.7596367 -0.3848304
v -0.2668019 0.6346367 -0.4365304
v -0.2629519 0.7596367 -0.3848304
v -0.3179519 0.7596367 -0.4398304
v -0.2574519 0.8846367 -0.4431304
v -0.2629519 0.7596367 -0.4948304
v -0.3179519 0.7596367 -0.4398304
v -0.2668019 0.6346367 -0.4365304
v -0.3179519 0.7596367 -0.4398304
v -0.2629519 0.7596367 -0.4948304
v -0.2574519 0.8846367 -0.4431304
v -0.2079519 0.7596367 -0.4398304
v -0.2629519 0.7596367 -0.4948304
v -0.2668019 0.6346367 -0.4365304
v -0.2629519 0.7596367 -0.4948304
v -0.2079519 0.7596367 -0.4398304
v -0.2669293 0.8850609 -0.4438304
v -0.2669293 0.8850609 -0.4358304
v -0.2589293 0.9600609 -0.4358304
v -0.2669293 0.8850609 -0.4438304
v -0.2589293 0.9600609 -0.4358304
v -0.2589293 0.9600609 -0.4438304
v -0.2669293 0.8850609 -0.4358304
v -0.2589745 0.8842124 -0.4358304
v -0.2509745 0.9592124 -0.4358304
v -0.2669293 0.8850609 -0.4358304
v -0.2509745 0.9592124 -0.4358304
v -0.2589293 0.9600609 -0.4358304
v -0.2589745 0.8842124 -0.4358304
v -0.2589745 0.8842124 -0.4438304
v -0.2509745 0.9592124 -0.4438304
v -0.2589745 0.8842124 -0.4358304
v -0.2509745 0.9592124 -0.4438304
v -0.2509745 0.9592124 -0.4358304
v -0.2589745 0.8842124 -0.4438304
v -0.2669293 0.8850609 -0.4438304
v -0.2589293 0.9600609 -0.4438304
v -0.2589745 0.8842124 -0.4438304
v -0.2589293 0.9600609 -0.4438304
v -0.2509745 0.9592124 -0.4438304
v 0.0367145 0.0006147 -0.4531595
v 0.0367145 0.0006147 -0.4351595
v 0.0861549 0.7228501 -0.4351595
v 0.0367145 0.0006147 -0.4531595
v 0.0861549 0.7228501 -0.4351595
v 0.0861549 0.7228501 -0.4531595
v 0.0367145 0.0006147 -0.4351595
v 0.0546725 -0.0006147 -0.4351595
v 0.1041129 0.7216208 -0.4351595
v 0.0367145 0.0006147 -0.4351595
v 0.1041129 0.7216208 -0.4351595
v 0.0861549 0.7228501 -0.4351595
v 0.0546725 -0.0006147 -0.4351595
v 0.0546725 -0.0006147 -0.4531595
v 0.1041129 0.7216208 -0.4531595
v 0.0546725 -0.0006147 -0.4351595
v 0.1041129 0.7216208 -0.4531595
v 0.1041129 0.7216208 -0.4351595
v 0.0546725 -0.0006147 -0.4531595
v 0.0367145 0.0006147 -0.4531595
v 0.0861549 0.7228501 -0.4531595
v 0.0546725 -0.0006147 -0.4531595
v 0.0861549 0.7228501 -0.4531595
v 0.1041129 0.7216208 -0.4531595
v 0.1006339 0.9272354 -0.4474595
v 0.0951339 0.8022354 -0.3891595
v 0.1501339 0.8022354 -0.4441595
v 0.0912839 0.6772354 -0.4408595
v 0.1501339 0.8022354 -0.4441595
v 0.0951339 0.8022354 -0.3891595
v 0.1006339 0.9272354 -0.4474595
v 0.0401339 0.8022354 -0.4441595
v 0.0951339 0.8022354 -0.3891595
v 0.0912839 0.6772354 -0.4408595
v 0.0951339 0.8022354 -0.3891595
v 0.0401339 0.8022354 -0.4441595
v 0.1006339 0.9272354 -0.4474595
v 0.0951339 0.8022354 -0.4991595
v 0.0401339 0.8022354 -0.4441595
v 0.0912839 0.6772354 -0.4408595
v 0.0401339 0.8022354 -0.4441595
v 0.0951339 0.8022354 -0.4991595
v 0.1006339 0.9272354 -0.4474595
v 0.1501339 0.8022354 -0.4441595
v 0.0951339 0.8022354 -0.4991595
v 0.0912839 0.6772354 -0.4408595
v 0.0951339 0.8022354 -0.4991595
v 0.1501339 0.8022354 -0.4441595
v 0.0911565 0.9276597 -0.4481595
v 0.0911565 0.9276597 -0.4401595
v 0.0991565 1.0026597 -0.4401595
v 0.0911565 0.9276597 -0.4481595
v 0.0991565 1.0026597 -0.4401595
v 0.0991565 1.0026597 -0.4481595
v 0.0911565 0.9276597 -0.4401595
v 0.0991114 0.9268112 -0.4401595
v 0.1071114 1.0018112 -0.4401595
v 0.0911565 0.9276597 -0.4401595
v 0.1071114 1.0018112 -0.4401595
v 0.0991565 1.0026597 -0.4401595
v 0.0991114 0.9268112 -0.4401595
v 0.0991114 0.9268112 -0.4481595
v 0.1071114 1.0018112 -0.4481595
v 0.0991114 0.9268112 -0.4401595
v 0.1071114 1.0018112 -0.4481595
v 0.1071114 1.0018112 -0.4401595
v 0.0991114 0.9268112 -0.4481595
v 0.0911565 0.9276597 -0.4481595
v 0.0991565 1.0026597 -0.4481595
v 0.0991114 0.9268112 -0.4481595
v 0.0991565 1.0026597 -0.4481595
v 0.1071114 1.0018112 -0.4481595
v 0.2257139 0.0006934 -0.4011241
v 0.2257139 0.0006934 -0.3831241
v 0.2845975 0.7626809 -0.3831241
v 0.2257139 0.0006934 -0.4011241
v 0.2845975 0.7626809 -0.3831241
v 0.2845975 0.7626809 -0.4011241
v 0.2257139 0.0006934 -0.3831241
v 0.2436604 -0.0006934 -0.3831241
v 0.3025440 0.7612940 -0.3831241
v 0.2257139 0.0006934 -0.3831241
v 0.3025440 0.7612940 -0.3831241
v 0.2845975 0.7626809 -0.3831241
v 0.2436604 -0.0006934 -0.3831241
v 0.2436604 -0.0006934 -0.4011241
v 0.3025440 0.7612940 -0.4011241
v 0.2436604 -0.0006934 -0.3831241
v 0.3025440 0.7612940 -0.4011241
v 0.3025440 0.7612940 -0.3831241
v 0.2436604 -0.0006934 -0.4011241
v 0.2257139 0.0006934 -0.4011241
v 0.2845975 0.7626809 -0.4011241
v 0.2436604 -0.0006934 -0.4011241
v 0.2845975 0.7626809 -0.4011241
v 0.3025440 0.7612940 -0.4011241
v 0.2990708 0.9669874 -0.3954241
v 0.2935708 0.8419874 -0.3371241
v 0.3485708 0.8419874 -0.3921241
v 0.2897208 0.7169874 -0.3888241
v 0.3485708 0.8419874 -0.3921241
v 0.2935708 0.8419874 -0.3371241
v 0.2990708 0.9669874 -0.3954241
v 0.2385708 0.8419874 -0.3921241
v 0.2935708 0.8419874 -0.3371241
v 0.2897208 0.7169874 -0.3888241
v 0.2935708 0.8419874 -0.3371241
v 0.2385708 0.8419874 -0.3921241
v 0.2990708 0.9669874 -0.3954241
v 0.2935708 0.8419874 -0.4471241
v 0.2385708 0.8419874 -0.3921241
v 0.2897208 0.7169874 -0.3888241
v 0.2385708 0.8419874 -0.3921241
v 0.2935708 0.8419874 -0.4471241
v 0.2990708 0.9669874 -0.3954241
v 0.3485708 0.8419874 -0.3921241
v 0.2935708 0.8419874 -0.4471241
v 0.2897208 0.7169874 -0.3888241
v 0.2935708 0.8419874 -0.4471241
v 0.3485708 0.8419874 -0.3921241
v 0.2895933 0.9674117 -0.3961241
v 0.2895933 0.9674117 -0.3881241
v 0.2975933 1.0424117 -0.3881241
v 0.2895933 0.9674117 -0.3961241
v 0.2975933 1.0424117 -0.3881241
v 0.2975933 1.0424117 -0.3961241
v 0.2895933 0.9674117 -0.3881241
v 0.2975482 0.9665632 -0.3881241
v 0.3055482 1.0415632 -0.3881241
v 0.2895933 0.9674117 -0.3881241
v 0.3055482 1.0415632 -0.3881241
v 0.2975933 1.0424117 -0.3881241
v 0.2975482 0.9665632 -0.3881241
v 0.2975482 0.9665632 -0.3961241
v 0.3055482 1.0415632 -0.3961241
v 0.2975482 0.9665632 -0.3881241
v 0.3055482 1.0415632 -0.3961241
v 0.3055482 1.0415632 -0.3881241
v 0.2975482 0.9665632 -0.3961241
v 0.2895933 0.9674117 -0.3961241
v 0.2975933 1.0424117 -0.3961241
v 0.2975482 0.9665632 -0.3961241
v 0.2975933 1.0424117 -0.3961241
v 0.3055482 1.0415632 -0.3961241
v 0.5096925 0.0007128 -0.4244449
v 0.5096925 0.0007128 -0.4064449
v 0.5624410 0.6646672 -0.4064449
v 0.5096925 0.0007128 -0.4244449
v 0.5624410 0.6646672 -0.4064449
v 0.5624410 0.6646672 -0.4244449
v 0.5096925 0.0007128 -0.4064449
v 0.5276360 -0.0007128 -0.4064449
v 0.5803845 0.6632417 -0.4064449
v 0.5096925 0.0007128 -0.4064449
v 0.5803845 0.6632417 -0.4064449
v 0.5624410 0.6646672 -0.4064449
v 0.5276360 -0.0007128 -0.4064449
v 0.5276360 -0.0007128 -0.4244449
v 0.5803845 0.6632417 -0.4244449
v 0.5276360 -0.0007128 -0.4064449
v 0.5803845 0.6632417 -0.4244449
v 0.5803845 0.6632417 -0.4064449
v 0.5276360 -0.0007128 -0.4244449
v 0.5096925 0.0007128 -0.4244449
v 0.5624410 0.6646672 -0.4244449
v 0.5276360 -0.0007128 -0.4244449
v 0.5624410 0.6646672 -0.4244449
v 0.5803845 0.6632417 -0.4244449
v 0.5769128 0.8689545 -0.4187449
v 0.5714128 0.7439545 -0.3604449
v 0.6264128 0.7439545 -0.4154449
v 0.5675628 0.6189545 -0.4121449
v 0.6264128 0.7439545 -0.4154449
v 0.5714128 0.7439545 -0.3604449
v 0.5769128 0.8689545 -0.4187449
v 0.5164128 0.7439545 -0.4154449
v 0.5714128 0.7439545 -0.3604449
v 0.5675628 0.6189545 -0.4121449
v 0.5714128 0.7439545 -0.3604449
v 0.5164128 0.7439545 -0.4154449
v 0.5769128 0.8689545 -0.4187449
v 0.5714128 0.7439545 -0.4704449
v 0.5164128 0.7439545 -0.4154449
v 0.5675628 0.6189545 -0.4121449
v 0.5164128 0.7439545 -0.4154449
v 0.5714128 0.7439545 -0.4704449
v 0.5769128 0.8689545 -0.4187449
v 0.6264128 0.7439545 -0.4154449
v 0.5714128 0.7439545 -0.4704449
v 0.5675628 0.6189545 -0.4121449
v 0.5714128 0.7439545 -0.4704449
v 0.6264128 0.7439545 -0.4154449
v 0.5674353 0.8693787 -0.4194449
v 0.5674353 0.8693787 -0.4114449
v 0.5754353 0.9443787 -0.4114449
v 0.5674353 0.8693787 -0.4194449
v 0.5754353 0.9443787 -0.4114449
v 0.5754353 0.9443787 -0.4194449
v 0.5674353 0.8693787 -0.4114449
v 0.5753902 0.8685302 -0.4114449
v 0.5833902 0.9435302 -0.4114449
v 0.5674353 0.8693787 -0.4114449
v 0.5833902 0.9435302 -0.4114449
v 0.5754353 0.9443787 -0.4114449
v 0.5753902 0.8685302 -0.4114449
v 0.5753902 0.8685302 -0.4194449
v 0.5833902 0.9435302 -0.4194449
v 0.5753902 0.8685302 -0.4114449
v 0.5833902 0.9435302 -0.4194449
v 0.5833902 0.9435302 -0.4114449
v 0.5753902 0.8685302 -0.4194449
v 0.5674353 0.8693787 -0.4194449
v 0.5754353 0.9443787 -0.4194449
v 0.5753902 0.8685302 -0.4194449
v 0.5754353 0.9443787 -0.4194449
v 0.5833902 0.9435302 -0.4194449
v -0.5767264 0.0009455 -0.1832039
v -0.5767264 0.0009455 -0.1652039
v -0.5053586 0.6764894 -0.1652039
v -0.5767264 0.0009455 -0.1832039
v -0.5053586 0.6764894 -0.1652039
v -0.5053586 0.6764894 -0.1832039
v -0.5767264 0.0009455 -0.1652039
v -0.5588260 -0.0009455 -0.1652039
v -0.4874583 0.6745983 -0.1652039
v -0.5767264 0.0009455 -0.1652039
v -0.4874583 0.6745983 -0.1652039
v -0.5053586 0.6764894 -0.1652039
v -0.5588260 -0.0009455 -0.1652039
v -0.5588260 -0.0009455 -0.1832039
v -0.4874583 0.6745983 -0.1832039
v -0.5588260 -0.0009455 -0.1652039
v -0.4874583 0.6745983 -0.1832039
v -0.4874583 0.6745983 -0.1652039
v -0.5588260 -0.0009455 -0.1832039
v -0.5767264 0.0009455 -0.1832039
v -0.5053586 0.6764894 -0.1832039
v -0.5588260 -0.0009455 -0.1832039
v -0.5053586 0.6764894 -0.1832039
v -0.4874583 0.6745983 -0.1832039
v -0.4909084 0.8805438 -0.1775039
v -0.4964084 0.7555438 -0.1192039
v -0.4414084 0.7555438 -0.1742039
v -0.5002584 0.6305438 -0.1709039
v -0.4414084 0.7555438 -0.1742039
v -0.4964084 0.7555438 -0.1192039
v -0.4909084 0.8805438 -0.1775039
v -0.5514084 0.7555438 -0.1742039
v -0.4964084 0.7555438 -0.1192039
v -0.5002584 0.6305438 -0.1709039
v -0.4964084 0.7555438 -0.1192039
v -0.5514084 0.7555438 -0.1742039
v -0.4909084 0.8805438 -0.1775039
v -0.4964084 0.7555438 -0.2292039
v -0.5514084 0.7555438 -0.1742039
v -0.5002584 0.6305438 -0.1709039
v -0.5514084 0.7555438 -0.1742039
v -0.4964084 0.7555438 -0.2292039
v -0.4909084 0.8805438 -0.1775039
v -0.4414084 0.7555438 -0.1742039
v -0.4964084 0.7555438 -0.2292039
v -0.5002584 0.6305438 -0.1709039
v -0.4964084 0.7555438 -0.2292039
v -0.4414084 0.7555438 -0.1742039
v -0.5003859 0.8809681 -0.1782039
v -0.5003859 0.8809681 -0.1702039
v -0.4923859 0.9559681 -0.1702039
v -0.5003859 0.8809681 -0.1782039
v -0.4923859 0.9559681 -0.1702039
v -0.4923859 0.9559681 -0.1782039
v -0.5003859 0.8809681 -0.1702039
v -0.4924310 0.8801196 -0.1702039
v -0.4844310 0.9551196 -0.1702039
v -0.5003859 0.8809681 -0.1702039
v -0.4844310 0.9551196 -0.1702039
v -0.4923859 0.9559681 -0.1702039
v -0.4924310 0.8801196 -0.1702039
v -0.4924310 0.8801196 -0.1782039
v -0.4844310 0.9551196 -0.1782039
v -0.4924310 0.8801196 -0.1702039
v -0.4844310 0.9551196 -0.1782039
v -0.4844310 0.9551196 -0.1702039
v -0.4924310 0.8801196 -0.1782039
v -0.5003859 0.8809681 -0.1782039
v -0.4923859 0.9559681 -0.1782039
v -0.4924310 0.8801196 -0.1782039
v -0.4923859 0.9559681 -0.1782039
v -0.4844310 0.9551196 -0.1782039
v -0.3261497 0.0008557 -0.1457376
v -0.3261497 0.0008557 -0.1277376
v -0.2531070 0.7656059 -0.1277376
v -0.3261497 0.0008557 -0.1457376
v -0.2531070 0.7656059 -0.1277376
v -0.2531070 0.7656059 -0.1457376
v -0.3261497 0.0008557 -0.1277376
v -0.3082312 -0.0008557 -0.1277376
v -0.2351886 0.7638945 -0.1277376
v -0.3261497 0.0008557 -0.1277376
v -0.2351886 0.7638945 -0.1277376
v -0.2531070 0.7656059 -0.1277376
v -0.3082312 -0.0008557 -0.1277376
v -0.3082312 -0.0008557 -0.1457376
v -0.2351886 0.7638945 -0.1457376
v -0.3082312 -0.0008557 -0.1277376
v -0.2351886 0.7638945 -0.1457376
v -0.2351886 0.7638945 -0.1277376
v -0.3082312 -0.0008557 -0.1457376
v -0.3261497 0.0008557 -0.1457376
v -0.2531070 0.7656059 -0.1457376
v -0.3082312 -0.0008557 -0.1457376
v -0.2531070 0.7656059 -0.1457376
v -0.2351886 0.7638945 -0.1457376
v -0.2386478 0.9697502 -0.1400376
v -0.2441478 0.8447502 -0.0817376
v -0.1891478 0.8447502 -0.1367376
v -0.2479978 0.7197502 -0.1334376
v -0.1891478 0.8447502 -0.1367376
v -0.2441478 0.8447502 -0.0817376
v -0.2386478 0.9697502 -0.1400376
v -0.2991478 0.8447502 -0.1367376
v -0.2441478 0.8447502 -0.0817376
v -0.2479978 0.7197502 -0.1334376
v -0.2441478 0.8447502 -0.0817376
v -0.2991478 0.8447502 -0.1367376
v -0.2386478 0.9697502 -0.1400376
v -0.2441478 0.8447502 -0.1917376
v -0.2991478 0.8447502 -0.1367376
v -0.2479978 0.7197502 -0.1334376
v -0.2991478 0.8447502 -0.1367376
v -0.2441478 0.8447502 -0.1917376
v -0.2386478 0.9697502 -0.1400376
v -0.1891478 0.8447502 -0.1367376
v -0.2441478 0.8447502 -0.1917376
v -0.2479978 0.7197502 -0.1334376
v -0.2441478 0.8447502 -0.1917376
v -0.1891478 0.8447502 -0.1367376
v -0.2481252 0.9701745 -0.1407376
v -0.2481252 0.9701745 -0.1327376
v -0.2401252 1.0451745 -0.1327376
v -0.2481252 0.9701745 -0.1407376
v -0.2401252 1.0451745 -0.1327376
v -0.2401252 1.0451745 -0.1407376
v -0.2481252 0.9701745 -0.1327376
v -0.2401704 0.9693260 -0.1327376
v -0.2321704 1.0443260 -0.1327376
v -0.2481252 0.9701745 -0.1327376
v -0.2321704 1.0443260 -0.1327376
v -0.2401252 1.0451745 -0.1327376
v -0.2401704 0.9693260 -0.1327376
v -0.2401704 0.9693260 -0.1407376
v -0.2321704 1.0443260 -0.1407376
v -0.2401704 0.9693260 -0.1327376
v -0.2321704 1.0443260 -0.1407376
v -0.2321704 1.0443260 -0.1327376
v -0.2401704 0.9693260 -0.1407376
v -0.2481252 0.9701745 -0.1407376
v -0.2401252 1.0451745 -0.1407376
v -0.2401704 0.9693260 -0.1407376
v -0.2401252 1.0451745 -0.1407376
v -0.2321704 1.0443260 -0.1407376
v -0.0067634 0.0007740 -0.1856236
v -0.0067634 0.0007740 -0.1676236
v 0.0615753 0.7925001 -0.1676236
v -0.0067634 0.0007740 -0.1856236
v 0.0615753 0.7925001 -0.1676236
v 0.0615753 0.7925001 -0.1856236
v -0.0067634 0.0007740 -0.1676236
v 0.0111700 -0.0007740 -0.1676236
v 0.0795086 0.7909522 -0.1676236
v -0.0067634 0.0007740 -0.1676236
v 0.0795086 0.7909522 -0.1676236
v 0.0615753 0.7925001 -0.1676236
v 0.0111700 -0.0007740 -0.1676236
v 0.0111700 -0.0007740 -0.1856236
v 0.0795086 0.7909522 -0.1856236
v 0.0111700 -0.0007740 -0.1676236
v 0.0795086 0.7909522 -0.1856236
v 0.0795086 0.7909522 -0.1676236
v 0.0111700 -0.0007740 -0.1856236
v -0.0067634 0.0007740 -0.1856236
v 0.0615753 0.7925001 -0.1856236
v 0.0111700 -0.0007740 -0.1856236
v 0.0615753 0.7925001 -0.1856236
v 0.0795086 0.7909522 -0.1856236
v 0.0760419 0.9967261 -0.1799236
v 0.0705419 0.8717261 -0.1216236
v 0.1255419 0.8717261 -0.1766236
v 0.0666919 0.7467261 -0.1733236
v 0.1255419 0.8717261 -0.1766236
v 0.0705419 0.8717261 -0.1216236
v 0.0760419 0.9967261 -0.1799236
v 0.0155419 0.8717261 -0.1766236
v 0.0705419 0.8717261 -0.1216236
v 0.0666919 0.7467261 -0.1733236
v 0.0705419 0.8717261 -0.1216236
v 0.0155419 0.8717261 -0.1766236
v 0.0760419 0.9967261 -0.1799236
v 0.0705419 0.8717261 -0.2316236
v 0.0155419 0.8717261 -0.1766236
v 0.0666919 0.7467261 -0.1733236
v 0.0155419 0.8717261 -0.1766236
v 0.0705419 0.8717261 -0.2316236
v 0.0760419 0.9967261 -0.1799236
v 0.1255419 0.8717261 -0.1766236
v 0.0705419 0.8717261 -0.2316236
v 0.0666919 0.7467261 -0.1733236
v 0.0705419 0.8717261 -0.2316236
v 0.1255419 0.8717261 -0.1766236
v 0.0665645 0.9971504 -0.1806236
v 0.0665645 0.9971504 -0.1726236
v 0.0745645 1.0721504 -0.1726236
v 0.0665645 0.9971504 -0.1806236
v 0.0745645 1.0721504 -0.1726236
v 0.0745645 1.0721504 -0.1806236
v 0.0665645 0.9971504 -0.1726236
v 0.0745194 0.9963019 -0.1726236
v 0.0825194 1.0713019 -0.1726236
v 0.0665645 0.9971504 -0.1726236
v 0.0825194 1.0713019 -0.1726236
v 0.0745645 1.0721504 -0.1726236
v 0.0745194 0.9963019 -0.1726236
v 0.0745194 0.9963019 -0.1806236
v 0.0825194 1.0713019 -0.1806236
v 0.0745194 0.9963019 -0.1726236
v 0.0825194 1.0713019 -0.1806236
v 0.0825194 1.0713019 -0.1726236
v 0.0745194 0.9963019 -0.1806236
v 0.0665645 0.9971504 -0.1806236
v 0.0745645 1.0721504 -0.1806236
v 0.0745194 0.9963019 -0.1806236
v 0.0745645 1.0721504 -0.1806236
v 0.0825194 1.0713019 -0.1806236
v 0.2174657 0.0005115 -0.1553109
v 0.2174657 0.0005115 -0.1373109
v 0.2601262 0.7498486 -0.1373109
v 0.2174657 0.0005115 -0.1553109
v 0.2601262 0.7498486 -0.1373109
v 0.2601262 0.7498486 -0.1553109
v 0.2174657 0.0005115 -0.1373109
v 0.2354366 -0.0005115 -0.1373109
v 0.2780971 0.7488255 -0.1373109
v 0.2174657 0.0005115 -0.1373109
v 0.2780971 0.7488255 -0.1373109
v 0.2601262 0.7498486 -0.1373109
v 0.2354366 -0.0005115 -0.1373109
v 0.2354366 -0.0005115 -0.1553109
v 0.2780971 0.7488255 -0.1553109
v 0.2354366 -0.0005115 -0.1373109
v 0.2780971 0.7488255 -0.1553109
v 0.2780971 0.7488255 -0.1373109
v 0.2354366 -0.0005115 -0.1553109
v 0.2174657 0.0005115 -0.1553109
v 0.2601262 0.7498486 -0.1553109
v 0.2354366 -0.0005115 -0.1553109
v 0.2601262 0.7498486 -0.1553109
v 0.2780971 0.7488255 -0.1553109
v 0.2746116 0.9543371 -0.1496109
v 0.2691116 0.8293371 -0.0913109
v 0.3241116 0.8293371 -0.1463109
v 0.2652616 0.7043371 -0.1430109
v 0.3241116 0.8293371 -0.1463109
v 0.2691116 0.8293371 -0.0913109
v 0.2746116 0.9543371 -0.1496109
v 0.2141116 0.8293371 -0.1463109
v 0.2691116 0.8293371 -0.0913109
v 0.2652616 0.7043371 -0.1430109
v 0.2691116 0.8293371 -0.0913109
v 0.2141116 0.8293371 -0.1463109
v 0.2746116 0.9543371 -0.1496109
v 0.2691116 0.8293371 -0.2013109
v 0.2141116 0.8293371 -0.1463109
v 0.2652616 0.7043371 -0.1430109
v 0.2141116 0.8293371 -0.1463109
v 0.2691116 0.8293371 -0.2013109
v 0.2746116 0.9543371 -0.1496109
v 0.3241116 0.8293371 -0.1463109
v 0.2691116 0.8293371 -0.2013109
v 0.2652616 0.7043371 -0.1430109
v 0.2691116 0.8293371 -0.2013109
v 0.3241116 0.8293371 -0.1463109
v 0.2651342 0.9547613 -0.1503109
v 0.2651342 0.9547613 -0.1423109
v 0.2731342 1.0297613 -0.1423109
v 0.2651342 0.9547613 -0.1503109
v 0.2731342 1.0297613 -0.1423109
v 0.2731342 1.0297613 -0.1503109
v 0.2651342 0.9547613 -0.1423109
v 0.2730891 0.9539128 -0.1423109
v 0.2810891 1.0289128 -0.1423109
v 0.2651342 0.9547613 -0.1423109
v 0.2810891 1.0289128 -0.1423109
v 0.2731342 1.0297613 -0.1423109
v 0.2730891 0.9539128 -0.1423109
v 0.2730891 0.9539128 -0.1503109
v 0.2810891 1.0289128 -0.1503109
v 0.2730891 0.9539128 -0.1423109
v 0.2810891 1.0289128 -0.1503109
v 0.2810891 1.0289128 -0.1423109
v 0.2730891 0.9539128 -0.1503109
v 0.2651342 0.9547613 -0.1503109
v 0.2731342 1.0297613 -0.1503109
v 0.2730891 0.9539128 -0.1503109
v 0.2731342 1.0297613 -0.1503109
v 0.2810891 1.0289128 -0.1503109
v 0.5030006 0.0006141 -0.1061978
v 0.5030006 0.0006141 -0.0881978
v 0.5515470 0.7104658 -0.0881978
v 0.5030006 0.0006141 -0.1061978
v 0.5515470 0.7104658 -0.0881978
v 0.5515470 0.7104658 -0.1061978
v 0.5030006 0.0006141 -0.0881978
v 0.5209586 -0.0006141 -0.0881978
v 0.5695051 0.7092377 -0.0881978
v 0.5030006 0.0006141 -0.0881978
v 0.5695051 0.7092377 -0.0881978
v 0.5515470 0.7104658 -0.0881978
v 0.5209586 -0.0006141 -0.0881978
v 0.5209586 -0.0006141 -0.1061978
v 0.5695051 0.7092377 -0.1061978
v 0.5209586 -0.0006141 -0.0881978
v 0.5695051 0.7092377 -0.1061978
v 0.5695051 0.7092377 -0.0881978
v 0.5209586 -0.0006141 -0.1061978
v 0.5030006 0.0006141 -0.1061978
v 0.5515470 0.7104658 -0.1061978
v 0.5209586 -0.0006141 -0.1061978
v 0.5515470 0.7104658 -0.1061978
v 0.5695051 0.7092377 -0.1061978
v 0.5660260 0.9148517 -0.1004978
v 0.5605260 0.7898517 -0.0421978
v 0.6155260 0.7898517 -0.0971978
v 0.5566760 0.6648517 -0.0938978
v 0.6155260 0.7898517 -0.0971978
v 0.5605260 0.7898517 -0.0421978
v 0.5660260 0.9148517 -0.1004978
v 0.5055260 0.7898517 -0.0971978
v 0.5605260 0.7898517 -0.0421978
v 0.5566760 0.6648517 -0.0938978
v 0.5605260 0.7898517 -0.0421978
v 0.5055260 0.7898517 -0.0971978
v 0.5660260 0.9148517 -0.1004978
v 0.5605260 0.7898517 -0.1521978
v 0.5055260 0.7898517 -0.0971978
v 0.5566760 0.6648517 -0.0938978
v 0.5055260 0.7898517 -0.0971978
v 0.5605260 0.7898517 -0.1521978
v 0.5660260 0.9148517 -0.1004978
v 0.6155260 0.7898517 -0.0971978
v 0.5605260 0.7898517 -0.1521978
v 0.5566760 0.6648517 -0.0938978
v 0.5605260 0.7898517 -0.1521978
v 0.6155260 0.7898517 -0.0971978
v 0.5565486 0.9152760 -0.1011978
v 0.5565486 0.9152760 -0.0931978
v 0.5645486 0.9902760 -0.0931978
v 0.5565486 0.9152760 -0.1011978
v 0.5645486 0.9902760 -0.0931978
v 0.5645486 0.9902760 -0.1011978
v 0.5565486 0.9152760 -0.0931978
v 0.5645035 0.9144275 -0.0931978
v 0.5725035 0.9894275 -0.0931978
v 0.5565486 0.9152760 -0.0931978
v 0.5725035 0.9894275 -0.0931978
v 0.5645486 0.9902760 -0.0931978
v 0.5645035 0.9144275 -0.0931978
v 0.5645035 0.9144275 -0.1011978
v 0.5725035 0.9894275 -0.1011978
v 0.5645035 0.9144275 -0.0931978
v 0.5725035 0.9894275 -0.1011978
v 0.5725035 0.9894275 -0.0931978
v 0.5645035 0.9144275 -0.1011978
v 0.5565486 0.9152760 -0.1011978
v 0.5645486 0.9902760 -0.1011978
v 0.5645035 0.9144275 -0.1011978
v 0.5645486 0.9902760 -0.1011978
v 0.5725035 0.9894275 -0.1011978
v -0.5614762 0.0009205 0.0912372
v -0.5614762 0.0009205 0.1092372
v -0.4930311 0.6666187 0.1092372
v -0.5614762 0.0009205 0.0912372
v -0.4930311 0.6666187 0.1092372
v -0.4930311 0.6666187 0.0912372
v -0.5614762 0.0009205 0.1092372
v -0.5435706 -0.0009205 0.1092372
v -0.4751255 0.6647777 0.1092372
v -0.5614762 0.0009205 0.1092372
v -0.4751255 0.6647777 0.1092372
v -0.4930311 0.6666187 0.1092372
v -0.5435706 -0.0009205 0.1092372
v -0.5435706 -0.0009205 0.0912372
v -0.4751255 0.6647777 0.0912372
v -0.5435706 -0.0009205 0.1092372
v -0.4751255 0.6647777 0.0912372
v -0.4751255 0.6647777 0.1092372
v -0.5435706 -0.0009205 0.0912372
v -0.5614762 0.0009205 0.0912372
v -0.4930311 0.6666187 0.0912372
v -0.5435706 -0.0009205 0.0912372
v -0.4930311 0.6666187 0.0912372
v -0.4751255 0.6647777 0.0912372
v -0.4785783 0.8706982 0.0969372
v -0.4840783 0.7456982 0.1552372
v -0.4290783 0.7456982 0.1002372
v -0.4879283 0.6206982 0.1035372
v -0.4290783 0.7456982 0.1002372
v -0.4840783 0.7456982 0.1552372
v -0.4785783 0.8706982 0.0969372
v -0.5390783 0.7456982 0.1002372
v -0.4840783 0.7456982 0.1552372
v -0.4879283 0.6206982 0.1035372
v -0.4840783 0.7456982 0.1552372
v -0.5390783 0.7456982 0.1002372
v -0.4785783 0.8706982 0.0969372
v -0.4840783 0.7456982 0.0452372
v -0.5390783 0.7456982 0.1002372
v -0.4879283 0.6206982 0.1035372
v -0.5390783 0.7456982 0.1002372
v -0.4840783 0.7456982 0.0452372
v -0.4785783 0.8706982 0.0969372
v -0.4290783 0.7456982 0.1002372
v -0.4840783 0.7456982 0.0452372
v -0.4879283 0.6206982 0.1035372
v -0.4840783 0.7456982 0.0452372
v -0.4290783 0.7456982 0.1002372
v -0.4880557 0.8711225 0.0962372
v -0.4880557 0.8711225 0.1042372
v -0.4800557 0.9461225 0.1042372
v -0.4880557 0.8711225 0.0962372
v -0.4800557 0.9461225 0.1042372
v -0.4800557 0.9461225 0.0962372
v -0.4880557 0.8711225 0.1042372
v -0.4801008 0.8702740 0.1042372
v -0.4721008 0.9452740 0.1042372
v -0.4880557 0.8711225 0.1042372
v -0.4721008 0.9452740 0.1042372
v -0.4800557 0.9461225 0.1042372
v -0.4801008 0.8702740 0.1042372
v -0.4801008 0.8702740 0.0962372
v -0.4721008 0.9452740 0.0962372
v -0.4801008 0.8702740 0.1042372
v -0.4721008 0.9452740 0.0962372
v -0.4721008 0.9452740 0.1042372
v -0.4801008 0.8702740 0.0962372
v -0.4880557 0.8711225 0.0962372
v -0.4800557 0.9461225 0.0962372
v -0.4801008 0.8702740 0.0962372
v -0.4800557 0.9461225 0.0962372
v -0.4721008 0.9452740 0.0962372
v -0.2858490 0.0008526 0.1841447
v -0.2858490 0.0008526 0.2021447
v -0.2125513 0.7710899 0.2021447
v -0.2858490 0.0008526 0.1841447
v -0.2125513 0.7710899 0.2021447
v -0.2125513 0.7710899 0.1841447
v -0.2858490 0.0008526 0.2021447
v -0.2679299 -0.0008526 0.2021447
v -0.1946322 0.7693847 0.2021447
v -0.2858490 0.0008526 0.2021447
v -0.1946322 0.7693847 0.2021447
v -0.2125513 0.7710899 0.2021447
v -0.2679299 -0.0008526 0.2021447
v -0.2679299 -0.0008526 0.1841447
v -0.1946322 0.7693847 0.1841447
v -0.2679299 -0.0008526 0.2021447
v -0.1946322 0.7693847 0.1841447
v -0.1946322 0.7693847 0.2021447
v -0.2679299 -0.0008526 0.1841447
v -0.2858490 0.0008526 0.1841447
v -0.2125513 0.7710899 0.1841447
v -0.2679299 -0.0008526 0.1841447
v -0.2125513 0.7710899 0.1841447
v -0.1946322 0.7693847 0.1841447
v -0.1980918 0.9752373 0.1898447
v -0.2035918 0.8502373 0.2481447
v -0.1485918 0.8502373 0.1931447
v -0.2074418 0.7252373 0.1964447
v -0.1485918 0.8502373 0.1931447
v -0.2035918 0.8502373 0.2481447
v -0.1980918 0.9752373 0.1898447
v -0.2585918 0.8502373 0.1931447
v -0.2035918 0.8502373 0.2481447
v -0.2074418 0.7252373 0.1964447
v -0.2035918 0.8502373 0.2481447
v -0.2585918 0.8502373 0.1931447
v -0.1980918 0.9752373 0.1898447
v -0.2035918 0.8502373 0.1381447
v -0.2585918 0.8502373 0.1931447
v -0.2074418 0.7252373 0.1964447
v -0.2585918 0.8502373 0.1931447
v -0.2035918 0.8502373 0.1381447
v -0.1980918 0.9752373 0.1898447
v -0.1485918 0.8502373 0.1931447
v -0.2035918 0.8502373 0.1381447
v -0.2074418 0.7252373 0.1964447
v -0.2035918 0.8502373 0.1381447
v -0.1485918 0.8502373 0.1931447
v -0.2075692 0.9756616 0.1891447
v -0.2075692 0.9756616 0.1971447
v -0.1995692 1.0506616 0.1971447
v -0.2075692 0.9756616 0.1891447
v -0.1995692 1.0506616 0.1971447
v -0.1995692 1.0506616 0.1891447
v -0.2075692 0.9756616 0.1971447
v -0.1996143 0.9748130 0.1971447
v -0.1916143 1.0498130 0.1971447
v -0.2075692 0.9756616 0.1971447
v -0.1916143 1.0498130 0.1971447
v -0.1995692 1.0506616 0.1971447
v -0.1996143 0.9748130 0.1971447
v -0.1996143 0.9748130 0.1891447
v -0.1916143 1.0498130 0.1891447
v -0.1996143 0.9748130 0.1971447
v -0.1916143 1.0498130 0.1891447
v -0.1916143 1.0498130 0.1971447
v -0.1996143 0.9748130 0.1891447
v -0.2075692 0.9756616 0.1891447
v -0.1995692 1.0506616 0.1891447
v -0.1996143 0.9748130 0.1891447
v -0.1995692 1.0506616 0.1891447
v -0.1916143 1.0498130 0.1891447
v -0.0468348 0.0007035 0.0728494
v -0.0468348 0.0007035 0.0908494
v 0.0037064 0.6453359 0.0908494
v -0.0468348 0.0007035 0.0728494
v 0.0037064 0.6453359 0.0908494
v 0.0037064 0.6453359 0.0728494
v -0.0468348 0.0007035 0.0908494
v -0.0288899 -0.0007035 0.0908494
v 0.0216513 0.6439290 0.0908494
v -0.0468348 0.0007035 0.0908494
v 0.0216513 0.6439290 0.0908494
v 0.0037064 0.6453359 0.0908494
v -0.0288899 -0.0007035 0.0908494
v -0.0288899 -0.0007035 0.0728494
v 0.0216513 0.6439290 0.0728494
v -0.0288899 -0.0007035 0.0908494
v 0.0216513 0.6439290 0.0728494
v 0.0216513 0.6439290 0.0908494
v -0.0288899 -0.0007035 0.0728494
v -0.0468348 0.0007035 0.0728494
v 0.0037064 0.6453359 0.0728494
v -0.0288899 -0.0007035 0.0728494
v 0.0037064 0.6453359 0.0728494
v 0.0216513 0.6439290 0.0728494
v 0.0181789 0.8496325 0.0785494
v 0.0126789 0.7246325 0.1368494
v 0.0676789 0.7246325 0.0818494
v 0.0088289 0.5996325 0.0851494
v 0.0676789 0.7246325 0.0818494
v 0.0126789 0.7246325 0.1368494
v 0.0181789 0.8496325 0.0785494
v -0.0423211 0.7246325 0.0818494
v 0.0126789 0.7246325 0.1368494
v 0.0088289 0.5996325 0.0851494
v 0.0126789 0.7246325 0.1368494
v -0.0423211 0.7246325 0.0818494
v 0.0181789 0.8496325 0.0785494
v 0.0126789 0.7246325 0.0268494
v -0.0423211 0.7246325 0.0818494
v 0.0088289 0.5996325 0.0851494
v -0.0423211 0.7246325 0.0818494
v 0.0126789 0.7246325 0.0268494
v 0.0181789 0.8496325 0.0785494
v 0.0676789 0.7246325 0.0818494
v 0.0126789 0.7246325 0.0268494
v 0.0088289 0.5996325 0.0851494
v 0.0126789 0.7246325 0.0268494
v 0.0676789 0.7246325 0.0818494
v 0.0087014 0.8500567 0.0778494
v 0.0087014 0.8500567 0.0858494
v 0.0167014 0.9250567 0.0858494
v 0.0087014 0.8500567 0.0778494
v 0.0167014 0.9250567 0.0858494
v 0.0167014 0.9250567 0.0778494
v 0.0087014 0.8500567 0.0858494
v 0.0166563 0.8492082 0.0858494
v 0.0246563 0.9242082 0.0858494
v 0.0087014 0.8500567 0.0858494
v 0.0246563 0.9242082 0.0858494
v 0.0167014 0.9250567 0.0858494
v 0.0166563 0.8492082 0.0858494
v 0.0166563 0.8492082 0.0778494
v 0.0246563 0.9242082 0.0778494
v 0.0166563 0.8492082 0.0858494
v 0.0246563 0.9242082 0.0778494
v 0.0246563 0.9242082 0.0858494
v 0.0166563 0.8492082 0.0778494
v 0.0087014 0.8500567 0.0778494
v 0.0167014 0.9250567 0.0778494
v 0.0166563 0.8492082 0.0778494
v 0.0167014 0.9250567 0.0778494
v 0.0246563 0.9242082 0.0778494
v 0.2715120 0.0005794 0.1224510
v 0.2715120 0.0005794 0.1404510
v 0.3225581 0.7918997 0.1404510
v 0.2715120 0.0005794 0.1224510
v 0.3225581 0.7918997 0.1404510
v 0.3225581 0.7918997 0.1224510
v 0.2715120 0.0005794 0.1404510
v 0.2894747 -0.0005794 0.1404510
v 0.3405207 0.7907410 0.1404510
v 0.2715120 0.0005794 0.1404510
v 0.3405207 0.7907410 0.1404510
v 0.3225581 0.7918997 0.1404510
v 0.2894747 -0.0005794 0.1404510
v 0.2894747 -0.0005794 0.1224510
v 0.3405207 0.7907410 0.1224510
v 0.2894747 -0.0005794 0.1404510
v 0.3405207 0.7907410 0.1224510
v 0.3405207 0.7907410 0.1404510
v 0.2894747 -0.0005794 0.1224510
v 0.2715120 0.0005794 0.1224510
v 0.3225581 0.7918997 0.1224510
v 0.2894747 -0.0005794 0.1224510
v 0.3225581 0.7918997 0.1224510
v 0.3405207 0.7907410 0.1224510
v 0.3370394 0.9963203 0.1281510
v 0.3315394 0.8713203 0.1864510
v 0.3865394 0.8713203 0.1314510
v 0.3276894 0.7463203 0.1347510
v 0.3865394 0.8713203 0.1314510
v 0.3315394 0.8713203 0.1864510
v 0.3370394 0.9963203 0.1281510
v 0.2765394 0.8713203 0.1314510
v 0.3315394 0.8713203 0.1864510
v 0.3276894 0.7463203 0.1347510
v 0.3315394 0.8713203 0.1864510
v 0.2765394 0.8713203 0.1314510
v 0.3370394 0.9963203 0.1281510
v 0.3315394 0.8713203 0.0764510
v 0.2765394 0.8713203 0.1314510
v 0.3276894 0.7463203 0.1347510
v 0.2765394 0.8713203 0.1314510
v 0.3315394 0.8713203 0.0764510
v 0.3370394 0.9963203 0.1281510
v 0.3865394 0.8713203 0.1314510
v 0.3315394 0.8713203 0.0764510
v 0.3276894 0.7463203 0.1347510
v 0.3315394 0.8713203 0.0764510
v 0.3865394 0.8713203 0.1314510
v 0.3275620 0.9967446 0.1274510
v 0.3275620 0.9967446 0.1354510
v 0.3355620 1.0717446 0.1354510
v 0.3275620 0.9967446 0.1274510
v 0.3355620 1.0717446 0.1354510
v 0.3355620 1.0717446 0.1274510
v 0.3275620 0.9967446 0.1354510
v 0.3355168 0.9958961 0.1354510
v 0.3435168 1.0708961 0.1354510
v 0.3275620 0.9967446 0.1354510
v 0.3435168 1.0708961 0.1354510
v 0.3355620 1.0717446 0.1354510
v 0.3355168 0.9958961 0.1354510
v 0.3355168 0.9958961 0.1274510
v 0.3435168 1.0708961 0.1274510
v 0.3355168 0.9958961 0.1354510
v 0.3435168 1.0708961 0.1274510
v 0.3435168 1.0708961 0.1354510
v 0.3355168 0.9958961 0.1274510
v 0.3275620 0.9967446 0.1274510
v 0.3355620 1.0717446 0.1274510
v 0.3355168 0.9958961 0.1274510
v 0.3355620 1.0717446 0.1274510
v 0.3435168 1.0708961 0.1274510
v 0.6257545 0.0009356 0.1266709
v 0.6257545 0.0009356 0.1446709
v 0.6939334 0.6532297 0.1446709
v 0.6257545 0.0009356 0.1266709
v 0.6939334 0.6532297 0.1446709
v 0.6939334 0.6532297 0.1266709
v 0.6257545 0.0009356 0.1446709
v 0.6436570 -0.0009356 0.1446709
v 0.7118359 0.6513585 0.1446709
v 0.6257545 0.0009356 0.1446709
v 0.7118359 0.6513585 0.1446709
v 0.6939334 0.6532297 0.1446709
v 0.6436570 -0.0009356 0.1446709
v 0.6436570 -0.0009356 0.1266709
v 0.7118359 0.6513585 0.1266709
v 0.6436570 -0.0009356 0.1446709
v 0.7118359 0.6513585 0.1266709
v 0.7118359 0.6513585 0.1446709
v 0.6436570 -0.0009356 0.1266709
v 0.6257545 0.0009356 0.1266709
v 0.6939334 0.6532297 0.1266709
v 0.6436570 -0.0009356 0.1266709
v 0.6939334 0.6532297 0.1266709
v 0.7118359 0.6513585 0.1266709
v 0.7083847 0.8572941 0.1323709
v 0.7028847 0.7322941 0.1906709
v 0.7578847 0.7322941 0.1356709
v 0.6990347 0.6072941 0.1389709
v 0.7578847 0.7322941 0.1356709
v 0.7028847 0.7322941 0.1906709
v 0.7083847 0.8572941 0.1323709
v 0.6478847 0.7322941 0.1356709
v 0.7028847 0.7322941 0.1906709
v 0.6990347 0.6072941 0.1389709
v 0.7028847 0.7322941 0.1906709
v 0.6478847 0.7322941 0.1356709
v 0.7083847 0.8572941 0.1323709
v 0.7028847 0.7322941 0.0806709
v 0.6478847 0.7322941 0.1356709
v 0.6990347 0.6072941 0.1389709
v 0.6478847 0.7322941 0.1356709
v 0.7028847 0.7322941 0.0806709
v 0.7083847 0.8572941 0.1323709
v 0.7578847 0.7322941 0.1356709
v 0.7028847 0.7322941 0.0806709
v 0.6990347 0.6072941 0.1389709
v 0.7028847 0.7322941 0.0806709
v 0.7578847 0.7322941 0.1356709
v 0.6989072 0.8577184 0.1316709
v 0.6989072 0.8577184 0.1396709
v 0.7069072 0.9327184 0.1396709
v 0.6989072 0.8577184 0.1316709
v 0.7069072 0.9327184 0.1396709
v 0.7069072 0.9327184 0.1316709
v 0.6989072 0.8577184 0.1396709
v 0.7068621 0.8568698 0.1396709
v 0.7148621 0.9318698 0.1396709
v 0.6989072 0.8577184 0.1396709
v 0.7148621 0.9318698 0.1396709
v 0.7069072 0.9327184 0.1396709
v 0.7068621 0.8568698 0.1396709
v 0.7068621 0.8568698 0.1316709
v 0.7148621 0.9318698 0.1316709
v 0.7068621 0.8568698 0.1396709
v 0.7148621 0.9318698 0.1316709
v 0.7148621 0.9318698 0.1396709
v 0.7068621 0.8568698 0.1316709
v 0.6989072 0.8577184 0.1316709
v 0.7069072 0.9327184 0.1316709
v 0.7068621 0.8568698 0.1316709
v 0.7069072 0.9327184 0.1316709
v 0.7148621 0.9318698 0.1316709
v -0.5315527 0.0004385 0.3512704
v -0.5315527 0.0004385 0.3692704
v -0.4961372 0.7264691 0.3692704
v -0.5315527 0.0004385 0.3512704
v -0.4961372 0.7264691 0.3692704
v -0.4961372 0.7264691 0.3512704
v -0.5315527 0.0004385 0.3692704
v -0.5135740 -0.0004385 0.3692704
v -0.4781585 0.7255922 0.3692704
v -0.5315527 0.0004385 0.3692704
v -0.4781585 0.7255922 0.3692704
v -0.4961372 0.7264691 0.3692704
v -0.5135740 -0.0004385 0.3692704
v -0.5135740 -0.0004385 0.3512704
v -0.4781585 0.7255922 0.3512704
v -0.5135740 -0.0004385 0.3692704
v -0.4781585 0.7255922 0.3512704
v -0.4781585 0.7255922 0.3692704
v -0.5135740 -0.0004385 0.3512704
v -0.5315527 0.0004385 0.3512704
v -0.4961372 0.7264691 0.3512704
v -0.5135740 -0.0004385 0.3512704
v -0.4961372 0.7264691 0.3512704
v -0.4781585 0.7255922 0.3512704
v -0.4816479 0.9310307 0.3569704
v -0.4871479 0.8060307 0.4152704
v -0.4321479 0.8060307 0.3602704
v -0.4909979 0.6810307 0.3635704
v -0.4321479 0.8060307 0.3602704
v -0.4871479 0.8060307 0.4152704
v -0.4816479 0.9310307 0.3569704
v -0.5421479 0.8060307 0.3602704
v -0.4871479 0.8060307 0.4152704
v -0.4909979 0.6810307 0.3635704
v -0.4871479 0.8060307 0.4152704
v -0.5421479 0.8060307 0.3602704
v -0.4816479 0.9310307 0.3569704
v -0.4871479 0.8060307 0.3052704
v -0.5421479 0.8060307 0.3602704
v -0.4909979 0.6810307 0.3635704
v -0.5421479 0.8060307 0.3602704
v -0.4871479 0.8060307 0.3052704
v -0.4816479 0.9310307 0.3569704
v -0.4321479 0.8060307 0.3602704
v -0.4871479 0.8060307 0.3052704
v -0.4909979 0.6810307 0.3635704
v -0.4871479 0.8060307 0.3052704
v -0.4321479 0.8060307 0.3602704
v -0.4911253 0.9314549 0.3562704
v -0.4911253 0.9314549 0.3642704
v -0.4831253 1.0064549 0.3642704
v -0.4911253 0.9314549 0.3562704
v -0.4831253 1.0064549 0.3642704
v -0.4831253 1.0064549 0.3562704
v -0.4911253 0.9314549 0.3642704
v -0.4831704 0.9306064 0.3642704
v -0.4751704 1.0056064 0.3642704
v -0.4911253 0.9314549 0.3642704
v -0.4751704 1.0056064 0.3642704
v -0.4831253 1.0064549 0.3642704
v -0.4831704 0.9306064 0.3642704
v -0.4831704 0.9306064 0.3562704
v -0.4751704 1.0056064 0.3562704
v -0.4831704 0.9306064 0.3642704
v -0.4751704 1.0056064 0.3562704
v -0.4751704 1.0056064 0.3642704
v -0.4831704 0.9306064 0.3562704
v -0.4911253 0.9314549 0.3562704
v -0.4831253 1.0064549 0.3562704
v -0.4831704 0.9306064 0.3562704
v -0.4831253 1.0064549 0.3562704
v -0.4751704 1.0056064 0.3562704
v -0.3072207 0.0005687 0.4155352
v -0.3072207 0.0005687 0.4335352
v -0.2533416 0.8515375 0.4335352
v -0.3072207 0.0005687 0.4155352
v -0.2533416 0.8515375 0.4335352
v -0.2533416 0.8515375 0.4155352
v -0.3072207 0.0005687 0.4335352
v -0.2892566 -0.0005687 0.4335352
v -0.2353776 0.8504001 0.4335352
v -0.3072207 0.0005687 0.4335352
v -0.2353776 0.8504001 0.4335352
v -0.2533416 0.8515375 0.4335352
v -0.2892566 -0.0005687 0.4335352
v -0.2892566 -0.0005687 0.4155352
v -0.2353776 0.8504001 0.4155352
v -0.2892566 -0.0005687 0.4335352
v -0.2353776 0.8504001 0.4155352
v -0.2353776 0.8504001 0.4335352
v -0.2892566 -0.0005687 0.4155352
v -0.3072207 0.0005687 0.4155352
v -0.2533416 0.8515375 0.4155352
v -0.2892566 -0.0005687 0.4155352
v -0.2533416 0.8515375 0.4155352
v -0.2353776 0.8504001 0.4155352
v -0.2388596 1.0559688 0.4212352
v -0.2443596 0.9309688 0.4795352
v -0.1893596 0.9309688 0.4245352
v -0.2482096 0.8059688 0.4278352
v -0.1893596 0.9309688 0.4245352
v -0.2443596 0.9309688 0.4795352
v -0.2388596 1.0559688 0.4212352
v -0.2993596 0.9309688 0.4245352
v -0.2443596 0.9309688 0.4795352
v -0.2482096 0.8059688 0.4278352
v -0.2443596 0.9309688 0.4795352
v -0.2993596 0.9309688 0.4245352
v -0.2388596 1.0559688 0.4212352
v -0.2443596 0.9309688 0.3695352
v -0.2993596 0.9309688 0.4245352
v -0.2482096 0.8059688 0.4278352
v -0.2993596 0.9309688 0.4245352
v -0.2443596 0.9309688 0.3695352
v -0.2388596 1.0559688 0.4212352
v -0.1893596 0.9309688 0.4245352
v -0.2443596 0.9309688 0.3695352
v -0.2482096 0.8059688 0.4278352
v -0.2443596 0.9309688 0.3695352
v -0.1893596 0.9309688 0.4245352
v -0.2483370 1.0563931 0.4205352
v -0.2483370 1.0563931 0.4285352
v -0.2403370 1.1313931 0.4285352
v -0.2483370 1.0563931 0.4205352
v -0.2403370 1.1313931 0.4285352
v -0.2403370 1.1313931 0.4205352
v -0.2483370 1.0563931 0.4285352
v -0.2403821 1.0555446 0.4285352
v -0.2323821 1.1305446 0.4285352
v -0.2483370 1.0563931 0.4285352
v -0.2323821 1.1305446 0.4285352
v -0.2403370 1.1313931 0.4285352
v -0.2403821 1.0555446 0.4285352
v -0.2403821 1.0555446 0.4205352
v -0.2323821 1.1305446 0.4205352
v -0.2403821 1.0555446 0.4285352
v -0.2323821 1.1305446 0.4205352
v -0.2323821 1.1305446 0.4285352
v -0.2403821 1.0555446 0.4205352
v -0.2483370 1.0563931 0.4205352
v -0.2403370 1.1313931 0.4205352
v -0.2403821 1.0555446 0.4205352
v -0.2403370 1.1313931 0.4205352
v -0.2323821 1.1305446 0.4205352
v 0.0594145 0.0004657 0.4632620
v 0.0594145 0.0004657 0.4812620
v 0.1029129 0.8399149 0.4812620
v 0.0594145 0.0004657 0.4632620
v 0.1029129 0.8399149 0.4812620
v 0.1029129 0.8399149 0.4632620
v 0.0594145 0.0004657 0.4812620
v 0.0773904 -0.0004657 0.4812620
v 0.1208888 0.8389834 0.4812620
v 0.0594145 0.0004657 0.4812620
v 0.1208888 0.8389834 0.4812620
v 0.1029129 0.8399149 0.4812620
v 0.0773904 -0.0004657 0.4812620
v 0.0773904 -0.0004657 0.4632620
v 0.1208888 0.8389834 0.4632620
v 0.0773904 -0.0004657 0.4812620
v 0.1208888 0.8389834 0.4632620
v 0.1208888 0.8389834 0.4812620
v 0.0773904 -0.0004657 0.4632620
v 0.0594145 0.0004657 0.4632620
v 0.1029129 0.8399149 0.4632620
v 0.0773904 -0.0004657 0.4632620
v 0.1029129 0.8399149 0.4632620
v 0.1208888 0.8389834 0.4632620
v 0.1174008 1.0444492 0.4689620
v 0.1119008 0.9194492 0.5272620
v 0.1669008 0.9194492 0.4722620
v 0.1080508 0.7944492 0.4755620
v 0.1669008 0.9194492 0.4722620
v 0.1119008 0.9194492 0.5272620
v 0.1174008 1.0444492 0.4689620
v 0.0569008 0.9194492 0.4722620
v 0.1119008 0.9194492 0.5272620
v 0.1080508 0.7944492 0.4755620
v 0.1119008 0.9194492 0.5272620
v 0.0569008 0.9194492 0.4722620
v 0.1174008 1.0444492 0.4689620
v 0.1119008 0.9194492 0.4172620
v 0.0569008 0.9194492 0.4722620
v 0.1080508 0.7944492 0.4755620
v 0.0569008 0.9194492 0.4722620
v 0.1119008 0.9194492 0.4172620
v 0.1174008 1.0444492 0.4689620
v 0.1669008 0.9194492 0.4722620
v 0.1119008 0.9194492 0.4172620
v 0.1080508 0.7944492 0.4755620
v 0.1119008 0.9194492 0.4172620
v 0.1669008 0.9194492 0.4722620
v 0.1079234 1.0448734 0.4682620
v 0.1079234 1.0448734 0.4762620
v 0.1159234 1.1198734 0.4762620
v 0.1079234 1.0448734 0.4682620
v 0.1159234 1.1198734 0.4762620
v 0.1159234 1.1198734 0.4682620
v 0.1079234 1.0448734 0.4762620
v 0.1158783 1.0440249 0.4762620
v 0.1238783 1.1190249 0.4762620
v 0.1079234 1.0448734 0.4762620
v 0.1238783 1.1190249 0.4762620
v 0.1159234 1.1198734 0.4762620
v 0.1158783 1.0440249 0.4762620
v 0.1158783 1.0440249 0.4682620
v 0.1238783 1.1190249 0.4682620
v 0.1158783 1.0440249 0.4762620
v 0.1238783 1.1190249 0.4682620
v 0.1238783 1.1190249 0.4762620
v 0.1158783 1.0440249 0.4682620
v 0.1079234 1.0448734 0.4682620
v 0.1159234 1.1198734 0.4682620
v 0.1158783 1.0440249 0.4682620
v 0.1159234 1.1198734 0.4682620
v 0.1238783 1.1190249 0.4682620
v 0.2772700 0.0006292 0.4451410
v 0.2772700 0.0006292 0.4631410
v 0.3377956 0.8642746 0.4631410
v 0.2772700 0.0006292 0.4451410
v 0.3377956 0.8642746 0.4631410
v 0.3377956 0.8642746 0.4451410
v 0.2772700 0.0006292 0.4631410
v 0.2952260 -0.0006292 0.4631410
v 0.3557516 0.8630162 0.4631410
v 0.2772700 0.0006292 0.4631410
v 0.3557516 0.8630162 0.4631410
v 0.3377956 0.8642746 0.4631410
v 0.2952260 -0.0006292 0.4631410
v 0.2952260 -0.0006292 0.4451410
v 0.3557516 0.8630162 0.4451410
v 0.2952260 -0.0006292 0.4631410
v 0.3557516 0.8630162 0.4451410
v 0.3557516 0.8630162 0.4631410
v 0.2952260 -0.0006292 0.4451410
v 0.2772700 0.0006292 0.4451410
v 0.3377956 0.8642746 0.4451410
v 0.2952260 -0.0006292 0.4451410
v 0.3377956 0.8642746 0.4451410
v 0.3557516 0.8630162 0.4451410
v 0.3522736 1.0686454 0.4508410
v 0.3467736 0.9436454 0.5091410
v 0.4017736 0.9436454 0.4541410
v 0.3429236 0.8186454 0.4574410
v 0.4017736 0.9436454 0.4541410
v 0.3467736 0.9436454 0.5091410
v 0.3522736 1.0686454 0.4508410
v 0.2917736 0.9436454 0.4541410
v 0.3467736 0.9436454 0.5091410
v 0.3429236 0.8186454 0.4574410
v 0.3467736 0.9436454 0.5091410
v 0.2917736 0.9436454 0.4541410
v 0.3522736 1.0686454 0.4508410
v 0.3467736 0.9436454 0.3991410
v 0.2917736 0.9436454 0.4541410
v 0.3429236 0.8186454 0.4574410
v 0.2917736 0.9436454 0.4541410
v 0.3467736 0.9436454 0.3991410
v 0.3522736 1.0686454 0.4508410
v 0.4017736 0.9436454 0.4541410
v 0.3467736 0.9436454 0.3991410
v 0.3429236 0.8186454 0.4574410
v 0.3467736 0.9436454 0.3991410
v 0.4017736 0.9436454 0.4541410
v 0.3427961 1.0690696 0.4501410
v 0.3427961 1.0690696 0.4581410
v 0.3507961 1.1440696 0.4581410
v 0.3427961 1.0690696 0.4501410
v 0.3507961 1.1440696 0.4581410
v 0.3507961 1.1440696 0.4501410
v 0.3427961 1.0690696 0.4581410
v 0.3507510 1.0682211 0.4581410
v 0.3587510 1.1432211 0.4581410
v 0.3427961 1.0690696 0.4581410
v 0.3587510 1.1432211 0.4581410
v 0.3507961 1.1440696 0.4581410
v 0.3507510 1.0682211 0.4581410
v 0.3507510 1.0682211 0.4501410
v 0.3587510 1.1432211 0.4501410
v 0.3507510 1.0682211 0.4581410
v 0.3587510 1.1432211 0.4501410
v 0.3587510 1.1432211 0.4581410
v 0.3507510 1.0682211 0.4501410
v 0.3427961 1.0690696 0.4501410
v 0.3507961 1.1440696 0.4501410
v 0.3507510 1.0682211 0.4501410
v 0.3507961 1.1440696 0.4501410
v 0.3587510 1.1432211 0.4501410
v 0.5217352 0.0008098 0.4060622
v 0.5217352 0.0008098 0.4240622
v 0.5780610 0.6242991 0.4240622
v 0.5217352 0.0008098 0.4060622
v 0.5780610 0.6242991 0.4240622
v 0.5780610 0.6242991 0.4060622
v 0.5217352 0.0008098 0.4240622
v 0.5396622 -0.0008098 0.4240622
v 0.5959880 0.6226796 0.4240622
v 0.5217352 0.0008098 0.4240622
v 0.5959880 0.6226796 0.4240622
v 0.5780610 0.6242991 0.4240622
v 0.5396622 -0.0008098 0.4240622
v 0.5396622 -0.0008098 0.4060622
v 0.5959880 0.6226796 0.4060622
v 0.5396622 -0.0008098 0.4240622
v 0.5959880 0.6226796 0.4060622
v 0.5959880 0.6226796 0.4240622
v 0.5396622 -0.0008098 0.4060622
v 0.5217352 0.0008098 0.4060622
v 0.5780610 0.6242991 0.4060622
v 0.5396622 -0.0008098 0.4060622
v 0.5780610 0.6242991 0.4060622
v 0.5959880 0.6226796 0.4060622
v 0.5925245 0.8284893 0.4117622
v 0.5870245 0.7034893 0.4700622
v 0.6420245 0.7034893 0.4150622
v 0.5831745 0.5784893 0.4183622
v 0.6420245 0.7034893 0.4150622
v 0.5870245 0.7034893 0.4700622
v 0.5925245 0.8284893 0.4117622
v 0.5320245 0.7034893 0.4150622
v 0.5870245 0.7034893 0.4700622
v 0.5831745 0.5784893 0.4183622
v 0.5870245 0.7034893 0.4700622
v 0.5320245 0.7034893 0.4150622
v 0.5925245 0.8284893 0.4117622
v 0.5870245 0.7034893 0.3600622
v 0.5320245 0.7034893 0.4150622
v 0.5831745 0.5784893 0.4183622
v 0.5320245 0.7034893 0.4150622
v 0.5870245 0.7034893 0.3600622
v 0.5925245 0.8284893 0.4117622
v 0.6420245 0.7034893 0.4150622
v 0.5870245 0.7034893 0.3600622
v 0.5831745 0.5784893 0.4183622
v 0.5870245 0.7034893 0.3600622
v 0.6420245 0.7034893 0.4150622
v 0.5830471 0.8289136 0.4110622
v 0.5830471 0.8289136 0.4190622
v 0.5910471 0.9039136 0.4190622
v 0.5830471 0.8289136 0.4110622
v 0.5910471 0.9039136 0.4190622
v 0.5910471 0.9039136 0.4110622
v 0.5830471 0.8289136 0.4190622
v 0.5910019 0.8280651 0.4190622
v 0.5990019 0.9030651 0.4190622
v 0.5830471 0.8289136 0.4190622
v 0.5990019 0.9030651 0.4190622
v 0.5910471 0.9039136 0.4190622
v 0.5910019 0.8280651 0.4190622
v 0.5910019 0.8280651 0.4110622
v 0.5990019 0.9030651 0.4110622
v 0.5910019 0.8280651 0.4190622
v 0.5990019 0.9030651 0.4110622
v 0.5990019 0.9030651 0.4190622
v 0.5910019 0.8280651 0.4110622
v 0.5830471 0.8289136 0.4110622
v 0.5910471 0.9039136 0.4110622
v 0.5910019 0.8280651 0.4110622
v 0.5910471 0.9039136 0.4110622
v 0.5990019 0.9030651 0.4110622
vn -0.9976515 0.0684942 0.0000000
vn -0.9976515 0.0684942 0.0000000
vn -0.0000000 0.0000000 1.0000000
vn 0.0000000 0.0000000 1.0000000
vn 0.9976515 -0.0684942 0.0000000
vn 0.9976515 -0.0684942 0.0000000
vn 0.0000000 0.0000000 -1.0000000
vn 0.0000000 0.0000000 -1.0000000
vn 0.6775308 0.2861890 0.6775308
vn 0.6745846 -0.2997854 0.6745846
vn -0.6651153 0.3394749 0.6651153
vn -0.6825444 -0.2612780 0.6825444
vn -0.6727645 0.3078570 -0.6727645
vn -0.6757764 -0.2943682 -0.6757764
vn 0.6841289 0.2528541 -0.6841289
vn 0.6670807 -0.3316725 -0.6670807
vn -0.9943592 0.1060650 0.0000000
vn -0.9943592 0.1060650 0.0000000
vn -0.0000000 0.0000000 1.0000000
vn 0.0000000 0.0000000 1.0000000
vn 0.9943592 -0.1060650 0.0000000
vn 0.9943592 -0.1060650 0.0000000
vn 0.0000000 0.0000000 -1.0000000
vn 0.0000000 0.0000000 -1.0000000
vn -0.9971086 0.0759892 0.0000000
vn -0.9971086 0.0759892 0.0000000
vn -0.0000000 0.0000000 1.0000000
vn 0.0000000 0.0000000 1.0000000
vn 0.9971086 -0.0759892 0.0000000
vn 0.9971086 -0.0759892 0.0000000
vn 0.0000000 0.0000000 -1.0000000
vn 0.0000000 0.0000000 -1.0000000
vn 0.6775308 0.2861890 0.6775308
vn 0.6745846 -0.2997854 0.6745846
vn -0.6651153 0.3394749 0.6651153
vn -0.6825444 -0.2612780 0.6825444
vn -0.6727645 0.3078570 -0.6727645
vn -0.6757764 -0.2943682 -0.6757764
vn 0.6841289 0.2528541 -0.6841289
vn 0.6670807 -0.3316725 -0.6670807
vn -0.9943592 0.1060650 0.0000000
vn -0.9943592 0.1060650 0.0000000
vn -0.0000000 0.0000000 1.0000000
vn 0.0000000 0.0000000 1.0000000
vn 0.9943592 -0.1060650 0.0000000
vn 0.9943592 -0.1060650 0.0000000
vn 0.0000000 0.0000000 -1.0000000
vn 0.0000000 0.0000000 -1.0000000
vn -0.9976652 0.0682949 0.0000000
vn -0.9976652 0.0682949 0.0000000
vn -0.0000000 0.0000000 1.0000000
vn 0.0000000 0.0000000 1.0000000
vn 0.9976652 -0.0682949 0.0000000
vn 0.9976652 -0.0682949 0.0000000
vn 0.0000000 0.0000000 -1.0000000
vn 0.0000000 0.0000000 -1.0000000
vn 0.6775308 0.2861890 0.6775308
vn 0.6745846 -0.2997854 0.6745846
vn -0.6651153 0.3394749 0.6651153
vn -0.6825444 -0.2612780 0.6825444
vn -0.6727645 0.3078570 -0.6727645
vn -0.6757764 -0.2943682 -0.6757764
vn 0.6841289 0.2528541 -0.6841289
vn 0.6670807 -0.3316725 -0.6670807
vn -0.9943592 0.1060650 0.0000000
vn -0.9943592 0.1060650 0.0000000
vn -0.0000000 0.0000000 1.0000000
vn 0.0000000 0.0000000 1.0000000
vn 0.9943592 -0.1060650 0.0000000
vn 0.9943592 -0.1060650 0.0000000
vn 0.0000000 0.0000000 -1.0000000
vn 0.0000000 0.0000000 -1.0000000
vn -0.9970275 0.0770466 0.0000000
vn -0.9970275 0.0770466 0.0000000
vn -0.0000000 0.0000000 1.0000000
vn 0.0000000 0.0000000 1.0000000
vn 0.9970275 -0.0770466 0.0000000
vn 0.9970275 -0.0770466 0.0000000
vn 0.0000000 0.0000000 -1.0000000
vn 0.0000000 0.0000000 -1.0000000
vn 0.6775308 0.2861890 0.6775308
vn 0.6745846 -0.2997854 0.6745846
vn -0.6651153 0.3394749 0.6651153
vn -0.6825444 -0.2612780 0.6825444
vn -0.6727645 0.3078570 -0.6727645
vn -0.6757764 -0.2943682 -0.6757764
vn 0.6841289 0.2528541 -0.6841289
vn 0.6670807 -0.3316725 -0.6670807
vn -0.9943592 0.1060650 0.0000000
vn -0.9943592 0.1060650 0.0000000
vn -0.0000000 0.0000000 1.0000000
vn 0.0000000 0.0000000 1.0000000
vn 0.9943592 -0.1060650 0.0000000
vn 0.9943592 -0.1060650 0.0000000
vn 0.0000000 0.0000000 -1.0000000
vn 0.0000000 0.0000000 -1.0000000
vn -0.9968590 0.0791965 0.0000000
vn -0.9968590 0.0791965 0.0000000
vn -0.0000000 0.0000000 1.0000000
vn 0.0000000 0.0000000 1.0000000
vn 0.9968590 -0.0791965 0.0000000
vn 0.9968590 -0.0791965 0.0000000
vn 0.0000000 0.0000000 -1.0000000
vn 0.0000000 0.0000000 -1.0000000
vn 0.6775308 0.2861890 0.6775308
vn 0.6745846 -0.2997854 0.6745846
vn -0.6651153 0.3394749 0.6651153
vn -0.6825444 -0.2612780 0.6825444
vn -0.6727645 0.3078570 -0.6727645
vn -0.6757764 -0.2943682 -0.6757764
vn 0.6841289 0.2528541 -0.6841289
vn 0.6670807 -0.3316725 -0.6670807
vn -0.9943592 0.1060650 0.0000000
vn -0.9943592 0.1060650 0.0000000
vn -0.0000000 0.0000000 1.0000000
vn 0.0000000 0.0000000 1.0000000
vn 0.9943592 -0.1060650 0.0000000
vn 0.9943592 -0.1060650 0.0000000
vn 0.0000000 0.0000000 -1.0000000
vn 0.0000000 0.0000000 -1.0000000
vn -0.9944659 0.1050602 0.0000000
vn -0.9944659 0.1050602 0.0000000
vn -0.0000000 0.0000000 1.0000000
vn 0.0000000 0.0000000 1.0000000
vn 0.9944659 -0.1050602 0.0000000
vn 0.9944659 -0.1050602 0.0000000
vn 0.0000000 0.0000000 -1.0000000
vn 0.0000000 0.0000000 -1.0000000
vn 0.6775308 0.2861890 0.6775308
vn 0.6745846 -0.2997854 0.6745846
vn -0.6651153 0.3394749 0.6651153
vn -0.6825444 -0.2612780 0.6825444
vn -0.6727645 0.3078570 -0.6727645
vn -0.6757764 -0.2943682 -0.6757764
vn 0.6841289 0.2528541 -0.6841289
vn 0.6670807 -0.3316725 -0.6670807
vn -0.9943592 0.1060650 0.0000000
vn -0.9943592 0.1060650 0.0000000
vn -0.0000000 0.0000000 1.0000000
vn 0.0000000 0.0000000 1.0000000
vn 0.9943592 -0.1060650 0.0000000
vn 0.9943592 -0.1060650 0.0000000
vn 0.0000000 0.0000000 -1.0000000
vn 0.0000000 0.0000000 -1.0000000
vn -0.9954697 0.0950791 0.0000000
vn -0.9954697 0.0950791 0.0000000
vn -0.0000000 0.0000000 1.0000000
vn 0.0000000 0.0000000 1.0000000
vn 0.9954697 -0.0950791 0.0000000
vn 0.9954697 -0.0950791 0.0000000
vn 0.0000000 0.0000000 -1.0000000
vn 0.0000000 0.0000000 -1.0000000
vn 0.6775308 0.2861890 0.6775308
vn 0.6745846 -0.2997854 0.6745846
vn -0.6651153 0.3394749 0.6651153
vn -0.6825444 -0.2612780 0.6825444
vn -0.6727645 0.3078570 -0.6727645
vn -0.6757764 -0.2943682 -0.6757764
vn 0.6841289 0.2528541 -0.6841289
vn 0.6670807 -0.3316725 -0.6670807
vn -0.9943592 0.1060650 0.0000000
vn -0.9943592 0.1060650 0.0000000
vn -0.0000000 0.0000000 1.0000000
vn 0.0000000 0.0000000 1.0000000
vn 0.9943592 -0.1060650 0.0000000
vn 0.9943592 -0.1060650 0.0000000
vn 0.0000000 0.0000000 -1.0000000
vn 0.0000000 0.0000000 -1.0000000
vn -0.9962955 0.0859962 0.0000000
vn -0.9962955 0.0859962 0.0000000
vn -0.0000000 0.0000000 1.0000000
vn 0.0000000 0.0000000 1.0000000
vn 0.9962955 -0.0859962 0.0000000
vn 0.9962955 -0.0859962 0.0000000
vn 0.0000000 0.0000000 -1.0000000
vn 0.0000000 0.0000000 -1.0000000
vn 0.6775308 0.2861890 0.6775308
vn 0.6745846 -0.2997854 0.6745846
vn -0.6651153 0.3394749 0.6651153
vn -0.6825444 -0.2612780 0.6825444
vn -0.6727645 0.3078570 -0.6727645
vn -0.6757764 -0.2943682 -0.6757764
vn 0.6841289 0.2528541 -0.6841289
vn 0.6670807 -0.3316725 -0.6670807
vn -0.9943592 0.1060650 0.0000000
vn -0.9943592 0.1060650 0.0000000
vn -0.0000000 0.0000000 1.0000000
vn 0.0000000 0.0000000 1.0000000
vn 0.9943592 -0.1060650 0.0000000
vn 0.9943592 -0.1060650 0.0000000
vn 0.0000000 0.0000000 -1.0000000
vn 0.0000000 0.0000000 -1.0000000
vn -0.9983834 0.0568389 0.0000000
vn -0.9983834 0.0568389 0.0000000
vn -0.0000000 0.0000000 1.0000000
vn 0.0000000 0.0000000 1.0000000
vn 0.9983834 -0.0568389 0.0000000
vn 0.9983834 -0.0568389 0.0000000
vn 0.0000000 0.0000000 -1.0000000
vn 0.0000000 0.0000000 -1.0000000
vn 0.6775308 0.2861890 0.6775308
vn 0.6745846 -0.2997854 0.6745846
vn -0.6651153 0.3394749 0.6651153
vn -0.6825444 -0.2612780 0.6825444
vn -0.6727645 0.3078570 -0.6727645
vn -0.6757764 -0.2943682 -0.6757764
vn 0.6841289 0.2528541 -0.6841289
vn 0.6670807 -0.3316725 -0.6670807
vn -0.9943592 0.1060650 0.0000000
vn -0.9943592 0.1060650 0.0000000
vn -0.0000000 0.0000000 1.0000000
vn 0.0000000 0.0000000 1.0000000
vn 0.9943592 -0.1060650 0.0000000
vn 0.9943592 -0.1060650 0.0000000
vn 0.0000000 0.0000000 -1.0000000
vn 0.0000000 0.0000000 -1.0000000
vn -0.9976696 0.0682302 0.0000000
vn -0.9976696 0.0682302 0.0000000
vn -0.0000000 0.0000000 1.0000000
vn 0.0000000 0.0000000 1.0000000
vn 0.9976696 -0.0682302 0.0000000
vn 0.9976696 -0.0682302 0.0000000
vn 0.0000000 0.0000000 -1.0000000
vn 0.0000000 0.0000000 -1.0000000
vn 0.6775308 0.2861890 0.6775308
vn 0.6745846 -0.2997854 0.6745846
vn -0.6651153 0.3394749 0.6651153
vn -0.6825444 -0.2612780 0.6825444
vn -0.6727645 0.3078570 -0.6727645
vn -0.6757764 -0.2943682 -0.6757764
vn 0.6841289 0.2528541 -0.6841289
vn 0.6670807 -0.3316725 -0.6670807
vn -0.9943592 0.1060650 0.0000000
vn -0.9943592 0.1060650 0.0000000
vn -0.0000000 0.0000000 1.0000000
vn 0.0000000 0.0000000 1.0000000
vn 0.9943592 -0.1060650 0.0000000
vn 0.9943592 -0.1060650 0.0000000
vn 0.0000000 0.0000000 -1.0000000
vn 0.0000000 0.0000000 -1.0000000
vn -0.9947559 0.1022779 0.0000000
vn -0.9947559 0.1022779 0.0000000
vn -0.0000000 0.0000000 1.0000000
vn 0.0000000 0.0000000 1.0000000
vn 0.9947559 -0.1022779 0.0000000
vn 0.9947559 -0.1022779 0.0000000
vn 0.0000000 0.0000000 -1.0000000
vn 0.0000000 0.0000000 -1.0000000
vn 0.6775308 0.2861890 0.6775308
vn 0.6745846 -0.2997854 0.6745846
vn -0.6651153 0.3394749 0.6651153
vn -0.6825444 -0.2612780 0.6825444
vn -0.6727645 0.3078570 -0.6727645
vn -0.6757764 -0.2943682 -0.6757764
vn 0.6841289 0.2528541 -0.6841289
vn 0.6670807 -0.3316725 -0.6670807
vn -0.9943592 0.1060650 0.0000000
vn -0.9943592 0.1060650 0.0000000
vn -0.0000000 0.0000000 1.0000000
vn 0.0000000 0.0000000 1.0000000
vn 0.9943592 -0.1060650 0.0000000
vn 0.9943592 -0.1060650 0.0000000
vn 0.0000000 0.0000000 -1.0000000
vn 0.0000000 0.0000000 -1.0000000
vn -0.9955026 0.0947345 0.0000000
vn -0.9955026 0.0947345 0.0000000
vn -0.0000000 0.0000000 1.0000000
vn 0.0000000 0.0000000 1.0000000
vn 0.9955026 -0.0947345 0.0000000
vn 0.9955026 -0.0947345 0.0000000
vn 0.0000000 0.0000000 -1.0000000
vn 0.0000000 0.0000000 -1.0000000
vn 0.6775308 0.2861890 0.6775308
vn 0.6745846 -0.2997854 0.6745846
vn -0.6651153 0.3394749 0.6651153
vn -0.6825444 -0.2612780 0.6825444
vn -0.6727645 0.3078570 -0.6727645
vn -0.6757764 -0.2943682 -0.6757764
vn 0.6841289 0.2528541 -0.6841289
vn 0.6670807 -0.3316725 -0.6670807
vn -0.9943592 0.1060650 0.0000000
vn -0.9943592 0.1060650 0.0000000
vn -0.0000000 0.0000000 1.0000000
vn 0.0000000 0.0000000 1.0000000
vn 0.9943592 -0.1060650 0.0000000
vn 0.9943592 -0.1060650 0.0000000
vn 0.0000000 0.0000000 -1.0000000
vn 0.0000000 0.0000000 -1.0000000
vn -0.9969406 0.0781633 0.0000000
vn -0.9969406 0.0781633 0.0000000
vn -0.0000000 0.0000000 1.0000000
vn 0.0000000 0.0000000 1.0000000
vn 0.9969406 -0.0781633 0.0000000
vn 0.9969406 -0.0781633 0.0000000
vn 0.0000000 0.0000000 -1.0000000
vn 0.0000000 0.0000000 -1.0000000
vn 0.6775308 0.2861890 0.6775308
vn 0.6745846 -0.2997854 0.6745846
vn -0.6651153 0.3394749 0.6651153
vn -0.6825444 -0.2612780 0.6825444
vn -0.6727645 0.3078570 -0.6727645
vn -0.6757764 -0.2943682 -0.6757764
vn 0.6841289 0.2528541 -0.6841289
vn 0.6670807 -0.3316725 -0.6670807
vn -0.9943592 0.1060650 0.0000000
vn -0.9943592 0.1060650 0.0000000
vn -0.0000000 0.0000000 1.0000000
vn 0.0000000 0.0000000 1.0000000
vn 0.9943592 -0.1060650 0.0000000
vn 0.9943592 -0.1060650 0.0000000
vn 0.0000000 0.0000000 -1.0000000
vn 0.0000000 0.0000000 -1.0000000
vn -0.9979259 0.0643737 0.0000000
vn -0.9979259 0.0643737 0.0000000
vn -0.0000000 0.0000000 1.0000000
vn 0.0000000 0.0000000 1.0000000
vn 0.9979259 -0.0643737 0.0000000
vn 0.9979259 -0.0643737 0.0000000
vn 0.0000000 0.0000000 -1.0000000
vn 0.0000000 0.0000000 -1.0000000
vn 0.6775308 0.2861890 0.6775308
vn 0.6745846 -0.2997854 0.6745846
vn -0.6651153 0.3394749 0.6651153
vn -0.6825444 -0.2612780 0.6825444
vn -0.6727645 0.3078570 -0.6727645
vn -0.6757764 -0.2943682 -0.6757764
vn 0.6841289 0.2528541 -0.6841289
vn 0.6670807 -0.3316725 -0.6670807
vn -0.9943592 0.1060650 0.0000000
vn -0.9943592 0.1060650 0.0000000
vn -0.0000000 0.0000000 1.0000000
vn 0.0000000 0.0000000 1.0000000
vn 0.9943592 -0.1060650 0.0000000
vn 0.9943592 -0.1060650 0.0000000
vn 0.0000000 0.0000000 -1.0000000
vn 0.0000000 0.0000000 -1.0000000
vn -0.9945820 0.1039555 0.0000000
vn -0.9945820 0.1039555 0.0000000
vn -0.0000000 0.0000000 1.0000000
vn 0.0000000 0.0000000 1.0000000
vn 0.9945820 -0.1039555 0.0000000
vn 0.9945820 -0.1039555 0.0000000
vn 0.0000000 0.0000000 -1.0000000
vn 0.0000000 0.0000000 -1.0000000
vn 0.6775308 0.2861890 0.6775308
vn 0.6745846 -0.2997854 0.6745846
vn -0.6651153 0.3394749 0.6651153
vn -0.6825444 -0.2612780 0.6825444
vn -0.6727645 0.3078570 -0.6727645
vn -0.6757764 -0.2943682 -0.6757764
vn 0.6841289 0.2528541 -0.6841289
vn 0.6670807 -0.3316725 -0.6670807
vn -0.9943592 0.1060650 0.0000000
vn -0.9943592 0.1060650 0.0000000
vn -0.0000000 0.0000000 1.0000000
vn 0.0000000 0.0000000 1.0000000
vn 0.9943592 -0.1060650 0.0000000
vn 0.9943592 -0.1060650 0.0000000
vn 0.0000000 0.0000000 -1.0000000
vn 0.0000000 0.0000000 -1.0000000
vn -0.9988124 0.0487217 0.0000000
vn -0.9988124 0.0487217 0.0000000
vn -0.0000000 0.0000000 1.0000000
vn 0.0000000 0.0000000 1.0000000
vn 0.9988124 -0.0487217 0.0000000
vn 0.9988124 -0.0487217 0.0000000
vn 0.0000000 0.0000000 -1.0000000
vn 0.0000000 0.0000000 -1.0000000
vn 0.6775308 0.2861890 0.6775308
vn 0.6745846 -0.2997854 0.6745846
vn -0.6651153 0.3394749 0.6651153
vn -0.6825444 -0.2612780 0.6825444
vn -0.6727645 0.3078570 -0.6727645
vn -0.6757764 -0.2943682 -0.6757764
vn 0.6841289 0.2528541 -0.6841289
vn 0.6670807 -0.3316725 -0.6670807
vn -0.9943592 0.1060650 0.0000000
vn -0.9943592 0.1060650 0.0000000
vn -0.0000000 0.0000000 1.0000000
vn 0.0000000 0.0000000 1.0000000
vn 0.9943592 -0.1060650 0.0000000
vn 0.9943592 -0.1060650 0.0000000
vn 0.0000000 0.0000000 -1.0000000
vn 0.0000000 0.0000000 -1.0000000
vn -0.9980016 0.0631884 0.0000000
vn -0.9980016 0.0631884 0.0000000
vn -0.0000000 0.0000000 1.0000000
vn 0.0000000 0.0000000 1.0000000
vn 0.9980016 -0.0631884 0.0000000
vn 0.9980016 -0.0631884 0.0000000
vn 0.0000000 0.0000000 -1.0000000
vn 0.0000000 0.0000000 -1.0000000
vn 0.6775308 0.2861890 0.6775308
vn 0.6745846 -0.2997854 0.6745846
vn -0.6651153 0.3394749 0.6651153
vn -0.6825444 -0.2612780 0.6825444
vn -0.6727645 0.3078570 -0.6727645
vn -0.6757764 -0.2943682 -0.6757764
vn 0.6841289 0.2528541 -0.6841289
vn 0.6670807 -0.3316725 -0.6670807
vn -0.9943592 0.1060650 0.0000000
vn -0.9943592 0.1060650 0.0000000
vn -0.0000000 0.0000000 1.0000000
vn 0.0000000 0.0000000 1.0000000
vn 0.9943592 -0.1060650 0.0000000
vn 0.9943592 -0.1060650 0.0000000
vn 0.0000000 0.0000000 -1.0000000
vn 0.0000000 0.0000000 -1.0000000
vn -0.9986602 0.0517484 0.0000000
vn -0.9986602 0.0517484 0.0000000
vn -0.0000000 0.0000000 1.0000000
vn 0.0000000 0.0000000 1.0000000
vn 0.9986602 -0.0517484 0.0000000
vn 0.9986602 -0.0517484 0.0000000
vn 0.0000000 0.0000000 -1.0000000
vn 0.0000000 0.0000000 -1.0000000
vn 0.6775308 0.2861890 0.6775308
vn 0.6745846 -0.2997854 0.6745846
vn -0.6651153 0.3394749 0.6651153
vn -0.6825444 -0.2612780 0.6825444
vn -0.6727645 0.3078570 -0.6727645
vn -0.6757764 -0.2943682 -0.6757764
vn 0.6841289 0.2528541 -0.6841289
vn 0.6670807 -0.3316725 -0.6670807
vn -0.9943592 0.1060650 0.0000000
vn -0.9943592 0.1060650 0.0000000
vn -0.0000000 0.0000000 1.0000000
vn 0.0000000 0.0000000 1.0000000
vn 0.9943592 -0.1060650 0.0000000
vn 0.9943592 -0.1060650 0.0000000
vn 0.0000000 0.0000000 -1.0000000
vn 0.0000000 0.0000000 -1.0000000
vn -0.9975533 0.0699100 0.0000000
vn -0.9975533 0.0699100 0.0000000
vn -0.0000000 0.0000000 1.0000000
vn 0.0000000 0.0000000 1.0000000
vn 0.9975533 -0.0699100 0.0000000
vn 0.9975533 -0.0699100 0.0000000
vn 0.0000000 0.0000000 -1.0000000
vn 0.0000000 0.0000000 -1.0000000
vn 0.6775308 0.2861890 0.6775308
vn 0.6745846 -0.2997854 0.6745846
vn -0.6651153 0.3394749 0.6651153
vn -0.6825444 -0.2612780 0.6825444
vn -0.6727645 0.3078570 -0.6727645
vn -0.6757764 -0.2943682 -0.6757764
vn 0.6841289 0.2528541 -0.6841289
vn 0.6670807 -0.3316725 -0.6670807
vn -0.9943592 0.1060650 0.0000000
vn -0.9943592 0.1060650 0.0000000
vn -0.0000000 0.0000000 1.0000000
vn 0.0000000 0.0000000 1.0000000
vn 0.9943592 -0.1060650 0.0000000
vn 0.9943592 -0.1060650 0.0000000
vn 0.0000000 0.0000000 -1.0000000
vn 0.0000000 0.0000000 -1.0000000
vn -0.9959442 0.0899733 0.0000000
vn -0.9959442 0.0899733 0.0000000
vn -0.0000000 0.0000000 1.0000000
vn 0.0000000 0.0000000 1.0000000
vn 0.9959442 -0.0899733 0.0000000
vn 0.9959442 -0.0899733 0.0000000
vn 0.0000000 0.0000000 -1.0000000
vn 0.0000000 0.0000000 -1.0000000
vn 0.6775308 0.2861890 0.6775308
vn 0.6745846 -0.2997854 0.6745846
vn -0.6651153 0.3394749 0.6651153
vn -0.6825444 -0.2612780 0.6825444
vn -0.6727645 0.3078570 -0.6727645
vn -0.6757764 -0.2943682 -0.6757764
vn 0.6841289 0.2528541 -0.6841289
vn 0.6670807 -0.3316725 -0.6670807
vn -0.9943592 0.1060650 0.0000000
vn -0.9943592 0.1060650 0.0000000
vn -0.0000000 0.0000000 1.0000000
vn 0.0000000 0.0000000 1.0000000
vn 0.9943592 -0.1060650 0.0000000
vn 0.9943592 -0.1060650 0.0000000
vn 0.0000000 0.0000000 -1.0000000
vn 0.0000000 0.0000000 -1.0000000
usemtl stalk
f 1//1 2//1 3//1
usemtl stalk
f 4//2 5//2 6//2
usemtl stalk
f 7//3 8//3 9//3
usemtl stalk
f 10//4 11//4 12//4
usemtl stalk
f 13//5 14//5 15//5
usemtl stalk
f 16//6 17//6 18//6
usemtl stalk
f 19//7 20//7 21//7
usemtl stalk
f 22//8 23//8 24//8
usemtl wheat_light
f 25//9 26//9 27//9
usemtl wheat_light
f 28//10 29//10 30//10
usemtl wheat_light
f 31//11 32//11 33//11
usemtl wheat_light
f 34//12 35//12 36//12
usemtl wheat_light
f 37//13 38//13 39//13
usemtl wheat_light
f 40//14 41//14 42//14
usemtl wheat_light
f 43//15 44//15 45//15
usemtl wheat_light
f 46//16 47//16 48//16
usemtl wheat_light
f 49//17 50//17 51//17
usemtl wheat_light
f 52//18 53//18 54//18
usemtl wheat_light
f 55//19 56//19 57//19
usemtl wheat_light
f 58//20 59//20 60//20
usemtl wheat_light
f 61//21 62//21 63//21
usemtl wheat_light
f 64//22 65//22 66//22
usemtl wheat_light
f 67//23 68//23 69//23
usemtl wheat_light
f 70//24 71//24 72//24
usemtl stalk
f 73//25 74//25 75//25
usemtl stalk
f 76//26 77//26 78//26
usemtl stalk
f 79//27 80//27 81//27
usemtl stalk
f 82//28 83//28 84//28
usemtl stalk
f 85//29 86//29 87//29
usemtl stalk
f 88//30 89//30 90//30
usemtl stalk
f 91//31 92//31 93//31
usemtl stalk
f 94//32 95//32 96//32
usemtl wheat
f 97//33 98//33 99//33
usemtl wheat
f 100//34 101//34 102//34
usemtl wheat
f 103//35 104//35 105//35
usemtl wheat
f 106//36 107//36 108//36
usemtl wheat
f 109//37 110//37 111//37
usemtl wheat
f 112//38 113//38 114//38
usemtl wheat
f 115//39 116//39 117//39
usemtl wheat
f 118//40 119//40 120//40
usemtl wheat_light
f 121//41 122//41 123//41
usemtl wheat_light
f 124//42 125//42 126//42
usemtl wheat_light
f 127//43 128//43 129//43
usemtl wheat_light
f 130//44 131//44 132//44
usemtl wheat_light
f 133//45 134//45 135//45
usemtl wheat_light
f 136//46 137//46 138//46
usemtl wheat_light
f 139//47 140//47 141//47
usemtl wheat_light
f 142//48 143//48 144//48
usemtl stalk
f 145//49 146//49 147//49
usemtl stalk
f 148//50 149//50 150//50
usemtl stalk
f 151//51 152//51 153//51
usemtl stalk
f 154//52 155//52 156//52
usemtl stalk
f 157//53 158//53 159//53
usemtl stalk
f 160//54 161//54 162//54
usemtl stalk
f 163//55 164//55 165//55
usemtl stalk
f 166//56 167//56 168//56
usemtl wheat_light
f 169//57 170//57 171//57
usemtl wheat_light
f 172//58 173//58 174//58
usemtl wheat_light
f 175//59 176//59 177//59
usemtl wheat_light
f 178//60 179//60 180//60
usemtl wheat_light
f 181//61 182//61 183//61
usemtl wheat_light
f 184//62 185//62 186//62
usemtl wheat_light
f 187//63 188//63 189//63
usemtl wheat_light
f 190//64 191//64 192//64
usemtl wheat_light
f 193//65 194//65 195//65
usemtl wheat_light
f 196//66 197//66 198//66
usemtl wheat_light
f 199//67 200//67 201//67
usemtl wheat_light
f 202//68 203//68 204//68
usemtl wheat_light
f 205//69 206//69 207//69
usemtl wheat_light
f 208//70 209//70 210//70
usemtl wheat_light
f 211//71 212//71 213//71
usemtl wheat_light
f 214//72 215//72 216//72
usemtl stalk
f 217//73 218//73 219//73
usemtl stalk
f 220//74 221//74 222//74
usemtl stalk
f 223//75 224//75 225//75
usemtl stalk
f 226//76 227//76 228//76
usemtl stalk
f 229//77 230//77 231//77
usemtl stalk
f 232//78 233//78 234//78
usemtl stalk
f 235//79 236//79 237//79
usemtl stalk
f 238//80 239//80 240//80
usemtl wheat
f 241//81 242//81 243//81
usemtl wheat
f 244//82 245//82 246//82
usemtl wheat
f 247//83 248//83 249//83
usemtl wheat
f 250//84 251//84 252//84
usemtl wheat
f 253//85 254//85 255//85
usemtl wheat
f 256//86 257//86 258//86
usemtl wheat
f 259//87 260//87 261//87
usemtl wheat
f 262//88 263//88 264//88
usemtl wheat_light
f 265//89 266//89 267//89
usemtl wheat_light
f 268//90 269//90 270//90
usemtl wheat_light
f 271//91 272//91 273//91
usemtl wheat_light
f 274//92 275//92 276//92
usemtl wheat_light
f 277//93 278//93 279//93
usemtl wheat_light
f 280//94 281//94 282//94
usemtl wheat_light
f 283//95 284//95 285//95
usemtl wheat_light
f 286//96 287//96 288//96
usemtl stalk
f 289//97 290//97 291//97
usemtl stalk
f 292//98 293//98 294//98
usemtl stalk
f 295//99 296//99 297//99
usemtl stalk
f 298//100 299//100 300//100
usemtl stalk
f 301//101 302//101 303//101
usemtl stalk
f 304//102 305//102 306//102
usemtl stalk
f 307//103 308//103 309//103
usemtl stalk
f 310//104 311//104 312//104
usemtl wheat_light
f 313//105 314//105 315//105
usemtl wheat_light
f 316//106 317//106 318//106
usemtl wheat_light
f 319//107 320//107 321//107
usemtl wheat_light
f 322//108 323//108 324//108
usemtl wheat_light
f 325//109 326//109 327//109
usemtl wheat_light
f 328//110 329//110 330//110
usemtl wheat_light
f 331//111 332//111 333//111
usemtl wheat_light
f 334//112 335//112 336//112
usemtl wheat_light
f 337//113 338//113 339//113
usemtl wheat_light
f 340//114 341//114 342//114
usemtl wheat_light
f 343//115 344//115 345//115
usemtl wheat_light
f 346//116 347//116 348//116
usemtl wheat_light
f 349//117 350//117 351//117
usemtl wheat_light
f 352//118 353//118 354//118
usemtl wheat_light
f 355//119 356//119 357//119
usemtl wheat_light
f 358//120 359//120 360//120
usemtl stalk
f 361//121 362//121 363//121
usemtl stalk
f 364//122 365//122 366//122
usemtl stalk
f 367//123 368//123 369//123
usemtl stalk
f 370//124 371//124 372//124
usemtl stalk
f 373//125 374//125 375//125
usemtl stalk
f 376//126 377//126 378//126
usemtl stalk
f 379//127 380//127 381//127
usemtl stalk
f 382//128 383//128 384//128
usemtl wheat_light
f 385//129 386//129 387//129
usemtl wheat_light
f 388//130 389//130 390//130
usemtl wheat_light
f 391//131 392//131 393//131
usemtl wheat_light
f 394//132 395//132 396//132
usemtl wheat_light
f 397//133 398//133 399//133
usemtl wheat_light
f 400//134 401//134 402//134
usemtl wheat_light
f 403//135 404//135 405//135
usemtl wheat_light
f 406//136 407//136 408//136
usemtl wheat_light
f 409//137 410//137 411//137
usemtl wheat_light
f 412//138 413//138 414//138
usemtl wheat_light
f 415//139 416//139 417//139
usemtl wheat_light
f 418//140 419//140 420//140
usemtl wheat_light
f 421//141 422//141 423//141
usemtl wheat_light
f 424//142 425//142 426//142
usemtl wheat_light
f 427//143 428//143 429//143
usemtl wheat_light
f 430//144 431//144 432//144
usemtl stalk
f 433//145 434//145 435//145
usemtl stalk
f 436//146 437//146 438//146
usemtl stalk
f 439//147 440//147 441//147
usemtl stalk
f 442//148 443//148 444//148
usemtl stalk
f 445//149 446//149 447//149
usemtl stalk
f 448//150 449//150 450//150
usemtl stalk
f 451//151 452//151 453//151
usemtl stalk
f 454//152 455//152 456//152
usemtl wheat
f 457//153 458//153 459//153
usemtl wheat
f 460//154 461//154 462//154
usemtl wheat
f 463//155 464//155 465//155
usemtl wheat
f 466//156 467//156 468//156
usemtl wheat
f 469//157 470//157 471//157
usemtl wheat
f 472//158 473//158 474//158
usemtl wheat
f 475//159 476//159 477//159
usemtl wheat
f 478//160 479//160 480//160
usemtl wheat_light
f 481//161 482//161 483//161
usemtl wheat_light
f 484//162 485//162 486//162
usemtl wheat_light
f 487//163 488//163 489//163
usemtl wheat_light
f 490//164 491//164 492//164
usemtl wheat_light
f 493//165 494//165 495//165
usemtl wheat_light
f 496//166 497//166 498//166
usemtl wheat_light
f 499//167 500//167 501//167
usemtl wheat_light
f 502//168 503//168 504//168
usemtl stalk
f 505//169 506//169 507//169
usemtl stalk
f 508//170 509//170 510//170
usemtl stalk
f 511//171 512//171 513//171
usemtl stalk
f 514//172 515//172 516//172
usemtl stalk
f 517//173 518//173 519//173
usemtl stalk
f 520//174 521//174 522//174
usemtl stalk
f 523//175 524//175 525//175
usemtl stalk
f 526//176 527//176 528//176
usemtl wheat_light
f 529//177 530//177 531//177
usemtl wheat_light
f 532//178 533//178 534//178
usemtl wheat_light
f 535//179 536//179 537//179
usemtl wheat_light
f 538//180 539//180 540//180
usemtl wheat_light
f 541//181 542//181 543//181
usemtl wheat_light
f 544//182 545//182 546//182
usemtl wheat_light
f 547//183 548//183 549//183
usemtl wheat_light
f 550//184 551//184 552//184
usemtl wheat_light
f 553//185 554//185 555//185
usemtl wheat_light
f 556//186 557//186 558//186
usemtl wheat_light
f 559//187 560//187 561//187
usemtl wheat_light
f 562//188 563//188 564//188
usemtl wheat_light
f 565//189 566//189 567//189
usemtl wheat_light
f 568//190 569//190 570//190
usemtl wheat_light
f 571//191 572//191 573//191
usemtl wheat_light
f 574//192 575//192 576//192
usemtl stalk
f 577//193 578//193 579//193
usemtl stalk
f 580//194 581//194 582//194
usemtl stalk
f 583//195 584//195 585//195
usemtl stalk
f 586//196 587//196 588//196
usemtl stalk
f 589//197 590//197 591//197
usemtl stalk
f 592//198 593//198 594//198
usemtl stalk
f 595//199 596//199 597//199
usemtl stalk
f 598//200 599//200 600//200
usemtl wheat
f 601//201 602//201 603//201
usemtl wheat
f 604//202 605//202 606//202
usemtl wheat
f 607//203 608//203 609//203
usemtl wheat
f 610//204 611//204 612//204
usemtl wheat
f 613//205 614//205 615//205
usemtl wheat
f 616//206 617//206 618//206
usemtl wheat
f 619//207 620//207 621//207
usemtl wheat
f 622//208 623//208 624//208
usemtl wheat_light
f 625//209 626//209 627//209
usemtl wheat_light
f 628//210 629//210 630//210
usemtl wheat_light
f 631//211 632//211 633//211
usemtl wheat_light
f 634//212 635//212 636//212
usemtl wheat_light
f 637//213 638//213 639//213
usemtl wheat_light
f 640//214 641//214 642//214
usemtl wheat_light
f 643//215 644//215 645//215
usemtl wheat_light
f 646//216 647//216 648//216
usemtl stalk
f 649//217 650//217 651//217
usemtl stalk
f 652//218 653//218 654//218
usemtl stalk
f 655//219 656//219 657//219
usemtl stalk
f 658//220 659//220 660//220
usemtl stalk
f 661//221 662//221 663//221
usemtl stalk
f 664//222 665//222 666//222
usemtl stalk
f 667//223 668//223 669//223
usemtl stalk
f 670//224 671//224 672//224
usemtl wheat_light
f 673//225 674//225 675//225
usemtl wheat_light
f 676//226 677//226 678//226
usemtl wheat_light
f 679//227 680//227 681//227
usemtl wheat_light
f 682//228 683//228 684//228
usemtl wheat_light
f 685//229 686//229 687//229
usemtl wheat_light
f 688//230 689//230 690//230
usemtl wheat_light
f 691//231 692//231 693//231
usemtl wheat_light
f 694//232 695//232 696//232
usemtl wheat_light
f 697//233 698//233 699//233
usemtl wheat_light
f 700//234 701//234 702//234
usemtl wheat_light
f 703//235 704//235 705//235
usemtl wheat_light
f 706//236 707//236 708//236
usemtl wheat_light
f 709//237 710//237 711//237
usemtl wheat_light
f 712//238 713//238 714//238
usemtl wheat_light
f 715//239 716//239 717//239
usemtl wheat_light
f 718//240 719//240 720//240
usemtl stalk
f 721//241 722//241 723//241
usemtl stalk
f 724//242 725//242 726//242
usemtl stalk
f 727//243 728//243 729//243
usemtl stalk
f 730//244 731//244 732//244
usemtl stalk
f 733//245 734//245 735//245
usemtl stalk
f 736//246 737//246 738//246
usemtl stalk
f 739//247 740//247 741//247
usemtl stalk
f 742//248 743//248 744//248
usemtl wheat_light
f 745//249 746//249 747//249
usemtl wheat_light
f 748//250 749//250 750//250
usemtl wheat_light
f 751//251 752//251 753//251
usemtl wheat_light
f 754//252 755//252 756//252
usemtl wheat_light
f 757//253 758//253 759//253
usemtl wheat_light
f 760//254 761//254 762//254
usemtl wheat_light
f 763//255 764//255 765//255
usemtl wheat_light
f 766//256 767//256 768//256
usemtl wheat_light
f 769//257 770//257 771//257
usemtl wheat_light
f 772//258 773//258 774//258
usemtl wheat_light
f 775//259 776//259 777//259
usemtl wheat_light
f 778//260 779//260 780//260
usemtl wheat_light
f 781//261 782//261 783//261
usemtl wheat_light
f 784//262 785//262 786//262
usemtl wheat_light
f 787//263 788//263 789//263
usemtl wheat_light
f 790//264 791//264 792//264
usemtl stalk
f 793//265 794//265 795//265
usemtl stalk
f 796//266 797//266 798//266
usemtl stalk
f 799//267 800//267 801//267
usemtl stalk
f 802//268 803//268 804//268
usemtl stalk
f 805//269 806//269 807//269
usemtl stalk
f 808//270 809//270 810//270
usemtl stalk
f 811//271 812//271 813//271
usemtl stalk
f 814//272 815//272 816//272
usemtl wheat
f 817//273 818//273 819//273
usemtl wheat
f 820//274 821//274 822//274
usemtl wheat
f 823//275 824//275 825//275
usemtl wheat
f 826//276 827//276 828//276
usemtl wheat
f 829//277 830//277 831//277
usemtl wheat
f 832//278 833//278 834//278
usemtl wheat
f 835//279 836//279 837//279
usemtl wheat
f 838//280 839//280 840//280
usemtl wheat_light
f 841//281 842//281 843//281
usemtl wheat_light
f 844//282 845//282 846//282
usemtl wheat_light
f 847//283 848//283 849//283
usemtl wheat_light
f 850//284 851//284 852//284
usemtl wheat_light
f 853//285 854//285 855//285
usemtl wheat_light
f 856//286 857//286 858//286
usemtl wheat_light
f 859//287 860//287 861//287
usemtl wheat_light
f 862//288 863//288 864//288
usemtl stalk
f 865//289 866//289 867//289
usemtl stalk
f 868//290 869//290 870//290
usemtl stalk
f 871//291 872//291 873//291
usemtl stalk
f 874//292 875//292 876//292
usemtl stalk
f 877//293 878//293 879//293
usemtl stalk
f 880//294 881//294 882//294
usemtl stalk
f 883//295 884//295 885//295
usemtl stalk
f 886//296 887//296 888//296
usemtl wheat_light
f 889//297 890//297 891//297
usemtl wheat_light
f 892//298 893//298 894//298
usemtl wheat_light
f 895//299 896//299 897//299
usemtl wheat_light
f 898//300 899//300 900//300
usemtl wheat_light
f 901//301 902//301 903//301
usemtl wheat_light
f 904//302 905//302 906//302
usemtl wheat_light
f 907//303 908//303 909//303
usemtl wheat_light
f 910//304 911//304 912//304
usemtl wheat_light
f 913//305 914//305 915//305
usemtl wheat_light
f 916//306 917//306 918//306
usemtl wheat_light
f 919//307 920//307 921//307
usemtl wheat_light
f 922//308 923//308 924//308
usemtl wheat_light
f 925//309 926//309 927//309
usemtl wheat_light
f 928//310 929//310 930//310
usemtl wheat_light
f 931//311 932//311 933//311
usemtl wheat_light
f 934//312 935//312 936//312
usemtl stalk
f 937//313 938//313 939//313
usemtl stalk
f 940//314 941//314 942//314
usemtl stalk
f 943//315 944//315 945//315
usemtl stalk
f 946//316 947//316 948//316
usemtl stalk
f 949//317 950//317 951//317
usemtl stalk
f 952//318 953//318 954//318
usemtl stalk
f 955//319 956//319 957//319
usemtl stalk
f 958//320 959//320 960//320
usemtl wheat
f 961//321 962//321 963//321
usemtl wheat
f 964//322 965//322 966//322
usemtl wheat
f 967//323 968//323 969//323
usemtl wheat
f 970//324 971//324 972//324
usemtl wheat
f 973//325 974//325 975//325
usemtl wheat
f 976//326 977//326 978//326
usemtl wheat
f 979//327 980//327 981//327
usemtl wheat
f 982//328 983//328 984//328
usemtl wheat_light
f 985//329 986//329 987//329
usemtl wheat_light
f 988//330 989//330 990//330
usemtl wheat_light
f 991//331 992//331 993//331
usemtl wheat_light
f 994//332 995//332 996//332
usemtl wheat_light
f 997//333 998//333 999//333
usemtl wheat_light
f 1000//334 1001//334 1002//334
usemtl wheat_light
f 1003//335 1004//335 1005//335
usemtl wheat_light
f 1006//336 1007//336 1008//336
usemtl stalk
f 1009//337 1010//337 1011//337
usemtl stalk
f 1012//338 1013//338 1014//338
usemtl stalk
f 1015//339 1016//339 1017//339
usemtl stalk
f 1018//340 1019//340 1020//340
usemtl stalk
f 1021//341 1022//341 1023//341
usemtl stalk
f 1024//342 1025//342 1026//342
usemtl stalk
f 1027//343 1028//343 1029//343
usemtl stalk
f 1030//344 1031//344 1032//344
usemtl wheat_light
f 1033//345 1034//345 1035//345
usemtl wheat_light
f 1036//346 1037//346 1038//346
usemtl wheat_light
f 1039//347 1040//347 1041//347
usemtl wheat_light
f 1042//348 1043//348 1044//348
usemtl wheat_light
f 1045//349 1046//349 1047//349
usemtl wheat_light
f 1048//350 1049//350 1050//350
usemtl wheat_light
f 1051//351 1052//351 1053//351
usemtl wheat_light
f 1054//352 1055//352 1056//352
usemtl wheat_light
f 1057//353 1058//353 1059//353
usemtl wheat_light
f 1060//354 1061//354 1062//354
usemtl wheat_light
f 1063//355 1064//355 1065//355
usemtl wheat_light
f 1066//356 1067//356 1068//356
usemtl wheat_light
f 1069//357 1070//357 1071//357
usemtl wheat_light
f 1072//358 1073//358 1074//358
usemtl wheat_light
f 1075//359 1076//359 1077//359
usemtl wheat_light
f 1078//360 1079//360 1080//360
usemtl stalk
f 1081//361 1082//361 1083//361
usemtl stalk
f 1084//362 1085//362 1086//362
usemtl stalk
f 1087//363 1088//363 1089//363
usemtl stalk
f 1090//364 1091//364 1092//364
usemtl stalk
f 1093//365 1094//365 1095//365
usemtl stalk
f 1096//366 1097//366 1098//366
usemtl stalk
f 1099//367 1100//367 1101//367
usemtl stalk
f 1102//368 1103//368 1104//368
usemtl wheat_light
f 1105//369 1106//369 1107//369
usemtl wheat_light
f 1108//370 1109//370 1110//370
usemtl wheat_light
f 1111//371 1112//371 1113//371
usemtl wheat_light
f 1114//372 1115//372 1116//372
usemtl wheat_light
f 1117//373 1118//373 1119//373
usemtl wheat_light
f 1120//374 1121//374 1122//374
usemtl wheat_light
f 1123//375 1124//375 1125//375
usemtl wheat_light
f 1126//376 1127//376 1128//376
usemtl wheat_light
f 1129//377 1130//377 1131//377
usemtl wheat_light
f 1132//378 1133//378 1134//378
usemtl wheat_light
f 1135//379 1136//379 1137//379
usemtl wheat_light
f 1138//380 1139//380 1140//380
usemtl wheat_light
f 1141//381 1142//381 1143//381
usemtl wheat_light
f 1144//382 1145//382 1146//382
usemtl wheat_light
f 1147//383 1148//383 1149//383
usemtl wheat_light
f 1150//384 1151//384 1152//384
usemtl stalk
f 1153//385 1154//385 1155//385
usemtl stalk
f 1156//386 1157//386 1158//386
usemtl stalk
f 1159//387 1160//387 1161//387
usemtl stalk
f 1162//388 1163//388 1164//388
usemtl stalk
f 1165//389 1166//389 1167//389
usemtl stalk
f 1168//390 1169//390 1170//390
usemtl stalk
f 1171//391 1172//391 1173//391
usemtl stalk
f 1174//392 1175//392 1176//392
usemtl wheat
f 1177//393 1178//393 1179//393
usemtl wheat
f 1180//394 1181//394 1182//394
usemtl wheat
f 1183//395 1184//395 1185//395
usemtl wheat
f 1186//396 1187//396 1188//396
usemtl wheat
f 1189//397 1190//397 1191//397
usemtl wheat
f 1192//398 1193//398 1194//398
usemtl wheat
f 1195//399 1196//399 1197//399
usemtl wheat
f 1198//400 1199//400 1200//400
usemtl wheat_light
f 1201//401 1202//401 1203//401
usemtl wheat_light
f 1204//402 1205//402 1206//402
usemtl wheat_light
f 1207//403 1208//403 1209//403
usemtl wheat_light
f 1210//404 1211//404 1212//404
usemtl wheat_light
f 1213//405 1214//405 1215//405
usemtl wheat_light
f 1216//406 1217//406 1218//406
usemtl wheat_light
f 1219//407 1220//407 1221//407
usemtl wheat_light
f 1222//408 1223//408 1224//408
usemtl stalk
f 1225//409 1226//409 1227//409
usemtl stalk
f 1228//410 1229//410 1230//410
usemtl stalk
f 1231//411 1232//411 1233//411
usemtl stalk
f 1234//412 1235//412 1236//412
usemtl stalk
f 1237//413 1238//413 1239//413
usemtl stalk
f 1240//414 1241//414 1242//414
usemtl stalk
f 1243//415 1244//415 1245//415
usemtl stalk
f 1246//416 1247//416 1248//416
usemtl wheat_light
f 1249//417 1250//417 1251//417
usemtl wheat_light
f 1252//418 1253//418 1254//418
usemtl wheat_light
f 1255//419 1256//419 1257//419
usemtl wheat_light
f 1258//420 1259//420 1260//420
usemtl wheat_light
f 1261//421 1262//421 1263//421
usemtl wheat_light
f 1264//422 1265//422 1266//422
usemtl wheat_light
f 1267//423 1268//423 1269//423
usemtl wheat_light
f 1270//424 1271//424 1272//424
usemtl wheat_light
f 1273//425 1274//425 1275//425
usemtl wheat_light
f 1276//426 1277//426 1278//426
usemtl wheat_light
f 1279//427 1280//427 1281//427
usemtl wheat_light
f 1282//428 1283//428 1284//428
usemtl wheat_light
f 1285//429 1286//429 1287//429
usemtl wheat_light
f 1288//430 1289//430 1290//430
usemtl wheat_light
f 1291//431 1292//431 1293//431
usemtl wheat_light
f 1294//432 1295//432 1296//432
usemtl stalk
f 1297//433 1298//433 1299//433
usemtl stalk
f 1300//434 1301//434 1302//434
usemtl stalk
f 1303//435 1304//435 1305//435
usemtl stalk
f 1306//436 1307//436 1308//436
usemtl stalk
f 1309//437 1310//437 1311//437
usemtl stalk
f 1312//438 1313//438 1314//438
usemtl stalk
f 1315//439 1316//439 1317//439
usemtl stalk
f 1318//440 1319//440 1320//440
usemtl wheat
f 1321//441 1322//441 1323//441
usemtl wheat
f 1324//442 1325//442 1326//442
usemtl wheat
f 1327//443 1328//443 1329//443
usemtl wheat
f 1330//444 1331//444 1332//444
usemtl wheat
f 1333//445 1334//445 1335//445
usemtl wheat
f 1336//446 1337//446 1338//446
usemtl wheat
f 1339//447 1340//447 1341//447
usemtl wheat
f 1342//448 1343//448 1344//448
usemtl wheat_light
f 1345//449 1346//449 1347//449
usemtl wheat_light
f 1348//450 1349//450 1350//450
usemtl wheat_light
f 1351//451 1352//451 1353//451
usemtl wheat_light
f 1354//452 1355//452 1356//452
usemtl wheat_light
f 1357//453 1358//453 1359//453
usemtl wheat_light
f 1360//454 1361//454 1362//454
usemtl wheat_light
f 1363//455 1364//455 1365//455
usemtl wheat_light
f 1366//456 1367//456 1368//456
usemtl stalk
f 1369//457 1370//457 1371//457
usemtl stalk
f 1372//458 1373//458 1374//458
usemtl stalk
f 1375//459 1376//459 1377//459
usemtl stalk
f 1378//460 1379//460 1380//460
usemtl stalk
f 1381//461 1382//461 1383//461
usemtl stalk
f 1384//462 1385//462 1386//462
usemtl stalk
f 1387//463 1388//463 1389//463
usemtl stalk
f 1390//464 1391//464 1392//464
usemtl wheat_light
f 1393//465 1394//465 1395//465
usemtl wheat_light
f 1396//466 1397//466 1398//466
usemtl wheat_light
f 1399//467 1400//467 1401//467
usemtl wheat_light
f 1402//468 1403//468 1404//468
usemtl wheat_light
f 1405//469 1406//469 1407//469
usemtl wheat_light
f 1408//470 1409//470 1410//470
usemtl wheat_light
f 1411//471 1412//471 1413//471
usemtl wheat_light
f 1414//472 1415//472 1416//472
usemtl wheat_light
f 1417//473 1418//473 1419//473
usemtl wheat_light
f 1420//474 1421//474 1422//474
usemtl wheat_light
f 1423//475 1424//475 1425//475
usemtl wheat_light
f 1426//476 1427//476 1428//476
usemtl wheat_light
f 1429//477 1430//477 1431//477
usemtl wheat_light
f 1432//478 1433//478 1434//478
usemtl wheat_light
f 1435//479 1436//479 1437//479
usemtl wheat_light
f 1438//480 1439//480 1440//480
