# Original Quiet Camp Ukrainian rural presentation asset
# Units: metres; Y up; no external geometry or textures
mtllib palette.mtl
o ua_wheat_patch_lod
v -0.6459817 0.0006336 -0.4410000
v -0.6459817 0.0006336 -0.4190000
v -0.6009817 0.7806336 -0.4190000
v -0.6459817 0.0006336 -0.4410000
v -0.6009817 0.7806336 -0.4190000
v -0.6009817 0.7806336 -0.4410000
v -0.6459817 0.0006336 -0.4190000
v -0.6240183 -0.0006336 -0.4190000
v -0.5790183 0.7793664 -0.4190000
v -0.6459817 0.0006336 -0.4190000
v -0.5790183 0.7793664 -0.4190000
v -0.6009817 0.7806336 -0.4190000
v -0.6240183 -0.0006336 -0.4190000
v -0.6240183 -0.0006336 -0.4410000
v -0.5790183 0.7793664 -0.4410000
v -0.6240183 -0.0006336 -0.4190000
v -0.5790183 0.7793664 -0.4410000
v -0.5790183 0.7793664 -0.4190000
v -0.6240183 -0.0006336 -0.4410000
v -0.6459817 0.0006336 -0.4410000
v -0.6009817 0.7806336 -0.4410000
v -0.6240183 -0.0006336 -0.4410000
v -0.6009817 0.7806336 -0.4410000
v -0.5790183 0.7793664 -0.4410000
v -0.5839000 0.9850000 -0.4336600
v -0.5900000 0.8600000 -0.3690000
v -0.5290000 0.8600000 -0.4300000
v -0.5942700 0.7350000 -0.4263400
v -0.5290000 0.8600000 -0.4300000
v -0.5900000 0.8600000 -0.3690000
v -0.5839000 0.9850000 -0.4336600
v -0.6510000 0.8600000 -0.4300000
v -0.5900000 0.8600000 -0.3690000
v -0.5942700 0.7350000 -0.4263400
v -0.5900000 0.8600000 -0.3690000
v -0.6510000 0.8600000 -0.4300000
v -0.5839000 0.9850000 -0.4336600
v -0.5900000 0.8600000 -0.4910000
v -0.6510000 0.8600000 -0.4300000
v -0.5942700 0.7350000 -0.4263400
v -0.6510000 0.8600000 -0.4300000
v -0.5900000 0.8600000 -0.4910000
v -0.5839000 0.9850000 -0.4336600
v -0.5290000 0.8600000 -0.4300000
v -0.5900000 0.8600000 -0.4910000
v -0.5942700 0.7350000 -0.4263400
v -0.5900000 0.8600000 -0.4910000
v -0.5290000 0.8600000 -0.4300000
v -0.0109840 0.0005934 -0.4410000
v -0.0109840 0.0005934 -0.4190000
v 0.0340160 0.8335934 -0.4190000
v -0.0109840 0.0005934 -0.4410000
v 0.0340160 0.8335934 -0.4190000
v 0.0340160 0.8335934 -0.4410000
v -0.0109840 0.0005934 -0.4190000
v 0.0109840 -0.0005934 -0.4190000
v 0.0559840 0.8324066 -0.4190000
v -0.0109840 0.0005934 -0.4190000
v 0.0559840 0.8324066 -0.4190000
v 0.0340160 0.8335934 -0.4190000
v 0.0109840 -0.0005934 -0.4190000
v 0.0109840 -0.0005934 -0.4410000
v 0.0559840 0.8324066 -0.4410000
v 0.0109840 -0.0005934 -0.4190000
v 0.0559840 0.8324066 -0.4410000
v 0.0559840 0.8324066 -0.4190000
v 0.0109840 -0.0005934 -0.4410000
v -0.0109840 0.0005934 -0.4410000
v 0.0340160 0.8335934 -0.4410000
v 0.0109840 -0.0005934 -0.4410000
v 0.0340160 0.8335934 -0.4410000
v 0.0559840 0.8324066 -0.4410000
v 0.0511000 1.0380000 -0.4336600
v 0.0450000 0.9130000 -0.3690000
v 0.1060000 0.9130000 -0.4300000
v 0.0407300 0.7880000 -0.4263400
v 0.1060000 0.9130000 -0.4300000
v 0.0450000 0.9130000 -0.3690000
v 0.0511000 1.0380000 -0.4336600
v -0.0160000 0.9130000 -0.4300000
v 0.0450000 0.9130000 -0.3690000
v 0.0407300 0.7880000 -0.4263400
v 0.0450000 0.9130000 -0.3690000
v -0.0160000 0.9130000 -0.4300000
v 0.0511000 1.0380000 -0.4336600
v 0.0450000 0.9130000 -0.4910000
v -0.0160000 0.9130000 -0.4300000
v 0.0407300 0.7880000 -0.4263400
v -0.0160000 0.9130000 -0.4300000
v 0.0450000 0.9130000 -0.4910000
v 0.0511000 1.0380000 -0.4336600
v 0.1060000 0.9130000 -0.4300000
v 0.0450000 0.9130000 -0.4910000
v 0.0407300 0.7880000 -0.4263400
v 0.0450000 0.9130000 -0.4910000
v 0.1060000 0.9130000 -0.4300000
v 0.6240142 0.0005580 -0.4410000
v 0.6240142 0.0005580 -0.4190000
v 0.6690142 0.8865580 -0.4190000
v 0.6240142 0.0005580 -0.4410000
v 0.6690142 0.8865580 -0.4190000
v 0.6690142 0.8865580 -0.4410000
v 0.6240142 0.0005580 -0.4190000
v 0.6459858 -0.0005580 -0.4190000
v 0.6909858 0.8854420 -0.4190000
v 0.6240142 0.0005580 -0.4190000
v 0.6909858 0.8854420 -0.4190000
v 0.6690142 0.8865580 -0.4190000
v 0.6459858 -0.0005580 -0.4190000
v 0.6459858 -0.0005580 -0.4410000
v 0.6909858 0.8854420 -0.4410000
v 0.6459858 -0.0005580 -0.4190000
v 0.6909858 0.8854420 -0.4410000
v 0.6909858 0.8854420 -0.4190000
v 0.6459858 -0.0005580 -0.4410000
v 0.6240142 0.0005580 -0.4410000
v 0.6690142 0.8865580 -0.4410000
v 0.6459858 -0.0005580 -0.4410000
v 0.6690142 0.8865580 -0.4410000
v 0.6909858 0.8854420 -0.4410000
v 0.6861000 1.0910000 -0.4336600
v 0.6800000 0.9660000 -0.3690000
v 0.7410000 0.9660000 -0.4300000
v 0.6757300 0.8410000 -0.4263400
v 0.7410000 0.9660000 -0.4300000
v 0.6800000 0.9660000 -0.3690000
v 0.6861000 1.0910000 -0.4336600
v 0.6190000 0.9660000 -0.4300000
v 0.6800000 0.9660000 -0.3690000
v 0.6757300 0.8410000 -0.4263400
v 0.6800000 0.9660000 -0.3690000
v 0.6190000 0.9660000 -0.4300000
v 0.6861000 1.0910000 -0.4336600
v 0.6800000 0.9660000 -0.4910000
v 0.6190000 0.9660000 -0.4300000
v 0.6757300 0.8410000 -0.4263400
v 0.6190000 0.9660000 -0.4300000
v 0.6800000 0.9660000 -0.4910000
v 0.6861000 1.0910000 -0.4336600
v 0.7410000 0.9660000 -0.4300000
v 0.6800000 0.9660000 -0.4910000
v 0.6757300 0.8410000 -0.4263400
v 0.6800000 0.9660000 -0.4910000
v 0.7410000 0.9660000 -0.4300000
v -0.6459840 0.0005934 -0.0110000
v -0.6459840 0.0005934 0.0110000
v -0.6009840 0.8335934 0.0110000
v -0.6459840 0.0005934 -0.0110000
v -0.6009840 0.8335934 0.0110000
v -0.6009840 0.8335934 -0.0110000
v -0.6459840 0.0005934 0.0110000
v -0.6240160 -0.0005934 0.0110000
v -0.5790160 0.8324066 0.0110000
v -0.6459840 0.0005934 0.0110000
v -0.5790160 0.8324066 0.0110000
v -0.6009840 0.8335934 0.0110000
v -0.6240160 -0.0005934 0.0110000
v -0.6240160 -0.0005934 -0.0110000
v -0.5790160 0.8324066 -0.0110000
v -0.6240160 -0.0005934 0.0110000
v -0.5790160 0.8324066 -0.0110000
v -0.5790160 0.8324066 0.0110000
v -0.6240160 -0.0005934 -0.0110000
v -0.6459840 0.0005934 -0.0110000
v -0.6009840 0.8335934 -0.0110000
v -0.6240160 -0.0005934 -0.0110000
v -0.6009840 0.8335934 -0.0110000
v -0.5790160 0.8324066 -0.0110000
v -0.5839000 1.0380000 -0.0036600
v -0.5900000 0.9130000 0.0610000
v -0.5290000 0.9130000 0.0000000
v -0.5942700 0.7880000 0.0036600
v -0.5290000 0.9130000 0.0000000
v -0.5900000 0.9130000 0.0610000
v -0.5839000 1.0380000 -0.0036600
v -0.6510000 0.9130000 0.0000000
v -0.5900000 0.9130000 0.0610000
v -0.5942700 0.7880000 0.0036600
v -0.5900000 0.9130000 0.0610000
v -0.6510000 0.9130000 0.0000000
v -0.5839000 1.0380000 -0.0036600
v -0.5900000 0.9130000 -0.0610000
v -0.6510000 0.9130000 0.0000000
v -0.5942700 0.7880000 0.0036600
v -0.6510000 0.9130000 0.0000000
v -0.5900000 0.9130000 -0.0610000
v -0.5839000 1.0380000 -0.0036600
v -0.5290000 0.9130000 0.0000000
v -0.5900000 0.9130000 -0.0610000
v -0.5942700 0.7880000 0.0036600
v -0.5900000 0.9130000 -0.0610000
v -0.5290000 0.9130000 0.0000000
v -0.0109858 0.0005580 -0.0110000
v -0.0109858 0.0005580 0.0110000
v 0.0340142 0.8865580 0.0110000
v -0.0109858 0.0005580 -0.0110000
v 0.0340142 0.8865580 0.0110000
v 0.0340142 0.8865580 -0.0110000
v -0.0109858 0.0005580 0.0110000
v 0.0109858 -0.0005580 0.0110000
v 0.0559858 0.8854420 0.0110000
v -0.0109858 0.0005580 0.0110000
v 0.0559858 0.8854420 0.0110000
v 0.0340142 0.8865580 0.0110000
v 0.0109858 -0.0005580 0.0110000
v 0.0109858 -0.0005580 -0.0110000
v 0.0559858 0.8854420 -0.0110000
v 0.0109858 -0.0005580 0.0110000
v 0.0559858 0.8854420 -0.0110000
v 0.0559858 0.8854420 0.0110000
v 0.0109858 -0.0005580 -0.0110000
v -0.0109858 0.0005580 -0.0110000
v 0.0340142 0.8865580 -0.0110000
v 0.0109858 -0.0005580 -0.0110000
v 0.0340142 0.8865580 -0.0110000
v 0.0559858 0.8854420 -0.0110000
v 0.0511000 1.0910000 -0.0036600
v 0.0450000 0.9660000 0.0610000
v 0.1060000 0.9660000 0.0000000
v 0.0407300 0.8410000 0.0036600
v 0.1060000 0.9660000 0.0000000
v 0.0450000 0.9660000 0.0610000
v 0.0511000 1.0910000 -0.0036600
v -0.0160000 0.9660000 0.0000000
v 0.0450000 0.9660000 0.0610000
v 0.0407300 0.8410000 0.0036600
v 0.0450000 0.9660000 0.0610000
v -0.0160000 0.9660000 0.0000000
v 0.0511000 1.0910000 -0.0036600
v 0.0450000 0.9660000 -0.0610000
v -0.0160000 0.9660000 0.0000000
v 0.0407300 0.8410000 0.0036600
v -0.0160000 0.9660000 0.0000000
v 0.0450000 0.9660000 -0.0610000
v 0.0511000 1.0910000 -0.0036600
v 0.1060000 0.9660000 0.0000000
v 0.0450000 0.9660000 -0.0610000
v 0.0407300 0.8410000 0.0036600
v 0.0450000 0.9660000 -0.0610000
v 0.1060000 0.9660000 0.0000000
v 0.6240183 0.0006336 -0.0110000
v 0.6240183 0.0006336 0.0110000
v 0.6690183 0.7806336 0.0110000
v 0.6240183 0.0006336 -0.0110000
v 0.6690183 0.7806336 0.0110000
v 0.6690183 0.7806336 -0.0110000
v 0.6240183 0.0006336 0.0110000
v 0.6459817 -0.0006336 0.0110000
v 0.6909817 0.7793664 0.0110000
v 0.6240183 0.0006336 0.0110000
v 0.6909817 0.7793664 0.0110000
v 0.6690183 0.7806336 0.0110000
v 0.6459817 -0.0006336 0.0110000
v 0.6459817 -0.0006336 -0.0110000
v 0.6909817 0.7793664 -0.0110000
v 0.6459817 -0.0006336 0.0110000
v 0.6909817 0.7793664 -0.0110000
v 0.6909817 0.7793664 0.0110000
v 0.6459817 -0.0006336 -0.0110000
v 0.6240183 0.0006336 -0.0110000
v 0.6690183 0.7806336 -0.0110000
v 0.6459817 -0.0006336 -0.0110000
v 0.6690183 0.7806336 -0.0110000
v 0.6909817 0.7793664 -0.0110000
v 0.6861000 0.9850000 -0.0036600
v 0.6800000 0.8600000 0.0610000
v 0.7410000 0.8600000 0.0000000
v 0.6757300 0.7350000 0.0036600
v 0.7410000 0.8600000 0.0000000
v 0.6800000 0.8600000 0.0610000
v 0.6861000 0.9850000 -0.0036600
v 0.6190000 0.8600000 0.0000000
v 0.6800000 0.8600000 0.0610000
v 0.6757300 0.7350000 0.0036600
v 0.6800000 0.8600000 0.0610000
v 0.6190000 0.8600000 0.0000000
v 0.6861000 0.9850000 -0.0036600
v 0.6800000 0.8600000 -0.0610000
v 0.6190000 0.8600000 0.0000000
v 0.6757300 0.7350000 0.0036600
v 0.6190000 0.8600000 0.0000000
v 0.6800000 0.8600000 -0.0610000
v 0.6861000 0.9850000 -0.0036600
v 0.7410000 0.8600000 0.0000000
v 0.6800000 0.8600000 -0.0610000
v 0.6757300 0.7350000 0.0036600
v 0.6800000 0.8600000 -0.0610000
v 0.7410000 0.8600000 0.0000000
v -0.6459858 0.0005580 0.4190000
v -0.6459858 0.0005580 0.4410000
v -0.6009858 0.8865580 0.4410000
v -0.6459858 0.0005580 0.4190000
v -0.6009858 0.8865580 0.4410000
v -0.6009858 0.8865580 0.4190000
v -0.6459858 0.0005580 0.4410000
v -0.6240142 -0.0005580 0.4410000
v -0.5790142 0.8854420 0.4410000
v -0.6459858 0.0005580 0.4410000
v -0.5790142 0.8854420 0.4410000
v -0.6009858 0.8865580 0.4410000
v -0.6240142 -0.0005580 0.4410000
v -0.6240142 -0.0005580 0.4190000
v -0.5790142 0.8854420 0.4190000
v -0.6240142 -0.0005580 0.4410000
v -0.5790142 0.8854420 0.4190000
v -0.5790142 0.8854420 0.4410000
v -0.6240142 -0.0005580 0.4190000
v -0.6459858 0.0005580 0.4190000
v -0.6009858 0.8865580 0.4190000
v -0.6240142 -0.0005580 0.4190000
v -0.6009858 0.8865580 0.4190000
v -0.5790142 0.8854420 0.4190000
v -0.5839000 1.0910000 0.4263400
v -0.5900000 0.9660000 0.4910000
v -0.5290000 0.9660000 0.4300000
v -0.5942700 0.8410000 0.4336600
v -0.5290000 0.9660000 0.4300000
v -0.5900000 0.9660000 0.4910000
v -0.5839000 1.0910000 0.4263400
v -0.6510000 0.9660000 0.4300000
v -0.5900000 0.9660000 0.4910000
v -0.5942700 0.8410000 0.4336600
v -0.5900000 0.9660000 0.4910000
v -0.6510000 0.9660000 0.4300000
v -0.5839000 1.0910000 0.4263400
v -0.5900000 0.9660000 0.3690000
v -0.6510000 0.9660000 0.4300000
v -0.5942700 0.8410000 0.4336600
v -0.6510000 0.9660000 0.4300000
v -0.5900000 0.9660000 0.3690000
v -0.5839000 1.0910000 0.4263400
v -0.5290000 0.9660000 0.4300000
v -0.5900000 0.9660000 0.3690000
v -0.5942700 0.8410000 0.4336600
v -0.5900000 0.9660000 0.3690000
v -0.5290000 0.9660000 0.4300000
v -0.0109817 0.0006336 0.4190000
v -0.0109817 0.0006336 0.4410000
v 0.0340183 0.7806336 0.4410000
v -0.0109817 0.0006336 0.4190000
v 0.0340183 0.7806336 0.4410000
v 0.0340183 0.7806336 0.4190000
v -0.0109817 0.0006336 0.4410000
v 0.0109817 -0.0006336 0.4410000
v 0.0559817 0.7793664 0.4410000
v -0.0109817 0.0006336 0.4410000
v 0.0559817 0.7793664 0.4410000
v 0.0340183 0.7806336 0.4410000
v 0.0109817 -0.0006336 0.4410000
v 0.0109817 -0.0006336 0.4190000
v 0.0559817 0.7793664 0.4190000
v 0.0109817 -0.0006336 0.4410000
v 0.0559817 0.7793664 0.4190000
v 0.0559817 0.7793664 0.4410000
v 0.0109817 -0.0006336 0.4190000
v -0.0109817 0.0006336 0.4190000
v 0.0340183 0.7806336 0.4190000
v 0.0109817 -0.0006336 0.4190000
v 0.0340183 0.7806336 0.4190000
v 0.0559817 0.7793664 0.4190000
v 0.0511000 0.9850000 0.4263400
v 0.0450000 0.8600000 0.4910000
v 0.1060000 0.8600000 0.4300000
v 0.0407300 0.7350000 0.4336600
v 0.1060000 0.8600000 0.4300000
v 0.0450000 0.8600000 0.4910000
v 0.0511000 0.9850000 0.4263400
v -0.0160000 0.8600000 0.4300000
v 0.0450000 0.8600000 0.4910000
v 0.0407300 0.7350000 0.4336600
v 0.0450000 0.8600000 0.4910000
v -0.0160000 0.8600000 0.4300000
v 0.0511000 0.9850000 0.4263400
v 0.0450000 0.8600000 0.3690000
v -0.0160000 0.8600000 0.4300000
v 0.0407300 0.7350000 0.4336600
v -0.0160000 0.8600000 0.4300000
v 0.0450000 0.8600000 0.3690000
v 0.0511000 0.9850000 0.4263400
v 0.1060000 0.8600000 0.4300000
v 0.0450000 0.8600000 0.3690000
v 0.0407300 0.7350000 0.4336600
v 0.0450000 0.8600000 0.3690000
v 0.1060000 0.8600000 0.4300000
v 0.6240160 0.0005934 0.4190000
v 0.6240160 0.0005934 0.4410000
v 0.6690160 0.8335934 0.4410000
v 0.6240160 0.0005934 0.4190000
v 0.6690160 0.8335934 0.4410000
v 0.6690160 0.8335934 0.4190000
v 0.6240160 0.0005934 0.4410000
v 0.6459840 -0.0005934 0.4410000
v 0.6909840 0.8324066 0.4410000
v 0.6240160 0.0005934 0.4410000
v 0.6909840 0.8324066 0.4410000
v 0.6690160 0.8335934 0.4410000
v 0.6459840 -0.0005934 0.4410000
v 0.6459840 -0.0005934 0.4190000
v 0.6909840 0.8324066 0.4190000
v 0.6459840 -0.0005934 0.4410000
v 0.6909840 0.8324066 0.4190000
v 0.6909840 0.8324066 0.4410000
v 0.6459840 -0.0005934 0.4190000
v 0.6240160 0.0005934 0.4190000
v 0.6690160 0.8335934 0.4190000
v 0.6459840 -0.0005934 0.4190000
v 0.6690160 0.8335934 0.4190000
v 0.6909840 0.8324066 0.4190000
v 0.6861000 1.0380000 0.4263400
v 0.6800000 0.9130000 0.4910000
v 0.7410000 0.9130000 0.4300000
v 0.6757300 0.7880000 0.4336600
v 0.7410000 0.9130000 0.4300000
v 0.6800000 0.9130000 0.4910000
v 0.6861000 1.0380000 0.4263400
v 0.6190000 0.9130000 0.4300000
v 0.6800000 0.9130000 0.4910000
v 0.6757300 0.7880000 0.4336600
v 0.6800000 0.9130000 0.4910000
v 0.6190000 0.9130000 0.4300000
v 0.6861000 1.0380000 0.4263400
v 0.6800000 0.9130000 0.3690000
v 0.6190000 0.9130000 0.4300000
v 0.6757300 0.7880000 0.4336600
v 0.6190000 0.9130000 0.4300000
v 0.6800000 0.9130000 0.3690000
v 0.6861000 1.0380000 0.4263400
v 0.7410000 0.9130000 0.4300000
v 0.6800000 0.9130000 0.3690000
v 0.6757300 0.7880000 0.4336600
v 0.6800000 0.9130000 0.3690000
v 0.7410000 0.9130000 0.4300000
vn -0.9983399 0.0575965 0.0000000
vn -0.9983399 0.0575965 0.0000000
vn 0.0000000 0.0000000 1.0000000
vn 0.0000000 0.0000000 1.0000000
vn 0.9983399 -0.0575965 0.0000000
vn 0.9983399 -0.0575965 0.0000000
vn 0.0000000 0.0000000 -1.0000000
vn 0.0000000 0.0000000 -1.0000000
vn 0.6712357 0.3144605 0.6712357
vn 0.6677164 -0.3291041 0.6677164
vn -0.6564690 0.3716140 0.6564690
vn -0.6772464 -0.2875318 0.6772464
vn -0.6655470 0.3377784 -0.6655470
vn -0.6691389 -0.3232744 -0.6691389
vn 0.6791519 0.2783979 -0.6791519
vn 0.6587955 -0.3632862 -0.6587955
vn -0.9985440 0.0539430 0.0000000
vn -0.9985440 0.0539430 0.0000000
vn 0.0000000 0.0000000 1.0000000
vn 0.0000000 0.0000000 1.0000000
vn 0.9985440 -0.0539430 0.0000000
vn 0.9985440 -0.0539430 0.0000000
vn 0.0000000 0.0000000 -1.0000000
vn 0.0000000 0.0000000 -1.0000000
vn 0.6712357 0.3144605 0.6712357
vn 0.6677164 -0.3291041 0.6677164
vn -0.6564690 0.3716140 0.6564690
vn -0.6772464 -0.2875318 0.6772464
vn -0.6655470 0.3377784 -0.6655470
vn -0.6691389 -0.3232744 -0.6691389
vn 0.6791519 0.2783979 -0.6791519
vn 0.6587955 -0.3632862 -0.6587955
vn -0.9987127 0.0507247 0.0000000
vn -0.9987127 0.0507247 0.0000000
vn 0.0000000 0.0000000 1.0000000
vn 0.0000000 0.0000000 1.0000000
vn 0.9987127 -0.0507247 0.0000000
vn 0.9987127 -0.0507247 0.0000000
vn 0.0000000 0.0000000 -1.0000000
vn 0.0000000 0.0000000 -1.0000000
vn 0.6712357 0.3144605 0.6712357
vn 0.6677164 -0.3291041 0.6677164
vn -0.6564690 0.3716140 0.6564690
vn -0.6772464 -0.2875318 0.6772464
vn -0.6655470 0.3377784 -0.6655470
vn -0.6691389 -0.3232744 -0.6691389
vn 0.6791519 0.2783979 -0.6791519
vn 0.6587955 -0.3632862 -0.6587955
vn -0.9985440 0.0539430 0.0000000
vn -0.9985440 0.0539430 0.0000000
vn 0.0000000 0.0000000 1.0000000
vn 0.0000000 0.0000000 1.0000000
vn 0.9985440 -0.0539430 0.0000000
vn 0.9985440 -0.0539430 0.0000000
vn 0.0000000 0.0000000 -1.0000000
vn 0.0000000 0.0000000 -1.0000000
vn 0.6712357 0.3144605 0.6712357
vn 0.6677164 -0.3291041 0.6677164
vn -0.6564690 0.3716140 0.6564690
vn -0.6772464 -0.2875318 0.6772464
vn -0.6655470 0.3377784 -0.6655470
vn -0.6691389 -0.3232744 -0.6691389
vn 0.6791519 0.2783979 -0.6791519
vn 0.6587955 -0.3632862 -0.6587955
vn -0.9987127 0.0507247 0.0000000
vn -0.9987127 0.0507247 0.0000000
vn 0.0000000 0.0000000 1.0000000
vn 0.0000000 0.0000000 1.0000000
vn 0.9987127 -0.0507247 0.0000000
vn 0.9987127 -0.0507247 0.0000000
vn 0.0000000 0.0000000 -1.0000000
vn 0.0000000 0.0000000 -1.0000000
vn 0.6712357 0.3144605 0.6712357
vn 0.6677164 -0.3291041 0.6677164
vn -0.6564690 0.3716140 0.6564690
vn -0.6772464 -0.2875318 0.6772464
vn -0.6655470 0.3377784 -0.6655470
vn -0.6691389 -0.3232744 -0.6691389
vn 0.6791519 0.2783979 -0.6791519
vn 0.6587955 -0.3632862 -0.6587955
vn -0.9983399 0.0575965 0.0000000
vn -0.9983399 0.0575965 0.0000000
vn 0.0000000 0.0000000 1.0000000
vn 0.0000000 0.0000000 1.0000000
vn 0.9983399 -0.0575965 0.0000000
vn 0.9983399 -0.0575965 0.0000000
vn 0.0000000 0.0000000 -1.0000000
vn 0.0000000 0.0000000 -1.0000000
vn 0.6712357 0.3144605 0.6712357
vn 0.6677164 -0.3291041 0.6677164
vn -0.6564690 0.3716140 0.6564690
vn -0.6772464 -0.2875318 0.6772464
vn -0.6655470 0.3377784 -0.6655470
vn -0.6691389 -0.3232744 -0.6691389
vn 0.6791519 0.2783979 -0.6791519
vn 0.6587955 -0.3632862 -0.6587955
vn -0.9987127 0.0507247 0.0000000
vn -0.9987127 0.0507247 0.0000000
vn 0.0000000 0.0000000 1.0000000
vn 0.0000000 0.0000000 1.0000000
vn 0.9987127 -0.0507247 0.0000000
vn 0.9987127 -0.0507247 0.0000000
vn 0.0000000 0.0000000 -1.0000000
vn 0.0000000 0.0000000 -1.0000000
vn 0.6712357 0.3144605 0.6712357
vn 0.6677164 -0.3291041 0.6677164
vn -0.6564690 0.3716140 0.6564690
vn -0.6772464 -0.2875318 0.6772464
vn -0.6655470 0.3377784 -0.6655470
vn -0.6691389 -0.3232744 -0.6691389
vn 0.6791519 0.2783979 -0.6791519
vn 0.6587955 -0.3632862 -0.6587955
vn -0.9983399 0.0575965 0.0000000
vn -0.9983399 0.0575965 0.0000000
vn 0.0000000 0.0000000 1.0000000
vn 0.0000000 0.0000000 1.0000000
vn 0.9983399 -0.0575965 0.0000000
vn 0.9983399 -0.0575965 0.0000000
vn 0.0000000 0.0000000 -1.0000000
vn 0.0000000 0.0000000 -1.0000000
vn 0.6712357 0.3144605 0.6712357
vn 0.6677164 -0.3291041 0.6677164
vn -0.6564690 0.3716140 0.6564690
vn -0.6772464 -0.2875318 0.6772464
vn -0.6655470 0.3377784 -0.6655470
vn -0.6691389 -0.3232744 -0.6691389
vn 0.6791519 0.2783979 -0.6791519
vn 0.6587955 -0.3632862 -0.6587955
vn -0.9985440 0.0539430 0.0000000
vn -0.9985440 0.0539430 0.0000000
vn 0.0000000 0.0000000 1.0000000
vn 0.0000000 0.0000000 1.0000000
vn 0.9985440 -0.0539430 0.0000000
vn 0.9985440 -0.0539430 0.0000000
vn 0.0000000 0.0000000 -1.0000000
vn 0.0000000 0.0000000 -1.0000000
vn 0.6712357 0.3144605 0.6712357
vn 0.6677164 -0.3291041 0.6677164
vn -0.6564690 0.3716140 0.6564690
vn -0.6772464 -0.2875318 0.6772464
vn -0.6655470 0.3377784 -0.6655470
vn -0.6691389 -0.3232744 -0.6691389
vn 0.6791519 0.2783979 -0.6791519
vn 0.6587955 -0.3632862 -0.6587955
usemtl stalk
f 1//1 2//1 3//1
usemtl stalk
f 4//2 5//2 6//2
usemtl stalk
f 7//3 8//3 9//3
usemtl stalk
f 10//4 11//4 12//4
usemtl stalk
f 13//5 14//5 15//5
usemtl stalk
f 16//6 17//6 18//6
usemtl stalk
f 19//7 20//7 21//7
usemtl stalk
f 22//8 23//8 24//8
usemtl wheat_light
f 25//9 26//9 27//9
usemtl wheat_light
f 28//10 29//10 30//10
usemtl wheat_light
f 31//11 32//11 33//11
usemtl wheat_light
f 34//12 35//12 36//12
usemtl wheat_light
f 37//13 38//13 39//13
usemtl wheat_light
f 40//14 41//14 42//14
usemtl wheat_light
f 43//15 44//15 45//15
usemtl wheat_light
f 46//16 47//16 48//16
usemtl stalk
f 49//17 50//17 51//17
usemtl stalk
f 52//18 53//18 54//18
usemtl stalk
f 55//19 56//19 57//19
usemtl stalk
f 58//20 59//20 60//20
usemtl stalk
f 61//21 62//21 63//21
usemtl stalk
f 64//22 65//22 66//22
usemtl stalk
f 67//23 68//23 69//23
usemtl stalk
f 70//24 71//24 72//24
usemtl wheat
f 73//25 74//25 75//25
usemtl wheat
f 76//26 77//26 78//26
usemtl wheat
f 79//27 80//27 81//27
usemtl wheat
f 82//28 83//28 84//28
usemtl wheat
f 85//29 86//29 87//29
usemtl wheat
f 88//30 89//30 90//30
usemtl wheat
f 91//31 92//31 93//31
usemtl wheat
f 94//32 95//32 96//32
usemtl stalk
f 97//33 98//33 99//33
usemtl stalk
f 100//34 101//34 102//34
usemtl stalk
f 103//35 104//35 105//35
usemtl stalk
f 106//36 107//36 108//36
usemtl stalk
f 109//37 110//37 111//37
usemtl stalk
f 112//38 113//38 114//38
usemtl stalk
f 115//39 116//39 117//39
usemtl stalk
f 118//40 119//40 120//40
usemtl wheat_light
f 121//41 122//41 123//41
usemtl wheat_light
f 124//42 125//42 126//42
usemtl wheat_light
f 127//43 128//43 129//43
usemtl wheat_light
f 130//44 131//44 132//44
usemtl wheat_light
f 133//45 134//45 135//45
usemtl wheat_light
f 136//46 137//46 138//46
usemtl wheat_light
f 139//47 140//47 141//47
usemtl wheat_light
f 142//48 143//48 144//48
usemtl stalk
f 145//49 146//49 147//49
usemtl stalk
f 148//50 149//50 150//50
usemtl stalk
f 151//51 152//51 153//51
usemtl stalk
f 154//52 155//52 156//52
usemtl stalk
f 157//53 158//53 159//53
usemtl stalk
f 160//54 161//54 162//54
usemtl stalk
f 163//55 164//55 165//55
usemtl stalk
f 166//56 167//56 168//56
usemtl wheat_light
f 169//57 170//57 171//57
usemtl wheat_light
f 172//58 173//58 174//58
usemtl wheat_light
f 175//59 176//59 177//59
usemtl wheat_light
f 178//60 179//60 180//60
usemtl wheat_light
f 181//61 182//61 183//61
usemtl wheat_light
f 184//62 185//62 186//62
usemtl wheat_light
f 187//63 188//63 189//63
usemtl wheat_light
f 190//64 191//64 192//64
usemtl stalk
f 193//65 194//65 195//65
usemtl stalk
f 196//66 197//66 198//66
usemtl stalk
f 199//67 200//67 201//67
usemtl stalk
f 202//68 203//68 204//68
usemtl stalk
f 205//69 206//69 207//69
usemtl stalk
f 208//70 209//70 210//70
usemtl stalk
f 211//71 212//71 213//71
usemtl stalk
f 214//72 215//72 216//72
usemtl wheat
f 217//73 218//73 219//73
usemtl wheat
f 220//74 221//74 222//74
usemtl wheat
f 223//75 224//75 225//75
usemtl wheat
f 226//76 227//76 228//76
usemtl wheat
f 229//77 230//77 231//77
usemtl wheat
f 232//78 233//78 234//78
usemtl wheat
f 235//79 236//79 237//79
usemtl wheat
f 238//80 239//80 240//80
usemtl stalk
f 241//81 242//81 243//81
usemtl stalk
f 244//82 245//82 246//82
usemtl stalk
f 247//83 248//83 249//83
usemtl stalk
f 250//84 251//84 252//84
usemtl stalk
f 253//85 254//85 255//85
usemtl stalk
f 256//86 257//86 258//86
usemtl stalk
f 259//87 260//87 261//87
usemtl stalk
f 262//88 263//88 264//88
usemtl wheat_light
f 265//89 266//89 267//89
usemtl wheat_light
f 268//90 269//90 270//90
usemtl wheat_light
f 271//91 272//91 273//91
usemtl wheat_light
f 274//92 275//92 276//92
usemtl wheat_light
f 277//93 278//93 279//93
usemtl wheat_light
f 280//94 281//94 282//94
usemtl wheat_light
f 283//95 284//95 285//95
usemtl wheat_light
f 286//96 287//96 288//96
usemtl stalk
f 289//97 290//97 291//97
usemtl stalk
f 292//98 293//98 294//98
usemtl stalk
f 295//99 296//99 297//99
usemtl stalk
f 298//100 299//100 300//100
usemtl stalk
f 301//101 302//101 303//101
usemtl stalk
f 304//102 305//102 306//102
usemtl stalk
f 307//103 308//103 309//103
usemtl stalk
f 310//104 311//104 312//104
usemtl wheat_light
f 313//105 314//105 315//105
usemtl wheat_light
f 316//106 317//106 318//106
usemtl wheat_light
f 319//107 320//107 321//107
usemtl wheat_light
f 322//108 323//108 324//108
usemtl wheat_light
f 325//109 326//109 327//109
usemtl wheat_light
f 328//110 329//110 330//110
usemtl wheat_light
f 331//111 332//111 333//111
usemtl wheat_light
f 334//112 335//112 336//112
usemtl stalk
f 337//113 338//113 339//113
usemtl stalk
f 340//114 341//114 342//114
usemtl stalk
f 343//115 344//115 345//115
usemtl stalk
f 346//116 347//116 348//116
usemtl stalk
f 349//117 350//117 351//117
usemtl stalk
f 352//118 353//118 354//118
usemtl stalk
f 355//119 356//119 357//119
usemtl stalk
f 358//120 359//120 360//120
usemtl wheat
f 361//121 362//121 363//121
usemtl wheat
f 364//122 365//122 366//122
usemtl wheat
f 367//123 368//123 369//123
usemtl wheat
f 370//124 371//124 372//124
usemtl wheat
f 373//125 374//125 375//125
usemtl wheat
f 376//126 377//126 378//126
usemtl wheat
f 379//127 380//127 381//127
usemtl wheat
f 382//128 383//128 384//128
usemtl stalk
f 385//129 386//129 387//129
usemtl stalk
f 388//130 389//130 390//130
usemtl stalk
f 391//131 392//131 393//131
usemtl stalk
f 394//132 395//132 396//132
usemtl stalk
f 397//133 398//133 399//133
usemtl stalk
f 400//134 401//134 402//134
usemtl stalk
f 403//135 404//135 405//135
usemtl stalk
f 406//136 407//136 408//136
usemtl wheat_light
f 409//137 410//137 411//137
usemtl wheat_light
f 412//138 413//138 414//138
usemtl wheat_light
f 415//139 416//139 417//139
usemtl wheat_light
f 418//140 419//140 420//140
usemtl wheat_light
f 421//141 422//141 423//141
usemtl wheat_light
f 424//142 425//142 426//142
usemtl wheat_light
f 427//143 428//143 429//143
usemtl wheat_light
f 430//144 431//144 432//144
