# Sketchfab derivative; see ATTRIBUTION.md
# Units: metres; Y up; no external geometry or textures
mtllib palette.mtl
o staging_cargo_ship_silhouette
v 2.1887895 2.1479819 12.1743496
v 2.9168455 3.2852461 10.8712729
v 2.8505172 4.1036126 11.4862988
v 0.3362019 2.7374201 11.3319585
v 1.3392536 3.9889491 11.4495438
v 2.8505172 4.1036126 11.4862988
v 0.3362019 2.7374201 11.3319585
v 2.8505172 4.1036126 11.4862988
v 2.5690630 2.8359168 11.3568643
v 2.8872665 3.2389176 -5.7159570
v 2.7434486 3.2389176 -5.7159570
v 2.7422193 3.2392579 10.5042602
v 2.8872665 3.2389176 -5.7159570
v 2.7422193 3.2392579 10.5042602
v 2.9168455 3.2852461 10.8712729
v 2.5690630 2.8359168 11.3568643
v 2.8505172 4.1036126 11.4862988
v 2.7422193 3.2392579 10.5042602
v 2.5690630 2.8359168 11.3568643
v 2.7422193 3.2392579 10.5042602
v 2.6557262 2.7754587 9.5688639
v 2.6557262 2.7754587 9.5688639
v 2.7422193 3.2392579 10.5042602
v 2.7434486 3.2389176 -5.7159570
v 2.6557262 2.7754587 9.5688639
v 2.7434486 3.2389176 -5.7159570
v 2.7439708 2.7435942 -6.3576026
v 2.8557125 3.8029950 -6.4086997
v 2.7434486 3.2389176 -5.7159570
v 2.8872665 3.2389176 -5.7159570
v 2.7439708 2.7435942 -6.3576026
v 2.7434486 3.2389176 -5.7159570
v 2.8557125 3.8029950 -6.4086997
v 2.5444319 1.6566779 -13.3681907
v 2.8402699 2.5057289 -12.9622584
v 2.5501269 1.6073844 1.4551038
v 2.9168455 3.2852461 10.8712729
v 2.7422193 3.2392579 10.5042602
v 2.8505172 4.1036126 11.4862988
v 2.9168455 3.2852461 10.8712729
v 2.5501269 1.6073844 1.4551038
v 2.8402699 2.5057289 -12.9622584
v 2.7439708 2.7435942 -6.3576026
v 2.8557125 3.8029950 -6.4086997
v 1.8101418 3.7629442 -6.3576457
v 2.7439708 2.7435942 -6.3576026
v 1.8101418 3.7629442 -6.3576457
v 1.2455728 2.7373010 -6.3572249
v 2.5690630 2.8359168 11.3568643
v 2.6557262 2.7754587 9.5688639
v 1.3422036 2.7346449 10.5058678
v 2.5690630 2.8359168 11.3568643
v 1.3422036 2.7346449 10.5058678
v 0.3362019 2.7374201 11.3319585
v 2.6557262 2.7754587 9.5688639
v 2.7439708 2.7435942 -6.3576026
v 1.2455728 2.7373010 -6.3572249
v 2.6557262 2.7754587 9.5688639
v 1.2455728 2.7373010 -6.3572249
v 1.3422036 2.7346449 10.5058678
v 2.8246709 4.0624345 -14.6443363
v 2.0069599 1.0365143 -14.4905177
v 0.0870246 1.3086317 -15.2797921
v 2.8246709 4.0624345 -14.6443363
v 2.8402699 2.5057289 -12.9622584
v 2.5444319 1.6566779 -13.3681907
v 2.8246709 4.0624345 -14.6443363
v 2.5444319 1.6566779 -13.3681907
v 2.0069599 1.0365143 -14.4905177
v 2.9168455 3.2852461 10.8712729
v 2.1887895 2.1479819 12.1743496
v 2.5501269 1.6073844 1.4551038
v 0.3362019 2.7374201 11.3319585
v 1.0118171 2.7370024 10.5058690
v 0.6634573 2.7394881 10.5058690
v 1.0118171 2.7370024 10.5058690
v 1.0118170 2.7370026 -5.7159576
v 0.6634572 2.7394882 -5.7159576
v 1.0118171 2.7370024 10.5058690
v 0.6634572 2.7394882 -5.7159576
v 0.6634573 2.7394881 10.5058690
v 1.0118170 2.7370026 -5.7159576
v 1.2455728 2.7373010 -6.3572249
v 0.6634572 2.7394882 -5.7159576
v 0.3457335 0.0262976 -14.3921859
v -0.6775711 0.1853275 -14.3648325
v 0.0870246 1.3086317 -15.2797921
v 2.8872665 3.2389176 -5.7159570
v 2.9168455 3.2852461 10.8712729
v 2.8402699 2.5057289 -12.9622584
v 2.8402699 2.5057289 -12.9622584
v 2.8557125 3.8029950 -6.4086997
v 2.8872665 3.2389176 -5.7159570
v 1.8101418 3.7627516 -12.5779796
v 1.8099438 4.5003629 -12.5786320
v 1.8099438 4.5005651 -6.3582976
v 1.8101418 3.7629442 -6.3576457
v 2.8557125 3.8029950 -6.4086997
v 2.8215203 3.8437862 -8.8861024
v 1.8101418 3.7629442 -6.3576457
v 2.8215203 3.8437862 -8.8861024
v 1.8101418 3.7627516 -12.5779796
v 1.8101418 3.7627516 -12.5779796
v 1.8099438 4.5005651 -6.3582976
v 1.8101418 3.7629442 -6.3576457
v 2.8796983 5.0788952 -9.4353835
v 2.8964933 5.6723501 -10.0805817
v 2.9018377 4.5014959 -6.3864557
v 0.9569731 6.1659182 -6.3879450
v -0.9581601 5.4157510 -6.3632256
v 0.9572209 5.4157489 -6.3649793
v 2.8862077 6.0676047 -9.4362503
v 2.8276301 6.4823638 -6.3723842
v 2.9018377 4.5014959 -6.3864557
v 2.8862077 6.0676047 -9.4362503
v 2.9018377 4.5014959 -6.3864557
v 2.8964933 5.6723501 -10.0805817
v 0.9572209 5.4157489 -6.3649793
v 0.9575047 4.5641668 -6.3919289
v 1.8099438 4.5005651 -6.3582976
v 0.6630495 5.3016941 -12.5432686
v 1.8099438 4.5003629 -12.5786320
v 1.8101418 3.7627516 -12.5779796
v 2.8758342 4.2785479 -12.5545705
v 2.8964933 5.6723501 -10.0805817
v 2.8960347 4.5021139 -10.1514607
v 2.8796983 5.0788952 -9.4353835
v 2.9018377 4.5014959 -6.3864557
v 2.8795872 4.5877477 -9.0345865
v 1.8093399 6.4627964 -10.0323301
v 2.8571824 6.4397602 -10.1532518
v 2.8964933 5.6723501 -10.0805817
v 1.8093399 6.4627964 -10.0323301
v 2.8964933 5.6723501 -10.0805817
v 2.7592106 5.2606052 -10.1522199
v 1.7698767 6.5788025 -6.4516787
v 2.8276301 6.4823638 -6.3723842
v 1.8093498 6.2267357 -8.8874860
v 1.8099438 4.5005651 -6.3582976
v 2.8795872 4.5877477 -9.0345865
v 2.9018377 4.5014959 -6.3864557
v 1.8099438 4.5005651 -6.3582976
v 2.8960347 4.5021139 -10.1514607
v 2.8795872 4.5877477 -9.0345865
v 1.8099438 4.5003629 -12.5786320
v 2.8758342 4.2785479 -12.5545705
v 2.8960347 4.5021139 -10.1514607
v 1.8099438 4.5003629 -12.5786320
v 2.8960347 4.5021139 -10.1514607
v 1.8099438 4.5005651 -6.3582976
v 2.9018377 4.5014959 -6.3864557
v 2.8276301 6.4823638 -6.3723842
v 2.2842346 5.8991283 -6.4182184
v 1.8101418 3.7627516 -12.5779796
v 2.8215203 3.8437862 -8.8861024
v 2.7407742 3.7627102 -14.5586783
v 2.8960347 4.5021139 -10.1514607
v 2.8382635 4.0061729 -10.1510215
v 2.8215203 3.8437862 -8.8861024
v 2.8960347 4.5021139 -10.1514607
v 2.8215203 3.8437862 -8.8861024
v 2.8795872 4.5877477 -9.0345865
v 2.8960347 4.5021139 -10.1514607
v 2.8215203 3.8437862 -8.8861024
v 2.8382635 4.0061729 -10.1510215
v 2.8382635 4.0061729 -10.1510215
v 2.8758342 4.2785479 -12.5545705
v 2.7407742 3.7627102 -14.5586783
v 2.8382635 4.0061729 -10.1510215
v 2.7407742 3.7627102 -14.5586783
v 2.8215203 3.8437862 -8.8861024
v 2.8382635 4.0061729 -10.1510215
v 2.8402699 2.5057289 -12.9622584
v 2.8758342 4.2785479 -12.5545705
v 2.4179254 3.9174500 14.4123555
v 1.3592893 4.0553808 12.5530092
v 1.3632994 3.9909482 13.3232983
v 0.6726906 3.9873315 12.5639592
v -0.0000005 3.9289418 15.4499381
v 0.6761004 3.9788470 13.3395005
v 2.0069599 1.0365143 -14.4905177
v 0.3457335 0.0262976 -14.3921859
v 0.0870246 1.3086317 -15.2797921
v 2.5501269 1.6073844 1.4551038
v 0.4400435 0.0000000 6.1234589
v 2.0069599 1.0365143 -14.4905177
v 0.4262972 0.7045371 13.1714388
v 0.7581457 0.3746014 11.7847307
v 2.1887895 2.1479819 12.1743496
v 2.5501269 1.6073844 1.4551038
v 0.7581457 0.3746014 11.7847307
v 0.4400435 0.0000000 6.1234589
v 0.7581457 0.3746014 11.7847307
v 2.5501269 1.6073844 1.4551038
v 2.1887895 2.1479819 12.1743496
v 1.6524566 4.1002867 14.9543952
v 0.4262972 0.7045371 13.1714388
v 2.1887895 2.1479819 12.1743496
v 1.6524566 4.1002867 14.9543952
v 2.1887895 2.1479819 12.1743496
v 2.5890447 4.1692347 14.1112987
v 2.0069599 1.0365143 -14.4905177
v 2.5444319 1.6566779 -13.3681907
v 2.5501269 1.6073844 1.4551038
v 2.4179254 3.9174500 14.4123555
v 1.6524566 4.1002867 14.9543952
v 2.5890447 4.1692347 14.1112987
v 2.4179254 3.9174500 14.4123555
v 0.0711305 4.1374391 15.5000000
v 1.6524566 4.1002867 14.9543952
v 1.8088679 7.3185557 -8.8739204
v 1.7275089 7.3814217 -6.0287499
v 1.7698767 6.5788025 -6.4516787
v 1.8088679 7.3185557 -8.8739204
v 1.7698767 6.5788025 -6.4516787
v 1.8093498 6.2267357 -8.8874860
v 2.7407742 3.7627102 -14.5586783
v 2.8246709 4.0624345 -14.6443363
v 0.0579199 4.0564403 -15.4725161
v 0.6630495 5.3016941 -12.5432686
v 2.8575711 5.5191270 -12.5169046
v 2.8758342 4.2785479 -12.5545705
v 2.8862077 6.0676047 -9.4362503
v 2.8571824 6.4397602 -10.1532518
v 2.8276301 6.4823638 -6.3723842
v 2.8246709 4.0624345 -14.6443363
v 2.8758342 4.2785479 -12.5545705
v 2.8402699 2.5057289 -12.9622584
v 2.7407742 3.7627102 -14.5586783
v 2.8758342 4.2785479 -12.5545705
v 2.8246709 4.0624345 -14.6443363
v 2.8575711 5.5191270 -12.5169046
v 2.8964933 5.6723501 -10.0805817
v 2.8758342 4.2785479 -12.5545705
v 2.8575711 5.5191270 -12.5169046
v 2.7592106 5.2606052 -10.1522199
v 2.8964933 5.6723501 -10.0805817
v 1.8093498 6.2267357 -8.8874860
v 2.8276301 6.4823638 -6.3723842
v 2.8571824 6.4397602 -10.1532518
v 1.8093498 6.2267357 -8.8874860
v 2.8571824 6.4397602 -10.1532518
v 1.8093399 6.4627964 -10.0323301
v 2.8795872 4.5877477 -9.0345865
v 2.8215203 3.8437862 -8.8861024
v 2.8960347 4.5021139 -10.1514607
v 2.8402699 2.5057289 -12.9622584
v 2.8382635 4.0061729 -10.1510215
v 2.8215203 3.8437862 -8.8861024
v 2.8402699 2.5057289 -12.9622584
v 2.8215203 3.8437862 -8.8861024
v 2.8557125 3.8029950 -6.4086997
v 0.6634573 2.7394881 10.5058690
v 0.6634572 2.7394882 -5.7159576
v 0.0000000 2.7442224 -5.7159570
v 0.6634573 2.7394881 10.5058690
v 0.0000000 2.7442224 -5.7159570
v 0.3362019 2.7374201 11.3319585
v 0.6634572 2.7394882 -5.7159576
v 1.2455728 2.7373010 -6.3572249
v 0.0000000 2.7442224 -5.7159570
v -0.0049057 0.1388100 12.2395699
v 0.4400435 0.0000000 6.1234589
v 0.7581457 0.3746014 11.7847307
v -2.5389257 1.6956071 -14.2362876
v -1.7070829 0.8324178 -14.4176953
v -2.3602861 1.4914897 -9.0785362
v -2.8559139 4.1580072 11.4698439
v -1.3392649 3.9888896 11.4513435
v -2.5337172 2.7613995 11.3845184
v -2.6694772 2.0695110 6.0857972
v -2.8388884 2.4829260 -12.9033680
v -2.3602861 1.4914897 -9.0785362
v -2.7422193 3.2392579 10.5042602
v -2.7434486 3.2389176 -5.7159570
v -2.8872665 3.2389176 -5.7159570
v -2.7422193 3.2392579 10.5042602
v -2.8872665 3.2389176 -5.7159570
v -2.9168455 3.2080099 10.8612935
v -2.7422193 3.2392579 10.5042602
v -2.9168455 3.2080099 10.8612935
v -2.5337172 2.7613995 11.3845184
v -2.7422193 3.2392579 10.5042602
v -2.5337172 2.7613995 11.3845184
v -2.6557262 2.7754587 9.5688639
v -2.3602861 1.4914897 -9.0785362
v -1.0655291 0.4745314 10.9361485
v -2.6694772 2.0695110 6.0857972
v -2.7434486 3.2389176 -5.7159570
v -2.7422193 3.2392579 10.5042602
v -2.6557262 2.7754587 9.5688639
v -2.7434486 3.2389176 -5.7159570
v -2.6557262 2.7754587 9.5688639
v -2.7437808 2.7359228 -6.3576529
v -2.7434486 3.2389176 -5.7159570
v -2.8242981 3.8082086 -6.4201995
v -2.8872665 3.2389176 -5.7159570
v -2.7437808 2.7359228 -6.3576529
v -2.8242981 3.8082086 -6.4201995
v -2.7434486 3.2389176 -5.7159570
v -2.9168455 3.2080099 10.8612935
v -2.6694772 2.0695110 6.0857972
v -1.0655291 0.4745314 10.9361485
v -1.8101418 3.7629255 -6.3576457
v -2.8242981 3.8082086 -6.4201995
v -2.7437808 2.7359228 -6.3576529
v -1.3009763 3.8859920 15.0966334
v -2.5869674 4.1874530 14.1105721
v -1.3867891 1.4269603 12.9104128
v -2.5337172 2.7613995 11.3845184
v -2.7437808 2.7359228 -6.3576529
v -2.6557262 2.7754587 9.5688639
v -2.5389257 1.6956071 -14.2362876
v -2.8062949 3.9374243 -14.5674447
v -1.0438925 4.0507836 -15.2656965
v -2.5389257 1.6956071 -14.2362876
v -1.0438925 4.0507836 -15.2656965
v 0.0870246 1.3086317 -15.2797921
v -0.8522140 2.7381538 -5.7795383
v -2.5337172 2.7613995 11.3845184
v 0.3362019 2.7374201 11.3319585
v -0.8522140 2.7381538 -5.7795383
v 1.2455728 2.7373010 -6.3572249
v -2.7437808 2.7359228 -6.3576529
v -2.8388884 2.4829260 -12.9033680
v -2.9024253 4.3906949 -12.5529403
v -2.8062949 3.9374243 -14.5674447
v -2.8388884 2.4829260 -12.9033680
v -2.8062949 3.9374243 -14.5674447
v -2.5389257 1.6956071 -14.2362876
v -2.6694772 2.0695110 6.0857972
v -2.9168455 3.2080099 10.8612935
v -2.8872665 3.2389176 -5.7159570
v -2.6694772 2.0695110 6.0857972
v -2.8872665 3.2389176 -5.7159570
v -2.8388884 2.4829260 -12.9033680
v -2.8388884 2.4829260 -12.9033680
v -2.8872665 3.2389176 -5.7159570
v -2.8242981 3.8082086 -6.4201995
v -2.8388884 2.4829260 -12.9033680
v -2.8521388 3.8447762 -10.1503492
v -2.9024253 4.3906949 -12.5529403
v -1.8099438 4.5005653 -6.3582976
v -1.8101418 3.7627426 -12.5779810
v -1.8101418 3.7629255 -6.3576457
v -2.8521388 3.8447762 -10.1503492
v -2.8242981 3.8082086 -6.4201995
v -1.8101418 3.7629255 -6.3576457
v -2.8388884 2.4829260 -12.9033680
v -2.8242981 3.8082086 -6.4201995
v -2.8521388 3.8447762 -10.1503492
v -2.8831817 6.4857064 -6.3741727
v -2.8720605 4.8806527 -9.4350655
v -2.8970977 4.5009850 -6.3863520
v -0.9581601 5.4157510 -6.3632256
v 0.9569731 6.1659182 -6.3879450
v -0.9578838 6.4080481 -6.3634599
v -0.9581601 5.4157510 -6.3632256
v -2.8831817 6.4857064 -6.3741727
v -2.2841600 5.8991346 -6.4089640
v -2.8720605 4.8806527 -9.4350655
v -2.8453786 6.4207496 -10.1532279
v -2.8693147 5.3937627 -10.1524594
v -0.9584455 4.5601530 -6.3844249
v -0.9581601 5.4157510 -6.3632256
v -1.8099438 4.5005653 -6.3582976
v -1.8099438 4.5003628 -12.5786320
v -0.6630295 5.4202477 -12.5483106
v -1.8101418 3.7627426 -12.5779810
v -2.8970977 4.5009850 -6.3863520
v -2.8720605 4.8806527 -9.4350655
v -2.8586608 4.3371638 -8.8849309
v -2.8693147 5.3937627 -10.1524594
v -2.8453786 6.4207496 -10.1532279
v -1.8093801 6.2267238 -10.0186979
v -2.8693147 5.3937627 -10.1524594
v -1.8093801 6.2267238 -10.0186979
v 2.7592106 5.2606052 -10.1522199
v -2.8831817 6.4857064 -6.3741727
v -1.7543306 6.5673183 -6.4548568
v -1.8093498 6.2268139 -8.8875229
v -2.2841600 5.8991346 -6.4089640
v -2.2844836 4.8807290 -6.4345949
v -0.9581601 5.4157510 -6.3632256
v -2.8970977 4.5009850 -6.3863520
v -2.8586608 4.3371638 -8.8849309
v -1.8099438 4.5005653 -6.3582976
v -2.8586608 4.3371638 -8.8849309
v -2.9040030 4.5023888 -10.1514604
v -1.8099438 4.5005653 -6.3582976
v -2.9040030 4.5023888 -10.1514604
v -2.9024253 4.3906949 -12.5529403
v -1.8099438 4.5005653 -6.3582976
v -2.2841600 5.8991346 -6.4089640
v -2.8831817 6.4857064 -6.3741727
v -2.8970977 4.5009850 -6.3863520
v -2.2841600 5.8991346 -6.4089640
v -2.8970977 4.5009850 -6.3863520
v -2.2844836 4.8807290 -6.4345949
v -2.8062949 3.9374243 -14.5674447
v -2.8521388 3.8447762 -10.1503492
v -1.8101418 3.7629255 -6.3576457
v -2.8062949 3.9374243 -14.5674447
v -1.8101418 3.7629255 -6.3576457
v -1.8101418 3.7627426 -12.5779810
v -1.8099438 4.5005653 -6.3582976
v -1.8099438 4.5003628 -12.5786320
v -1.8101418 3.7627426 -12.5779810
v -2.9024253 4.3906949 -12.5529403
v -2.9040030 4.5023888 -10.1514604
v -2.8870835 5.4966547 -12.5100039
v -2.9024253 4.3906949 -12.5529403
v -1.8099438 4.5003628 -12.5786320
v -1.8099438 4.5005653 -6.3582976
v -2.8586608 4.3371638 -8.8849309
v -2.8521388 3.8447762 -10.1503492
v -2.9040030 4.5023888 -10.1514604
v -2.8242981 3.8082086 -6.4201995
v -2.8521388 3.8447762 -10.1503492
v -2.8586608 4.3371638 -8.8849309
v -2.8586608 4.3371638 -8.8849309
v -2.8521388 3.8447762 -10.1503492
v -2.8242981 3.8082086 -6.4201995
v -2.8062949 3.9374243 -14.5674447
v -2.7551935 4.0130187 -12.5172583
v -2.8521388 3.8447762 -10.1503492
v -2.8521388 3.8447762 -10.1503492
v -2.7551935 4.0130187 -12.5172583
v -2.9024253 4.3906949 -12.5529403
v -2.9168455 3.2080099 10.8612935
v -2.8559139 4.1580072 11.4698439
v -2.5337172 2.7613995 11.3845184
v -0.6657312 4.0876629 11.4617369
v 0.6651784 4.0489385 11.4563404
v 0.3362019 2.7374201 11.3319585
v -2.4180020 3.9278452 14.4115076
v -1.3568603 3.9425864 13.3251169
v -1.3621044 4.0961306 12.5516676
v -0.6756936 4.0002786 13.3387704
v -1.3621044 4.0961306 12.5516676
v -1.3568603 3.9425864 13.3251169
v -0.0000005 3.9289418 15.4499381
v -0.6720240 3.9707920 12.5644708
v -0.6756936 4.0002786 13.3387704
v -2.4180020 3.9278452 14.4115076
v -0.6756936 4.0002786 13.3387704
v -1.3568603 3.9425864 13.3251169
v -1.7070829 0.8324178 -14.4176953
v -2.5389257 1.6956071 -14.2362876
v 0.0870246 1.3086317 -15.2797921
v -1.0655291 0.4745314 10.9361485
v -2.3602861 1.4914897 -9.0785362
v -1.7070829 0.8324178 -14.4176953
v -2.4180020 3.9278452 14.4115076
v -2.5869674 4.1874530 14.1105721
v 0.0711305 4.1374391 15.5000000
v -1.3009763 3.8859920 15.0966334
v 0.0711305 4.1374391 15.5000000
v -2.5869674 4.1874530 14.1105721
v -1.7543306 6.5673183 -6.4548568
v -1.6977665 7.4453693 -6.0034743
v -1.8088675 7.3234137 -8.8656239
v -1.7543306 6.5673183 -6.4548568
v -1.8088675 7.3234137 -8.8656239
v -1.8093498 6.2268139 -8.8875229
v 0.0579199 4.0564403 -15.4725161
v -2.8062949 3.9374243 -14.5674447
v -0.0006661 3.7627426 -15.3333880
v -2.9024253 4.3906949 -12.5529403
v -2.8870835 5.4966547 -12.5100039
v -0.6630295 5.4202477 -12.5483106
v -2.8831817 6.4857064 -6.3741727
v -2.8453786 6.4207496 -10.1532279
v -2.8546364 5.8990458 -9.4360583
v -2.8062949 3.9374243 -14.5674447
v -2.9024253 4.3906949 -12.5529403
v -2.7551935 4.0130187 -12.5172583
v -2.9040030 4.5023888 -10.1514604
v -2.8693147 5.3937627 -10.1524594
v -2.8870835 5.4966547 -12.5100039
v -2.8388884 2.4829260 -12.9033680
v -2.5389257 1.6956071 -14.2362876
v -2.3602861 1.4914897 -9.0785362
v -2.8720605 4.8806527 -9.4350655
v -2.8693147 5.3937627 -10.1524594
v -2.9040030 4.5023888 -10.1514604
v -2.8453786 6.4207496 -10.1532279
v -2.8831817 6.4857064 -6.3741727
v -1.8093498 6.2268139 -8.8875229
v -2.8453786 6.4207496 -10.1532279
v -1.8093498 6.2268139 -8.8875229
v -1.8093801 6.2267238 -10.0186979
v -2.8521388 3.8447762 -10.1503492
v -2.8586608 4.3371638 -8.8849309
v -2.9040030 4.5023888 -10.1514604
v 0.4262972 0.7045371 13.1714388
v -0.6429647 0.5096140 12.8161277
v -0.0049057 0.1388100 12.2395699
v 1.8101418 3.7627516 -12.5779796
v -0.0006661 3.7627426 -15.3333880
v -1.8101418 3.7627426 -12.5779810
v 0.4262972 0.7045371 13.1714388
v 0.0711305 4.1374391 15.5000000
v -1.3009763 3.8859920 15.0966334
v 0.4262972 0.7045371 13.1714388
v -1.3009763 3.8859920 15.0966334
v -0.6429647 0.5096140 12.8161277
v 0.4400435 0.0000000 6.1234589
v -0.0049057 0.1388100 12.2395699
v -1.0655291 0.4745314 10.9361485
v 0.4400435 0.0000000 6.1234589
v -1.0655291 0.4745314 10.9361485
v -0.6775711 0.1853275 -14.3648325
v 0.0000000 2.7442224 -5.7159570
v -0.8522140 2.7381538 -5.7795383
v 0.3362019 2.7374201 11.3319585
v 1.2455728 2.7373010 -6.3572249
v -0.8522140 2.7381538 -5.7795383
v 0.0000000 2.7442224 -5.7159570
v -0.0049057 0.1388100 12.2395699
v -0.6429647 0.5096140 12.8161277
v -1.0655291 0.4745314 10.9361485
v 0.0579199 4.0564403 -15.4725161
v 0.0870246 1.3086317 -15.2797921
v -1.0438925 4.0507836 -15.2656965
v -0.9581601 5.4157510 -6.3632256
v -0.9584455 4.5601530 -6.3844249
v 1.2455728 2.7373010 -6.3572249
v 0.3457335 0.0262976 -14.3921859
v 0.4400435 0.0000000 6.1234589
v -0.6775711 0.1853275 -14.3648325
v 1.8101418 3.7627516 -12.5779796
v -1.8101418 3.7627426 -12.5779810
v -0.6630295 5.4202477 -12.5483106
v 1.8101418 3.7627516 -12.5779796
v -0.6630295 5.4202477 -12.5483106
v 0.6630495 5.3016941 -12.5432686
v 0.6630495 5.3016941 -12.5432686
v -0.6630295 5.4202477 -12.5483106
v 2.7592106 5.2606052 -10.1522199
v 1.7698767 6.5788025 -6.4516787
v -1.7543306 6.5673183 -6.4548568
v -0.9578838 6.4080481 -6.3634599
v 1.8093498 6.2267357 -8.8874860
v -1.8093498 6.2268139 -8.8875229
v 1.8088679 7.3185557 -8.8739204
v 2.5890447 4.1692347 14.1112987
v 2.1887895 2.1479819 12.1743496
v 2.8505172 4.1036126 11.4862988
v 2.4179254 3.9174500 14.4123555
v 2.8505172 4.1036126 11.4862988
v 1.3392536 3.9889491 11.4495438
v 2.4179254 3.9174500 14.4123555
v 1.3392536 3.9889491 11.4495438
v 1.3592893 4.0553808 12.5530092
v 0.6651784 4.0489385 11.4563404
v -0.0000005 3.9289418 15.4499381
v 0.6726906 3.9873315 12.5639592
v 2.4179254 3.9174500 14.4123555
v 2.5890447 4.1692347 14.1112987
v 2.8505172 4.1036126 11.4862988
v 0.7581457 0.3746014 11.7847307
v 0.4262972 0.7045371 13.1714388
v -0.0049057 0.1388100 12.2395699
v -2.9168455 3.2080099 10.8612935
v -1.0655291 0.4745314 10.9361485
v -1.3867891 1.4269603 12.9104128
v -2.8559139 4.1580072 11.4698439
v -2.9168455 3.2080099 10.8612935
v -2.5869674 4.1874530 14.1105721
v -1.3867891 1.4269603 12.9104128
v -2.5869674 4.1874530 14.1105721
v -2.9168455 3.2080099 10.8612935
v -0.6429647 0.5096140 12.8161277
v -1.3867891 1.4269603 12.9104128
v -1.0655291 0.4745314 10.9361485
v -1.3392649 3.9888896 11.4513435
v -2.8559139 4.1580072 11.4698439
v -2.4180020 3.9278452 14.4115076
v -1.3392649 3.9888896 11.4513435
v -2.4180020 3.9278452 14.4115076
v -1.3621044 4.0961306 12.5516676
v -0.6720240 3.9707920 12.5644708
v -0.6657312 4.0876629 11.4617369
v -1.3392649 3.9888896 11.4513435
v -0.0000005 3.9289418 15.4499381
v 0.6651784 4.0489385 11.4563404
v -0.6657312 4.0876629 11.4617369
v -0.0000005 3.9289418 15.4499381
v -0.6657312 4.0876629 11.4617369
v -0.6720240 3.9707920 12.5644708
v -2.5869674 4.1874530 14.1105721
v -2.4180020 3.9278452 14.4115076
v -2.8559139 4.1580072 11.4698439
v 1.7275089 7.3814217 -6.0287499
v 1.8088679 7.3185557 -8.8739204
v 1.5475587 7.8097967 -6.2877419
v -1.8088675 7.3234137 -8.8656239
v -1.6977665 7.4453693 -6.0034743
v -1.6322923 7.8811661 -6.3062099
v 0.3362019 2.7374201 11.3319585
v 0.4414416 5.7811467 11.0368203
v 0.5648667 5.7797099 11.3010927
v 0.3362019 2.7374201 11.3319585
v 0.5648667 5.7797099 11.3010927
v 0.4414416 5.7811467 11.0368203
v 0.5597691 6.7843422 11.1689406
v 0.3454653 6.2691723 11.1689480
v 0.7157061 6.2648635 11.1689481
v 0.5597691 6.7843422 11.1689406
v 0.7157061 6.2648635 11.1689481
v 0.3454653 6.2691723 11.1689480
v 0.7157061 6.2648635 11.1689481
v 0.3454653 6.2691723 11.1689480
v 0.5648667 5.7797099 11.3010927
v 0.7157061 6.2648635 11.1689481
v 0.5648667 5.7797099 11.3010927
v 0.4414416 5.7811467 11.0368203
v 0.3454653 6.2691723 11.1689480
v 0.7157061 6.2648635 11.1689481
v 0.4414416 5.7811467 11.0368203
v 0.3454653 6.2691723 11.1689480
v 0.4414416 5.7811467 11.0368203
v 0.5648667 5.7797099 11.3010927
v 0.7157061 6.2648635 11.1689481
v 0.3454653 6.2691723 11.1689480
v 0.5305864 6.2670179 11.5561278
v 0.3454653 6.2691723 11.1689480
v 0.7157061 6.2648635 11.1689481
v 0.5305864 6.2670179 11.5561278
v 0.3454653 6.2691723 11.1689480
v 0.7157061 6.2648635 11.1689481
v 0.5305863 6.2670181 10.7817686
v 0.7157061 6.2648635 11.1689481
v 0.3454653 6.2691723 11.1689480
v 0.5305863 6.2670181 10.7817686
v 0.4414416 5.7811467 11.0368203
v 0.5648667 5.7797099 11.3010927
v 1.1552626 5.7725826 11.1689552
v 0.5648667 5.7797099 11.3010927
v 0.4414416 5.7811467 11.0368203
v 1.1552626 5.7725826 11.1689552
v 0.5648667 5.7797099 11.3010927
v 0.4414416 5.7811467 11.0368203
v -0.1489597 5.7882674 11.1689563
v 0.4414416 5.7811467 11.0368203
v 0.5648667 5.7797099 11.3010927
v -0.1489597 5.7882674 11.1689563
v 1.5475587 7.8097967 -6.2877419
v 1.8088679 7.3185557 -8.8739204
v -0.1413172 7.4603341 -8.4828395
v 1.5475587 7.8097967 -6.2877419
v -0.1413172 7.4603341 -8.4828395
v 0.1368954 7.9169545 -6.7478404
v 1.8088679 7.3185557 -8.8739204
v -1.8088675 7.3234137 -8.8656239
v -0.1413172 7.4603341 -8.4828395
v -1.8088675 7.3234137 -8.8656239
v -1.6322923 7.8811661 -6.3062099
v 0.1368954 7.9169545 -6.7478404
v -1.8088675 7.3234137 -8.8656239
v 0.1368954 7.9169545 -6.7478404
v -0.1413172 7.4603341 -8.4828395
v -1.6322923 7.8811661 -6.3062099
v 1.5475587 7.8097967 -6.2877419
v 0.1368954 7.9169545 -6.7478404
v 0.1368954 7.9169545 -6.7478404
v -0.1413172 7.4603341 -8.4828395
v -0.0044756 8.7777678 -7.6654552
v -0.1413172 7.4603341 -8.4828395
v 0.1368954 7.9169545 -6.7478404
v -0.0044756 8.7777678 -7.6654552
v -0.0044756 8.7777678 -7.6654552
v -0.0521473 9.4652346 -7.8008877
v 0.0521473 9.4630498 -7.4711055
v -0.0044756 8.7777678 -7.6654552
v 0.0521473 9.4630498 -7.4711055
v -0.0521473 9.4652346 -7.8008877
v 0.0521473 9.4630498 -7.4711055
v -0.0521473 9.4652346 -7.8008877
v 1.0931471 9.6286441 -7.5349020
v -0.0521473 9.4652346 -7.8008877
v -1.0931475 9.6299573 -7.7327707
v 1.0931471 9.6286441 -7.5349020
v -0.0521473 9.4652346 -7.8008877
v 0.0521473 9.4630498 -7.4711055
v -1.0931475 9.6299573 -7.7327707
v 0.0521473 9.4630498 -7.4711055
v 1.0931471 9.6286441 -7.5349020
v -1.0931475 9.6299573 -7.7327707
v 0.0870246 1.3086317 -15.2797921
v -0.6775711 0.1853275 -14.3648325
v -1.7070829 0.8324178 -14.4176953
v 0.0579199 4.0564403 -15.4725161
v -1.0438925 4.0507836 -15.2656965
v -2.8062949 3.9374243 -14.5674447
v -0.6657312 4.0876629 11.4617369
v 0.3362019 2.7374201 11.3319585
v -2.5337172 2.7613995 11.3845184
v -0.6657312 4.0876629 11.4617369
v -2.5337172 2.7613995 11.3845184
v -1.3392649 3.9888896 11.4513435
v -1.3867891 1.4269603 12.9104128
v -0.6429647 0.5096140 12.8161277
v -1.3009763 3.8859920 15.0966334
v -2.8062949 3.9374243 -14.5674447
v -1.8101418 3.7627426 -12.5779810
v -0.0006661 3.7627426 -15.3333880
v -1.8101418 3.7629255 -6.3576457
v -2.7437808 2.7359228 -6.3576529
v 1.2455728 2.7373010 -6.3572249
v -1.0655291 0.4745314 10.9361485
v -1.7070829 0.8324178 -14.4176953
v -0.6775711 0.1853275 -14.3648325
v -2.7437808 2.7359228 -6.3576529
v -2.5337172 2.7613995 11.3845184
v -0.8522140 2.7381538 -5.7795383
v -1.8099438 4.5005653 -6.3582976
v -1.8101418 3.7629255 -6.3576457
v 1.2455728 2.7373010 -6.3572249
v -1.8099438 4.5005653 -6.3582976
v 1.2455728 2.7373010 -6.3572249
v -0.9584455 4.5601530 -6.3844249
v 2.7592106 5.2606052 -10.1522199
v -1.8093801 6.2267238 -10.0186979
v -1.8093143 6.5283489 -10.1463812
v -1.8099438 4.5003628 -12.5786320
v -2.9024253 4.3906949 -12.5529403
v -0.6630295 5.4202477 -12.5483106
v -2.8870835 5.4966547 -12.5100039
v -2.8693147 5.3937627 -10.1524594
v 2.7592106 5.2606052 -10.1522199
v -2.8870835 5.4966547 -12.5100039
v 2.7592106 5.2606052 -10.1522199
v -0.6630295 5.4202477 -12.5483106
v -0.6756936 4.0002786 13.3387704
v -0.6720240 3.9707920 12.5644708
v -1.3621044 4.0961306 12.5516676
v -2.4180020 3.9278452 14.4115076
v -0.0000005 3.9289418 15.4499381
v -0.6756936 4.0002786 13.3387704
v 0.0711305 4.1374391 15.5000000
v -0.0000005 3.9289418 15.4499381
v -2.4180020 3.9278452 14.4115076
v 1.4092626 6.7086595 -6.4602595
v -1.6977665 7.4453693 -6.0034743
v -1.7543306 6.5673183 -6.4548568
v -1.8093498 6.2268139 -8.8875229
v -1.8088675 7.3234137 -8.8656239
v 1.8088679 7.3185557 -8.8739204
v -0.9578838 6.4080481 -6.3634599
v -1.7543306 6.5673183 -6.4548568
v -2.8831817 6.4857064 -6.3741727
v -1.8093801 6.2267238 -10.0186979
v -1.8093498 6.2268139 -8.8875229
v 1.8093498 6.2267357 -8.8874860
v -1.8093143 6.5283489 -10.1463812
v -1.8093801 6.2267238 -10.0186979
v 1.8093399 6.4627964 -10.0323301
v -1.3392649 3.9888896 11.4513435
v -1.3621044 4.0961306 12.5516676
v -0.6720240 3.9707920 12.5644708
v 0.3362019 2.7374201 11.3319585
v 0.6651784 4.0489385 11.4563404
v 1.3392536 3.9889491 11.4495438
v 0.0711305 4.1374391 15.5000000
v 0.4262972 0.7045371 13.1714388
v 1.6524566 4.1002867 14.9543952
v 1.8101418 3.7627516 -12.5779796
v 2.7407742 3.7627102 -14.5586783
v -0.0006661 3.7627426 -15.3333880
v 0.3362019 2.7374201 11.3319585
v 1.3422036 2.7346449 10.5058678
v 1.0118171 2.7370024 10.5058690
v 1.3422036 2.7346449 10.5058678
v 1.2455728 2.7373010 -6.3572249
v 1.0118170 2.7370026 -5.7159576
v 1.3422036 2.7346449 10.5058678
v 1.0118170 2.7370026 -5.7159576
v 1.0118171 2.7370024 10.5058690
v 0.3457335 0.0262976 -14.3921859
v 2.0069599 1.0365143 -14.4905177
v 0.4400435 0.0000000 6.1234589
v 0.0579199 4.0564403 -15.4725161
v 2.8246709 4.0624345 -14.6443363
v 0.0870246 1.3086317 -15.2797921
v 1.8101418 3.7629442 -6.3576457
v 1.8099438 4.5005651 -6.3582976
v 0.9575047 4.5641668 -6.3919289
v 1.8101418 3.7629442 -6.3576457
v 0.9575047 4.5641668 -6.3919289
v 1.2455728 2.7373010 -6.3572249
v 1.8093399 6.4627964 -10.0323301
v 2.7592106 5.2606052 -10.1522199
v -1.8093143 6.5283489 -10.1463812
v 2.8758342 4.2785479 -12.5545705
v 1.8099438 4.5003629 -12.5786320
v 0.6630495 5.3016941 -12.5432686
v 2.7592106 5.2606052 -10.1522199
v 2.8575711 5.5191270 -12.5169046
v 0.6630495 5.3016941 -12.5432686
v 1.3592893 4.0553808 12.5530092
v 0.6726906 3.9873315 12.5639592
v 0.6761004 3.9788470 13.3395005
v 1.3592893 4.0553808 12.5530092
v 0.6761004 3.9788470 13.3395005
v 1.3632994 3.9909482 13.3232983
v 1.3632994 3.9909482 13.3232983
v 0.6761004 3.9788470 13.3395005
v 2.4179254 3.9174500 14.4123555
v 0.6761004 3.9788470 13.3395005
v -0.0000005 3.9289418 15.4499381
v 2.4179254 3.9174500 14.4123555
v -0.0000005 3.9289418 15.4499381
v 0.0711305 4.1374391 15.5000000
v 2.4179254 3.9174500 14.4123555
v -1.6977665 7.4453693 -6.0034743
v 1.4092626 6.7086595 -6.4602595
v 1.7275089 7.3814217 -6.0287499
v 2.7407742 3.7627102 -14.5586783
v 0.0579199 4.0564403 -15.4725161
v -0.0006661 3.7627426 -15.3333880
v 1.7698767 6.5788025 -6.4516787
v -0.9578838 6.4080481 -6.3634599
v 2.8276301 6.4823638 -6.3723842
v -0.9578838 6.4080481 -6.3634599
v 0.9569731 6.1659182 -6.3879450
v 2.8276301 6.4823638 -6.3723842
v 1.8093498 6.2267357 -8.8874860
v 1.8093399 6.4627964 -10.0323301
v -1.8093801 6.2267238 -10.0186979
v 1.3392536 3.9889491 11.4495438
v 0.6651784 4.0489385 11.4563404
v 0.6726906 3.9873315 12.5639592
v 1.3392536 3.9889491 11.4495438
v 0.6726906 3.9873315 12.5639592
v 1.3592893 4.0553808 12.5530092
v -2.8831817 6.4857064 -6.3741727
v -0.9581601 5.4157510 -6.3632256
v -0.9578838 6.4080481 -6.3634599
v 0.9572209 5.4157489 -6.3649793
v 2.8276301 6.4823638 -6.3723842
v 0.9569731 6.1659182 -6.3879450
v -0.9581601 5.4157510 -6.3632256
v 1.2455728 2.7373010 -6.3572249
v 0.9575047 4.5641668 -6.3919289
v -0.9581601 5.4157510 -6.3632256
v 0.9575047 4.5641668 -6.3919289
v 0.9572209 5.4157489 -6.3649793
v 2.8276301 6.4823638 -6.3723842
v 0.9572209 5.4157489 -6.3649793
v 2.2842346 5.8991283 -6.4182184
v 0.9572209 5.4157489 -6.3649793
v 1.8099438 4.5005651 -6.3582976
v 2.2846770 4.8807288 -6.4538314
v 1.8099438 4.5005651 -6.3582976
v 2.9018377 4.5014959 -6.3864557
v 2.2846770 4.8807288 -6.4538314
v 2.9018377 4.5014959 -6.3864557
v 2.2842346 5.8991283 -6.4182184
v 2.2846770 4.8807288 -6.4538314
v 2.2842346 5.8991283 -6.4182184
v 0.9572209 5.4157489 -6.3649793
v 2.2846770 4.8807288 -6.4538314
v -1.8099438 4.5005653 -6.3582976
v -0.9581601 5.4157510 -6.3632256
v -2.2844836 4.8807290 -6.4345949
v -2.8970977 4.5009850 -6.3863520
v -1.8099438 4.5005653 -6.3582976
v -2.2844836 4.8807290 -6.4345949
v -1.7543306 6.5673183 -6.4548568
v 1.7698767 6.5788025 -6.4516787
v 1.4092626 6.7086595 -6.4602595
v 1.7698767 6.5788025 -6.4516787
v 1.7275089 7.3814217 -6.0287499
v 1.4092626 6.7086595 -6.4602595
v -1.6977665 7.4453693 -6.0034743
v 1.7275089 7.3814217 -6.0287499
v 1.5475587 7.8097967 -6.2877419
v -1.6977665 7.4453693 -6.0034743
v 1.5475587 7.8097967 -6.2877419
v -1.6322923 7.8811661 -6.3062099
v 2.8964933 5.6723501 -10.0805817
v 2.8571824 6.4397602 -10.1532518
v 2.8862077 6.0676047 -9.4362503
v 2.8960347 4.5021139 -10.1514607
v 2.8964933 5.6723501 -10.0805817
v 2.8796983 5.0788952 -9.4353835
v 2.8960347 4.5021139 -10.1514607
v 2.8796983 5.0788952 -9.4353835
v 2.8795872 4.5877477 -9.0345865
v -2.8720605 4.8806527 -9.4350655
v -2.8831817 6.4857064 -6.3741727
v -2.8546364 5.8990458 -9.4360583
v -2.8453786 6.4207496 -10.1532279
v -2.8720605 4.8806527 -9.4350655
v -2.8546364 5.8990458 -9.4360583
v -2.9040030 4.5023888 -10.1514604
v -2.8586608 4.3371638 -8.8849309
v -2.8720605 4.8806527 -9.4350655
vn 0.9180991 -0.1878697 0.3489971
vn 0.0182450 0.0790213 -0.9967060
vn 0.0066821 0.1001034 -0.9949546
vn 0.0000000 1.0000000 -0.0000210
vn -0.2502277 0.9681844 -0.0022579
vn -0.9701994 0.2246702 -0.0907542
vn -0.9549798 0.2913112 -0.0561374
vn -0.9830234 0.1834803 -0.0000783
vn -0.9999657 0.0061389 -0.0055528
vn 0.0000000 0.7754431 0.6314175
vn -0.9917925 0.1008179 -0.0786344
vn 0.9445335 -0.3284118 -0.0014550
vn 0.8104969 0.3924668 -0.4348156
vn 0.9711256 -0.2385228 0.0046811
vn 0.0470756 0.0431683 0.9979581
vn 0.0002509 0.0002721 0.9999999
vn -0.0570382 0.9977046 -0.0365002
vn -0.0433745 0.9974785 -0.0561719
vn -0.0042004 0.9999891 -0.0020240
vn -0.0308190 0.9995249 0.0003340
vn 0.3587591 -0.1438324 -0.9222820
vn 0.9492592 -0.2263798 -0.2183098
vn 0.9186846 -0.2632315 -0.2944958
vn 0.8679891 -0.4936216 0.0541538
vn 0.0071350 0.9999603 0.0053297
vn 0.0071351 0.9999745 0.0000000
vn 0.0071351 0.9999745 0.0000000
vn 0.0071350 0.9999698 0.0030661
vn -0.1118041 -0.5807221 -0.8063880
vn 0.9988585 -0.0477394 -0.0016479
vn 0.9990326 0.0426305 -0.0107927
vn 1.0000000 0.0002684 -0.0000000
vn -0.0374443 0.9991546 0.0169682
vn -0.0797551 0.9968145 -0.0000309
vn 1.0000000 0.0002684 -0.0000000
vn 0.9988370 -0.0455263 -0.0158746
vn 0.0009152 0.0306000 0.9995313
vn 0.9992041 0.0373325 0.0140499
vn 0.9998149 0.0187092 0.0044834
vn -0.0417579 -0.0316169 0.9986274
vn -0.0314424 -0.0008925 -0.9995052
vn 0.9999646 0.0001179 -0.0084166
vn 0.9999362 -0.0072757 -0.0086388
vn -0.1162297 -0.0995339 -0.9882225
vn 0.0652067 0.1499054 -0.9865478
vn 0.1003511 0.9849482 -0.1407362
vn 0.0000125 -0.9994700 -0.0325537
vn 0.2721970 -0.9591118 0.0775462
vn -0.2048653 -0.9744215 0.0923744
vn 0.0015396 -0.9999988 0.0000325
vn -0.0735542 -0.0098396 0.9972427
vn -0.0294662 0.9994696 -0.0138656
vn -0.9932819 0.1157070 0.0017065
vn -0.9970684 0.0737628 -0.0203388
vn 0.9932819 -0.1157070 -0.0017065
vn -0.9757835 0.2185318 0.0095116
vn -0.9818999 0.1890646 0.0112746
vn 0.9996497 -0.0230467 0.0130142
vn -0.0167162 0.9963733 0.0834309
vn -0.0390946 0.9991738 0.0111030
vn 0.2633266 -0.5125719 -0.8172693
vn 0.6160113 -0.7877043 0.0072170
vn 0.7020052 -0.6365123 0.3194382
vn 0.6282789 -0.7778202 0.0161652
vn 0.7707333 -0.6345143 0.0579809
vn 0.7006978 -0.5132293 0.4955988
vn 0.5422192 -0.6348434 0.5504291
vn 0.7578883 -0.6523797 -0.0024606
vn -0.5887377 -0.4232783 -0.6886388
vn -0.1539533 0.8498298 -0.5040710
vn 0.9988885 0.0381208 0.0277214
vn 0.9998693 0.0002405 0.0161685
vn -0.2709709 0.3338680 0.9028327
vn 0.0089877 0.0304786 -0.9994950
vn 0.9958556 0.0906966 0.0067619
vn 0.9996275 -0.0147767 -0.0229455
vn -0.9632866 0.2684425 -0.0041771
vn 0.9997407 0.0152316 -0.0169296
vn -0.9483984 0.3170451 -0.0047879
vn -0.2138936 0.9767747 -0.0126784
vn 0.0447912 0.9784137 0.2017433
vn 0.9970684 -0.0737628 0.0203388
vn 0.9997628 -0.0189091 0.0108059
vn 0.9984952 0.0532991 -0.0129033
vn 0.0071354 0.9999745 0.0000000
vn -0.0050599 0.9999871 0.0004988
vn 0.0071354 0.9999698 0.0030665
vn 0.3191705 -0.9466423 0.0447046
vn -0.7203207 -0.6936366 -0.0025022
vn -0.0055180 0.0597119 -0.9982004
vn -0.8981931 -0.4395984 -0.0015573
vn 0.0000000 1.0000000 -0.0000210
vn -0.1731174 0.9849000 0.0015274
vn 0.5039771 0.8035119 0.3168213
vn 0.9514232 0.3016613 -0.0615982
vn -0.7225185 -0.6912540 0.0116169
vn 0.9830234 0.1834803 -0.0000783
vn 0.9999641 0.0064129 -0.0055445
vn 0.0000000 0.7776822 0.6286577
vn 0.9958381 0.0714787 -0.0565443
vn -0.8257586 -0.5568018 0.0899701
vn -0.0590856 0.0537072 0.9968071
vn -0.5922757 -0.5237158 0.6123163
vn 0.1635798 0.9865244 -0.0033533
vn -0.3525673 -0.1777644 -0.9187470
vn -0.3843928 -0.1538521 -0.9102591
vn 0.0083453 0.9999650 -0.0005367
vn -0.0003452 0.9999962 -0.0027297
vn -0.9987943 -0.0255661 -0.0419091
vn -0.9806311 -0.1375516 -0.1394351
vn -0.9790114 -0.2037944 -0.0021268
vn -0.9924661 -0.1223633 0.0061903
vn -0.9957989 0.0901254 -0.0161823
vn -0.9992827 -0.0356349 0.0128181
vn -1.0000000 0.0002684 -0.0000000
vn 0.0440219 0.9989857 0.0094647
vn -0.9996779 -0.0243276 0.0072228
vn -0.9999482 0.0070562 -0.0073332
vn 0.0128153 0.0002325 0.9999179
vn -0.0880558 -0.1483485 0.9850071
vn -0.9996458 0.0233084 0.0128450
vn 0.0323916 -0.0247674 0.9991683
vn 0.0271411 -0.0008896 -0.9996312
vn -0.9992061 -0.0376932 -0.0128999
vn 0.1280868 -0.0037275 -0.9917560
vn 0.0036848 0.1539803 -0.9880670
vn -0.0811270 0.9873314 -0.1363636
vn -0.0436078 -0.0251219 0.9987328
vn -0.0020727 -0.9978574 0.0653934
vn 0.4535324 -0.8815245 -0.1312358
vn -0.1602768 -0.9860111 0.0457545
vn 0.0516461 -0.0064903 0.9986444
vn 0.0939217 -0.0250783 0.9952637
vn 0.0021256 0.9997774 0.0209923
vn 0.1727769 0.9849610 -0.0000290
vn -1.0000000 0.0002684 -0.0000000
vn -0.9999022 0.0139212 -0.0013044
vn 0.0998830 -0.9949992 0.0000324
vn 0.9965854 0.0785551 -0.0254302
vn 0.9994746 0.0316135 -0.0071498
vn -0.9994746 -0.0316135 0.0071498
vn 0.8535875 -0.5209455 -0.0020676
vn 0.9277225 0.3677193 0.0641361
vn 0.8679586 0.2272178 -0.4416107
vn -0.0012802 0.0947326 -0.9955019
vn 0.1814288 0.9648150 0.1903038
vn -0.0866527 0.9770573 0.1945517
vn 0.2159155 0.9757432 -0.0361346
vn -0.0828596 0.9942765 -0.0674425
vn -0.3861770 -0.1821121 -0.9042690
vn -0.6816499 -0.7316458 0.0069208
vn 0.3636527 -0.5945767 -0.7171020
vn -0.3150653 0.7112731 0.6283505
vn -0.9982910 0.0453833 0.0368172
vn -0.9997443 -0.0000118 0.0226127
vn 0.2660989 0.3688081 0.8906020
vn -0.0158684 0.0390085 -0.9991129
vn -0.9999417 0.0039015 -0.0100698
vn 0.9322475 0.3599745 -0.0365095
vn -0.9992007 0.0388947 0.0092285
vn -0.9244609 -0.3809001 0.0169448
vn -0.9989548 0.0389017 0.0240006
vn 0.2014379 0.9793892 -0.0148193
vn 0.1840937 0.9829087 -0.0000832
vn -0.9965854 -0.0785551 0.0254302
vn -0.0195365 -0.8506092 0.5254353
vn -0.0000025 1.0000000 -0.0000016
vn -0.1354410 -0.5657379 0.8133858
vn -0.1621523 -0.5738166 0.8027709
vn -0.3014505 -0.9534818 -0.0002906
vn -0.2811785 -0.9596324 0.0066576
vn -0.0071611 0.9999742 0.0005402
vn -0.0055150 0.9997536 -0.0215028
vn -0.4219803 -0.8997052 0.1116384
vn -0.1836741 -0.0707110 -0.9804406
vn -0.0327965 -0.0247453 0.9991557
vn -0.1535794 -0.9881362 -0.0005606
vn 0.0000003 0.0178976 -0.9998398
vn 0.0062316 0.0271912 -0.9996108
vn 0.0891106 0.9941498 -0.0610367
vn -0.0023794 0.4887414 0.8724255
vn 0.0000105 0.0124238 -0.9999228
vn 0.9526469 -0.2864424 0.1020526
vn -0.0768101 0.9956892 0.0519924
vn 0.2364002 0.9696328 -0.0626670
vn 0.1457403 0.9878504 0.0539569
vn -0.8740271 0.4756943 -0.0989524
vn 0.4430234 -0.8424994 0.3064720
vn -0.8222954 -0.5532750 0.1331051
vn -0.9948519 -0.0011039 0.1013336
vn -0.8526820 -0.4699436 0.2282243
vn -0.7546546 -0.6305503 0.1813911
vn 0.1113493 0.9919054 0.0610327
vn -0.3233824 0.9411343 -0.0984384
vn -0.1458815 0.9838793 0.1034418
vn 0.0292075 0.9989646 0.0348810
vn -0.3563123 0.9293741 0.0964644
vn 0.8810425 0.4634204 -0.0948977
vn 0.9179949 0.3962060 0.0174960
vn -0.9850360 0.1695355 0.0310126
vn 0.9035395 -0.0721972 -0.4223790
vn -0.9035395 0.0721972 0.4223790
vn 0.0000001 0.0000144 1.0000000
vn -0.0000001 -0.0000144 -1.0000000
vn 0.0030480 0.2619192 0.9650850
vn 0.8412940 -0.3691351 -0.3949224
vn 0.0030479 0.2618882 -0.9650934
vn -0.8701970 -0.2807542 0.4048880
vn 0.0116370 0.9999323 -0.0000000
vn -0.0116370 -0.9999323 0.0000000
vn 0.0116370 0.9999323 0.0000005
vn -0.0116370 -0.9999323 -0.0000005
vn 0.0120304 0.9999276 -0.0001825
vn -0.0120304 -0.9999276 0.0001825
vn 0.0120202 0.9999277 -0.0001777
vn -0.0120202 -0.9999277 0.0001777
vn 0.0347054 0.9824789 -0.1831139
vn 0.1617902 0.9476338 -0.2753437
vn 0.0004868 0.9409024 -0.3386775
vn -0.0715720 0.9755787 -0.2076622
vn -0.0217970 0.9676938 -0.2511843
vn 0.0211757 0.9861094 0.1647419
vn 0.9875848 -0.0051707 -0.1570015
vn -0.9875848 0.0051707 0.1570015
vn 0.9534470 0.0067224 -0.3014857
vn -0.9534470 -0.0067224 0.3014857
vn 0.1535642 -0.9866012 -0.0551013
vn 0.0646283 0.7018015 -0.7094348
vn -0.1534713 -0.9872603 0.0419952
vn -0.0650433 0.6875257 0.7232412
vn -0.2671651 -0.4927114 -0.8281656
vn 0.0462745 0.9609554 0.2728064
vn -0.0175571 0.0827424 -0.9964163
vn 0.0086777 0.0459367 -0.9989067
vn -0.5767792 -0.5314424 0.6203989
vn 0.0755512 0.9959068 0.0496145
vn -0.0001073 0.0000906 1.0000000
vn -0.5322083 -0.8466121 0.0015165
vn -0.0007433 0.9999987 -0.0014271
vn 0.0001589 0.0008837 0.9999996
vn 0.0272859 0.0478905 0.9984798
vn -0.1086989 -0.3874982 -0.9154396
vn -0.0305718 0.0709806 -0.9970091
vn 0.0236269 0.9987778 0.0434123
vn 0.0346242 0.9992537 0.0171242
vn 0.1792426 0.9831242 -0.0365895
vn -0.0173337 0.9990768 0.0393068
vn 0.3931231 0.0856972 -0.9154836
vn 0.0219891 -0.4582081 0.8885729
vn -0.0022660 0.0199669 -0.9997981
vn 0.0181761 0.5644641 0.8252574
vn 0.0000216 1.0000000 -0.0000796
vn -0.0219569 0.3897382 0.9206639
vn 0.1795990 0.9794536 -0.0917326
vn -0.0015995 0.0948120 -0.9954939
vn 0.2672472 -0.5218450 0.8100968
vn 0.0000157 1.0000000 -0.0000136
vn 0.0071356 0.9999603 0.0053303
vn -0.0008312 0.9999996 0.0001623
vn 0.0071357 0.9999745 0.0000000
vn 0.5194312 -0.8545052 -0.0034831
vn 0.2863006 -0.0640187 -0.9559987
vn -0.0393574 0.0008725 0.9992248
vn -0.0262347 0.0148510 0.9995455
vn 0.0335221 0.1253691 -0.9915437
vn 0.0449180 0.1081156 -0.9931230
vn -0.0992997 0.9896016 0.1040589
vn -0.0984424 0.9950784 0.0113191
vn -0.0155790 0.9963921 0.0834266
vn -0.0156056 0.9964802 0.0823626
vn 0.0172650 0.9994255 0.0291643
vn -0.3702990 0.3344159 -0.8666283
vn -0.0038379 -0.5385985 0.8425538
vn -0.2422406 0.4544004 0.8572280
vn -0.0093008 0.5722406 0.8200331
vn 0.0037495 -0.0712138 0.9974540
vn -0.0630062 0.9774506 0.2015456
vn 0.0890593 0.9945225 0.0547124
vn -0.0993774 0.9933581 -0.0579986
vn -0.0055546 0.0002377 0.9999845
vn -0.0134888 0.0305924 0.9994409
vn 0.0251795 0.0229558 0.9994193
vn 0.0009151 -0.0316303 0.9994992
vn 0.1019603 -0.1719947 0.9798071
vn 0.1105271 0.1101952 0.9877453
vn 0.0249991 0.2141673 0.9764770
vn -0.1295133 -0.0347101 0.9909700
vn 0.0527434 -0.0348767 0.9979989
vn -0.0889294 0.0881109 0.9921331
vn -0.0253740 0.1661671 0.9857711
vn -0.0011049 0.0628802 0.9980205
vn -0.1882395 -0.4656010 0.8647437
vn 0.0160417 0.5222418 0.8526465
vn 0.0080133 0.5696910 0.8218199
vn 0.9986539 0.0497747 -0.0145917
vn 0.9997028 -0.0018641 0.0243085
vn 0.9998422 0.0110951 0.0138733
vn -0.9997746 0.0170933 -0.0125958
vn -0.9998536 0.0171065 -0.0004627
vn -0.9992072 0.0133346 0.0375115
usemtl plaster_worn
f 1//1 2//1 3//1
usemtl rust
f 4//2 5//2 6//2
usemtl rust
f 7//3 8//3 9//3
usemtl plaster_worn
f 10//4 11//4 12//4
usemtl wood_dark
f 13//5 14//5 15//5
usemtl plaster_worn
f 16//6 17//6 18//6
usemtl plaster_worn
f 19//7 20//7 21//7
usemtl wood_dark
f 22//8 23//8 24//8
usemtl plaster_worn
f 25//9 26//9 27//9
usemtl wood_dark
f 28//10 29//10 30//10
usemtl plaster_worn
f 31//11 32//11 33//11
usemtl wood_dark
f 34//12 35//12 36//12
usemtl wood_dark
f 37//13 38//13 39//13
usemtl wood_dark
f 40//14 41//14 42//14
usemtl rust
f 43//15 44//15 45//15
usemtl rust
f 46//16 47//16 48//16
usemtl wood_dark
f 49//17 50//17 51//17
usemtl wood_dark
f 52//18 53//18 54//18
usemtl rust
f 55//19 56//19 57//19
usemtl rust
f 58//20 59//20 60//20
usemtl wood_dark
f 61//21 62//21 63//21
usemtl wood_dark
f 64//22 65//22 66//22
usemtl wood_dark
f 67//23 68//23 69//23
usemtl plaster_worn
f 70//24 71//24 72//24
usemtl wood_dark
f 73//25 74//25 75//25
usemtl wood_dark
f 76//26 77//26 78//26
usemtl wood_dark
f 79//27 80//27 81//27
usemtl wood_dark
f 82//28 83//28 84//28
usemtl plaster_worn
f 85//29 86//29 87//29
usemtl plaster_worn
f 88//30 89//30 90//30
usemtl wood_dark
f 91//31 92//31 93//31
usemtl wood_dark
f 94//32 95//32 96//32
usemtl rust
f 97//33 98//33 99//33
usemtl rust
f 100//34 101//34 102//34
usemtl wood_dark
f 103//35 104//35 105//35
usemtl rust
f 106//36 107//36 108//36
usemtl wood_dark
f 109//37 110//37 111//37
usemtl wood_dark
f 112//38 113//38 114//38
usemtl wood_dark
f 115//39 116//39 117//39
usemtl rust
f 118//40 119//40 120//40
usemtl rust
f 121//41 122//41 123//41
usemtl rust
f 124//42 125//42 126//42
usemtl rust
f 127//43 128//43 129//43
usemtl wood_dark
f 130//44 131//44 132//44
usemtl wood_dark
f 133//45 134//45 135//45
usemtl wood_dark
f 136//46 137//46 138//46
usemtl plaster_worn
f 139//47 140//47 141//47
usemtl plaster_worn
f 142//48 143//48 144//48
usemtl wood_dark
f 145//49 146//49 147//49
usemtl wood_dark
f 148//50 149//50 150//50
usemtl wood_dark
f 151//51 152//51 153//51
usemtl rust
f 154//52 155//52 156//52
usemtl rust
f 157//53 158//53 159//53
usemtl wood_dark
f 160//54 161//54 162//54
usemtl rust
f 163//55 164//55 165//55
usemtl wood_dark
f 166//56 167//56 168//56
usemtl rust
f 169//57 170//57 171//57
usemtl wood_dark
f 172//58 173//58 174//58
usemtl rust
f 175//59 176//59 177//59
usemtl wood_dark
f 178//60 179//60 180//60
usemtl wood_dark
f 181//61 182//61 183//61
usemtl plaster_worn
f 184//62 185//62 186//62
usemtl plaster_worn
f 187//63 188//63 189//63
usemtl concrete
f 190//64 191//64 192//64
usemtl plaster_worn
f 193//65 194//65 195//65
usemtl plaster_worn
f 196//66 197//66 198//66
usemtl plaster_worn
f 199//67 200//67 201//67
usemtl wood_dark
f 202//68 203//68 204//68
usemtl wood_dark
f 205//69 206//69 207//69
usemtl wood_dark
f 208//70 209//70 210//70
usemtl wood_dark
f 211//71 212//71 213//71
usemtl wood_dark
f 214//72 215//72 216//72
usemtl wood_dark
f 217//73 218//73 219//73
usemtl rust
f 220//74 221//74 222//74
usemtl wood_dark
f 223//75 224//75 225//75
usemtl wood_dark
f 226//76 227//76 228//76
usemtl wood_dark
f 229//77 230//77 231//77
usemtl rust
f 232//78 233//78 234//78
usemtl wood_dark
f 235//79 236//79 237//79
usemtl plaster_worn
f 238//80 239//80 240//80
usemtl plaster_worn
f 241//81 242//81 243//81
usemtl wood_dark
f 244//82 245//82 246//82
usemtl wood_dark
f 247//83 248//83 249//83
usemtl wood_dark
f 250//84 251//84 252//84
usemtl wood_dark
f 253//85 254//85 255//85
usemtl wood_dark
f 256//86 257//86 258//86
usemtl wood_dark
f 259//87 260//87 261//87
usemtl wood_dark
f 262//88 263//88 264//88
usemtl plaster_worn
f 265//89 266//89 267//89
usemtl concrete
f 268//90 269//90 270//90
usemtl plaster_worn
f 271//91 272//91 273//91
usemtl plaster_worn
f 274//92 275//92 276//92
usemtl plaster_worn
f 277//93 278//93 279//93
usemtl plaster_worn
f 280//94 281//94 282//94
usemtl plaster_worn
f 283//95 284//95 285//95
usemtl plaster_worn
f 286//96 287//96 288//96
usemtl plaster_worn
f 289//97 290//97 291//97
usemtl plaster_worn
f 292//98 293//98 294//98
usemtl plaster_worn
f 295//99 296//99 297//99
usemtl plaster_worn
f 298//100 299//100 300//100
usemtl plaster_worn
f 301//101 302//101 303//101
usemtl wood_dark
f 304//102 305//102 306//102
usemtl wood_dark
f 307//103 308//103 309//103
usemtl plaster_worn
f 310//104 311//104 312//104
usemtl plaster_worn
f 313//105 314//105 315//105
usemtl wood_dark
f 316//106 317//106 318//106
usemtl wood_dark
f 319//107 320//107 321//107
usemtl wood_dark
f 322//108 323//108 324//108
usemtl wood_dark
f 325//109 326//109 327//109
usemtl plaster_worn
f 328//110 329//110 330//110
usemtl plaster_worn
f 331//111 332//111 333//111
usemtl concrete
f 334//112 335//112 336//112
usemtl plaster_worn
f 337//113 338//113 339//113
usemtl wood_dark
f 340//114 341//114 342//114
usemtl wood_dark
f 343//115 344//115 345//115
usemtl wood_dark
f 346//116 347//116 348//116
usemtl plaster_worn
f 349//117 350//117 351//117
usemtl wood_dark
f 352//118 353//118 354//118
usemtl wood_dark
f 355//119 356//119 357//119
usemtl wood_dark
f 358//120 359//120 360//120
usemtl wood_dark
f 361//121 362//121 363//121
usemtl rust
f 364//122 365//122 366//122
usemtl rust
f 367//123 368//123 369//123
usemtl plaster_worn
f 370//124 371//124 372//124
usemtl wood_dark
f 373//125 374//125 375//125
usemtl wood_dark
f 376//126 377//126 378//126
usemtl wood_dark
f 379//127 380//127 381//127
usemtl wood_dark
f 382//128 383//128 384//128
usemtl wood_dark
f 385//129 386//129 387//129
usemtl wood_dark
f 388//130 389//130 390//130
usemtl wood_dark
f 391//131 392//131 393//131
usemtl wood_dark
f 394//132 395//132 396//132
usemtl wood_dark
f 397//133 398//133 399//133
usemtl wood_dark
f 400//134 401//134 402//134
usemtl wood_dark
f 403//135 404//135 405//135
usemtl wood_dark
f 406//136 407//136 408//136
usemtl wood_dark
f 409//137 410//137 411//137
usemtl wood_dark
f 412//138 413//138 414//138
usemtl wood_dark
f 415//139 416//139 417//139
usemtl rust
f 418//140 419//140 420//140
usemtl rust
f 421//141 422//141 423//141
usemtl wood_dark
f 424//142 425//142 426//142
usemtl rust
f 427//143 428//143 429//143
usemtl plaster_worn
f 430//144 431//144 432//144
usemtl wood_dark
f 433//145 434//145 435//145
usemtl wood_dark
f 436//146 437//146 438//146
usemtl concrete
f 439//147 440//147 441//147
usemtl wood_dark
f 442//148 443//148 444//148
usemtl wood_dark
f 445//149 446//149 447//149
usemtl plaster_worn
f 448//150 449//150 450//150
usemtl plaster_worn
f 451//151 452//151 453//151
usemtl wood_dark
f 454//152 455//152 456//152
usemtl wood_dark
f 457//153 458//153 459//153
usemtl wood_dark
f 460//154 461//154 462//154
usemtl wood_dark
f 463//155 464//155 465//155
usemtl wood_dark
f 466//156 467//156 468//156
usemtl wood_dark
f 469//157 470//157 471//157
usemtl wood_dark
f 472//158 473//158 474//158
usemtl wood_dark
f 475//159 476//159 477//159
usemtl wood_dark
f 478//160 479//160 480//160
usemtl plaster_worn
f 481//161 482//161 483//161
usemtl rust
f 484//162 485//162 486//162
usemtl plaster_worn
f 487//163 488//163 489//163
usemtl wood_dark
f 490//164 491//164 492//164
usemtl wood_dark
f 493//165 494//165 495//165
usemtl plaster_worn
f 496//166 497//166 498//166
usemtl wood_dark
f 499//167 500//167 501//167
usemtl plaster_worn
f 502//168 503//168 504//168
usemtl plaster_worn
f 505//169 506//169 507//169
usemtl plaster_worn
f 508//170 509//170 510//170
usemtl plaster_worn
f 511//171 512//171 513//171
usemtl wood_dark
f 514//172 515//172 516//172
usemtl wood_dark
f 517//173 518//173 519//173
usemtl plaster_worn
f 520//174 521//174 522//174
usemtl plaster_worn
f 523//175 524//175 525//175
usemtl rust
f 526//176 527//176 528//176
usemtl plaster_worn
f 529//177 530//177 531//177
usemtl rust
f 532//178 533//178 534//178
usemtl rust
f 535//179 536//179 537//179
usemtl wood_dark
f 538//180 539//180 540//180
usemtl rust
f 541//181 542//181 543//181
usemtl wood_dark
f 544//182 545//182 546//182
usemtl plaster_worn
f 547//183 548//183 549//183
usemtl rust
f 550//184 551//184 552//184
usemtl rust
f 553//185 554//185 555//185
usemtl wood_dark
f 556//186 557//186 558//186
usemtl wood_dark
f 559//187 560//187 561//187
usemtl plaster_worn
f 562//188 563//188 564//188
usemtl plaster_worn
f 565//189 566//189 567//189
usemtl plaster_worn
f 568//190 569//190 570//190
usemtl plaster_worn
f 571//191 572//191 573//191
usemtl concrete
f 574//192 575//192 576//192
usemtl wood_dark
f 577//193 578//193 579//193
usemtl wood_dark
f 580//194 581//194 582//194
usemtl wood_dark
f 583//195 584//195 585//195
usemtl wood_dark
f 586//196 587//196 588//196
usemtl wood_dark
f 589//197 590//197 591//197
usemtl plaster_worn
f 592//198 593//198 594//198
usemtl wood_dark
f 595//199 596//199 597//199
usemtl wood_dark
f 598//200 599//200 600//200
usemtl plaster_worn
f 601//201 602//201 603//201
usemtl plaster_worn
f 604//202 605//202 606//202
usemtl plaster_worn
f 607//203 608//203 609//203
usemtl plaster_worn
f 610//204 611//204 612//204
usemtl wood_dark
f 613//205 614//205 615//205
usemtl wood_dark
f 616//206 617//206 618//206
usemtl wood_dark
f 619//207 620//207 621//207
usemtl wood_dark
f 622//208 623//208 624//208
usemtl plaster_worn
f 625//209 626//209 627//209
usemtl plaster_worn
f 628//210 629//210 630//210
usemtl plaster_worn
f 631//211 632//211 633//211
usemtl plaster_worn
f 634//212 635//212 636//212
usemtl rust
f 637//213 638//213 639//213
usemtl rust
f 640//214 641//214 642//214
usemtl rust
f 643//215 644//215 645//215
usemtl rust
f 646//216 647//216 648//216
usemtl rust
f 649//217 650//217 651//217
usemtl rust
f 652//218 653//218 654//218
usemtl rust
f 655//219 656//219 657//219
usemtl plaster_worn
f 658//220 659//220 660//220
usemtl rust
f 661//221 662//221 663//221
usemtl rust
f 664//222 665//222 666//222
usemtl rust
f 667//223 668//223 669//223
usemtl rust
f 670//224 671//224 672//224
usemtl wood_dark
f 673//225 674//225 675//225
usemtl wood_dark
f 676//226 677//226 678//226
usemtl plaster_worn
f 679//227 680//227 681//227
usemtl plaster_worn
f 682//228 683//228 684//228
usemtl plaster_worn
f 685//229 686//229 687//229
usemtl plaster_worn
f 688//230 689//230 690//230
usemtl plaster_worn
f 691//231 692//231 693//231
usemtl wood_dark
f 694//232 695//232 696//232
usemtl wood_dark
f 697//233 698//233 699//233
usemtl wood_dark
f 700//234 701//234 702//234
usemtl plaster_worn
f 703//235 704//235 705//235
usemtl wood_dark
f 706//236 707//236 708//236
usemtl wood_dark
f 709//237 710//237 711//237
usemtl plaster_worn
f 712//238 713//238 714//238
usemtl wood_dark
f 715//239 716//239 717//239
usemtl rust
f 718//240 719//240 720//240
usemtl rust
f 721//241 722//241 723//241
usemtl wood_dark
f 724//242 725//242 726//242
usemtl wood_dark
f 727//243 728//243 729//243
usemtl wood_dark
f 730//244 731//244 732//244
usemtl wood_dark
f 733//245 734//245 735//245
usemtl roof
f 736//246 737//246 738//246
usemtl wood_dark
f 739//247 740//247 741//247
usemtl wood_dark
f 742//248 743//248 744//248
usemtl wood_dark
f 745//249 746//249 747//249
usemtl wood_dark
f 748//250 749//250 750//250
usemtl rust
f 751//251 752//251 753//251
usemtl wood_dark
f 754//252 755//252 756//252
usemtl plaster_worn
f 757//253 758//253 759//253
usemtl wood_dark
f 760//254 761//254 762//254
usemtl wood_dark
f 763//255 764//255 765//255
usemtl plaster_worn
f 766//256 767//256 768//256
usemtl wood_dark
f 769//257 770//257 771//257
usemtl wood_dark
f 772//258 773//258 774//258
usemtl wood_dark
f 775//259 776//259 777//259
usemtl wood_dark
f 778//260 779//260 780//260
usemtl wood_dark
f 781//261 782//261 783//261
usemtl wood_dark
f 784//262 785//262 786//262
usemtl rust
f 787//263 788//263 789//263
usemtl rust
f 790//264 791//264 792//264
usemtl wood_dark
f 793//265 794//265 795//265
usemtl rust
f 796//266 797//266 798//266
usemtl wood_dark
f 799//267 800//267 801//267
usemtl concrete
f 802//268 803//268 804//268
usemtl concrete
f 805//269 806//269 807//269
usemtl rust
f 808//270 809//270 810//270
usemtl wood_dark
f 811//271 812//271 813//271
usemtl wood_dark
f 814//272 815//272 816//272
usemtl wood_dark
f 817//273 818//273 819//273
usemtl wood_dark
f 820//274 821//274 822//274
usemtl wood_dark
f 823//275 824//275 825//275
usemtl wood_dark
f 826//276 827//276 828//276
usemtl plaster_worn
f 829//277 830//277 831//277
usemtl wood_dark
f 832//278 833//278 834//278
usemtl wood_dark
f 835//279 836//279 837//279
usemtl wood_dark
f 838//280 839//280 840//280
usemtl wood_dark
f 841//281 842//281 843//281
usemtl rust
f 844//282 845//282 846//282
usemtl wood_dark
f 847//283 848//283 849//283
usemtl wood_dark
f 850//284 851//284 852//284
usemtl rust
f 853//285 854//285 855//285
usemtl rust
f 856//286 857//286 858//286
usemtl wood_dark
f 859//287 860//287 861//287
usemtl wood_dark
f 862//288 863//288 864//288
usemtl rust
f 865//289 866//289 867//289
usemtl rust
f 868//290 869//290 870//290
usemtl wood_dark
f 871//291 872//291 873//291
usemtl wood_dark
f 874//292 875//292 876//292
usemtl wood_dark
f 877//293 878//293 879//293
usemtl wood_dark
f 880//294 881//294 882//294
usemtl wood_dark
f 883//295 884//295 885//295
usemtl rust
f 886//296 887//296 888//296
usemtl rust
f 889//297 890//297 891//297
usemtl wood_dark
f 892//298 893//298 894//298
usemtl wood_dark
f 895//299 896//299 897//299
usemtl rust
f 898//300 899//300 900//300
