# Derivative; see ATTRIBUTION.md. Metres, Y up.
v 4.325208 2.162604 2.162604 0.82273 0.82503 0.80433
vt 0.271670 0.819058
vn 0.000000 -1.000000 0.000000
v 6.487812 2.162604 4.325208 0.82273 0.82503 0.80433
vt 0.261320 0.818883
vn 0.000000 -1.000000 0.000000
v 4.325208 2.162604 4.325208 0.82273 0.82503 0.80433
vt 0.262148 0.817742
vn 0.000000 -1.000000 0.000000
f 1/1/1 2/2/2 3/3/3
v 4.325208 0.000000 4.325208 0.82273 0.82503 0.80433
vt 0.265707 0.800792
vn -1.000000 0.000000 0.000000
v 4.325208 2.162604 2.162604 0.82273 0.82503 0.80433
vt 0.275265 0.803642
vn -1.000000 0.000000 0.000000
v 4.325208 0.000000 2.162604 0.82273 0.82503 0.80433
vt 0.275227 0.805573
vn -1.000000 0.000000 0.000000
f 4/4/4 5/5/5 6/6/6
v 4.325208 2.162604 2.162604 0.82273 0.82503 0.80433
vt 0.272303 0.818120
vn 1.000000 0.000000 -0.000000
v 4.325208 2.162604 4.325208 0.82273 0.82503 0.80433
vt 0.262148 0.817742
vn 1.000000 0.000000 -0.000000
v 4.325208 0.000000 4.325208 0.82273 0.82503 0.80433
vt 0.263080 0.815577
vn 1.000000 0.000000 -0.000000
f 7/7/7 8/8/8 9/9/9
v 4.325208 2.162604 2.162604 0.82273 0.82503 0.80433
vt 0.275048 0.802558
vn -1.000000 0.000000 0.000000
v 4.325208 0.000000 4.325208 0.82273 0.82503 0.80433
vt 0.265707 0.800792
vn -1.000000 0.000000 0.000000
v 4.325208 2.162604 4.325208 0.82273 0.82503 0.80433
vt 0.265381 0.799556
vn -1.000000 0.000000 0.000000
f 10/10/10 11/11/11 12/12/12
v 4.325208 0.000000 4.325208 0.82273 0.82503 0.80433
vt 0.264003 0.812656
vn 1.000000 0.000000 0.000000
v 4.325208 0.000000 2.162604 0.82273 0.82503 0.80433
vt 0.273772 0.813823
vn 1.000000 0.000000 0.000000
v 4.325208 2.162604 2.162604 0.82273 0.82503 0.80433
vt 0.273033 0.816301
vn 1.000000 0.000000 0.000000
f 13/13/13 14/14/14 15/15/15
v 4.325208 2.162604 2.162604 0.82273 0.82503 0.80433
vt 0.271212 0.818995
vn 0.000000 1.000000 0.000000
v 4.325208 2.162604 4.325208 0.82273 0.82503 0.80433
vt 0.260696 0.818854
vn 0.000000 1.000000 0.000000
v 6.487812 2.162604 4.325208 0.82273 0.82503 0.80433
vt 0.261320 0.818883
vn 0.000000 1.000000 0.000000
f 16/16/16 17/17/17 18/18/18
v -4.325208 2.162604 6.487812 0.26108 0.52005 0.63221
vt 0.250950 0.213487
vn 1.000000 0.000000 0.000000
v -4.325208 0.000000 6.487812 0.26108 0.52005 0.63221
vt 0.251265 0.212949
vn 1.000000 0.000000 0.000000
v -4.325208 0.000000 4.325208 0.26108 0.52005 0.63221
vt 0.257424 0.214022
vn 1.000000 0.000000 0.000000
f 19/19/19 20/20/20 21/21/21
v -4.325208 0.000000 4.325208 0.26108 0.52005 0.63221
vt 0.257817 0.208205
vn -0.577350 -0.577350 0.577350
v -4.325208 2.162604 6.487812 0.26108 0.52005 0.63221
vt 0.251386 0.207031
vn -0.577350 -0.577350 0.577350
v -6.487812 2.162604 4.325208 0.26108 0.52005 0.63221
vt 0.257579 0.206830
vn -0.577350 -0.577350 0.577350
f 22/22/22 23/23/23 24/24/24
v -4.325208 0.000000 4.325208 0.26108 0.52005 0.63221
vt 0.257048 0.214677
vn 1.000000 0.000000 0.000000
v -4.325208 2.162604 4.325208 0.26108 0.52005 0.63221
vt 0.256633 0.214779
vn 1.000000 0.000000 0.000000
v -4.325208 2.162604 6.487812 0.26108 0.52005 0.63221
vt 0.250601 0.213570
vn 1.000000 0.000000 0.000000
f 25/25/25 26/26/26 27/27/27
v -4.325208 0.000000 6.487812 0.26108 0.52005 0.63221
vt 0.251682 0.209476
vn -1.000000 0.000000 0.000000
v -4.325208 2.162604 6.487812 0.26108 0.52005 0.63221
vt 0.251589 0.208162
vn -1.000000 0.000000 0.000000
v -4.325208 0.000000 4.325208 0.26108 0.52005 0.63221
vt 0.257817 0.208205
vn -1.000000 0.000000 0.000000
f 28/28/28 29/29/29 30/30/30
v -6.487812 2.162604 4.325208 0.26108 0.52005 0.63221
vt 0.256834 0.205364
vn 0.000000 1.000000 0.000000
v -4.325208 2.162604 6.487812 0.26108 0.52005 0.63221
vt 0.250409 0.205898
vn 0.000000 1.000000 0.000000
v -4.325208 2.162604 4.325208 0.26108 0.52005 0.63221
vt 0.256418 0.205452
vn 0.000000 1.000000 0.000000
f 31/31/31 32/32/32 33/33/33
v -4.325208 0.000000 4.325208 0.26108 0.52005 0.63221
vt 0.257157 0.212559
vn -1.000000 0.000000 0.000000
v -4.325208 2.162604 6.487812 0.26108 0.52005 0.63221
vt 0.251747 0.212649
vn -1.000000 0.000000 0.000000
v -4.325208 2.162604 4.325208 0.26108 0.52005 0.63221
vt 0.256920 0.212970
vn -1.000000 0.000000 0.000000
f 34/34/34 35/35/35 36/36/36
v -4.325208 2.162604 6.487812 0.26108 0.52005 0.63221
vt 0.251747 0.212649
vn -1.000000 -0.000000 0.000000
v -4.325208 0.000000 4.325208 0.26108 0.52005 0.63221
vt 0.257157 0.212559
vn -1.000000 -0.000000 0.000000
v -4.325208 0.000000 6.487812 0.26108 0.52005 0.63221
vt 0.251987 0.212238
vn -1.000000 -0.000000 0.000000
f 37/37/37 38/38/38 39/39/39
v -4.325208 2.162604 4.325208 0.26108 0.52005 0.63221
vt 0.257405 0.208897
vn 1.000000 0.000000 0.000000
v -4.325208 0.000000 6.487812 0.26108 0.52005 0.63221
vt 0.252306 0.209582
vn 1.000000 0.000000 0.000000
v -4.325208 0.000000 4.325208 0.26108 0.52005 0.63221
vt 0.257473 0.209902
vn 1.000000 0.000000 0.000000
f 40/40/40 41/41/41 42/42/42
v -4.325208 0.000000 6.487812 0.26108 0.52005 0.63221
vt 0.252306 0.209582
vn 1.000000 -0.000000 0.000000
v -4.325208 2.162604 4.325208 0.26108 0.52005 0.63221
vt 0.257405 0.208897
vn 1.000000 -0.000000 0.000000
v -4.325208 2.162604 6.487812 0.26108 0.52005 0.63221
vt 0.252235 0.208577
vn 1.000000 -0.000000 0.000000
f 43/43/43 44/44/44 45/45/45
v -4.325208 0.000000 4.325208 0.26108 0.52005 0.63221
vt 0.262437 0.208494
vn 0.000000 0.000000 -1.000000
v -6.487812 2.162604 4.325208 0.26108 0.52005 0.63221
vt 0.257579 0.206830
vn 0.000000 0.000000 -1.000000
v -4.325208 2.162604 4.325208 0.26108 0.52005 0.63221
vt 0.262230 0.207205
vn 0.000000 0.000000 -1.000000
f 46/46/46 47/47/47 48/48/48
v -4.325208 0.000000 2.162604 0.26108 0.52005 0.63221
vt 0.265779 0.213094
vn -1.000000 0.000000 0.000000
v -4.325208 2.162604 4.325208 0.26108 0.52005 0.63221
vt 0.261646 0.213263
vn -1.000000 0.000000 0.000000
v -4.325208 2.162604 2.162604 0.26108 0.52005 0.63221
vt 0.265549 0.213505
vn -1.000000 0.000000 0.000000
f 49/49/49 50/50/50 51/51/51
v -4.325208 2.162604 4.325208 0.26108 0.52005 0.63221
vt 0.261646 0.213263
vn -1.000000 -0.000000 0.000000
v -4.325208 0.000000 2.162604 0.26108 0.52005 0.63221
vt 0.265779 0.213094
vn -1.000000 -0.000000 0.000000
v -4.325208 0.000000 4.325208 0.26108 0.52005 0.63221
vt 0.261879 0.212852
vn -1.000000 -0.000000 0.000000
f 52/52/52 53/53/53 54/54/54
v -4.325208 2.162604 2.162604 0.26108 0.52005 0.63221
vt 0.266026 0.209431
vn 1.000000 0.000000 0.000000
v -4.325208 0.000000 4.325208 0.26108 0.52005 0.63221
vt 0.262193 0.210195
vn 1.000000 0.000000 0.000000
v -4.325208 0.000000 2.162604 0.26108 0.52005 0.63221
vt 0.266090 0.210436
vn 1.000000 0.000000 0.000000
f 55/55/55 56/56/56 57/57/57
v -4.325208 0.000000 4.325208 0.26108 0.52005 0.63221
vt 0.262193 0.210195
vn 1.000000 -0.000000 0.000000
v -4.325208 2.162604 2.162604 0.26108 0.52005 0.63221
vt 0.266026 0.209431
vn 1.000000 -0.000000 0.000000
v -4.325208 2.162604 4.325208 0.26108 0.52005 0.63221
vt 0.262127 0.209190
vn 1.000000 -0.000000 0.000000
f 58/58/58 59/59/59 60/60/60
v -6.487812 2.162604 4.325208 0.82273 0.82503 0.80433
vt 0.283006 0.696948
vn 0.000000 -1.000000 0.000000
v -4.325208 2.162604 2.162604 0.82273 0.82503 0.80433
vt 0.293106 0.700188
vn 0.000000 -1.000000 0.000000
v -4.325208 2.162604 4.325208 0.82273 0.82503 0.80433
vt 0.283553 0.697332
vn 0.000000 -1.000000 0.000000
f 61/61/61 62/62/62 63/63/63
v -4.325208 0.000000 2.162604 0.82273 0.82503 0.80433
vt 0.291811 0.711508
vn 1.000000 0.000000 0.000000
v -4.325208 2.162604 2.162604 0.82273 0.82503 0.80433
vt 0.291115 0.713765
vn 1.000000 0.000000 0.000000
v -4.325208 0.000000 4.325208 0.82273 0.82503 0.80433
vt 0.281275 0.713182
vn 1.000000 0.000000 0.000000
f 64/64/64 65/65/65 66/66/66
v -4.325208 2.162604 4.325208 0.82273 0.82503 0.80433
vt 0.283553 0.697332
vn -1.000000 -0.000000 -0.000000
v -4.325208 2.162604 2.162604 0.82273 0.82503 0.80433
vt 0.293287 0.701449
vn -1.000000 -0.000000 -0.000000
v -4.325208 0.000000 4.325208 0.82273 0.82503 0.80433
vt 0.283831 0.698798
vn -1.000000 -0.000000 -0.000000
f 67/67/67 68/68/68 69/69/69
v -4.325208 2.162604 4.325208 0.82273 0.82503 0.80433
vt 0.280408 0.715024
vn 1.000000 0.000000 0.000000
v -4.325208 0.000000 4.325208 0.82273 0.82503 0.80433
vt 0.281275 0.713182
vn 1.000000 0.000000 0.000000
v -4.325208 2.162604 2.162604 0.82273 0.82503 0.80433
vt 0.291115 0.713765
vn 1.000000 0.000000 0.000000
f 70/70/70 71/71/71 72/72/72
v -4.325208 2.162604 2.162604 0.82273 0.82503 0.80433
vt 0.293287 0.701449
vn -1.000000 0.000000 0.000000
v -4.325208 0.000000 2.162604 0.82273 0.82503 0.80433
vt 0.293226 0.703482
vn -1.000000 0.000000 0.000000
v -4.325208 0.000000 4.325208 0.82273 0.82503 0.80433
vt 0.283808 0.701165
vn -1.000000 0.000000 0.000000
f 73/73/73 74/74/74 75/75/75
v -4.325208 2.162604 4.325208 0.82273 0.82503 0.80433
vt 0.282253 0.697700
vn 0.000000 1.000000 0.000000
v -4.325208 2.162604 2.162604 0.82273 0.82503 0.80433
vt 0.292706 0.699853
vn 0.000000 1.000000 0.000000
v -6.487812 2.162604 4.325208 0.82273 0.82503 0.80433
vt 0.283006 0.696948
vn 0.000000 1.000000 0.000000
f 76/76/76 77/77/77 78/78/78
v 2.162604 2.162604 2.162604 0.26108 0.52005 0.63221
vt 0.259552 0.239234
vn 0.000000 -1.000000 0.000000
v 2.162604 2.162604 4.325208 0.26108 0.52005 0.63221
vt 0.251927 0.237191
vn 0.000000 -1.000000 0.000000
v 0.000000 2.162604 6.487812 0.26108 0.52005 0.63221
vt 0.246959 0.231562
vn 0.000000 -1.000000 0.000000
f 79/79/79 80/80/80 81/81/81
v 0.000000 2.162604 6.487812 0.26108 0.52005 0.63221
vt 0.246959 0.231562
vn 0.000000 -1.000000 0.000000
v 0.000000 2.162604 4.325208 0.26108 0.52005 0.63221
vt 0.257648 0.232226
vn 0.000000 -1.000000 0.000000
v 2.162604 2.162604 2.162604 0.26108 0.52005 0.63221
vt 0.259552 0.239234
vn 0.000000 -1.000000 0.000000
f 82/82/82 83/83/83 84/84/84
v 2.162604 2.162604 2.162604 0.26108 0.52005 0.63221
vt 0.258491 0.237269
vn 0.000000 1.000000 -0.000000
v 0.000000 2.162604 6.487812 0.26108 0.52005 0.63221
vt 0.245917 0.229696
vn 0.000000 1.000000 -0.000000
v 2.162604 2.162604 4.325208 0.26108 0.52005 0.63221
vt 0.250832 0.235217
vn 0.000000 1.000000 -0.000000
f 85/85/85 86/86/86 87/87/87
v 0.000000 2.162604 6.487812 0.26108 0.52005 0.63221
vt 0.245917 0.229696
vn 0.000000 1.000000 0.000000
v 2.162604 2.162604 2.162604 0.26108 0.52005 0.63221
vt 0.258491 0.237269
vn 0.000000 1.000000 0.000000
v 0.000000 2.162604 4.325208 0.26108 0.52005 0.63221
vt 0.256580 0.230233
vn 0.000000 1.000000 0.000000
f 88/88/88 89/89/89 90/90/90
v 4.325208 2.162604 2.162604 0.26108 0.52005 0.63221
vt 0.264047 0.249976
vn 0.000000 -1.000000 0.000000
v 4.325208 2.162604 4.325208 0.26108 0.52005 0.63221
vt 0.256818 0.247142
vn 0.000000 -1.000000 0.000000
v 2.162604 2.162604 4.325208 0.26108 0.52005 0.63221
vt 0.254258 0.240586
vn 0.000000 -1.000000 0.000000
f 91/91/91 92/92/92 93/93/93
v 2.162604 2.162604 4.325208 0.26108 0.52005 0.63221
vt 0.254258 0.240586
vn 0.000000 -1.000000 0.000000
v 2.162604 2.162604 2.162604 0.26108 0.52005 0.63221
vt 0.262126 0.241027
vn 0.000000 -1.000000 0.000000
v 4.325208 2.162604 2.162604 0.26108 0.52005 0.63221
vt 0.264047 0.249976
vn 0.000000 -1.000000 0.000000
f 94/94/94 95/95/95 96/96/96
v 4.325208 2.162604 2.162604 0.26108 0.52005 0.63221
vt 0.263329 0.248654
vn 0.000000 1.000000 -0.000000
v 2.162604 2.162604 4.325208 0.26108 0.52005 0.63221
vt 0.253173 0.238626
vn 0.000000 1.000000 -0.000000
v 4.325208 2.162604 4.325208 0.26108 0.52005 0.63221
vt 0.256374 0.246345
vn 0.000000 1.000000 -0.000000
f 97/97/97 98/98/98 99/99/99
v 2.162604 2.162604 4.325208 0.26108 0.52005 0.63221
vt 0.253173 0.238626
vn 0.000000 1.000000 0.000000
v 4.325208 2.162604 2.162604 0.26108 0.52005 0.63221
vt 0.263329 0.248654
vn 0.000000 1.000000 0.000000
v 2.162604 2.162604 2.162604 0.26108 0.52005 0.63221
vt 0.261075 0.239069
vn 0.000000 1.000000 0.000000
f 100/100/100 101/101/101 102/102/102
v 6.487812 2.162604 0.000000 0.26108 0.52005 0.63221
vt 0.267299 0.262438
vn 0.000000 1.000000 -0.000000
v 4.325208 2.162604 2.162604 0.26108 0.52005 0.63221
vt 0.260128 0.255532
vn 0.000000 1.000000 -0.000000
v 6.487812 2.162604 2.162604 0.26108 0.52005 0.63221
vt 0.263936 0.264863
vn 0.000000 1.000000 -0.000000
f 103/103/103 104/104/104 105/105/105
v 6.487812 2.162604 0.000000 0.26108 0.52005 0.63221
vt 0.267865 0.263465
vn 0.000000 -1.000000 0.000000
v 6.487812 2.162604 2.162604 0.26108 0.52005 0.63221
vt 0.264249 0.265418
vn 0.000000 -1.000000 0.000000
v 4.325208 2.162604 2.162604 0.26108 0.52005 0.63221
vt 0.260483 0.256167
vn 0.000000 -1.000000 0.000000
f 106/106/106 107/107/107 108/108/108
v 0.000000 2.162604 4.325208 0.26108 0.52005 0.63221
vt 0.257648 0.232226
vn 0.000000 -1.000000 0.000000
v 0.000000 2.162604 2.162604 0.26108 0.52005 0.63221
vt 0.268341 0.232892
vn 0.000000 -1.000000 0.000000
v 2.162604 2.162604 2.162604 0.26108 0.52005 0.63221
vt 0.268841 0.239773
vn 0.000000 -1.000000 0.000000
f 109/109/109 110/110/110 111/111/111
v 0.000000 2.162604 4.325208 0.26108 0.52005 0.63221
vt 0.256580 0.230233
vn 0.000000 1.000000 0.000000
v 2.162604 2.162604 2.162604 0.26108 0.52005 0.63221
vt 0.267821 0.237810
vn 0.000000 1.000000 0.000000
v 0.000000 2.162604 2.162604 0.26108 0.52005 0.63221
vt 0.267320 0.230902
vn 0.000000 1.000000 0.000000
f 112/112/112 113/113/113 114/114/114
v 4.325208 2.162604 0.000000 0.26108 0.52005 0.63221
vt 0.270273 0.252891
vn 0.000000 -1.000000 0.000000
v 4.325208 2.162604 2.162604 0.26108 0.52005 0.63221
vt 0.264047 0.249976
vn 0.000000 -1.000000 0.000000
v 2.162604 2.162604 2.162604 0.26108 0.52005 0.63221
vt 0.262126 0.241027
vn 0.000000 -1.000000 0.000000
f 115/115/115 116/116/116 117/117/117
v 4.325208 2.162604 0.000000 0.26108 0.52005 0.63221
vt 0.269635 0.251692
vn 0.000000 1.000000 -0.000000
v 2.162604 2.162604 2.162604 0.26108 0.52005 0.63221
vt 0.261075 0.239069
vn 0.000000 1.000000 -0.000000
v 4.325208 2.162604 2.162604 0.26108 0.52005 0.63221
vt 0.263329 0.248654
vn 0.000000 1.000000 -0.000000
f 118/118/118 119/119/119 120/120/120
v 0.000000 2.162604 6.487812 0.26108 0.52005 0.63221
vt 0.246959 0.231562
vn 0.000000 -1.000000 0.000000
v -2.162604 2.162604 4.325208 0.26108 0.52005 0.63221
vt 0.253233 0.226238
vn 0.000000 -1.000000 0.000000
v -2.162604 2.162604 2.162604 0.26108 0.52005 0.63221
vt 0.261208 0.225174
vn 0.000000 -1.000000 0.000000
f 121/121/121 122/122/122 123/123/123
v -2.162604 2.162604 2.162604 0.26108 0.52005 0.63221
vt 0.261208 0.225174
vn 0.000000 -1.000000 0.000000
v 0.000000 2.162604 4.325208 0.26108 0.52005 0.63221
vt 0.257648 0.232226
vn 0.000000 -1.000000 0.000000
v 0.000000 2.162604 6.487812 0.26108 0.52005 0.63221
vt 0.246959 0.231562
vn 0.000000 -1.000000 0.000000
f 124/124/124 125/125/125 126/126/126
v -2.162604 2.162604 2.162604 0.26108 0.52005 0.63221
vt 0.260157 0.223152
vn 0.000000 1.000000 0.000000
v 0.000000 2.162604 6.487812 0.26108 0.52005 0.63221
vt 0.245917 0.229696
vn 0.000000 1.000000 0.000000
v 0.000000 2.162604 4.325208 0.26108 0.52005 0.63221
vt 0.256580 0.230233
vn 0.000000 1.000000 0.000000
f 127/127/127 128/128/128 129/129/129
v 0.000000 2.162604 6.487812 0.26108 0.52005 0.63221
vt 0.245917 0.229696
vn 0.000000 1.000000 0.000000
v -2.162604 2.162604 2.162604 0.26108 0.52005 0.63221
vt 0.260157 0.223152
vn 0.000000 1.000000 0.000000
v -2.162604 2.162604 4.325208 0.26108 0.52005 0.63221
vt 0.252147 0.224221
vn 0.000000 1.000000 0.000000
f 130/130/130 131/131/131 132/132/132
v -2.162604 2.162604 4.325208 0.26108 0.52005 0.63221
vt 0.256335 0.223099
vn -0.000000 -1.000000 0.000000
v -4.325208 2.162604 4.325208 0.26108 0.52005 0.63221
vt 0.260611 0.215031
vn -0.000000 -1.000000 0.000000
v -4.325208 2.162604 2.162604 0.26108 0.52005 0.63221
vt 0.268297 0.213545
vn -0.000000 -1.000000 0.000000
f 133/133/133 134/134/134 135/135/135
v -4.325208 2.162604 2.162604 0.26108 0.52005 0.63221
vt 0.268297 0.213545
vn 0.000000 -1.000000 0.000000
v -2.162604 2.162604 2.162604 0.26108 0.52005 0.63221
vt 0.264165 0.223634
vn 0.000000 -1.000000 0.000000
v -2.162604 2.162604 4.325208 0.26108 0.52005 0.63221
vt 0.256335 0.223099
vn 0.000000 -1.000000 0.000000
f 136/136/136 137/137/137 138/138/138
v -4.325208 2.162604 2.162604 0.26108 0.52005 0.63221
vt 0.267597 0.212122
vn 0.000000 1.000000 0.000000
v -2.162604 2.162604 4.325208 0.26108 0.52005 0.63221
vt 0.255263 0.221068
vn 0.000000 1.000000 0.000000
v -2.162604 2.162604 2.162604 0.26108 0.52005 0.63221
vt 0.263127 0.221606
vn 0.000000 1.000000 0.000000
f 139/139/139 140/140/140 141/141/141
v -2.162604 2.162604 4.325208 0.26108 0.52005 0.63221
vt 0.255263 0.221068
vn 0.000000 1.000000 0.000000
v -4.325208 2.162604 2.162604 0.26108 0.52005 0.63221
vt 0.267597 0.212122
vn 0.000000 1.000000 0.000000
v -4.325208 2.162604 4.325208 0.26108 0.52005 0.63221
vt 0.260177 0.214181
vn 0.000000 1.000000 0.000000
f 142/142/142 143/143/143 144/144/144
v -4.325208 2.162604 2.162604 0.26108 0.52005 0.63221
vt 0.266026 0.205244
vn 0.000000 1.000000 0.000000
v -6.487812 2.162604 0.000000 0.26108 0.52005 0.63221
vt 0.274686 0.198609
vn 0.000000 1.000000 0.000000
v -6.487812 2.162604 2.162604 0.26108 0.52005 0.63221
vt 0.271926 0.196183
vn 0.000000 1.000000 0.000000
f 145/145/145 146/146/146 147/147/147
v -4.325208 2.162604 2.162604 0.26108 0.52005 0.63221
vt 0.266369 0.205946
vn -0.000000 -1.000000 0.000000
v -6.487812 2.162604 2.162604 0.26108 0.52005 0.63221
vt 0.272224 0.196821
vn -0.000000 -1.000000 0.000000
v -6.487812 2.162604 0.000000 0.26108 0.52005 0.63221
vt 0.275228 0.199777
vn -0.000000 -1.000000 0.000000
f 148/148/148 149/149/149 150/150/150
v -2.162604 2.162604 2.162604 0.26108 0.52005 0.63221
vt 0.270463 0.225789
vn 0.000000 -1.000000 0.000000
v 0.000000 2.162604 2.162604 0.26108 0.52005 0.63221
vt 0.268341 0.232892
vn 0.000000 -1.000000 0.000000
v 0.000000 2.162604 4.325208 0.26108 0.52005 0.63221
vt 0.257648 0.232226
vn 0.000000 -1.000000 0.000000
f 151/151/151 152/152/152 153/153/153
v -2.162604 2.162604 2.162604 0.26108 0.52005 0.63221
vt 0.269452 0.223770
vn 0.000000 1.000000 0.000000
v 0.000000 2.162604 4.325208 0.26108 0.52005 0.63221
vt 0.256580 0.230233
vn 0.000000 1.000000 0.000000
v 0.000000 2.162604 2.162604 0.26108 0.52005 0.63221
vt 0.267320 0.230902
vn 0.000000 1.000000 0.000000
f 154/154/154 155/155/155 156/156/156
v -2.162604 2.162604 2.162604 0.26108 0.52005 0.63221
vt 0.264165 0.223634
vn -0.000000 -1.000000 0.000000
v -4.325208 2.162604 2.162604 0.26108 0.52005 0.63221
vt 0.268297 0.213545
vn -0.000000 -1.000000 0.000000
v -4.325208 2.162604 0.000000 0.26108 0.52005 0.63221
vt 0.275094 0.211110
vn -0.000000 -1.000000 0.000000
f 157/157/157 158/158/158 159/159/159
v -2.162604 2.162604 2.162604 0.26108 0.52005 0.63221
vt 0.263127 0.221606
vn 0.000000 1.000000 0.000000
v -4.325208 2.162604 0.000000 0.26108 0.52005 0.63221
vt 0.274474 0.209805
vn 0.000000 1.000000 0.000000
v -4.325208 2.162604 2.162604 0.26108 0.52005 0.63221
vt 0.267597 0.212122
vn 0.000000 1.000000 0.000000
f 160/160/160 161/161/161 162/162/162
v 2.162604 2.162604 4.325208 0.28524 0.28754 0.26684
vt 0.685740 0.157930
vn 0.000000 1.000000 0.000000
v 0.000000 2.162604 4.325208 0.28524 0.28754 0.26684
vt 0.678461 0.169628
vn 0.000000 1.000000 0.000000
v 0.000000 2.162604 6.487812 0.28524 0.28754 0.26684
vt 0.677863 0.168995
vn 0.000000 1.000000 0.000000
f 163/163/163 164/164/164 165/165/165
v 2.162604 2.162604 4.325208 0.28524 0.28754 0.26684
vt 0.687152 0.152079
vn 0.000000 -1.000000 0.000000
v 0.000000 2.162604 6.487812 0.28524 0.28754 0.26684
vt 0.677863 0.168995
vn 0.000000 -1.000000 0.000000
v 0.000000 2.162604 4.325208 0.28524 0.28754 0.26684
vt 0.682357 0.166255
vn 0.000000 -1.000000 0.000000
f 166/166/166 167/167/167 168/168/168
v 2.162604 2.162604 2.162604 0.28524 0.28754 0.26684
vt 0.709913 0.152498
vn 0.000000 -1.000000 0.000000
v 2.162604 2.162604 4.325208 0.28524 0.28754 0.26684
vt 0.689159 0.153490
vn 0.000000 -1.000000 0.000000
v 0.000000 2.162604 4.325208 0.28524 0.28754 0.26684
vt 0.682357 0.166255
vn 0.000000 -1.000000 0.000000
f 169/169/169 170/170/170 171/171/171
v 0.000000 2.162604 4.325208 0.28524 0.28754 0.26684
vt 0.682357 0.166255
vn 0.000000 -1.000000 0.000000
v 0.000000 2.162604 2.162604 0.28524 0.28754 0.26684
vt 0.707878 0.161903
vn 0.000000 -1.000000 0.000000
v 2.162604 2.162604 2.162604 0.28524 0.28754 0.26684
vt 0.709913 0.152498
vn 0.000000 -1.000000 0.000000
f 172/172/172 173/173/173 174/174/174
v 0.000000 2.162604 2.162604 0.28524 0.28754 0.26684
vt 0.703533 0.165291
vn 0.000000 1.000000 0.000000
v 2.162604 2.162604 0.000000 0.28524 0.28754 0.26684
vt 0.726150 0.150846
vn 0.000000 1.000000 0.000000
v 0.000000 2.162604 0.000000 0.28524 0.28754 0.26684
vt 0.730934 0.160239
vn 0.000000 1.000000 0.000000
f 175/175/175 176/176/176 177/177/177
v 2.162604 2.162604 0.000000 0.28524 0.28754 0.26684
vt 0.726150 0.150846
vn 0.000000 1.000000 -0.000000
v 0.000000 2.162604 2.162604 0.28524 0.28754 0.26684
vt 0.703533 0.165291
vn 0.000000 1.000000 -0.000000
v 2.162604 2.162604 2.162604 0.28524 0.28754 0.26684
vt 0.705936 0.154389
vn 0.000000 1.000000 -0.000000
f 178/178/178 179/179/179 180/180/180
v 0.000000 2.162604 4.325208 0.28524 0.28754 0.26684
vt 0.678461 0.169628
vn 0.000000 1.000000 0.000000
v 2.162604 2.162604 2.162604 0.28524 0.28754 0.26684
vt 0.705936 0.154389
vn 0.000000 1.000000 0.000000
v 0.000000 2.162604 2.162604 0.28524 0.28754 0.26684
vt 0.703533 0.165291
vn 0.000000 1.000000 0.000000
f 181/181/181 182/182/182 183/183/183
v 2.162604 2.162604 2.162604 0.28524 0.28754 0.26684
vt 0.705936 0.154389
vn 0.000000 1.000000 -0.000000
v 0.000000 2.162604 4.325208 0.28524 0.28754 0.26684
vt 0.678461 0.169628
vn 0.000000 1.000000 -0.000000
v 2.162604 2.162604 4.325208 0.28524 0.28754 0.26684
vt 0.685740 0.157930
vn 0.000000 1.000000 -0.000000
f 184/184/184 185/185/185 186/186/186
v 2.162604 2.162604 0.000000 0.28524 0.28754 0.26684
vt 0.730371 0.148998
vn 0.000000 -1.000000 0.000000
v 2.162604 2.162604 2.162604 0.28524 0.28754 0.26684
vt 0.709913 0.152498
vn 0.000000 -1.000000 0.000000
v 0.000000 2.162604 2.162604 0.28524 0.28754 0.26684
vt 0.707878 0.161903
vn 0.000000 -1.000000 0.000000
f 187/187/187 188/188/188 189/189/189
v 0.000000 2.162604 2.162604 0.28524 0.28754 0.26684
vt 0.707878 0.161903
vn 0.000000 -1.000000 0.000000
v 0.000000 2.162604 0.000000 0.28524 0.28754 0.26684
vt 0.735355 0.157174
vn 0.000000 -1.000000 0.000000
v 2.162604 2.162604 0.000000 0.28524 0.28754 0.26684
vt 0.730371 0.148998
vn 0.000000 -1.000000 0.000000
f 190/190/190 191/191/191 192/192/192
v 4.325208 0.000000 2.162604 0.26108 0.52005 0.63221
vt 0.260932 0.254462
vn 1.000000 0.000000 0.000000
v 4.325208 2.162604 4.325208 0.26108 0.52005 0.63221
vt 0.256932 0.253225
vn 1.000000 0.000000 0.000000
v 4.325208 0.000000 4.325208 0.26108 0.52005 0.63221
vt 0.257001 0.254217
vn 1.000000 0.000000 0.000000
f 193/193/193 194/194/194 195/195/195
v 4.325208 2.162604 4.325208 0.26108 0.52005 0.63221
vt 0.256932 0.253225
vn 1.000000 0.000000 0.000000
v 4.325208 0.000000 2.162604 0.26108 0.52005 0.63221
vt 0.260932 0.254462
vn 1.000000 0.000000 0.000000
v 4.325208 2.162604 2.162604 0.26108 0.52005 0.63221
vt 0.260865 0.253471
vn 1.000000 0.000000 0.000000
f 196/196/196 197/197/197 198/198/198
v 0.000000 2.162604 12.975624 0.28524 0.28754 0.26684
vt 0.669312 0.231993
vn 0.000000 -1.000000 0.000000
v 0.000000 2.162604 10.813020 0.28524 0.28754 0.26684
vt 0.680786 0.233233
vn 0.000000 -1.000000 0.000000
v 2.162604 2.162604 10.813020 0.28524 0.28754 0.26684
vt 0.681424 0.234888
vn 0.000000 -1.000000 0.000000
f 199/199/199 200/200/200 201/201/201
v 2.162604 2.162604 10.813020 0.28524 0.28754 0.26684
vt 0.681424 0.234888
vn 0.000000 -1.000000 0.000000
v 2.162604 2.162604 12.975624 0.28524 0.28754 0.26684
vt 0.669838 0.233687
vn 0.000000 -1.000000 0.000000
v 0.000000 2.162604 12.975624 0.28524 0.28754 0.26684
vt 0.669312 0.231993
vn 0.000000 -1.000000 0.000000
f 202/202/202 203/203/203 204/204/204
v -0.000000 2.162604 12.975624 0.28524 0.28754 0.26684
vt 0.670315 0.216312
vn 0.000000 -1.000000 -0.000000
v -2.162604 2.162604 10.813020 0.28524 0.28754 0.26684
vt 0.682875 0.211517
vn 0.000000 -1.000000 -0.000000
v -0.000000 2.162604 10.813020 0.28524 0.28754 0.26684
vt 0.681787 0.217131
vn 0.000000 -1.000000 -0.000000
f 205/205/205 206/206/206 207/207/207
v -2.162604 2.162604 10.813020 0.28524 0.28754 0.26684
vt 0.682875 0.211517
vn 0.000000 -1.000000 0.000000
v -0.000000 2.162604 12.975624 0.28524 0.28754 0.26684
vt 0.670315 0.216312
vn 0.000000 -1.000000 0.000000
v -2.162604 2.162604 12.975624 0.28524 0.28754 0.26684
vt 0.671291 0.210934
vn 0.000000 -1.000000 0.000000
f 208/208/208 209/209/209 210/210/210
v 2.162604 2.162604 12.975624 0.26108 0.52005 0.63221
vt 0.211528 0.234220
vn 1.000000 0.000000 0.000000
v 2.162604 2.162604 10.813020 0.26108 0.52005 0.63221
vt 0.218712 0.234735
vn 1.000000 0.000000 0.000000
v 2.162604 4.325208 10.813020 0.26108 0.52005 0.63221
vt 0.217765 0.232252
vn 1.000000 0.000000 0.000000
f 211/211/211 212/212/212 213/213/213
v 2.162604 4.325208 10.813020 0.26108 0.52005 0.63221
vt 0.217765 0.232252
vn 1.000000 0.000000 -0.000000
v 2.162604 4.325208 12.975624 0.26108 0.52005 0.63221
vt 0.210630 0.231878
vn 1.000000 0.000000 -0.000000
v 2.162604 2.162604 12.975624 0.26108 0.52005 0.63221
vt 0.211528 0.234220
vn 1.000000 0.000000 -0.000000
f 214/214/214 215/215/215 216/216/216
v 2.162604 4.325208 12.975624 0.26108 0.52005 0.63221
vt 0.210630 0.231878
vn 0.000000 1.000000 0.000000
v 2.162604 4.325208 10.813020 0.26108 0.52005 0.63221
vt 0.217765 0.232252
vn 0.000000 1.000000 0.000000
v 0.000000 4.325208 10.813020 0.26108 0.52005 0.63221
vt 0.217205 0.228630
vn 0.000000 1.000000 0.000000
f 217/217/217 218/218/218 219/219/219
v 0.000000 4.325208 10.813020 0.26108 0.52005 0.63221
vt 0.217205 0.228630
vn 0.000000 1.000000 0.000000
v 0.000000 4.325208 12.975624 0.26108 0.52005 0.63221
vt 0.210107 0.228415
vn 0.000000 1.000000 0.000000
v 2.162604 4.325208 12.975624 0.26108 0.52005 0.63221
vt 0.210630 0.231878
vn 0.000000 1.000000 0.000000
f 220/220/220 221/221/221 222/222/222
v -2.162604 2.162604 12.975624 0.26108 0.52005 0.63221
vt 0.213535 0.218457
vn -1.000000 0.000000 0.000000
v -2.162604 4.325208 10.813020 0.26108 0.52005 0.63221
vt 0.219611 0.217613
vn -1.000000 0.000000 0.000000
v -2.162604 2.162604 10.813020 0.26108 0.52005 0.63221
vt 0.220751 0.218543
vn -1.000000 0.000000 0.000000
f 223/223/223 224/224/224 225/225/225
v -2.162604 4.325208 10.813020 0.26108 0.52005 0.63221
vt 0.219611 0.217613
vn -1.000000 0.000000 0.000000
v -2.162604 2.162604 12.975624 0.26108 0.52005 0.63221
vt 0.213535 0.218457
vn -1.000000 0.000000 0.000000
v -2.162604 4.325208 12.975624 0.26108 0.52005 0.63221
vt 0.212447 0.217631
vn -1.000000 0.000000 0.000000
f 226/226/226 227/227/227 228/228/228
v -2.162604 4.325208 12.975624 0.26108 0.52005 0.63221
vt 0.212447 0.217631
vn 0.000000 1.000000 0.000000
v -0.000000 4.325208 10.813020 0.26108 0.52005 0.63221
vt 0.218488 0.218473
vn 0.000000 1.000000 0.000000
v -2.162604 4.325208 10.813020 0.26108 0.52005 0.63221
vt 0.219611 0.217613
vn 0.000000 1.000000 0.000000
f 229/229/229 230/230/230 231/231/231
v -0.000000 4.325208 10.813020 0.26108 0.52005 0.63221
vt 0.218488 0.218473
vn 0.000000 1.000000 -0.000000
v -2.162604 4.325208 12.975624 0.26108 0.52005 0.63221
vt 0.212447 0.217631
vn 0.000000 1.000000 -0.000000
v -0.000000 4.325208 12.975624 0.26108 0.52005 0.63221
vt 0.211369 0.218531
vn 0.000000 1.000000 -0.000000
f 232/232/232 233/233/233 234/234/234
v 0.000000 2.162604 15.138228 0.26108 0.52005 0.63221
vt 0.201802 0.228693
vn 1.000000 0.000000 0.000000
v 0.000000 2.162604 12.975624 0.26108 0.52005 0.63221
vt 0.203503 0.229643
vn 1.000000 0.000000 0.000000
v 0.000000 4.325208 12.975624 0.26108 0.52005 0.63221
vt 0.203257 0.227758
vn 1.000000 0.000000 0.000000
f 235/235/235 236/236/236 237/237/237
v 0.000000 4.325208 12.975624 0.26108 0.52005 0.63221
vt 0.203257 0.227758
vn 1.000000 0.000000 -0.000000
v 0.000000 4.325208 15.138228 0.26108 0.52005 0.63221
vt 0.201569 0.225741
vn 1.000000 0.000000 -0.000000
v 0.000000 2.162604 15.138228 0.26108 0.52005 0.63221
vt 0.201586 0.227302
vn 1.000000 0.000000 -0.000000
f 238/238/238 239/239/239 240/240/240
v -0.000000 2.162604 15.138228 0.26108 0.52005 0.63221
vt 0.202545 0.222951
vn -1.000000 0.000000 0.000000
v -0.000000 4.325208 12.975624 0.26108 0.52005 0.63221
vt 0.203942 0.222444
vn -1.000000 0.000000 0.000000
v -0.000000 2.162604 12.975624 0.26108 0.52005 0.63221
vt 0.204512 0.221827
vn -1.000000 0.000000 0.000000
f 241/241/241 242/242/242 243/243/243
v -0.000000 4.325208 12.975624 0.26108 0.52005 0.63221
vt 0.203495 0.223800
vn -1.000000 0.000000 0.000000
v -0.000000 2.162604 15.138228 0.26108 0.52005 0.63221
vt 0.202101 0.223325
vn -1.000000 0.000000 0.000000
v -0.000000 4.325208 15.138228 0.26108 0.52005 0.63221
vt 0.201752 0.224321
vn -1.000000 0.000000 0.000000
f 244/244/244 245/245/245 246/246/246
v 2.162604 2.162604 12.975624 0.26108 0.52005 0.63221
vt 0.209143 0.233433
vn 0.000000 -0.000000 1.000000
v 2.162604 4.325208 12.975624 0.26108 0.52005 0.63221
vt 0.207961 0.231271
vn 0.000000 -0.000000 1.000000
v 0.000000 2.162604 12.975624 0.26108 0.52005 0.63221
vt 0.205566 0.230647
vn 0.000000 -0.000000 1.000000
f 247/247/247 248/248/248 249/249/249
v -2.162604 2.162604 12.975624 0.26108 0.52005 0.63221
vt 0.210933 0.219428
vn 0.000000 0.000000 1.000000
v -0.000000 2.162604 12.975624 0.26108 0.52005 0.63221
vt 0.206845 0.220710
vn 0.000000 0.000000 1.000000
v -2.162604 4.325208 12.975624 0.26108 0.52005 0.63221
vt 0.209531 0.219040
vn 0.000000 0.000000 1.000000
f 250/250/250 251/251/251 252/252/252
v 0.000000 4.325208 12.975624 0.26108 0.52005 0.63221
vt 0.204280 0.228153
vn -0.000000 0.000000 1.000000
v 0.000000 2.162604 12.975624 0.26108 0.52005 0.63221
vt 0.205566 0.230647
vn -0.000000 0.000000 1.000000
v 2.162604 4.325208 12.975624 0.26108 0.52005 0.63221
vt 0.207961 0.231271
vn -0.000000 0.000000 1.000000
f 253/253/253 254/254/254 255/255/255
v -0.000000 2.162604 12.975624 0.26108 0.52005 0.63221
vt 0.206845 0.220710
vn 0.000000 -0.000000 1.000000
v -0.000000 4.325208 12.975624 0.26108 0.52005 0.63221
vt 0.205484 0.221620
vn 0.000000 -0.000000 1.000000
v -2.162604 4.325208 12.975624 0.26108 0.52005 0.63221
vt 0.209531 0.219040
vn 0.000000 -0.000000 1.000000
f 256/256/256 257/257/257 258/258/258
v 4.325208 2.162604 2.162604 0.26108 0.52005 0.63221
vt 0.260379 0.257616
vn -1.000000 0.000000 0.000000
v 4.325208 0.000000 4.325208 0.26108 0.52005 0.63221
vt 0.256682 0.256920
vn -1.000000 0.000000 0.000000
v 4.325208 2.162604 4.325208 0.26108 0.52005 0.63221
vt 0.256443 0.257369
vn -1.000000 0.000000 0.000000
f 259/259/259 260/260/260 261/261/261
v 4.325208 0.000000 4.325208 0.26108 0.52005 0.63221
vt 0.256682 0.256920
vn -1.000000 0.000000 0.000000
v 4.325208 2.162604 2.162604 0.26108 0.52005 0.63221
vt 0.260379 0.257616
vn -1.000000 0.000000 0.000000
v 4.325208 0.000000 2.162604 0.26108 0.52005 0.63221
vt 0.260615 0.257166
vn -1.000000 0.000000 0.000000
f 262/262/262 263/263/263 264/264/264
v 4.325208 0.000000 4.325208 0.26108 0.52005 0.63221
vt 0.252706 0.253747
vn -1.000000 0.000000 0.000000
v 4.325208 0.000000 6.487812 0.26108 0.52005 0.63221
vt 0.246405 0.253449
vn -1.000000 0.000000 0.000000
v 4.325208 2.162604 6.487812 0.26108 0.52005 0.63221
vt 0.246307 0.252152
vn -1.000000 0.000000 0.000000
f 265/265/265 266/266/266 267/267/267
v 4.325208 2.162604 6.487812 0.26108 0.52005 0.63221
vt 0.245657 0.257570
vn 0.577350 -0.577350 0.577350
v 4.325208 0.000000 4.325208 0.26108 0.52005 0.63221
vt 0.251810 0.258755
vn 0.577350 -0.577350 0.577350
v 6.487812 2.162604 4.325208 0.26108 0.52005 0.63221
vt 0.251384 0.258925
vn 0.577350 -0.577350 0.577350
f 268/268/268 269/269/269 270/270/270
v 4.325208 2.162604 6.487812 0.26108 0.52005 0.63221
vt 0.246307 0.252152
vn -1.000000 0.000000 -0.000000
v 4.325208 2.162604 4.325208 0.26108 0.52005 0.63221
vt 0.252345 0.250838
vn -1.000000 0.000000 -0.000000
v 4.325208 0.000000 4.325208 0.26108 0.52005 0.63221
vt 0.252592 0.252171
vn -1.000000 0.000000 -0.000000
f 271/271/271 272/272/272 273/273/273
v 4.325208 0.000000 4.325208 0.26108 0.52005 0.63221
vt 0.251810 0.258755
vn 1.000000 0.000000 0.000000
v 4.325208 2.162604 6.487812 0.26108 0.52005 0.63221
vt 0.245657 0.257570
vn 1.000000 0.000000 0.000000
v 4.325208 0.000000 6.487812 0.26108 0.52005 0.63221
vt 0.245980 0.256982
vn 1.000000 0.000000 0.000000
f 274/274/274 275/275/275 276/276/276
v 4.325208 2.162604 6.487812 0.26108 0.52005 0.63221
vt 0.244649 0.256620
vn 0.000000 1.000000 0.000000
v 6.487812 2.162604 4.325208 0.26108 0.52005 0.63221
vt 0.250612 0.257606
vn 0.000000 1.000000 0.000000
v 4.325208 2.162604 4.325208 0.26108 0.52005 0.63221
vt 0.250361 0.256271
vn 0.000000 1.000000 0.000000
f 277/277/277 278/278/278 279/279/279
v 4.325208 0.000000 4.325208 0.26108 0.52005 0.63221
vt 0.252241 0.253919
vn 1.000000 0.000000 0.000000
v 4.325208 2.162604 6.487812 0.26108 0.52005 0.63221
vt 0.246955 0.252601
vn 1.000000 0.000000 0.000000
v 4.325208 0.000000 6.487812 0.26108 0.52005 0.63221
vt 0.247029 0.253593
vn 1.000000 0.000000 0.000000
f 280/280/280 281/281/281 282/282/282
v 4.325208 2.162604 6.487812 0.26108 0.52005 0.63221
vt 0.246955 0.252601
vn 1.000000 0.000000 0.000000
v 4.325208 0.000000 4.325208 0.26108 0.52005 0.63221
vt 0.252241 0.253919
vn 1.000000 0.000000 0.000000
v 4.325208 2.162604 4.325208 0.26108 0.52005 0.63221
vt 0.252169 0.252927
vn 1.000000 0.000000 0.000000
f 283/283/283 284/284/284 285/285/285
v 4.325208 2.162604 4.325208 0.26108 0.52005 0.63221
vt 0.251677 0.257071
vn -1.000000 0.000000 0.000000
v 4.325208 0.000000 6.487812 0.26108 0.52005 0.63221
vt 0.246705 0.256296
vn -1.000000 0.000000 0.000000
v 4.325208 2.162604 6.487812 0.26108 0.52005 0.63221
vt 0.246458 0.256745
vn -1.000000 0.000000 0.000000
f 286/286/286 287/287/287 288/288/288
v 4.325208 0.000000 6.487812 0.26108 0.52005 0.63221
vt 0.246705 0.256296
vn -1.000000 0.000000 0.000000
v 4.325208 2.162604 4.325208 0.26108 0.52005 0.63221
vt 0.251677 0.257071
vn -1.000000 0.000000 0.000000
v 4.325208 0.000000 4.325208 0.26108 0.52005 0.63221
vt 0.251920 0.256622
vn -1.000000 0.000000 0.000000
f 289/289/289 290/290/290 291/291/291
v 4.325208 2.162604 4.325208 0.26108 0.52005 0.63221
vt 0.256117 0.259010
vn 0.000000 0.000000 -1.000000
v 6.487812 2.162604 4.325208 0.26108 0.52005 0.63221
vt 0.251384 0.258925
vn 0.000000 0.000000 -1.000000
v 4.325208 0.000000 4.325208 0.26108 0.52005 0.63221
vt 0.251810 0.258755
vn 0.000000 0.000000 -1.000000
f 292/292/292 293/293/293 294/294/294
v 2.162604 4.325208 6.487812 0.52681 0.52911 0.50841
vt 0.633844 0.758799
vn 1.000000 0.000000 -0.000000
v 2.162604 4.325208 8.650416 0.52681 0.52911 0.50841
vt 0.630966 0.759131
vn 1.000000 0.000000 -0.000000
v 2.162604 2.162604 8.650416 0.52681 0.52911 0.50841
vt 0.630426 0.758218
vn 1.000000 0.000000 -0.000000
f 295/295/295 296/296/296 297/297/297
v 2.162604 2.162604 8.650416 0.52681 0.52911 0.50841
vt 0.630426 0.758218
vn 1.000000 0.000000 0.000000
v 2.162604 2.162604 6.487812 0.52681 0.52911 0.50841
vt 0.633289 0.757888
vn 1.000000 0.000000 0.000000
v 2.162604 4.325208 6.487812 0.52681 0.52911 0.50841
vt 0.633844 0.758799
vn 1.000000 0.000000 0.000000
f 298/298/298 299/299/299 300/300/300
v 2.162604 4.325208 4.325208 0.52681 0.52911 0.50841
vt 0.661188 0.755650
vn 1.000000 0.000000 -0.000000
v 2.162604 4.325208 6.487812 0.52681 0.52911 0.50841
vt 0.658307 0.755982
vn 1.000000 0.000000 -0.000000
v 2.162604 2.162604 6.487812 0.52681 0.52911 0.50841
vt 0.657627 0.755085
vn 1.000000 0.000000 -0.000000
f 301/301/301 302/302/302 303/303/303
v 2.162604 2.162604 6.487812 0.52681 0.52911 0.50841
vt 0.657627 0.755085
vn 1.000000 0.000000 0.000000
v 2.162604 2.162604 4.325208 0.52681 0.52911 0.50841
vt 0.660493 0.754755
vn 1.000000 0.000000 0.000000
v 2.162604 4.325208 4.325208 0.52681 0.52911 0.50841
vt 0.661188 0.755650
vn 1.000000 0.000000 0.000000
f 304/304/304 305/305/305 306/306/306
v 2.162604 4.325208 2.162604 0.52681 0.52911 0.50841
vt 0.688557 0.752498
vn 1.000000 0.000000 -0.000000
v 2.162604 4.325208 4.325208 0.52681 0.52911 0.50841
vt 0.685674 0.752831
vn 1.000000 0.000000 -0.000000
v 2.162604 2.162604 4.325208 0.52681 0.52911 0.50841
vt 0.684852 0.751949
vn 1.000000 0.000000 -0.000000
f 307/307/307 308/308/308 309/309/309
v 2.162604 2.162604 4.325208 0.52681 0.52911 0.50841
vt 0.684852 0.751949
vn 1.000000 0.000000 0.000000
v 2.162604 2.162604 2.162604 0.52681 0.52911 0.50841
vt 0.687721 0.751618
vn 1.000000 0.000000 0.000000
v 2.162604 4.325208 2.162604 0.52681 0.52911 0.50841
vt 0.688557 0.752498
vn 1.000000 0.000000 0.000000
f 310/310/310 311/311/311 312/312/312
v -0.000000 4.325208 8.650416 0.26108 0.52005 0.63221
vt 0.224306 0.218834
vn 0.000000 1.000000 -0.000000
v -2.162604 4.325208 10.813020 0.26108 0.52005 0.63221
vt 0.222510 0.217793
vn 0.000000 1.000000 -0.000000
v -0.000000 4.325208 10.813020 0.26108 0.52005 0.63221
vt 0.221397 0.218653
vn 0.000000 1.000000 -0.000000
f 313/313/313 314/314/314 315/315/315
v -2.162604 4.325208 10.813020 0.26108 0.52005 0.63221
vt 0.222510 0.217793
vn 0.000000 1.000000 0.000000
v -0.000000 4.325208 8.650416 0.26108 0.52005 0.63221
vt 0.224306 0.218834
vn 0.000000 1.000000 0.000000
v -2.162604 4.325208 8.650416 0.26108 0.52005 0.63221
vt 0.225410 0.217973
vn 0.000000 1.000000 0.000000
f 316/316/316 317/317/317 318/318/318
v -0.000000 4.325208 6.487812 0.26108 0.52005 0.63221
vt 0.235946 0.219557
vn 0.000000 1.000000 -0.000000
v -2.162604 4.325208 8.650416 0.26108 0.52005 0.63221
vt 0.234109 0.218514
vn 0.000000 1.000000 -0.000000
v -0.000000 4.325208 8.650416 0.26108 0.52005 0.63221
vt 0.233036 0.219376
vn 0.000000 1.000000 -0.000000
f 319/319/319 320/320/320 321/321/321
v -2.162604 4.325208 8.650416 0.26108 0.52005 0.63221
vt 0.234109 0.218514
vn 0.000000 1.000000 0.000000
v -0.000000 4.325208 6.487812 0.26108 0.52005 0.63221
vt 0.235946 0.219557
vn 0.000000 1.000000 0.000000
v -2.162604 4.325208 6.487812 0.26108 0.52005 0.63221
vt 0.237009 0.218694
vn 0.000000 1.000000 0.000000
f 322/322/322 323/323/323 324/324/324
v -0.000000 4.325208 4.325208 0.26108 0.52005 0.63221
vt 0.247588 0.220280
vn 0.000000 1.000000 -0.000000
v -2.162604 4.325208 6.487812 0.26108 0.52005 0.63221
vt 0.245711 0.219234
vn 0.000000 1.000000 -0.000000
v -0.000000 4.325208 6.487812 0.26108 0.52005 0.63221
vt 0.244677 0.220099
vn 0.000000 1.000000 -0.000000
f 325/325/325 326/326/326 327/327/327
v -2.162604 4.325208 6.487812 0.26108 0.52005 0.63221
vt 0.245711 0.219234
vn 0.000000 1.000000 0.000000
v -0.000000 4.325208 4.325208 0.26108 0.52005 0.63221
vt 0.247588 0.220280
vn 0.000000 1.000000 0.000000
v -2.162604 4.325208 4.325208 0.26108 0.52005 0.63221
vt 0.248612 0.219415
vn 0.000000 1.000000 0.000000
f 328/328/328 329/329/329 330/330/330
v -0.000000 4.325208 2.162604 0.26108 0.52005 0.63221
vt 0.259234 0.221004
vn 0.000000 1.000000 -0.000000
v -2.162604 4.325208 4.325208 0.26108 0.52005 0.63221
vt 0.257316 0.219955
vn 0.000000 1.000000 -0.000000
v -0.000000 4.325208 4.325208 0.26108 0.52005 0.63221
vt 0.256322 0.220823
vn 0.000000 1.000000 -0.000000
f 331/331/331 332/332/332 333/333/333
v -2.162604 4.325208 4.325208 0.26108 0.52005 0.63221
vt 0.257316 0.219955
vn 0.000000 1.000000 0.000000
v -0.000000 4.325208 2.162604 0.26108 0.52005 0.63221
vt 0.259234 0.221004
vn 0.000000 1.000000 0.000000
v -2.162604 4.325208 2.162604 0.26108 0.52005 0.63221
vt 0.260218 0.220135
vn 0.000000 1.000000 0.000000
f 334/334/334 335/335/335 336/336/336
v 0.000000 4.325208 8.650416 0.26108 0.52005 0.63221
vt 0.223035 0.228993
vn 0.000000 1.000000 0.000000
v 0.000000 4.325208 10.813020 0.26108 0.52005 0.63221
vt 0.220120 0.228812
vn 0.000000 1.000000 0.000000
v 2.162604 4.325208 10.813020 0.26108 0.52005 0.63221
vt 0.220673 0.232433
vn 0.000000 1.000000 0.000000
f 337/337/337 338/338/338 339/339/339
v 2.162604 4.325208 10.813020 0.26108 0.52005 0.63221
vt 0.220673 0.232433
vn 0.000000 1.000000 0.000000
v 2.162604 4.325208 8.650416 0.26108 0.52005 0.63221
vt 0.223580 0.232614
vn 0.000000 1.000000 0.000000
v 0.000000 4.325208 8.650416 0.26108 0.52005 0.63221
vt 0.223035 0.228993
vn 0.000000 1.000000 0.000000
f 340/340/340 341/341/341 342/342/342
v 0.000000 4.325208 6.487812 0.26108 0.52005 0.63221
vt 0.234697 0.229719
vn 0.000000 1.000000 0.000000
v 0.000000 4.325208 8.650416 0.26108 0.52005 0.63221
vt 0.231781 0.229538
vn 0.000000 1.000000 0.000000
v 2.162604 4.325208 8.650416 0.26108 0.52005 0.63221
vt 0.232304 0.233157
vn 0.000000 1.000000 0.000000
f 343/343/343 344/344/344 345/345/345
v 2.162604 4.325208 8.650416 0.26108 0.52005 0.63221
vt 0.232304 0.233157
vn 0.000000 1.000000 0.000000
v 2.162604 4.325208 6.487812 0.26108 0.52005 0.63221
vt 0.235213 0.233339
vn 0.000000 1.000000 0.000000
v 0.000000 4.325208 6.487812 0.26108 0.52005 0.63221
vt 0.234697 0.229719
vn 0.000000 1.000000 0.000000
f 346/346/346 347/347/347 348/348/348
v 0.000000 4.325208 4.325208 0.26108 0.52005 0.63221
vt 0.246363 0.230445
vn 0.000000 1.000000 0.000000
v 0.000000 4.325208 6.487812 0.26108 0.52005 0.63221
vt 0.243446 0.230264
vn 0.000000 1.000000 0.000000
v 2.162604 4.325208 6.487812 0.26108 0.52005 0.63221
vt 0.243939 0.233882
vn 0.000000 1.000000 0.000000
f 349/349/349 350/350/350 351/351/351
v 2.162604 4.325208 6.487812 0.26108 0.52005 0.63221
vt 0.243939 0.233882
vn 0.000000 1.000000 0.000000
v 2.162604 4.325208 4.325208 0.26108 0.52005 0.63221
vt 0.246848 0.234063
vn 0.000000 1.000000 0.000000
v 0.000000 4.325208 4.325208 0.26108 0.52005 0.63221
vt 0.246363 0.230445
vn 0.000000 1.000000 0.000000
f 352/352/352 353/353/353 354/354/354
v 0.000000 4.325208 2.162604 0.26108 0.52005 0.63221
vt 0.258032 0.231172
vn 0.000000 1.000000 0.000000
v 0.000000 4.325208 4.325208 0.26108 0.52005 0.63221
vt 0.255114 0.230990
vn 0.000000 1.000000 0.000000
v 2.162604 4.325208 4.325208 0.26108 0.52005 0.63221
vt 0.255577 0.234607
vn 0.000000 1.000000 0.000000
f 355/355/355 356/356/356 357/357/357
v 2.162604 4.325208 4.325208 0.26108 0.52005 0.63221
vt 0.255577 0.234607
vn 0.000000 1.000000 0.000000
v 2.162604 4.325208 2.162604 0.26108 0.52005 0.63221
vt 0.258488 0.234788
vn 0.000000 1.000000 0.000000
v 0.000000 4.325208 2.162604 0.26108 0.52005 0.63221
vt 0.258032 0.231172
vn 0.000000 1.000000 0.000000
f 358/358/358 359/359/359 360/360/360
v -2.162604 4.325208 6.487812 0.52681 0.52911 0.50841
vt 0.629983 0.722761
vn -1.000000 0.000000 0.000000
v -2.162604 2.162604 8.650416 0.52681 0.52911 0.50841
vt 0.626332 0.720178
vn -1.000000 0.000000 0.000000
v -2.162604 4.325208 8.650416 0.52681 0.52911 0.50841
vt 0.627090 0.723096
vn -1.000000 0.000000 0.000000
f 361/361/361 362/362/362 363/363/363
v -2.162604 2.162604 8.650416 0.52681 0.52911 0.50841
vt 0.626332 0.720178
vn -1.000000 0.000000 0.000000
v -2.162604 4.325208 6.487812 0.52681 0.52911 0.50841
vt 0.629983 0.722761
vn -1.000000 0.000000 0.000000
v -2.162604 2.162604 6.487812 0.52681 0.52911 0.50841
vt 0.629211 0.719844
vn -1.000000 0.000000 0.000000
f 364/364/364 365/365/365 366/366/366
v -2.162604 4.325208 4.325208 0.52681 0.52911 0.50841
vt 0.657470 0.719579
vn -1.000000 0.000000 0.000000
v -2.162604 2.162604 6.487812 0.52681 0.52911 0.50841
vt 0.653683 0.717010
vn -1.000000 0.000000 0.000000
v -2.162604 4.325208 6.487812 0.52681 0.52911 0.50841
vt 0.654574 0.719914
vn -1.000000 0.000000 0.000000
f 367/367/367 368/368/368 369/369/369
v -2.162604 2.162604 6.487812 0.52681 0.52911 0.50841
vt 0.653683 0.717010
vn -1.000000 0.000000 0.000000
v -2.162604 4.325208 4.325208 0.52681 0.52911 0.50841
vt 0.657470 0.719579
vn -1.000000 0.000000 0.000000
v -2.162604 2.162604 4.325208 0.52681 0.52911 0.50841
vt 0.656565 0.716676
vn -1.000000 0.000000 0.000000
f 370/370/370 371/371/371 372/372/372
v -2.162604 4.325208 2.162604 0.52681 0.52911 0.50841
vt 0.684982 0.716393
vn -1.000000 0.000000 0.000000
v -2.162604 2.162604 4.325208 0.52681 0.52911 0.50841
vt 0.681059 0.713839
vn -1.000000 0.000000 0.000000
v -2.162604 4.325208 4.325208 0.52681 0.52911 0.50841
vt 0.682084 0.716729
vn -1.000000 0.000000 0.000000
f 373/373/373 374/374/374 375/375/375
v -2.162604 2.162604 4.325208 0.52681 0.52911 0.50841
vt 0.681059 0.713839
vn -1.000000 0.000000 0.000000
v -2.162604 4.325208 2.162604 0.52681 0.52911 0.50841
vt 0.684982 0.716393
vn -1.000000 0.000000 0.000000
v -2.162604 2.162604 2.162604 0.52681 0.52911 0.50841
vt 0.683943 0.713505
vn -1.000000 0.000000 0.000000
f 376/376/376 377/377/377 378/378/378
v 2.162604 2.162604 8.650416 0.28524 0.28754 0.26684
vt 0.690611 0.235635
vn 0.000000 -1.000000 0.000000
v 2.162604 2.162604 10.813020 0.28524 0.28754 0.26684
vt 0.686018 0.235261
vn 0.000000 -1.000000 0.000000
v 0.000000 2.162604 10.813020 0.28524 0.28754 0.26684
vt 0.685355 0.233605
vn 0.000000 -1.000000 0.000000
f 379/379/379 380/380/380 381/381/381
v 0.000000 2.162604 10.813020 0.28524 0.28754 0.26684
vt 0.685355 0.233605
vn 0.000000 -1.000000 0.000000
v 0.000000 2.162604 8.650416 0.28524 0.28754 0.26684
vt 0.689924 0.233976
vn 0.000000 -1.000000 0.000000
v 2.162604 2.162604 8.650416 0.28524 0.28754 0.26684
vt 0.690611 0.235635
vn 0.000000 -1.000000 0.000000
f 382/382/382 383/383/383 384/384/384
v 2.162604 2.162604 6.487812 0.28524 0.28754 0.26684
vt 0.708991 0.237130
vn 0.000000 -1.000000 0.000000
v 2.162604 2.162604 8.650416 0.28524 0.28754 0.26684
vt 0.704396 0.236756
vn 0.000000 -1.000000 0.000000
v 0.000000 2.162604 8.650416 0.28524 0.28754 0.26684
vt 0.703635 0.235091
vn 0.000000 -1.000000 0.000000
f 385/385/385 386/386/386 387/387/387
v 0.000000 2.162604 8.650416 0.28524 0.28754 0.26684
vt 0.703635 0.235091
vn 0.000000 -1.000000 0.000000
v 0.000000 2.162604 6.487812 0.28524 0.28754 0.26684
vt 0.708207 0.235462
vn 0.000000 -1.000000 0.000000
v 2.162604 2.162604 6.487812 0.28524 0.28754 0.26684
vt 0.708991 0.237130
vn 0.000000 -1.000000 0.000000
f 388/388/388 389/389/389 390/390/390
v 2.162604 2.162604 4.325208 0.28524 0.28754 0.26684
vt 0.727380 0.238625
vn 0.000000 -1.000000 0.000000
v 2.162604 2.162604 6.487812 0.28524 0.28754 0.26684
vt 0.722782 0.238251
vn 0.000000 -1.000000 0.000000
v 0.000000 2.162604 6.487812 0.28524 0.28754 0.26684
vt 0.721924 0.236577
vn 0.000000 -1.000000 0.000000
f 391/391/391 392/392/392 393/393/393
v 0.000000 2.162604 6.487812 0.28524 0.28754 0.26684
vt 0.721924 0.236577
vn 0.000000 -1.000000 0.000000
v 0.000000 2.162604 4.325208 0.28524 0.28754 0.26684
vt 0.726498 0.236949
vn 0.000000 -1.000000 0.000000
v 2.162604 2.162604 4.325208 0.28524 0.28754 0.26684
vt 0.727380 0.238625
vn 0.000000 -1.000000 0.000000
f 394/394/394 395/395/395 396/396/396
v 2.162604 2.162604 2.162604 0.28524 0.28754 0.26684
vt 0.745777 0.240121
vn 0.000000 -1.000000 0.000000
v 2.162604 2.162604 4.325208 0.28524 0.28754 0.26684
vt 0.741177 0.239747
vn 0.000000 -1.000000 0.000000
v 0.000000 2.162604 4.325208 0.28524 0.28754 0.26684
vt 0.740222 0.238065
vn 0.000000 -1.000000 0.000000
f 397/397/397 398/398/398 399/399/399
v 0.000000 2.162604 4.325208 0.28524 0.28754 0.26684
vt 0.740222 0.238065
vn 0.000000 -1.000000 0.000000
v 0.000000 2.162604 2.162604 0.28524 0.28754 0.26684
vt 0.744798 0.238437
vn 0.000000 -1.000000 0.000000
v 2.162604 2.162604 2.162604 0.28524 0.28754 0.26684
vt 0.745777 0.240121
vn 0.000000 -1.000000 0.000000
f 400/400/400 401/401/401 402/402/402
v -2.162604 2.162604 8.650416 0.28524 0.28754 0.26684
vt 0.692028 0.212258
vn 0.000000 -1.000000 0.000000
v -0.000000 2.162604 10.813020 0.28524 0.28754 0.26684
vt 0.686344 0.217501
vn 0.000000 -1.000000 0.000000
v -2.162604 2.162604 10.813020 0.28524 0.28754 0.26684
vt 0.687451 0.211888
vn 0.000000 -1.000000 0.000000
f 403/403/403 404/404/404 405/405/405
v -0.000000 2.162604 10.813020 0.28524 0.28754 0.26684
vt 0.686344 0.217501
vn 0.000000 -1.000000 -0.000000
v -2.162604 2.162604 8.650416 0.28524 0.28754 0.26684
vt 0.692028 0.212258
vn 0.000000 -1.000000 -0.000000
v -0.000000 2.162604 8.650416 0.28524 0.28754 0.26684
vt 0.690902 0.217870
vn 0.000000 -1.000000 -0.000000
f 406/406/406 407/407/407 408/408/408
v -2.162604 2.162604 6.487812 0.28524 0.28754 0.26684
vt 0.710342 0.213742
vn 0.000000 -1.000000 0.000000
v -0.000000 2.162604 8.650416 0.28524 0.28754 0.26684
vt 0.704580 0.218980
vn 0.000000 -1.000000 0.000000
v -2.162604 2.162604 8.650416 0.28524 0.28754 0.26684
vt 0.705763 0.213371
vn 0.000000 -1.000000 0.000000
f 409/409/409 410/410/410 411/411/411
v -0.000000 2.162604 8.650416 0.28524 0.28754 0.26684
vt 0.704580 0.218980
vn 0.000000 -1.000000 -0.000000
v -2.162604 2.162604 6.487812 0.28524 0.28754 0.26684
vt 0.710342 0.213742
vn 0.000000 -1.000000 -0.000000
v -0.000000 2.162604 6.487812 0.28524 0.28754 0.26684
vt 0.709140 0.219349
vn 0.000000 -1.000000 -0.000000
f 412/412/412 413/413/413 414/414/414
v -2.162604 2.162604 4.325208 0.28524 0.28754 0.26684
vt 0.728665 0.215227
vn 0.000000 -1.000000 0.000000
v -0.000000 2.162604 6.487812 0.28524 0.28754 0.26684
vt 0.722824 0.220459
vn 0.000000 -1.000000 0.000000
v -2.162604 2.162604 6.487812 0.28524 0.28754 0.26684
vt 0.724083 0.214856
vn 0.000000 -1.000000 0.000000
f 415/415/415 416/416/416 417/417/417
v -0.000000 2.162604 6.487812 0.28524 0.28754 0.26684
vt 0.722824 0.220459
vn 0.000000 -1.000000 -0.000000
v -2.162604 2.162604 4.325208 0.28524 0.28754 0.26684
vt 0.728665 0.215227
vn 0.000000 -1.000000 -0.000000
v -0.000000 2.162604 4.325208 0.28524 0.28754 0.26684
vt 0.727386 0.220829
vn 0.000000 -1.000000 -0.000000
f 418/418/418 419/419/419 420/420/420
v -2.162604 2.162604 2.162604 0.28524 0.28754 0.26684
vt 0.746996 0.216712
vn 0.000000 -1.000000 0.000000
v -0.000000 2.162604 4.325208 0.28524 0.28754 0.26684
vt 0.741076 0.221939
vn 0.000000 -1.000000 0.000000
v -2.162604 2.162604 4.325208 0.28524 0.28754 0.26684
vt 0.742412 0.216341
vn 0.000000 -1.000000 0.000000
f 421/421/421 422/422/422 423/423/423
v -0.000000 2.162604 4.325208 0.28524 0.28754 0.26684
vt 0.741076 0.221939
vn 0.000000 -1.000000 -0.000000
v -2.162604 2.162604 2.162604 0.28524 0.28754 0.26684
vt 0.746996 0.216712
vn 0.000000 -1.000000 -0.000000
v -0.000000 2.162604 2.162604 0.28524 0.28754 0.26684
vt 0.745640 0.222309
vn 0.000000 -1.000000 -0.000000
f 424/424/424 425/425/425 426/426/426
v 2.162604 2.162604 10.813020 0.26108 0.52005 0.63221
vt 0.223467 0.234505
vn 1.000000 0.000000 0.000000
v 2.162604 2.162604 8.650416 0.26108 0.52005 0.63221
vt 0.224507 0.235096
vn 1.000000 0.000000 0.000000
v 2.162604 4.325208 8.650416 0.26108 0.52005 0.63221
vt 0.223580 0.232614
vn 1.000000 0.000000 0.000000
f 427/427/427 428/428/428 429/429/429
v 2.162604 4.325208 8.650416 0.26108 0.52005 0.63221
vt 0.223580 0.232614
vn 1.000000 0.000000 -0.000000
v 2.162604 4.325208 10.813020 0.26108 0.52005 0.63221
vt 0.222942 0.233103
vn 1.000000 0.000000 -0.000000
v 2.162604 2.162604 10.813020 0.26108 0.52005 0.63221
vt 0.223467 0.234505
vn 1.000000 0.000000 -0.000000
f 430/430/430 431/431/431 432/432/432
v 2.162604 4.325208 0.000000 0.26108 0.52005 0.63221
vt 0.268229 0.235924
vn 1.000000 0.000000 -0.000000
v 2.162604 4.325208 2.162604 0.26108 0.52005 0.63221
vt 0.267219 0.235332
vn 1.000000 0.000000 -0.000000
v 2.162604 2.162604 2.162604 0.26108 0.52005 0.63221
vt 0.267990 0.237806
vn 1.000000 0.000000 -0.000000
f 433/433/433 434/434/434 435/435/435
v 2.162604 2.162604 2.162604 0.26108 0.52005 0.63221
vt 0.267990 0.237806
vn 1.000000 0.000000 0.000000
v 2.162604 2.162604 0.000000 0.26108 0.52005 0.63221
vt 0.268663 0.237321
vn 1.000000 0.000000 0.000000
v 2.162604 4.325208 0.000000 0.26108 0.52005 0.63221
vt 0.268229 0.235924
vn 1.000000 0.000000 0.000000
f 436/436/436 437/437/437 438/438/438
v -2.162604 2.162604 10.813020 0.26108 0.52005 0.63221
vt 0.225448 0.218648
vn -1.000000 0.000000 0.000000
v -2.162604 4.325208 8.650416 0.26108 0.52005 0.63221
vt 0.225410 0.217973
vn -1.000000 0.000000 0.000000
v -2.162604 2.162604 8.650416 0.26108 0.52005 0.63221
vt 0.226527 0.218901
vn -1.000000 0.000000 0.000000
f 439/439/439 440/440/440 441/441/441
v -2.162604 4.325208 8.650416 0.26108 0.52005 0.63221
vt 0.225410 0.217973
vn -1.000000 0.000000 0.000000
v -2.162604 2.162604 10.813020 0.26108 0.52005 0.63221
vt 0.225448 0.218648
vn -1.000000 0.000000 0.000000
v -2.162604 4.325208 10.813020 0.26108 0.52005 0.63221
vt 0.224815 0.218124
vn -1.000000 0.000000 0.000000
f 442/442/442 443/443/443 444/444/444
v -2.162604 4.325208 0.000000 0.26108 0.52005 0.63221
vt 0.269971 0.220929
vn -1.000000 0.000000 0.000000
v -2.162604 2.162604 2.162604 0.26108 0.52005 0.63221
vt 0.269873 0.221594
vn -1.000000 0.000000 0.000000
v -2.162604 4.325208 2.162604 0.26108 0.52005 0.63221
vt 0.268925 0.220676
vn -1.000000 0.000000 0.000000
f 445/445/445 446/446/446 447/447/447
v -2.162604 2.162604 2.162604 0.26108 0.52005 0.63221
vt 0.269873 0.221594
vn -1.000000 0.000000 0.000000
v -2.162604 4.325208 0.000000 0.26108 0.52005 0.63221
vt 0.269971 0.220929
vn -1.000000 0.000000 0.000000
v -2.162604 2.162604 0.000000 0.26108 0.52005 0.63221
vt 0.270505 0.221447
vn -1.000000 0.000000 0.000000
f 448/448/448 449/449/449 450/450/450
v -0.000000 2.162604 6.487812 0.28524 0.28754 0.26684
vt 0.680330 0.186554
vn 0.000000 1.000000 0.000000
v -0.000000 2.162604 4.325208 0.28524 0.28754 0.26684
vt 0.681248 0.189472
vn 0.000000 1.000000 0.000000
v -2.162604 2.162604 4.325208 0.28524 0.28754 0.26684
vt 0.691277 0.197685
vn 0.000000 1.000000 0.000000
f 451/451/451 452/452/452 453/453/453
v -0.000000 2.162604 4.325208 0.28524 0.28754 0.26684
vt 0.684997 0.185132
vn 0.000000 -1.000000 0.000000
v -0.000000 2.162604 6.487812 0.28524 0.28754 0.26684
vt 0.680330 0.186554
vn 0.000000 -1.000000 0.000000
v -2.162604 2.162604 4.325208 0.28524 0.28754 0.26684
vt 0.693768 0.199691
vn 0.000000 -1.000000 0.000000
f 454/454/454 455/455/455 456/456/456
v -0.000000 2.162604 4.325208 0.28524 0.28754 0.26684
vt 0.684997 0.185132
vn -0.000000 -1.000000 0.000000
v -2.162604 2.162604 4.325208 0.28524 0.28754 0.26684
vt 0.694948 0.195221
vn -0.000000 -1.000000 0.000000
v -2.162604 2.162604 2.162604 0.28524 0.28754 0.26684
vt 0.714924 0.189347
vn -0.000000 -1.000000 0.000000
f 457/457/457 458/458/458 459/459/459
v -2.162604 2.162604 2.162604 0.28524 0.28754 0.26684
vt 0.714924 0.189347
vn 0.000000 -1.000000 0.000000
v -0.000000 2.162604 2.162604 0.28524 0.28754 0.26684
vt 0.710455 0.180789
vn 0.000000 -1.000000 0.000000
v -0.000000 2.162604 4.325208 0.28524 0.28754 0.26684
vt 0.684997 0.185132
vn 0.000000 -1.000000 0.000000
f 460/460/460 461/461/461 462/462/462
v -0.000000 2.162604 2.162604 0.28524 0.28754 0.26684
vt 0.706255 0.185152
vn 0.000000 1.000000 0.000000
v -2.162604 2.162604 0.000000 0.28524 0.28754 0.26684
vt 0.731481 0.190675
vn 0.000000 1.000000 0.000000
v -2.162604 2.162604 2.162604 0.28524 0.28754 0.26684
vt 0.711370 0.194182
vn 0.000000 1.000000 0.000000
f 463/463/463 464/464/464 465/465/465
v -2.162604 2.162604 0.000000 0.28524 0.28754 0.26684
vt 0.731481 0.190675
vn 0.000000 1.000000 0.000000
v -0.000000 2.162604 2.162604 0.28524 0.28754 0.26684
vt 0.706255 0.185152
vn 0.000000 1.000000 0.000000
v -0.000000 2.162604 0.000000 0.28524 0.28754 0.26684
vt 0.733591 0.180157
vn 0.000000 1.000000 0.000000
f 466/466/466 467/467/467 468/468/468
v -0.000000 2.162604 4.325208 0.28524 0.28754 0.26684
vt 0.681248 0.189472
vn 0.000000 1.000000 0.000000
v -2.162604 2.162604 2.162604 0.28524 0.28754 0.26684
vt 0.711370 0.194182
vn 0.000000 1.000000 0.000000
v -2.162604 2.162604 4.325208 0.28524 0.28754 0.26684
vt 0.691277 0.197685
vn 0.000000 1.000000 0.000000
f 469/469/469 470/470/470 471/471/471
v -2.162604 2.162604 2.162604 0.28524 0.28754 0.26684
vt 0.711370 0.194182
vn 0.000000 1.000000 0.000000
v -0.000000 2.162604 4.325208 0.28524 0.28754 0.26684
vt 0.681248 0.189472
vn 0.000000 1.000000 0.000000
v -0.000000 2.162604 2.162604 0.28524 0.28754 0.26684
vt 0.706255 0.185152
vn 0.000000 1.000000 0.000000
f 472/472/472 473/473/473 474/474/474
v -0.000000 2.162604 2.162604 0.28524 0.28754 0.26684
vt 0.710455 0.180789
vn -0.000000 -1.000000 0.000000
v -2.162604 2.162604 2.162604 0.28524 0.28754 0.26684
vt 0.714924 0.189347
vn -0.000000 -1.000000 0.000000
v -2.162604 2.162604 0.000000 0.28524 0.28754 0.26684
vt 0.735283 0.185863
vn -0.000000 -1.000000 0.000000
f 475/475/475 476/476/476 477/477/477
v -2.162604 2.162604 0.000000 0.28524 0.28754 0.26684
vt 0.735283 0.185863
vn 0.000000 -1.000000 0.000000
v -0.000000 2.162604 0.000000 0.28524 0.28754 0.26684
vt 0.737863 0.176074
vn 0.000000 -1.000000 0.000000
v -0.000000 2.162604 2.162604 0.28524 0.28754 0.26684
vt 0.710455 0.180789
vn 0.000000 -1.000000 0.000000
f 478/478/478 479/479/479 480/480/480
