# Derivative; see ATTRIBUTION.md. Metres, Y up.
v -1.663542 3.327083 -11.644791 0.82273 0.82503 0.80433
vt 0.445165 0.774558
vn 0.000000 1.000000 0.000000
v 0.000000 3.327083 -13.308332 0.82273 0.82503 0.80433
vt 0.451202 0.789789
vn 0.000000 1.000000 0.000000
v -1.663542 3.327083 -13.308332 0.82273 0.82503 0.80433
vt 0.456614 0.776328
vn 0.000000 1.000000 0.000000
f 1/1/1 2/2/2 3/3/3
v 0.000000 3.327083 -13.308332 0.82273 0.82503 0.80433
vt 0.451202 0.789789
vn 0.000000 1.000000 -0.000000
v -1.663542 3.327083 -11.644791 0.82273 0.82503 0.80433
vt 0.445165 0.774558
vn 0.000000 1.000000 -0.000000
v 0.000000 3.327083 -11.644791 0.82273 0.82503 0.80433
vt 0.440825 0.788184
vn 0.000000 1.000000 -0.000000
f 4/4/4 5/5/5 6/6/6
v 0.000000 3.327083 -11.644791 0.26108 0.52005 0.63221
vt 0.332508 0.232152
vn 0.000000 -1.000000 0.000000
v 0.000000 3.327083 -9.981249 0.26108 0.52005 0.63221
vt 0.327718 0.231854
vn 0.000000 -1.000000 0.000000
v -1.663542 3.327083 -9.981249 0.26108 0.52005 0.63221
vt 0.329522 0.226070
vn 0.000000 -1.000000 0.000000
f 7/7/7 8/8/8 9/9/9
v -1.663542 3.327083 -9.981249 0.26108 0.52005 0.63221
vt 0.329522 0.226070
vn 0.000000 -1.000000 0.000000
v -1.663542 3.327083 -11.644791 0.26108 0.52005 0.63221
vt 0.333619 0.226324
vn 0.000000 -1.000000 0.000000
v 0.000000 3.327083 -11.644791 0.26108 0.52005 0.63221
vt 0.332508 0.232152
vn 0.000000 -1.000000 0.000000
f 10/10/10 11/11/11 12/12/12
v -1.663542 3.327083 -9.981249 0.26108 0.52005 0.63221
vt 0.329171 0.225124
vn 0.000000 1.000000 0.000000
v 0.000000 3.327083 -11.644791 0.26108 0.52005 0.63221
vt 0.332162 0.231218
vn 0.000000 1.000000 0.000000
v -1.663542 3.327083 -11.644791 0.26108 0.52005 0.63221
vt 0.333277 0.225379
vn 0.000000 1.000000 0.000000
f 13/13/13 14/14/14 15/15/15
v 0.000000 3.327083 -11.644791 0.26108 0.52005 0.63221
vt 0.332162 0.231218
vn 0.000000 1.000000 -0.000000
v -1.663542 3.327083 -9.981249 0.26108 0.52005 0.63221
vt 0.329171 0.225124
vn 0.000000 1.000000 -0.000000
v 0.000000 3.327083 -9.981249 0.26108 0.52005 0.63221
vt 0.327363 0.230919
vn 0.000000 1.000000 -0.000000
f 16/16/16 17/17/17 18/18/18
v 0.000000 3.327083 -13.308332 0.82273 0.82503 0.80433
vt 0.451317 0.789420
vn 0.000000 -1.000000 0.000000
v 0.000000 3.327083 -11.644791 0.82273 0.82503 0.80433
vt 0.441041 0.787622
vn 0.000000 -1.000000 0.000000
v -1.663542 3.327083 -11.644791 0.82273 0.82503 0.80433
vt 0.445363 0.774047
vn 0.000000 -1.000000 0.000000
f 19/19/19 20/20/20 21/21/21
v -1.663542 3.327083 -11.644791 0.82273 0.82503 0.80433
vt 0.445363 0.774047
vn 0.000000 -1.000000 0.000000
v -1.663542 3.327083 -13.308332 0.82273 0.82503 0.80433
vt 0.456715 0.775992
vn 0.000000 -1.000000 0.000000
v 0.000000 3.327083 -13.308332 0.82273 0.82503 0.80433
vt 0.451317 0.789420
vn 0.000000 -1.000000 0.000000
f 22/22/22 23/23/23 24/24/24
v 0.000000 3.327083 -11.644791 0.82273 0.82503 0.80433
vt 0.440825 0.788184
vn 0.000000 1.000000 0.000000
v 1.663542 3.327083 -13.308332 0.82273 0.82503 0.80433
vt 0.452339 0.804325
vn 0.000000 1.000000 0.000000
v 0.000000 3.327083 -13.308332 0.82273 0.82503 0.80433
vt 0.451202 0.789789
vn 0.000000 1.000000 0.000000
f 25/25/25 26/26/26 27/27/27
v 1.663542 3.327083 -13.308332 0.82273 0.82503 0.80433
vt 0.452339 0.804325
vn 0.000000 1.000000 -0.000000
v 0.000000 3.327083 -11.644791 0.82273 0.82503 0.80433
vt 0.440825 0.788184
vn 0.000000 1.000000 -0.000000
v 1.663542 3.327083 -11.644791 0.82273 0.82503 0.80433
vt 0.440848 0.802544
vn 0.000000 1.000000 -0.000000
f 28/28/28 29/29/29 30/30/30
v 1.663542 3.327083 -11.644791 0.26108 0.52005 0.63221
vt 0.332404 0.238056
vn 0.000000 -1.000000 0.000000
v 1.663542 3.327083 -9.981249 0.26108 0.52005 0.63221
vt 0.328298 0.237801
vn 0.000000 -1.000000 0.000000
v 0.000000 3.327083 -9.981249 0.26108 0.52005 0.63221
vt 0.327718 0.231854
vn 0.000000 -1.000000 0.000000
f 31/31/31 32/32/32 33/33/33
v 0.000000 3.327083 -9.981249 0.26108 0.52005 0.63221
vt 0.327718 0.231854
vn 0.000000 -1.000000 0.000000
v 0.000000 3.327083 -11.644791 0.26108 0.52005 0.63221
vt 0.332508 0.232152
vn 0.000000 -1.000000 0.000000
v 1.663542 3.327083 -11.644791 0.26108 0.52005 0.63221
vt 0.332404 0.238056
vn 0.000000 -1.000000 0.000000
f 34/34/34 35/35/35 36/36/36
v 0.000000 3.327083 -9.981249 0.26108 0.52005 0.63221
vt 0.327363 0.230919
vn 0.000000 1.000000 0.000000
v 1.663542 3.327083 -11.644791 0.26108 0.52005 0.63221
vt 0.332058 0.237133
vn 0.000000 1.000000 0.000000
v 0.000000 3.327083 -11.644791 0.26108 0.52005 0.63221
vt 0.332162 0.231218
vn 0.000000 1.000000 0.000000
f 37/37/37 38/38/38 39/39/39
v 1.663542 3.327083 -11.644791 0.26108 0.52005 0.63221
vt 0.332058 0.237133
vn 0.000000 1.000000 -0.000000
v 0.000000 3.327083 -9.981249 0.26108 0.52005 0.63221
vt 0.327363 0.230919
vn 0.000000 1.000000 -0.000000
v 1.663542 3.327083 -9.981249 0.26108 0.52005 0.63221
vt 0.327943 0.236877
vn 0.000000 1.000000 -0.000000
f 40/40/40 41/41/41 42/42/42
v 1.663542 3.327083 -13.308332 0.82273 0.82503 0.80433
vt 0.452451 0.803920
vn 0.000000 -1.000000 0.000000
v 1.663542 3.327083 -11.644791 0.82273 0.82503 0.80433
vt 0.441063 0.801928
vn 0.000000 -1.000000 0.000000
v 0.000000 3.327083 -11.644791 0.82273 0.82503 0.80433
vt 0.441041 0.787622
vn 0.000000 -1.000000 0.000000
f 43/43/43 44/44/44 45/45/45
v 0.000000 3.327083 -11.644791 0.82273 0.82503 0.80433
vt 0.441041 0.787622
vn 0.000000 -1.000000 0.000000
v 0.000000 3.327083 -13.308332 0.82273 0.82503 0.80433
vt 0.451317 0.789420
vn 0.000000 -1.000000 0.000000
v 1.663542 3.327083 -13.308332 0.82273 0.82503 0.80433
vt 0.452451 0.803920
vn 0.000000 -1.000000 0.000000
f 46/46/46 47/47/47 48/48/48
v 11.644791 3.327083 -1.663542 0.26108 0.52005 0.63221
vt 0.278596 0.286888
vn 0.000000 -1.000000 0.000000
v 13.308332 3.327083 -3.327083 0.26108 0.52005 0.63221
vt 0.280987 0.295726
vn 0.000000 -1.000000 0.000000
v 13.308332 3.327083 -1.663542 0.26108 0.52005 0.63221
vt 0.278899 0.295966
vn 0.000000 -1.000000 0.000000
f 49/49/49 50/50/50 51/51/51
v 6.654166 1.663542 -1.663542 0.82273 0.82503 0.80433
vt 0.306065 0.848278
vn 0.000000 0.000000 -1.000000
v 6.654166 3.327083 -1.663542 0.82273 0.82503 0.80433
vt 0.307697 0.848990
vn 0.000000 0.000000 -1.000000
v 8.317708 3.327083 -1.663542 0.82273 0.82503 0.80433
vt 0.310275 0.873504
vn 0.000000 0.000000 -1.000000
f 52/52/52 53/53/53 54/54/54
v 11.644791 3.327083 -1.663542 0.26108 0.52005 0.63221
vt 0.278195 0.286167
vn -0.000000 1.000000 0.000000
v 13.308332 3.327083 -1.663542 0.26108 0.52005 0.63221
vt 0.278544 0.295343
vn -0.000000 1.000000 0.000000
v 13.308332 3.327083 -3.327083 0.26108 0.52005 0.63221
vt 0.280636 0.295103
vn -0.000000 1.000000 0.000000
f 55/55/55 56/56/56 57/57/57
v 6.654166 1.663542 -1.663542 0.82273 0.82503 0.80433
vt 0.306065 0.848278
vn 0.000000 0.000000 -1.000000
v 8.317708 3.327083 -1.663542 0.82273 0.82503 0.80433
vt 0.308624 0.872749
vn 0.000000 0.000000 -1.000000
v 9.981249 3.327083 -1.663542 0.82273 0.82503 0.80433
vt 0.301822 0.876792
vn 0.000000 0.000000 -1.000000
f 58/58/58 59/59/59 60/60/60
v -13.308332 3.327083 -1.663542 0.26108 0.52005 0.63221
vt 0.293351 0.167783
vn 0.000000 -1.000000 0.000000
v -13.308332 3.327083 -3.327083 0.26108 0.52005 0.63221
vt 0.295308 0.168257
vn 0.000000 -1.000000 0.000000
v -11.644791 3.327083 -1.663542 0.26108 0.52005 0.63221
vt 0.291018 0.176970
vn 0.000000 -1.000000 0.000000
f 61/61/61 62/62/62 63/63/63
v -8.317708 3.327083 -1.663542 0.82273 0.82503 0.80433
vt 0.345602 0.665804
vn 0.000000 0.000000 -1.000000
v -6.654166 3.327083 -1.663542 0.82273 0.82503 0.80433
vt 0.335455 0.686647
vn 0.000000 0.000000 -1.000000
v -6.654166 1.663542 -1.663542 0.82273 0.82503 0.80433
vt 0.333806 0.686255
vn 0.000000 0.000000 -1.000000
f 64/64/64 65/65/65 66/66/66
v -13.308332 3.327083 -1.663542 0.26108 0.52005 0.63221
vt 0.293028 0.166974
vn -0.000000 1.000000 0.000000
v -11.644791 3.327083 -1.663542 0.26108 0.52005 0.63221
vt 0.290647 0.176069
vn -0.000000 1.000000 0.000000
v -13.308332 3.327083 -3.327083 0.26108 0.52005 0.63221
vt 0.294988 0.167449
vn -0.000000 1.000000 0.000000
f 67/67/67 68/68/68 69/69/69
v -9.981249 3.327083 -1.663542 0.82273 0.82503 0.80433
vt 0.338947 0.659846
vn 0.000000 0.000000 -1.000000
v -8.317708 3.327083 -1.663542 0.82273 0.82503 0.80433
vt 0.343931 0.665452
vn 0.000000 0.000000 -1.000000
v -6.654166 1.663542 -1.663542 0.82273 0.82503 0.80433
vt 0.333806 0.686255
vn 0.000000 0.000000 -1.000000
f 70/70/70 71/71/71 72/72/72
v 0.000000 3.327083 0.000000 0.28524 0.28754 0.26684
vt 0.732764 0.170123
vn 0.000000 0.894427 -0.447214
v 1.663542 1.663542 -3.327083 0.28524 0.28754 0.26684
vt 0.775320 0.151778
vn 0.000000 0.894427 -0.447214
v 0.000000 1.663542 -3.327083 0.28524 0.28754 0.26684
vt 0.778108 0.161550
vn 0.000000 0.894427 -0.447214
f 73/73/73 74/74/74 75/75/75
v 1.663542 1.663542 -3.327083 0.28524 0.28754 0.26684
vt 0.775320 0.151778
vn 1.000000 0.000000 0.000000
v 1.663542 3.327083 -1.663542 0.28524 0.28754 0.26684
vt 0.763303 0.145068
vn 1.000000 0.000000 0.000000
v 1.663542 1.663542 -1.663542 0.28524 0.28754 0.26684
vt 0.765342 0.143395
vn 1.000000 0.000000 0.000000
f 76/76/76 77/77/77 78/78/78
v 1.663542 3.327083 0.000000 0.28524 0.28754 0.26684
vt 0.730934 0.160239
vn -1.000000 0.000000 -0.000000
v 1.663542 3.327083 -1.663542 0.28524 0.28754 0.26684
vt 0.763303 0.145068
vn -1.000000 0.000000 -0.000000
v 1.663542 1.663542 -3.327083 0.28524 0.28754 0.26684
vt 0.775320 0.151778
vn -1.000000 0.000000 -0.000000
f 79/79/79 80/80/80 81/81/81
v 1.663542 1.663542 -1.663542 0.28524 0.28754 0.26684
vt 0.767029 0.144051
vn 0.000000 -1.000000 -0.000000
v 0.000000 1.663542 -3.327083 0.28524 0.28754 0.26684
vt 0.777791 0.150664
vn 0.000000 -1.000000 -0.000000
v 1.663542 1.663542 -3.327083 0.28524 0.28754 0.26684
vt 0.779824 0.150049
vn 0.000000 -1.000000 -0.000000
f 82/82/82 83/83/83 84/84/84
v 0.000000 1.663542 0.000000 0.28524 0.28754 0.26684
vt 0.735355 0.157174
vn 0.000000 -1.000000 0.000000
v 0.000000 1.663542 -3.327083 0.28524 0.28754 0.26684
vt 0.777791 0.150664
vn 0.000000 -1.000000 0.000000
v 1.663542 1.663542 -1.663542 0.28524 0.28754 0.26684
vt 0.767029 0.144051
vn 0.000000 -1.000000 0.000000
f 85/85/85 86/86/86 87/87/87
v 1.663542 3.327083 -1.663542 0.28524 0.28754 0.26684
vt 0.763303 0.145068
vn 1.000000 0.000000 0.000000
v 1.663542 1.663542 -0.000000 0.28524 0.28754 0.26684
vt 0.741846 0.145616
vn 1.000000 0.000000 0.000000
v 1.663542 1.663542 -1.663542 0.28524 0.28754 0.26684
vt 0.749148 0.143557
vn 1.000000 0.000000 0.000000
f 88/88/88 89/89/89 90/90/90
v -1.663542 3.327083 -13.308332 0.82273 0.82503 0.80433
vt 0.456614 0.776328
vn 1.000000 0.000000 0.000000
v -1.663542 4.990625 -13.308332 0.82273 0.82503 0.80433
vt 0.450805 0.765488
vn 1.000000 0.000000 0.000000
v -1.663542 3.327083 -11.644791 0.82273 0.82503 0.80433
vt 0.445165 0.774558
vn 1.000000 0.000000 0.000000
f 91/91/91 92/92/92 93/93/93
v -1.663542 3.327083 -13.308332 0.26108 0.52005 0.63221
vt 0.345846 0.220810
vn 0.000000 0.000000 -1.000000
v -4.990625 4.990625 -13.308332 0.26108 0.52005 0.63221
vt 0.349210 0.209654
vn 0.000000 0.000000 -1.000000
v -1.663542 4.990625 -13.308332 0.26108 0.52005 0.63221
vt 0.345770 0.220583
vn 0.000000 0.000000 -1.000000
f 94/94/94 95/95/95 96/96/96
v -1.663542 4.990625 -13.308332 0.26108 0.52005 0.63221
vt 0.340867 0.221492
vn 0.000000 0.707107 0.707107
v -4.990625 4.990625 -13.308332 0.26108 0.52005 0.63221
vt 0.344656 0.209421
vn 0.000000 0.707107 0.707107
v -1.663542 3.327083 -11.644791 0.26108 0.52005 0.63221
vt 0.336020 0.222563
vn 0.000000 0.707107 0.707107
f 97/97/97 98/98/98 99/99/99
v -1.663542 3.327083 -13.308332 0.26108 0.52005 0.63221
vt 0.341116 0.222218
vn -0.447214 -0.894427 0.000000
v -1.663542 3.327083 -11.644791 0.26108 0.52005 0.63221
vt 0.336291 0.223330
vn -0.447214 -0.894427 0.000000
v -4.990625 4.990625 -13.308332 0.26108 0.52005 0.63221
vt 0.344794 0.209844
vn -0.447214 -0.894427 0.000000
f 100/100/100 101/101/101 102/102/102
v 1.663542 3.327083 -11.644791 0.82273 0.82503 0.80433
vt 0.440848 0.802544
vn -1.000000 0.000000 0.000000
v 1.663542 4.990625 -13.308332 0.82273 0.82503 0.80433
vt 0.453378 0.817879
vn -1.000000 0.000000 0.000000
v 1.663542 3.327083 -13.308332 0.82273 0.82503 0.80433
vt 0.452339 0.804325
vn -1.000000 0.000000 0.000000
f 103/103/103 104/104/104 105/105/105
v 1.663542 4.990625 -13.308332 0.26108 0.52005 0.63221
vt 0.343487 0.243125
vn 0.000000 0.000000 -1.000000
v 4.990625 4.990625 -13.308332 0.26108 0.52005 0.63221
vt 0.344844 0.253685
vn 0.000000 0.000000 -1.000000
v 1.663542 3.327083 -13.308332 0.26108 0.52005 0.63221
vt 0.343564 0.243342
vn 0.000000 0.000000 -1.000000
f 106/106/106 107/107/107 108/108/108
v 1.663542 3.327083 -11.644791 0.26108 0.52005 0.63221
vt 0.334203 0.240169
vn 0.000000 0.707107 0.707107
v 4.990625 4.990625 -13.308332 0.26108 0.52005 0.63221
vt 0.342505 0.253444
vn 0.000000 0.707107 0.707107
v 1.663542 4.990625 -13.308332 0.26108 0.52005 0.63221
vt 0.338815 0.241569
vn 0.000000 0.707107 0.707107
f 109/109/109 110/110/110 111/111/111
v 1.663542 3.327083 -11.644791 0.26108 0.52005 0.63221
vt 0.334479 0.240909
vn 0.447214 -0.894427 0.000000
v 1.663542 3.327083 -13.308332 0.26108 0.52005 0.63221
vt 0.339068 0.242266
vn 0.447214 -0.894427 0.000000
v 4.990625 4.990625 -13.308332 0.26108 0.52005 0.63221
vt 0.342633 0.253796
vn 0.447214 -0.894427 0.000000
f 112/112/112 113/113/113 114/114/114
v 1.663542 1.663542 -6.654166 0.28524 0.28754 0.26684
vt 0.825471 0.244123
vn 0.000000 -1.000000 0.000000
v 1.663542 1.663542 -4.990625 0.28524 0.28754 0.26684
vt 0.813496 0.244022
vn 0.000000 -1.000000 0.000000
v 0.000000 1.663542 -4.990625 0.28524 0.28754 0.26684
vt 0.812889 0.239882
vn 0.000000 -1.000000 0.000000
f 115/115/115 116/116/116 117/117/117
v 0.000000 1.663542 -4.990625 0.28524 0.28754 0.26684
vt 0.812889 0.239882
vn 0.000000 -1.000000 0.000000
v 0.000000 1.663542 -6.654166 0.28524 0.28754 0.26684
vt 0.824840 0.240092
vn 0.000000 -1.000000 0.000000
v 1.663542 1.663542 -6.654166 0.28524 0.28754 0.26684
vt 0.825471 0.244123
vn 0.000000 -1.000000 0.000000
f 118/118/118 119/119/119 120/120/120
v 1.663542 3.327083 -6.654166 0.26108 0.52005 0.63221
vt 0.309956 0.239862
vn 1.000000 0.000000 -0.000000
v 1.663542 3.327083 -4.990625 0.26108 0.52005 0.63221
vt 0.302810 0.239976
vn 1.000000 0.000000 -0.000000
v 1.663542 1.663542 -4.990625 0.26108 0.52005 0.63221
vt 0.303627 0.240819
vn 1.000000 0.000000 -0.000000
f 121/121/121 122/122/122 123/123/123
v 1.663542 1.663542 -4.990625 0.26108 0.52005 0.63221
vt 0.303627 0.240819
vn 1.000000 0.000000 0.000000
v 1.663542 1.663542 -6.654166 0.26108 0.52005 0.63221
vt 0.310725 0.240683
vn 1.000000 0.000000 0.000000
v 1.663542 3.327083 -6.654166 0.26108 0.52005 0.63221
vt 0.309956 0.239862
vn 1.000000 0.000000 0.000000
f 124/124/124 125/125/125 126/126/126
v -0.000000 1.663542 -6.654166 0.28524 0.28754 0.26684
vt 0.825064 0.234492
vn 0.000000 -1.000000 0.000000
v -0.000000 1.663542 -4.990625 0.28524 0.28754 0.26684
vt 0.813129 0.234130
vn 0.000000 -1.000000 0.000000
v -1.663542 1.663542 -4.990625 0.28524 0.28754 0.26684
vt 0.814168 0.227866
vn 0.000000 -1.000000 0.000000
f 127/127/127 128/128/128 129/129/129
v -1.663542 1.663542 -4.990625 0.28524 0.28754 0.26684
vt 0.814168 0.227866
vn 0.000000 -1.000000 0.000000
v -1.663542 1.663542 -6.654166 0.28524 0.28754 0.26684
vt 0.826096 0.228394
vn 0.000000 -1.000000 0.000000
v -0.000000 1.663542 -6.654166 0.28524 0.28754 0.26684
vt 0.825064 0.234492
vn 0.000000 -1.000000 0.000000
f 130/130/130 131/131/131 132/132/132
v 1.663542 4.990625 -6.654166 0.26108 0.52005 0.63221
vt 0.309036 0.233949
vn 1.000000 0.000000 -0.000000
v 1.663542 4.990625 -4.990625 0.26108 0.52005 0.63221
vt 0.301820 0.233897
vn 1.000000 0.000000 -0.000000
v 1.663542 3.327083 -4.990625 0.26108 0.52005 0.63221
vt 0.302164 0.237509
vn 1.000000 0.000000 -0.000000
f 133/133/133 134/134/134 135/135/135
v 1.663542 3.327083 -4.990625 0.26108 0.52005 0.63221
vt 0.302164 0.237509
vn 1.000000 0.000000 0.000000
v 1.663542 3.327083 -6.654166 0.26108 0.52005 0.63221
vt 0.309353 0.237462
vn 1.000000 0.000000 0.000000
v 1.663542 4.990625 -6.654166 0.26108 0.52005 0.63221
vt 0.309036 0.233949
vn 1.000000 0.000000 0.000000
f 136/136/136 137/137/137 138/138/138
v -1.663542 3.327083 -6.654166 0.26108 0.52005 0.63221
vt 0.311660 0.224078
vn -1.000000 0.000000 0.000000
v -1.663542 1.663542 -4.990625 0.26108 0.52005 0.63221
vt 0.305217 0.226250
vn -1.000000 0.000000 0.000000
v -1.663542 3.327083 -4.990625 0.26108 0.52005 0.63221
vt 0.304584 0.223750
vn -1.000000 0.000000 0.000000
f 139/139/139 140/140/140 141/141/141
v -1.663542 1.663542 -4.990625 0.26108 0.52005 0.63221
vt 0.305217 0.226250
vn -1.000000 0.000000 0.000000
v -1.663542 3.327083 -6.654166 0.26108 0.52005 0.63221
vt 0.311660 0.224078
vn -1.000000 0.000000 0.000000
v -1.663542 1.663542 -6.654166 0.26108 0.52005 0.63221
vt 0.312252 0.226508
vn -1.000000 0.000000 0.000000
f 142/142/142 143/143/143 144/144/144
v 1.663542 4.990625 -6.654166 0.26108 0.52005 0.63221
vt 0.309036 0.233949
vn 0.000000 1.000000 -0.000000
v 0.000000 4.990625 -4.990625 0.26108 0.52005 0.63221
vt 0.301850 0.229864
vn 0.000000 1.000000 -0.000000
v 1.663542 4.990625 -4.990625 0.26108 0.52005 0.63221
vt 0.301820 0.233897
vn 0.000000 1.000000 -0.000000
f 145/145/145 146/146/146 147/147/147
v 0.000000 4.990625 -4.990625 0.26108 0.52005 0.63221
vt 0.301850 0.229864
vn 0.000000 1.000000 0.000000
v 1.663542 4.990625 -6.654166 0.26108 0.52005 0.63221
vt 0.309036 0.233949
vn 0.000000 1.000000 0.000000
v 0.000000 4.990625 -6.654166 0.26108 0.52005 0.63221
vt 0.305997 0.229758
vn 0.000000 1.000000 0.000000
f 148/148/148 149/149/149 150/150/150
v -1.663542 4.990625 -6.654166 0.26108 0.52005 0.63221
vt 0.310107 0.224049
vn -1.000000 0.000000 0.000000
v -1.663542 3.327083 -4.990625 0.26108 0.52005 0.63221
vt 0.303770 0.222840
vn -1.000000 0.000000 0.000000
v -1.663542 4.990625 -4.990625 0.26108 0.52005 0.63221
vt 0.302935 0.223719
vn -1.000000 0.000000 0.000000
f 151/151/151 152/152/152 153/153/153
v -1.663542 3.327083 -4.990625 0.26108 0.52005 0.63221
vt 0.303770 0.222840
vn -1.000000 0.000000 0.000000
v -1.663542 4.990625 -6.654166 0.26108 0.52005 0.63221
vt 0.310107 0.224049
vn -1.000000 0.000000 0.000000
v -1.663542 3.327083 -6.654166 0.26108 0.52005 0.63221
vt 0.310895 0.223194
vn -1.000000 0.000000 0.000000
f 154/154/154 155/155/155 156/156/156
v -0.000000 4.990625 -6.654166 0.26108 0.52005 0.63221
vt 0.306366 0.226373
vn 0.000000 1.000000 -0.000000
v -1.663542 4.990625 -4.990625 0.26108 0.52005 0.63221
vt 0.302935 0.223719
vn 0.000000 1.000000 -0.000000
v -0.000000 4.990625 -4.990625 0.26108 0.52005 0.63221
vt 0.302249 0.226225
vn 0.000000 1.000000 -0.000000
f 157/157/157 158/158/158 159/159/159
v -1.663542 4.990625 -4.990625 0.26108 0.52005 0.63221
vt 0.302935 0.223719
vn 0.000000 1.000000 0.000000
v -0.000000 4.990625 -6.654166 0.26108 0.52005 0.63221
vt 0.306366 0.226373
vn 0.000000 1.000000 0.000000
v -1.663542 4.990625 -6.654166 0.26108 0.52005 0.63221
vt 0.310107 0.224049
vn 0.000000 1.000000 0.000000
f 160/160/160 161/161/161 162/162/162
v 1.663542 1.663542 -9.981249 0.28524 0.28754 0.26684
vt 0.847572 0.243268
vn 0.000000 -1.000000 0.000000
v 1.663542 1.663542 -6.654166 0.28524 0.28754 0.26684
vt 0.825471 0.244123
vn 0.000000 -1.000000 0.000000
v 0.000000 1.663542 -6.654166 0.28524 0.28754 0.26684
vt 0.824840 0.240092
vn 0.000000 -1.000000 0.000000
f 163/163/163 164/164/164 165/165/165
v 0.000000 1.663542 -6.654166 0.28524 0.28754 0.26684
vt 0.824840 0.240092
vn 0.000000 -1.000000 0.000000
v 0.000000 1.663542 -9.981249 0.28524 0.28754 0.26684
vt 0.847023 0.239593
vn 0.000000 -1.000000 0.000000
v 1.663542 1.663542 -9.981249 0.28524 0.28754 0.26684
vt 0.847572 0.243268
vn 0.000000 -1.000000 0.000000
f 166/166/166 167/167/167 168/168/168
v 1.663542 1.663542 -6.654166 0.28524 0.28754 0.26684
vt 0.825471 0.244123
vn 1.000000 0.000000 0.000000
v 1.663542 1.663542 -9.981249 0.28524 0.28754 0.26684
vt 0.847572 0.243268
vn 1.000000 0.000000 0.000000
v 1.663542 3.327083 -9.981249 0.28524 0.28754 0.26684
vt 0.848751 0.244911
vn 1.000000 0.000000 0.000000
f 169/169/169 170/170/170 171/171/171
v 1.663542 3.327083 -9.981249 0.26108 0.52005 0.63221
vt 0.322898 0.239217
vn 1.000000 0.000000 -0.000000
v 1.663542 3.327083 -6.654166 0.26108 0.52005 0.63221
vt 0.309956 0.239862
vn 1.000000 0.000000 -0.000000
v 1.663542 1.663542 -6.654166 0.26108 0.52005 0.63221
vt 0.310725 0.240683
vn 1.000000 0.000000 -0.000000
f 172/172/172 173/173/173 174/174/174
v -0.000000 1.663542 -9.981249 0.28524 0.28754 0.26684
vt 0.847205 0.234608
vn 0.000000 -1.000000 0.000000
v -0.000000 1.663542 -6.654166 0.28524 0.28754 0.26684
vt 0.825064 0.234492
vn 0.000000 -1.000000 0.000000
v -1.663542 1.663542 -6.654166 0.28524 0.28754 0.26684
vt 0.826096 0.228394
vn 0.000000 -1.000000 0.000000
f 175/175/175 176/176/176 177/177/177
v -1.663542 1.663542 -6.654166 0.28524 0.28754 0.26684
vt 0.826096 0.228394
vn 0.000000 -1.000000 0.000000
v -1.663542 1.663542 -9.981249 0.28524 0.28754 0.26684
vt 0.848081 0.229275
vn 0.000000 -1.000000 0.000000
v -0.000000 1.663542 -9.981249 0.28524 0.28754 0.26684
vt 0.847205 0.234608
vn 0.000000 -1.000000 0.000000
f 178/178/178 179/179/179 180/180/180
v -1.663542 1.663542 -6.654166 0.28524 0.28754 0.26684
vt 0.826096 0.228394
vn -1.000000 0.000000 0.000000
v -1.663542 3.327083 -9.981249 0.28524 0.28754 0.26684
vt 0.849485 0.224620
vn -1.000000 0.000000 0.000000
v -1.663542 1.663542 -9.981249 0.28524 0.28754 0.26684
vt 0.848081 0.229275
vn -1.000000 0.000000 0.000000
f 181/181/181 182/182/182 183/183/183
v 1.663542 4.990625 -9.981249 0.26108 0.52005 0.63221
vt 0.322252 0.234231
vn 1.000000 0.000000 -0.000000
v 1.663542 4.990625 -6.654166 0.26108 0.52005 0.63221
vt 0.309036 0.233949
vn 1.000000 0.000000 -0.000000
v 1.663542 3.327083 -6.654166 0.26108 0.52005 0.63221
vt 0.309353 0.237462
vn 1.000000 0.000000 -0.000000
f 184/184/184 185/185/185 186/186/186
v 1.663542 3.327083 -6.654166 0.26108 0.52005 0.63221
vt 0.309353 0.237462
vn 1.000000 0.000000 0.000000
v 1.663542 3.327083 -9.981249 0.26108 0.52005 0.63221
vt 0.322459 0.237230
vn 1.000000 0.000000 0.000000
v 1.663542 4.990625 -9.981249 0.26108 0.52005 0.63221
vt 0.322252 0.234231
vn 1.000000 0.000000 0.000000
f 187/187/187 188/188/188 189/189/189
v -1.663542 3.327083 -9.981249 0.26108 0.52005 0.63221
vt 0.324374 0.225216
vn -1.000000 0.000000 0.000000
v -1.663542 1.663542 -6.654166 0.26108 0.52005 0.63221
vt 0.312252 0.226508
vn -1.000000 0.000000 0.000000
v -1.663542 3.327083 -6.654166 0.26108 0.52005 0.63221
vt 0.311660 0.224078
vn -1.000000 0.000000 0.000000
f 190/190/190 191/191/191 192/192/192
v 1.663542 4.990625 -9.981249 0.26108 0.52005 0.63221
vt 0.322252 0.234231
vn 0.000000 1.000000 -0.000000
v 0.000000 4.990625 -6.654166 0.26108 0.52005 0.63221
vt 0.305997 0.229758
vn 0.000000 1.000000 -0.000000
v 1.663542 4.990625 -6.654166 0.26108 0.52005 0.63221
vt 0.309036 0.233949
vn 0.000000 1.000000 -0.000000
f 193/193/193 194/194/194 195/195/195
v 0.000000 4.990625 -6.654166 0.26108 0.52005 0.63221
vt 0.305997 0.229758
vn 0.000000 1.000000 0.000000
v 1.663542 4.990625 -9.981249 0.26108 0.52005 0.63221
vt 0.322252 0.234231
vn 0.000000 1.000000 0.000000
v 0.000000 4.990625 -9.981249 0.26108 0.52005 0.63221
vt 0.328153 0.230984
vn 0.000000 1.000000 0.000000
f 196/196/196 197/197/197 198/198/198
v -1.663542 4.990625 -9.981249 0.26108 0.52005 0.63221
vt 0.323179 0.225460
vn -1.000000 0.000000 0.000000
v -1.663542 3.327083 -6.654166 0.26108 0.52005 0.63221
vt 0.310895 0.223194
vn -1.000000 0.000000 0.000000
v -1.663542 4.990625 -6.654166 0.26108 0.52005 0.63221
vt 0.310107 0.224049
vn -1.000000 0.000000 0.000000
f 199/199/199 200/200/200 201/201/201
v -1.663542 3.327083 -6.654166 0.26108 0.52005 0.63221
vt 0.310895 0.223194
vn -1.000000 0.000000 0.000000
v -1.663542 4.990625 -9.981249 0.26108 0.52005 0.63221
vt 0.323179 0.225460
vn -1.000000 0.000000 0.000000
v -1.663542 3.327083 -9.981249 0.26108 0.52005 0.63221
vt 0.323793 0.224581
vn -1.000000 0.000000 0.000000
f 202/202/202 203/203/203 204/204/204
v -0.000000 4.990625 -9.981249 0.26108 0.52005 0.63221
vt 0.328412 0.228510
vn 0.000000 1.000000 -0.000000
v -1.663542 4.990625 -6.654166 0.26108 0.52005 0.63221
vt 0.310107 0.224049
vn 0.000000 1.000000 -0.000000
v -0.000000 4.990625 -6.654166 0.26108 0.52005 0.63221
vt 0.306366 0.226373
vn 0.000000 1.000000 -0.000000
f 205/205/205 206/206/206 207/207/207
v -1.663542 4.990625 -6.654166 0.26108 0.52005 0.63221
vt 0.310107 0.224049
vn 0.000000 1.000000 0.000000
v -0.000000 4.990625 -9.981249 0.26108 0.52005 0.63221
vt 0.328412 0.228510
vn 0.000000 1.000000 0.000000
v -1.663542 4.990625 -9.981249 0.26108 0.52005 0.63221
vt 0.323179 0.225460
vn 0.000000 1.000000 0.000000
f 208/208/208 209/209/209 210/210/210
v 0.000000 3.327083 -11.644791 0.28524 0.28754 0.26684
vt 0.864029 0.241208
vn 0.000000 -0.707107 -0.707107
v 1.663542 1.663542 -9.981249 0.28524 0.28754 0.26684
vt 0.847572 0.243268
vn 0.000000 -0.707107 -0.707107
v 0.000000 1.663542 -9.981249 0.28524 0.28754 0.26684
vt 0.847023 0.239593
vn 0.000000 -0.707107 -0.707107
f 211/211/211 212/212/212 213/213/213
v 1.663542 3.327083 -11.644791 0.28524 0.28754 0.26684
vt 0.865031 0.242263
vn 1.000000 0.000000 -0.000000
v 1.663542 3.327083 -9.981249 0.28524 0.28754 0.26684
vt 0.848751 0.244911
vn 1.000000 0.000000 -0.000000
v 1.663542 1.663542 -9.981249 0.28524 0.28754 0.26684
vt 0.847572 0.243268
vn 1.000000 0.000000 -0.000000
f 214/214/214 215/215/215 216/216/216
v 1.663542 1.663542 -9.981249 0.28524 0.28754 0.26684
vt 0.847572 0.243268
vn 0.000000 -0.707107 -0.707107
v 0.000000 3.327083 -11.644791 0.28524 0.28754 0.26684
vt 0.864029 0.241208
vn 0.000000 -0.707107 -0.707107
v 1.663542 3.327083 -11.644791 0.28524 0.28754 0.26684
vt 0.865031 0.242263
vn 0.000000 -0.707107 -0.707107
f 217/217/217 218/218/218 219/219/219
v -0.000000 3.327083 -11.644791 0.28524 0.28754 0.26684
vt 0.863666 0.235054
vn 0.000000 -0.707107 -0.707107
v -0.000000 1.663542 -9.981249 0.28524 0.28754 0.26684
vt 0.847205 0.234608
vn 0.000000 -0.707107 -0.707107
v -1.663542 1.663542 -9.981249 0.28524 0.28754 0.26684
vt 0.848081 0.229275
vn 0.000000 -0.707107 -0.707107
f 220/220/220 221/221/221 222/222/222
v -1.663542 3.327083 -11.644791 0.28524 0.28754 0.26684
vt 0.865521 0.227698
vn -1.000000 0.000000 0.000000
v -1.663542 1.663542 -9.981249 0.28524 0.28754 0.26684
vt 0.848081 0.229275
vn -1.000000 0.000000 0.000000
v -1.663542 3.327083 -9.981249 0.28524 0.28754 0.26684
vt 0.849485 0.224620
vn -1.000000 0.000000 0.000000
f 223/223/223 224/224/224 225/225/225
v -1.663542 1.663542 -9.981249 0.28524 0.28754 0.26684
vt 0.848081 0.229275
vn 0.000000 -0.707107 -0.707107
v -1.663542 3.327083 -11.644791 0.28524 0.28754 0.26684
vt 0.865521 0.227698
vn 0.000000 -0.707107 -0.707107
v -0.000000 3.327083 -11.644791 0.28524 0.28754 0.26684
vt 0.864370 0.231156
vn 0.000000 -0.707107 -0.707107
f 226/226/226 227/227/227 228/228/228
v 0.000000 4.990625 -11.644791 0.26108 0.52005 0.63221
vt 0.332042 0.233637
vn 0.707107 0.000000 -0.707107
v 1.663542 4.990625 -9.981249 0.26108 0.52005 0.63221
vt 0.322252 0.234231
vn 0.707107 0.000000 -0.707107
v 1.663542 3.327083 -9.981249 0.26108 0.52005 0.63221
vt 0.322459 0.237230
vn 0.707107 0.000000 -0.707107
f 229/229/229 230/230/230 231/231/231
v 1.663542 3.327083 -9.981249 0.26108 0.52005 0.63221
vt 0.322459 0.237230
vn 0.707107 0.707107 0.000000
v 1.663542 3.327083 -11.644791 0.26108 0.52005 0.63221
vt 0.332206 0.235867
vn 0.707107 0.707107 0.000000
v 0.000000 4.990625 -11.644791 0.26108 0.52005 0.63221
vt 0.332042 0.233637
vn 0.707107 0.707107 0.000000
f 232/232/232 233/233/233 234/234/234
v 0.000000 4.990625 -11.644791 0.26108 0.52005 0.63221
vt 0.332042 0.233637
vn 0.000000 1.000000 0.000000
v 0.000000 4.990625 -9.981249 0.26108 0.52005 0.63221
vt 0.328153 0.230984
vn 0.000000 1.000000 0.000000
v 1.663542 4.990625 -9.981249 0.26108 0.52005 0.63221
vt 0.322252 0.234231
vn 0.000000 1.000000 0.000000
f 235/235/235 236/236/236 237/237/237
v -0.000000 4.990625 -11.644791 0.26108 0.52005 0.63221
vt 0.332693 0.227357
vn -0.707107 0.000000 -0.707107
v -1.663542 3.327083 -9.981249 0.26108 0.52005 0.63221
vt 0.323793 0.224581
vn -0.707107 0.000000 -0.707107
v -1.663542 4.990625 -9.981249 0.26108 0.52005 0.63221
vt 0.323179 0.225460
vn -0.707107 0.000000 -0.707107
f 238/238/238 239/239/239 240/240/240
v -1.663542 3.327083 -9.981249 0.26108 0.52005 0.63221
vt 0.323793 0.224581
vn -0.707107 0.707107 0.000000
v -0.000000 4.990625 -11.644791 0.26108 0.52005 0.63221
vt 0.332693 0.227357
vn -0.707107 0.707107 0.000000
v -1.663542 3.327083 -11.644791 0.26108 0.52005 0.63221
vt 0.333145 0.226807
vn -0.707107 0.707107 0.000000
f 241/241/241 242/242/242 243/243/243
v -0.000000 4.990625 -11.644791 0.26108 0.52005 0.63221
vt 0.332312 0.228907
vn 0.000000 1.000000 -0.000000
v -1.663542 4.990625 -9.981249 0.26108 0.52005 0.63221
vt 0.323179 0.225460
vn 0.000000 1.000000 -0.000000
v -0.000000 4.990625 -9.981249 0.26108 0.52005 0.63221
vt 0.328412 0.228510
vn 0.000000 1.000000 -0.000000
f 244/244/244 245/245/245 246/246/246
v 0.000000 3.327083 -14.971874 0.26108 0.52005 0.63221
vt 0.350093 0.234346
vn 0.000000 -1.000000 0.000000
v 1.663542 3.327083 -13.308332 0.26108 0.52005 0.63221
vt 0.339463 0.236547
vn 0.000000 -1.000000 0.000000
v 0.000000 3.327083 -13.308332 0.26108 0.52005 0.63221
vt 0.339804 0.236980
vn 0.000000 -1.000000 0.000000
f 247/247/247 248/248/248 249/249/249
v 0.000000 3.327083 -14.971874 0.26108 0.52005 0.63221
vt 0.349851 0.233844
vn 0.000000 1.000000 0.000000
v 0.000000 3.327083 -13.308332 0.26108 0.52005 0.63221
vt 0.339203 0.235298
vn 0.000000 1.000000 0.000000
v 1.663542 3.327083 -13.308332 0.26108 0.52005 0.63221
vt 0.339463 0.236547
vn 0.000000 1.000000 0.000000
f 250/250/250 251/251/251 252/252/252
v 0.000000 4.990625 -14.971874 0.26108 0.52005 0.63221
vt 0.349689 0.233118
vn 1.000000 0.000000 -0.000000
v 0.000000 4.990625 -13.308332 0.26108 0.52005 0.63221
vt 0.339078 0.233478
vn 1.000000 0.000000 -0.000000
v 0.000000 3.327083 -13.308332 0.26108 0.52005 0.63221
vt 0.339203 0.235298
vn 1.000000 0.000000 -0.000000
f 253/253/253 254/254/254 255/255/255
v 0.000000 3.327083 -13.308332 0.26108 0.52005 0.63221
vt 0.339203 0.235298
vn 1.000000 0.000000 0.000000
v 0.000000 3.327083 -14.971874 0.26108 0.52005 0.63221
vt 0.349851 0.233844
vn 1.000000 0.000000 0.000000
v 0.000000 4.990625 -14.971874 0.26108 0.52005 0.63221
vt 0.349689 0.233118
vn 1.000000 0.000000 0.000000
f 256/256/256 257/257/257 258/258/258
v -0.000000 3.327083 -14.971874 0.26108 0.52005 0.63221
vt 0.350420 0.231080
vn 0.000000 -1.000000 0.000000
v -0.000000 3.327083 -13.308332 0.26108 0.52005 0.63221
vt 0.340557 0.229609
vn 0.000000 -1.000000 0.000000
v -1.663542 3.327083 -13.308332 0.26108 0.52005 0.63221
vt 0.340301 0.228352
vn 0.000000 -1.000000 0.000000
f 259/259/259 260/260/260 261/261/261
v -0.000000 3.327083 -14.971874 0.26108 0.52005 0.63221
vt 0.350146 0.230901
vn 0.000000 1.000000 -0.000000
v -1.663542 3.327083 -13.308332 0.26108 0.52005 0.63221
vt 0.340301 0.228352
vn 0.000000 1.000000 -0.000000
v -0.000000 3.327083 -13.308332 0.26108 0.52005 0.63221
vt 0.339960 0.227902
vn 0.000000 1.000000 -0.000000
f 262/262/262 263/263/263 264/264/264
v -0.000000 4.990625 -14.971874 0.26108 0.52005 0.63221
vt 0.349894 0.231080
vn -1.000000 0.000000 0.000000
v -0.000000 3.327083 -13.308332 0.26108 0.52005 0.63221
vt 0.339960 0.227902
vn -1.000000 0.000000 0.000000
v -0.000000 4.990625 -13.308332 0.26108 0.52005 0.63221
vt 0.339603 0.228353
vn -1.000000 0.000000 0.000000
f 265/265/265 266/266/266 267/267/267
v -0.000000 3.327083 -13.308332 0.26108 0.52005 0.63221
vt 0.339960 0.227902
vn -1.000000 0.000000 0.000000
v -0.000000 4.990625 -14.971874 0.26108 0.52005 0.63221
vt 0.349894 0.231080
vn -1.000000 0.000000 0.000000
v -0.000000 3.327083 -14.971874 0.26108 0.52005 0.63221
vt 0.350146 0.230901
vn -1.000000 0.000000 0.000000
f 268/268/268 269/269/269 270/270/270
v 0.000000 8.317708 -9.981249 0.26108 0.52005 0.63221
vt 0.326124 0.223541
vn 1.000000 0.000000 0.000000
v 0.000000 4.990625 -8.317708 0.26108 0.52005 0.63221
vt 0.315791 0.229304
vn 1.000000 0.000000 0.000000
v 0.000000 4.990625 -11.644791 0.26108 0.52005 0.63221
vt 0.330497 0.229912
vn 1.000000 0.000000 0.000000
f 271/271/271 272/272/272 273/273/273
v 0.000000 4.990625 -11.644791 0.26108 0.52005 0.63221
vt 0.330497 0.229912
vn 1.000000 0.000000 0.000000
v 0.000000 8.317708 -11.644791 0.26108 0.52005 0.63221
vt 0.335237 0.223857
vn 1.000000 0.000000 0.000000
v 0.000000 8.317708 -9.981249 0.26108 0.52005 0.63221
vt 0.326124 0.223541
vn 1.000000 0.000000 0.000000
f 274/274/274 275/275/275 276/276/276
v -0.000000 8.317708 -9.981249 0.26108 0.52005 0.63221
vt 0.326405 0.220860
vn -1.000000 -0.000000 0.000000
v -0.000000 4.990625 -11.644791 0.26108 0.52005 0.63221
vt 0.330737 0.227606
vn -1.000000 -0.000000 0.000000
v -0.000000 4.990625 -8.317708 0.26108 0.52005 0.63221
vt 0.316122 0.226205
vn -1.000000 -0.000000 0.000000
f 277/277/277 278/278/278 279/279/279
v -0.000000 4.990625 -11.644791 0.26108 0.52005 0.63221
vt 0.330737 0.227606
vn -1.000000 0.000000 0.000000
v -0.000000 8.317708 -9.981249 0.26108 0.52005 0.63221
vt 0.326405 0.220860
vn -1.000000 0.000000 0.000000
v -0.000000 8.317708 -11.644791 0.26108 0.52005 0.63221
vt 0.335443 0.221862
vn -1.000000 0.000000 0.000000
f 280/280/280 281/281/281 282/282/282
v 0.000000 8.317708 -13.308332 0.26108 0.52005 0.63221
vt 0.336481 0.223727
vn 1.000000 0.000000 -0.000000
v 0.000000 8.317708 -11.644791 0.26108 0.52005 0.63221
vt 0.335237 0.223857
vn 1.000000 0.000000 -0.000000
v 0.000000 4.990625 -11.644791 0.26108 0.52005 0.63221
vt 0.330497 0.229912
vn 1.000000 0.000000 -0.000000
f 283/283/283 284/284/284 285/285/285
v -0.000000 4.990625 -11.644791 0.82273 0.82503 0.80433
vt 0.432822 0.786655
vn -1.000000 0.000000 0.000000
v -0.000000 8.317708 -13.308332 0.82273 0.82503 0.80433
vt 0.453322 0.796233
vn -1.000000 0.000000 0.000000
v -0.000000 4.990625 -13.308332 0.82273 0.82503 0.80433
vt 0.446717 0.789985
vn -1.000000 0.000000 0.000000
f 286/286/286 287/287/287 288/288/288
v 0.000000 9.981249 -11.644791 0.26108 0.52005 0.63221
vt 0.331104 0.220180
vn 1.000000 0.000000 0.000000
v 0.000000 8.317708 -9.981249 0.26108 0.52005 0.63221
vt 0.326124 0.223541
vn 1.000000 0.000000 0.000000
v 0.000000 8.317708 -11.644791 0.26108 0.52005 0.63221
vt 0.335237 0.223857
vn 1.000000 0.000000 0.000000
f 289/289/289 290/290/290 291/291/291
v 0.000000 8.317708 -11.644791 0.26108 0.52005 0.63221
vt 0.335237 0.223857
vn 1.000000 -0.000000 0.000000
v 0.000000 9.981249 -13.308332 0.26108 0.52005 0.63221
vt 0.337579 0.220426
vn 1.000000 -0.000000 0.000000
v 0.000000 9.981249 -11.644791 0.26108 0.52005 0.63221
vt 0.331104 0.220180
vn 1.000000 -0.000000 0.000000
f 292/292/292 293/293/293 294/294/294
v -0.000000 9.981249 -11.644791 0.26108 0.52005 0.63221
vt 0.331309 0.218215
vn -1.000000 0.000000 0.000000
v -0.000000 8.317708 -11.644791 0.26108 0.52005 0.63221
vt 0.335443 0.221862
vn -1.000000 0.000000 0.000000
v -0.000000 8.317708 -9.981249 0.26108 0.52005 0.63221
vt 0.326405 0.220860
vn -1.000000 0.000000 0.000000
f 295/295/295 296/296/296 297/297/297
v -0.000000 8.317708 -11.644791 0.26108 0.52005 0.63221
vt 0.335443 0.221862
vn -1.000000 0.000000 0.000000
v -0.000000 9.981249 -11.644791 0.26108 0.52005 0.63221
vt 0.331309 0.218215
vn -1.000000 0.000000 0.000000
v -0.000000 9.981249 -13.308332 0.26108 0.52005 0.63221
vt 0.337729 0.218964
vn -1.000000 0.000000 0.000000
f 298/298/298 299/299/299 300/300/300
v 0.000000 8.317708 -11.644791 0.26108 0.52005 0.63221
vt 0.335237 0.223857
vn 1.000000 0.000000 0.000000
v 0.000000 8.317708 -13.308332 0.26108 0.52005 0.63221
vt 0.336481 0.223727
vn 1.000000 0.000000 0.000000
v 0.000000 9.981249 -13.308332 0.26108 0.52005 0.63221
vt 0.338464 0.220336
vn 1.000000 0.000000 0.000000
f 301/301/301 302/302/302 303/303/303
v 0.000000 3.327083 -13.308332 0.28524 0.28754 0.26684
vt 0.876903 0.241033
vn 0.000000 -1.000000 0.000000
v 1.663542 3.327083 -11.644791 0.28524 0.28754 0.26684
vt 0.865031 0.242263
vn 0.000000 -1.000000 0.000000
v 0.000000 3.327083 -11.644791 0.28524 0.28754 0.26684
vt 0.864029 0.241208
vn 0.000000 -1.000000 0.000000
f 304/304/304 305/305/305 306/306/306
v 1.663542 3.327083 -11.644791 0.26108 0.52005 0.63221
vt 0.332974 0.237923
vn 0.000000 -1.000000 -0.000000
v 0.000000 3.327083 -13.308332 0.26108 0.52005 0.63221
vt 0.339804 0.236980
vn 0.000000 -1.000000 -0.000000
v 1.663542 3.327083 -13.308332 0.26108 0.52005 0.63221
vt 0.339463 0.236547
vn 0.000000 -1.000000 -0.000000
f 307/307/307 308/308/308 309/309/309
v 1.663542 3.327083 -11.644791 0.26108 0.52005 0.63221
vt 0.332539 0.237395
vn 0.000000 1.000000 0.000000
v 1.663542 3.327083 -13.308332 0.26108 0.52005 0.63221
vt 0.339463 0.236547
vn 0.000000 1.000000 0.000000
v 0.000000 3.327083 -13.308332 0.26108 0.52005 0.63221
vt 0.339203 0.235298
vn 0.000000 1.000000 0.000000
f 310/310/310 311/311/311 312/312/312
v -0.000000 3.327083 -13.308332 0.28524 0.28754 0.26684
vt 0.877283 0.229123
vn 0.000000 -1.000000 0.000000
v -0.000000 3.327083 -11.644791 0.28524 0.28754 0.26684
vt 0.864370 0.231156
vn 0.000000 -1.000000 0.000000
v -1.663542 3.327083 -11.644791 0.28524 0.28754 0.26684
vt 0.865521 0.227698
vn 0.000000 -1.000000 0.000000
f 313/313/313 314/314/314 315/315/315
v 0.000000 4.990625 -13.308332 0.26108 0.52005 0.63221
vt 0.339078 0.233478
vn 0.707107 0.707107 -0.000000
v 0.000000 4.990625 -11.644791 0.26108 0.52005 0.63221
vt 0.332042 0.233637
vn 0.707107 0.707107 -0.000000
v 1.663542 3.327083 -11.644791 0.26108 0.52005 0.63221
vt 0.332206 0.235867
vn 0.707107 0.707107 -0.000000
f 316/316/316 317/317/317 318/318/318
v 1.663542 3.327083 -11.644791 0.26108 0.52005 0.63221
vt 0.332206 0.235867
vn 0.707107 0.000000 -0.707107
v 0.000000 3.327083 -13.308332 0.26108 0.52005 0.63221
vt 0.339203 0.235298
vn 0.707107 0.000000 -0.707107
v 0.000000 4.990625 -13.308332 0.26108 0.52005 0.63221
vt 0.339078 0.233478
vn 0.707107 0.000000 -0.707107
f 319/319/319 320/320/320 321/321/321
v -1.663542 3.327083 -11.644791 0.26108 0.52005 0.63221
vt 0.333907 0.228901
vn 0.000000 -1.000000 0.000000
v -1.663542 3.327083 -13.308332 0.26108 0.52005 0.63221
vt 0.340301 0.228352
vn 0.000000 -1.000000 0.000000
v -0.000000 3.327083 -13.308332 0.26108 0.52005 0.63221
vt 0.340557 0.229609
vn 0.000000 -1.000000 0.000000
f 322/322/322 323/323/323 324/324/324
v -1.663542 3.327083 -11.644791 0.26108 0.52005 0.63221
vt 0.333579 0.227360
vn 0.000000 1.000000 0.000000
v -0.000000 3.327083 -13.308332 0.26108 0.52005 0.63221
vt 0.339960 0.227902
vn 0.000000 1.000000 0.000000
v -1.663542 3.327083 -13.308332 0.26108 0.52005 0.63221
vt 0.340301 0.228352
vn 0.000000 1.000000 0.000000
f 325/325/325 326/326/326 327/327/327
v -0.000000 4.990625 -13.308332 0.26108 0.52005 0.63221
vt 0.339603 0.228353
vn -0.707107 0.707107 0.000000
v -1.663542 3.327083 -11.644791 0.26108 0.52005 0.63221
vt 0.333145 0.226807
vn -0.707107 0.707107 0.000000
v -0.000000 4.990625 -11.644791 0.26108 0.52005 0.63221
vt 0.332693 0.227357
vn -0.707107 0.707107 0.000000
f 328/328/328 329/329/329 330/330/330
v -1.663542 3.327083 -11.644791 0.26108 0.52005 0.63221
vt 0.333145 0.226807
vn -0.707107 0.000000 -0.707107
v -0.000000 4.990625 -13.308332 0.26108 0.52005 0.63221
vt 0.339603 0.228353
vn -0.707107 0.000000 -0.707107
v -0.000000 3.327083 -13.308332 0.26108 0.52005 0.63221
vt 0.339960 0.227902
vn -0.707107 0.000000 -0.707107
f 331/331/331 332/332/332 333/333/333
v 0.000000 4.990625 -11.644791 0.82273 0.82503 0.80433
vt 0.432162 0.790899
vn 1.000000 0.000000 0.000000
v 0.000000 4.990625 -13.308332 0.82273 0.82503 0.80433
vt 0.446433 0.791830
vn 1.000000 0.000000 0.000000
v 0.000000 8.317708 -13.308332 0.82273 0.82503 0.80433
vt 0.453073 0.797861
vn 1.000000 0.000000 0.000000
f 334/334/334 335/335/335 336/336/336
v -0.000000 8.317708 -13.308332 0.26108 0.52005 0.63221
vt 0.336639 0.222195
vn -1.000000 0.000000 0.000000
v -0.000000 4.990625 -11.644791 0.26108 0.52005 0.63221
vt 0.330737 0.227606
vn -1.000000 0.000000 0.000000
v -0.000000 8.317708 -11.644791 0.26108 0.52005 0.63221
vt 0.335443 0.221862
vn -1.000000 0.000000 0.000000
f 337/337/337 338/338/338 339/339/339
v -0.000000 8.317708 -11.644791 0.26108 0.52005 0.63221
vt 0.335443 0.221862
vn -1.000000 0.000000 0.000000
v -0.000000 9.981249 -13.308332 0.26108 0.52005 0.63221
vt 0.338580 0.219214
vn -1.000000 0.000000 0.000000
v -0.000000 8.317708 -13.308332 0.26108 0.52005 0.63221
vt 0.336639 0.222195
vn -1.000000 0.000000 0.000000
f 340/340/340 341/341/341 342/342/342
v 1.663542 1.663542 -3.327083 0.28524 0.28754 0.26684
vt 0.790583 0.242159
vn 0.000000 -1.000000 0.000000
v 1.663542 1.663542 -1.663542 0.28524 0.28754 0.26684
vt 0.786002 0.241787
vn 0.000000 -1.000000 0.000000
v 0.000000 1.663542 -1.663542 0.28524 0.28754 0.26684
vt 0.785490 0.237655
vn 0.000000 -1.000000 0.000000
f 343/343/343 344/344/344 345/345/345
v 0.000000 1.663542 -1.663542 0.28524 0.28754 0.26684
vt 0.785490 0.237655
vn 0.000000 -1.000000 0.000000
v 0.000000 1.663542 -3.327083 0.28524 0.28754 0.26684
vt 0.790055 0.238026
vn 0.000000 -1.000000 0.000000
v 1.663542 1.663542 -3.327083 0.28524 0.28754 0.26684
vt 0.790583 0.242159
vn 0.000000 -1.000000 0.000000
f 346/346/346 347/347/347 348/348/348
v 1.663542 1.663542 -4.990625 0.28524 0.28754 0.26684
vt 0.804329 0.243277
vn 0.000000 -1.000000 0.000000
v 1.663542 1.663542 -3.327083 0.28524 0.28754 0.26684
vt 0.799747 0.242904
vn 0.000000 -1.000000 0.000000
v 0.000000 1.663542 -3.327083 0.28524 0.28754 0.26684
vt 0.799187 0.238768
vn 0.000000 -1.000000 0.000000
f 349/349/349 350/350/350 351/351/351
v 0.000000 1.663542 -3.327083 0.28524 0.28754 0.26684
vt 0.799187 0.238768
vn 0.000000 -1.000000 0.000000
v 0.000000 1.663542 -4.990625 0.28524 0.28754 0.26684
vt 0.803754 0.239139
vn 0.000000 -1.000000 0.000000
v 1.663542 1.663542 -4.990625 0.28524 0.28754 0.26684
vt 0.804329 0.243277
vn 0.000000 -1.000000 0.000000
f 352/352/352 353/353/353 354/354/354
v -0.000000 1.663542 -3.327083 0.28524 0.28754 0.26684
vt 0.790315 0.232278
vn 0.000000 -1.000000 0.000000
v -0.000000 1.663542 -1.663542 0.28524 0.28754 0.26684
vt 0.785754 0.231908
vn 0.000000 -1.000000 0.000000
v -1.663542 1.663542 -1.663542 0.28524 0.28754 0.26684
vt 0.786743 0.225642
vn 0.000000 -1.000000 0.000000
f 355/355/355 356/356/356 357/357/357
v -1.663542 1.663542 -1.663542 0.28524 0.28754 0.26684
vt 0.786743 0.225642
vn 0.000000 -1.000000 0.000000
v -1.663542 1.663542 -3.327083 0.28524 0.28754 0.26684
vt 0.791312 0.226013
vn 0.000000 -1.000000 0.000000
v -0.000000 1.663542 -3.327083 0.28524 0.28754 0.26684
vt 0.790315 0.232278
vn 0.000000 -1.000000 0.000000
f 358/358/358 359/359/359 360/360/360
v -0.000000 1.663542 -4.990625 0.28524 0.28754 0.26684
vt 0.804002 0.233389
vn 0.000000 -1.000000 0.000000
v -0.000000 1.663542 -3.327083 0.28524 0.28754 0.26684
vt 0.799439 0.233019
vn 0.000000 -1.000000 0.000000
v -1.663542 1.663542 -3.327083 0.28524 0.28754 0.26684
vt 0.800453 0.226754
vn 0.000000 -1.000000 0.000000
f 361/361/361 362/362/362 363/363/363
v -1.663542 1.663542 -3.327083 0.28524 0.28754 0.26684
vt 0.800453 0.226754
vn 0.000000 -1.000000 0.000000
v -1.663542 1.663542 -4.990625 0.28524 0.28754 0.26684
vt 0.805024 0.227125
vn 0.000000 -1.000000 0.000000
v -0.000000 1.663542 -4.990625 0.28524 0.28754 0.26684
vt 0.804002 0.233389
vn 0.000000 -1.000000 0.000000
f 364/364/364 365/365/365 366/366/366
v 1.663542 4.990625 -3.327083 0.26108 0.52005 0.63221
vt 0.287218 0.232988
vn 0.000000 1.000000 -0.000000
v 0.000000 4.990625 -1.663542 0.26108 0.52005 0.63221
vt 0.284311 0.228773
vn 0.000000 1.000000 -0.000000
v 1.663542 4.990625 -1.663542 0.26108 0.52005 0.63221
vt 0.284299 0.232807
vn 0.000000 1.000000 -0.000000
f 367/367/367 368/368/368 369/369/369
v 0.000000 4.990625 -1.663542 0.26108 0.52005 0.63221
vt 0.284311 0.228773
vn 0.000000 1.000000 0.000000
v 1.663542 4.990625 -3.327083 0.26108 0.52005 0.63221
vt 0.287218 0.232988
vn 0.000000 1.000000 0.000000
v 0.000000 4.990625 -3.327083 0.26108 0.52005 0.63221
vt 0.287233 0.228955
vn 0.000000 1.000000 0.000000
f 370/370/370 371/371/371 372/372/372
v 1.663542 4.990625 -4.990625 0.26108 0.52005 0.63221
vt 0.295978 0.233534
vn 0.000000 1.000000 -0.000000
v 0.000000 4.990625 -3.327083 0.26108 0.52005 0.63221
vt 0.293079 0.229318
vn 0.000000 1.000000 -0.000000
v 1.663542 4.990625 -3.327083 0.26108 0.52005 0.63221
vt 0.293058 0.233352
vn 0.000000 1.000000 -0.000000
f 373/373/373 374/374/374 375/375/375
v 0.000000 4.990625 -3.327083 0.26108 0.52005 0.63221
vt 0.293079 0.229318
vn 0.000000 1.000000 0.000000
v 1.663542 4.990625 -4.990625 0.26108 0.52005 0.63221
vt 0.295978 0.233534
vn 0.000000 1.000000 0.000000
v 0.000000 4.990625 -4.990625 0.26108 0.52005 0.63221
vt 0.296002 0.229500
vn 0.000000 1.000000 0.000000
f 376/376/376 377/377/377 378/378/378
v -1.663542 4.990625 -3.327083 0.26108 0.52005 0.63221
vt 0.288363 0.222813
vn -1.000000 0.000000 0.000000
v -1.663542 3.327083 -1.663542 0.26108 0.52005 0.63221
vt 0.286343 0.221758
vn -1.000000 0.000000 0.000000
v -1.663542 4.990625 -1.663542 0.26108 0.52005 0.63221
vt 0.285449 0.222632
vn -1.000000 0.000000 0.000000
f 379/379/379 380/380/380 381/381/381
v -1.663542 3.327083 -1.663542 0.26108 0.52005 0.63221
vt 0.286343 0.221758
vn -1.000000 0.000000 0.000000
v -1.663542 4.990625 -3.327083 0.26108 0.52005 0.63221
vt 0.288363 0.222813
vn -1.000000 0.000000 0.000000
v -1.663542 3.327083 -3.327083 0.26108 0.52005 0.63221
vt 0.289247 0.221938
vn -1.000000 0.000000 0.000000
f 382/382/382 383/383/383 384/384/384
v -1.663542 4.990625 -4.990625 0.26108 0.52005 0.63221
vt 0.297106 0.223356
vn -1.000000 0.000000 0.000000
v -1.663542 3.327083 -3.327083 0.26108 0.52005 0.63221
vt 0.295056 0.222299
vn -1.000000 0.000000 0.000000
v -1.663542 4.990625 -3.327083 0.26108 0.52005 0.63221
vt 0.294191 0.223175
vn -1.000000 0.000000 0.000000
f 385/385/385 386/386/386 387/387/387
v -1.663542 3.327083 -3.327083 0.26108 0.52005 0.63221
vt 0.295056 0.222299
vn -1.000000 0.000000 0.000000
v -1.663542 4.990625 -4.990625 0.26108 0.52005 0.63221
vt 0.297106 0.223356
vn -1.000000 0.000000 0.000000
v -1.663542 3.327083 -4.990625 0.26108 0.52005 0.63221
vt 0.297960 0.222480
vn -1.000000 0.000000 0.000000
f 388/388/388 389/389/389 390/390/390
v 1.663542 4.990625 -3.327083 0.26108 0.52005 0.63221
vt 0.287218 0.232988
vn 1.000000 0.000000 -0.000000
v 1.663542 4.990625 -1.663542 0.26108 0.52005 0.63221
vt 0.284299 0.232807
vn 1.000000 0.000000 -0.000000
v 1.663542 3.327083 -1.663542 0.26108 0.52005 0.63221
vt 0.284688 0.236420
vn 1.000000 0.000000 -0.000000
f 391/391/391 392/392/392 393/393/393
v 1.663542 3.327083 -1.663542 0.26108 0.52005 0.63221
vt 0.284688 0.236420
vn 1.000000 0.000000 0.000000
v 1.663542 3.327083 -3.327083 0.26108 0.52005 0.63221
vt 0.287600 0.236602
vn 1.000000 0.000000 0.000000
v 1.663542 4.990625 -3.327083 0.26108 0.52005 0.63221
vt 0.287218 0.232988
vn 1.000000 0.000000 0.000000
f 394/394/394 395/395/395 396/396/396
v 1.663542 4.990625 -4.990625 0.26108 0.52005 0.63221
vt 0.295978 0.233534
vn 1.000000 0.000000 -0.000000
v 1.663542 4.990625 -3.327083 0.26108 0.52005 0.63221
vt 0.293058 0.233352
vn 1.000000 0.000000 -0.000000
v 1.663542 3.327083 -3.327083 0.26108 0.52005 0.63221
vt 0.293425 0.236965
vn 1.000000 0.000000 -0.000000
f 397/397/397 398/398/398 399/399/399
v 1.663542 3.327083 -3.327083 0.26108 0.52005 0.63221
vt 0.293425 0.236965
vn 1.000000 0.000000 0.000000
v 1.663542 3.327083 -4.990625 0.26108 0.52005 0.63221
vt 0.296337 0.237146
vn 1.000000 0.000000 0.000000
v 1.663542 4.990625 -4.990625 0.26108 0.52005 0.63221
vt 0.295978 0.233534
vn 1.000000 0.000000 0.000000
f 400/400/400 401/401/401 402/402/402
v -0.000000 4.990625 -3.327083 0.26108 0.52005 0.63221
vt 0.287643 0.225318
vn 0.000000 1.000000 -0.000000
v -1.663542 4.990625 -1.663542 0.26108 0.52005 0.63221
vt 0.285449 0.222632
vn 0.000000 1.000000 -0.000000
v -0.000000 4.990625 -1.663542 0.26108 0.52005 0.63221
vt 0.284722 0.225136
vn 0.000000 1.000000 -0.000000
f 403/403/403 404/404/404 405/405/405
v -1.663542 4.990625 -1.663542 0.26108 0.52005 0.63221
vt 0.285449 0.222632
vn 0.000000 1.000000 0.000000
v -0.000000 4.990625 -3.327083 0.26108 0.52005 0.63221
vt 0.287643 0.225318
vn 0.000000 1.000000 0.000000
v -1.663542 4.990625 -3.327083 0.26108 0.52005 0.63221
vt 0.288363 0.222813
vn 0.000000 1.000000 0.000000
f 406/406/406 407/407/407 408/408/408
v -0.000000 4.990625 -4.990625 0.26108 0.52005 0.63221
vt 0.296406 0.225862
vn 0.000000 1.000000 -0.000000
v -1.663542 4.990625 -3.327083 0.26108 0.52005 0.63221
vt 0.294191 0.223175
vn 0.000000 1.000000 -0.000000
v -0.000000 4.990625 -3.327083 0.26108 0.52005 0.63221
vt 0.293485 0.225681
vn 0.000000 1.000000 -0.000000
f 409/409/409 410/410/410 411/411/411
v -1.663542 4.990625 -3.327083 0.26108 0.52005 0.63221
vt 0.294191 0.223175
vn 0.000000 1.000000 0.000000
v -0.000000 4.990625 -4.990625 0.26108 0.52005 0.63221
vt 0.296406 0.225862
vn 0.000000 1.000000 0.000000
v -1.663542 4.990625 -4.990625 0.26108 0.52005 0.63221
vt 0.297106 0.223356
vn 0.000000 1.000000 0.000000
f 412/412/412 413/413/413 414/414/414
v -1.663542 3.327083 -3.327083 0.26108 0.52005 0.63221
vt 0.290118 0.222852
vn -1.000000 0.000000 0.000000
v -1.663542 1.663542 -1.663542 0.26108 0.52005 0.63221
vt 0.287920 0.225175
vn -1.000000 0.000000 0.000000
v -1.663542 3.327083 -1.663542 0.26108 0.52005 0.63221
vt 0.287225 0.222672
vn -1.000000 0.000000 0.000000
f 415/415/415 416/416/416 417/417/417
v -1.663542 1.663542 -1.663542 0.26108 0.52005 0.63221
vt 0.287920 0.225175
vn -1.000000 0.000000 0.000000
v -1.663542 3.327083 -3.327083 0.26108 0.52005 0.63221
vt 0.290118 0.222852
vn -1.000000 0.000000 0.000000
v -1.663542 1.663542 -3.327083 0.26108 0.52005 0.63221
vt 0.290802 0.225354
vn -1.000000 0.000000 0.000000
f 418/418/418 419/419/419 420/420/420
v -1.663542 3.327083 -4.990625 0.26108 0.52005 0.63221
vt 0.298797 0.223391
vn -1.000000 0.000000 0.000000
v -1.663542 1.663542 -3.327083 0.26108 0.52005 0.63221
vt 0.296568 0.225712
vn -1.000000 0.000000 0.000000
v -1.663542 3.327083 -3.327083 0.26108 0.52005 0.63221
vt 0.295903 0.223211
vn -1.000000 0.000000 0.000000
f 421/421/421 422/422/422 423/423/423
v -1.663542 1.663542 -3.327083 0.26108 0.52005 0.63221
vt 0.296568 0.225712
vn -1.000000 0.000000 0.000000
v -1.663542 3.327083 -4.990625 0.26108 0.52005 0.63221
vt 0.298797 0.223391
vn -1.000000 0.000000 0.000000
v -1.663542 1.663542 -4.990625 0.26108 0.52005 0.63221
vt 0.299451 0.225891
vn -1.000000 0.000000 0.000000
f 424/424/424 425/425/425 426/426/426
v 1.663542 3.327083 -3.327083 0.26108 0.52005 0.63221
vt 0.288298 0.239072
vn 1.000000 0.000000 -0.000000
v 1.663542 3.327083 -1.663542 0.26108 0.52005 0.63221
vt 0.285396 0.238891
vn 1.000000 0.000000 -0.000000
v 1.663542 1.663542 -1.663542 0.26108 0.52005 0.63221
vt 0.286281 0.239738
vn 1.000000 0.000000 -0.000000
f 427/427/427 428/428/428 429/429/429
v 1.663542 1.663542 -1.663542 0.26108 0.52005 0.63221
vt 0.286281 0.239738
vn 1.000000 0.000000 0.000000
v 1.663542 1.663542 -3.327083 0.26108 0.52005 0.63221
vt 0.289172 0.239918
vn 1.000000 0.000000 0.000000
v 1.663542 3.327083 -3.327083 0.26108 0.52005 0.63221
vt 0.288298 0.239072
vn 1.000000 0.000000 0.000000
f 430/430/430 431/431/431 432/432/432
v 1.663542 3.327083 -4.990625 0.26108 0.52005 0.63221
vt 0.297005 0.239614
vn 1.000000 0.000000 -0.000000
v 1.663542 3.327083 -3.327083 0.26108 0.52005 0.63221
vt 0.294102 0.239433
vn 1.000000 0.000000 -0.000000
v 1.663542 1.663542 -3.327083 0.26108 0.52005 0.63221
vt 0.294953 0.240278
vn 1.000000 0.000000 -0.000000
f 433/433/433 434/434/434 435/435/435
v 1.663542 1.663542 -3.327083 0.26108 0.52005 0.63221
vt 0.294953 0.240278
vn 1.000000 0.000000 0.000000
v 1.663542 1.663542 -4.990625 0.26108 0.52005 0.63221
vt 0.297844 0.240458
vn 1.000000 0.000000 0.000000
v 1.663542 3.327083 -4.990625 0.26108 0.52005 0.63221
vt 0.297005 0.239614
vn 1.000000 0.000000 0.000000
f 436/436/436 437/437/437 438/438/438
v -1.663542 1.663542 -3.327083 0.28524 0.28754 0.26684
vt 0.777874 0.171823
vn 0.000000 0.894427 -0.447214
v 0.000000 3.327083 0.000000 0.28524 0.28754 0.26684
vt 0.732764 0.170123
vn 0.000000 0.894427 -0.447214
v 0.000000 1.663542 -3.327083 0.28524 0.28754 0.26684
vt 0.778108 0.161550
vn 0.000000 0.894427 -0.447214
f 439/439/439 440/440/440 441/441/441
v -1.663542 3.327083 -1.663542 0.28524 0.28754 0.26684
vt 0.768166 0.182796
vn -1.000000 -0.000000 0.000000
v -1.663542 1.663542 -3.327083 0.28524 0.28754 0.26684
vt 0.782381 0.170216
vn -1.000000 -0.000000 0.000000
v -1.663542 1.663542 -1.663542 0.28524 0.28754 0.26684
vt 0.770231 0.181420
vn -1.000000 -0.000000 0.000000
f 442/442/442 443/443/443 444/444/444
v -1.663542 3.327083 -1.663542 0.28524 0.28754 0.26684
vt 0.768166 0.182796
vn 1.000000 0.000000 -0.000000
v -1.663542 3.327083 0.000000 0.28524 0.28754 0.26684
vt 0.733591 0.180157
vn 1.000000 0.000000 -0.000000
v -1.663542 1.663542 -3.327083 0.28524 0.28754 0.26684
vt 0.777874 0.171823
vn 1.000000 0.000000 -0.000000
f 445/445/445 446/446/446 447/447/447
v -0.000000 1.663542 -3.327083 0.28524 0.28754 0.26684
vt 0.780183 0.169492
vn 0.000000 -1.000000 0.000000
v -1.663542 1.663542 -1.663542 0.28524 0.28754 0.26684
vt 0.770231 0.181420
vn 0.000000 -1.000000 0.000000
v -1.663542 1.663542 -3.327083 0.28524 0.28754 0.26684
vt 0.782381 0.170216
vn 0.000000 -1.000000 0.000000
f 448/448/448 449/449/449 450/450/450
v -1.663542 1.663542 -1.663542 0.28524 0.28754 0.26684
vt 0.771466 0.178612
vn 0.000000 -1.000000 0.000000
v -0.000000 1.663542 -3.327083 0.28524 0.28754 0.26684
vt 0.780183 0.169492
vn 0.000000 -1.000000 0.000000
v -0.000000 1.663542 0.000000 0.28524 0.28754 0.26684
vt 0.737863 0.176074
vn 0.000000 -1.000000 0.000000
f 451/451/451 452/452/452 453/453/453
v -1.663542 1.663542 -1.663542 0.28524 0.28754 0.26684
vt 0.770231 0.181420
vn -1.000000 0.000000 0.000000
v -1.663542 1.663542 -0.000000 0.28524 0.28754 0.26684
vt 0.747531 0.188786
vn -1.000000 0.000000 0.000000
v -1.663542 3.327083 -1.663542 0.28524 0.28754 0.26684
vt 0.768166 0.182796
vn -1.000000 0.000000 0.000000
f 454/454/454 455/455/455 456/456/456
