# Original Quiet Camp environment study; NOT a downloaded Sketchfab donor
# Units: metres; Y up; no external geometry or textures
mtllib palette.mtl
o ua_bus_shelter_mosaic
v -1.6500000 0.0000000 -0.8600000
v -1.6500000 0.1400000 -0.8600000
v 1.6500000 0.1400000 -0.8600000
v -1.6500000 0.0000000 -0.8600000
v 1.6500000 0.1400000 -0.8600000
v 1.6500000 0.0000000 -0.8600000
v -1.6500000 0.0000000 0.8600000
v 1.6500000 0.0000000 0.8600000
v 1.6500000 0.1400000 0.8600000
v -1.6500000 0.0000000 0.8600000
v 1.6500000 0.1400000 0.8600000
v -1.6500000 0.1400000 0.8600000
v -1.6500000 0.0000000 -0.8600000
v -1.6500000 0.0000000 0.8600000
v -1.6500000 0.1400000 0.8600000
v -1.6500000 0.0000000 -0.8600000
v -1.6500000 0.1400000 0.8600000
v -1.6500000 0.1400000 -0.8600000
v 1.6500000 0.0000000 -0.8600000
v 1.6500000 0.1400000 -0.8600000
v 1.6500000 0.1400000 0.8600000
v 1.6500000 0.0000000 -0.8600000
v 1.6500000 0.1400000 0.8600000
v 1.6500000 0.0000000 0.8600000
v -1.6500000 0.0000000 -0.8600000
v 1.6500000 0.0000000 -0.8600000
v 1.6500000 0.0000000 0.8600000
v -1.6500000 0.0000000 -0.8600000
v 1.6500000 0.0000000 0.8600000
v -1.6500000 0.0000000 0.8600000
v -1.6500000 0.1400000 -0.8600000
v -1.6500000 0.1400000 0.8600000
v 1.6500000 0.1400000 0.8600000
v -1.6500000 0.1400000 -0.8600000
v 1.6500000 0.1400000 0.8600000
v 1.6500000 0.1400000 -0.8600000
v -1.5400000 0.1100000 0.7100000
v -1.5400000 2.0100000 0.7100000
v 1.5400000 2.0100000 0.7100000
v -1.5400000 0.1100000 0.7100000
v 1.5400000 2.0100000 0.7100000
v 1.5400000 0.1100000 0.7100000
v -1.5400000 0.1100000 0.8300000
v 1.5400000 0.1100000 0.8300000
v 1.5400000 2.0100000 0.8300000
v -1.5400000 0.1100000 0.8300000
v 1.5400000 2.0100000 0.8300000
v -1.5400000 2.0100000 0.8300000
v -1.5400000 0.1100000 0.7100000
v -1.5400000 0.1100000 0.8300000
v -1.5400000 2.0100000 0.8300000
v -1.5400000 0.1100000 0.7100000
v -1.5400000 2.0100000 0.8300000
v -1.5400000 2.0100000 0.7100000
v 1.5400000 0.1100000 0.7100000
v 1.5400000 2.0100000 0.7100000
v 1.5400000 2.0100000 0.8300000
v 1.5400000 0.1100000 0.7100000
v 1.5400000 2.0100000 0.8300000
v 1.5400000 0.1100000 0.8300000
v -1.5400000 0.1100000 0.7100000
v 1.5400000 0.1100000 0.7100000
v 1.5400000 0.1100000 0.8300000
v -1.5400000 0.1100000 0.7100000
v 1.5400000 0.1100000 0.8300000
v -1.5400000 0.1100000 0.8300000
v -1.5400000 2.0100000 0.7100000
v -1.5400000 2.0100000 0.8300000
v 1.5400000 2.0100000 0.8300000
v -1.5400000 2.0100000 0.7100000
v 1.5400000 2.0100000 0.8300000
v 1.5400000 2.0100000 0.7100000
v -1.5600000 0.1100000 -0.6650000
v -1.5600000 2.0100000 -0.6650000
v -1.4200000 2.0100000 -0.6650000
v -1.5600000 0.1100000 -0.6650000
v -1.4200000 2.0100000 -0.6650000
v -1.4200000 0.1100000 -0.6650000
v -1.5600000 0.1100000 0.8050000
v -1.4200000 0.1100000 0.8050000
v -1.4200000 2.0100000 0.8050000
v -1.5600000 0.1100000 0.8050000
v -1.4200000 2.0100000 0.8050000
v -1.5600000 2.0100000 0.8050000
v -1.5600000 0.1100000 -0.6650000
v -1.5600000 0.1100000 0.8050000
v -1.5600000 2.0100000 0.8050000
v -1.5600000 0.1100000 -0.6650000
v -1.5600000 2.0100000 0.8050000
v -1.5600000 2.0100000 -0.6650000
v -1.4200000 0.1100000 -0.6650000
v -1.4200000 2.0100000 -0.6650000
v -1.4200000 2.0100000 0.8050000
v -1.4200000 0.1100000 -0.6650000
v -1.4200000 2.0100000 0.8050000
v -1.4200000 0.1100000 0.8050000
v -1.5600000 0.1100000 -0.6650000
v -1.4200000 0.1100000 -0.6650000
v -1.4200000 0.1100000 0.8050000
v -1.5600000 0.1100000 -0.6650000
v -1.4200000 0.1100000 0.8050000
v -1.5600000 0.1100000 0.8050000
v -1.5600000 2.0100000 -0.6650000
v -1.5600000 2.0100000 0.8050000
v -1.4200000 2.0100000 0.8050000
v -1.5600000 2.0100000 -0.6650000
v -1.4200000 2.0100000 0.8050000
v -1.4200000 2.0100000 -0.6650000
v 1.4200000 0.1100000 -0.6650000
v 1.4200000 2.0100000 -0.6650000
v 1.5600000 2.0100000 -0.6650000
v 1.4200000 0.1100000 -0.6650000
v 1.5600000 2.0100000 -0.6650000
v 1.5600000 0.1100000 -0.6650000
v 1.4200000 0.1100000 0.8050000
v 1.5600000 0.1100000 0.8050000
v 1.5600000 2.0100000 0.8050000
v 1.4200000 0.1100000 0.8050000
v 1.5600000 2.0100000 0.8050000
v 1.4200000 2.0100000 0.8050000
v 1.4200000 0.1100000 -0.6650000
v 1.4200000 0.1100000 0.8050000
v 1.4200000 2.0100000 0.8050000
v 1.4200000 0.1100000 -0.6650000
v 1.4200000 2.0100000 0.8050000
v 1.4200000 2.0100000 -0.6650000
v 1.5600000 0.1100000 -0.6650000
v 1.5600000 2.0100000 -0.6650000
v 1.5600000 2.0100000 0.8050000
v 1.5600000 0.1100000 -0.6650000
v 1.5600000 2.0100000 0.8050000
v 1.5600000 0.1100000 0.8050000
v 1.4200000 0.1100000 -0.6650000
v 1.5600000 0.1100000 -0.6650000
v 1.5600000 0.1100000 0.8050000
v 1.4200000 0.1100000 -0.6650000
v 1.5600000 0.1100000 0.8050000
v 1.4200000 0.1100000 0.8050000
v 1.4200000 2.0100000 -0.6650000
v 1.4200000 2.0100000 0.8050000
v 1.5600000 2.0100000 0.8050000
v 1.4200000 2.0100000 -0.6650000
v 1.5600000 2.0100000 0.8050000
v 1.5600000 2.0100000 -0.6650000
v -1.7400000 2.0600000 -0.9950000
v 1.7400000 2.2000000 -0.9950000
v 1.7400000 2.0600000 -0.9950000
v -1.7400000 2.0600000 0.9950000
v 1.7400000 2.0600000 0.9950000
v 1.7400000 2.2000000 0.9950000
v -1.7400000 2.0600000 -0.9950000
v -1.7400000 2.2000000 -0.9950000
v 1.7400000 2.2000000 -0.9950000
v -1.7400000 2.0600000 0.9950000
v 1.7400000 2.2000000 0.9950000
v -1.7400000 2.2000000 0.9950000
v -1.7400000 2.0600000 -0.9950000
v 1.7400000 2.0600000 -0.9950000
v 1.7400000 2.0600000 0.9950000
v -1.7400000 2.0600000 -0.9950000
v 1.7400000 2.0600000 0.9950000
v -1.7400000 2.0600000 0.9950000
v 1.7400000 2.0600000 -0.9950000
v 1.7400000 2.2000000 -0.9950000
v 1.7400000 2.2000000 0.9950000
v 1.7400000 2.0600000 -0.9950000
v 1.7400000 2.2000000 0.9950000
v 1.7400000 2.0600000 0.9950000
v 1.7400000 2.2000000 -0.9950000
v -1.7400000 2.2000000 -0.9950000
v -1.7400000 2.2000000 0.9950000
v 1.7400000 2.2000000 -0.9950000
v -1.7400000 2.2000000 0.9950000
v 1.7400000 2.2000000 0.9950000
v -1.7400000 2.2000000 -0.9950000
v -1.7400000 2.0600000 -0.9950000
v -1.7400000 2.0600000 0.9950000
v -1.7400000 2.2000000 -0.9950000
v -1.7400000 2.0600000 0.9950000
v -1.7400000 2.2000000 0.9950000
v -1.5350000 1.9400000 -0.8200000
v -1.5350000 2.0900000 -0.8200000
v 1.5350000 2.0900000 -0.8200000
v -1.5350000 1.9400000 -0.8200000
v 1.5350000 2.0900000 -0.8200000
v 1.5350000 1.9400000 -0.8200000
v -1.5350000 1.9400000 -0.7200000
v 1.5350000 1.9400000 -0.7200000
v 1.5350000 2.0900000 -0.7200000
v -1.5350000 1.9400000 -0.7200000
v 1.5350000 2.0900000 -0.7200000
v -1.5350000 2.0900000 -0.7200000
v -1.5350000 1.9400000 -0.8200000
v -1.5350000 1.9400000 -0.7200000
v -1.5350000 2.0900000 -0.7200000
v -1.5350000 1.9400000 -0.8200000
v -1.5350000 2.0900000 -0.7200000
v -1.5350000 2.0900000 -0.8200000
v 1.5350000 1.9400000 -0.8200000
v 1.5350000 2.0900000 -0.8200000
v 1.5350000 2.0900000 -0.7200000
v 1.5350000 1.9400000 -0.8200000
v 1.5350000 2.0900000 -0.7200000
v 1.5350000 1.9400000 -0.7200000
v -1.5350000 1.9400000 -0.8200000
v 1.5350000 1.9400000 -0.8200000
v 1.5350000 1.9400000 -0.7200000
v -1.5350000 1.9400000 -0.8200000
v 1.5350000 1.9400000 -0.7200000
v -1.5350000 1.9400000 -0.7200000
v -1.5350000 2.0900000 -0.8200000
v -1.5350000 2.0900000 -0.7200000
v 1.5350000 2.0900000 -0.7200000
v -1.5350000 2.0900000 -0.8200000
v 1.5350000 2.0900000 -0.7200000
v 1.5350000 2.0900000 -0.8200000
v -1.1000000 0.5000000 0.2700000
v -1.1000000 0.6200000 0.2700000
v 1.1000000 0.6200000 0.2700000
v -1.1000000 0.5000000 0.2700000
v 1.1000000 0.6200000 0.2700000
v 1.1000000 0.5000000 0.2700000
v -1.1000000 0.5000000 0.6300000
v 1.1000000 0.5000000 0.6300000
v 1.1000000 0.6200000 0.6300000
v -1.1000000 0.5000000 0.6300000
v 1.1000000 0.6200000 0.6300000
v -1.1000000 0.6200000 0.6300000
v -1.1000000 0.5000000 0.2700000
v -1.1000000 0.5000000 0.6300000
v -1.1000000 0.6200000 0.6300000
v -1.1000000 0.5000000 0.2700000
v -1.1000000 0.6200000 0.6300000
v -1.1000000 0.6200000 0.2700000
v 1.1000000 0.5000000 0.2700000
v 1.1000000 0.6200000 0.2700000
v 1.1000000 0.6200000 0.6300000
v 1.1000000 0.5000000 0.2700000
v 1.1000000 0.6200000 0.6300000
v 1.1000000 0.5000000 0.6300000
v -1.1000000 0.5000000 0.2700000
v 1.1000000 0.5000000 0.2700000
v 1.1000000 0.5000000 0.6300000
v -1.1000000 0.5000000 0.2700000
v 1.1000000 0.5000000 0.6300000
v -1.1000000 0.5000000 0.6300000
v -1.1000000 0.6200000 0.2700000
v -1.1000000 0.6200000 0.6300000
v 1.1000000 0.6200000 0.6300000
v -1.1000000 0.6200000 0.2700000
v 1.1000000 0.6200000 0.6300000
v 1.1000000 0.6200000 0.2700000
v -1.1000000 0.7000000 0.6275000
v -1.1000000 0.9800000 0.6275000
v 1.1000000 0.9800000 0.6275000
v -1.1000000 0.7000000 0.6275000
v 1.1000000 0.9800000 0.6275000
v 1.1000000 0.7000000 0.6275000
v -1.1000000 0.7000000 0.6925000
v 1.1000000 0.7000000 0.6925000
v 1.1000000 0.9800000 0.6925000
v -1.1000000 0.7000000 0.6925000
v 1.1000000 0.9800000 0.6925000
v -1.1000000 0.9800000 0.6925000
v -1.1000000 0.7000000 0.6275000
v -1.1000000 0.7000000 0.6925000
v -1.1000000 0.9800000 0.6925000
v -1.1000000 0.7000000 0.6275000
v -1.1000000 0.9800000 0.6925000
v -1.1000000 0.9800000 0.6275000
v 1.1000000 0.7000000 0.6275000
v 1.1000000 0.9800000 0.6275000
v 1.1000000 0.9800000 0.6925000
v 1.1000000 0.7000000 0.6275000
v 1.1000000 0.9800000 0.6925000
v 1.1000000 0.7000000 0.6925000
v -1.1000000 0.7000000 0.6275000
v 1.1000000 0.7000000 0.6275000
v 1.1000000 0.7000000 0.6925000
v -1.1000000 0.7000000 0.6275000
v 1.1000000 0.7000000 0.6925000
v -1.1000000 0.7000000 0.6925000
v -1.1000000 0.9800000 0.6275000
v -1.1000000 0.9800000 0.6925000
v 1.1000000 0.9800000 0.6925000
v -1.1000000 0.9800000 0.6275000
v 1.1000000 0.9800000 0.6925000
v 1.1000000 0.9800000 0.6275000
v -0.8675000 0.0850000 0.3500000
v -0.8675000 0.5750000 0.3500000
v -0.7725000 0.5750000 0.3500000
v -0.8675000 0.0850000 0.3500000
v -0.7725000 0.5750000 0.3500000
v -0.7725000 0.0850000 0.3500000
v -0.8675000 0.0850000 0.5500000
v -0.7725000 0.0850000 0.5500000
v -0.7725000 0.5750000 0.5500000
v -0.8675000 0.0850000 0.5500000
v -0.7725000 0.5750000 0.5500000
v -0.8675000 0.5750000 0.5500000
v -0.8675000 0.0850000 0.3500000
v -0.8675000 0.0850000 0.5500000
v -0.8675000 0.5750000 0.5500000
v -0.8675000 0.0850000 0.3500000
v -0.8675000 0.5750000 0.5500000
v -0.8675000 0.5750000 0.3500000
v -0.7725000 0.0850000 0.3500000
v -0.7725000 0.5750000 0.3500000
v -0.7725000 0.5750000 0.5500000
v -0.7725000 0.0850000 0.3500000
v -0.7725000 0.5750000 0.5500000
v -0.7725000 0.0850000 0.5500000
v -0.8675000 0.0850000 0.3500000
v -0.7725000 0.0850000 0.3500000
v -0.7725000 0.0850000 0.5500000
v -0.8675000 0.0850000 0.3500000
v -0.7725000 0.0850000 0.5500000
v -0.8675000 0.0850000 0.5500000
v -0.8675000 0.5750000 0.3500000
v -0.8675000 0.5750000 0.5500000
v -0.7725000 0.5750000 0.5500000
v -0.8675000 0.5750000 0.3500000
v -0.7725000 0.5750000 0.5500000
v -0.7725000 0.5750000 0.3500000
v 0.7725000 0.0850000 0.3500000
v 0.7725000 0.5750000 0.3500000
v 0.8675000 0.5750000 0.3500000
v 0.7725000 0.0850000 0.3500000
v 0.8675000 0.5750000 0.3500000
v 0.8675000 0.0850000 0.3500000
v 0.7725000 0.0850000 0.5500000
v 0.8675000 0.0850000 0.5500000
v 0.8675000 0.5750000 0.5500000
v 0.7725000 0.0850000 0.5500000
v 0.8675000 0.5750000 0.5500000
v 0.7725000 0.5750000 0.5500000
v 0.7725000 0.0850000 0.3500000
v 0.7725000 0.0850000 0.5500000
v 0.7725000 0.5750000 0.5500000
v 0.7725000 0.0850000 0.3500000
v 0.7725000 0.5750000 0.5500000
v 0.7725000 0.5750000 0.3500000
v 0.8675000 0.0850000 0.3500000
v 0.8675000 0.5750000 0.3500000
v 0.8675000 0.5750000 0.5500000
v 0.8675000 0.0850000 0.3500000
v 0.8675000 0.5750000 0.5500000
v 0.8675000 0.0850000 0.5500000
v 0.7725000 0.0850000 0.3500000
v 0.8675000 0.0850000 0.3500000
v 0.8675000 0.0850000 0.5500000
v 0.7725000 0.0850000 0.3500000
v 0.8675000 0.0850000 0.5500000
v 0.7725000 0.0850000 0.5500000
v 0.7725000 0.5750000 0.3500000
v 0.7725000 0.5750000 0.5500000
v 0.8675000 0.5750000 0.5500000
v 0.7725000 0.5750000 0.3500000
v 0.8675000 0.5750000 0.5500000
v 0.8675000 0.5750000 0.3500000
v -0.9925000 0.9450000 0.6825000
v -0.9925000 1.7150000 0.6825000
v -0.9475000 1.7150000 0.6825000
v -0.9925000 0.9450000 0.6825000
v -0.9475000 1.7150000 0.6825000
v -0.9475000 0.9450000 0.6825000
v -0.9925000 0.9450000 0.7075000
v -0.9475000 0.9450000 0.7075000
v -0.9475000 1.7150000 0.7075000
v -0.9925000 0.9450000 0.7075000
v -0.9475000 1.7150000 0.7075000
v -0.9925000 1.7150000 0.7075000
v -0.9925000 0.9450000 0.6825000
v -0.9925000 0.9450000 0.7075000
v -0.9925000 1.7150000 0.7075000
v -0.9925000 0.9450000 0.6825000
v -0.9925000 1.7150000 0.7075000
v -0.9925000 1.7150000 0.6825000
v -0.9475000 0.9450000 0.6825000
v -0.9475000 1.7150000 0.6825000
v -0.9475000 1.7150000 0.7075000
v -0.9475000 0.9450000 0.6825000
v -0.9475000 1.7150000 0.7075000
v -0.9475000 0.9450000 0.7075000
v -0.9925000 0.9450000 0.6825000
v -0.9475000 0.9450000 0.6825000
v -0.9475000 0.9450000 0.7075000
v -0.9925000 0.9450000 0.6825000
v -0.9475000 0.9450000 0.7075000
v -0.9925000 0.9450000 0.7075000
v -0.9925000 1.7150000 0.6825000
v -0.9925000 1.7150000 0.7075000
v -0.9475000 1.7150000 0.7075000
v -0.9925000 1.7150000 0.6825000
v -0.9475000 1.7150000 0.7075000
v -0.9475000 1.7150000 0.6825000
v -0.0225000 0.9450000 0.6825000
v -0.0225000 1.7150000 0.6825000
v 0.0225000 1.7150000 0.6825000
v -0.0225000 0.9450000 0.6825000
v 0.0225000 1.7150000 0.6825000
v 0.0225000 0.9450000 0.6825000
v -0.0225000 0.9450000 0.7075000
v 0.0225000 0.9450000 0.7075000
v 0.0225000 1.7150000 0.7075000
v -0.0225000 0.9450000 0.7075000
v 0.0225000 1.7150000 0.7075000
v -0.0225000 1.7150000 0.7075000
v -0.0225000 0.9450000 0.6825000
v -0.0225000 0.9450000 0.7075000
v -0.0225000 1.7150000 0.7075000
v -0.0225000 0.9450000 0.6825000
v -0.0225000 1.7150000 0.7075000
v -0.0225000 1.7150000 0.6825000
v 0.0225000 0.9450000 0.6825000
v 0.0225000 1.7150000 0.6825000
v 0.0225000 1.7150000 0.7075000
v 0.0225000 0.9450000 0.6825000
v 0.0225000 1.7150000 0.7075000
v 0.0225000 0.9450000 0.7075000
v -0.0225000 0.9450000 0.6825000
v 0.0225000 0.9450000 0.6825000
v 0.0225000 0.9450000 0.7075000
v -0.0225000 0.9450000 0.6825000
v 0.0225000 0.9450000 0.7075000
v -0.0225000 0.9450000 0.7075000
v -0.0225000 1.7150000 0.6825000
v -0.0225000 1.7150000 0.7075000
v 0.0225000 1.7150000 0.7075000
v -0.0225000 1.7150000 0.6825000
v 0.0225000 1.7150000 0.7075000
v 0.0225000 1.7150000 0.6825000
v 0.9475000 0.9450000 0.6825000
v 0.9475000 1.7150000 0.6825000
v 0.9925000 1.7150000 0.6825000
v 0.9475000 0.9450000 0.6825000
v 0.9925000 1.7150000 0.6825000
v 0.9925000 0.9450000 0.6825000
v 0.9475000 0.9450000 0.7075000
v 0.9925000 0.9450000 0.7075000
v 0.9925000 1.7150000 0.7075000
v 0.9475000 0.9450000 0.7075000
v 0.9925000 1.7150000 0.7075000
v 0.9475000 1.7150000 0.7075000
v 0.9475000 0.9450000 0.6825000
v 0.9475000 0.9450000 0.7075000
v 0.9475000 1.7150000 0.7075000
v 0.9475000 0.9450000 0.6825000
v 0.9475000 1.7150000 0.7075000
v 0.9475000 1.7150000 0.6825000
v 0.9925000 0.9450000 0.6825000
v 0.9925000 1.7150000 0.6825000
v 0.9925000 1.7150000 0.7075000
v 0.9925000 0.9450000 0.6825000
v 0.9925000 1.7150000 0.7075000
v 0.9925000 0.9450000 0.7075000
v 0.9475000 0.9450000 0.6825000
v 0.9925000 0.9450000 0.6825000
v 0.9925000 0.9450000 0.7075000
v 0.9475000 0.9450000 0.6825000
v 0.9925000 0.9450000 0.7075000
v 0.9475000 0.9450000 0.7075000
v 0.9475000 1.7150000 0.6825000
v 0.9475000 1.7150000 0.7075000
v 0.9925000 1.7150000 0.7075000
v 0.9475000 1.7150000 0.6825000
v 0.9925000 1.7150000 0.7075000
v 0.9925000 1.7150000 0.6825000
v -1.1750000 0.2150000 0.6830000
v -1.1750000 0.3450000 0.6830000
v -0.8650000 0.3450000 0.6830000
v -1.1750000 0.2150000 0.6830000
v -0.8650000 0.3450000 0.6830000
v -0.8650000 0.2150000 0.6830000
v -1.1750000 0.2150000 0.7030000
v -0.8650000 0.2150000 0.7030000
v -0.8650000 0.3450000 0.7030000
v -1.1750000 0.2150000 0.7030000
v -0.8650000 0.3450000 0.7030000
v -1.1750000 0.3450000 0.7030000
v -1.1750000 0.2150000 0.6830000
v -1.1750000 0.2150000 0.7030000
v -1.1750000 0.3450000 0.7030000
v -1.1750000 0.2150000 0.6830000
v -1.1750000 0.3450000 0.7030000
v -1.1750000 0.3450000 0.6830000
v -0.8650000 0.2150000 0.6830000
v -0.8650000 0.3450000 0.6830000
v -0.8650000 0.3450000 0.7030000
v -0.8650000 0.2150000 0.6830000
v -0.8650000 0.3450000 0.7030000
v -0.8650000 0.2150000 0.7030000
v -1.1750000 0.2150000 0.6830000
v -0.8650000 0.2150000 0.6830000
v -0.8650000 0.2150000 0.7030000
v -1.1750000 0.2150000 0.6830000
v -0.8650000 0.2150000 0.7030000
v -1.1750000 0.2150000 0.7030000
v -1.1750000 0.3450000 0.6830000
v -1.1750000 0.3450000 0.7030000
v -0.8650000 0.3450000 0.7030000
v -1.1750000 0.3450000 0.6830000
v -0.8650000 0.3450000 0.7030000
v -0.8650000 0.3450000 0.6830000
v 0.7550000 0.3850000 0.6830000
v 0.7550000 0.5150000 0.6830000
v 1.0650000 0.5150000 0.6830000
v 0.7550000 0.3850000 0.6830000
v 1.0650000 0.5150000 0.6830000
v 1.0650000 0.3850000 0.6830000
v 0.7550000 0.3850000 0.7030000
v 1.0650000 0.3850000 0.7030000
v 1.0650000 0.5150000 0.7030000
v 0.7550000 0.3850000 0.7030000
v 1.0650000 0.5150000 0.7030000
v 0.7550000 0.5150000 0.7030000
v 0.7550000 0.3850000 0.6830000
v 0.7550000 0.3850000 0.7030000
v 0.7550000 0.5150000 0.7030000
v 0.7550000 0.3850000 0.6830000
v 0.7550000 0.5150000 0.7030000
v 0.7550000 0.5150000 0.6830000
v 1.0650000 0.3850000 0.6830000
v 1.0650000 0.5150000 0.6830000
v 1.0650000 0.5150000 0.7030000
v 1.0650000 0.3850000 0.6830000
v 1.0650000 0.5150000 0.7030000
v 1.0650000 0.3850000 0.7030000
v 0.7550000 0.3850000 0.6830000
v 1.0650000 0.3850000 0.6830000
v 1.0650000 0.3850000 0.7030000
v 0.7550000 0.3850000 0.6830000
v 1.0650000 0.3850000 0.7030000
v 0.7550000 0.3850000 0.7030000
v 0.7550000 0.5150000 0.6830000
v 0.7550000 0.5150000 0.7030000
v 1.0650000 0.5150000 0.7030000
v 0.7550000 0.5150000 0.6830000
v 1.0650000 0.5150000 0.7030000
v 1.0650000 0.5150000 0.6830000
v 0.1950000 1.4350000 0.6830000
v 0.1950000 1.5650000 0.6830000
v 0.5050000 1.5650000 0.6830000
v 0.1950000 1.4350000 0.6830000
v 0.5050000 1.5650000 0.6830000
v 0.5050000 1.4350000 0.6830000
v 0.1950000 1.4350000 0.7030000
v 0.5050000 1.4350000 0.7030000
v 0.5050000 1.5650000 0.7030000
v 0.1950000 1.4350000 0.7030000
v 0.5050000 1.5650000 0.7030000
v 0.1950000 1.5650000 0.7030000
v 0.1950000 1.4350000 0.6830000
v 0.1950000 1.4350000 0.7030000
v 0.1950000 1.5650000 0.7030000
v 0.1950000 1.4350000 0.6830000
v 0.1950000 1.5650000 0.7030000
v 0.1950000 1.5650000 0.6830000
v 0.5050000 1.4350000 0.6830000
v 0.5050000 1.5650000 0.6830000
v 0.5050000 1.5650000 0.7030000
v 0.5050000 1.4350000 0.6830000
v 0.5050000 1.5650000 0.7030000
v 0.5050000 1.4350000 0.7030000
v 0.1950000 1.4350000 0.6830000
v 0.5050000 1.4350000 0.6830000
v 0.5050000 1.4350000 0.7030000
v 0.1950000 1.4350000 0.6830000
v 0.5050000 1.4350000 0.7030000
v 0.1950000 1.4350000 0.7030000
v 0.1950000 1.5650000 0.6830000
v 0.1950000 1.5650000 0.7030000
v 0.5050000 1.5650000 0.7030000
v 0.1950000 1.5650000 0.6830000
v 0.5050000 1.5650000 0.7030000
v 0.5050000 1.5650000 0.6830000
v -0.6500000 1.1200000 0.6860000
v 0.6700000 1.4000000 0.6860000
v 0.1200000 1.0400000 0.6860000
v -0.1000000 1.1800000 0.6860000
v 0.4300000 1.5200000 0.6860000
v 0.1300000 1.8500000 0.6860000
v 0.4800000 1.4400000 0.6860000
v 0.8100000 1.5400000 0.6860000
v 0.6200000 1.7100000 0.6860000
v -1.1000000 1.1200000 0.6860000
v -0.5000000 1.5200000 0.6860000
v -0.7600000 1.8200000 0.6860000
v 0.6200000 1.1000000 0.6860000
v 0.9300000 1.2100000 0.6860000
v 1.1200000 1.8200000 0.6860000
vn 0.0000000 0.0000000 -1.0000000
vn 0.0000000 0.0000000 -1.0000000
vn 0.0000000 0.0000000 1.0000000
vn 0.0000000 0.0000000 1.0000000
vn -1.0000000 0.0000000 0.0000000
vn -1.0000000 0.0000000 0.0000000
vn 1.0000000 0.0000000 0.0000000
vn 1.0000000 0.0000000 0.0000000
vn 0.0000000 -1.0000000 0.0000000
vn 0.0000000 -1.0000000 0.0000000
vn 0.0000000 1.0000000 0.0000000
vn 0.0000000 1.0000000 0.0000000
vn 0.0000000 0.0000000 -1.0000000
vn 0.0000000 0.0000000 -1.0000000
vn 0.0000000 0.0000000 1.0000000
vn 0.0000000 0.0000000 1.0000000
vn -1.0000000 0.0000000 0.0000000
vn -1.0000000 0.0000000 0.0000000
vn 1.0000000 0.0000000 0.0000000
vn 1.0000000 0.0000000 0.0000000
vn 0.0000000 -1.0000000 0.0000000
vn 0.0000000 -1.0000000 0.0000000
vn 0.0000000 1.0000000 0.0000000
vn 0.0000000 1.0000000 0.0000000
vn 0.0000000 0.0000000 -1.0000000
vn 0.0000000 0.0000000 -1.0000000
vn 0.0000000 0.0000000 1.0000000
vn 0.0000000 0.0000000 1.0000000
vn -1.0000000 0.0000000 0.0000000
vn -1.0000000 0.0000000 0.0000000
vn 1.0000000 0.0000000 0.0000000
vn 1.0000000 0.0000000 0.0000000
vn 0.0000000 -1.0000000 0.0000000
vn 0.0000000 -1.0000000 0.0000000
vn 0.0000000 1.0000000 0.0000000
vn 0.0000000 1.0000000 0.0000000
vn 0.0000000 0.0000000 -1.0000000
vn 0.0000000 0.0000000 -1.0000000
vn 0.0000000 0.0000000 1.0000000
vn 0.0000000 0.0000000 1.0000000
vn -1.0000000 0.0000000 0.0000000
vn -1.0000000 0.0000000 0.0000000
vn 1.0000000 0.0000000 0.0000000
vn 1.0000000 0.0000000 0.0000000
vn 0.0000000 -1.0000000 0.0000000
vn 0.0000000 -1.0000000 0.0000000
vn 0.0000000 1.0000000 0.0000000
vn 0.0000000 1.0000000 0.0000000
vn 0.0000000 0.0000000 -1.0000000
vn 0.0000000 0.0000000 1.0000000
vn 0.0000000 0.0000000 -1.0000000
vn 0.0000000 0.0000000 1.0000000
vn 0.0000000 -1.0000000 0.0000000
vn 0.0000000 -1.0000000 0.0000000
vn 1.0000000 0.0000000 0.0000000
vn 1.0000000 0.0000000 0.0000000
vn 0.0000000 1.0000000 0.0000000
vn 0.0000000 1.0000000 0.0000000
vn -1.0000000 0.0000000 0.0000000
vn -1.0000000 0.0000000 0.0000000
vn 0.0000000 0.0000000 -1.0000000
vn 0.0000000 0.0000000 -1.0000000
vn 0.0000000 0.0000000 1.0000000
vn 0.0000000 0.0000000 1.0000000
vn -1.0000000 0.0000000 0.0000000
vn -1.0000000 0.0000000 0.0000000
vn 1.0000000 0.0000000 0.0000000
vn 1.0000000 0.0000000 0.0000000
vn 0.0000000 -1.0000000 0.0000000
vn 0.0000000 -1.0000000 0.0000000
vn 0.0000000 1.0000000 0.0000000
vn 0.0000000 1.0000000 0.0000000
vn 0.0000000 0.0000000 -1.0000000
vn 0.0000000 0.0000000 -1.0000000
vn 0.0000000 0.0000000 1.0000000
vn 0.0000000 0.0000000 1.0000000
vn -1.0000000 0.0000000 0.0000000
vn -1.0000000 0.0000000 0.0000000
vn 1.0000000 0.0000000 0.0000000
vn 1.0000000 0.0000000 0.0000000
vn 0.0000000 -1.0000000 0.0000000
vn 0.0000000 -1.0000000 0.0000000
vn 0.0000000 1.0000000 0.0000000
vn 0.0000000 1.0000000 0.0000000
vn 0.0000000 0.0000000 -1.0000000
vn 0.0000000 0.0000000 -1.0000000
vn 0.0000000 0.0000000 1.0000000
vn 0.0000000 0.0000000 1.0000000
vn -1.0000000 0.0000000 0.0000000
vn -1.0000000 0.0000000 0.0000000
vn 1.0000000 0.0000000 0.0000000
vn 1.0000000 0.0000000 0.0000000
vn 0.0000000 -1.0000000 0.0000000
vn 0.0000000 -1.0000000 0.0000000
vn 0.0000000 1.0000000 0.0000000
vn 0.0000000 1.0000000 0.0000000
vn 0.0000000 0.0000000 -1.0000000
vn 0.0000000 0.0000000 -1.0000000
vn 0.0000000 0.0000000 1.0000000
vn 0.0000000 0.0000000 1.0000000
vn -1.0000000 0.0000000 0.0000000
vn -1.0000000 0.0000000 0.0000000
vn 1.0000000 0.0000000 0.0000000
vn 1.0000000 0.0000000 0.0000000
vn 0.0000000 -1.0000000 0.0000000
vn 0.0000000 -1.0000000 0.0000000
vn 0.0000000 1.0000000 0.0000000
vn 0.0000000 1.0000000 0.0000000
vn 0.0000000 0.0000000 -1.0000000
vn 0.0000000 0.0000000 -1.0000000
vn 0.0000000 0.0000000 1.0000000
vn 0.0000000 0.0000000 1.0000000
vn -1.0000000 0.0000000 0.0000000
vn -1.0000000 0.0000000 0.0000000
vn 1.0000000 0.0000000 0.0000000
vn 1.0000000 0.0000000 0.0000000
vn 0.0000000 -1.0000000 0.0000000
vn 0.0000000 -1.0000000 0.0000000
vn 0.0000000 1.0000000 0.0000000
vn 0.0000000 1.0000000 0.0000000
vn 0.0000000 0.0000000 -1.0000000
vn 0.0000000 0.0000000 -1.0000000
vn 0.0000000 0.0000000 1.0000000
vn 0.0000000 0.0000000 1.0000000
vn -1.0000000 0.0000000 0.0000000
vn -1.0000000 0.0000000 0.0000000
vn 1.0000000 0.0000000 0.0000000
vn 1.0000000 0.0000000 0.0000000
vn 0.0000000 -1.0000000 0.0000000
vn 0.0000000 -1.0000000 0.0000000
vn 0.0000000 1.0000000 0.0000000
vn 0.0000000 1.0000000 0.0000000
vn 0.0000000 0.0000000 -1.0000000
vn 0.0000000 0.0000000 -1.0000000
vn 0.0000000 0.0000000 1.0000000
vn 0.0000000 0.0000000 1.0000000
vn -1.0000000 0.0000000 0.0000000
vn -1.0000000 0.0000000 0.0000000
vn 1.0000000 0.0000000 0.0000000
vn 1.0000000 0.0000000 0.0000000
vn 0.0000000 -1.0000000 0.0000000
vn 0.0000000 -1.0000000 0.0000000
vn 0.0000000 1.0000000 0.0000000
vn 0.0000000 1.0000000 0.0000000
vn 0.0000000 0.0000000 -1.0000000
vn 0.0000000 0.0000000 -1.0000000
vn 0.0000000 0.0000000 1.0000000
vn 0.0000000 0.0000000 1.0000000
vn -1.0000000 0.0000000 0.0000000
vn -1.0000000 0.0000000 0.0000000
vn 1.0000000 0.0000000 0.0000000
vn 1.0000000 0.0000000 0.0000000
vn 0.0000000 -1.0000000 0.0000000
vn 0.0000000 -1.0000000 0.0000000
vn 0.0000000 1.0000000 0.0000000
vn 0.0000000 1.0000000 0.0000000
vn 0.0000000 0.0000000 -1.0000000
vn 0.0000000 0.0000000 -1.0000000
vn 0.0000000 0.0000000 1.0000000
vn 0.0000000 0.0000000 1.0000000
vn -1.0000000 0.0000000 0.0000000
vn -1.0000000 0.0000000 0.0000000
vn 1.0000000 0.0000000 0.0000000
vn 1.0000000 0.0000000 0.0000000
vn 0.0000000 -1.0000000 0.0000000
vn 0.0000000 -1.0000000 0.0000000
vn 0.0000000 1.0000000 0.0000000
vn 0.0000000 1.0000000 0.0000000
vn 0.0000000 0.0000000 -1.0000000
vn 0.0000000 0.0000000 -1.0000000
vn 0.0000000 0.0000000 1.0000000
vn 0.0000000 0.0000000 1.0000000
vn -1.0000000 0.0000000 0.0000000
vn -1.0000000 0.0000000 0.0000000
vn 1.0000000 0.0000000 0.0000000
vn 1.0000000 0.0000000 0.0000000
vn 0.0000000 -1.0000000 0.0000000
vn 0.0000000 -1.0000000 0.0000000
vn 0.0000000 1.0000000 0.0000000
vn 0.0000000 1.0000000 0.0000000
vn 0.0000000 0.0000000 -1.0000000
vn 0.0000000 0.0000000 -1.0000000
vn 0.0000000 0.0000000 1.0000000
vn 0.0000000 0.0000000 1.0000000
vn -1.0000000 0.0000000 0.0000000
vn -1.0000000 0.0000000 0.0000000
vn 1.0000000 0.0000000 0.0000000
vn 1.0000000 0.0000000 0.0000000
vn 0.0000000 -1.0000000 0.0000000
vn 0.0000000 -1.0000000 0.0000000
vn 0.0000000 1.0000000 0.0000000
vn 0.0000000 1.0000000 0.0000000
vn 0.0000000 0.0000000 -1.0000000
vn 0.0000000 0.0000000 1.0000000
vn 0.0000000 0.0000000 1.0000000
vn 0.0000000 0.0000000 1.0000000
vn 0.0000000 0.0000000 1.0000000
usemtl concrete_dark
f 1//1 2//1 3//1
usemtl concrete_dark
f 4//2 5//2 6//2
usemtl concrete_dark
f 7//3 8//3 9//3
usemtl concrete_dark
f 10//4 11//4 12//4
usemtl concrete_dark
f 13//5 14//5 15//5
usemtl concrete_dark
f 16//6 17//6 18//6
usemtl concrete_dark
f 19//7 20//7 21//7
usemtl concrete_dark
f 22//8 23//8 24//8
usemtl concrete_dark
f 25//9 26//9 27//9
usemtl concrete_dark
f 28//10 29//10 30//10
usemtl concrete_dark
f 31//11 32//11 33//11
usemtl concrete_dark
f 34//12 35//12 36//12
usemtl plaster_worn
f 37//13 38//13 39//13
usemtl plaster_worn
f 40//14 41//14 42//14
usemtl plaster_worn
f 43//15 44//15 45//15
usemtl plaster_worn
f 46//16 47//16 48//16
usemtl plaster_worn
f 49//17 50//17 51//17
usemtl plaster_worn
f 52//18 53//18 54//18
usemtl plaster_worn
f 55//19 56//19 57//19
usemtl plaster_worn
f 58//20 59//20 60//20
usemtl plaster_worn
f 61//21 62//21 63//21
usemtl plaster_worn
f 64//22 65//22 66//22
usemtl plaster_worn
f 67//23 68//23 69//23
usemtl plaster_worn
f 70//24 71//24 72//24
usemtl plaster
f 73//25 74//25 75//25
usemtl plaster
f 76//26 77//26 78//26
usemtl plaster
f 79//27 80//27 81//27
usemtl plaster
f 82//28 83//28 84//28
usemtl plaster
f 85//29 86//29 87//29
usemtl plaster
f 88//30 89//30 90//30
usemtl plaster
f 91//31 92//31 93//31
usemtl plaster
f 94//32 95//32 96//32
usemtl plaster
f 97//33 98//33 99//33
usemtl plaster
f 100//34 101//34 102//34
usemtl plaster
f 103//35 104//35 105//35
usemtl plaster
f 106//36 107//36 108//36
usemtl plaster
f 109//37 110//37 111//37
usemtl plaster
f 112//38 113//38 114//38
usemtl plaster
f 115//39 116//39 117//39
usemtl plaster
f 118//40 119//40 120//40
usemtl plaster
f 121//41 122//41 123//41
usemtl plaster
f 124//42 125//42 126//42
usemtl plaster
f 127//43 128//43 129//43
usemtl plaster
f 130//44 131//44 132//44
usemtl plaster
f 133//45 134//45 135//45
usemtl plaster
f 136//46 137//46 138//46
usemtl plaster
f 139//47 140//47 141//47
usemtl plaster
f 142//48 143//48 144//48
usemtl roof
f 145//49 146//49 147//49
usemtl roof
f 148//50 149//50 150//50
usemtl roof
f 151//51 152//51 153//51
usemtl roof
f 154//52 155//52 156//52
usemtl roof
f 157//53 158//53 159//53
usemtl roof
f 160//54 161//54 162//54
usemtl roof
f 163//55 164//55 165//55
usemtl roof
f 166//56 167//56 168//56
usemtl roof
f 169//57 170//57 171//57
usemtl roof
f 172//58 173//58 174//58
usemtl roof
f 175//59 176//59 177//59
usemtl roof
f 178//60 179//60 180//60
usemtl blue
f 181//61 182//61 183//61
usemtl blue
f 184//62 185//62 186//62
usemtl blue
f 187//63 188//63 189//63
usemtl blue
f 190//64 191//64 192//64
usemtl blue
f 193//65 194//65 195//65
usemtl blue
f 196//66 197//66 198//66
usemtl blue
f 199//67 200//67 201//67
usemtl blue
f 202//68 203//68 204//68
usemtl blue
f 205//69 206//69 207//69
usemtl blue
f 208//70 209//70 210//70
usemtl blue
f 211//71 212//71 213//71
usemtl blue
f 214//72 215//72 216//72
usemtl wood
f 217//73 218//73 219//73
usemtl wood
f 220//74 221//74 222//74
usemtl wood
f 223//75 224//75 225//75
usemtl wood
f 226//76 227//76 228//76
usemtl wood
f 229//77 230//77 231//77
usemtl wood
f 232//78 233//78 234//78
usemtl wood
f 235//79 236//79 237//79
usemtl wood
f 238//80 239//80 240//80
usemtl wood
f 241//81 242//81 243//81
usemtl wood
f 244//82 245//82 246//82
usemtl wood
f 247//83 248//83 249//83
usemtl wood
f 250//84 251//84 252//84
usemtl wood_light
f 253//85 254//85 255//85
usemtl wood_light
f 256//86 257//86 258//86
usemtl wood_light
f 259//87 260//87 261//87
usemtl wood_light
f 262//88 263//88 264//88
usemtl wood_light
f 265//89 266//89 267//89
usemtl wood_light
f 268//90 269//90 270//90
usemtl wood_light
f 271//91 272//91 273//91
usemtl wood_light
f 274//92 275//92 276//92
usemtl wood_light
f 277//93 278//93 279//93
usemtl wood_light
f 280//94 281//94 282//94
usemtl wood_light
f 283//95 284//95 285//95
usemtl wood_light
f 286//96 287//96 288//96
usemtl steel_dark
f 289//97 290//97 291//97
usemtl steel_dark
f 292//98 293//98 294//98
usemtl steel_dark
f 295//99 296//99 297//99
usemtl steel_dark
f 298//100 299//100 300//100
usemtl steel_dark
f 301//101 302//101 303//101
usemtl steel_dark
f 304//102 305//102 306//102
usemtl steel_dark
f 307//103 308//103 309//103
usemtl steel_dark
f 310//104 311//104 312//104
usemtl steel_dark
f 313//105 314//105 315//105
usemtl steel_dark
f 316//106 317//106 318//106
usemtl steel_dark
f 319//107 320//107 321//107
usemtl steel_dark
f 322//108 323//108 324//108
usemtl steel_dark
f 325//109 326//109 327//109
usemtl steel_dark
f 328//110 329//110 330//110
usemtl steel_dark
f 331//111 332//111 333//111
usemtl steel_dark
f 334//112 335//112 336//112
usemtl steel_dark
f 337//113 338//113 339//113
usemtl steel_dark
f 340//114 341//114 342//114
usemtl steel_dark
f 343//115 344//115 345//115
usemtl steel_dark
f 346//116 347//116 348//116
usemtl steel_dark
f 349//117 350//117 351//117
usemtl steel_dark
f 352//118 353//118 354//118
usemtl steel_dark
f 355//119 356//119 357//119
usemtl steel_dark
f 358//120 359//120 360//120
usemtl blue_dark
f 361//121 362//121 363//121
usemtl blue_dark
f 364//122 365//122 366//122
usemtl blue_dark
f 367//123 368//123 369//123
usemtl blue_dark
f 370//124 371//124 372//124
usemtl blue_dark
f 373//125 374//125 375//125
usemtl blue_dark
f 376//126 377//126 378//126
usemtl blue_dark
f 379//127 380//127 381//127
usemtl blue_dark
f 382//128 383//128 384//128
usemtl blue_dark
f 385//129 386//129 387//129
usemtl blue_dark
f 388//130 389//130 390//130
usemtl blue_dark
f 391//131 392//131 393//131
usemtl blue_dark
f 394//132 395//132 396//132
usemtl blue_dark
f 397//133 398//133 399//133
usemtl blue_dark
f 400//134 401//134 402//134
usemtl blue_dark
f 403//135 404//135 405//135
usemtl blue_dark
f 406//136 407//136 408//136
usemtl blue_dark
f 409//137 410//137 411//137
usemtl blue_dark
f 412//138 413//138 414//138
usemtl blue_dark
f 415//139 416//139 417//139
usemtl blue_dark
f 418//140 419//140 420//140
usemtl blue_dark
f 421//141 422//141 423//141
usemtl blue_dark
f 424//142 425//142 426//142
usemtl blue_dark
f 427//143 428//143 429//143
usemtl blue_dark
f 430//144 431//144 432//144
usemtl blue_dark
f 433//145 434//145 435//145
usemtl blue_dark
f 436//146 437//146 438//146
usemtl blue_dark
f 439//147 440//147 441//147
usemtl blue_dark
f 442//148 443//148 444//148
usemtl blue_dark
f 445//149 446//149 447//149
usemtl blue_dark
f 448//150 449//150 450//150
usemtl blue_dark
f 451//151 452//151 453//151
usemtl blue_dark
f 454//152 455//152 456//152
usemtl blue_dark
f 457//153 458//153 459//153
usemtl blue_dark
f 460//154 461//154 462//154
usemtl blue_dark
f 463//155 464//155 465//155
usemtl blue_dark
f 466//156 467//156 468//156
usemtl plaster
f 469//157 470//157 471//157
usemtl plaster
f 472//158 473//158 474//158
usemtl plaster
f 475//159 476//159 477//159
usemtl plaster
f 478//160 479//160 480//160
usemtl plaster
f 481//161 482//161 483//161
usemtl plaster
f 484//162 485//162 486//162
usemtl plaster
f 487//163 488//163 489//163
usemtl plaster
f 490//164 491//164 492//164
usemtl plaster
f 493//165 494//165 495//165
usemtl plaster
f 496//166 497//166 498//166
usemtl plaster
f 499//167 500//167 501//167
usemtl plaster
f 502//168 503//168 504//168
usemtl plaster
f 505//169 506//169 507//169
usemtl plaster
f 508//170 509//170 510//170
usemtl plaster
f 511//171 512//171 513//171
usemtl plaster
f 514//172 515//172 516//172
usemtl plaster
f 517//173 518//173 519//173
usemtl plaster
f 520//174 521//174 522//174
usemtl plaster
f 523//175 524//175 525//175
usemtl plaster
f 526//176 527//176 528//176
usemtl plaster
f 529//177 530//177 531//177
usemtl plaster
f 532//178 533//178 534//178
usemtl plaster
f 535//179 536//179 537//179
usemtl plaster
f 538//180 539//180 540//180
usemtl plaster
f 541//181 542//181 543//181
usemtl plaster
f 544//182 545//182 546//182
usemtl plaster
f 547//183 548//183 549//183
usemtl plaster
f 550//184 551//184 552//184
usemtl plaster
f 553//185 554//185 555//185
usemtl plaster
f 556//186 557//186 558//186
usemtl plaster
f 559//187 560//187 561//187
usemtl plaster
f 562//188 563//188 564//188
usemtl plaster
f 565//189 566//189 567//189
usemtl plaster
f 568//190 569//190 570//190
usemtl plaster
f 571//191 572//191 573//191
usemtl plaster
f 574//192 575//192 576//192
usemtl blue_dark
f 577//193 578//193 579//193
usemtl blue
f 580//194 581//194 582//194
usemtl wheat
f 583//195 584//195 585//195
usemtl leaf_dark
f 586//196 587//196 588//196
usemtl leaf
f 589//197 590//197 591//197
