# Original Quiet Camp environment study; NOT a downloaded Sketchfab donor
# Units: metres; Y up; no external geometry or textures
mtllib palette.mtl
o ua_beehive
v -0.3250000 0.0000000 -0.3100000
v -0.3250000 0.3000000 -0.3100000
v -0.2350000 0.3000000 -0.3100000
v -0.3250000 0.0000000 -0.3100000
v -0.2350000 0.3000000 -0.3100000
v -0.2350000 0.0000000 -0.3100000
v -0.3250000 0.0000000 0.3100000
v -0.2350000 0.0000000 0.3100000
v -0.2350000 0.3000000 0.3100000
v -0.3250000 0.0000000 0.3100000
v -0.2350000 0.3000000 0.3100000
v -0.3250000 0.3000000 0.3100000
v -0.3250000 0.0000000 -0.3100000
v -0.3250000 0.0000000 0.3100000
v -0.3250000 0.3000000 0.3100000
v -0.3250000 0.0000000 -0.3100000
v -0.3250000 0.3000000 0.3100000
v -0.3250000 0.3000000 -0.3100000
v -0.2350000 0.0000000 -0.3100000
v -0.2350000 0.3000000 -0.3100000
v -0.2350000 0.3000000 0.3100000
v -0.2350000 0.0000000 -0.3100000
v -0.2350000 0.3000000 0.3100000
v -0.2350000 0.0000000 0.3100000
v -0.3250000 0.0000000 -0.3100000
v -0.2350000 0.0000000 -0.3100000
v -0.2350000 0.0000000 0.3100000
v -0.3250000 0.0000000 -0.3100000
v -0.2350000 0.0000000 0.3100000
v -0.3250000 0.0000000 0.3100000
v -0.3250000 0.3000000 -0.3100000
v -0.3250000 0.3000000 0.3100000
v -0.2350000 0.3000000 0.3100000
v -0.3250000 0.3000000 -0.3100000
v -0.2350000 0.3000000 0.3100000
v -0.2350000 0.3000000 -0.3100000
v 0.2350000 0.0000000 -0.3100000
v 0.2350000 0.3000000 -0.3100000
v 0.3250000 0.3000000 -0.3100000
v 0.2350000 0.0000000 -0.3100000
v 0.3250000 0.3000000 -0.3100000
v 0.3250000 0.0000000 -0.3100000
v 0.2350000 0.0000000 0.3100000
v 0.3250000 0.0000000 0.3100000
v 0.3250000 0.3000000 0.3100000
v 0.2350000 0.0000000 0.3100000
v 0.3250000 0.3000000 0.3100000
v 0.2350000 0.3000000 0.3100000
v 0.2350000 0.0000000 -0.3100000
v 0.2350000 0.0000000 0.3100000
v 0.2350000 0.3000000 0.3100000
v 0.2350000 0.0000000 -0.3100000
v 0.2350000 0.3000000 0.3100000
v 0.2350000 0.3000000 -0.3100000
v 0.3250000 0.0000000 -0.3100000
v 0.3250000 0.3000000 -0.3100000
v 0.3250000 0.3000000 0.3100000
v 0.3250000 0.0000000 -0.3100000
v 0.3250000 0.3000000 0.3100000
v 0.3250000 0.0000000 0.3100000
v 0.2350000 0.0000000 -0.3100000
v 0.3250000 0.0000000 -0.3100000
v 0.3250000 0.0000000 0.3100000
v 0.2350000 0.0000000 -0.3100000
v 0.3250000 0.0000000 0.3100000
v 0.2350000 0.0000000 0.3100000
v 0.2350000 0.3000000 -0.3100000
v 0.2350000 0.3000000 0.3100000
v 0.3250000 0.3000000 0.3100000
v 0.2350000 0.3000000 -0.3100000
v 0.3250000 0.3000000 0.3100000
v 0.3250000 0.3000000 -0.3100000
v -0.3500000 0.3175000 -0.3000000
v -0.3500000 0.5225000 -0.3000000
v 0.3500000 0.5225000 -0.3000000
v -0.3500000 0.3175000 -0.3000000
v 0.3500000 0.5225000 -0.3000000
v 0.3500000 0.3175000 -0.3000000
v -0.3500000 0.3175000 0.3000000
v 0.3500000 0.3175000 0.3000000
v 0.3500000 0.5225000 0.3000000
v -0.3500000 0.3175000 0.3000000
v 0.3500000 0.5225000 0.3000000
v -0.3500000 0.5225000 0.3000000
v -0.3500000 0.3175000 -0.3000000
v -0.3500000 0.3175000 0.3000000
v -0.3500000 0.5225000 0.3000000
v -0.3500000 0.3175000 -0.3000000
v -0.3500000 0.5225000 0.3000000
v -0.3500000 0.5225000 -0.3000000
v 0.3500000 0.3175000 -0.3000000
v 0.3500000 0.5225000 -0.3000000
v 0.3500000 0.5225000 0.3000000
v 0.3500000 0.3175000 -0.3000000
v 0.3500000 0.5225000 0.3000000
v 0.3500000 0.3175000 0.3000000
v -0.3500000 0.3175000 -0.3000000
v 0.3500000 0.3175000 -0.3000000
v 0.3500000 0.3175000 0.3000000
v -0.3500000 0.3175000 -0.3000000
v 0.3500000 0.3175000 0.3000000
v -0.3500000 0.3175000 0.3000000
v -0.3500000 0.5225000 -0.3000000
v -0.3500000 0.5225000 0.3000000
v 0.3500000 0.5225000 0.3000000
v -0.3500000 0.5225000 -0.3000000
v 0.3500000 0.5225000 0.3000000
v 0.3500000 0.5225000 -0.3000000
v -0.3500000 0.5375000 -0.3000000
v -0.3500000 0.7425000 -0.3000000
v 0.3500000 0.7425000 -0.3000000
v -0.3500000 0.5375000 -0.3000000
v 0.3500000 0.7425000 -0.3000000
v 0.3500000 0.5375000 -0.3000000
v -0.3500000 0.5375000 0.3000000
v 0.3500000 0.5375000 0.3000000
v 0.3500000 0.7425000 0.3000000
v -0.3500000 0.5375000 0.3000000
v 0.3500000 0.7425000 0.3000000
v -0.3500000 0.7425000 0.3000000
v -0.3500000 0.5375000 -0.3000000
v -0.3500000 0.5375000 0.3000000
v -0.3500000 0.7425000 0.3000000
v -0.3500000 0.5375000 -0.3000000
v -0.3500000 0.7425000 0.3000000
v -0.3500000 0.7425000 -0.3000000
v 0.3500000 0.5375000 -0.3000000
v 0.3500000 0.7425000 -0.3000000
v 0.3500000 0.7425000 0.3000000
v 0.3500000 0.5375000 -0.3000000
v 0.3500000 0.7425000 0.3000000
v 0.3500000 0.5375000 0.3000000
v -0.3500000 0.5375000 -0.3000000
v 0.3500000 0.5375000 -0.3000000
v 0.3500000 0.5375000 0.3000000
v -0.3500000 0.5375000 -0.3000000
v 0.3500000 0.5375000 0.3000000
v -0.3500000 0.5375000 0.3000000
v -0.3500000 0.7425000 -0.3000000
v -0.3500000 0.7425000 0.3000000
v 0.3500000 0.7425000 0.3000000
v -0.3500000 0.7425000 -0.3000000
v 0.3500000 0.7425000 0.3000000
v 0.3500000 0.7425000 -0.3000000
v -0.3500000 0.7575000 -0.3000000
v -0.3500000 0.9625000 -0.3000000
v 0.3500000 0.9625000 -0.3000000
v -0.3500000 0.7575000 -0.3000000
v 0.3500000 0.9625000 -0.3000000
v 0.3500000 0.7575000 -0.3000000
v -0.3500000 0.7575000 0.3000000
v 0.3500000 0.7575000 0.3000000
v 0.3500000 0.9625000 0.3000000
v -0.3500000 0.7575000 0.3000000
v 0.3500000 0.9625000 0.3000000
v -0.3500000 0.9625000 0.3000000
v -0.3500000 0.7575000 -0.3000000
v -0.3500000 0.7575000 0.3000000
v -0.3500000 0.9625000 0.3000000
v -0.3500000 0.7575000 -0.3000000
v -0.3500000 0.9625000 0.3000000
v -0.3500000 0.9625000 -0.3000000
v 0.3500000 0.7575000 -0.3000000
v 0.3500000 0.9625000 -0.3000000
v 0.3500000 0.9625000 0.3000000
v 0.3500000 0.7575000 -0.3000000
v 0.3500000 0.9625000 0.3000000
v 0.3500000 0.7575000 0.3000000
v -0.3500000 0.7575000 -0.3000000
v 0.3500000 0.7575000 -0.3000000
v 0.3500000 0.7575000 0.3000000
v -0.3500000 0.7575000 -0.3000000
v 0.3500000 0.7575000 0.3000000
v -0.3500000 0.7575000 0.3000000
v -0.3500000 0.9625000 -0.3000000
v -0.3500000 0.9625000 0.3000000
v 0.3500000 0.9625000 0.3000000
v -0.3500000 0.9625000 -0.3000000
v 0.3500000 0.9625000 0.3000000
v 0.3500000 0.9625000 -0.3000000
v -0.4050000 0.9750000 -0.3650000
v -0.4050000 1.0650000 -0.3650000
v 0.4050000 1.0650000 -0.3650000
v -0.4050000 0.9750000 -0.3650000
v 0.4050000 1.0650000 -0.3650000
v 0.4050000 0.9750000 -0.3650000
v -0.4050000 0.9750000 0.3650000
v 0.4050000 0.9750000 0.3650000
v 0.4050000 1.0650000 0.3650000
v -0.4050000 0.9750000 0.3650000
v 0.4050000 1.0650000 0.3650000
v -0.4050000 1.0650000 0.3650000
v -0.4050000 0.9750000 -0.3650000
v -0.4050000 0.9750000 0.3650000
v -0.4050000 1.0650000 0.3650000
v -0.4050000 0.9750000 -0.3650000
v -0.4050000 1.0650000 0.3650000
v -0.4050000 1.0650000 -0.3650000
v 0.4050000 0.9750000 -0.3650000
v 0.4050000 1.0650000 -0.3650000
v 0.4050000 1.0650000 0.3650000
v 0.4050000 0.9750000 -0.3650000
v 0.4050000 1.0650000 0.3650000
v 0.4050000 0.9750000 0.3650000
v -0.4050000 0.9750000 -0.3650000
v 0.4050000 0.9750000 -0.3650000
v 0.4050000 0.9750000 0.3650000
v -0.4050000 0.9750000 -0.3650000
v 0.4050000 0.9750000 0.3650000
v -0.4050000 0.9750000 0.3650000
v -0.4050000 1.0650000 -0.3650000
v -0.4050000 1.0650000 0.3650000
v 0.4050000 1.0650000 0.3650000
v -0.4050000 1.0650000 -0.3650000
v 0.4050000 1.0650000 0.3650000
v 0.4050000 1.0650000 -0.3650000
v -0.1700000 0.3375000 -0.3225000
v -0.1700000 0.3825000 -0.3225000
v 0.1700000 0.3825000 -0.3225000
v -0.1700000 0.3375000 -0.3225000
v 0.1700000 0.3825000 -0.3225000
v 0.1700000 0.3375000 -0.3225000
v -0.1700000 0.3375000 -0.2975000
v 0.1700000 0.3375000 -0.2975000
v 0.1700000 0.3825000 -0.2975000
v -0.1700000 0.3375000 -0.2975000
v 0.1700000 0.3825000 -0.2975000
v -0.1700000 0.3825000 -0.2975000
v -0.1700000 0.3375000 -0.3225000
v -0.1700000 0.3375000 -0.2975000
v -0.1700000 0.3825000 -0.2975000
v -0.1700000 0.3375000 -0.3225000
v -0.1700000 0.3825000 -0.2975000
v -0.1700000 0.3825000 -0.3225000
v 0.1700000 0.3375000 -0.3225000
v 0.1700000 0.3825000 -0.3225000
v 0.1700000 0.3825000 -0.2975000
v 0.1700000 0.3375000 -0.3225000
v 0.1700000 0.3825000 -0.2975000
v 0.1700000 0.3375000 -0.2975000
v -0.1700000 0.3375000 -0.3225000
v 0.1700000 0.3375000 -0.3225000
v 0.1700000 0.3375000 -0.2975000
v -0.1700000 0.3375000 -0.3225000
v 0.1700000 0.3375000 -0.2975000
v -0.1700000 0.3375000 -0.2975000
v -0.1700000 0.3825000 -0.3225000
v -0.1700000 0.3825000 -0.2975000
v 0.1700000 0.3825000 -0.2975000
v -0.1700000 0.3825000 -0.3225000
v 0.1700000 0.3825000 -0.2975000
v 0.1700000 0.3825000 -0.3225000
v -0.1900000 0.2975000 -0.4550000
v -0.1900000 0.3425000 -0.4550000
v 0.1900000 0.3425000 -0.4550000
v -0.1900000 0.2975000 -0.4550000
v 0.1900000 0.3425000 -0.4550000
v 0.1900000 0.2975000 -0.4550000
v -0.1900000 0.2975000 -0.3050000
v 0.1900000 0.2975000 -0.3050000
v 0.1900000 0.3425000 -0.3050000
v -0.1900000 0.2975000 -0.3050000
v 0.1900000 0.3425000 -0.3050000
v -0.1900000 0.3425000 -0.3050000
v -0.1900000 0.2975000 -0.4550000
v -0.1900000 0.2975000 -0.3050000
v -0.1900000 0.3425000 -0.3050000
v -0.1900000 0.2975000 -0.4550000
v -0.1900000 0.3425000 -0.3050000
v -0.1900000 0.3425000 -0.4550000
v 0.1900000 0.2975000 -0.4550000
v 0.1900000 0.3425000 -0.4550000
v 0.1900000 0.3425000 -0.3050000
v 0.1900000 0.2975000 -0.4550000
v 0.1900000 0.3425000 -0.3050000
v 0.1900000 0.2975000 -0.3050000
v -0.1900000 0.2975000 -0.4550000
v 0.1900000 0.2975000 -0.4550000
v 0.1900000 0.2975000 -0.3050000
v -0.1900000 0.2975000 -0.4550000
v 0.1900000 0.2975000 -0.3050000
v -0.1900000 0.2975000 -0.3050000
v -0.1900000 0.3425000 -0.4550000
v -0.1900000 0.3425000 -0.3050000
v 0.1900000 0.3425000 -0.3050000
v -0.1900000 0.3425000 -0.4550000
v 0.1900000 0.3425000 -0.3050000
v 0.1900000 0.3425000 -0.4550000
vn 0.0000000 0.0000000 -1.0000000
vn 0.0000000 0.0000000 -1.0000000
vn 0.0000000 0.0000000 1.0000000
vn 0.0000000 0.0000000 1.0000000
vn -1.0000000 0.0000000 0.0000000
vn -1.0000000 0.0000000 0.0000000
vn 1.0000000 0.0000000 0.0000000
vn 1.0000000 0.0000000 0.0000000
vn 0.0000000 -1.0000000 0.0000000
vn 0.0000000 -1.0000000 0.0000000
vn 0.0000000 1.0000000 0.0000000
vn 0.0000000 1.0000000 0.0000000
vn 0.0000000 0.0000000 -1.0000000
vn 0.0000000 0.0000000 -1.0000000
vn 0.0000000 0.0000000 1.0000000
vn 0.0000000 0.0000000 1.0000000
vn -1.0000000 0.0000000 0.0000000
vn -1.0000000 0.0000000 0.0000000
vn 1.0000000 0.0000000 0.0000000
vn 1.0000000 0.0000000 0.0000000
vn 0.0000000 -1.0000000 0.0000000
vn 0.0000000 -1.0000000 0.0000000
vn 0.0000000 1.0000000 0.0000000
vn 0.0000000 1.0000000 0.0000000
vn 0.0000000 0.0000000 -1.0000000
vn 0.0000000 0.0000000 -1.0000000
vn 0.0000000 0.0000000 1.0000000
vn 0.0000000 0.0000000 1.0000000
vn -1.0000000 0.0000000 0.0000000
vn -1.0000000 0.0000000 0.0000000
vn 1.0000000 0.0000000 0.0000000
vn 1.0000000 0.0000000 0.0000000
vn 0.0000000 -1.0000000 0.0000000
vn 0.0000000 -1.0000000 0.0000000
vn 0.0000000 1.0000000 0.0000000
vn 0.0000000 1.0000000 0.0000000
vn 0.0000000 0.0000000 -1.0000000
vn 0.0000000 0.0000000 -1.0000000
vn 0.0000000 0.0000000 1.0000000
vn 0.0000000 0.0000000 1.0000000
vn -1.0000000 0.0000000 0.0000000
vn -1.0000000 0.0000000 0.0000000
vn 1.0000000 0.0000000 0.0000000
vn 1.0000000 0.0000000 0.0000000
vn 0.0000000 -1.0000000 0.0000000
vn 0.0000000 -1.0000000 0.0000000
vn 0.0000000 1.0000000 0.0000000
vn 0.0000000 1.0000000 0.0000000
vn 0.0000000 0.0000000 -1.0000000
vn 0.0000000 0.0000000 -1.0000000
vn 0.0000000 0.0000000 1.0000000
vn 0.0000000 0.0000000 1.0000000
vn -1.0000000 0.0000000 0.0000000
vn -1.0000000 0.0000000 0.0000000
vn 1.0000000 0.0000000 0.0000000
vn 1.0000000 0.0000000 0.0000000
vn 0.0000000 -1.0000000 0.0000000
vn 0.0000000 -1.0000000 0.0000000
vn 0.0000000 1.0000000 0.0000000
vn 0.0000000 1.0000000 0.0000000
vn 0.0000000 0.0000000 -1.0000000
vn 0.0000000 0.0000000 -1.0000000
vn 0.0000000 0.0000000 1.0000000
vn 0.0000000 0.0000000 1.0000000
vn -1.0000000 0.0000000 0.0000000
vn -1.0000000 0.0000000 0.0000000
vn 1.0000000 0.0000000 0.0000000
vn 1.0000000 0.0000000 0.0000000
vn 0.0000000 -1.0000000 0.0000000
vn 0.0000000 -1.0000000 0.0000000
vn 0.0000000 1.0000000 0.0000000
vn 0.0000000 1.0000000 0.0000000
vn 0.0000000 0.0000000 -1.0000000
vn 0.0000000 0.0000000 -1.0000000
vn 0.0000000 0.0000000 1.0000000
vn 0.0000000 0.0000000 1.0000000
vn -1.0000000 0.0000000 0.0000000
vn -1.0000000 0.0000000 0.0000000
vn 1.0000000 0.0000000 0.0000000
vn 1.0000000 0.0000000 0.0000000
vn 0.0000000 -1.0000000 0.0000000
vn 0.0000000 -1.0000000 0.0000000
vn 0.0000000 1.0000000 0.0000000
vn 0.0000000 1.0000000 0.0000000
vn 0.0000000 0.0000000 -1.0000000
vn 0.0000000 0.0000000 -1.0000000
vn 0.0000000 0.0000000 1.0000000
vn 0.0000000 0.0000000 1.0000000
vn -1.0000000 0.0000000 0.0000000
vn -1.0000000 0.0000000 0.0000000
vn 1.0000000 0.0000000 0.0000000
vn 1.0000000 0.0000000 0.0000000
vn 0.0000000 -1.0000000 0.0000000
vn 0.0000000 -1.0000000 0.0000000
vn 0.0000000 1.0000000 0.0000000
vn 0.0000000 1.0000000 0.0000000
usemtl wood_dark
f 1//1 2//1 3//1
usemtl wood_dark
f 4//2 5//2 6//2
usemtl wood_dark
f 7//3 8//3 9//3
usemtl wood_dark
f 10//4 11//4 12//4
usemtl wood_dark
f 13//5 14//5 15//5
usemtl wood_dark
f 16//6 17//6 18//6
usemtl wood_dark
f 19//7 20//7 21//7
usemtl wood_dark
f 22//8 23//8 24//8
usemtl wood_dark
f 25//9 26//9 27//9
usemtl wood_dark
f 28//10 29//10 30//10
usemtl wood_dark
f 31//11 32//11 33//11
usemtl wood_dark
f 34//12 35//12 36//12
usemtl wood_dark
f 37//13 38//13 39//13
usemtl wood_dark
f 40//14 41//14 42//14
usemtl wood_dark
f 43//15 44//15 45//15
usemtl wood_dark
f 46//16 47//16 48//16
usemtl wood_dark
f 49//17 50//17 51//17
usemtl wood_dark
f 52//18 53//18 54//18
usemtl wood_dark
f 55//19 56//19 57//19
usemtl wood_dark
f 58//20 59//20 60//20
usemtl wood_dark
f 61//21 62//21 63//21
usemtl wood_dark
f 64//22 65//22 66//22
usemtl wood_dark
f 67//23 68//23 69//23
usemtl wood_dark
f 70//24 71//24 72//24
usemtl wood
f 73//25 74//25 75//25
usemtl wood
f 76//26 77//26 78//26
usemtl wood
f 79//27 80//27 81//27
usemtl wood
f 82//28 83//28 84//28
usemtl wood
f 85//29 86//29 87//29
usemtl wood
f 88//30 89//30 90//30
usemtl wood
f 91//31 92//31 93//31
usemtl wood
f 94//32 95//32 96//32
usemtl wood
f 97//33 98//33 99//33
usemtl wood
f 100//34 101//34 102//34
usemtl wood
f 103//35 104//35 105//35
usemtl wood
f 106//36 107//36 108//36
usemtl blue_dark
f 109//37 110//37 111//37
usemtl blue_dark
f 112//38 113//38 114//38
usemtl blue_dark
f 115//39 116//39 117//39
usemtl blue_dark
f 118//40 119//40 120//40
usemtl blue_dark
f 121//41 122//41 123//41
usemtl blue_dark
f 124//42 125//42 126//42
usemtl blue_dark
f 127//43 128//43 129//43
usemtl blue_dark
f 130//44 131//44 132//44
usemtl blue_dark
f 133//45 134//45 135//45
usemtl blue_dark
f 136//46 137//46 138//46
usemtl blue_dark
f 139//47 140//47 141//47
usemtl blue_dark
f 142//48 143//48 144//48
usemtl wood
f 145//49 146//49 147//49
usemtl wood
f 148//50 149//50 150//50
usemtl wood
f 151//51 152//51 153//51
usemtl wood
f 154//52 155//52 156//52
usemtl wood
f 157//53 158//53 159//53
usemtl wood
f 160//54 161//54 162//54
usemtl wood
f 163//55 164//55 165//55
usemtl wood
f 166//56 167//56 168//56
usemtl wood
f 169//57 170//57 171//57
usemtl wood
f 172//58 173//58 174//58
usemtl wood
f 175//59 176//59 177//59
usemtl wood
f 178//60 179//60 180//60
usemtl roof
f 181//61 182//61 183//61
usemtl roof
f 184//62 185//62 186//62
usemtl roof
f 187//63 188//63 189//63
usemtl roof
f 190//64 191//64 192//64
usemtl roof
f 193//65 194//65 195//65
usemtl roof
f 196//66 197//66 198//66
usemtl roof
f 199//67 200//67 201//67
usemtl roof
f 202//68 203//68 204//68
usemtl roof
f 205//69 206//69 207//69
usemtl roof
f 208//70 209//70 210//70
usemtl roof
f 211//71 212//71 213//71
usemtl roof
f 214//72 215//72 216//72
usemtl window
f 217//73 218//73 219//73
usemtl window
f 220//74 221//74 222//74
usemtl window
f 223//75 224//75 225//75
usemtl window
f 226//76 227//76 228//76
usemtl window
f 229//77 230//77 231//77
usemtl window
f 232//78 233//78 234//78
usemtl window
f 235//79 236//79 237//79
usemtl window
f 238//80 239//80 240//80
usemtl window
f 241//81 242//81 243//81
usemtl window
f 244//82 245//82 246//82
usemtl window
f 247//83 248//83 249//83
usemtl window
f 250//84 251//84 252//84
usemtl wood_light
f 253//85 254//85 255//85
usemtl wood_light
f 256//86 257//86 258//86
usemtl wood_light
f 259//87 260//87 261//87
usemtl wood_light
f 262//88 263//88 264//88
usemtl wood_light
f 265//89 266//89 267//89
usemtl wood_light
f 268//90 269//90 270//90
usemtl wood_light
f 271//91 272//91 273//91
usemtl wood_light
f 274//92 275//92 276//92
usemtl wood_light
f 277//93 278//93 279//93
usemtl wood_light
f 280//94 281//94 282//94
usemtl wood_light
f 283//95 284//95 285//95
usemtl wood_light
f 286//96 287//96 288//96
