# Original Quiet Camp environment study; NOT a downloaded Sketchfab donor
# Units: metres; Y up; no external geometry or textures
mtllib palette.mtl
o ua_chicken
v 0.0250000 0.4450000 -0.0150000
v 0.0772542 0.2800000 0.2377641
v 0.2500000 0.2800000 0.0000000
v -0.0175000 0.1150000 0.0150000
v 0.2500000 0.2800000 0.0000000
v 0.0772542 0.2800000 0.2377641
v 0.0250000 0.4450000 -0.0150000
v -0.2022542 0.2800000 0.1469463
v 0.0772542 0.2800000 0.2377641
v -0.0175000 0.1150000 0.0150000
v 0.0772542 0.2800000 0.2377641
v -0.2022542 0.2800000 0.1469463
v 0.0250000 0.4450000 -0.0150000
v -0.2022542 0.2800000 -0.1469463
v -0.2022542 0.2800000 0.1469463
v -0.0175000 0.1150000 0.0150000
v -0.2022542 0.2800000 0.1469463
v -0.2022542 0.2800000 -0.1469463
v 0.0250000 0.4450000 -0.0150000
v 0.0772542 0.2800000 -0.2377641
v -0.2022542 0.2800000 -0.1469463
v -0.0175000 0.1150000 0.0150000
v -0.2022542 0.2800000 -0.1469463
v 0.0772542 0.2800000 -0.2377641
v 0.0250000 0.4450000 -0.0150000
v 0.2500000 0.2800000 0.0000000
v 0.0772542 0.2800000 -0.2377641
v -0.0175000 0.1150000 0.0150000
v 0.0772542 0.2800000 -0.2377641
v 0.2500000 0.2800000 0.0000000
v 0.0110000 0.5500000 -0.2366000
v 0.0000000 0.4500000 -0.1200000
v 0.1100000 0.4500000 -0.2300000
v -0.0077000 0.3500000 -0.2234000
v 0.1100000 0.4500000 -0.2300000
v 0.0000000 0.4500000 -0.1200000
v 0.0110000 0.5500000 -0.2366000
v -0.1100000 0.4500000 -0.2300000
v 0.0000000 0.4500000 -0.1200000
v -0.0077000 0.3500000 -0.2234000
v 0.0000000 0.4500000 -0.1200000
v -0.1100000 0.4500000 -0.2300000
v 0.0110000 0.5500000 -0.2366000
v 0.0000000 0.4500000 -0.3400000
v -0.1100000 0.4500000 -0.2300000
v -0.0077000 0.3500000 -0.2234000
v -0.1100000 0.4500000 -0.2300000
v 0.0000000 0.4500000 -0.3400000
v 0.0110000 0.5500000 -0.2366000
v 0.1100000 0.4500000 -0.2300000
v 0.0000000 0.4500000 -0.3400000
v -0.0077000 0.3500000 -0.2234000
v 0.0000000 0.4500000 -0.3400000
v 0.1100000 0.4500000 -0.2300000
v -0.0550000 0.4500000 -0.3000000
v 0.0550000 0.4500000 -0.3000000
v 0.0000000 0.4300000 -0.4300000
v -0.1030000 0.0000000 -0.0130000
v -0.1030000 0.0000000 0.0130000
v -0.1030000 0.2000000 0.0130000
v -0.1030000 0.0000000 -0.0130000
v -0.1030000 0.2000000 0.0130000
v -0.1030000 0.2000000 -0.0130000
v -0.1030000 0.0000000 0.0130000
v -0.0770000 0.0000000 0.0130000
v -0.0770000 0.2000000 0.0130000
v -0.1030000 0.0000000 0.0130000
v -0.0770000 0.2000000 0.0130000
v -0.1030000 0.2000000 0.0130000
v -0.0770000 0.0000000 0.0130000
v -0.0770000 0.0000000 -0.0130000
v -0.0770000 0.2000000 -0.0130000
v -0.0770000 0.0000000 0.0130000
v -0.0770000 0.2000000 -0.0130000
v -0.0770000 0.2000000 0.0130000
v -0.0770000 0.0000000 -0.0130000
v -0.1030000 0.0000000 -0.0130000
v -0.1030000 0.2000000 -0.0130000
v -0.0770000 0.0000000 -0.0130000
v -0.1030000 0.2000000 -0.0130000
v -0.0770000 0.2000000 -0.0130000
v -0.0770000 0.0000000 -0.0130000
v -0.0770000 0.0000000 0.0130000
v -0.1030000 0.0000000 0.0130000
v -0.0770000 0.0000000 -0.0130000
v -0.1030000 0.0000000 0.0130000
v -0.1030000 0.0000000 -0.0130000
v -0.1030000 0.2000000 -0.0130000
v -0.1030000 0.2000000 0.0130000
v -0.0770000 0.2000000 0.0130000
v -0.1030000 0.2000000 -0.0130000
v -0.0770000 0.2000000 0.0130000
v -0.0770000 0.2000000 -0.0130000
v 0.0770000 0.0000000 -0.0130000
v 0.0770000 0.0000000 0.0130000
v 0.0770000 0.2000000 0.0130000
v 0.0770000 0.0000000 -0.0130000
v 0.0770000 0.2000000 0.0130000
v 0.0770000 0.2000000 -0.0130000
v 0.0770000 0.0000000 0.0130000
v 0.1030000 0.0000000 0.0130000
v 0.1030000 0.2000000 0.0130000
v 0.0770000 0.0000000 0.0130000
v 0.1030000 0.2000000 0.0130000
v 0.0770000 0.2000000 0.0130000
v 0.1030000 0.0000000 0.0130000
v 0.1030000 0.0000000 -0.0130000
v 0.1030000 0.2000000 -0.0130000
v 0.1030000 0.0000000 0.0130000
v 0.1030000 0.2000000 -0.0130000
v 0.1030000 0.2000000 0.0130000
v 0.1030000 0.0000000 -0.0130000
v 0.0770000 0.0000000 -0.0130000
v 0.0770000 0.2000000 -0.0130000
v 0.1030000 0.0000000 -0.0130000
v 0.0770000 0.2000000 -0.0130000
v 0.1030000 0.2000000 -0.0130000
v 0.1030000 0.0000000 -0.0130000
v 0.1030000 0.0000000 0.0130000
v 0.0770000 0.0000000 0.0130000
v 0.1030000 0.0000000 -0.0130000
v 0.0770000 0.0000000 0.0130000
v 0.0770000 0.0000000 -0.0130000
v 0.0770000 0.2000000 -0.0130000
v 0.0770000 0.2000000 0.0130000
v 0.1030000 0.2000000 0.0130000
v 0.0770000 0.2000000 -0.0130000
v 0.1030000 0.2000000 0.0130000
v 0.1030000 0.2000000 -0.0130000
vn 0.5291179 0.7564723 0.3844267
vn 0.5033843 -0.7828446 0.3657301
vn -0.1831405 0.8054563 0.5636486
vn -0.2071910 -0.7419238 0.6376684
vn -0.5875291 0.8092030 0.0000000
vn -0.6661075 -0.7458557 0.0000000
vn -0.1991819 0.7645485 -0.6130188
vn -0.1902935 -0.7879003 -0.5856633
vn 0.5580069 0.7240625 -0.4054157
vn 0.4781070 -0.8066915 -0.3473651
vn 0.5665803 0.5983088 0.5665803
vn 0.5560431 -0.6177639 0.5560431
vn -0.5249958 0.6698946 0.5249958
vn -0.5856221 -0.5604404 0.5856221
vn -0.5497547 0.6289194 -0.5497547
vn -0.5602508 -0.6101131 -0.5602508
vn 0.5919569 0.5469681 -0.5919569
vn 0.5311154 -0.6601764 -0.5311154
vn 0.0000000 0.9883717 -0.1520572
vn -1.0000000 0.0000000 0.0000000
vn -1.0000000 0.0000000 0.0000000
vn 0.0000000 0.0000000 1.0000000
vn 0.0000000 0.0000000 1.0000000
vn 1.0000000 0.0000000 0.0000000
vn 1.0000000 0.0000000 0.0000000
vn 0.0000000 0.0000000 -1.0000000
vn 0.0000000 0.0000000 -1.0000000
vn 0.0000000 -1.0000000 0.0000000
vn 0.0000000 -1.0000000 0.0000000
vn 0.0000000 1.0000000 0.0000000
vn 0.0000000 1.0000000 0.0000000
vn -1.0000000 0.0000000 0.0000000
vn -1.0000000 0.0000000 0.0000000
vn 0.0000000 0.0000000 1.0000000
vn 0.0000000 0.0000000 1.0000000
vn 1.0000000 0.0000000 0.0000000
vn 1.0000000 0.0000000 0.0000000
vn 0.0000000 0.0000000 -1.0000000
vn 0.0000000 0.0000000 -1.0000000
vn 0.0000000 -1.0000000 0.0000000
vn 0.0000000 -1.0000000 0.0000000
vn 0.0000000 1.0000000 0.0000000
vn 0.0000000 1.0000000 0.0000000
usemtl plaster_worn
f 1//1 2//1 3//1
usemtl plaster_worn
f 4//2 5//2 6//2
usemtl plaster_worn
f 7//3 8//3 9//3
usemtl plaster_worn
f 10//4 11//4 12//4
usemtl plaster_worn
f 13//5 14//5 15//5
usemtl plaster_worn
f 16//6 17//6 18//6
usemtl plaster_worn
f 19//7 20//7 21//7
usemtl plaster_worn
f 22//8 23//8 24//8
usemtl plaster_worn
f 25//9 26//9 27//9
usemtl plaster_worn
f 28//10 29//10 30//10
usemtl plaster
f 31//11 32//11 33//11
usemtl plaster
f 34//12 35//12 36//12
usemtl plaster
f 37//13 38//13 39//13
usemtl plaster
f 40//14 41//14 42//14
usemtl plaster
f 43//15 44//15 45//15
usemtl plaster
f 46//16 47//16 48//16
usemtl plaster
f 49//17 50//17 51//17
usemtl plaster
f 52//18 53//18 54//18
usemtl wheat
f 55//19 56//19 57//19
usemtl wood_dark
f 58//20 59//20 60//20
usemtl wood_dark
f 61//21 62//21 63//21
usemtl wood_dark
f 64//22 65//22 66//22
usemtl wood_dark
f 67//23 68//23 69//23
usemtl wood_dark
f 70//24 71//24 72//24
usemtl wood_dark
f 73//25 74//25 75//25
usemtl wood_dark
f 76//26 77//26 78//26
usemtl wood_dark
f 79//27 80//27 81//27
usemtl wood_dark
f 82//28 83//28 84//28
usemtl wood_dark
f 85//29 86//29 87//29
usemtl wood_dark
f 88//30 89//30 90//30
usemtl wood_dark
f 91//31 92//31 93//31
usemtl wood_dark
f 94//32 95//32 96//32
usemtl wood_dark
f 97//33 98//33 99//33
usemtl wood_dark
f 100//34 101//34 102//34
usemtl wood_dark
f 103//35 104//35 105//35
usemtl wood_dark
f 106//36 107//36 108//36
usemtl wood_dark
f 109//37 110//37 111//37
usemtl wood_dark
f 112//38 113//38 114//38
usemtl wood_dark
f 115//39 116//39 117//39
usemtl wood_dark
f 118//40 119//40 120//40
usemtl wood_dark
f 121//41 122//41 123//41
usemtl wood_dark
f 124//42 125//42 126//42
usemtl wood_dark
f 127//43 128//43 129//43
