# Original Quiet Camp environment study; NOT a downloaded Sketchfab donor
# Units: metres; Y up; no external geometry or textures
mtllib palette.mtl
o ua_chicken_coop
v -0.7050000 0.0000000 -0.6050000
v -0.7050000 0.7400000 -0.6050000
v -0.5950000 0.7400000 -0.6050000
v -0.7050000 0.0000000 -0.6050000
v -0.5950000 0.7400000 -0.6050000
v -0.5950000 0.0000000 -0.6050000
v -0.7050000 0.0000000 -0.4950000
v -0.5950000 0.0000000 -0.4950000
v -0.5950000 0.7400000 -0.4950000
v -0.7050000 0.0000000 -0.4950000
v -0.5950000 0.7400000 -0.4950000
v -0.7050000 0.7400000 -0.4950000
v -0.7050000 0.0000000 -0.6050000
v -0.7050000 0.0000000 -0.4950000
v -0.7050000 0.7400000 -0.4950000
v -0.7050000 0.0000000 -0.6050000
v -0.7050000 0.7400000 -0.4950000
v -0.7050000 0.7400000 -0.6050000
v -0.5950000 0.0000000 -0.6050000
v -0.5950000 0.7400000 -0.6050000
v -0.5950000 0.7400000 -0.4950000
v -0.5950000 0.0000000 -0.6050000
v -0.5950000 0.7400000 -0.4950000
v -0.5950000 0.0000000 -0.4950000
v -0.7050000 0.0000000 -0.6050000
v -0.5950000 0.0000000 -0.6050000
v -0.5950000 0.0000000 -0.4950000
v -0.7050000 0.0000000 -0.6050000
v -0.5950000 0.0000000 -0.4950000
v -0.7050000 0.0000000 -0.4950000
v -0.7050000 0.7400000 -0.6050000
v -0.7050000 0.7400000 -0.4950000
v -0.5950000 0.7400000 -0.4950000
v -0.7050000 0.7400000 -0.6050000
v -0.5950000 0.7400000 -0.4950000
v -0.5950000 0.7400000 -0.6050000
v -0.7050000 0.0000000 0.4950000
v -0.7050000 0.7400000 0.4950000
v -0.5950000 0.7400000 0.4950000
v -0.7050000 0.0000000 0.4950000
v -0.5950000 0.7400000 0.4950000
v -0.5950000 0.0000000 0.4950000
v -0.7050000 0.0000000 0.6050000
v -0.5950000 0.0000000 0.6050000
v -0.5950000 0.7400000 0.6050000
v -0.7050000 0.0000000 0.6050000
v -0.5950000 0.7400000 0.6050000
v -0.7050000 0.7400000 0.6050000
v -0.7050000 0.0000000 0.4950000
v -0.7050000 0.0000000 0.6050000
v -0.7050000 0.7400000 0.6050000
v -0.7050000 0.0000000 0.4950000
v -0.7050000 0.7400000 0.6050000
v -0.7050000 0.7400000 0.4950000
v -0.5950000 0.0000000 0.4950000
v -0.5950000 0.7400000 0.4950000
v -0.5950000 0.7400000 0.6050000
v -0.5950000 0.0000000 0.4950000
v -0.5950000 0.7400000 0.6050000
v -0.5950000 0.0000000 0.6050000
v -0.7050000 0.0000000 0.4950000
v -0.5950000 0.0000000 0.4950000
v -0.5950000 0.0000000 0.6050000
v -0.7050000 0.0000000 0.4950000
v -0.5950000 0.0000000 0.6050000
v -0.7050000 0.0000000 0.6050000
v -0.7050000 0.7400000 0.4950000
v -0.7050000 0.7400000 0.6050000
v -0.5950000 0.7400000 0.6050000
v -0.7050000 0.7400000 0.4950000
v -0.5950000 0.7400000 0.6050000
v -0.5950000 0.7400000 0.4950000
v 0.5950000 0.0000000 -0.6050000
v 0.5950000 0.7400000 -0.6050000
v 0.7050000 0.7400000 -0.6050000
v 0.5950000 0.0000000 -0.6050000
v 0.7050000 0.7400000 -0.6050000
v 0.7050000 0.0000000 -0.6050000
v 0.5950000 0.0000000 -0.4950000
v 0.7050000 0.0000000 -0.4950000
v 0.7050000 0.7400000 -0.4950000
v 0.5950000 0.0000000 -0.4950000
v 0.7050000 0.7400000 -0.4950000
v 0.5950000 0.7400000 -0.4950000
v 0.5950000 0.0000000 -0.6050000
v 0.5950000 0.0000000 -0.4950000
v 0.5950000 0.7400000 -0.4950000
v 0.5950000 0.0000000 -0.6050000
v 0.5950000 0.7400000 -0.4950000
v 0.5950000 0.7400000 -0.6050000
v 0.7050000 0.0000000 -0.6050000
v 0.7050000 0.7400000 -0.6050000
v 0.7050000 0.7400000 -0.4950000
v 0.7050000 0.0000000 -0.6050000
v 0.7050000 0.7400000 -0.4950000
v 0.7050000 0.0000000 -0.4950000
v 0.5950000 0.0000000 -0.6050000
v 0.7050000 0.0000000 -0.6050000
v 0.7050000 0.0000000 -0.4950000
v 0.5950000 0.0000000 -0.6050000
v 0.7050000 0.0000000 -0.4950000
v 0.5950000 0.0000000 -0.4950000
v 0.5950000 0.7400000 -0.6050000
v 0.5950000 0.7400000 -0.4950000
v 0.7050000 0.7400000 -0.4950000
v 0.5950000 0.7400000 -0.6050000
v 0.7050000 0.7400000 -0.4950000
v 0.7050000 0.7400000 -0.6050000
v 0.5950000 0.0000000 0.4950000
v 0.5950000 0.7400000 0.4950000
v 0.7050000 0.7400000 0.4950000
v 0.5950000 0.0000000 0.4950000
v 0.7050000 0.7400000 0.4950000
v 0.7050000 0.0000000 0.4950000
v 0.5950000 0.0000000 0.6050000
v 0.7050000 0.0000000 0.6050000
v 0.7050000 0.7400000 0.6050000
v 0.5950000 0.0000000 0.6050000
v 0.7050000 0.7400000 0.6050000
v 0.5950000 0.7400000 0.6050000
v 0.5950000 0.0000000 0.4950000
v 0.5950000 0.0000000 0.6050000
v 0.5950000 0.7400000 0.6050000
v 0.5950000 0.0000000 0.4950000
v 0.5950000 0.7400000 0.6050000
v 0.5950000 0.7400000 0.4950000
v 0.7050000 0.0000000 0.4950000
v 0.7050000 0.7400000 0.4950000
v 0.7050000 0.7400000 0.6050000
v 0.7050000 0.0000000 0.4950000
v 0.7050000 0.7400000 0.6050000
v 0.7050000 0.0000000 0.6050000
v 0.5950000 0.0000000 0.4950000
v 0.7050000 0.0000000 0.4950000
v 0.7050000 0.0000000 0.6050000
v 0.5950000 0.0000000 0.4950000
v 0.7050000 0.0000000 0.6050000
v 0.5950000 0.0000000 0.6050000
v 0.5950000 0.7400000 0.4950000
v 0.5950000 0.7400000 0.6050000
v 0.7050000 0.7400000 0.6050000
v 0.5950000 0.7400000 0.4950000
v 0.7050000 0.7400000 0.6050000
v 0.7050000 0.7400000 0.4950000
v -0.7750000 0.5800000 -0.6500000
v -0.7750000 1.3800000 -0.6500000
v 0.7750000 1.3800000 -0.6500000
v -0.7750000 0.5800000 -0.6500000
v 0.7750000 1.3800000 -0.6500000
v 0.7750000 0.5800000 -0.6500000
v -0.7750000 0.5800000 0.6500000
v 0.7750000 0.5800000 0.6500000
v 0.7750000 1.3800000 0.6500000
v -0.7750000 0.5800000 0.6500000
v 0.7750000 1.3800000 0.6500000
v -0.7750000 1.3800000 0.6500000
v -0.7750000 0.5800000 -0.6500000
v -0.7750000 0.5800000 0.6500000
v -0.7750000 1.3800000 0.6500000
v -0.7750000 0.5800000 -0.6500000
v -0.7750000 1.3800000 0.6500000
v -0.7750000 1.3800000 -0.6500000
v 0.7750000 0.5800000 -0.6500000
v 0.7750000 1.3800000 -0.6500000
v 0.7750000 1.3800000 0.6500000
v 0.7750000 0.5800000 -0.6500000
v 0.7750000 1.3800000 0.6500000
v 0.7750000 0.5800000 0.6500000
v -0.7750000 0.5800000 -0.6500000
v 0.7750000 0.5800000 -0.6500000
v 0.7750000 0.5800000 0.6500000
v -0.7750000 0.5800000 -0.6500000
v 0.7750000 0.5800000 0.6500000
v -0.7750000 0.5800000 0.6500000
v -0.7750000 1.3800000 -0.6500000
v -0.7750000 1.3800000 0.6500000
v 0.7750000 1.3800000 0.6500000
v -0.7750000 1.3800000 -0.6500000
v 0.7750000 1.3800000 0.6500000
v 0.7750000 1.3800000 -0.6500000
v -0.2000000 0.6950000 -0.6680000
v -0.2000000 1.0450000 -0.6680000
v 0.2000000 1.0450000 -0.6680000
v -0.2000000 0.6950000 -0.6680000
v 0.2000000 1.0450000 -0.6680000
v 0.2000000 0.6950000 -0.6680000
v -0.2000000 0.6950000 -0.6460000
v 0.2000000 0.6950000 -0.6460000
v 0.2000000 1.0450000 -0.6460000
v -0.2000000 0.6950000 -0.6460000
v 0.2000000 1.0450000 -0.6460000
v -0.2000000 1.0450000 -0.6460000
v -0.2000000 0.6950000 -0.6680000
v -0.2000000 0.6950000 -0.6460000
v -0.2000000 1.0450000 -0.6460000
v -0.2000000 0.6950000 -0.6680000
v -0.2000000 1.0450000 -0.6460000
v -0.2000000 1.0450000 -0.6680000
v 0.2000000 0.6950000 -0.6680000
v 0.2000000 1.0450000 -0.6680000
v 0.2000000 1.0450000 -0.6460000
v 0.2000000 0.6950000 -0.6680000
v 0.2000000 1.0450000 -0.6460000
v 0.2000000 0.6950000 -0.6460000
v -0.2000000 0.6950000 -0.6680000
v 0.2000000 0.6950000 -0.6680000
v 0.2000000 0.6950000 -0.6460000
v -0.2000000 0.6950000 -0.6680000
v 0.2000000 0.6950000 -0.6460000
v -0.2000000 0.6950000 -0.6460000
v -0.2000000 1.0450000 -0.6680000
v -0.2000000 1.0450000 -0.6460000
v 0.2000000 1.0450000 -0.6460000
v -0.2000000 1.0450000 -0.6680000
v 0.2000000 1.0450000 -0.6460000
v 0.2000000 1.0450000 -0.6680000
v 0.0000000 1.8800000 -0.7500000
v -0.9000000 1.4000000 -0.7500000
v -0.9000000 1.5000000 -0.7500000
v 0.0000000 1.8800000 -0.3750000
v -0.9000000 1.5000000 -0.3750000
v -0.9000000 1.4000000 -0.3750000
v 0.0000000 1.8800000 -0.7500000
v 0.0000000 1.7800000 -0.7500000
v -0.9000000 1.4000000 -0.7500000
v 0.0000000 1.8800000 -0.3750000
v -0.9000000 1.4000000 -0.3750000
v 0.0000000 1.7800000 -0.3750000
v 0.0000000 1.8800000 -0.7500000
v -0.9000000 1.5000000 -0.7500000
v -0.9000000 1.5000000 -0.3750000
v 0.0000000 1.8800000 -0.7500000
v -0.9000000 1.5000000 -0.3750000
v 0.0000000 1.8800000 -0.3750000
v -0.9000000 1.5000000 -0.7500000
v -0.9000000 1.4000000 -0.7500000
v -0.9000000 1.4000000 -0.3750000
v -0.9000000 1.5000000 -0.7500000
v -0.9000000 1.4000000 -0.3750000
v -0.9000000 1.5000000 -0.3750000
v -0.9000000 1.4000000 -0.7500000
v 0.0000000 1.7800000 -0.7500000
v 0.0000000 1.7800000 -0.3750000
v -0.9000000 1.4000000 -0.7500000
v 0.0000000 1.7800000 -0.3750000
v -0.9000000 1.4000000 -0.3750000
v 0.0000000 1.7800000 -0.7500000
v 0.0000000 1.8800000 -0.7500000
v 0.0000000 1.8800000 -0.3750000
v 0.0000000 1.7800000 -0.7500000
v 0.0000000 1.8800000 -0.3750000
v 0.0000000 1.7800000 -0.3750000
v 0.0000000 1.8800000 -0.3750000
v -0.9000000 1.4000000 -0.3750000
v -0.9000000 1.5000000 -0.3750000
v 0.0000000 1.8800000 0.0000000
v -0.9000000 1.5000000 0.0000000
v -0.9000000 1.4000000 0.0000000
v 0.0000000 1.8800000 -0.3750000
v 0.0000000 1.7800000 -0.3750000
v -0.9000000 1.4000000 -0.3750000
v 0.0000000 1.8800000 0.0000000
v -0.9000000 1.4000000 0.0000000
v 0.0000000 1.7800000 0.0000000
v 0.0000000 1.8800000 -0.3750000
v -0.9000000 1.5000000 -0.3750000
v -0.9000000 1.5000000 0.0000000
v 0.0000000 1.8800000 -0.3750000
v -0.9000000 1.5000000 0.0000000
v 0.0000000 1.8800000 0.0000000
v -0.9000000 1.5000000 -0.3750000
v -0.9000000 1.4000000 -0.3750000
v -0.9000000 1.4000000 0.0000000
v -0.9000000 1.5000000 -0.3750000
v -0.9000000 1.4000000 0.0000000
v -0.9000000 1.5000000 0.0000000
v -0.9000000 1.4000000 -0.3750000
v 0.0000000 1.7800000 -0.3750000
v 0.0000000 1.7800000 0.0000000
v -0.9000000 1.4000000 -0.3750000
v 0.0000000 1.7800000 0.0000000
v -0.9000000 1.4000000 0.0000000
v 0.0000000 1.7800000 -0.3750000
v 0.0000000 1.8800000 -0.3750000
v 0.0000000 1.8800000 0.0000000
v 0.0000000 1.7800000 -0.3750000
v 0.0000000 1.8800000 0.0000000
v 0.0000000 1.7800000 0.0000000
v 0.0000000 1.8800000 0.0000000
v -0.9000000 1.4000000 0.0000000
v -0.9000000 1.5000000 0.0000000
v 0.0000000 1.8800000 0.3750000
v -0.9000000 1.5000000 0.3750000
v -0.9000000 1.4000000 0.3750000
v 0.0000000 1.8800000 0.0000000
v 0.0000000 1.7800000 0.0000000
v -0.9000000 1.4000000 0.0000000
v 0.0000000 1.8800000 0.3750000
v -0.9000000 1.4000000 0.3750000
v 0.0000000 1.7800000 0.3750000
v 0.0000000 1.8800000 0.0000000
v -0.9000000 1.5000000 0.0000000
v -0.9000000 1.5000000 0.3750000
v 0.0000000 1.8800000 0.0000000
v -0.9000000 1.5000000 0.3750000
v 0.0000000 1.8800000 0.3750000
v -0.9000000 1.5000000 0.0000000
v -0.9000000 1.4000000 0.0000000
v -0.9000000 1.4000000 0.3750000
v -0.9000000 1.5000000 0.0000000
v -0.9000000 1.4000000 0.3750000
v -0.9000000 1.5000000 0.3750000
v -0.9000000 1.4000000 0.0000000
v 0.0000000 1.7800000 0.0000000
v 0.0000000 1.7800000 0.3750000
v -0.9000000 1.4000000 0.0000000
v 0.0000000 1.7800000 0.3750000
v -0.9000000 1.4000000 0.3750000
v 0.0000000 1.7800000 0.0000000
v 0.0000000 1.8800000 0.0000000
v 0.0000000 1.8800000 0.3750000
v 0.0000000 1.7800000 0.0000000
v 0.0000000 1.8800000 0.3750000
v 0.0000000 1.7800000 0.3750000
v 0.0000000 1.8800000 0.3750000
v -0.9000000 1.4000000 0.3750000
v -0.9000000 1.5000000 0.3750000
v 0.0000000 1.8800000 0.7500000
v -0.9000000 1.5000000 0.7500000
v -0.9000000 1.4000000 0.7500000
v 0.0000000 1.8800000 0.3750000
v 0.0000000 1.7800000 0.3750000
v -0.9000000 1.4000000 0.3750000
v 0.0000000 1.8800000 0.7500000
v -0.9000000 1.4000000 0.7500000
v 0.0000000 1.7800000 0.7500000
v 0.0000000 1.8800000 0.3750000
v -0.9000000 1.5000000 0.3750000
v -0.9000000 1.5000000 0.7500000
v 0.0000000 1.8800000 0.3750000
v -0.9000000 1.5000000 0.7500000
v 0.0000000 1.8800000 0.7500000
v -0.9000000 1.5000000 0.3750000
v -0.9000000 1.4000000 0.3750000
v -0.9000000 1.4000000 0.7500000
v -0.9000000 1.5000000 0.3750000
v -0.9000000 1.4000000 0.7500000
v -0.9000000 1.5000000 0.7500000
v -0.9000000 1.4000000 0.3750000
v 0.0000000 1.7800000 0.3750000
v 0.0000000 1.7800000 0.7500000
v -0.9000000 1.4000000 0.3750000
v 0.0000000 1.7800000 0.7500000
v -0.9000000 1.4000000 0.7500000
v 0.0000000 1.7800000 0.3750000
v 0.0000000 1.8800000 0.3750000
v 0.0000000 1.8800000 0.7500000
v 0.0000000 1.7800000 0.3750000
v 0.0000000 1.8800000 0.7500000
v 0.0000000 1.7800000 0.7500000
v 0.0000000 1.7800000 -0.7500000
v 0.9000000 1.5000000 -0.7500000
v 0.9000000 1.4000000 -0.7500000
v 0.0000000 1.7800000 -0.3750000
v 0.9000000 1.4000000 -0.3750000
v 0.9000000 1.5000000 -0.3750000
v 0.0000000 1.7800000 -0.7500000
v 0.0000000 1.8800000 -0.7500000
v 0.9000000 1.5000000 -0.7500000
v 0.0000000 1.7800000 -0.3750000
v 0.9000000 1.5000000 -0.3750000
v 0.0000000 1.8800000 -0.3750000
v 0.0000000 1.7800000 -0.7500000
v 0.9000000 1.4000000 -0.7500000
v 0.9000000 1.4000000 -0.3750000
v 0.0000000 1.7800000 -0.7500000
v 0.9000000 1.4000000 -0.3750000
v 0.0000000 1.7800000 -0.3750000
v 0.9000000 1.4000000 -0.7500000
v 0.9000000 1.5000000 -0.7500000
v 0.9000000 1.5000000 -0.3750000
v 0.9000000 1.4000000 -0.7500000
v 0.9000000 1.5000000 -0.3750000
v 0.9000000 1.4000000 -0.3750000
v 0.9000000 1.5000000 -0.7500000
v 0.0000000 1.8800000 -0.7500000
v 0.0000000 1.8800000 -0.3750000
v 0.9000000 1.5000000 -0.7500000
v 0.0000000 1.8800000 -0.3750000
v 0.9000000 1.5000000 -0.3750000
v 0.0000000 1.8800000 -0.7500000
v 0.0000000 1.7800000 -0.7500000
v 0.0000000 1.7800000 -0.3750000
v 0.0000000 1.8800000 -0.7500000
v 0.0000000 1.7800000 -0.3750000
v 0.0000000 1.8800000 -0.3750000
v 0.0000000 1.7800000 -0.3750000
v 0.9000000 1.5000000 -0.3750000
v 0.9000000 1.4000000 -0.3750000
v 0.0000000 1.7800000 0.0000000
v 0.9000000 1.4000000 0.0000000
v 0.9000000 1.5000000 0.0000000
v 0.0000000 1.7800000 -0.3750000
v 0.0000000 1.8800000 -0.3750000
v 0.9000000 1.5000000 -0.3750000
v 0.0000000 1.7800000 0.0000000
v 0.9000000 1.5000000 0.0000000
v 0.0000000 1.8800000 0.0000000
v 0.0000000 1.7800000 -0.3750000
v 0.9000000 1.4000000 -0.3750000
v 0.9000000 1.4000000 0.0000000
v 0.0000000 1.7800000 -0.3750000
v 0.9000000 1.4000000 0.0000000
v 0.0000000 1.7800000 0.0000000
v 0.9000000 1.4000000 -0.3750000
v 0.9000000 1.5000000 -0.3750000
v 0.9000000 1.5000000 0.0000000
v 0.9000000 1.4000000 -0.3750000
v 0.9000000 1.5000000 0.0000000
v 0.9000000 1.4000000 0.0000000
v 0.9000000 1.5000000 -0.3750000
v 0.0000000 1.8800000 -0.3750000
v 0.0000000 1.8800000 0.0000000
v 0.9000000 1.5000000 -0.3750000
v 0.0000000 1.8800000 0.0000000
v 0.9000000 1.5000000 0.0000000
v 0.0000000 1.8800000 -0.3750000
v 0.0000000 1.7800000 -0.3750000
v 0.0000000 1.7800000 0.0000000
v 0.0000000 1.8800000 -0.3750000
v 0.0000000 1.7800000 0.0000000
v 0.0000000 1.8800000 0.0000000
v 0.0000000 1.7800000 0.0000000
v 0.9000000 1.5000000 0.0000000
v 0.9000000 1.4000000 0.0000000
v 0.0000000 1.7800000 0.3750000
v 0.9000000 1.4000000 0.3750000
v 0.9000000 1.5000000 0.3750000
v 0.0000000 1.7800000 0.0000000
v 0.0000000 1.8800000 0.0000000
v 0.9000000 1.5000000 0.0000000
v 0.0000000 1.7800000 0.3750000
v 0.9000000 1.5000000 0.3750000
v 0.0000000 1.8800000 0.3750000
v 0.0000000 1.7800000 0.0000000
v 0.9000000 1.4000000 0.0000000
v 0.9000000 1.4000000 0.3750000
v 0.0000000 1.7800000 0.0000000
v 0.9000000 1.4000000 0.3750000
v 0.0000000 1.7800000 0.3750000
v 0.9000000 1.4000000 0.0000000
v 0.9000000 1.5000000 0.0000000
v 0.9000000 1.5000000 0.3750000
v 0.9000000 1.4000000 0.0000000
v 0.9000000 1.5000000 0.3750000
v 0.9000000 1.4000000 0.3750000
v 0.9000000 1.5000000 0.0000000
v 0.0000000 1.8800000 0.0000000
v 0.0000000 1.8800000 0.3750000
v 0.9000000 1.5000000 0.0000000
v 0.0000000 1.8800000 0.3750000
v 0.9000000 1.5000000 0.3750000
v 0.0000000 1.8800000 0.0000000
v 0.0000000 1.7800000 0.0000000
v 0.0000000 1.7800000 0.3750000
v 0.0000000 1.8800000 0.0000000
v 0.0000000 1.7800000 0.3750000
v 0.0000000 1.8800000 0.3750000
v 0.0000000 1.7800000 0.3750000
v 0.9000000 1.5000000 0.3750000
v 0.9000000 1.4000000 0.3750000
v 0.0000000 1.7800000 0.7500000
v 0.9000000 1.4000000 0.7500000
v 0.9000000 1.5000000 0.7500000
v 0.0000000 1.7800000 0.3750000
v 0.0000000 1.8800000 0.3750000
v 0.9000000 1.5000000 0.3750000
v 0.0000000 1.7800000 0.7500000
v 0.9000000 1.5000000 0.7500000
v 0.0000000 1.8800000 0.7500000
v 0.0000000 1.7800000 0.3750000
v 0.9000000 1.4000000 0.3750000
v 0.9000000 1.4000000 0.7500000
v 0.0000000 1.7800000 0.3750000
v 0.9000000 1.4000000 0.7500000
v 0.0000000 1.7800000 0.7500000
v 0.9000000 1.4000000 0.3750000
v 0.9000000 1.5000000 0.3750000
v 0.9000000 1.5000000 0.7500000
v 0.9000000 1.4000000 0.3750000
v 0.9000000 1.5000000 0.7500000
v 0.9000000 1.4000000 0.7500000
v 0.9000000 1.5000000 0.3750000
v 0.0000000 1.8800000 0.3750000
v 0.0000000 1.8800000 0.7500000
v 0.9000000 1.5000000 0.3750000
v 0.0000000 1.8800000 0.7500000
v 0.9000000 1.5000000 0.7500000
v 0.0000000 1.8800000 0.3750000
v 0.0000000 1.7800000 0.3750000
v 0.0000000 1.7800000 0.7500000
v 0.0000000 1.8800000 0.3750000
v 0.0000000 1.7800000 0.7500000
v 0.0000000 1.8800000 0.7500000
v -0.0600000 1.5000000 -0.8100000
v -0.0600000 1.5000000 -0.6900000
v -0.0600000 1.7800000 -0.6900000
v -0.0600000 1.5000000 -0.8100000
v -0.0600000 1.7800000 -0.6900000
v -0.0600000 1.7800000 -0.8100000
v -0.0600000 1.5000000 -0.6900000
v 0.0600000 1.5000000 -0.6900000
v 0.0600000 1.7800000 -0.6900000
v -0.0600000 1.5000000 -0.6900000
v 0.0600000 1.7800000 -0.6900000
v -0.0600000 1.7800000 -0.6900000
v 0.0600000 1.5000000 -0.6900000
v 0.0600000 1.5000000 -0.8100000
v 0.0600000 1.7800000 -0.8100000
v 0.0600000 1.5000000 -0.6900000
v 0.0600000 1.7800000 -0.8100000
v 0.0600000 1.7800000 -0.6900000
v 0.0600000 1.5000000 -0.8100000
v -0.0600000 1.5000000 -0.8100000
v -0.0600000 1.7800000 -0.8100000
v 0.0600000 1.5000000 -0.8100000
v -0.0600000 1.7800000 -0.8100000
v 0.0600000 1.7800000 -0.8100000
v 0.0600000 1.5000000 -0.8100000
v 0.0600000 1.5000000 -0.6900000
v -0.0600000 1.5000000 -0.6900000
v 0.0600000 1.5000000 -0.8100000
v -0.0600000 1.5000000 -0.6900000
v -0.0600000 1.5000000 -0.8100000
v -0.0600000 1.7800000 -0.8100000
v -0.0600000 1.7800000 -0.6900000
v 0.0600000 1.7800000 -0.6900000
v -0.0600000 1.7800000 -0.8100000
v 0.0600000 1.7800000 -0.6900000
v 0.0600000 1.7800000 -0.8100000
v -0.2400000 -0.0113644 -1.8856850
v 0.2400000 -0.0113644 -1.8856850
v 0.2400000 0.6836356 -0.6056850
v -0.2400000 -0.0113644 -1.8856850
v 0.2400000 0.6836356 -0.6056850
v -0.2400000 0.6836356 -0.6056850
v 0.2400000 -0.0113644 -1.8856850
v 0.2400000 0.0413644 -1.9143150
v 0.2400000 0.7363644 -0.6343150
v 0.2400000 -0.0113644 -1.8856850
v 0.2400000 0.7363644 -0.6343150
v 0.2400000 0.6836356 -0.6056850
v 0.2400000 0.0413644 -1.9143150
v -0.2400000 0.0413644 -1.9143150
v -0.2400000 0.7363644 -0.6343150
v 0.2400000 0.0413644 -1.9143150
v -0.2400000 0.7363644 -0.6343150
v 0.2400000 0.7363644 -0.6343150
v -0.2400000 0.0413644 -1.9143150
v -0.2400000 -0.0113644 -1.8856850
v -0.2400000 0.6836356 -0.6056850
v -0.2400000 0.0413644 -1.9143150
v -0.2400000 0.6836356 -0.6056850
v -0.2400000 0.7363644 -0.6343150
v -0.2400000 0.0413644 -1.9143150
v 0.2400000 0.0413644 -1.9143150
v 0.2400000 -0.0113644 -1.8856850
v -0.2400000 0.0413644 -1.9143150
v 0.2400000 -0.0113644 -1.8856850
v -0.2400000 -0.0113644 -1.8856850
v -0.2400000 0.6836356 -0.6056850
v 0.2400000 0.6836356 -0.6056850
v 0.2400000 0.7363644 -0.6343150
v -0.2400000 0.6836356 -0.6056850
v 0.2400000 0.7363644 -0.6343150
v -0.2400000 0.7363644 -0.6343150
v -0.2550000 0.1327344 -1.7550000
v -0.2550000 0.1827344 -1.7550000
v 0.2550000 0.1827344 -1.7550000
v -0.2550000 0.1327344 -1.7550000
v 0.2550000 0.1827344 -1.7550000
v 0.2550000 0.1327344 -1.7550000
v -0.2550000 0.1327344 -1.6850000
v 0.2550000 0.1327344 -1.6850000
v 0.2550000 0.1827344 -1.6850000
v -0.2550000 0.1327344 -1.6850000
v 0.2550000 0.1827344 -1.6850000
v -0.2550000 0.1827344 -1.6850000
v -0.2550000 0.1327344 -1.7550000
v -0.2550000 0.1327344 -1.6850000
v -0.2550000 0.1827344 -1.6850000
v -0.2550000 0.1327344 -1.7550000
v -0.2550000 0.1827344 -1.6850000
v -0.2550000 0.1827344 -1.7550000
v 0.2550000 0.1327344 -1.7550000
v 0.2550000 0.1827344 -1.7550000
v 0.2550000 0.1827344 -1.6850000
v 0.2550000 0.1327344 -1.7550000
v 0.2550000 0.1827344 -1.6850000
v 0.2550000 0.1327344 -1.6850000
v -0.2550000 0.1327344 -1.7550000
v 0.2550000 0.1327344 -1.7550000
v 0.2550000 0.1327344 -1.6850000
v -0.2550000 0.1327344 -1.7550000
v 0.2550000 0.1327344 -1.6850000
v -0.2550000 0.1327344 -1.6850000
v -0.2550000 0.1827344 -1.7550000
v -0.2550000 0.1827344 -1.6850000
v 0.2550000 0.1827344 -1.6850000
v -0.2550000 0.1827344 -1.7550000
v 0.2550000 0.1827344 -1.6850000
v 0.2550000 0.1827344 -1.7550000
v -0.2550000 0.2901953 -1.4650000
v -0.2550000 0.3401953 -1.4650000
v 0.2550000 0.3401953 -1.4650000
v -0.2550000 0.2901953 -1.4650000
v 0.2550000 0.3401953 -1.4650000
v 0.2550000 0.2901953 -1.4650000
v -0.2550000 0.2901953 -1.3950000
v 0.2550000 0.2901953 -1.3950000
v 0.2550000 0.3401953 -1.3950000
v -0.2550000 0.2901953 -1.3950000
v 0.2550000 0.3401953 -1.3950000
v -0.2550000 0.3401953 -1.3950000
v -0.2550000 0.2901953 -1.4650000
v -0.2550000 0.2901953 -1.3950000
v -0.2550000 0.3401953 -1.3950000
v -0.2550000 0.2901953 -1.4650000
v -0.2550000 0.3401953 -1.3950000
v -0.2550000 0.3401953 -1.4650000
v 0.2550000 0.2901953 -1.4650000
v 0.2550000 0.3401953 -1.4650000
v 0.2550000 0.3401953 -1.3950000
v 0.2550000 0.2901953 -1.4650000
v 0.2550000 0.3401953 -1.3950000
v 0.2550000 0.2901953 -1.3950000
v -0.2550000 0.2901953 -1.4650000
v 0.2550000 0.2901953 -1.4650000
v 0.2550000 0.2901953 -1.3950000
v -0.2550000 0.2901953 -1.4650000
v 0.2550000 0.2901953 -1.3950000
v -0.2550000 0.2901953 -1.3950000
v -0.2550000 0.3401953 -1.4650000
v -0.2550000 0.3401953 -1.3950000
v 0.2550000 0.3401953 -1.3950000
v -0.2550000 0.3401953 -1.4650000
v 0.2550000 0.3401953 -1.3950000
v 0.2550000 0.3401953 -1.4650000
v -0.2550000 0.4476562 -1.1750000
v -0.2550000 0.4976562 -1.1750000
v 0.2550000 0.4976562 -1.1750000
v -0.2550000 0.4476562 -1.1750000
v 0.2550000 0.4976562 -1.1750000
v 0.2550000 0.4476562 -1.1750000
v -0.2550000 0.4476562 -1.1050000
v 0.2550000 0.4476562 -1.1050000
v 0.2550000 0.4976562 -1.1050000
v -0.2550000 0.4476562 -1.1050000
v 0.2550000 0.4976562 -1.1050000
v -0.2550000 0.4976562 -1.1050000
v -0.2550000 0.4476562 -1.1750000
v -0.2550000 0.4476562 -1.1050000
v -0.2550000 0.4976562 -1.1050000
v -0.2550000 0.4476562 -1.1750000
v -0.2550000 0.4976562 -1.1050000
v -0.2550000 0.4976562 -1.1750000
v 0.2550000 0.4476562 -1.1750000
v 0.2550000 0.4976562 -1.1750000
v 0.2550000 0.4976562 -1.1050000
v 0.2550000 0.4476562 -1.1750000
v 0.2550000 0.4976562 -1.1050000
v 0.2550000 0.4476562 -1.1050000
v -0.2550000 0.4476562 -1.1750000
v 0.2550000 0.4476562 -1.1750000
v 0.2550000 0.4476562 -1.1050000
v -0.2550000 0.4476562 -1.1750000
v 0.2550000 0.4476562 -1.1050000
v -0.2550000 0.4476562 -1.1050000
v -0.2550000 0.4976562 -1.1750000
v -0.2550000 0.4976562 -1.1050000
v 0.2550000 0.4976562 -1.1050000
v -0.2550000 0.4976562 -1.1750000
v 0.2550000 0.4976562 -1.1050000
v 0.2550000 0.4976562 -1.1750000
v -0.2550000 0.6051172 -0.8850000
v -0.2550000 0.6551172 -0.8850000
v 0.2550000 0.6551172 -0.8850000
v -0.2550000 0.6051172 -0.8850000
v 0.2550000 0.6551172 -0.8850000
v 0.2550000 0.6051172 -0.8850000
v -0.2550000 0.6051172 -0.8150000
v 0.2550000 0.6051172 -0.8150000
v 0.2550000 0.6551172 -0.8150000
v -0.2550000 0.6051172 -0.8150000
v 0.2550000 0.6551172 -0.8150000
v -0.2550000 0.6551172 -0.8150000
v -0.2550000 0.6051172 -0.8850000
v -0.2550000 0.6051172 -0.8150000
v -0.2550000 0.6551172 -0.8150000
v -0.2550000 0.6051172 -0.8850000
v -0.2550000 0.6551172 -0.8150000
v -0.2550000 0.6551172 -0.8850000
v 0.2550000 0.6051172 -0.8850000
v 0.2550000 0.6551172 -0.8850000
v 0.2550000 0.6551172 -0.8150000
v 0.2550000 0.6051172 -0.8850000
v 0.2550000 0.6551172 -0.8150000
v 0.2550000 0.6051172 -0.8150000
v -0.2550000 0.6051172 -0.8850000
v 0.2550000 0.6051172 -0.8850000
v 0.2550000 0.6051172 -0.8150000
v -0.2550000 0.6051172 -0.8850000
v 0.2550000 0.6051172 -0.8150000
v -0.2550000 0.6051172 -0.8150000
v -0.2550000 0.6551172 -0.8850000
v -0.2550000 0.6551172 -0.8150000
v 0.2550000 0.6551172 -0.8150000
v -0.2550000 0.6551172 -0.8850000
v 0.2550000 0.6551172 -0.8150000
v 0.2550000 0.6551172 -0.8850000
vn 0.0000000 0.0000000 -1.0000000
vn 0.0000000 0.0000000 -1.0000000
vn 0.0000000 0.0000000 1.0000000
vn 0.0000000 0.0000000 1.0000000
vn -1.0000000 0.0000000 0.0000000
vn -1.0000000 0.0000000 0.0000000
vn 1.0000000 0.0000000 0.0000000
vn 1.0000000 0.0000000 0.0000000
vn 0.0000000 -1.0000000 0.0000000
vn 0.0000000 -1.0000000 0.0000000
vn 0.0000000 1.0000000 0.0000000
vn 0.0000000 1.0000000 0.0000000
vn 0.0000000 0.0000000 -1.0000000
vn 0.0000000 0.0000000 -1.0000000
vn 0.0000000 0.0000000 1.0000000
vn 0.0000000 0.0000000 1.0000000
vn -1.0000000 0.0000000 0.0000000
vn -1.0000000 0.0000000 0.0000000
vn 1.0000000 0.0000000 0.0000000
vn 1.0000000 0.0000000 0.0000000
vn 0.0000000 -1.0000000 0.0000000
vn 0.0000000 -1.0000000 0.0000000
vn 0.0000000 1.0000000 0.0000000
vn 0.0000000 1.0000000 0.0000000
vn 0.0000000 0.0000000 -1.0000000
vn 0.0000000 0.0000000 -1.0000000
vn 0.0000000 0.0000000 1.0000000
vn 0.0000000 0.0000000 1.0000000
vn -1.0000000 0.0000000 0.0000000
vn -1.0000000 0.0000000 0.0000000
vn 1.0000000 0.0000000 0.0000000
vn 1.0000000 0.0000000 0.0000000
vn 0.0000000 -1.0000000 0.0000000
vn 0.0000000 -1.0000000 0.0000000
vn 0.0000000 1.0000000 0.0000000
vn 0.0000000 1.0000000 0.0000000
vn 0.0000000 0.0000000 -1.0000000
vn 0.0000000 0.0000000 -1.0000000
vn 0.0000000 0.0000000 1.0000000
vn 0.0000000 0.0000000 1.0000000
vn -1.0000000 0.0000000 0.0000000
vn -1.0000000 0.0000000 0.0000000
vn 1.0000000 0.0000000 0.0000000
vn 1.0000000 0.0000000 0.0000000
vn 0.0000000 -1.0000000 0.0000000
vn 0.0000000 -1.0000000 0.0000000
vn 0.0000000 1.0000000 0.0000000
vn 0.0000000 1.0000000 0.0000000
vn 0.0000000 0.0000000 -1.0000000
vn 0.0000000 0.0000000 -1.0000000
vn 0.0000000 0.0000000 1.0000000
vn 0.0000000 0.0000000 1.0000000
vn -1.0000000 0.0000000 0.0000000
vn -1.0000000 0.0000000 0.0000000
vn 1.0000000 0.0000000 0.0000000
vn 1.0000000 0.0000000 0.0000000
vn 0.0000000 -1.0000000 0.0000000
vn 0.0000000 -1.0000000 0.0000000
vn 0.0000000 1.0000000 0.0000000
vn 0.0000000 1.0000000 0.0000000
vn 0.0000000 0.0000000 -1.0000000
vn 0.0000000 0.0000000 -1.0000000
vn 0.0000000 0.0000000 1.0000000
vn 0.0000000 0.0000000 1.0000000
vn -1.0000000 0.0000000 0.0000000
vn -1.0000000 0.0000000 0.0000000
vn 1.0000000 0.0000000 0.0000000
vn 1.0000000 0.0000000 0.0000000
vn 0.0000000 -1.0000000 0.0000000
vn 0.0000000 -1.0000000 0.0000000
vn 0.0000000 1.0000000 0.0000000
vn 0.0000000 1.0000000 0.0000000
vn 0.0000000 0.0000000 -1.0000000
vn 0.0000000 0.0000000 1.0000000
vn 0.0000000 0.0000000 -1.0000000
vn 0.0000000 0.0000000 1.0000000
vn -0.3889720 0.9212496 0.0000000
vn -0.3889720 0.9212496 0.0000000
vn -1.0000000 0.0000000 0.0000000
vn -1.0000000 0.0000000 0.0000000
vn 0.3889720 -0.9212496 0.0000000
vn 0.3889720 -0.9212496 0.0000000
vn 1.0000000 0.0000000 0.0000000
vn 1.0000000 0.0000000 0.0000000
vn 0.0000000 0.0000000 -1.0000000
vn 0.0000000 0.0000000 1.0000000
vn 0.0000000 0.0000000 -1.0000000
vn 0.0000000 0.0000000 1.0000000
vn -0.3889720 0.9212496 0.0000000
vn -0.3889720 0.9212496 0.0000000
vn -1.0000000 0.0000000 0.0000000
vn -1.0000000 0.0000000 0.0000000
vn 0.3889720 -0.9212496 0.0000000
vn 0.3889720 -0.9212496 0.0000000
vn 1.0000000 0.0000000 0.0000000
vn 1.0000000 0.0000000 0.0000000
vn 0.0000000 0.0000000 -1.0000000
vn 0.0000000 0.0000000 1.0000000
vn 0.0000000 0.0000000 -1.0000000
vn 0.0000000 0.0000000 1.0000000
vn -0.3889720 0.9212496 0.0000000
vn -0.3889720 0.9212496 0.0000000
vn -1.0000000 0.0000000 0.0000000
vn -1.0000000 0.0000000 0.0000000
vn 0.3889720 -0.9212496 0.0000000
vn 0.3889720 -0.9212496 0.0000000
vn 1.0000000 0.0000000 0.0000000
vn 1.0000000 0.0000000 0.0000000
vn 0.0000000 0.0000000 -1.0000000
vn 0.0000000 0.0000000 1.0000000
vn 0.0000000 0.0000000 -1.0000000
vn 0.0000000 0.0000000 1.0000000
vn -0.3889720 0.9212496 0.0000000
vn -0.3889720 0.9212496 0.0000000
vn -1.0000000 0.0000000 0.0000000
vn -1.0000000 0.0000000 0.0000000
vn 0.3889720 -0.9212496 0.0000000
vn 0.3889720 -0.9212496 0.0000000
vn 1.0000000 0.0000000 0.0000000
vn 1.0000000 0.0000000 0.0000000
vn 0.0000000 0.0000000 -1.0000000
vn 0.0000000 0.0000000 1.0000000
vn 0.0000000 0.0000000 -1.0000000
vn 0.0000000 0.0000000 1.0000000
vn -0.3889720 -0.9212496 0.0000000
vn -0.3889720 -0.9212496 0.0000000
vn 1.0000000 0.0000000 0.0000000
vn 1.0000000 0.0000000 0.0000000
vn 0.3889720 0.9212496 0.0000000
vn 0.3889720 0.9212496 0.0000000
vn -1.0000000 0.0000000 0.0000000
vn -1.0000000 0.0000000 0.0000000
vn 0.0000000 0.0000000 -1.0000000
vn 0.0000000 0.0000000 1.0000000
vn 0.0000000 0.0000000 -1.0000000
vn 0.0000000 0.0000000 1.0000000
vn -0.3889720 -0.9212496 0.0000000
vn -0.3889720 -0.9212496 0.0000000
vn 1.0000000 0.0000000 0.0000000
vn 1.0000000 0.0000000 0.0000000
vn 0.3889720 0.9212496 0.0000000
vn 0.3889720 0.9212496 0.0000000
vn -1.0000000 0.0000000 0.0000000
vn -1.0000000 0.0000000 0.0000000
vn 0.0000000 0.0000000 -1.0000000
vn 0.0000000 0.0000000 1.0000000
vn 0.0000000 0.0000000 -1.0000000
vn 0.0000000 0.0000000 1.0000000
vn -0.3889720 -0.9212496 0.0000000
vn -0.3889720 -0.9212496 0.0000000
vn 1.0000000 0.0000000 0.0000000
vn 1.0000000 0.0000000 0.0000000
vn 0.3889720 0.9212496 0.0000000
vn 0.3889720 0.9212496 0.0000000
vn -1.0000000 0.0000000 0.0000000
vn -1.0000000 0.0000000 0.0000000
vn 0.0000000 0.0000000 -1.0000000
vn 0.0000000 0.0000000 1.0000000
vn 0.0000000 0.0000000 -1.0000000
vn 0.0000000 0.0000000 1.0000000
vn -0.3889720 -0.9212496 0.0000000
vn -0.3889720 -0.9212496 0.0000000
vn 1.0000000 0.0000000 0.0000000
vn 1.0000000 0.0000000 0.0000000
vn 0.3889720 0.9212496 0.0000000
vn 0.3889720 0.9212496 0.0000000
vn -1.0000000 0.0000000 0.0000000
vn -1.0000000 0.0000000 0.0000000
vn -1.0000000 0.0000000 0.0000000
vn -1.0000000 0.0000000 0.0000000
vn 0.0000000 0.0000000 1.0000000
vn 0.0000000 0.0000000 1.0000000
vn 1.0000000 0.0000000 0.0000000
vn 1.0000000 0.0000000 0.0000000
vn 0.0000000 0.0000000 -1.0000000
vn 0.0000000 0.0000000 -1.0000000
vn 0.0000000 -1.0000000 0.0000000
vn 0.0000000 -1.0000000 0.0000000
vn 0.0000000 1.0000000 0.0000000
vn 0.0000000 1.0000000 0.0000000
vn 0.0000000 -0.8788123 0.4771676
vn 0.0000000 -0.8788123 0.4771676
vn 1.0000000 0.0000000 0.0000000
vn 1.0000000 0.0000000 0.0000000
vn 0.0000000 0.8788123 -0.4771676
vn 0.0000000 0.8788123 -0.4771676
vn -1.0000000 0.0000000 0.0000000
vn -1.0000000 0.0000000 0.0000000
vn 0.0000000 -0.4771676 -0.8788123
vn 0.0000000 -0.4771676 -0.8788123
vn 0.0000000 0.4771676 0.8788123
vn 0.0000000 0.4771676 0.8788123
vn 0.0000000 0.0000000 -1.0000000
vn 0.0000000 0.0000000 -1.0000000
vn 0.0000000 0.0000000 1.0000000
vn 0.0000000 0.0000000 1.0000000
vn -1.0000000 0.0000000 0.0000000
vn -1.0000000 0.0000000 0.0000000
vn 1.0000000 0.0000000 0.0000000
vn 1.0000000 0.0000000 0.0000000
vn 0.0000000 -1.0000000 0.0000000
vn 0.0000000 -1.0000000 0.0000000
vn 0.0000000 1.0000000 0.0000000
vn 0.0000000 1.0000000 0.0000000
vn 0.0000000 0.0000000 -1.0000000
vn 0.0000000 0.0000000 -1.0000000
vn 0.0000000 0.0000000 1.0000000
vn 0.0000000 0.0000000 1.0000000
vn -1.0000000 0.0000000 0.0000000
vn -1.0000000 0.0000000 0.0000000
vn 1.0000000 0.0000000 0.0000000
vn 1.0000000 0.0000000 0.0000000
vn 0.0000000 -1.0000000 0.0000000
vn 0.0000000 -1.0000000 0.0000000
vn 0.0000000 1.0000000 0.0000000
vn 0.0000000 1.0000000 0.0000000
vn 0.0000000 0.0000000 -1.0000000
vn 0.0000000 0.0000000 -1.0000000
vn 0.0000000 0.0000000 1.0000000
vn 0.0000000 0.0000000 1.0000000
vn -1.0000000 0.0000000 0.0000000
vn -1.0000000 0.0000000 0.0000000
vn 1.0000000 0.0000000 0.0000000
vn 1.0000000 0.0000000 0.0000000
vn 0.0000000 -1.0000000 0.0000000
vn 0.0000000 -1.0000000 0.0000000
vn 0.0000000 1.0000000 0.0000000
vn 0.0000000 1.0000000 0.0000000
vn 0.0000000 0.0000000 -1.0000000
vn 0.0000000 0.0000000 -1.0000000
vn 0.0000000 0.0000000 1.0000000
vn 0.0000000 0.0000000 1.0000000
vn -1.0000000 0.0000000 0.0000000
vn -1.0000000 0.0000000 0.0000000
vn 1.0000000 0.0000000 0.0000000
vn 1.0000000 0.0000000 0.0000000
vn 0.0000000 -1.0000000 0.0000000
vn 0.0000000 -1.0000000 0.0000000
vn 0.0000000 1.0000000 0.0000000
vn 0.0000000 1.0000000 0.0000000
usemtl wood_dark
f 1//1 2//1 3//1
usemtl wood_dark
f 4//2 5//2 6//2
usemtl wood_dark
f 7//3 8//3 9//3
usemtl wood_dark
f 10//4 11//4 12//4
usemtl wood_dark
f 13//5 14//5 15//5
usemtl wood_dark
f 16//6 17//6 18//6
usemtl wood_dark
f 19//7 20//7 21//7
usemtl wood_dark
f 22//8 23//8 24//8
usemtl wood_dark
f 25//9 26//9 27//9
usemtl wood_dark
f 28//10 29//10 30//10
usemtl wood_dark
f 31//11 32//11 33//11
usemtl wood_dark
f 34//12 35//12 36//12
usemtl wood_dark
f 37//13 38//13 39//13
usemtl wood_dark
f 40//14 41//14 42//14
usemtl wood_dark
f 43//15 44//15 45//15
usemtl wood_dark
f 46//16 47//16 48//16
usemtl wood_dark
f 49//17 50//17 51//17
usemtl wood_dark
f 52//18 53//18 54//18
usemtl wood_dark
f 55//19 56//19 57//19
usemtl wood_dark
f 58//20 59//20 60//20
usemtl wood_dark
f 61//21 62//21 63//21
usemtl wood_dark
f 64//22 65//22 66//22
usemtl wood_dark
f 67//23 68//23 69//23
usemtl wood_dark
f 70//24 71//24 72//24
usemtl wood_dark
f 73//25 74//25 75//25
usemtl wood_dark
f 76//26 77//26 78//26
usemtl wood_dark
f 79//27 80//27 81//27
usemtl wood_dark
f 82//28 83//28 84//28
usemtl wood_dark
f 85//29 86//29 87//29
usemtl wood_dark
f 88//30 89//30 90//30
usemtl wood_dark
f 91//31 92//31 93//31
usemtl wood_dark
f 94//32 95//32 96//32
usemtl wood_dark
f 97//33 98//33 99//33
usemtl wood_dark
f 100//34 101//34 102//34
usemtl wood_dark
f 103//35 104//35 105//35
usemtl wood_dark
f 106//36 107//36 108//36
usemtl wood_dark
f 109//37 110//37 111//37
usemtl wood_dark
f 112//38 113//38 114//38
usemtl wood_dark
f 115//39 116//39 117//39
usemtl wood_dark
f 118//40 119//40 120//40
usemtl wood_dark
f 121//41 122//41 123//41
usemtl wood_dark
f 124//42 125//42 126//42
usemtl wood_dark
f 127//43 128//43 129//43
usemtl wood_dark
f 130//44 131//44 132//44
usemtl wood_dark
f 133//45 134//45 135//45
usemtl wood_dark
f 136//46 137//46 138//46
usemtl wood_dark
f 139//47 140//47 141//47
usemtl wood_dark
f 142//48 143//48 144//48
usemtl wood
f 145//49 146//49 147//49
usemtl wood
f 148//50 149//50 150//50
usemtl wood
f 151//51 152//51 153//51
usemtl wood
f 154//52 155//52 156//52
usemtl wood
f 157//53 158//53 159//53
usemtl wood
f 160//54 161//54 162//54
usemtl wood
f 163//55 164//55 165//55
usemtl wood
f 166//56 167//56 168//56
usemtl wood
f 169//57 170//57 171//57
usemtl wood
f 172//58 173//58 174//58
usemtl wood
f 175//59 176//59 177//59
usemtl wood
f 178//60 179//60 180//60
usemtl window
f 181//61 182//61 183//61
usemtl window
f 184//62 185//62 186//62
usemtl window
f 187//63 188//63 189//63
usemtl window
f 190//64 191//64 192//64
usemtl window
f 193//65 194//65 195//65
usemtl window
f 196//66 197//66 198//66
usemtl window
f 199//67 200//67 201//67
usemtl window
f 202//68 203//68 204//68
usemtl window
f 205//69 206//69 207//69
usemtl window
f 208//70 209//70 210//70
usemtl window
f 211//71 212//71 213//71
usemtl window
f 214//72 215//72 216//72
usemtl roof
f 217//73 218//73 219//73
usemtl roof
f 220//74 221//74 222//74
usemtl roof
f 223//75 224//75 225//75
usemtl roof
f 226//76 227//76 228//76
usemtl roof
f 229//77 230//77 231//77
usemtl roof
f 232//78 233//78 234//78
usemtl roof
f 235//79 236//79 237//79
usemtl roof
f 238//80 239//80 240//80
usemtl roof
f 241//81 242//81 243//81
usemtl roof
f 244//82 245//82 246//82
usemtl roof
f 247//83 248//83 249//83
usemtl roof
f 250//84 251//84 252//84
usemtl roof
f 253//85 254//85 255//85
usemtl roof
f 256//86 257//86 258//86
usemtl roof
f 259//87 260//87 261//87
usemtl roof
f 262//88 263//88 264//88
usemtl roof
f 265//89 266//89 267//89
usemtl roof
f 268//90 269//90 270//90
usemtl roof
f 271//91 272//91 273//91
usemtl roof
f 274//92 275//92 276//92
usemtl roof
f 277//93 278//93 279//93
usemtl roof
f 280//94 281//94 282//94
usemtl roof
f 283//95 284//95 285//95
usemtl roof
f 286//96 287//96 288//96
usemtl roof
f 289//97 290//97 291//97
usemtl roof
f 292//98 293//98 294//98
usemtl roof
f 295//99 296//99 297//99
usemtl roof
f 298//100 299//100 300//100
usemtl roof
f 301//101 302//101 303//101
usemtl roof
f 304//102 305//102 306//102
usemtl roof
f 307//103 308//103 309//103
usemtl roof
f 310//104 311//104 312//104
usemtl roof
f 313//105 314//105 315//105
usemtl roof
f 316//106 317//106 318//106
usemtl roof
f 319//107 320//107 321//107
usemtl roof
f 322//108 323//108 324//108
usemtl roof
f 325//109 326//109 327//109
usemtl roof
f 328//110 329//110 330//110
usemtl roof
f 331//111 332//111 333//111
usemtl roof
f 334//112 335//112 336//112
usemtl roof
f 337//113 338//113 339//113
usemtl roof
f 340//114 341//114 342//114
usemtl roof
f 343//115 344//115 345//115
usemtl roof
f 346//116 347//116 348//116
usemtl roof
f 349//117 350//117 351//117
usemtl roof
f 352//118 353//118 354//118
usemtl roof
f 355//119 356//119 357//119
usemtl roof
f 358//120 359//120 360//120
usemtl roof
f 361//121 362//121 363//121
usemtl roof
f 364//122 365//122 366//122
usemtl roof
f 367//123 368//123 369//123
usemtl roof
f 370//124 371//124 372//124
usemtl roof
f 373//125 374//125 375//125
usemtl roof
f 376//126 377//126 378//126
usemtl roof
f 379//127 380//127 381//127
usemtl roof
f 382//128 383//128 384//128
usemtl roof
f 385//129 386//129 387//129
usemtl roof
f 388//130 389//130 390//130
usemtl roof
f 391//131 392//131 393//131
usemtl roof
f 394//132 395//132 396//132
usemtl roof
f 397//133 398//133 399//133
usemtl roof
f 400//134 401//134 402//134
usemtl roof
f 403//135 404//135 405//135
usemtl roof
f 406//136 407//136 408//136
usemtl roof
f 409//137 410//137 411//137
usemtl roof
f 412//138 413//138 414//138
usemtl roof
f 415//139 416//139 417//139
usemtl roof
f 418//140 419//140 420//140
usemtl roof
f 421//141 422//141 423//141
usemtl roof
f 424//142 425//142 426//142
usemtl roof
f 427//143 428//143 429//143
usemtl roof
f 430//144 431//144 432//144
usemtl roof
f 433//145 434//145 435//145
usemtl roof
f 436//146 437//146 438//146
usemtl roof
f 439//147 440//147 441//147
usemtl roof
f 442//148 443//148 444//148
usemtl roof
f 445//149 446//149 447//149
usemtl roof
f 448//150 449//150 450//150
usemtl roof
f 451//151 452//151 453//151
usemtl roof
f 454//152 455//152 456//152
usemtl roof
f 457//153 458//153 459//153
usemtl roof
f 460//154 461//154 462//154
usemtl roof
f 463//155 464//155 465//155
usemtl roof
f 466//156 467//156 468//156
usemtl roof
f 469//157 470//157 471//157
usemtl roof
f 472//158 473//158 474//158
usemtl roof
f 475//159 476//159 477//159
usemtl roof
f 478//160 479//160 480//160
usemtl roof
f 481//161 482//161 483//161
usemtl roof
f 484//162 485//162 486//162
usemtl roof
f 487//163 488//163 489//163
usemtl roof
f 490//164 491//164 492//164
usemtl roof
f 493//165 494//165 495//165
usemtl roof
f 496//166 497//166 498//166
usemtl roof
f 499//167 500//167 501//167
usemtl roof
f 502//168 503//168 504//168
usemtl wood_dark
f 505//169 506//169 507//169
usemtl wood_dark
f 508//170 509//170 510//170
usemtl wood_dark
f 511//171 512//171 513//171
usemtl wood_dark
f 514//172 515//172 516//172
usemtl wood_dark
f 517//173 518//173 519//173
usemtl wood_dark
f 520//174 521//174 522//174
usemtl wood_dark
f 523//175 524//175 525//175
usemtl wood_dark
f 526//176 527//176 528//176
usemtl wood_dark
f 529//177 530//177 531//177
usemtl wood_dark
f 532//178 533//178 534//178
usemtl wood_dark
f 535//179 536//179 537//179
usemtl wood_dark
f 538//180 539//180 540//180
usemtl wood_dark
f 541//181 542//181 543//181
usemtl wood_dark
f 544//182 545//182 546//182
usemtl wood_dark
f 547//183 548//183 549//183
usemtl wood_dark
f 550//184 551//184 552//184
usemtl wood_dark
f 553//185 554//185 555//185
usemtl wood_dark
f 556//186 557//186 558//186
usemtl wood_dark
f 559//187 560//187 561//187
usemtl wood_dark
f 562//188 563//188 564//188
usemtl wood_dark
f 565//189 566//189 567//189
usemtl wood_dark
f 568//190 569//190 570//190
usemtl wood_dark
f 571//191 572//191 573//191
usemtl wood_dark
f 574//192 575//192 576//192
usemtl wood_light
f 577//193 578//193 579//193
usemtl wood_light
f 580//194 581//194 582//194
usemtl wood_light
f 583//195 584//195 585//195
usemtl wood_light
f 586//196 587//196 588//196
usemtl wood_light
f 589//197 590//197 591//197
usemtl wood_light
f 592//198 593//198 594//198
usemtl wood_light
f 595//199 596//199 597//199
usemtl wood_light
f 598//200 599//200 600//200
usemtl wood_light
f 601//201 602//201 603//201
usemtl wood_light
f 604//202 605//202 606//202
usemtl wood_light
f 607//203 608//203 609//203
usemtl wood_light
f 610//204 611//204 612//204
usemtl wood_light
f 613//205 614//205 615//205
usemtl wood_light
f 616//206 617//206 618//206
usemtl wood_light
f 619//207 620//207 621//207
usemtl wood_light
f 622//208 623//208 624//208
usemtl wood_light
f 625//209 626//209 627//209
usemtl wood_light
f 628//210 629//210 630//210
usemtl wood_light
f 631//211 632//211 633//211
usemtl wood_light
f 634//212 635//212 636//212
usemtl wood_light
f 637//213 638//213 639//213
usemtl wood_light
f 640//214 641//214 642//214
usemtl wood_light
f 643//215 644//215 645//215
usemtl wood_light
f 646//216 647//216 648//216
usemtl wood_light
f 649//217 650//217 651//217
usemtl wood_light
f 652//218 653//218 654//218
usemtl wood_light
f 655//219 656//219 657//219
usemtl wood_light
f 658//220 659//220 660//220
usemtl wood_light
f 661//221 662//221 663//221
usemtl wood_light
f 664//222 665//222 666//222
usemtl wood_light
f 667//223 668//223 669//223
usemtl wood_light
f 670//224 671//224 672//224
usemtl wood_light
f 673//225 674//225 675//225
usemtl wood_light
f 676//226 677//226 678//226
usemtl wood_light
f 679//227 680//227 681//227
usemtl wood_light
f 682//228 683//228 684//228
usemtl wood_light
f 685//229 686//229 687//229
usemtl wood_light
f 688//230 689//230 690//230
usemtl wood_light
f 691//231 692//231 693//231
usemtl wood_light
f 694//232 695//232 696//232
usemtl wood_light
f 697//233 698//233 699//233
usemtl wood_light
f 700//234 701//234 702//234
usemtl wood_light
f 703//235 704//235 705//235
usemtl wood_light
f 706//236 707//236 708//236
usemtl wood_light
f 709//237 710//237 711//237
usemtl wood_light
f 712//238 713//238 714//238
usemtl wood_light
f 715//239 716//239 717//239
usemtl wood_light
f 718//240 719//240 720//240
