# Original Quiet Camp environment study; NOT a downloaded Sketchfab donor
# Units: metres; Y up; no external geometry or textures
mtllib palette.mtl
o ua_dam_breached
v -20.0000000 0.0000000 -7.5448340
v -16.5000000 0.0000000 -6.5323884
v -16.5000000 0.0000000 4.7541610
v -20.0000000 0.0000000 -7.5448340
v -16.5000000 0.0000000 4.7541610
v -20.0000000 0.0000000 5.1428287
v -20.0000000 0.0000000 5.1428287
v -16.5000000 0.0000000 4.7541610
v -16.5000000 2.5624295 1.4567678
v -20.0000000 0.0000000 5.1428287
v -16.5000000 2.5624295 1.4567678
v -20.0000000 2.5203651 1.2130582
v -20.0000000 2.5203651 1.2130582
v -16.5000000 2.5624295 1.4567678
v -16.5000000 2.7124295 -1.2404794
v -20.0000000 2.5203651 1.2130582
v -16.5000000 2.7124295 -1.2404794
v -20.0000000 2.6703651 -1.0183836
v -20.0000000 2.6703651 -1.0183836
v -16.5000000 2.7124295 -1.2404794
v -16.5000000 0.0000000 -6.5323884
v -20.0000000 2.6703651 -1.0183836
v -16.5000000 0.0000000 -6.5323884
v -20.0000000 0.0000000 -7.5448340
v -16.5000000 0.0000000 -6.5323884
v -13.0000000 0.0000000 -7.1755041
v -13.0000000 0.0000000 5.3176064
v -16.5000000 0.0000000 -6.5323884
v -13.0000000 0.0000000 5.3176064
v -16.5000000 0.0000000 4.7541610
v -16.5000000 0.0000000 4.7541610
v -13.0000000 0.0000000 5.3176064
v -13.0000000 2.8079511 1.2869749
v -16.5000000 0.0000000 4.7541610
v -13.0000000 2.8079511 1.2869749
v -16.5000000 2.5624295 1.4567678
v -16.5000000 2.5624295 1.4567678
v -13.0000000 2.8079511 1.2869749
v -13.0000000 2.9579511 -0.9185106
v -16.5000000 2.5624295 1.4567678
v -13.0000000 2.9579511 -0.9185106
v -16.5000000 2.7124295 -1.2404794
v -16.5000000 2.7124295 -1.2404794
v -13.0000000 2.9579511 -0.9185106
v -13.0000000 0.0000000 -7.1755041
v -16.5000000 2.7124295 -1.2404794
v -13.0000000 0.0000000 -7.1755041
v -16.5000000 0.0000000 -6.5323884
v -13.0000000 0.0000000 -7.1755041
v -9.5000000 0.0000000 -7.1972541
v -9.5000000 0.0000000 4.6509897
v -13.0000000 0.0000000 -7.1755041
v -9.5000000 0.0000000 4.6509897
v -13.0000000 0.0000000 5.3176064
v -13.0000000 0.0000000 5.3176064
v -9.5000000 0.0000000 4.6509897
v -9.5000000 2.6864967 1.3612727
v -13.0000000 0.0000000 5.3176064
v -9.5000000 2.6864967 1.3612727
v -13.0000000 2.8079511 1.2869749
v -13.0000000 2.8079511 1.2869749
v -9.5000000 2.6864967 1.3612727
v -9.5000000 2.8364967 -1.2994344
v -13.0000000 2.8079511 1.2869749
v -9.5000000 2.8364967 -1.2994344
v -13.0000000 2.9579511 -0.9185106
v -13.0000000 2.9579511 -0.9185106
v -9.5000000 2.8364967 -1.2994344
v -9.5000000 0.0000000 -7.1972541
v -13.0000000 2.9579511 -0.9185106
v -9.5000000 0.0000000 -7.1972541
v -13.0000000 0.0000000 -7.1755041
v -9.5000000 0.0000000 -7.1972541
v -6.0000000 0.0000000 -6.5206333
v -6.0000000 0.0000000 5.3360596
v -9.5000000 0.0000000 -7.1972541
v -6.0000000 0.0000000 5.3360596
v -9.5000000 0.0000000 4.6509897
v -9.5000000 0.0000000 4.6509897
v -6.0000000 0.0000000 5.3360596
v -6.0000000 2.4802476 1.3919123
v -9.5000000 0.0000000 4.6509897
v -6.0000000 2.4802476 1.3919123
v -9.5000000 2.6864967 1.3612727
v -9.5000000 2.6864967 1.3612727
v -6.0000000 2.4802476 1.3919123
v -6.0000000 2.6302476 -0.9079659
v -9.5000000 2.6864967 1.3612727
v -6.0000000 2.6302476 -0.9079659
v -9.5000000 2.8364967 -1.2994344
v -9.5000000 2.8364967 -1.2994344
v -6.0000000 2.6302476 -0.9079659
v -6.0000000 0.0000000 -6.5206333
v -9.5000000 2.8364967 -1.2994344
v -6.0000000 0.0000000 -6.5206333
v -9.5000000 0.0000000 -7.1972541
v -20.0000000 0.0000000 -7.5448340
v -20.0000000 0.0000000 5.1428287
v -20.0000000 2.5203651 1.2130582
v -20.0000000 0.0000000 -7.5448340
v -20.0000000 2.5203651 1.2130582
v -20.0000000 2.6703651 -1.0183836
v -6.0000000 2.6302476 -0.9079659
v -6.0000000 2.4802476 1.3919123
v -6.0000000 0.0000000 5.3360596
v -6.0000000 2.6302476 -0.9079659
v -6.0000000 0.0000000 5.3360596
v -6.0000000 0.0000000 -6.5206333
v -16.4550000 0.9000000 -5.9270000
v -16.3609424 0.6000000 -5.4720246
v -16.0500000 0.6000000 -5.9000000
v -16.5315000 0.3000000 -5.8730000
v -16.0500000 0.6000000 -5.9000000
v -16.3609424 0.6000000 -5.4720246
v -16.4550000 0.9000000 -5.9270000
v -16.8640576 0.6000000 -5.6354966
v -16.3609424 0.6000000 -5.4720246
v -16.5315000 0.3000000 -5.8730000
v -16.3609424 0.6000000 -5.4720246
v -16.8640576 0.6000000 -5.6354966
v -16.4550000 0.9000000 -5.9270000
v -16.8640576 0.6000000 -6.1645034
v -16.8640576 0.6000000 -5.6354966
v -16.5315000 0.3000000 -5.8730000
v -16.8640576 0.6000000 -5.6354966
v -16.8640576 0.6000000 -6.1645034
v -16.4550000 0.9000000 -5.9270000
v -16.3609424 0.6000000 -6.3279754
v -16.8640576 0.6000000 -6.1645034
v -16.5315000 0.3000000 -5.8730000
v -16.8640576 0.6000000 -6.1645034
v -16.3609424 0.6000000 -6.3279754
v -16.4550000 0.9000000 -5.9270000
v -16.0500000 0.6000000 -5.9000000
v -16.3609424 0.6000000 -6.3279754
v -16.5315000 0.3000000 -5.8730000
v -16.3609424 0.6000000 -6.3279754
v -16.0500000 0.6000000 -5.9000000
v -10.9950000 0.9000000 -5.9270000
v -10.9009424 0.6000000 -5.4720246
v -10.5900000 0.6000000 -5.9000000
v -11.0715000 0.3000000 -5.8730000
v -10.5900000 0.6000000 -5.9000000
v -10.9009424 0.6000000 -5.4720246
v -10.9950000 0.9000000 -5.9270000
v -11.4040576 0.6000000 -5.6354966
v -10.9009424 0.6000000 -5.4720246
v -11.0715000 0.3000000 -5.8730000
v -10.9009424 0.6000000 -5.4720246
v -11.4040576 0.6000000 -5.6354966
v -10.9950000 0.9000000 -5.9270000
v -11.4040576 0.6000000 -6.1645034
v -11.4040576 0.6000000 -5.6354966
v -11.0715000 0.3000000 -5.8730000
v -11.4040576 0.6000000 -5.6354966
v -11.4040576 0.6000000 -6.1645034
v -10.9950000 0.9000000 -5.9270000
v -10.9009424 0.6000000 -6.3279754
v -11.4040576 0.6000000 -6.1645034
v -11.0715000 0.3000000 -5.8730000
v -11.4040576 0.6000000 -6.1645034
v -10.9009424 0.6000000 -6.3279754
v -10.9950000 0.9000000 -5.9270000
v -10.5900000 0.6000000 -5.9000000
v -10.9009424 0.6000000 -6.3279754
v -11.0715000 0.3000000 -5.8730000
v -10.9009424 0.6000000 -6.3279754
v -10.5900000 0.6000000 -5.9000000
v 6.0000000 0.0000000 -7.4793667
v 9.5000000 0.0000000 -6.8027459
v 9.5000000 0.0000000 4.6509897
v 6.0000000 0.0000000 -7.4793667
v 9.5000000 0.0000000 4.6509897
v 6.0000000 0.0000000 5.3360596
v 6.0000000 0.0000000 5.3360596
v 9.5000000 0.0000000 4.6509897
v 9.5000000 2.6135033 1.3387273
v 6.0000000 0.0000000 5.3360596
v 9.5000000 2.6135033 1.3387273
v 6.0000000 2.8197524 1.3080877
v 6.0000000 2.8197524 1.3080877
v 9.5000000 2.6135033 1.3387273
v 9.5000000 2.7635033 -1.2994344
v 6.0000000 2.8197524 1.3080877
v 9.5000000 2.7635033 -1.2994344
v 6.0000000 2.9697524 -0.9079659
v 6.0000000 2.9697524 -0.9079659
v 9.5000000 2.7635033 -1.2994344
v 9.5000000 0.0000000 -6.8027459
v 6.0000000 2.9697524 -0.9079659
v 9.5000000 0.0000000 -6.8027459
v 6.0000000 0.0000000 -7.4793667
v 9.5000000 0.0000000 -6.8027459
v 13.0000000 0.0000000 -6.8244959
v 13.0000000 0.0000000 5.3176064
v 9.5000000 0.0000000 -6.8027459
v 13.0000000 0.0000000 5.3176064
v 9.5000000 0.0000000 4.6509897
v 9.5000000 0.0000000 4.6509897
v 13.0000000 0.0000000 5.3176064
v 13.0000000 2.4920489 1.4130251
v 9.5000000 0.0000000 4.6509897
v 13.0000000 2.4920489 1.4130251
v 9.5000000 2.6135033 1.3387273
v 9.5000000 2.6135033 1.3387273
v 13.0000000 2.4920489 1.4130251
v 13.0000000 2.6420489 -0.9185106
v 9.5000000 2.6135033 1.3387273
v 13.0000000 2.6420489 -0.9185106
v 9.5000000 2.7635033 -1.2994344
v 9.5000000 2.7635033 -1.2994344
v 13.0000000 2.6420489 -0.9185106
v 13.0000000 0.0000000 -6.8244959
v 9.5000000 2.7635033 -1.2994344
v 13.0000000 0.0000000 -6.8244959
v 9.5000000 0.0000000 -6.8027459
v 13.0000000 0.0000000 -6.8244959
v 16.5000000 0.0000000 -7.4676116
v 16.5000000 0.0000000 4.7541610
v 13.0000000 0.0000000 -6.8244959
v 16.5000000 0.0000000 4.7541610
v 13.0000000 0.0000000 5.3176064
v 13.0000000 0.0000000 5.3176064
v 16.5000000 0.0000000 4.7541610
v 16.5000000 2.7375705 1.2432322
v 13.0000000 0.0000000 5.3176064
v 16.5000000 2.7375705 1.2432322
v 13.0000000 2.4920489 1.4130251
v 13.0000000 2.4920489 1.4130251
v 16.5000000 2.7375705 1.2432322
v 16.5000000 2.8875705 -1.2404794
v 13.0000000 2.4920489 1.4130251
v 16.5000000 2.8875705 -1.2404794
v 13.0000000 2.6420489 -0.9185106
v 13.0000000 2.6420489 -0.9185106
v 16.5000000 2.8875705 -1.2404794
v 16.5000000 0.0000000 -7.4676116
v 13.0000000 2.6420489 -0.9185106
v 16.5000000 0.0000000 -7.4676116
v 13.0000000 0.0000000 -6.8244959
v 16.5000000 0.0000000 -7.4676116
v 20.0000000 0.0000000 -6.4551660
v 20.0000000 0.0000000 5.1428287
v 16.5000000 0.0000000 -7.4676116
v 20.0000000 0.0000000 5.1428287
v 16.5000000 0.0000000 4.7541610
v 16.5000000 0.0000000 4.7541610
v 20.0000000 0.0000000 5.1428287
v 20.0000000 2.7796349 1.4869418
v 16.5000000 0.0000000 4.7541610
v 20.0000000 2.7796349 1.4869418
v 16.5000000 2.7375705 1.2432322
v 16.5000000 2.7375705 1.2432322
v 20.0000000 2.7796349 1.4869418
v 20.0000000 2.9296349 -1.0183836
v 16.5000000 2.7375705 1.2432322
v 20.0000000 2.9296349 -1.0183836
v 16.5000000 2.8875705 -1.2404794
v 16.5000000 2.8875705 -1.2404794
v 20.0000000 2.9296349 -1.0183836
v 20.0000000 0.0000000 -6.4551660
v 16.5000000 2.8875705 -1.2404794
v 20.0000000 0.0000000 -6.4551660
v 16.5000000 0.0000000 -7.4676116
v 6.0000000 0.0000000 -7.4793667
v 6.0000000 0.0000000 5.3360596
v 6.0000000 2.8197524 1.3080877
v 6.0000000 0.0000000 -7.4793667
v 6.0000000 2.8197524 1.3080877
v 6.0000000 2.9697524 -0.9079659
v 20.0000000 2.9296349 -1.0183836
v 20.0000000 2.7796349 1.4869418
v 20.0000000 0.0000000 5.1428287
v 20.0000000 2.9296349 -1.0183836
v 20.0000000 0.0000000 5.1428287
v 20.0000000 0.0000000 -6.4551660
v 9.5450000 0.9000000 -5.9270000
v 9.6390576 0.6000000 -5.4720246
v 9.9500000 0.6000000 -5.9000000
v 9.4685000 0.3000000 -5.8730000
v 9.9500000 0.6000000 -5.9000000
v 9.6390576 0.6000000 -5.4720246
v 9.5450000 0.9000000 -5.9270000
v 9.1359424 0.6000000 -5.6354966
v 9.6390576 0.6000000 -5.4720246
v 9.4685000 0.3000000 -5.8730000
v 9.6390576 0.6000000 -5.4720246
v 9.1359424 0.6000000 -5.6354966
v 9.5450000 0.9000000 -5.9270000
v 9.1359424 0.6000000 -6.1645034
v 9.1359424 0.6000000 -5.6354966
v 9.4685000 0.3000000 -5.8730000
v 9.1359424 0.6000000 -5.6354966
v 9.1359424 0.6000000 -6.1645034
v 9.5450000 0.9000000 -5.9270000
v 9.6390576 0.6000000 -6.3279754
v 9.1359424 0.6000000 -6.1645034
v 9.4685000 0.3000000 -5.8730000
v 9.1359424 0.6000000 -6.1645034
v 9.6390576 0.6000000 -6.3279754
v 9.5450000 0.9000000 -5.9270000
v 9.9500000 0.6000000 -5.9000000
v 9.6390576 0.6000000 -6.3279754
v 9.4685000 0.3000000 -5.8730000
v 9.6390576 0.6000000 -6.3279754
v 9.9500000 0.6000000 -5.9000000
v 15.0050000 0.9000000 -5.9270000
v 15.0990576 0.6000000 -5.4720246
v 15.4100000 0.6000000 -5.9000000
v 14.9285000 0.3000000 -5.8730000
v 15.4100000 0.6000000 -5.9000000
v 15.0990576 0.6000000 -5.4720246
v 15.0050000 0.9000000 -5.9270000
v 14.5959424 0.6000000 -5.6354966
v 15.0990576 0.6000000 -5.4720246
v 14.9285000 0.3000000 -5.8730000
v 15.0990576 0.6000000 -5.4720246
v 14.5959424 0.6000000 -5.6354966
v 15.0050000 0.9000000 -5.9270000
v 14.5959424 0.6000000 -6.1645034
v 14.5959424 0.6000000 -5.6354966
v 14.9285000 0.3000000 -5.8730000
v 14.5959424 0.6000000 -5.6354966
v 14.5959424 0.6000000 -6.1645034
v 15.0050000 0.9000000 -5.9270000
v 15.0990576 0.6000000 -6.3279754
v 14.5959424 0.6000000 -6.1645034
v 14.9285000 0.3000000 -5.8730000
v 14.5959424 0.6000000 -6.1645034
v 15.0990576 0.6000000 -6.3279754
v 15.0050000 0.9000000 -5.9270000
v 15.4100000 0.6000000 -5.9000000
v 15.0990576 0.6000000 -6.3279754
v 14.9285000 0.3000000 -5.8730000
v 15.0990576 0.6000000 -6.3279754
v 15.4100000 0.6000000 -5.9000000
v -3.8000000 0.0000000 -0.7750000
v -3.6000000 1.8000000 -0.7750000
v -2.8000000 1.1000000 -0.7750000
v -3.8000000 0.0000000 0.7750000
v -2.8000000 1.1000000 0.7750000
v -3.6000000 1.8000000 0.7750000
v -3.8000000 0.0000000 -0.7750000
v -2.8000000 1.1000000 -0.7750000
v -2.8000000 1.1000000 0.7750000
v -3.8000000 0.0000000 -0.7750000
v -2.8000000 1.1000000 0.7750000
v -3.8000000 0.0000000 0.7750000
v -2.8000000 1.1000000 -0.7750000
v -3.6000000 1.8000000 -0.7750000
v -3.6000000 1.8000000 0.7750000
v -2.8000000 1.1000000 -0.7750000
v -3.6000000 1.8000000 0.7750000
v -2.8000000 1.1000000 0.7750000
v -3.6000000 1.8000000 -0.7750000
v -3.8000000 0.0000000 -0.7750000
v -3.8000000 0.0000000 0.7750000
v -3.6000000 1.8000000 -0.7750000
v -3.8000000 0.0000000 0.7750000
v -3.6000000 1.8000000 0.7750000
v -3.8000000 0.0000000 -0.7750000
v -2.9000000 2.7000000 -0.7750000
v -3.6000000 1.8000000 -0.7750000
v -3.8000000 0.0000000 0.7750000
v -3.6000000 1.8000000 0.7750000
v -2.9000000 2.7000000 0.7750000
v -3.8000000 0.0000000 0.7750000
v -3.6000000 1.8000000 0.7750000
v -3.6000000 1.8000000 -0.7750000
v -3.8000000 0.0000000 0.7750000
v -3.6000000 1.8000000 -0.7750000
v -3.8000000 0.0000000 -0.7750000
v -3.6000000 1.8000000 0.7750000
v -2.9000000 2.7000000 0.7750000
v -2.9000000 2.7000000 -0.7750000
v -3.6000000 1.8000000 0.7750000
v -2.9000000 2.7000000 -0.7750000
v -3.6000000 1.8000000 -0.7750000
v -2.9000000 2.7000000 0.7750000
v -3.8000000 0.0000000 0.7750000
v -3.8000000 0.0000000 -0.7750000
v -2.9000000 2.7000000 0.7750000
v -3.8000000 0.0000000 -0.7750000
v -2.9000000 2.7000000 -0.7750000
v -3.8000000 0.0000000 -0.7750000
v -6.0000000 2.8000000 -0.7750000
v -2.9000000 2.7000000 -0.7750000
v -3.8000000 0.0000000 0.7750000
v -2.9000000 2.7000000 0.7750000
v -6.0000000 2.8000000 0.7750000
v -3.8000000 0.0000000 -0.7750000
v -2.9000000 2.7000000 -0.7750000
v -2.9000000 2.7000000 0.7750000
v -3.8000000 0.0000000 -0.7750000
v -2.9000000 2.7000000 0.7750000
v -3.8000000 0.0000000 0.7750000
v -2.9000000 2.7000000 -0.7750000
v -6.0000000 2.8000000 -0.7750000
v -6.0000000 2.8000000 0.7750000
v -2.9000000 2.7000000 -0.7750000
v -6.0000000 2.8000000 0.7750000
v -2.9000000 2.7000000 0.7750000
v -6.0000000 2.8000000 -0.7750000
v -3.8000000 0.0000000 -0.7750000
v -3.8000000 0.0000000 0.7750000
v -6.0000000 2.8000000 -0.7750000
v -3.8000000 0.0000000 0.7750000
v -6.0000000 2.8000000 0.7750000
v -3.8000000 0.0000000 -0.7750000
v -6.0000000 0.0000000 -0.7750000
v -6.0000000 2.8000000 -0.7750000
v -3.8000000 0.0000000 0.7750000
v -6.0000000 2.8000000 0.7750000
v -6.0000000 0.0000000 0.7750000
v -3.8000000 0.0000000 -0.7750000
v -6.0000000 2.8000000 -0.7750000
v -6.0000000 2.8000000 0.7750000
v -3.8000000 0.0000000 -0.7750000
v -6.0000000 2.8000000 0.7750000
v -3.8000000 0.0000000 0.7750000
v -6.0000000 2.8000000 -0.7750000
v -6.0000000 0.0000000 -0.7750000
v -6.0000000 0.0000000 0.7750000
v -6.0000000 2.8000000 -0.7750000
v -6.0000000 0.0000000 0.7750000
v -6.0000000 2.8000000 0.7750000
v -6.0000000 0.0000000 -0.7750000
v -3.8000000 0.0000000 -0.7750000
v -3.8000000 0.0000000 0.7750000
v -6.0000000 0.0000000 -0.7750000
v -3.8000000 0.0000000 0.7750000
v -6.0000000 0.0000000 0.7750000
v 6.0000000 0.0000000 -0.7750000
v 3.3000000 2.8000000 -0.7750000
v 6.0000000 2.8000000 -0.7750000
v 6.0000000 0.0000000 0.7750000
v 6.0000000 2.8000000 0.7750000
v 3.3000000 2.8000000 0.7750000
v 6.0000000 0.0000000 -0.7750000
v 6.0000000 2.8000000 -0.7750000
v 6.0000000 2.8000000 0.7750000
v 6.0000000 0.0000000 -0.7750000
v 6.0000000 2.8000000 0.7750000
v 6.0000000 0.0000000 0.7750000
v 6.0000000 2.8000000 -0.7750000
v 3.3000000 2.8000000 -0.7750000
v 3.3000000 2.8000000 0.7750000
v 6.0000000 2.8000000 -0.7750000
v 3.3000000 2.8000000 0.7750000
v 6.0000000 2.8000000 0.7750000
v 3.3000000 2.8000000 -0.7750000
v 6.0000000 0.0000000 -0.7750000
v 6.0000000 0.0000000 0.7750000
v 3.3000000 2.8000000 -0.7750000
v 6.0000000 0.0000000 0.7750000
v 3.3000000 2.8000000 0.7750000
v 6.0000000 0.0000000 -0.7750000
v 4.0000000 1.7000000 -0.7750000
v 3.3000000 2.8000000 -0.7750000
v 6.0000000 0.0000000 0.7750000
v 3.3000000 2.8000000 0.7750000
v 4.0000000 1.7000000 0.7750000
v 6.0000000 0.0000000 -0.7750000
v 3.3000000 2.8000000 -0.7750000
v 3.3000000 2.8000000 0.7750000
v 6.0000000 0.0000000 -0.7750000
v 3.3000000 2.8000000 0.7750000
v 6.0000000 0.0000000 0.7750000
v 3.3000000 2.8000000 -0.7750000
v 4.0000000 1.7000000 -0.7750000
v 4.0000000 1.7000000 0.7750000
v 3.3000000 2.8000000 -0.7750000
v 4.0000000 1.7000000 0.7750000
v 3.3000000 2.8000000 0.7750000
v 4.0000000 1.7000000 -0.7750000
v 6.0000000 0.0000000 -0.7750000
v 6.0000000 0.0000000 0.7750000
v 4.0000000 1.7000000 -0.7750000
v 6.0000000 0.0000000 0.7750000
v 4.0000000 1.7000000 0.7750000
v 6.0000000 0.0000000 -0.7750000
v 2.9000000 0.8500000 -0.7750000
v 4.0000000 1.7000000 -0.7750000
v 6.0000000 0.0000000 0.7750000
v 4.0000000 1.7000000 0.7750000
v 2.9000000 0.8500000 0.7750000
v 6.0000000 0.0000000 -0.7750000
v 4.0000000 1.7000000 -0.7750000
v 4.0000000 1.7000000 0.7750000
v 6.0000000 0.0000000 -0.7750000
v 4.0000000 1.7000000 0.7750000
v 6.0000000 0.0000000 0.7750000
v 4.0000000 1.7000000 -0.7750000
v 2.9000000 0.8500000 -0.7750000
v 2.9000000 0.8500000 0.7750000
v 4.0000000 1.7000000 -0.7750000
v 2.9000000 0.8500000 0.7750000
v 4.0000000 1.7000000 0.7750000
v 2.9000000 0.8500000 -0.7750000
v 6.0000000 0.0000000 -0.7750000
v 6.0000000 0.0000000 0.7750000
v 2.9000000 0.8500000 -0.7750000
v 6.0000000 0.0000000 0.7750000
v 2.9000000 0.8500000 0.7750000
v 6.0000000 0.0000000 -0.7750000
v 3.5000000 0.0000000 -0.7750000
v 2.9000000 0.8500000 -0.7750000
v 6.0000000 0.0000000 0.7750000
v 2.9000000 0.8500000 0.7750000
v 3.5000000 0.0000000 0.7750000
v 6.0000000 0.0000000 -0.7750000
v 2.9000000 0.8500000 -0.7750000
v 2.9000000 0.8500000 0.7750000
v 6.0000000 0.0000000 -0.7750000
v 2.9000000 0.8500000 0.7750000
v 6.0000000 0.0000000 0.7750000
v 2.9000000 0.8500000 -0.7750000
v 3.5000000 0.0000000 -0.7750000
v 3.5000000 0.0000000 0.7750000
v 2.9000000 0.8500000 -0.7750000
v 3.5000000 0.0000000 0.7750000
v 2.9000000 0.8500000 0.7750000
v 3.5000000 0.0000000 -0.7750000
v 6.0000000 0.0000000 -0.7750000
v 6.0000000 0.0000000 0.7750000
v 3.5000000 0.0000000 -0.7750000
v 6.0000000 0.0000000 0.7750000
v 3.5000000 0.0000000 0.7750000
v -6.3500000 1.1000000 -5.3500000
v -6.3500000 2.5000000 -5.3500000
v -5.9500000 2.5000000 -5.3500000
v -6.3500000 1.1000000 -5.3500000
v -5.9500000 2.5000000 -5.3500000
v -5.9500000 1.1000000 -5.3500000
v -6.3500000 1.1000000 0.4500000
v -5.9500000 1.1000000 0.4500000
v -5.9500000 2.5000000 0.4500000
v -6.3500000 1.1000000 0.4500000
v -5.9500000 2.5000000 0.4500000
v -6.3500000 2.5000000 0.4500000
v -6.3500000 1.1000000 -5.3500000
v -6.3500000 1.1000000 0.4500000
v -6.3500000 2.5000000 0.4500000
v -6.3500000 1.1000000 -5.3500000
v -6.3500000 2.5000000 0.4500000
v -6.3500000 2.5000000 -5.3500000
v -5.9500000 1.1000000 -5.3500000
v -5.9500000 2.5000000 -5.3500000
v -5.9500000 2.5000000 0.4500000
v -5.9500000 1.1000000 -5.3500000
v -5.9500000 2.5000000 0.4500000
v -5.9500000 1.1000000 0.4500000
v -6.3500000 1.1000000 -5.3500000
v -5.9500000 1.1000000 -5.3500000
v -5.9500000 1.1000000 0.4500000
v -6.3500000 1.1000000 -5.3500000
v -5.9500000 1.1000000 0.4500000
v -6.3500000 1.1000000 0.4500000
v -6.3500000 2.5000000 -5.3500000
v -6.3500000 2.5000000 0.4500000
v -5.9500000 2.5000000 0.4500000
v -6.3500000 2.5000000 -5.3500000
v -5.9500000 2.5000000 0.4500000
v -5.9500000 2.5000000 -5.3500000
v -6.4000000 2.6200000 -0.7000000
v -6.4000000 2.8200000 -0.7000000
v -5.9000000 2.8200000 -0.7000000
v -6.4000000 2.6200000 -0.7000000
v -5.9000000 2.8200000 -0.7000000
v -5.9000000 2.6200000 -0.7000000
v -6.4000000 2.6200000 1.0000000
v -5.9000000 2.6200000 1.0000000
v -5.9000000 2.8200000 1.0000000
v -6.4000000 2.6200000 1.0000000
v -5.9000000 2.8200000 1.0000000
v -6.4000000 2.8200000 1.0000000
v -6.4000000 2.6200000 -0.7000000
v -6.4000000 2.6200000 1.0000000
v -6.4000000 2.8200000 1.0000000
v -6.4000000 2.6200000 -0.7000000
v -6.4000000 2.8200000 1.0000000
v -6.4000000 2.8200000 -0.7000000
v -5.9000000 2.6200000 -0.7000000
v -5.9000000 2.8200000 -0.7000000
v -5.9000000 2.8200000 1.0000000
v -5.9000000 2.6200000 -0.7000000
v -5.9000000 2.8200000 1.0000000
v -5.9000000 2.6200000 1.0000000
v -6.4000000 2.6200000 -0.7000000
v -5.9000000 2.6200000 -0.7000000
v -5.9000000 2.6200000 1.0000000
v -6.4000000 2.6200000 -0.7000000
v -5.9000000 2.6200000 1.0000000
v -6.4000000 2.6200000 1.0000000
v -6.4000000 2.8200000 -0.7000000
v -6.4000000 2.8200000 1.0000000
v -5.9000000 2.8200000 1.0000000
v -6.4000000 2.8200000 -0.7000000
v -5.9000000 2.8200000 1.0000000
v -5.9000000 2.8200000 -0.7000000
v 5.9500000 1.1000000 -5.3500000
v 5.9500000 2.5000000 -5.3500000
v 6.3500000 2.5000000 -5.3500000
v 5.9500000 1.1000000 -5.3500000
v 6.3500000 2.5000000 -5.3500000
v 6.3500000 1.1000000 -5.3500000
v 5.9500000 1.1000000 0.4500000
v 6.3500000 1.1000000 0.4500000
v 6.3500000 2.5000000 0.4500000
v 5.9500000 1.1000000 0.4500000
v 6.3500000 2.5000000 0.4500000
v 5.9500000 2.5000000 0.4500000
v 5.9500000 1.1000000 -5.3500000
v 5.9500000 1.1000000 0.4500000
v 5.9500000 2.5000000 0.4500000
v 5.9500000 1.1000000 -5.3500000
v 5.9500000 2.5000000 0.4500000
v 5.9500000 2.5000000 -5.3500000
v 6.3500000 1.1000000 -5.3500000
v 6.3500000 2.5000000 -5.3500000
v 6.3500000 2.5000000 0.4500000
v 6.3500000 1.1000000 -5.3500000
v 6.3500000 2.5000000 0.4500000
v 6.3500000 1.1000000 0.4500000
v 5.9500000 1.1000000 -5.3500000
v 6.3500000 1.1000000 -5.3500000
v 6.3500000 1.1000000 0.4500000
v 5.9500000 1.1000000 -5.3500000
v 6.3500000 1.1000000 0.4500000
v 5.9500000 1.1000000 0.4500000
v 5.9500000 2.5000000 -5.3500000
v 5.9500000 2.5000000 0.4500000
v 6.3500000 2.5000000 0.4500000
v 5.9500000 2.5000000 -5.3500000
v 6.3500000 2.5000000 0.4500000
v 6.3500000 2.5000000 -5.3500000
v 5.9000000 2.6200000 -0.7000000
v 5.9000000 2.8200000 -0.7000000
v 6.4000000 2.8200000 -0.7000000
v 5.9000000 2.6200000 -0.7000000
v 6.4000000 2.8200000 -0.7000000
v 6.4000000 2.6200000 -0.7000000
v 5.9000000 2.6200000 1.0000000
v 6.4000000 2.6200000 1.0000000
v 6.4000000 2.8200000 1.0000000
v 5.9000000 2.6200000 1.0000000
v 6.4000000 2.8200000 1.0000000
v 5.9000000 2.8200000 1.0000000
v 5.9000000 2.6200000 -0.7000000
v 5.9000000 2.6200000 1.0000000
v 5.9000000 2.8200000 1.0000000
v 5.9000000 2.6200000 -0.7000000
v 5.9000000 2.8200000 1.0000000
v 5.9000000 2.8200000 -0.7000000
v 6.4000000 2.6200000 -0.7000000
v 6.4000000 2.8200000 -0.7000000
v 6.4000000 2.8200000 1.0000000
v 6.4000000 2.6200000 -0.7000000
v 6.4000000 2.8200000 1.0000000
v 6.4000000 2.6200000 1.0000000
v 5.9000000 2.6200000 -0.7000000
v 6.4000000 2.6200000 -0.7000000
v 6.4000000 2.6200000 1.0000000
v 5.9000000 2.6200000 -0.7000000
v 6.4000000 2.6200000 1.0000000
v 5.9000000 2.6200000 1.0000000
v 5.9000000 2.8200000 -0.7000000
v 5.9000000 2.8200000 1.0000000
v 6.4000000 2.8200000 1.0000000
v 5.9000000 2.8200000 -0.7000000
v 6.4000000 2.8200000 1.0000000
v 6.4000000 2.8200000 -0.7000000
v -5.4150000 2.7000000 0.0350000
v -5.4150000 2.7000000 0.1650000
v -5.4150000 4.0000000 0.1650000
v -5.4150000 2.7000000 0.0350000
v -5.4150000 4.0000000 0.1650000
v -5.4150000 4.0000000 0.0350000
v -5.4150000 2.7000000 0.1650000
v -5.2850000 2.7000000 0.1650000
v -5.2850000 4.0000000 0.1650000
v -5.4150000 2.7000000 0.1650000
v -5.2850000 4.0000000 0.1650000
v -5.4150000 4.0000000 0.1650000
v -5.2850000 2.7000000 0.1650000
v -5.2850000 2.7000000 0.0350000
v -5.2850000 4.0000000 0.0350000
v -5.2850000 2.7000000 0.1650000
v -5.2850000 4.0000000 0.0350000
v -5.2850000 4.0000000 0.1650000
v -5.2850000 2.7000000 0.0350000
v -5.4150000 2.7000000 0.0350000
v -5.4150000 4.0000000 0.0350000
v -5.2850000 2.7000000 0.0350000
v -5.4150000 4.0000000 0.0350000
v -5.2850000 4.0000000 0.0350000
v -5.2850000 2.7000000 0.0350000
v -5.2850000 2.7000000 0.1650000
v -5.4150000 2.7000000 0.1650000
v -5.2850000 2.7000000 0.0350000
v -5.4150000 2.7000000 0.1650000
v -5.4150000 2.7000000 0.0350000
v -5.4150000 4.0000000 0.0350000
v -5.4150000 4.0000000 0.1650000
v -5.2850000 4.0000000 0.1650000
v -5.4150000 4.0000000 0.0350000
v -5.2850000 4.0000000 0.1650000
v -5.2850000 4.0000000 0.0350000
v -3.7150000 2.7000000 0.0350000
v -3.7150000 2.7000000 0.1650000
v -3.7150000 4.0000000 0.1650000
v -3.7150000 2.7000000 0.0350000
v -3.7150000 4.0000000 0.1650000
v -3.7150000 4.0000000 0.0350000
v -3.7150000 2.7000000 0.1650000
v -3.5850000 2.7000000 0.1650000
v -3.5850000 4.0000000 0.1650000
v -3.7150000 2.7000000 0.1650000
v -3.5850000 4.0000000 0.1650000
v -3.7150000 4.0000000 0.1650000
v -3.5850000 2.7000000 0.1650000
v -3.5850000 2.7000000 0.0350000
v -3.5850000 4.0000000 0.0350000
v -3.5850000 2.7000000 0.1650000
v -3.5850000 4.0000000 0.0350000
v -3.5850000 4.0000000 0.1650000
v -3.5850000 2.7000000 0.0350000
v -3.7150000 2.7000000 0.0350000
v -3.7150000 4.0000000 0.0350000
v -3.5850000 2.7000000 0.0350000
v -3.7150000 4.0000000 0.0350000
v -3.5850000 4.0000000 0.0350000
v -3.5850000 2.7000000 0.0350000
v -3.5850000 2.7000000 0.1650000
v -3.7150000 2.7000000 0.1650000
v -3.5850000 2.7000000 0.0350000
v -3.7150000 2.7000000 0.1650000
v -3.7150000 2.7000000 0.0350000
v -3.7150000 4.0000000 0.0350000
v -3.7150000 4.0000000 0.1650000
v -3.5850000 4.0000000 0.1650000
v -3.7150000 4.0000000 0.0350000
v -3.5850000 4.0000000 0.1650000
v -3.5850000 4.0000000 0.0350000
v -5.5000000 3.9250000 0.1750000
v -5.5000000 3.9250000 0.0250000
v -3.5000000 3.9250000 0.0250000
v -5.5000000 3.9250000 0.1750000
v -3.5000000 3.9250000 0.0250000
v -3.5000000 3.9250000 0.1750000
v -5.5000000 3.9250000 0.0250000
v -5.5000000 4.0750000 0.0250000
v -3.5000000 4.0750000 0.0250000
v -5.5000000 3.9250000 0.0250000
v -3.5000000 4.0750000 0.0250000
v -3.5000000 3.9250000 0.0250000
v -5.5000000 4.0750000 0.0250000
v -5.5000000 4.0750000 0.1750000
v -3.5000000 4.0750000 0.1750000
v -5.5000000 4.0750000 0.0250000
v -3.5000000 4.0750000 0.1750000
v -3.5000000 4.0750000 0.0250000
v -5.5000000 4.0750000 0.1750000
v -5.5000000 3.9250000 0.1750000
v -3.5000000 3.9250000 0.1750000
v -5.5000000 4.0750000 0.1750000
v -3.5000000 3.9250000 0.1750000
v -3.5000000 4.0750000 0.1750000
v -5.5000000 4.0750000 0.1750000
v -5.5000000 4.0750000 0.0250000
v -5.5000000 3.9250000 0.0250000
v -5.5000000 4.0750000 0.1750000
v -5.5000000 3.9250000 0.0250000
v -5.5000000 3.9250000 0.1750000
v -3.5000000 3.9250000 0.1750000
v -3.5000000 3.9250000 0.0250000
v -3.5000000 4.0750000 0.0250000
v -3.5000000 3.9250000 0.1750000
v -3.5000000 4.0750000 0.0250000
v -3.5000000 4.0750000 0.1750000
v -5.3000000 1.4800000 0.7750000
v -5.3000000 2.5800000 0.7750000
v -3.7000000 2.5800000 0.7750000
v -5.3000000 1.4800000 0.7750000
v -3.7000000 2.5800000 0.7750000
v -3.7000000 1.4800000 0.7750000
v -5.3000000 1.4800000 0.8850000
v -3.7000000 1.4800000 0.8850000
v -3.7000000 2.5800000 0.8850000
v -5.3000000 1.4800000 0.8850000
v -3.7000000 2.5800000 0.8850000
v -5.3000000 2.5800000 0.8850000
v -5.3000000 1.4800000 0.7750000
v -5.3000000 1.4800000 0.8850000
v -5.3000000 2.5800000 0.8850000
v -5.3000000 1.4800000 0.7750000
v -5.3000000 2.5800000 0.8850000
v -5.3000000 2.5800000 0.7750000
v -3.7000000 1.4800000 0.7750000
v -3.7000000 2.5800000 0.7750000
v -3.7000000 2.5800000 0.8850000
v -3.7000000 1.4800000 0.7750000
v -3.7000000 2.5800000 0.8850000
v -3.7000000 1.4800000 0.8850000
v -5.3000000 1.4800000 0.7750000
v -3.7000000 1.4800000 0.7750000
v -3.7000000 1.4800000 0.8850000
v -5.3000000 1.4800000 0.7750000
v -3.7000000 1.4800000 0.8850000
v -5.3000000 1.4800000 0.8850000
v -5.3000000 2.5800000 0.7750000
v -5.3000000 2.5800000 0.8850000
v -3.7000000 2.5800000 0.8850000
v -5.3000000 2.5800000 0.7750000
v -3.7000000 2.5800000 0.8850000
v -3.7000000 2.5800000 0.7750000
v -6.1500000 0.7750000 -5.2500000
v -6.1500000 1.1250000 -5.2500000
v -3.4500000 1.1250000 -5.2500000
v -6.1500000 0.7750000 -5.2500000
v -3.4500000 1.1250000 -5.2500000
v -3.4500000 0.7750000 -5.2500000
v -6.1500000 0.7750000 -1.9500000
v -3.4500000 0.7750000 -1.9500000
v -3.4500000 1.1250000 -1.9500000
v -6.1500000 0.7750000 -1.9500000
v -3.4500000 1.1250000 -1.9500000
v -6.1500000 1.1250000 -1.9500000
v -6.1500000 0.7750000 -5.2500000
v -6.1500000 0.7750000 -1.9500000
v -6.1500000 1.1250000 -1.9500000
v -6.1500000 0.7750000 -5.2500000
v -6.1500000 1.1250000 -1.9500000
v -6.1500000 1.1250000 -5.2500000
v -3.4500000 0.7750000 -5.2500000
v -3.4500000 1.1250000 -5.2500000
v -3.4500000 1.1250000 -1.9500000
v -3.4500000 0.7750000 -5.2500000
v -3.4500000 1.1250000 -1.9500000
v -3.4500000 0.7750000 -1.9500000
v -6.1500000 0.7750000 -5.2500000
v -3.4500000 0.7750000 -5.2500000
v -3.4500000 0.7750000 -1.9500000
v -6.1500000 0.7750000 -5.2500000
v -3.4500000 0.7750000 -1.9500000
v -6.1500000 0.7750000 -1.9500000
v -6.1500000 1.1250000 -5.2500000
v -6.1500000 1.1250000 -1.9500000
v -3.4500000 1.1250000 -1.9500000
v -6.1500000 1.1250000 -5.2500000
v -3.4500000 1.1250000 -1.9500000
v -3.4500000 1.1250000 -5.2500000
v 3.7000000 0.7750000 -4.6500000
v 3.7000000 1.1250000 -4.6500000
v 5.9000000 1.1250000 -4.6500000
v 3.7000000 0.7750000 -4.6500000
v 5.9000000 1.1250000 -4.6500000
v 5.9000000 0.7750000 -4.6500000
v 3.7000000 0.7750000 -2.1500000
v 5.9000000 0.7750000 -2.1500000
v 5.9000000 1.1250000 -2.1500000
v 3.7000000 0.7750000 -2.1500000
v 5.9000000 1.1250000 -2.1500000
v 3.7000000 1.1250000 -2.1500000
v 3.7000000 0.7750000 -4.6500000
v 3.7000000 0.7750000 -2.1500000
v 3.7000000 1.1250000 -2.1500000
v 3.7000000 0.7750000 -4.6500000
v 3.7000000 1.1250000 -2.1500000
v 3.7000000 1.1250000 -4.6500000
v 5.9000000 0.7750000 -4.6500000
v 5.9000000 1.1250000 -4.6500000
v 5.9000000 1.1250000 -2.1500000
v 5.9000000 0.7750000 -4.6500000
v 5.9000000 1.1250000 -2.1500000
v 5.9000000 0.7750000 -2.1500000
v 3.7000000 0.7750000 -4.6500000
v 5.9000000 0.7750000 -4.6500000
v 5.9000000 0.7750000 -2.1500000
v 3.7000000 0.7750000 -4.6500000
v 5.9000000 0.7750000 -2.1500000
v 3.7000000 0.7750000 -2.1500000
v 3.7000000 1.1250000 -4.6500000
v 3.7000000 1.1250000 -2.1500000
v 5.9000000 1.1250000 -2.1500000
v 3.7000000 1.1250000 -4.6500000
v 5.9000000 1.1250000 -2.1500000
v 5.9000000 1.1250000 -4.6500000
v -3.3350000 1.2500000 -4.5390000
v -3.1991390 0.9000000 -3.8818133
v -2.7500000 0.9000000 -4.5000000
v -3.4455000 0.5500000 -4.4610000
v -2.7500000 0.9000000 -4.5000000
v -3.1991390 0.9000000 -3.8818133
v -3.3350000 1.2500000 -4.5390000
v -3.9258610 0.9000000 -4.1179396
v -3.1991390 0.9000000 -3.8818133
v -3.4455000 0.5500000 -4.4610000
v -3.1991390 0.9000000 -3.8818133
v -3.9258610 0.9000000 -4.1179396
v -3.3350000 1.2500000 -4.5390000
v -3.9258610 0.9000000 -4.8820604
v -3.9258610 0.9000000 -4.1179396
v -3.4455000 0.5500000 -4.4610000
v -3.9258610 0.9000000 -4.1179396
v -3.9258610 0.9000000 -4.8820604
v -3.3350000 1.2500000 -4.5390000
v -3.1991390 0.9000000 -5.1181867
v -3.9258610 0.9000000 -4.8820604
v -3.4455000 0.5500000 -4.4610000
v -3.9258610 0.9000000 -4.8820604
v -3.1991390 0.9000000 -5.1181867
v -3.3350000 1.2500000 -4.5390000
v -2.7500000 0.9000000 -4.5000000
v -3.1991390 0.9000000 -5.1181867
v -3.4455000 0.5500000 -4.4610000
v -3.1991390 0.9000000 -5.1181867
v -2.7500000 0.9000000 -4.5000000
v -2.0350000 1.3300000 -5.8390000
v -1.8991390 0.9800000 -5.1818133
v -1.4500000 0.9800000 -5.8000000
v -2.1455000 0.6300000 -5.7610000
v -1.4500000 0.9800000 -5.8000000
v -1.8991390 0.9800000 -5.1818133
v -2.0350000 1.3300000 -5.8390000
v -2.6258610 0.9800000 -5.4179396
v -1.8991390 0.9800000 -5.1818133
v -2.1455000 0.6300000 -5.7610000
v -1.8991390 0.9800000 -5.1818133
v -2.6258610 0.9800000 -5.4179396
v -2.0350000 1.3300000 -5.8390000
v -2.6258610 0.9800000 -6.1820604
v -2.6258610 0.9800000 -5.4179396
v -2.1455000 0.6300000 -5.7610000
v -2.6258610 0.9800000 -5.4179396
v -2.6258610 0.9800000 -6.1820604
v -2.0350000 1.3300000 -5.8390000
v -1.8991390 0.9800000 -6.4181867
v -2.6258610 0.9800000 -6.1820604
v -2.1455000 0.6300000 -5.7610000
v -2.6258610 0.9800000 -6.1820604
v -1.8991390 0.9800000 -6.4181867
v -2.0350000 1.3300000 -5.8390000
v -1.4500000 0.9800000 -5.8000000
v -1.8991390 0.9800000 -6.4181867
v -2.1455000 0.6300000 -5.7610000
v -1.8991390 0.9800000 -6.4181867
v -1.4500000 0.9800000 -5.8000000
v 3.8650000 1.4100000 -5.2390000
v 4.0008610 1.0600000 -4.5818133
v 4.4500000 1.0600000 -5.2000000
v 3.7545000 0.7100000 -5.1610000
v 4.4500000 1.0600000 -5.2000000
v 4.0008610 1.0600000 -4.5818133
v 3.8650000 1.4100000 -5.2390000
v 3.2741390 1.0600000 -4.8179396
v 4.0008610 1.0600000 -4.5818133
v 3.7545000 0.7100000 -5.1610000
v 4.0008610 1.0600000 -4.5818133
v 3.2741390 1.0600000 -4.8179396
v 3.8650000 1.4100000 -5.2390000
v 3.2741390 1.0600000 -5.5820604
v 3.2741390 1.0600000 -4.8179396
v 3.7545000 0.7100000 -5.1610000
v 3.2741390 1.0600000 -4.8179396
v 3.2741390 1.0600000 -5.5820604
v 3.8650000 1.4100000 -5.2390000
v 4.0008610 1.0600000 -5.8181867
v 3.2741390 1.0600000 -5.5820604
v 3.7545000 0.7100000 -5.1610000
v 3.2741390 1.0600000 -5.5820604
v 4.0008610 1.0600000 -5.8181867
v 3.8650000 1.4100000 -5.2390000
v 4.4500000 1.0600000 -5.2000000
v 4.0008610 1.0600000 -5.8181867
v 3.7545000 0.7100000 -5.1610000
v 4.0008610 1.0600000 -5.8181867
v 4.4500000 1.0600000 -5.2000000
v 5.6650000 1.4900000 -6.2390000
v 5.8008610 1.1400000 -5.5818133
v 6.2500000 1.1400000 -6.2000000
v 5.5545000 0.7900000 -6.1610000
v 6.2500000 1.1400000 -6.2000000
v 5.8008610 1.1400000 -5.5818133
v 5.6650000 1.4900000 -6.2390000
v 5.0741390 1.1400000 -5.8179396
v 5.8008610 1.1400000 -5.5818133
v 5.5545000 0.7900000 -6.1610000
v 5.8008610 1.1400000 -5.5818133
v 5.0741390 1.1400000 -5.8179396
v 5.6650000 1.4900000 -6.2390000
v 5.0741390 1.1400000 -6.5820604
v 5.0741390 1.1400000 -5.8179396
v 5.5545000 0.7900000 -6.1610000
v 5.0741390 1.1400000 -5.8179396
v 5.0741390 1.1400000 -6.5820604
v 5.6650000 1.4900000 -6.2390000
v 5.8008610 1.1400000 -6.8181867
v 5.0741390 1.1400000 -6.5820604
v 5.5545000 0.7900000 -6.1610000
v 5.0741390 1.1400000 -6.5820604
v 5.8008610 1.1400000 -6.8181867
v 5.6650000 1.4900000 -6.2390000
v 6.2500000 1.1400000 -6.2000000
v 5.8008610 1.1400000 -6.8181867
v 5.5545000 0.7900000 -6.1610000
v 5.8008610 1.1400000 -6.8181867
v 6.2500000 1.1400000 -6.2000000
v -2.9527735 1.7909861 -0.7228814
v -2.9721880 1.7909861 -0.6937596
v -3.2721880 2.3909861 -0.8937596
v -2.9527735 1.7909861 -0.7228814
v -3.2721880 2.3909861 -0.8937596
v -3.2527735 2.3909861 -0.9228814
v -2.9721880 1.7909861 -0.6937596
v -2.9472265 1.8090139 -0.6771186
v -3.2472265 2.4090139 -0.8771186
v -2.9721880 1.7909861 -0.6937596
v -3.2472265 2.4090139 -0.8771186
v -3.2721880 2.3909861 -0.8937596
v -2.9472265 1.8090139 -0.6771186
v -2.9278120 1.8090139 -0.7062404
v -3.2278120 2.4090139 -0.9062404
v -2.9472265 1.8090139 -0.6771186
v -3.2278120 2.4090139 -0.9062404
v -3.2472265 2.4090139 -0.8771186
v -2.9278120 1.8090139 -0.7062404
v -2.9527735 1.7909861 -0.7228814
v -3.2527735 2.3909861 -0.9228814
v -2.9278120 1.8090139 -0.7062404
v -3.2527735 2.3909861 -0.9228814
v -3.2278120 2.4090139 -0.9062404
v -2.9278120 1.8090139 -0.7062404
v -2.9472265 1.8090139 -0.6771186
v -2.9721880 1.7909861 -0.6937596
v -2.9278120 1.8090139 -0.7062404
v -2.9721880 1.7909861 -0.6937596
v -2.9527735 1.7909861 -0.7228814
v -3.2527735 2.3909861 -0.9228814
v -3.2721880 2.3909861 -0.8937596
v -3.2472265 2.4090139 -0.8771186
v -3.2527735 2.3909861 -0.9228814
v -3.2472265 2.4090139 -0.8771186
v -3.2278120 2.4090139 -0.9062404
v 3.4703761 1.7895417 -0.6906225
v 3.4547237 1.7895417 -0.7219274
v 3.8547237 2.3895417 -0.9219274
v 3.4703761 1.7895417 -0.6906225
v 3.8547237 2.3895417 -0.9219274
v 3.8703761 2.3895417 -0.8906225
v 3.4547237 1.7895417 -0.7219274
v 3.4296239 1.8104583 -0.7093775
v 3.8296239 2.4104583 -0.9093775
v 3.4547237 1.7895417 -0.7219274
v 3.8296239 2.4104583 -0.9093775
v 3.8547237 2.3895417 -0.9219274
v 3.4296239 1.8104583 -0.7093775
v 3.4452763 1.8104583 -0.6780726
v 3.8452763 2.4104583 -0.8780726
v 3.4296239 1.8104583 -0.7093775
v 3.8452763 2.4104583 -0.8780726
v 3.8296239 2.4104583 -0.9093775
v 3.4452763 1.8104583 -0.6780726
v 3.4703761 1.7895417 -0.6906225
v 3.8703761 2.3895417 -0.8906225
v 3.4452763 1.8104583 -0.6780726
v 3.8703761 2.3895417 -0.8906225
v 3.8452763 2.4104583 -0.8780726
v 3.4452763 1.8104583 -0.6780726
v 3.4296239 1.8104583 -0.7093775
v 3.4547237 1.7895417 -0.7219274
v 3.4452763 1.8104583 -0.6780726
v 3.4547237 1.7895417 -0.7219274
v 3.4703761 1.7895417 -0.6906225
v 3.8703761 2.3895417 -0.8906225
v 3.8547237 2.3895417 -0.9219274
v 3.8296239 2.4104583 -0.9093775
v 3.8703761 2.3895417 -0.8906225
v 3.8296239 2.4104583 -0.9093775
v 3.8452763 2.4104583 -0.8780726
vn 0.0000000 -1.0000000 0.0000000
vn 0.0000000 -1.0000000 0.0000000
vn 0.0679826 0.7877818 0.6121913
vn -0.0476535 0.8407981 0.5392473
vn -0.0158642 0.9983316 0.0555195
vn -0.0077351 0.9977184 0.0670677
vn -0.0396086 0.8892127 -0.4557763
vn 0.1088917 0.9200209 -0.3764361
vn 0.0000000 -1.0000000 0.0000000
vn 0.0000000 -1.0000000 0.0000000
vn -0.0916344 0.8170679 0.5692127
vn -0.0256142 0.7893495 0.6134095
vn -0.0665477 0.9954835 0.0677051
vn -0.0749374 0.9956498 0.0553703
vn -0.0240962 0.9038042 -0.4272673
vn -0.0835206 0.8868017 -0.4545405
vn 0.0000000 -1.0000000 0.0000000
vn 0.0000000 -1.0000000 0.0000000
vn 0.1196061 0.7689842 0.6279791
vn 0.0163366 0.8204106 0.5715414
vn 0.0334327 0.9978565 0.0562551
vn 0.0419693 0.9968161 0.0677957
vn -0.0158968 0.9010785 -0.4333646
vn -0.0026559 0.9040635 -0.4273899
vn 0.0000000 -1.0000000 0.0000000
vn 0.0000000 -1.0000000 0.0000000
vn -0.1036353 0.8419748 0.5294696
vn 0.0400732 0.7739222 0.6320116
vn 0.0581351 0.9961922 0.0649725
vn 0.0524670 0.9970395 0.0562091
vn 0.1003131 0.9009343 -0.4222022
vn 0.0834961 0.8980455 -0.4319059
vn -1.0000000 0.0000000 0.0000000
vn -1.0000000 0.0000000 0.0000000
vn 1.0000000 0.0000000 0.0000000
vn 1.0000000 0.0000000 0.0000000
vn 0.5321566 0.7532086 0.3866344
vn 0.5064823 -0.7797857 0.3679809
vn -0.1843343 0.8025994 0.5673227
vn -0.2083352 -0.7385607 0.6411899
vn -0.5913949 0.8063821 0.0000000
vn -0.6698255 -0.7425186 0.0000000
vn -0.2003506 0.7613441 -0.6166156
vn -0.1914800 -0.7848845 -0.5893147
vn 0.5609406 0.7205906 -0.4075472
vn 0.4812331 -0.8038464 -0.3496363
vn 0.5321566 0.7532086 0.3866344
vn 0.5064823 -0.7797857 0.3679809
vn -0.1843343 0.8025994 0.5673227
vn -0.2083352 -0.7385607 0.6411899
vn -0.5913949 0.8063821 0.0000000
vn -0.6698255 -0.7425186 0.0000000
vn -0.2003506 0.7613441 -0.6166156
vn -0.1914800 -0.7848845 -0.5893147
vn 0.5609406 0.7205906 -0.4075472
vn 0.4812331 -0.8038464 -0.3496363
vn 0.0000000 -1.0000000 0.0000000
vn 0.0000000 -1.0000000 0.0000000
vn 0.1203630 0.7793415 0.6149306
vn 0.0432142 0.8184502 0.5729501
vn 0.0582373 0.9966930 0.0566697
vn 0.0662017 0.9955283 0.0673852
vn 0.0024696 0.8936536 -0.4487507
vn 0.0793620 0.9083911 -0.4105208
vn 0.0000000 -1.0000000 0.0000000
vn 0.0000000 -1.0000000 0.0000000
vn -0.1019346 0.8385546 0.5351967
vn 0.0140915 0.7849709 0.6193724
vn 0.0332484 0.9973851 0.0641671
vn 0.0284556 0.9979832 0.0567431
vn 0.0758998 0.9101911 -0.4071750
vn -0.0027887 0.8936528 -0.4487503
vn 0.0000000 -1.0000000 0.0000000
vn 0.0000000 -1.0000000 0.0000000
vn 0.0985076 0.7847707 0.6119079
vn -0.0330143 0.8424859 0.5377058
vn -0.0669464 0.9959419 0.0601484
vn -0.0639670 0.9958931 0.0640711
vn -0.1018069 0.9024954 -0.4184943
vn -0.0748234 0.9102653 -0.4072082
vn 0.0000000 -1.0000000 0.0000000
vn 0.0000000 -1.0000000 0.0000000
vn -0.0670597 0.7942485 0.6038811
vn -0.0522226 0.7875301 0.6140595
vn -0.0161564 0.9980822 0.0597576
vn -0.0158199 0.9980564 0.0602761
vn 0.0195176 0.8801589 -0.4742777
vn 0.1207991 0.9005656 -0.4175994
vn -1.0000000 0.0000000 0.0000000
vn -1.0000000 0.0000000 0.0000000
vn 1.0000000 0.0000000 0.0000000
vn 1.0000000 0.0000000 0.0000000
vn 0.5321566 0.7532086 0.3866344
vn 0.5064823 -0.7797857 0.3679809
vn -0.1843343 0.8025994 0.5673227
vn -0.2083352 -0.7385607 0.6411899
vn -0.5913949 0.8063821 0.0000000
vn -0.6698255 -0.7425186 0.0000000
vn -0.2003506 0.7613441 -0.6166156
vn -0.1914800 -0.7848845 -0.5893147
vn 0.5609406 0.7205906 -0.4075472
vn 0.4812331 -0.8038464 -0.3496363
vn 0.5321566 0.7532086 0.3866344
vn 0.5064823 -0.7797857 0.3679809
vn -0.1843343 0.8025994 0.5673227
vn -0.2083352 -0.7385607 0.6411899
vn -0.5913949 0.8063821 0.0000000
vn -0.6698255 -0.7425186 0.0000000
vn -0.2003506 0.7613441 -0.6166156
vn -0.1914800 -0.7848845 -0.5893147
vn 0.5609406 0.7205906 -0.4075472
vn 0.4812331 -0.8038464 -0.3496363
vn 0.0000000 0.0000000 -1.0000000
vn 0.0000000 0.0000000 1.0000000
vn 0.7399401 -0.6726728 0.0000000
vn 0.7399401 -0.6726728 0.0000000
vn 0.6585046 0.7525767 0.0000000
vn 0.6585046 0.7525767 0.0000000
vn -0.9938837 0.1104315 0.0000000
vn -0.9938837 0.1104315 0.0000000
vn 0.0000000 0.0000000 1.0000000
vn 0.0000000 0.0000000 -1.0000000
vn -0.9938837 0.1104315 0.0000000
vn -0.9938837 0.1104315 0.0000000
vn -0.7893522 0.6139406 0.0000000
vn -0.7893522 0.6139406 0.0000000
vn 0.9486833 -0.3162278 0.0000000
vn 0.9486833 -0.3162278 0.0000000
vn 0.0000000 0.0000000 -1.0000000
vn 0.0000000 0.0000000 1.0000000
vn 0.9486833 -0.3162278 0.0000000
vn 0.9486833 -0.3162278 0.0000000
vn 0.0322413 0.9994801 0.0000000
vn 0.0322413 0.9994801 0.0000000
vn -0.7863183 -0.6178216 0.0000000
vn -0.7863183 -0.6178216 0.0000000
vn 0.0000000 0.0000000 -1.0000000
vn 0.0000000 0.0000000 1.0000000
vn 0.7863183 0.6178216 0.0000000
vn 0.7863183 0.6178216 0.0000000
vn -1.0000000 0.0000000 0.0000000
vn -1.0000000 0.0000000 0.0000000
vn 0.0000000 -1.0000000 0.0000000
vn 0.0000000 -1.0000000 0.0000000
vn 0.0000000 0.0000000 -1.0000000
vn 0.0000000 0.0000000 1.0000000
vn 1.0000000 0.0000000 0.0000000
vn 1.0000000 0.0000000 0.0000000
vn 0.0000000 1.0000000 0.0000000
vn 0.0000000 1.0000000 0.0000000
vn -0.7198443 -0.6941356 0.0000000
vn -0.7198443 -0.6941356 0.0000000
vn 0.0000000 0.0000000 -1.0000000
vn 0.0000000 0.0000000 1.0000000
vn 0.7198443 0.6941356 0.0000000
vn 0.7198443 0.6941356 0.0000000
vn -0.8436615 -0.5368755 0.0000000
vn -0.8436615 -0.5368755 0.0000000
vn -0.6476484 -0.7619393 0.0000000
vn -0.6476484 -0.7619393 0.0000000
vn 0.0000000 0.0000000 -1.0000000
vn 0.0000000 0.0000000 1.0000000
vn 0.6476484 0.7619393 0.0000000
vn 0.6476484 0.7619393 0.0000000
vn -0.6114475 0.7912850 0.0000000
vn -0.6114475 0.7912850 0.0000000
vn -0.2644333 -0.9644040 0.0000000
vn -0.2644333 -0.9644040 0.0000000
vn 0.0000000 0.0000000 -1.0000000
vn 0.0000000 0.0000000 1.0000000
vn 0.2644333 0.9644040 0.0000000
vn 0.2644333 0.9644040 0.0000000
vn -0.8169679 -0.5766832 0.0000000
vn -0.8169679 -0.5766832 0.0000000
vn 0.0000000 -1.0000000 0.0000000
vn 0.0000000 -1.0000000 0.0000000
vn 0.0000000 0.0000000 -1.0000000
vn 0.0000000 0.0000000 -1.0000000
vn 0.0000000 0.0000000 1.0000000
vn 0.0000000 0.0000000 1.0000000
vn -1.0000000 0.0000000 0.0000000
vn -1.0000000 0.0000000 0.0000000
vn 1.0000000 0.0000000 0.0000000
vn 1.0000000 0.0000000 0.0000000
vn 0.0000000 -1.0000000 0.0000000
vn 0.0000000 -1.0000000 0.0000000
vn 0.0000000 1.0000000 0.0000000
vn 0.0000000 1.0000000 0.0000000
vn 0.0000000 0.0000000 -1.0000000
vn 0.0000000 0.0000000 -1.0000000
vn 0.0000000 0.0000000 1.0000000
vn 0.0000000 0.0000000 1.0000000
vn -1.0000000 0.0000000 0.0000000
vn -1.0000000 0.0000000 0.0000000
vn 1.0000000 0.0000000 0.0000000
vn 1.0000000 0.0000000 0.0000000
vn 0.0000000 -1.0000000 0.0000000
vn 0.0000000 -1.0000000 0.0000000
vn 0.0000000 1.0000000 0.0000000
vn 0.0000000 1.0000000 0.0000000
vn 0.0000000 0.0000000 -1.0000000
vn 0.0000000 0.0000000 -1.0000000
vn 0.0000000 0.0000000 1.0000000
vn 0.0000000 0.0000000 1.0000000
vn -1.0000000 0.0000000 0.0000000
vn -1.0000000 0.0000000 0.0000000
vn 1.0000000 0.0000000 0.0000000
vn 1.0000000 0.0000000 0.0000000
vn 0.0000000 -1.0000000 0.0000000
vn 0.0000000 -1.0000000 0.0000000
vn 0.0000000 1.0000000 0.0000000
vn 0.0000000 1.0000000 0.0000000
vn 0.0000000 0.0000000 -1.0000000
vn 0.0000000 0.0000000 -1.0000000
vn 0.0000000 0.0000000 1.0000000
vn 0.0000000 0.0000000 1.0000000
vn -1.0000000 0.0000000 0.0000000
vn -1.0000000 0.0000000 0.0000000
vn 1.0000000 0.0000000 0.0000000
vn 1.0000000 0.0000000 0.0000000
vn 0.0000000 -1.0000000 0.0000000
vn 0.0000000 -1.0000000 0.0000000
vn 0.0000000 1.0000000 0.0000000
vn 0.0000000 1.0000000 0.0000000
vn -1.0000000 0.0000000 0.0000000
vn -1.0000000 0.0000000 0.0000000
vn 0.0000000 0.0000000 1.0000000
vn 0.0000000 0.0000000 1.0000000
vn 1.0000000 0.0000000 0.0000000
vn 1.0000000 0.0000000 0.0000000
vn 0.0000000 0.0000000 -1.0000000
vn 0.0000000 0.0000000 -1.0000000
vn 0.0000000 -1.0000000 0.0000000
vn 0.0000000 -1.0000000 0.0000000
vn 0.0000000 1.0000000 0.0000000
vn 0.0000000 1.0000000 0.0000000
vn -1.0000000 0.0000000 0.0000000
vn -1.0000000 0.0000000 0.0000000
vn 0.0000000 0.0000000 1.0000000
vn 0.0000000 0.0000000 1.0000000
vn 1.0000000 0.0000000 0.0000000
vn 1.0000000 0.0000000 0.0000000
vn 0.0000000 0.0000000 -1.0000000
vn 0.0000000 0.0000000 -1.0000000
vn 0.0000000 -1.0000000 0.0000000
vn 0.0000000 -1.0000000 0.0000000
vn 0.0000000 1.0000000 0.0000000
vn 0.0000000 1.0000000 0.0000000
vn 0.0000000 -1.0000000 0.0000000
vn 0.0000000 -1.0000000 0.0000000
vn 0.0000000 0.0000000 -1.0000000
vn 0.0000000 0.0000000 -1.0000000
vn 0.0000000 1.0000000 0.0000000
vn 0.0000000 1.0000000 0.0000000
vn 0.0000000 0.0000000 1.0000000
vn 0.0000000 0.0000000 1.0000000
vn -1.0000000 0.0000000 0.0000000
vn -1.0000000 0.0000000 0.0000000
vn 1.0000000 0.0000000 0.0000000
vn 1.0000000 0.0000000 0.0000000
vn 0.0000000 0.0000000 -1.0000000
vn 0.0000000 0.0000000 -1.0000000
vn 0.0000000 0.0000000 1.0000000
vn 0.0000000 0.0000000 1.0000000
vn -1.0000000 0.0000000 0.0000000
vn -1.0000000 0.0000000 0.0000000
vn 1.0000000 0.0000000 0.0000000
vn 1.0000000 0.0000000 0.0000000
vn 0.0000000 -1.0000000 0.0000000
vn 0.0000000 -1.0000000 0.0000000
vn 0.0000000 1.0000000 0.0000000
vn 0.0000000 1.0000000 0.0000000
vn 0.0000000 0.0000000 -1.0000000
vn 0.0000000 0.0000000 -1.0000000
vn 0.0000000 0.0000000 1.0000000
vn 0.0000000 0.0000000 1.0000000
vn -1.0000000 0.0000000 0.0000000
vn -1.0000000 0.0000000 0.0000000
vn 1.0000000 0.0000000 0.0000000
vn 1.0000000 0.0000000 0.0000000
vn 0.0000000 -1.0000000 0.0000000
vn 0.0000000 -1.0000000 0.0000000
vn 0.0000000 1.0000000 0.0000000
vn 0.0000000 1.0000000 0.0000000
vn 0.0000000 0.0000000 -1.0000000
vn 0.0000000 0.0000000 -1.0000000
vn 0.0000000 0.0000000 1.0000000
vn 0.0000000 0.0000000 1.0000000
vn -1.0000000 0.0000000 0.0000000
vn -1.0000000 0.0000000 0.0000000
vn 1.0000000 0.0000000 0.0000000
vn 1.0000000 0.0000000 0.0000000
vn 0.0000000 -1.0000000 0.0000000
vn 0.0000000 -1.0000000 0.0000000
vn 0.0000000 1.0000000 0.0000000
vn 0.0000000 1.0000000 0.0000000
vn 0.4663172 0.8171678 0.3387993
vn 0.4401655 -0.8390369 0.3197989
vn -0.1590471 0.8573781 0.4894965
vn -0.1833812 -0.8048825 0.5643894
vn -0.5096516 0.8603809 0.0000000
vn -0.5888829 -0.8082183 0.0000000
vn -0.1751219 0.8239198 -0.5389698
vn -0.1661418 -0.8431705 -0.5113319
vn 0.4964469 0.7895843 -0.3606898
vn 0.4150520 -0.8583692 -0.3015529
vn 0.4663172 0.8171678 0.3387993
vn 0.4401655 -0.8390369 0.3197989
vn -0.1590471 0.8573781 0.4894965
vn -0.1833812 -0.8048825 0.5643894
vn -0.5096516 0.8603809 0.0000000
vn -0.5888829 -0.8082183 0.0000000
vn -0.1751219 0.8239198 -0.5389698
vn -0.1661418 -0.8431705 -0.5113319
vn 0.4964469 0.7895843 -0.3606898
vn 0.4150520 -0.8583692 -0.3015529
vn 0.4663172 0.8171678 0.3387993
vn 0.4401655 -0.8390369 0.3197989
vn -0.1590471 0.8573781 0.4894965
vn -0.1833812 -0.8048825 0.5643894
vn -0.5096516 0.8603809 0.0000000
vn -0.5888829 -0.8082183 0.0000000
vn -0.1751219 0.8239198 -0.5389698
vn -0.1661418 -0.8431705 -0.5113319
vn 0.4964469 0.7895843 -0.3606898
vn 0.4150520 -0.8583692 -0.3015529
vn 0.4663172 0.8171678 0.3387993
vn 0.4401655 -0.8390369 0.3197989
vn -0.1590471 0.8573781 0.4894965
vn -0.1833812 -0.8048825 0.5643894
vn -0.5096516 0.8603809 0.0000000
vn -0.5888829 -0.8082183 0.0000000
vn -0.1751219 0.8239198 -0.5389698
vn -0.1661418 -0.8431705 -0.5113319
vn 0.4964469 0.7895843 -0.3606898
vn 0.4150520 -0.8583692 -0.3015529
vn -0.7131860 -0.5150788 -0.4754573
vn -0.7131860 -0.5150788 -0.4754573
vn -0.5547002 0.0000000 0.8320503
vn -0.5547002 0.0000000 0.8320503
vn 0.7131860 0.5150788 0.4754573
vn 0.7131860 0.5150788 0.4754573
vn 0.5547002 0.0000000 -0.8320503
vn 0.5547002 0.0000000 -0.8320503
vn 0.4285714 -0.8571429 0.2857143
vn 0.4285714 -0.8571429 0.2857143
vn -0.4285714 0.8571429 -0.2857143
vn -0.4285714 0.8571429 -0.2857143
vn 0.7171372 -0.5976143 -0.3585686
vn 0.7171372 -0.5976143 -0.3585686
vn -0.4472136 0.0000000 -0.8944272
vn -0.4472136 0.0000000 -0.8944272
vn -0.7171372 0.5976143 0.3585686
vn -0.7171372 0.5976143 0.3585686
vn 0.4472136 0.0000000 0.8944272
vn 0.4472136 0.0000000 0.8944272
vn -0.5345225 -0.8017837 0.2672612
vn -0.5345225 -0.8017837 0.2672612
vn 0.5345225 0.8017837 -0.2672612
vn 0.5345225 0.8017837 -0.2672612
usemtl earth
f 1//1 2//1 3//1
usemtl earth
f 4//2 5//2 6//2
usemtl meadow
f 7//3 8//3 9//3
usemtl meadow
f 10//4 11//4 12//4
usemtl meadow
f 13//5 14//5 15//5
usemtl meadow
f 16//6 17//6 18//6
usemtl earth
f 19//7 20//7 21//7
usemtl earth
f 22//8 23//8 24//8
usemtl earth
f 25//9 26//9 27//9
usemtl earth
f 28//10 29//10 30//10
usemtl meadow
f 31//11 32//11 33//11
usemtl meadow
f 34//12 35//12 36//12
usemtl meadow
f 37//13 38//13 39//13
usemtl meadow
f 40//14 41//14 42//14
usemtl earth
f 43//15 44//15 45//15
usemtl earth
f 46//16 47//16 48//16
usemtl earth
f 49//17 50//17 51//17
usemtl earth
f 52//18 53//18 54//18
usemtl meadow
f 55//19 56//19 57//19
usemtl meadow
f 58//20 59//20 60//20
usemtl meadow
f 61//21 62//21 63//21
usemtl meadow
f 64//22 65//22 66//22
usemtl earth
f 67//23 68//23 69//23
usemtl earth
f 70//24 71//24 72//24
usemtl earth
f 73//25 74//25 75//25
usemtl earth
f 76//26 77//26 78//26
usemtl meadow
f 79//27 80//27 81//27
usemtl meadow
f 82//28 83//28 84//28
usemtl meadow
f 85//29 86//29 87//29
usemtl meadow
f 88//30 89//30 90//30
usemtl earth
f 91//31 92//31 93//31
usemtl earth
f 94//32 95//32 96//32
usemtl earth_cut
f 97//33 98//33 99//33
usemtl earth_cut
f 100//34 101//34 102//34
usemtl earth_cut
f 103//35 104//35 105//35
usemtl earth_cut
f 106//36 107//36 108//36
usemtl earth_cut
f 109//37 110//37 111//37
usemtl earth_cut
f 112//38 113//38 114//38
usemtl earth_cut
f 115//39 116//39 117//39
usemtl earth_cut
f 118//40 119//40 120//40
usemtl earth_cut
f 121//41 122//41 123//41
usemtl earth_cut
f 124//42 125//42 126//42
usemtl earth_cut
f 127//43 128//43 129//43
usemtl earth_cut
f 130//44 131//44 132//44
usemtl earth_cut
f 133//45 134//45 135//45
usemtl earth_cut
f 136//46 137//46 138//46
usemtl earth_cut
f 139//47 140//47 141//47
usemtl earth_cut
f 142//48 143//48 144//48
usemtl earth_cut
f 145//49 146//49 147//49
usemtl earth_cut
f 148//50 149//50 150//50
usemtl earth_cut
f 151//51 152//51 153//51
usemtl earth_cut
f 154//52 155//52 156//52
usemtl earth_cut
f 157//53 158//53 159//53
usemtl earth_cut
f 160//54 161//54 162//54
usemtl earth_cut
f 163//55 164//55 165//55
usemtl earth_cut
f 166//56 167//56 168//56
usemtl earth
f 169//57 170//57 171//57
usemtl earth
f 172//58 173//58 174//58
usemtl meadow
f 175//59 176//59 177//59
usemtl meadow
f 178//60 179//60 180//60
usemtl meadow
f 181//61 182//61 183//61
usemtl meadow
f 184//62 185//62 186//62
usemtl earth
f 187//63 188//63 189//63
usemtl earth
f 190//64 191//64 192//64
usemtl earth
f 193//65 194//65 195//65
usemtl earth
f 196//66 197//66 198//66
usemtl meadow
f 199//67 200//67 201//67
usemtl meadow
f 202//68 203//68 204//68
usemtl meadow
f 205//69 206//69 207//69
usemtl meadow
f 208//70 209//70 210//70
usemtl earth
f 211//71 212//71 213//71
usemtl earth
f 214//72 215//72 216//72
usemtl earth
f 217//73 218//73 219//73
usemtl earth
f 220//74 221//74 222//74
usemtl meadow
f 223//75 224//75 225//75
usemtl meadow
f 226//76 227//76 228//76
usemtl meadow
f 229//77 230//77 231//77
usemtl meadow
f 232//78 233//78 234//78
usemtl earth
f 235//79 236//79 237//79
usemtl earth
f 238//80 239//80 240//80
usemtl earth
f 241//81 242//81 243//81
usemtl earth
f 244//82 245//82 246//82
usemtl meadow
f 247//83 248//83 249//83
usemtl meadow
f 250//84 251//84 252//84
usemtl meadow
f 253//85 254//85 255//85
usemtl meadow
f 256//86 257//86 258//86
usemtl earth
f 259//87 260//87 261//87
usemtl earth
f 262//88 263//88 264//88
usemtl earth_cut
f 265//89 266//89 267//89
usemtl earth_cut
f 268//90 269//90 270//90
usemtl earth_cut
f 271//91 272//91 273//91
usemtl earth_cut
f 274//92 275//92 276//92
usemtl earth_cut
f 277//93 278//93 279//93
usemtl earth_cut
f 280//94 281//94 282//94
usemtl earth_cut
f 283//95 284//95 285//95
usemtl earth_cut
f 286//96 287//96 288//96
usemtl earth_cut
f 289//97 290//97 291//97
usemtl earth_cut
f 292//98 293//98 294//98
usemtl earth_cut
f 295//99 296//99 297//99
usemtl earth_cut
f 298//100 299//100 300//100
usemtl earth_cut
f 301//101 302//101 303//101
usemtl earth_cut
f 304//102 305//102 306//102
usemtl earth_cut
f 307//103 308//103 309//103
usemtl earth_cut
f 310//104 311//104 312//104
usemtl earth_cut
f 313//105 314//105 315//105
usemtl earth_cut
f 316//106 317//106 318//106
usemtl earth_cut
f 319//107 320//107 321//107
usemtl earth_cut
f 322//108 323//108 324//108
usemtl earth_cut
f 325//109 326//109 327//109
usemtl earth_cut
f 328//110 329//110 330//110
usemtl earth_cut
f 331//111 332//111 333//111
usemtl earth_cut
f 334//112 335//112 336//112
usemtl concrete_dark
f 337//113 338//113 339//113
usemtl concrete_dark
f 340//114 341//114 342//114
usemtl concrete_dark
f 343//115 344//115 345//115
usemtl concrete_dark
f 346//116 347//116 348//116
usemtl concrete_dark
f 349//117 350//117 351//117
usemtl concrete_dark
f 352//118 353//118 354//118
usemtl concrete_dark
f 355//119 356//119 357//119
usemtl concrete_dark
f 358//120 359//120 360//120
usemtl concrete_dark
f 361//121 362//121 363//121
usemtl concrete_dark
f 364//122 365//122 366//122
usemtl concrete_dark
f 367//123 368//123 369//123
usemtl concrete_dark
f 370//124 371//124 372//124
usemtl concrete_dark
f 373//125 374//125 375//125
usemtl concrete_dark
f 376//126 377//126 378//126
usemtl concrete_dark
f 379//127 380//127 381//127
usemtl concrete_dark
f 382//128 383//128 384//128
usemtl concrete_dark
f 385//129 386//129 387//129
usemtl concrete_dark
f 388//130 389//130 390//130
usemtl concrete_dark
f 391//131 392//131 393//131
usemtl concrete_dark
f 394//132 395//132 396//132
usemtl concrete_dark
f 397//133 398//133 399//133
usemtl concrete_dark
f 400//134 401//134 402//134
usemtl concrete_dark
f 403//135 404//135 405//135
usemtl concrete_dark
f 406//136 407//136 408//136
usemtl concrete_dark
f 409//137 410//137 411//137
usemtl concrete_dark
f 412//138 413//138 414//138
usemtl concrete_dark
f 415//139 416//139 417//139
usemtl concrete_dark
f 418//140 419//140 420//140
usemtl concrete_dark
f 421//141 422//141 423//141
usemtl concrete_dark
f 424//142 425//142 426//142
usemtl concrete_dark
f 427//143 428//143 429//143
usemtl concrete_dark
f 430//144 431//144 432//144
usemtl concrete_dark
f 433//145 434//145 435//145
usemtl concrete_dark
f 436//146 437//146 438//146
usemtl concrete_dark
f 439//147 440//147 441//147
usemtl concrete_dark
f 442//148 443//148 444//148
usemtl concrete_dark
f 445//149 446//149 447//149
usemtl concrete_dark
f 448//150 449//150 450//150
usemtl concrete_dark
f 451//151 452//151 453//151
usemtl concrete_dark
f 454//152 455//152 456//152
usemtl concrete_dark
f 457//153 458//153 459//153
usemtl concrete_dark
f 460//154 461//154 462//154
usemtl concrete_dark
f 463//155 464//155 465//155
usemtl concrete_dark
f 466//156 467//156 468//156
usemtl concrete_dark
f 469//157 470//157 471//157
usemtl concrete_dark
f 472//158 473//158 474//158
usemtl concrete_dark
f 475//159 476//159 477//159
usemtl concrete_dark
f 478//160 479//160 480//160
usemtl concrete_dark
f 481//161 482//161 483//161
usemtl concrete_dark
f 484//162 485//162 486//162
usemtl concrete_dark
f 487//163 488//163 489//163
usemtl concrete_dark
f 490//164 491//164 492//164
usemtl concrete_dark
f 493//165 494//165 495//165
usemtl concrete_dark
f 496//166 497//166 498//166
usemtl concrete_dark
f 499//167 500//167 501//167
usemtl concrete_dark
f 502//168 503//168 504//168
usemtl concrete_dark
f 505//169 506//169 507//169
usemtl concrete_dark
f 508//170 509//170 510//170
usemtl concrete_dark
f 511//171 512//171 513//171
usemtl concrete_dark
f 514//172 515//172 516//172
usemtl concrete_dark
f 517//173 518//173 519//173
usemtl concrete_dark
f 520//174 521//174 522//174
usemtl concrete_dark
f 523//175 524//175 525//175
usemtl concrete_dark
f 526//176 527//176 528//176
usemtl concrete_dark
f 529//177 530//177 531//177
usemtl concrete_dark
f 532//178 533//178 534//178
usemtl concrete_dark
f 535//179 536//179 537//179
usemtl concrete_dark
f 538//180 539//180 540//180
usemtl concrete_dark
f 541//181 542//181 543//181
usemtl concrete_dark
f 544//182 545//182 546//182
usemtl concrete_dark
f 547//183 548//183 549//183
usemtl concrete_dark
f 550//184 551//184 552//184
usemtl concrete_dark
f 553//185 554//185 555//185
usemtl concrete_dark
f 556//186 557//186 558//186
usemtl concrete_dark
f 559//187 560//187 561//187
usemtl concrete_dark
f 562//188 563//188 564//188
usemtl concrete
f 565//189 566//189 567//189
usemtl concrete
f 568//190 569//190 570//190
usemtl concrete
f 571//191 572//191 573//191
usemtl concrete
f 574//192 575//192 576//192
usemtl concrete
f 577//193 578//193 579//193
usemtl concrete
f 580//194 581//194 582//194
usemtl concrete
f 583//195 584//195 585//195
usemtl concrete
f 586//196 587//196 588//196
usemtl concrete
f 589//197 590//197 591//197
usemtl concrete
f 592//198 593//198 594//198
usemtl concrete
f 595//199 596//199 597//199
usemtl concrete
f 598//200 599//200 600//200
usemtl concrete_dark
f 601//201 602//201 603//201
usemtl concrete_dark
f 604//202 605//202 606//202
usemtl concrete_dark
f 607//203 608//203 609//203
usemtl concrete_dark
f 610//204 611//204 612//204
usemtl concrete_dark
f 613//205 614//205 615//205
usemtl concrete_dark
f 616//206 617//206 618//206
usemtl concrete_dark
f 619//207 620//207 621//207
usemtl concrete_dark
f 622//208 623//208 624//208
usemtl concrete_dark
f 625//209 626//209 627//209
usemtl concrete_dark
f 628//210 629//210 630//210
usemtl concrete_dark
f 631//211 632//211 633//211
usemtl concrete_dark
f 634//212 635//212 636//212
usemtl concrete
f 637//213 638//213 639//213
usemtl concrete
f 640//214 641//214 642//214
usemtl concrete
f 643//215 644//215 645//215
usemtl concrete
f 646//216 647//216 648//216
usemtl concrete
f 649//217 650//217 651//217
usemtl concrete
f 652//218 653//218 654//218
usemtl concrete
f 655//219 656//219 657//219
usemtl concrete
f 658//220 659//220 660//220
usemtl concrete
f 661//221 662//221 663//221
usemtl concrete
f 664//222 665//222 666//222
usemtl concrete
f 667//223 668//223 669//223
usemtl concrete
f 670//224 671//224 672//224
usemtl rust
f 673//225 674//225 675//225
usemtl rust
f 676//226 677//226 678//226
usemtl rust
f 679//227 680//227 681//227
usemtl rust
f 682//228 683//228 684//228
usemtl rust
f 685//229 686//229 687//229
usemtl rust
f 688//230 689//230 690//230
usemtl rust
f 691//231 692//231 693//231
usemtl rust
f 694//232 695//232 696//232
usemtl rust
f 697//233 698//233 699//233
usemtl rust
f 700//234 701//234 702//234
usemtl rust
f 703//235 704//235 705//235
usemtl rust
f 706//236 707//236 708//236
usemtl rust
f 709//237 710//237 711//237
usemtl rust
f 712//238 713//238 714//238
usemtl rust
f 715//239 716//239 717//239
usemtl rust
f 718//240 719//240 720//240
usemtl rust
f 721//241 722//241 723//241
usemtl rust
f 724//242 725//242 726//242
usemtl rust
f 727//243 728//243 729//243
usemtl rust
f 730//244 731//244 732//244
usemtl rust
f 733//245 734//245 735//245
usemtl rust
f 736//246 737//246 738//246
usemtl rust
f 739//247 740//247 741//247
usemtl rust
f 742//248 743//248 744//248
usemtl wood_dark
f 745//249 746//249 747//249
usemtl wood_dark
f 748//250 749//250 750//250
usemtl wood_dark
f 751//251 752//251 753//251
usemtl wood_dark
f 754//252 755//252 756//252
usemtl wood_dark
f 757//253 758//253 759//253
usemtl wood_dark
f 760//254 761//254 762//254
usemtl wood_dark
f 763//255 764//255 765//255
usemtl wood_dark
f 766//256 767//256 768//256
usemtl wood_dark
f 769//257 770//257 771//257
usemtl wood_dark
f 772//258 773//258 774//258
usemtl wood_dark
f 775//259 776//259 777//259
usemtl wood_dark
f 778//260 779//260 780//260
usemtl steel_dark
f 781//261 782//261 783//261
usemtl steel_dark
f 784//262 785//262 786//262
usemtl steel_dark
f 787//263 788//263 789//263
usemtl steel_dark
f 790//264 791//264 792//264
usemtl steel_dark
f 793//265 794//265 795//265
usemtl steel_dark
f 796//266 797//266 798//266
usemtl steel_dark
f 799//267 800//267 801//267
usemtl steel_dark
f 802//268 803//268 804//268
usemtl steel_dark
f 805//269 806//269 807//269
usemtl steel_dark
f 808//270 809//270 810//270
usemtl steel_dark
f 811//271 812//271 813//271
usemtl steel_dark
f 814//272 815//272 816//272
usemtl concrete_dark
f 817//273 818//273 819//273
usemtl concrete_dark
f 820//274 821//274 822//274
usemtl concrete_dark
f 823//275 824//275 825//275
usemtl concrete_dark
f 826//276 827//276 828//276
usemtl concrete_dark
f 829//277 830//277 831//277
usemtl concrete_dark
f 832//278 833//278 834//278
usemtl concrete_dark
f 835//279 836//279 837//279
usemtl concrete_dark
f 838//280 839//280 840//280
usemtl concrete_dark
f 841//281 842//281 843//281
usemtl concrete_dark
f 844//282 845//282 846//282
usemtl concrete_dark
f 847//283 848//283 849//283
usemtl concrete_dark
f 850//284 851//284 852//284
usemtl concrete_dark
f 853//285 854//285 855//285
usemtl concrete_dark
f 856//286 857//286 858//286
usemtl concrete_dark
f 859//287 860//287 861//287
usemtl concrete_dark
f 862//288 863//288 864//288
usemtl concrete_dark
f 865//289 866//289 867//289
usemtl concrete_dark
f 868//290 869//290 870//290
usemtl concrete_dark
f 871//291 872//291 873//291
usemtl concrete_dark
f 874//292 875//292 876//292
usemtl concrete_dark
f 877//293 878//293 879//293
usemtl concrete_dark
f 880//294 881//294 882//294
usemtl concrete_dark
f 883//295 884//295 885//295
usemtl concrete_dark
f 886//296 887//296 888//296
usemtl stone
f 889//297 890//297 891//297
usemtl stone
f 892//298 893//298 894//298
usemtl stone
f 895//299 896//299 897//299
usemtl stone
f 898//300 899//300 900//300
usemtl stone
f 901//301 902//301 903//301
usemtl stone
f 904//302 905//302 906//302
usemtl stone
f 907//303 908//303 909//303
usemtl stone
f 910//304 911//304 912//304
usemtl stone
f 913//305 914//305 915//305
usemtl stone
f 916//306 917//306 918//306
usemtl stone
f 919//307 920//307 921//307
usemtl stone
f 922//308 923//308 924//308
usemtl stone
f 925//309 926//309 927//309
usemtl stone
f 928//310 929//310 930//310
usemtl stone
f 931//311 932//311 933//311
usemtl stone
f 934//312 935//312 936//312
usemtl stone
f 937//313 938//313 939//313
usemtl stone
f 940//314 941//314 942//314
usemtl stone
f 943//315 944//315 945//315
usemtl stone
f 946//316 947//316 948//316
usemtl stone
f 949//317 950//317 951//317
usemtl stone
f 952//318 953//318 954//318
usemtl stone
f 955//319 956//319 957//319
usemtl stone
f 958//320 959//320 960//320
usemtl stone
f 961//321 962//321 963//321
usemtl stone
f 964//322 965//322 966//322
usemtl stone
f 967//323 968//323 969//323
usemtl stone
f 970//324 971//324 972//324
usemtl stone
f 973//325 974//325 975//325
usemtl stone
f 976//326 977//326 978//326
usemtl stone
f 979//327 980//327 981//327
usemtl stone
f 982//328 983//328 984//328
usemtl stone
f 985//329 986//329 987//329
usemtl stone
f 988//330 989//330 990//330
usemtl stone
f 991//331 992//331 993//331
usemtl stone
f 994//332 995//332 996//332
usemtl stone
f 997//333 998//333 999//333
usemtl stone
f 1000//334 1001//334 1002//334
usemtl stone
f 1003//335 1004//335 1005//335
usemtl stone
f 1006//336 1007//336 1008//336
usemtl rust
f 1009//337 1010//337 1011//337
usemtl rust
f 1012//338 1013//338 1014//338
usemtl rust
f 1015//339 1016//339 1017//339
usemtl rust
f 1018//340 1019//340 1020//340
usemtl rust
f 1021//341 1022//341 1023//341
usemtl rust
f 1024//342 1025//342 1026//342
usemtl rust
f 1027//343 1028//343 1029//343
usemtl rust
f 1030//344 1031//344 1032//344
usemtl rust
f 1033//345 1034//345 1035//345
usemtl rust
f 1036//346 1037//346 1038//346
usemtl rust
f 1039//347 1040//347 1041//347
usemtl rust
f 1042//348 1043//348 1044//348
usemtl rust
f 1045//349 1046//349 1047//349
usemtl rust
f 1048//350 1049//350 1050//350
usemtl rust
f 1051//351 1052//351 1053//351
usemtl rust
f 1054//352 1055//352 1056//352
usemtl rust
f 1057//353 1058//353 1059//353
usemtl rust
f 1060//354 1061//354 1062//354
usemtl rust
f 1063//355 1064//355 1065//355
usemtl rust
f 1066//356 1067//356 1068//356
usemtl rust
f 1069//357 1070//357 1071//357
usemtl rust
f 1072//358 1073//358 1074//358
usemtl rust
f 1075//359 1076//359 1077//359
usemtl rust
f 1078//360 1079//360 1080//360
