# Original Quiet Camp environment study; NOT a downloaded Sketchfab donor
# Units: metres; Y up; no external geometry or textures
mtllib palette.mtl
o ua_dam_breached_lod
v -16.0000000 5.9750000 -1.6000000
v -16.0000000 6.4250000 -1.6000000
v 2.0000000 6.4250000 -1.6000000
v -16.0000000 5.9750000 -1.6000000
v 2.0000000 6.4250000 -1.6000000
v 2.0000000 5.9750000 -1.6000000
v -16.0000000 5.9750000 1.6000000
v 2.0000000 5.9750000 1.6000000
v 2.0000000 6.4250000 1.6000000
v -16.0000000 5.9750000 1.6000000
v 2.0000000 6.4250000 1.6000000
v -16.0000000 6.4250000 1.6000000
v -16.0000000 5.9750000 -1.6000000
v -16.0000000 5.9750000 1.6000000
v -16.0000000 6.4250000 1.6000000
v -16.0000000 5.9750000 -1.6000000
v -16.0000000 6.4250000 1.6000000
v -16.0000000 6.4250000 -1.6000000
v 2.0000000 5.9750000 -1.6000000
v 2.0000000 6.4250000 -1.6000000
v 2.0000000 6.4250000 1.6000000
v 2.0000000 5.9750000 -1.6000000
v 2.0000000 6.4250000 1.6000000
v 2.0000000 5.9750000 1.6000000
v -16.0000000 5.9750000 -1.6000000
v 2.0000000 5.9750000 -1.6000000
v 2.0000000 5.9750000 1.6000000
v -16.0000000 5.9750000 -1.6000000
v 2.0000000 5.9750000 1.6000000
v -16.0000000 5.9750000 1.6000000
v -16.0000000 6.4250000 -1.6000000
v -16.0000000 6.4250000 1.6000000
v 2.0000000 6.4250000 1.6000000
v -16.0000000 6.4250000 -1.6000000
v 2.0000000 6.4250000 1.6000000
v 2.0000000 6.4250000 -1.6000000
v 8.0000000 5.9750000 -1.6000000
v 8.0000000 6.4250000 -1.6000000
v 16.0000000 6.4250000 -1.6000000
v 8.0000000 5.9750000 -1.6000000
v 16.0000000 6.4250000 -1.6000000
v 16.0000000 5.9750000 -1.6000000
v 8.0000000 5.9750000 1.6000000
v 16.0000000 5.9750000 1.6000000
v 16.0000000 6.4250000 1.6000000
v 8.0000000 5.9750000 1.6000000
v 16.0000000 6.4250000 1.6000000
v 8.0000000 6.4250000 1.6000000
v 8.0000000 5.9750000 -1.6000000
v 8.0000000 5.9750000 1.6000000
v 8.0000000 6.4250000 1.6000000
v 8.0000000 5.9750000 -1.6000000
v 8.0000000 6.4250000 1.6000000
v 8.0000000 6.4250000 -1.6000000
v 16.0000000 5.9750000 -1.6000000
v 16.0000000 6.4250000 -1.6000000
v 16.0000000 6.4250000 1.6000000
v 16.0000000 5.9750000 -1.6000000
v 16.0000000 6.4250000 1.6000000
v 16.0000000 5.9750000 1.6000000
v 8.0000000 5.9750000 -1.6000000
v 16.0000000 5.9750000 -1.6000000
v 16.0000000 5.9750000 1.6000000
v 8.0000000 5.9750000 -1.6000000
v 16.0000000 5.9750000 1.6000000
v 8.0000000 5.9750000 1.6000000
v 8.0000000 6.4250000 -1.6000000
v 8.0000000 6.4250000 1.6000000
v 16.0000000 6.4250000 1.6000000
v 8.0000000 6.4250000 -1.6000000
v 16.0000000 6.4250000 1.6000000
v 16.0000000 6.4250000 -1.6000000
v -16.5500000 0.0000000 -2.3000000
v -16.5500000 6.0000000 -2.3000000
v -15.4500000 6.0000000 -2.3000000
v -16.5500000 0.0000000 -2.3000000
v -15.4500000 6.0000000 -2.3000000
v -15.4500000 0.0000000 -2.3000000
v -16.5500000 0.0000000 2.3000000
v -15.4500000 0.0000000 2.3000000
v -15.4500000 6.0000000 2.3000000
v -16.5500000 0.0000000 2.3000000
v -15.4500000 6.0000000 2.3000000
v -16.5500000 6.0000000 2.3000000
v -16.5500000 0.0000000 -2.3000000
v -16.5500000 0.0000000 2.3000000
v -16.5500000 6.0000000 2.3000000
v -16.5500000 0.0000000 -2.3000000
v -16.5500000 6.0000000 2.3000000
v -16.5500000 6.0000000 -2.3000000
v -15.4500000 0.0000000 -2.3000000
v -15.4500000 6.0000000 -2.3000000
v -15.4500000 6.0000000 2.3000000
v -15.4500000 0.0000000 -2.3000000
v -15.4500000 6.0000000 2.3000000
v -15.4500000 0.0000000 2.3000000
v -16.5500000 0.0000000 -2.3000000
v -15.4500000 0.0000000 -2.3000000
v -15.4500000 0.0000000 2.3000000
v -16.5500000 0.0000000 -2.3000000
v -15.4500000 0.0000000 2.3000000
v -16.5500000 0.0000000 2.3000000
v -16.5500000 6.0000000 -2.3000000
v -16.5500000 6.0000000 2.3000000
v -15.4500000 6.0000000 2.3000000
v -16.5500000 6.0000000 -2.3000000
v -15.4500000 6.0000000 2.3000000
v -15.4500000 6.0000000 -2.3000000
v -10.5500000 0.0000000 -2.3000000
v -10.5500000 6.0000000 -2.3000000
v -9.4500000 6.0000000 -2.3000000
v -10.5500000 0.0000000 -2.3000000
v -9.4500000 6.0000000 -2.3000000
v -9.4500000 0.0000000 -2.3000000
v -10.5500000 0.0000000 2.3000000
v -9.4500000 0.0000000 2.3000000
v -9.4500000 6.0000000 2.3000000
v -10.5500000 0.0000000 2.3000000
v -9.4500000 6.0000000 2.3000000
v -10.5500000 6.0000000 2.3000000
v -10.5500000 0.0000000 -2.3000000
v -10.5500000 0.0000000 2.3000000
v -10.5500000 6.0000000 2.3000000
v -10.5500000 0.0000000 -2.3000000
v -10.5500000 6.0000000 2.3000000
v -10.5500000 6.0000000 -2.3000000
v -9.4500000 0.0000000 -2.3000000
v -9.4500000 6.0000000 -2.3000000
v -9.4500000 6.0000000 2.3000000
v -9.4500000 0.0000000 -2.3000000
v -9.4500000 6.0000000 2.3000000
v -9.4500000 0.0000000 2.3000000
v -10.5500000 0.0000000 -2.3000000
v -9.4500000 0.0000000 -2.3000000
v -9.4500000 0.0000000 2.3000000
v -10.5500000 0.0000000 -2.3000000
v -9.4500000 0.0000000 2.3000000
v -10.5500000 0.0000000 2.3000000
v -10.5500000 6.0000000 -2.3000000
v -10.5500000 6.0000000 2.3000000
v -9.4500000 6.0000000 2.3000000
v -10.5500000 6.0000000 -2.3000000
v -9.4500000 6.0000000 2.3000000
v -9.4500000 6.0000000 -2.3000000
v -4.5500000 0.0000000 -2.3000000
v -4.5500000 6.0000000 -2.3000000
v -3.4500000 6.0000000 -2.3000000
v -4.5500000 0.0000000 -2.3000000
v -3.4500000 6.0000000 -2.3000000
v -3.4500000 0.0000000 -2.3000000
v -4.5500000 0.0000000 2.3000000
v -3.4500000 0.0000000 2.3000000
v -3.4500000 6.0000000 2.3000000
v -4.5500000 0.0000000 2.3000000
v -3.4500000 6.0000000 2.3000000
v -4.5500000 6.0000000 2.3000000
v -4.5500000 0.0000000 -2.3000000
v -4.5500000 0.0000000 2.3000000
v -4.5500000 6.0000000 2.3000000
v -4.5500000 0.0000000 -2.3000000
v -4.5500000 6.0000000 2.3000000
v -4.5500000 6.0000000 -2.3000000
v -3.4500000 0.0000000 -2.3000000
v -3.4500000 6.0000000 -2.3000000
v -3.4500000 6.0000000 2.3000000
v -3.4500000 0.0000000 -2.3000000
v -3.4500000 6.0000000 2.3000000
v -3.4500000 0.0000000 2.3000000
v -4.5500000 0.0000000 -2.3000000
v -3.4500000 0.0000000 -2.3000000
v -3.4500000 0.0000000 2.3000000
v -4.5500000 0.0000000 -2.3000000
v -3.4500000 0.0000000 2.3000000
v -4.5500000 0.0000000 2.3000000
v -4.5500000 6.0000000 -2.3000000
v -4.5500000 6.0000000 2.3000000
v -3.4500000 6.0000000 2.3000000
v -4.5500000 6.0000000 -2.3000000
v -3.4500000 6.0000000 2.3000000
v -3.4500000 6.0000000 -2.3000000
v 1.4500000 0.0000000 -2.3000000
v 1.4500000 6.0000000 -2.3000000
v 2.5500000 6.0000000 -2.3000000
v 1.4500000 0.0000000 -2.3000000
v 2.5500000 6.0000000 -2.3000000
v 2.5500000 0.0000000 -2.3000000
v 1.4500000 0.0000000 2.3000000
v 2.5500000 0.0000000 2.3000000
v 2.5500000 6.0000000 2.3000000
v 1.4500000 0.0000000 2.3000000
v 2.5500000 6.0000000 2.3000000
v 1.4500000 6.0000000 2.3000000
v 1.4500000 0.0000000 -2.3000000
v 1.4500000 0.0000000 2.3000000
v 1.4500000 6.0000000 2.3000000
v 1.4500000 0.0000000 -2.3000000
v 1.4500000 6.0000000 2.3000000
v 1.4500000 6.0000000 -2.3000000
v 2.5500000 0.0000000 -2.3000000
v 2.5500000 6.0000000 -2.3000000
v 2.5500000 6.0000000 2.3000000
v 2.5500000 0.0000000 -2.3000000
v 2.5500000 6.0000000 2.3000000
v 2.5500000 0.0000000 2.3000000
v 1.4500000 0.0000000 -2.3000000
v 2.5500000 0.0000000 -2.3000000
v 2.5500000 0.0000000 2.3000000
v 1.4500000 0.0000000 -2.3000000
v 2.5500000 0.0000000 2.3000000
v 1.4500000 0.0000000 2.3000000
v 1.4500000 6.0000000 -2.3000000
v 1.4500000 6.0000000 2.3000000
v 2.5500000 6.0000000 2.3000000
v 1.4500000 6.0000000 -2.3000000
v 2.5500000 6.0000000 2.3000000
v 2.5500000 6.0000000 -2.3000000
v 7.4500000 0.0000000 -2.3000000
v 7.4500000 6.0000000 -2.3000000
v 8.5500000 6.0000000 -2.3000000
v 7.4500000 0.0000000 -2.3000000
v 8.5500000 6.0000000 -2.3000000
v 8.5500000 0.0000000 -2.3000000
v 7.4500000 0.0000000 2.3000000
v 8.5500000 0.0000000 2.3000000
v 8.5500000 6.0000000 2.3000000
v 7.4500000 0.0000000 2.3000000
v 8.5500000 6.0000000 2.3000000
v 7.4500000 6.0000000 2.3000000
v 7.4500000 0.0000000 -2.3000000
v 7.4500000 0.0000000 2.3000000
v 7.4500000 6.0000000 2.3000000
v 7.4500000 0.0000000 -2.3000000
v 7.4500000 6.0000000 2.3000000
v 7.4500000 6.0000000 -2.3000000
v 8.5500000 0.0000000 -2.3000000
v 8.5500000 6.0000000 -2.3000000
v 8.5500000 6.0000000 2.3000000
v 8.5500000 0.0000000 -2.3000000
v 8.5500000 6.0000000 2.3000000
v 8.5500000 0.0000000 2.3000000
v 7.4500000 0.0000000 -2.3000000
v 8.5500000 0.0000000 -2.3000000
v 8.5500000 0.0000000 2.3000000
v 7.4500000 0.0000000 -2.3000000
v 8.5500000 0.0000000 2.3000000
v 7.4500000 0.0000000 2.3000000
v 7.4500000 6.0000000 -2.3000000
v 7.4500000 6.0000000 2.3000000
v 8.5500000 6.0000000 2.3000000
v 7.4500000 6.0000000 -2.3000000
v 8.5500000 6.0000000 2.3000000
v 8.5500000 6.0000000 -2.3000000
v 15.4500000 0.0000000 -2.3000000
v 15.4500000 6.0000000 -2.3000000
v 16.5500000 6.0000000 -2.3000000
v 15.4500000 0.0000000 -2.3000000
v 16.5500000 6.0000000 -2.3000000
v 16.5500000 0.0000000 -2.3000000
v 15.4500000 0.0000000 2.3000000
v 16.5500000 0.0000000 2.3000000
v 16.5500000 6.0000000 2.3000000
v 15.4500000 0.0000000 2.3000000
v 16.5500000 6.0000000 2.3000000
v 15.4500000 6.0000000 2.3000000
v 15.4500000 0.0000000 -2.3000000
v 15.4500000 0.0000000 2.3000000
v 15.4500000 6.0000000 2.3000000
v 15.4500000 0.0000000 -2.3000000
v 15.4500000 6.0000000 2.3000000
v 15.4500000 6.0000000 -2.3000000
v 16.5500000 0.0000000 -2.3000000
v 16.5500000 6.0000000 -2.3000000
v 16.5500000 6.0000000 2.3000000
v 16.5500000 0.0000000 -2.3000000
v 16.5500000 6.0000000 2.3000000
v 16.5500000 0.0000000 2.3000000
v 15.4500000 0.0000000 -2.3000000
v 16.5500000 0.0000000 -2.3000000
v 16.5500000 0.0000000 2.3000000
v 15.4500000 0.0000000 -2.3000000
v 16.5500000 0.0000000 2.3000000
v 15.4500000 0.0000000 2.3000000
v 15.4500000 6.0000000 -2.3000000
v 15.4500000 6.0000000 2.3000000
v 16.5500000 6.0000000 2.3000000
v 15.4500000 6.0000000 -2.3000000
v 16.5500000 6.0000000 2.3000000
v 16.5500000 6.0000000 -2.3000000
v -15.4500000 0.3000000 -0.1500000
v -15.4500000 5.0000000 -0.1500000
v -10.5500000 5.0000000 -0.1500000
v -15.4500000 0.3000000 -0.1500000
v -10.5500000 5.0000000 -0.1500000
v -10.5500000 0.3000000 -0.1500000
v -15.4500000 0.3000000 0.1500000
v -10.5500000 0.3000000 0.1500000
v -10.5500000 5.0000000 0.1500000
v -15.4500000 0.3000000 0.1500000
v -10.5500000 5.0000000 0.1500000
v -15.4500000 5.0000000 0.1500000
v -15.4500000 0.3000000 -0.1500000
v -15.4500000 0.3000000 0.1500000
v -15.4500000 5.0000000 0.1500000
v -15.4500000 0.3000000 -0.1500000
v -15.4500000 5.0000000 0.1500000
v -15.4500000 5.0000000 -0.1500000
v -10.5500000 0.3000000 -0.1500000
v -10.5500000 5.0000000 -0.1500000
v -10.5500000 5.0000000 0.1500000
v -10.5500000 0.3000000 -0.1500000
v -10.5500000 5.0000000 0.1500000
v -10.5500000 0.3000000 0.1500000
v -15.4500000 0.3000000 -0.1500000
v -10.5500000 0.3000000 -0.1500000
v -10.5500000 0.3000000 0.1500000
v -15.4500000 0.3000000 -0.1500000
v -10.5500000 0.3000000 0.1500000
v -15.4500000 0.3000000 0.1500000
v -15.4500000 5.0000000 -0.1500000
v -15.4500000 5.0000000 0.1500000
v -10.5500000 5.0000000 0.1500000
v -15.4500000 5.0000000 -0.1500000
v -10.5500000 5.0000000 0.1500000
v -10.5500000 5.0000000 -0.1500000
v -9.4500000 0.3000000 -0.1500000
v -9.4500000 5.0000000 -0.1500000
v -4.5500000 5.0000000 -0.1500000
v -9.4500000 0.3000000 -0.1500000
v -4.5500000 5.0000000 -0.1500000
v -4.5500000 0.3000000 -0.1500000
v -9.4500000 0.3000000 0.1500000
v -4.5500000 0.3000000 0.1500000
v -4.5500000 5.0000000 0.1500000
v -9.4500000 0.3000000 0.1500000
v -4.5500000 5.0000000 0.1500000
v -9.4500000 5.0000000 0.1500000
v -9.4500000 0.3000000 -0.1500000
v -9.4500000 0.3000000 0.1500000
v -9.4500000 5.0000000 0.1500000
v -9.4500000 0.3000000 -0.1500000
v -9.4500000 5.0000000 0.1500000
v -9.4500000 5.0000000 -0.1500000
v -4.5500000 0.3000000 -0.1500000
v -4.5500000 5.0000000 -0.1500000
v -4.5500000 5.0000000 0.1500000
v -4.5500000 0.3000000 -0.1500000
v -4.5500000 5.0000000 0.1500000
v -4.5500000 0.3000000 0.1500000
v -9.4500000 0.3000000 -0.1500000
v -4.5500000 0.3000000 -0.1500000
v -4.5500000 0.3000000 0.1500000
v -9.4500000 0.3000000 -0.1500000
v -4.5500000 0.3000000 0.1500000
v -9.4500000 0.3000000 0.1500000
v -9.4500000 5.0000000 -0.1500000
v -9.4500000 5.0000000 0.1500000
v -4.5500000 5.0000000 0.1500000
v -9.4500000 5.0000000 -0.1500000
v -4.5500000 5.0000000 0.1500000
v -4.5500000 5.0000000 -0.1500000
v -3.4500000 0.3000000 -0.1500000
v -3.4500000 5.0000000 -0.1500000
v 1.4500000 5.0000000 -0.1500000
v -3.4500000 0.3000000 -0.1500000
v 1.4500000 5.0000000 -0.1500000
v 1.4500000 0.3000000 -0.1500000
v -3.4500000 0.3000000 0.1500000
v 1.4500000 0.3000000 0.1500000
v 1.4500000 5.0000000 0.1500000
v -3.4500000 0.3000000 0.1500000
v 1.4500000 5.0000000 0.1500000
v -3.4500000 5.0000000 0.1500000
v -3.4500000 0.3000000 -0.1500000
v -3.4500000 0.3000000 0.1500000
v -3.4500000 5.0000000 0.1500000
v -3.4500000 0.3000000 -0.1500000
v -3.4500000 5.0000000 0.1500000
v -3.4500000 5.0000000 -0.1500000
v 1.4500000 0.3000000 -0.1500000
v 1.4500000 5.0000000 -0.1500000
v 1.4500000 5.0000000 0.1500000
v 1.4500000 0.3000000 -0.1500000
v 1.4500000 5.0000000 0.1500000
v 1.4500000 0.3000000 0.1500000
v -3.4500000 0.3000000 -0.1500000
v 1.4500000 0.3000000 -0.1500000
v 1.4500000 0.3000000 0.1500000
v -3.4500000 0.3000000 -0.1500000
v 1.4500000 0.3000000 0.1500000
v -3.4500000 0.3000000 0.1500000
v -3.4500000 5.0000000 -0.1500000
v -3.4500000 5.0000000 0.1500000
v 1.4500000 5.0000000 0.1500000
v -3.4500000 5.0000000 -0.1500000
v 1.4500000 5.0000000 0.1500000
v 1.4500000 5.0000000 -0.1500000
v 8.5500000 0.3000000 -0.1500000
v 8.5500000 5.0000000 -0.1500000
v 15.4500000 5.0000000 -0.1500000
v 8.5500000 0.3000000 -0.1500000
v 15.4500000 5.0000000 -0.1500000
v 15.4500000 0.3000000 -0.1500000
v 8.5500000 0.3000000 0.1500000
v 15.4500000 0.3000000 0.1500000
v 15.4500000 5.0000000 0.1500000
v 8.5500000 0.3000000 0.1500000
v 15.4500000 5.0000000 0.1500000
v 8.5500000 5.0000000 0.1500000
v 8.5500000 0.3000000 -0.1500000
v 8.5500000 0.3000000 0.1500000
v 8.5500000 5.0000000 0.1500000
v 8.5500000 0.3000000 -0.1500000
v 8.5500000 5.0000000 0.1500000
v 8.5500000 5.0000000 -0.1500000
v 15.4500000 0.3000000 -0.1500000
v 15.4500000 5.0000000 -0.1500000
v 15.4500000 5.0000000 0.1500000
v 15.4500000 0.3000000 -0.1500000
v 15.4500000 5.0000000 0.1500000
v 15.4500000 0.3000000 0.1500000
v 8.5500000 0.3000000 -0.1500000
v 15.4500000 0.3000000 -0.1500000
v 15.4500000 0.3000000 0.1500000
v 8.5500000 0.3000000 -0.1500000
v 15.4500000 0.3000000 0.1500000
v 8.5500000 0.3000000 0.1500000
v 8.5500000 5.0000000 -0.1500000
v 8.5500000 5.0000000 0.1500000
v 15.4500000 5.0000000 0.1500000
v 8.5500000 5.0000000 -0.1500000
v 15.4500000 5.0000000 0.1500000
v 15.4500000 5.0000000 -0.1500000
vn 0.0000000 0.0000000 -1.0000000
vn 0.0000000 0.0000000 -1.0000000
vn 0.0000000 0.0000000 1.0000000
vn 0.0000000 0.0000000 1.0000000
vn -1.0000000 0.0000000 0.0000000
vn -1.0000000 0.0000000 0.0000000
vn 1.0000000 0.0000000 0.0000000
vn 1.0000000 0.0000000 0.0000000
vn 0.0000000 -1.0000000 0.0000000
vn 0.0000000 -1.0000000 0.0000000
vn 0.0000000 1.0000000 0.0000000
vn 0.0000000 1.0000000 0.0000000
vn 0.0000000 0.0000000 -1.0000000
vn 0.0000000 0.0000000 -1.0000000
vn 0.0000000 0.0000000 1.0000000
vn 0.0000000 0.0000000 1.0000000
vn -1.0000000 0.0000000 0.0000000
vn -1.0000000 0.0000000 0.0000000
vn 1.0000000 0.0000000 0.0000000
vn 1.0000000 0.0000000 0.0000000
vn 0.0000000 -1.0000000 0.0000000
vn 0.0000000 -1.0000000 0.0000000
vn 0.0000000 1.0000000 0.0000000
vn 0.0000000 1.0000000 0.0000000
vn 0.0000000 0.0000000 -1.0000000
vn 0.0000000 0.0000000 -1.0000000
vn 0.0000000 0.0000000 1.0000000
vn 0.0000000 0.0000000 1.0000000
vn -1.0000000 0.0000000 0.0000000
vn -1.0000000 0.0000000 0.0000000
vn 1.0000000 0.0000000 0.0000000
vn 1.0000000 0.0000000 0.0000000
vn 0.0000000 -1.0000000 0.0000000
vn 0.0000000 -1.0000000 0.0000000
vn 0.0000000 1.0000000 0.0000000
vn 0.0000000 1.0000000 0.0000000
vn 0.0000000 0.0000000 -1.0000000
vn 0.0000000 0.0000000 -1.0000000
vn 0.0000000 0.0000000 1.0000000
vn 0.0000000 0.0000000 1.0000000
vn -1.0000000 0.0000000 0.0000000
vn -1.0000000 0.0000000 0.0000000
vn 1.0000000 0.0000000 0.0000000
vn 1.0000000 0.0000000 0.0000000
vn 0.0000000 -1.0000000 0.0000000
vn 0.0000000 -1.0000000 0.0000000
vn 0.0000000 1.0000000 0.0000000
vn 0.0000000 1.0000000 0.0000000
vn 0.0000000 0.0000000 -1.0000000
vn 0.0000000 0.0000000 -1.0000000
vn 0.0000000 0.0000000 1.0000000
vn 0.0000000 0.0000000 1.0000000
vn -1.0000000 0.0000000 0.0000000
vn -1.0000000 0.0000000 0.0000000
vn 1.0000000 0.0000000 0.0000000
vn 1.0000000 0.0000000 0.0000000
vn 0.0000000 -1.0000000 0.0000000
vn 0.0000000 -1.0000000 0.0000000
vn 0.0000000 1.0000000 0.0000000
vn 0.0000000 1.0000000 0.0000000
vn 0.0000000 0.0000000 -1.0000000
vn 0.0000000 0.0000000 -1.0000000
vn 0.0000000 0.0000000 1.0000000
vn 0.0000000 0.0000000 1.0000000
vn -1.0000000 0.0000000 0.0000000
vn -1.0000000 0.0000000 0.0000000
vn 1.0000000 0.0000000 0.0000000
vn 1.0000000 0.0000000 0.0000000
vn 0.0000000 -1.0000000 0.0000000
vn 0.0000000 -1.0000000 0.0000000
vn 0.0000000 1.0000000 0.0000000
vn 0.0000000 1.0000000 0.0000000
vn 0.0000000 0.0000000 -1.0000000
vn 0.0000000 0.0000000 -1.0000000
vn 0.0000000 0.0000000 1.0000000
vn 0.0000000 0.0000000 1.0000000
vn -1.0000000 0.0000000 0.0000000
vn -1.0000000 0.0000000 0.0000000
vn 1.0000000 0.0000000 0.0000000
vn 1.0000000 0.0000000 0.0000000
vn 0.0000000 -1.0000000 0.0000000
vn 0.0000000 -1.0000000 0.0000000
vn 0.0000000 1.0000000 0.0000000
vn 0.0000000 1.0000000 0.0000000
vn 0.0000000 0.0000000 -1.0000000
vn 0.0000000 0.0000000 -1.0000000
vn 0.0000000 0.0000000 1.0000000
vn 0.0000000 0.0000000 1.0000000
vn -1.0000000 0.0000000 0.0000000
vn -1.0000000 0.0000000 0.0000000
vn 1.0000000 0.0000000 0.0000000
vn 1.0000000 0.0000000 0.0000000
vn 0.0000000 -1.0000000 0.0000000
vn 0.0000000 -1.0000000 0.0000000
vn 0.0000000 1.0000000 0.0000000
vn 0.0000000 1.0000000 0.0000000
vn 0.0000000 0.0000000 -1.0000000
vn 0.0000000 0.0000000 -1.0000000
vn 0.0000000 0.0000000 1.0000000
vn 0.0000000 0.0000000 1.0000000
vn -1.0000000 0.0000000 0.0000000
vn -1.0000000 0.0000000 0.0000000
vn 1.0000000 0.0000000 0.0000000
vn 1.0000000 0.0000000 0.0000000
vn 0.0000000 -1.0000000 0.0000000
vn 0.0000000 -1.0000000 0.0000000
vn 0.0000000 1.0000000 0.0000000
vn 0.0000000 1.0000000 0.0000000
vn 0.0000000 0.0000000 -1.0000000
vn 0.0000000 0.0000000 -1.0000000
vn 0.0000000 0.0000000 1.0000000
vn 0.0000000 0.0000000 1.0000000
vn -1.0000000 0.0000000 0.0000000
vn -1.0000000 0.0000000 0.0000000
vn 1.0000000 0.0000000 0.0000000
vn 1.0000000 0.0000000 0.0000000
vn 0.0000000 -1.0000000 0.0000000
vn 0.0000000 -1.0000000 0.0000000
vn 0.0000000 1.0000000 0.0000000
vn 0.0000000 1.0000000 0.0000000
vn 0.0000000 0.0000000 -1.0000000
vn 0.0000000 0.0000000 -1.0000000
vn 0.0000000 0.0000000 1.0000000
vn 0.0000000 0.0000000 1.0000000
vn -1.0000000 0.0000000 0.0000000
vn -1.0000000 0.0000000 0.0000000
vn 1.0000000 0.0000000 0.0000000
vn 1.0000000 0.0000000 0.0000000
vn 0.0000000 -1.0000000 0.0000000
vn 0.0000000 -1.0000000 0.0000000
vn 0.0000000 1.0000000 0.0000000
vn 0.0000000 1.0000000 0.0000000
vn 0.0000000 0.0000000 -1.0000000
vn 0.0000000 0.0000000 -1.0000000
vn 0.0000000 0.0000000 1.0000000
vn 0.0000000 0.0000000 1.0000000
vn -1.0000000 0.0000000 0.0000000
vn -1.0000000 0.0000000 0.0000000
vn 1.0000000 0.0000000 0.0000000
vn 1.0000000 0.0000000 0.0000000
vn 0.0000000 -1.0000000 0.0000000
vn 0.0000000 -1.0000000 0.0000000
vn 0.0000000 1.0000000 0.0000000
vn 0.0000000 1.0000000 0.0000000
usemtl concrete
f 1//1 2//1 3//1
usemtl concrete
f 4//2 5//2 6//2
usemtl concrete
f 7//3 8//3 9//3
usemtl concrete
f 10//4 11//4 12//4
usemtl concrete
f 13//5 14//5 15//5
usemtl concrete
f 16//6 17//6 18//6
usemtl concrete
f 19//7 20//7 21//7
usemtl concrete
f 22//8 23//8 24//8
usemtl concrete
f 25//9 26//9 27//9
usemtl concrete
f 28//10 29//10 30//10
usemtl concrete
f 31//11 32//11 33//11
usemtl concrete
f 34//12 35//12 36//12
usemtl concrete
f 37//13 38//13 39//13
usemtl concrete
f 40//14 41//14 42//14
usemtl concrete
f 43//15 44//15 45//15
usemtl concrete
f 46//16 47//16 48//16
usemtl concrete
f 49//17 50//17 51//17
usemtl concrete
f 52//18 53//18 54//18
usemtl concrete
f 55//19 56//19 57//19
usemtl concrete
f 58//20 59//20 60//20
usemtl concrete
f 61//21 62//21 63//21
usemtl concrete
f 64//22 65//22 66//22
usemtl concrete
f 67//23 68//23 69//23
usemtl concrete
f 70//24 71//24 72//24
usemtl concrete
f 73//25 74//25 75//25
usemtl concrete
f 76//26 77//26 78//26
usemtl concrete
f 79//27 80//27 81//27
usemtl concrete
f 82//28 83//28 84//28
usemtl concrete
f 85//29 86//29 87//29
usemtl concrete
f 88//30 89//30 90//30
usemtl concrete
f 91//31 92//31 93//31
usemtl concrete
f 94//32 95//32 96//32
usemtl concrete
f 97//33 98//33 99//33
usemtl concrete
f 100//34 101//34 102//34
usemtl concrete
f 103//35 104//35 105//35
usemtl concrete
f 106//36 107//36 108//36
usemtl concrete
f 109//37 110//37 111//37
usemtl concrete
f 112//38 113//38 114//38
usemtl concrete
f 115//39 116//39 117//39
usemtl concrete
f 118//40 119//40 120//40
usemtl concrete
f 121//41 122//41 123//41
usemtl concrete
f 124//42 125//42 126//42
usemtl concrete
f 127//43 128//43 129//43
usemtl concrete
f 130//44 131//44 132//44
usemtl concrete
f 133//45 134//45 135//45
usemtl concrete
f 136//46 137//46 138//46
usemtl concrete
f 139//47 140//47 141//47
usemtl concrete
f 142//48 143//48 144//48
usemtl concrete
f 145//49 146//49 147//49
usemtl concrete
f 148//50 149//50 150//50
usemtl concrete
f 151//51 152//51 153//51
usemtl concrete
f 154//52 155//52 156//52
usemtl concrete
f 157//53 158//53 159//53
usemtl concrete
f 160//54 161//54 162//54
usemtl concrete
f 163//55 164//55 165//55
usemtl concrete
f 166//56 167//56 168//56
usemtl concrete
f 169//57 170//57 171//57
usemtl concrete
f 172//58 173//58 174//58
usemtl concrete
f 175//59 176//59 177//59
usemtl concrete
f 178//60 179//60 180//60
usemtl concrete
f 181//61 182//61 183//61
usemtl concrete
f 184//62 185//62 186//62
usemtl concrete
f 187//63 188//63 189//63
usemtl concrete
f 190//64 191//64 192//64
usemtl concrete
f 193//65 194//65 195//65
usemtl concrete
f 196//66 197//66 198//66
usemtl concrete
f 199//67 200//67 201//67
usemtl concrete
f 202//68 203//68 204//68
usemtl concrete
f 205//69 206//69 207//69
usemtl concrete
f 208//70 209//70 210//70
usemtl concrete
f 211//71 212//71 213//71
usemtl concrete
f 214//72 215//72 216//72
usemtl concrete
f 217//73 218//73 219//73
usemtl concrete
f 220//74 221//74 222//74
usemtl concrete
f 223//75 224//75 225//75
usemtl concrete
f 226//76 227//76 228//76
usemtl concrete
f 229//77 230//77 231//77
usemtl concrete
f 232//78 233//78 234//78
usemtl concrete
f 235//79 236//79 237//79
usemtl concrete
f 238//80 239//80 240//80
usemtl concrete
f 241//81 242//81 243//81
usemtl concrete
f 244//82 245//82 246//82
usemtl concrete
f 247//83 248//83 249//83
usemtl concrete
f 250//84 251//84 252//84
usemtl concrete
f 253//85 254//85 255//85
usemtl concrete
f 256//86 257//86 258//86
usemtl concrete
f 259//87 260//87 261//87
usemtl concrete
f 262//88 263//88 264//88
usemtl concrete
f 265//89 266//89 267//89
usemtl concrete
f 268//90 269//90 270//90
usemtl concrete
f 271//91 272//91 273//91
usemtl concrete
f 274//92 275//92 276//92
usemtl concrete
f 277//93 278//93 279//93
usemtl concrete
f 280//94 281//94 282//94
usemtl concrete
f 283//95 284//95 285//95
usemtl concrete
f 286//96 287//96 288//96
usemtl steel_dark
f 289//97 290//97 291//97
usemtl steel_dark
f 292//98 293//98 294//98
usemtl steel_dark
f 295//99 296//99 297//99
usemtl steel_dark
f 298//100 299//100 300//100
usemtl steel_dark
f 301//101 302//101 303//101
usemtl steel_dark
f 304//102 305//102 306//102
usemtl steel_dark
f 307//103 308//103 309//103
usemtl steel_dark
f 310//104 311//104 312//104
usemtl steel_dark
f 313//105 314//105 315//105
usemtl steel_dark
f 316//106 317//106 318//106
usemtl steel_dark
f 319//107 320//107 321//107
usemtl steel_dark
f 322//108 323//108 324//108
usemtl steel_dark
f 325//109 326//109 327//109
usemtl steel_dark
f 328//110 329//110 330//110
usemtl steel_dark
f 331//111 332//111 333//111
usemtl steel_dark
f 334//112 335//112 336//112
usemtl steel_dark
f 337//113 338//113 339//113
usemtl steel_dark
f 340//114 341//114 342//114
usemtl steel_dark
f 343//115 344//115 345//115
usemtl steel_dark
f 346//116 347//116 348//116
usemtl steel_dark
f 349//117 350//117 351//117
usemtl steel_dark
f 352//118 353//118 354//118
usemtl steel_dark
f 355//119 356//119 357//119
usemtl steel_dark
f 358//120 359//120 360//120
usemtl steel_dark
f 361//121 362//121 363//121
usemtl steel_dark
f 364//122 365//122 366//122
usemtl steel_dark
f 367//123 368//123 369//123
usemtl steel_dark
f 370//124 371//124 372//124
usemtl steel_dark
f 373//125 374//125 375//125
usemtl steel_dark
f 376//126 377//126 378//126
usemtl steel_dark
f 379//127 380//127 381//127
usemtl steel_dark
f 382//128 383//128 384//128
usemtl steel_dark
f 385//129 386//129 387//129
usemtl steel_dark
f 388//130 389//130 390//130
usemtl steel_dark
f 391//131 392//131 393//131
usemtl steel_dark
f 394//132 395//132 396//132
usemtl steel_dark
f 397//133 398//133 399//133
usemtl steel_dark
f 400//134 401//134 402//134
usemtl steel_dark
f 403//135 404//135 405//135
usemtl steel_dark
f 406//136 407//136 408//136
usemtl steel_dark
f 409//137 410//137 411//137
usemtl steel_dark
f 412//138 413//138 414//138
usemtl steel_dark
f 415//139 416//139 417//139
usemtl steel_dark
f 418//140 419//140 420//140
usemtl steel_dark
f 421//141 422//141 423//141
usemtl steel_dark
f 424//142 425//142 426//142
usemtl steel_dark
f 427//143 428//143 429//143
usemtl steel_dark
f 430//144 431//144 432//144
