# Original Quiet Camp environment study; NOT a downloaded Sketchfab donor
# Units: metres; Y up; no external geometry or textures
mtllib palette.mtl
o ua_field_weeds
v -0.2850000 0.0000000 -0.1150000
v -0.1800000 0.4500000 -0.0550000
v -0.1950000 0.0000000 -0.1150000
v -0.1950000 0.0000000 -0.1150000
v -0.1800000 0.4500000 -0.0550000
v -0.2850000 0.0000000 -0.1150000
v -0.0450000 0.0000000 -0.1150000
v 0.0600000 0.6100000 -0.0550000
v 0.0450000 0.0000000 -0.1150000
v 0.0450000 0.0000000 -0.1150000
v 0.0600000 0.6100000 -0.0550000
v -0.0450000 0.0000000 -0.1150000
v 0.1950000 0.0000000 -0.1150000
v 0.3000000 0.4500000 -0.0550000
v 0.2850000 0.0000000 -0.1150000
v 0.2850000 0.0000000 -0.1150000
v 0.3000000 0.4500000 -0.0550000
v 0.1950000 0.0000000 -0.1150000
v -0.2850000 0.0000000 0.1150000
v -0.1800000 0.6100000 0.1750000
v -0.1950000 0.0000000 0.1150000
v -0.1950000 0.0000000 0.1150000
v -0.1800000 0.6100000 0.1750000
v -0.2850000 0.0000000 0.1150000
v -0.0450000 0.0000000 0.1150000
v 0.0600000 0.4500000 0.1750000
v 0.0450000 0.0000000 0.1150000
v 0.0450000 0.0000000 0.1150000
v 0.0600000 0.4500000 0.1750000
v -0.0450000 0.0000000 0.1150000
v 0.1950000 0.0000000 0.1150000
v 0.3000000 0.6100000 0.1750000
v 0.2850000 0.0000000 0.1150000
v 0.2850000 0.0000000 0.1150000
v 0.3000000 0.6100000 0.1750000
v 0.1950000 0.0000000 0.1150000
vn 0.0000000 0.1321637 -0.9912279
vn 0.0000000 -0.1321637 0.9912279
vn 0.0000000 0.0978883 -0.9951974
vn 0.0000000 -0.0978883 0.9951974
vn 0.0000000 0.1321637 -0.9912279
vn 0.0000000 -0.1321637 0.9912279
vn 0.0000000 0.0978883 -0.9951974
vn 0.0000000 -0.0978883 0.9951974
vn 0.0000000 0.1321637 -0.9912279
vn 0.0000000 -0.1321637 0.9912279
vn 0.0000000 0.0978883 -0.9951974
vn 0.0000000 -0.0978883 0.9951974
usemtl leaf_dark
f 1//1 2//1 3//1
usemtl leaf
f 4//2 5//2 6//2
usemtl leaf_dark
f 7//3 8//3 9//3
usemtl leaf
f 10//4 11//4 12//4
usemtl leaf_dark
f 13//5 14//5 15//5
usemtl leaf
f 16//6 17//6 18//6
usemtl leaf_dark
f 19//7 20//7 21//7
usemtl leaf
f 22//8 23//8 24//8
usemtl leaf_dark
f 25//9 26//9 27//9
usemtl leaf
f 28//10 29//10 30//10
usemtl leaf_dark
f 31//11 32//11 33//11
usemtl leaf
f 34//12 35//12 36//12
