# Original Quiet Camp environment study; NOT a downloaded Sketchfab donor
# Units: metres; Y up; no external geometry or textures
mtllib palette.mtl
o ua_mooring_post
v -0.1200000 0.0000000 -0.1200000
v -0.1200000 1.0000000 -0.1200000
v 0.1200000 1.0000000 -0.1200000
v -0.1200000 0.0000000 -0.1200000
v 0.1200000 1.0000000 -0.1200000
v 0.1200000 0.0000000 -0.1200000
v -0.1200000 0.0000000 0.1200000
v 0.1200000 0.0000000 0.1200000
v 0.1200000 1.0000000 0.1200000
v -0.1200000 0.0000000 0.1200000
v 0.1200000 1.0000000 0.1200000
v -0.1200000 1.0000000 0.1200000
v -0.1200000 0.0000000 -0.1200000
v -0.1200000 0.0000000 0.1200000
v -0.1200000 1.0000000 0.1200000
v -0.1200000 0.0000000 -0.1200000
v -0.1200000 1.0000000 0.1200000
v -0.1200000 1.0000000 -0.1200000
v 0.1200000 0.0000000 -0.1200000
v 0.1200000 1.0000000 -0.1200000
v 0.1200000 1.0000000 0.1200000
v 0.1200000 0.0000000 -0.1200000
v 0.1200000 1.0000000 0.1200000
v 0.1200000 0.0000000 0.1200000
v -0.1200000 0.0000000 -0.1200000
v 0.1200000 0.0000000 -0.1200000
v 0.1200000 0.0000000 0.1200000
v -0.1200000 0.0000000 -0.1200000
v 0.1200000 0.0000000 0.1200000
v -0.1200000 0.0000000 0.1200000
v -0.1200000 1.0000000 -0.1200000
v -0.1200000 1.0000000 0.1200000
v 0.1200000 1.0000000 0.1200000
v -0.1200000 1.0000000 -0.1200000
v 0.1200000 1.0000000 0.1200000
v 0.1200000 1.0000000 -0.1200000
v -0.2700000 0.8200000 -0.0750000
v -0.2700000 0.9400000 -0.0750000
v 0.2700000 0.9400000 -0.0750000
v -0.2700000 0.8200000 -0.0750000
v 0.2700000 0.9400000 -0.0750000
v 0.2700000 0.8200000 -0.0750000
v -0.2700000 0.8200000 0.0750000
v 0.2700000 0.8200000 0.0750000
v 0.2700000 0.9400000 0.0750000
v -0.2700000 0.8200000 0.0750000
v 0.2700000 0.9400000 0.0750000
v -0.2700000 0.9400000 0.0750000
v -0.2700000 0.8200000 -0.0750000
v -0.2700000 0.8200000 0.0750000
v -0.2700000 0.9400000 0.0750000
v -0.2700000 0.8200000 -0.0750000
v -0.2700000 0.9400000 0.0750000
v -0.2700000 0.9400000 -0.0750000
v 0.2700000 0.8200000 -0.0750000
v 0.2700000 0.9400000 -0.0750000
v 0.2700000 0.9400000 0.0750000
v 0.2700000 0.8200000 -0.0750000
v 0.2700000 0.9400000 0.0750000
v 0.2700000 0.8200000 0.0750000
v -0.2700000 0.8200000 -0.0750000
v 0.2700000 0.8200000 -0.0750000
v 0.2700000 0.8200000 0.0750000
v -0.2700000 0.8200000 -0.0750000
v 0.2700000 0.8200000 0.0750000
v -0.2700000 0.8200000 0.0750000
v -0.2700000 0.9400000 -0.0750000
v -0.2700000 0.9400000 0.0750000
v 0.2700000 0.9400000 0.0750000
v -0.2700000 0.9400000 -0.0750000
v 0.2700000 0.9400000 0.0750000
v 0.2700000 0.9400000 -0.0750000
vn 0.0000000 0.0000000 -1.0000000
vn 0.0000000 0.0000000 -1.0000000
vn 0.0000000 0.0000000 1.0000000
vn 0.0000000 0.0000000 1.0000000
vn -1.0000000 0.0000000 0.0000000
vn -1.0000000 0.0000000 0.0000000
vn 1.0000000 0.0000000 0.0000000
vn 1.0000000 0.0000000 0.0000000
vn 0.0000000 -1.0000000 0.0000000
vn 0.0000000 -1.0000000 0.0000000
vn 0.0000000 1.0000000 0.0000000
vn 0.0000000 1.0000000 0.0000000
vn 0.0000000 0.0000000 -1.0000000
vn 0.0000000 0.0000000 -1.0000000
vn 0.0000000 0.0000000 1.0000000
vn 0.0000000 0.0000000 1.0000000
vn -1.0000000 0.0000000 0.0000000
vn -1.0000000 0.0000000 0.0000000
vn 1.0000000 0.0000000 0.0000000
vn 1.0000000 0.0000000 0.0000000
vn 0.0000000 -1.0000000 0.0000000
vn 0.0000000 -1.0000000 0.0000000
vn 0.0000000 1.0000000 0.0000000
vn 0.0000000 1.0000000 0.0000000
usemtl wood_dark
f 1//1 2//1 3//1
usemtl wood_dark
f 4//2 5//2 6//2
usemtl wood_dark
f 7//3 8//3 9//3
usemtl wood_dark
f 10//4 11//4 12//4
usemtl wood_dark
f 13//5 14//5 15//5
usemtl wood_dark
f 16//6 17//6 18//6
usemtl wood_dark
f 19//7 20//7 21//7
usemtl wood_dark
f 22//8 23//8 24//8
usemtl wood_dark
f 25//9 26//9 27//9
usemtl wood_dark
f 28//10 29//10 30//10
usemtl wood_dark
f 31//11 32//11 33//11
usemtl wood_dark
f 34//12 35//12 36//12
usemtl rust
f 37//13 38//13 39//13
usemtl rust
f 40//14 41//14 42//14
usemtl rust
f 43//15 44//15 45//15
usemtl rust
f 46//16 47//16 48//16
usemtl rust
f 49//17 50//17 51//17
usemtl rust
f 52//18 53//18 54//18
usemtl rust
f 55//19 56//19 57//19
usemtl rust
f 58//20 59//20 60//20
usemtl rust
f 61//21 62//21 63//21
usemtl rust
f 64//22 65//22 66//22
usemtl rust
f 67//23 68//23 69//23
usemtl rust
f 70//24 71//24 72//24
