# Original Quiet Camp environment study; NOT a downloaded Sketchfab donor
# Units: metres; Y up; no external geometry or textures
mtllib palette.mtl
o ua_poplar
v -0.0600000 0.0000000 -0.0600000
v -0.0600000 0.0000000 0.0600000
v -0.0600000 3.3840000 0.0600000
v -0.0600000 0.0000000 -0.0600000
v -0.0600000 3.3840000 0.0600000
v -0.0600000 3.3840000 -0.0600000
v -0.0600000 0.0000000 0.0600000
v 0.0600000 0.0000000 0.0600000
v 0.0600000 3.3840000 0.0600000
v -0.0600000 0.0000000 0.0600000
v 0.0600000 3.3840000 0.0600000
v -0.0600000 3.3840000 0.0600000
v 0.0600000 0.0000000 0.0600000
v 0.0600000 0.0000000 -0.0600000
v 0.0600000 3.3840000 -0.0600000
v 0.0600000 0.0000000 0.0600000
v 0.0600000 3.3840000 -0.0600000
v 0.0600000 3.3840000 0.0600000
v 0.0600000 0.0000000 -0.0600000
v -0.0600000 0.0000000 -0.0600000
v -0.0600000 3.3840000 -0.0600000
v 0.0600000 0.0000000 -0.0600000
v -0.0600000 3.3840000 -0.0600000
v 0.0600000 3.3840000 -0.0600000
v 0.0600000 0.0000000 -0.0600000
v 0.0600000 0.0000000 0.0600000
v -0.0600000 0.0000000 0.0600000
v 0.0600000 0.0000000 -0.0600000
v -0.0600000 0.0000000 0.0600000
v -0.0600000 0.0000000 -0.0600000
v -0.0600000 3.3840000 -0.0600000
v -0.0600000 3.3840000 0.0600000
v 0.0600000 3.3840000 0.0600000
v -0.0600000 3.3840000 -0.0600000
v 0.0600000 3.3840000 0.0600000
v 0.0600000 3.3840000 -0.0600000
v 0.0650000 4.6060000 -0.0390000
v 0.4052684 3.1960000 0.5081905
v 0.6500000 3.1960000 0.0000000
v -0.0455000 1.7860000 0.0390000
v 0.6500000 3.1960000 0.0000000
v 0.4052684 3.1960000 0.5081905
v 0.0650000 4.6060000 -0.0390000
v -0.1446386 3.1960000 0.6337031
v 0.4052684 3.1960000 0.5081905
v -0.0455000 1.7860000 0.0390000
v 0.4052684 3.1960000 0.5081905
v -0.1446386 3.1960000 0.6337031
v 0.0650000 4.6060000 -0.0390000
v -0.5856298 3.1960000 0.2820244
v -0.1446386 3.1960000 0.6337031
v -0.0455000 1.7860000 0.0390000
v -0.1446386 3.1960000 0.6337031
v -0.5856298 3.1960000 0.2820244
v 0.0650000 4.6060000 -0.0390000
v -0.5856298 3.1960000 -0.2820244
v -0.5856298 3.1960000 0.2820244
v -0.0455000 1.7860000 0.0390000
v -0.5856298 3.1960000 0.2820244
v -0.5856298 3.1960000 -0.2820244
v 0.0650000 4.6060000 -0.0390000
v -0.1446386 3.1960000 -0.6337031
v -0.5856298 3.1960000 -0.2820244
v -0.0455000 1.7860000 0.0390000
v -0.5856298 3.1960000 -0.2820244
v -0.1446386 3.1960000 -0.6337031
v 0.0650000 4.6060000 -0.0390000
v 0.4052684 3.1960000 -0.5081905
v -0.1446386 3.1960000 -0.6337031
v -0.0455000 1.7860000 0.0390000
v -0.1446386 3.1960000 -0.6337031
v 0.4052684 3.1960000 -0.5081905
v 0.0650000 4.6060000 -0.0390000
v 0.6500000 3.1960000 0.0000000
v 0.4052684 3.1960000 -0.5081905
v -0.0455000 1.7860000 0.0390000
v 0.4052684 3.1960000 -0.5081905
v 0.6500000 3.1960000 0.0000000
vn -1.0000000 0.0000000 0.0000000
vn -1.0000000 0.0000000 0.0000000
vn 0.0000000 0.0000000 1.0000000
vn 0.0000000 0.0000000 1.0000000
vn 1.0000000 0.0000000 0.0000000
vn 1.0000000 0.0000000 0.0000000
vn 0.0000000 0.0000000 -1.0000000
vn 0.0000000 0.0000000 -1.0000000
vn 0.0000000 -1.0000000 0.0000000
vn 0.0000000 -1.0000000 0.0000000
vn 0.0000000 1.0000000 0.0000000
vn 0.0000000 1.0000000 0.0000000
vn 0.8405792 0.3599476 0.4048016
vn 0.8269665 -0.3968962 0.3982461
vn 0.2042710 0.3966140 0.8949696
vn 0.2069212 -0.3678245 0.9065808
vn -0.5652034 0.4221716 0.7087427
vn -0.5840610 -0.3499696 0.7323893
vn -0.9079936 0.4189841 0.0000000
vn -0.9338280 -0.3577222 0.0000000
vn -0.5743413 0.3891560 -0.7202012
vn -0.5754925 -0.3847562 -0.7216447
vn 0.2081388 0.3536775 -0.9119158
vn 0.2029606 -0.4099755 -0.8892284
vn 0.8472218 0.3402218 -0.4080005
vn 0.8196336 -0.4152121 -0.3947147
usemtl wood_dark
f 1//1 2//1 3//1
usemtl wood_dark
f 4//2 5//2 6//2
usemtl wood_dark
f 7//3 8//3 9//3
usemtl wood_dark
f 10//4 11//4 12//4
usemtl wood_dark
f 13//5 14//5 15//5
usemtl wood_dark
f 16//6 17//6 18//6
usemtl wood_dark
f 19//7 20//7 21//7
usemtl wood_dark
f 22//8 23//8 24//8
usemtl wood_dark
f 25//9 26//9 27//9
usemtl wood_dark
f 28//10 29//10 30//10
usemtl wood_dark
f 31//11 32//11 33//11
usemtl wood_dark
f 34//12 35//12 36//12
usemtl leaf
f 37//13 38//13 39//13
usemtl leaf
f 40//14 41//14 42//14
usemtl leaf
f 43//15 44//15 45//15
usemtl leaf
f 46//16 47//16 48//16
usemtl leaf
f 49//17 50//17 51//17
usemtl leaf
f 52//18 53//18 54//18
usemtl leaf
f 55//19 56//19 57//19
usemtl leaf
f 58//20 59//20 60//20
usemtl leaf
f 61//21 62//21 63//21
usemtl leaf
f 64//22 65//22 66//22
usemtl leaf
f 67//23 68//23 69//23
usemtl leaf
f 70//24 71//24 72//24
usemtl leaf
f 73//25 74//25 75//25
usemtl leaf
f 76//26 77//26 78//26
