# Original Quiet Camp environment study; NOT a downloaded Sketchfab donor
# Units: metres; Y up; no external geometry or textures
mtllib palette.mtl
o ua_plank_bridge
v -0.7050000 0.0800000 -2.3500000
v -0.7050000 0.3800000 -2.3500000
v -0.5350000 0.3800000 -2.3500000
v -0.7050000 0.0800000 -2.3500000
v -0.5350000 0.3800000 -2.3500000
v -0.5350000 0.0800000 -2.3500000
v -0.7050000 0.0800000 2.3500000
v -0.5350000 0.0800000 2.3500000
v -0.5350000 0.3800000 2.3500000
v -0.7050000 0.0800000 2.3500000
v -0.5350000 0.3800000 2.3500000
v -0.7050000 0.3800000 2.3500000
v -0.7050000 0.0800000 -2.3500000
v -0.7050000 0.0800000 2.3500000
v -0.7050000 0.3800000 2.3500000
v -0.7050000 0.0800000 -2.3500000
v -0.7050000 0.3800000 2.3500000
v -0.7050000 0.3800000 -2.3500000
v -0.5350000 0.0800000 -2.3500000
v -0.5350000 0.3800000 -2.3500000
v -0.5350000 0.3800000 2.3500000
v -0.5350000 0.0800000 -2.3500000
v -0.5350000 0.3800000 2.3500000
v -0.5350000 0.0800000 2.3500000
v -0.7050000 0.0800000 -2.3500000
v -0.5350000 0.0800000 -2.3500000
v -0.5350000 0.0800000 2.3500000
v -0.7050000 0.0800000 -2.3500000
v -0.5350000 0.0800000 2.3500000
v -0.7050000 0.0800000 2.3500000
v -0.7050000 0.3800000 -2.3500000
v -0.7050000 0.3800000 2.3500000
v -0.5350000 0.3800000 2.3500000
v -0.7050000 0.3800000 -2.3500000
v -0.5350000 0.3800000 2.3500000
v -0.5350000 0.3800000 -2.3500000
v 0.5350000 0.0800000 -2.3500000
v 0.5350000 0.3800000 -2.3500000
v 0.7050000 0.3800000 -2.3500000
v 0.5350000 0.0800000 -2.3500000
v 0.7050000 0.3800000 -2.3500000
v 0.7050000 0.0800000 -2.3500000
v 0.5350000 0.0800000 2.3500000
v 0.7050000 0.0800000 2.3500000
v 0.7050000 0.3800000 2.3500000
v 0.5350000 0.0800000 2.3500000
v 0.7050000 0.3800000 2.3500000
v 0.5350000 0.3800000 2.3500000
v 0.5350000 0.0800000 -2.3500000
v 0.5350000 0.0800000 2.3500000
v 0.5350000 0.3800000 2.3500000
v 0.5350000 0.0800000 -2.3500000
v 0.5350000 0.3800000 2.3500000
v 0.5350000 0.3800000 -2.3500000
v 0.7050000 0.0800000 -2.3500000
v 0.7050000 0.3800000 -2.3500000
v 0.7050000 0.3800000 2.3500000
v 0.7050000 0.0800000 -2.3500000
v 0.7050000 0.3800000 2.3500000
v 0.7050000 0.0800000 2.3500000
v 0.5350000 0.0800000 -2.3500000
v 0.7050000 0.0800000 -2.3500000
v 0.7050000 0.0800000 2.3500000
v 0.5350000 0.0800000 -2.3500000
v 0.7050000 0.0800000 2.3500000
v 0.5350000 0.0800000 2.3500000
v 0.5350000 0.3800000 -2.3500000
v 0.5350000 0.3800000 2.3500000
v 0.7050000 0.3800000 2.3500000
v 0.5350000 0.3800000 -2.3500000
v 0.7050000 0.3800000 2.3500000
v 0.7050000 0.3800000 -2.3500000
v -0.7750000 0.3400000 -2.3350000
v -0.7750000 0.4600000 -2.3350000
v 0.7750000 0.4600000 -2.3350000
v -0.7750000 0.3400000 -2.3350000
v 0.7750000 0.4600000 -2.3350000
v 0.7750000 0.3400000 -2.3350000
v -0.7750000 0.3400000 -1.9050000
v 0.7750000 0.3400000 -1.9050000
v 0.7750000 0.4600000 -1.9050000
v -0.7750000 0.3400000 -1.9050000
v 0.7750000 0.4600000 -1.9050000
v -0.7750000 0.4600000 -1.9050000
v -0.7750000 0.3400000 -2.3350000
v -0.7750000 0.3400000 -1.9050000
v -0.7750000 0.4600000 -1.9050000
v -0.7750000 0.3400000 -2.3350000
v -0.7750000 0.4600000 -1.9050000
v -0.7750000 0.4600000 -2.3350000
v 0.7750000 0.3400000 -2.3350000
v 0.7750000 0.4600000 -2.3350000
v 0.7750000 0.4600000 -1.9050000
v 0.7750000 0.3400000 -2.3350000
v 0.7750000 0.4600000 -1.9050000
v 0.7750000 0.3400000 -1.9050000
v -0.7750000 0.3400000 -2.3350000
v 0.7750000 0.3400000 -2.3350000
v 0.7750000 0.3400000 -1.9050000
v -0.7750000 0.3400000 -2.3350000
v 0.7750000 0.3400000 -1.9050000
v -0.7750000 0.3400000 -1.9050000
v -0.7750000 0.4600000 -2.3350000
v -0.7750000 0.4600000 -1.9050000
v 0.7750000 0.4600000 -1.9050000
v -0.7750000 0.4600000 -2.3350000
v 0.7750000 0.4600000 -1.9050000
v 0.7750000 0.4600000 -2.3350000
v -0.7750000 0.3400000 -1.8650000
v -0.7750000 0.4600000 -1.8650000
v 0.7750000 0.4600000 -1.8650000
v -0.7750000 0.3400000 -1.8650000
v 0.7750000 0.4600000 -1.8650000
v 0.7750000 0.3400000 -1.8650000
v -0.7750000 0.3400000 -1.4350000
v 0.7750000 0.3400000 -1.4350000
v 0.7750000 0.4600000 -1.4350000
v -0.7750000 0.3400000 -1.4350000
v 0.7750000 0.4600000 -1.4350000
v -0.7750000 0.4600000 -1.4350000
v -0.7750000 0.3400000 -1.8650000
v -0.7750000 0.3400000 -1.4350000
v -0.7750000 0.4600000 -1.4350000
v -0.7750000 0.3400000 -1.8650000
v -0.7750000 0.4600000 -1.4350000
v -0.7750000 0.4600000 -1.8650000
v 0.7750000 0.3400000 -1.8650000
v 0.7750000 0.4600000 -1.8650000
v 0.7750000 0.4600000 -1.4350000
v 0.7750000 0.3400000 -1.8650000
v 0.7750000 0.4600000 -1.4350000
v 0.7750000 0.3400000 -1.4350000
v -0.7750000 0.3400000 -1.8650000
v 0.7750000 0.3400000 -1.8650000
v 0.7750000 0.3400000 -1.4350000
v -0.7750000 0.3400000 -1.8650000
v 0.7750000 0.3400000 -1.4350000
v -0.7750000 0.3400000 -1.4350000
v -0.7750000 0.4600000 -1.8650000
v -0.7750000 0.4600000 -1.4350000
v 0.7750000 0.4600000 -1.4350000
v -0.7750000 0.4600000 -1.8650000
v 0.7750000 0.4600000 -1.4350000
v 0.7750000 0.4600000 -1.8650000
v -0.7750000 0.3400000 -1.3950000
v -0.7750000 0.4600000 -1.3950000
v 0.7750000 0.4600000 -1.3950000
v -0.7750000 0.3400000 -1.3950000
v 0.7750000 0.4600000 -1.3950000
v 0.7750000 0.3400000 -1.3950000
v -0.7750000 0.3400000 -0.9650000
v 0.7750000 0.3400000 -0.9650000
v 0.7750000 0.4600000 -0.9650000
v -0.7750000 0.3400000 -0.9650000
v 0.7750000 0.4600000 -0.9650000
v -0.7750000 0.4600000 -0.9650000
v -0.7750000 0.3400000 -1.3950000
v -0.7750000 0.3400000 -0.9650000
v -0.7750000 0.4600000 -0.9650000
v -0.7750000 0.3400000 -1.3950000
v -0.7750000 0.4600000 -0.9650000
v -0.7750000 0.4600000 -1.3950000
v 0.7750000 0.3400000 -1.3950000
v 0.7750000 0.4600000 -1.3950000
v 0.7750000 0.4600000 -0.9650000
v 0.7750000 0.3400000 -1.3950000
v 0.7750000 0.4600000 -0.9650000
v 0.7750000 0.3400000 -0.9650000
v -0.7750000 0.3400000 -1.3950000
v 0.7750000 0.3400000 -1.3950000
v 0.7750000 0.3400000 -0.9650000
v -0.7750000 0.3400000 -1.3950000
v 0.7750000 0.3400000 -0.9650000
v -0.7750000 0.3400000 -0.9650000
v -0.7750000 0.4600000 -1.3950000
v -0.7750000 0.4600000 -0.9650000
v 0.7750000 0.4600000 -0.9650000
v -0.7750000 0.4600000 -1.3950000
v 0.7750000 0.4600000 -0.9650000
v 0.7750000 0.4600000 -1.3950000
v -0.7750000 0.3400000 -0.9250000
v -0.7750000 0.4600000 -0.9250000
v 0.7750000 0.4600000 -0.9250000
v -0.7750000 0.3400000 -0.9250000
v 0.7750000 0.4600000 -0.9250000
v 0.7750000 0.3400000 -0.9250000
v -0.7750000 0.3400000 -0.4950000
v 0.7750000 0.3400000 -0.4950000
v 0.7750000 0.4600000 -0.4950000
v -0.7750000 0.3400000 -0.4950000
v 0.7750000 0.4600000 -0.4950000
v -0.7750000 0.4600000 -0.4950000
v -0.7750000 0.3400000 -0.9250000
v -0.7750000 0.3400000 -0.4950000
v -0.7750000 0.4600000 -0.4950000
v -0.7750000 0.3400000 -0.9250000
v -0.7750000 0.4600000 -0.4950000
v -0.7750000 0.4600000 -0.9250000
v 0.7750000 0.3400000 -0.9250000
v 0.7750000 0.4600000 -0.9250000
v 0.7750000 0.4600000 -0.4950000
v 0.7750000 0.3400000 -0.9250000
v 0.7750000 0.4600000 -0.4950000
v 0.7750000 0.3400000 -0.4950000
v -0.7750000 0.3400000 -0.9250000
v 0.7750000 0.3400000 -0.9250000
v 0.7750000 0.3400000 -0.4950000
v -0.7750000 0.3400000 -0.9250000
v 0.7750000 0.3400000 -0.4950000
v -0.7750000 0.3400000 -0.4950000
v -0.7750000 0.4600000 -0.9250000
v -0.7750000 0.4600000 -0.4950000
v 0.7750000 0.4600000 -0.4950000
v -0.7750000 0.4600000 -0.9250000
v 0.7750000 0.4600000 -0.4950000
v 0.7750000 0.4600000 -0.9250000
v -0.7750000 0.3400000 -0.4550000
v -0.7750000 0.4600000 -0.4550000
v 0.7750000 0.4600000 -0.4550000
v -0.7750000 0.3400000 -0.4550000
v 0.7750000 0.4600000 -0.4550000
v 0.7750000 0.3400000 -0.4550000
v -0.7750000 0.3400000 -0.0250000
v 0.7750000 0.3400000 -0.0250000
v 0.7750000 0.4600000 -0.0250000
v -0.7750000 0.3400000 -0.0250000
v 0.7750000 0.4600000 -0.0250000
v -0.7750000 0.4600000 -0.0250000
v -0.7750000 0.3400000 -0.4550000
v -0.7750000 0.3400000 -0.0250000
v -0.7750000 0.4600000 -0.0250000
v -0.7750000 0.3400000 -0.4550000
v -0.7750000 0.4600000 -0.0250000
v -0.7750000 0.4600000 -0.4550000
v 0.7750000 0.3400000 -0.4550000
v 0.7750000 0.4600000 -0.4550000
v 0.7750000 0.4600000 -0.0250000
v 0.7750000 0.3400000 -0.4550000
v 0.7750000 0.4600000 -0.0250000
v 0.7750000 0.3400000 -0.0250000
v -0.7750000 0.3400000 -0.4550000
v 0.7750000 0.3400000 -0.4550000
v 0.7750000 0.3400000 -0.0250000
v -0.7750000 0.3400000 -0.4550000
v 0.7750000 0.3400000 -0.0250000
v -0.7750000 0.3400000 -0.0250000
v -0.7750000 0.4600000 -0.4550000
v -0.7750000 0.4600000 -0.0250000
v 0.7750000 0.4600000 -0.0250000
v -0.7750000 0.4600000 -0.4550000
v 0.7750000 0.4600000 -0.0250000
v 0.7750000 0.4600000 -0.4550000
v -0.7750000 0.3400000 0.0150000
v -0.7750000 0.4600000 0.0150000
v 0.7750000 0.4600000 0.0150000
v -0.7750000 0.3400000 0.0150000
v 0.7750000 0.4600000 0.0150000
v 0.7750000 0.3400000 0.0150000
v -0.7750000 0.3400000 0.4450000
v 0.7750000 0.3400000 0.4450000
v 0.7750000 0.4600000 0.4450000
v -0.7750000 0.3400000 0.4450000
v 0.7750000 0.4600000 0.4450000
v -0.7750000 0.4600000 0.4450000
v -0.7750000 0.3400000 0.0150000
v -0.7750000 0.3400000 0.4450000
v -0.7750000 0.4600000 0.4450000
v -0.7750000 0.3400000 0.0150000
v -0.7750000 0.4600000 0.4450000
v -0.7750000 0.4600000 0.0150000
v 0.7750000 0.3400000 0.0150000
v 0.7750000 0.4600000 0.0150000
v 0.7750000 0.4600000 0.4450000
v 0.7750000 0.3400000 0.0150000
v 0.7750000 0.4600000 0.4450000
v 0.7750000 0.3400000 0.4450000
v -0.7750000 0.3400000 0.0150000
v 0.7750000 0.3400000 0.0150000
v 0.7750000 0.3400000 0.4450000
v -0.7750000 0.3400000 0.0150000
v 0.7750000 0.3400000 0.4450000
v -0.7750000 0.3400000 0.4450000
v -0.7750000 0.4600000 0.0150000
v -0.7750000 0.4600000 0.4450000
v 0.7750000 0.4600000 0.4450000
v -0.7750000 0.4600000 0.0150000
v 0.7750000 0.4600000 0.4450000
v 0.7750000 0.4600000 0.0150000
v -0.7750000 0.3400000 0.4850000
v -0.7750000 0.4600000 0.4850000
v 0.7750000 0.4600000 0.4850000
v -0.7750000 0.3400000 0.4850000
v 0.7750000 0.4600000 0.4850000
v 0.7750000 0.3400000 0.4850000
v -0.7750000 0.3400000 0.9150000
v 0.7750000 0.3400000 0.9150000
v 0.7750000 0.4600000 0.9150000
v -0.7750000 0.3400000 0.9150000
v 0.7750000 0.4600000 0.9150000
v -0.7750000 0.4600000 0.9150000
v -0.7750000 0.3400000 0.4850000
v -0.7750000 0.3400000 0.9150000
v -0.7750000 0.4600000 0.9150000
v -0.7750000 0.3400000 0.4850000
v -0.7750000 0.4600000 0.9150000
v -0.7750000 0.4600000 0.4850000
v 0.7750000 0.3400000 0.4850000
v 0.7750000 0.4600000 0.4850000
v 0.7750000 0.4600000 0.9150000
v 0.7750000 0.3400000 0.4850000
v 0.7750000 0.4600000 0.9150000
v 0.7750000 0.3400000 0.9150000
v -0.7750000 0.3400000 0.4850000
v 0.7750000 0.3400000 0.4850000
v 0.7750000 0.3400000 0.9150000
v -0.7750000 0.3400000 0.4850000
v 0.7750000 0.3400000 0.9150000
v -0.7750000 0.3400000 0.9150000
v -0.7750000 0.4600000 0.4850000
v -0.7750000 0.4600000 0.9150000
v 0.7750000 0.4600000 0.9150000
v -0.7750000 0.4600000 0.4850000
v 0.7750000 0.4600000 0.9150000
v 0.7750000 0.4600000 0.4850000
v -0.7750000 0.3400000 0.9550000
v -0.7750000 0.4600000 0.9550000
v 0.7750000 0.4600000 0.9550000
v -0.7750000 0.3400000 0.9550000
v 0.7750000 0.4600000 0.9550000
v 0.7750000 0.3400000 0.9550000
v -0.7750000 0.3400000 1.3850000
v 0.7750000 0.3400000 1.3850000
v 0.7750000 0.4600000 1.3850000
v -0.7750000 0.3400000 1.3850000
v 0.7750000 0.4600000 1.3850000
v -0.7750000 0.4600000 1.3850000
v -0.7750000 0.3400000 0.9550000
v -0.7750000 0.3400000 1.3850000
v -0.7750000 0.4600000 1.3850000
v -0.7750000 0.3400000 0.9550000
v -0.7750000 0.4600000 1.3850000
v -0.7750000 0.4600000 0.9550000
v 0.7750000 0.3400000 0.9550000
v 0.7750000 0.4600000 0.9550000
v 0.7750000 0.4600000 1.3850000
v 0.7750000 0.3400000 0.9550000
v 0.7750000 0.4600000 1.3850000
v 0.7750000 0.3400000 1.3850000
v -0.7750000 0.3400000 0.9550000
v 0.7750000 0.3400000 0.9550000
v 0.7750000 0.3400000 1.3850000
v -0.7750000 0.3400000 0.9550000
v 0.7750000 0.3400000 1.3850000
v -0.7750000 0.3400000 1.3850000
v -0.7750000 0.4600000 0.9550000
v -0.7750000 0.4600000 1.3850000
v 0.7750000 0.4600000 1.3850000
v -0.7750000 0.4600000 0.9550000
v 0.7750000 0.4600000 1.3850000
v 0.7750000 0.4600000 0.9550000
v -0.7750000 0.3400000 1.4250000
v -0.7750000 0.4600000 1.4250000
v 0.7750000 0.4600000 1.4250000
v -0.7750000 0.3400000 1.4250000
v 0.7750000 0.4600000 1.4250000
v 0.7750000 0.3400000 1.4250000
v -0.7750000 0.3400000 1.8550000
v 0.7750000 0.3400000 1.8550000
v 0.7750000 0.4600000 1.8550000
v -0.7750000 0.3400000 1.8550000
v 0.7750000 0.4600000 1.8550000
v -0.7750000 0.4600000 1.8550000
v -0.7750000 0.3400000 1.4250000
v -0.7750000 0.3400000 1.8550000
v -0.7750000 0.4600000 1.8550000
v -0.7750000 0.3400000 1.4250000
v -0.7750000 0.4600000 1.8550000
v -0.7750000 0.4600000 1.4250000
v 0.7750000 0.3400000 1.4250000
v 0.7750000 0.4600000 1.4250000
v 0.7750000 0.4600000 1.8550000
v 0.7750000 0.3400000 1.4250000
v 0.7750000 0.4600000 1.8550000
v 0.7750000 0.3400000 1.8550000
v -0.7750000 0.3400000 1.4250000
v 0.7750000 0.3400000 1.4250000
v 0.7750000 0.3400000 1.8550000
v -0.7750000 0.3400000 1.4250000
v 0.7750000 0.3400000 1.8550000
v -0.7750000 0.3400000 1.8550000
v -0.7750000 0.4600000 1.4250000
v -0.7750000 0.4600000 1.8550000
v 0.7750000 0.4600000 1.8550000
v -0.7750000 0.4600000 1.4250000
v 0.7750000 0.4600000 1.8550000
v 0.7750000 0.4600000 1.4250000
v -0.7750000 0.3400000 1.8950000
v -0.7750000 0.4600000 1.8950000
v 0.7750000 0.4600000 1.8950000
v -0.7750000 0.3400000 1.8950000
v 0.7750000 0.4600000 1.8950000
v 0.7750000 0.3400000 1.8950000
v -0.7750000 0.3400000 2.3250000
v 0.7750000 0.3400000 2.3250000
v 0.7750000 0.4600000 2.3250000
v -0.7750000 0.3400000 2.3250000
v 0.7750000 0.4600000 2.3250000
v -0.7750000 0.4600000 2.3250000
v -0.7750000 0.3400000 1.8950000
v -0.7750000 0.3400000 2.3250000
v -0.7750000 0.4600000 2.3250000
v -0.7750000 0.3400000 1.8950000
v -0.7750000 0.4600000 2.3250000
v -0.7750000 0.4600000 1.8950000
v 0.7750000 0.3400000 1.8950000
v 0.7750000 0.4600000 1.8950000
v 0.7750000 0.4600000 2.3250000
v 0.7750000 0.3400000 1.8950000
v 0.7750000 0.4600000 2.3250000
v 0.7750000 0.3400000 2.3250000
v -0.7750000 0.3400000 1.8950000
v 0.7750000 0.3400000 1.8950000
v 0.7750000 0.3400000 2.3250000
v -0.7750000 0.3400000 1.8950000
v 0.7750000 0.3400000 2.3250000
v -0.7750000 0.3400000 2.3250000
v -0.7750000 0.4600000 1.8950000
v -0.7750000 0.4600000 2.3250000
v 0.7750000 0.4600000 2.3250000
v -0.7750000 0.4600000 1.8950000
v 0.7750000 0.4600000 2.3250000
v 0.7750000 0.4600000 1.8950000
v -0.9250000 0.0000000 -2.5300000
v -0.9250000 0.2600000 -2.5300000
v 0.9250000 0.2600000 -2.5300000
v -0.9250000 0.0000000 -2.5300000
v 0.9250000 0.2600000 -2.5300000
v 0.9250000 0.0000000 -2.5300000
v -0.9250000 0.0000000 -2.0300000
v 0.9250000 0.0000000 -2.0300000
v 0.9250000 0.2600000 -2.0300000
v -0.9250000 0.0000000 -2.0300000
v 0.9250000 0.2600000 -2.0300000
v -0.9250000 0.2600000 -2.0300000
v -0.9250000 0.0000000 -2.5300000
v -0.9250000 0.0000000 -2.0300000
v -0.9250000 0.2600000 -2.0300000
v -0.9250000 0.0000000 -2.5300000
v -0.9250000 0.2600000 -2.0300000
v -0.9250000 0.2600000 -2.5300000
v 0.9250000 0.0000000 -2.5300000
v 0.9250000 0.2600000 -2.5300000
v 0.9250000 0.2600000 -2.0300000
v 0.9250000 0.0000000 -2.5300000
v 0.9250000 0.2600000 -2.0300000
v 0.9250000 0.0000000 -2.0300000
v -0.9250000 0.0000000 -2.5300000
v 0.9250000 0.0000000 -2.5300000
v 0.9250000 0.0000000 -2.0300000
v -0.9250000 0.0000000 -2.5300000
v 0.9250000 0.0000000 -2.0300000
v -0.9250000 0.0000000 -2.0300000
v -0.9250000 0.2600000 -2.5300000
v -0.9250000 0.2600000 -2.0300000
v 0.9250000 0.2600000 -2.0300000
v -0.9250000 0.2600000 -2.5300000
v 0.9250000 0.2600000 -2.0300000
v 0.9250000 0.2600000 -2.5300000
v -0.9250000 0.0000000 2.0300000
v -0.9250000 0.2600000 2.0300000
v 0.9250000 0.2600000 2.0300000
v -0.9250000 0.0000000 2.0300000
v 0.9250000 0.2600000 2.0300000
v 0.9250000 0.0000000 2.0300000
v -0.9250000 0.0000000 2.5300000
v 0.9250000 0.0000000 2.5300000
v 0.9250000 0.2600000 2.5300000
v -0.9250000 0.0000000 2.5300000
v 0.9250000 0.2600000 2.5300000
v -0.9250000 0.2600000 2.5300000
v -0.9250000 0.0000000 2.0300000
v -0.9250000 0.0000000 2.5300000
v -0.9250000 0.2600000 2.5300000
v -0.9250000 0.0000000 2.0300000
v -0.9250000 0.2600000 2.5300000
v -0.9250000 0.2600000 2.0300000
v 0.9250000 0.0000000 2.0300000
v 0.9250000 0.2600000 2.0300000
v 0.9250000 0.2600000 2.5300000
v 0.9250000 0.0000000 2.0300000
v 0.9250000 0.2600000 2.5300000
v 0.9250000 0.0000000 2.5300000
v -0.9250000 0.0000000 2.0300000
v 0.9250000 0.0000000 2.0300000
v 0.9250000 0.0000000 2.5300000
v -0.9250000 0.0000000 2.0300000
v 0.9250000 0.0000000 2.5300000
v -0.9250000 0.0000000 2.5300000
v -0.9250000 0.2600000 2.0300000
v -0.9250000 0.2600000 2.5300000
v 0.9250000 0.2600000 2.5300000
v -0.9250000 0.2600000 2.0300000
v 0.9250000 0.2600000 2.5300000
v 0.9250000 0.2600000 2.0300000
vn 0.0000000 0.0000000 -1.0000000
vn 0.0000000 0.0000000 -1.0000000
vn 0.0000000 0.0000000 1.0000000
vn 0.0000000 0.0000000 1.0000000
vn -1.0000000 0.0000000 0.0000000
vn -1.0000000 0.0000000 0.0000000
vn 1.0000000 0.0000000 0.0000000
vn 1.0000000 0.0000000 0.0000000
vn 0.0000000 -1.0000000 0.0000000
vn 0.0000000 -1.0000000 0.0000000
vn 0.0000000 1.0000000 0.0000000
vn 0.0000000 1.0000000 0.0000000
vn 0.0000000 0.0000000 -1.0000000
vn 0.0000000 0.0000000 -1.0000000
vn 0.0000000 0.0000000 1.0000000
vn 0.0000000 0.0000000 1.0000000
vn -1.0000000 0.0000000 0.0000000
vn -1.0000000 0.0000000 0.0000000
vn 1.0000000 0.0000000 0.0000000
vn 1.0000000 0.0000000 0.0000000
vn 0.0000000 -1.0000000 0.0000000
vn 0.0000000 -1.0000000 0.0000000
vn 0.0000000 1.0000000 0.0000000
vn 0.0000000 1.0000000 0.0000000
vn 0.0000000 0.0000000 -1.0000000
vn 0.0000000 0.0000000 -1.0000000
vn 0.0000000 0.0000000 1.0000000
vn 0.0000000 0.0000000 1.0000000
vn -1.0000000 0.0000000 0.0000000
vn -1.0000000 0.0000000 0.0000000
vn 1.0000000 0.0000000 0.0000000
vn 1.0000000 0.0000000 0.0000000
vn 0.0000000 -1.0000000 0.0000000
vn 0.0000000 -1.0000000 0.0000000
vn 0.0000000 1.0000000 0.0000000
vn 0.0000000 1.0000000 0.0000000
vn 0.0000000 0.0000000 -1.0000000
vn 0.0000000 0.0000000 -1.0000000
vn 0.0000000 0.0000000 1.0000000
vn 0.0000000 0.0000000 1.0000000
vn -1.0000000 0.0000000 0.0000000
vn -1.0000000 0.0000000 0.0000000
vn 1.0000000 0.0000000 0.0000000
vn 1.0000000 0.0000000 0.0000000
vn 0.0000000 -1.0000000 0.0000000
vn 0.0000000 -1.0000000 0.0000000
vn 0.0000000 1.0000000 0.0000000
vn 0.0000000 1.0000000 0.0000000
vn 0.0000000 0.0000000 -1.0000000
vn 0.0000000 0.0000000 -1.0000000
vn 0.0000000 0.0000000 1.0000000
vn 0.0000000 0.0000000 1.0000000
vn -1.0000000 0.0000000 0.0000000
vn -1.0000000 0.0000000 0.0000000
vn 1.0000000 0.0000000 0.0000000
vn 1.0000000 0.0000000 0.0000000
vn 0.0000000 -1.0000000 0.0000000
vn 0.0000000 -1.0000000 0.0000000
vn 0.0000000 1.0000000 0.0000000
vn 0.0000000 1.0000000 0.0000000
vn 0.0000000 0.0000000 -1.0000000
vn 0.0000000 0.0000000 -1.0000000
vn 0.0000000 0.0000000 1.0000000
vn 0.0000000 0.0000000 1.0000000
vn -1.0000000 0.0000000 0.0000000
vn -1.0000000 0.0000000 0.0000000
vn 1.0000000 0.0000000 0.0000000
vn 1.0000000 0.0000000 0.0000000
vn 0.0000000 -1.0000000 0.0000000
vn 0.0000000 -1.0000000 0.0000000
vn 0.0000000 1.0000000 0.0000000
vn 0.0000000 1.0000000 0.0000000
vn 0.0000000 0.0000000 -1.0000000
vn 0.0000000 0.0000000 -1.0000000
vn 0.0000000 0.0000000 1.0000000
vn 0.0000000 0.0000000 1.0000000
vn -1.0000000 0.0000000 0.0000000
vn -1.0000000 0.0000000 0.0000000
vn 1.0000000 0.0000000 0.0000000
vn 1.0000000 0.0000000 0.0000000
vn 0.0000000 -1.0000000 0.0000000
vn 0.0000000 -1.0000000 0.0000000
vn 0.0000000 1.0000000 0.0000000
vn 0.0000000 1.0000000 0.0000000
vn 0.0000000 0.0000000 -1.0000000
vn 0.0000000 0.0000000 -1.0000000
vn 0.0000000 0.0000000 1.0000000
vn 0.0000000 0.0000000 1.0000000
vn -1.0000000 0.0000000 0.0000000
vn -1.0000000 0.0000000 0.0000000
vn 1.0000000 0.0000000 0.0000000
vn 1.0000000 0.0000000 0.0000000
vn 0.0000000 -1.0000000 0.0000000
vn 0.0000000 -1.0000000 0.0000000
vn 0.0000000 1.0000000 0.0000000
vn 0.0000000 1.0000000 0.0000000
vn 0.0000000 0.0000000 -1.0000000
vn 0.0000000 0.0000000 -1.0000000
vn 0.0000000 0.0000000 1.0000000
vn 0.0000000 0.0000000 1.0000000
vn -1.0000000 0.0000000 0.0000000
vn -1.0000000 0.0000000 0.0000000
vn 1.0000000 0.0000000 0.0000000
vn 1.0000000 0.0000000 0.0000000
vn 0.0000000 -1.0000000 0.0000000
vn 0.0000000 -1.0000000 0.0000000
vn 0.0000000 1.0000000 0.0000000
vn 0.0000000 1.0000000 0.0000000
vn 0.0000000 0.0000000 -1.0000000
vn 0.0000000 0.0000000 -1.0000000
vn 0.0000000 0.0000000 1.0000000
vn 0.0000000 0.0000000 1.0000000
vn -1.0000000 0.0000000 0.0000000
vn -1.0000000 0.0000000 0.0000000
vn 1.0000000 0.0000000 0.0000000
vn 1.0000000 0.0000000 0.0000000
vn 0.0000000 -1.0000000 0.0000000
vn 0.0000000 -1.0000000 0.0000000
vn 0.0000000 1.0000000 0.0000000
vn 0.0000000 1.0000000 0.0000000
vn 0.0000000 0.0000000 -1.0000000
vn 0.0000000 0.0000000 -1.0000000
vn 0.0000000 0.0000000 1.0000000
vn 0.0000000 0.0000000 1.0000000
vn -1.0000000 0.0000000 0.0000000
vn -1.0000000 0.0000000 0.0000000
vn 1.0000000 0.0000000 0.0000000
vn 1.0000000 0.0000000 0.0000000
vn 0.0000000 -1.0000000 0.0000000
vn 0.0000000 -1.0000000 0.0000000
vn 0.0000000 1.0000000 0.0000000
vn 0.0000000 1.0000000 0.0000000
vn 0.0000000 0.0000000 -1.0000000
vn 0.0000000 0.0000000 -1.0000000
vn 0.0000000 0.0000000 1.0000000
vn 0.0000000 0.0000000 1.0000000
vn -1.0000000 0.0000000 0.0000000
vn -1.0000000 0.0000000 0.0000000
vn 1.0000000 0.0000000 0.0000000
vn 1.0000000 0.0000000 0.0000000
vn 0.0000000 -1.0000000 0.0000000
vn 0.0000000 -1.0000000 0.0000000
vn 0.0000000 1.0000000 0.0000000
vn 0.0000000 1.0000000 0.0000000
vn 0.0000000 0.0000000 -1.0000000
vn 0.0000000 0.0000000 -1.0000000
vn 0.0000000 0.0000000 1.0000000
vn 0.0000000 0.0000000 1.0000000
vn -1.0000000 0.0000000 0.0000000
vn -1.0000000 0.0000000 0.0000000
vn 1.0000000 0.0000000 0.0000000
vn 1.0000000 0.0000000 0.0000000
vn 0.0000000 -1.0000000 0.0000000
vn 0.0000000 -1.0000000 0.0000000
vn 0.0000000 1.0000000 0.0000000
vn 0.0000000 1.0000000 0.0000000
vn 0.0000000 0.0000000 -1.0000000
vn 0.0000000 0.0000000 -1.0000000
vn 0.0000000 0.0000000 1.0000000
vn 0.0000000 0.0000000 1.0000000
vn -1.0000000 0.0000000 0.0000000
vn -1.0000000 0.0000000 0.0000000
vn 1.0000000 0.0000000 0.0000000
vn 1.0000000 0.0000000 0.0000000
vn 0.0000000 -1.0000000 0.0000000
vn 0.0000000 -1.0000000 0.0000000
vn 0.0000000 1.0000000 0.0000000
vn 0.0000000 1.0000000 0.0000000
usemtl wood_dark
f 1//1 2//1 3//1
usemtl wood_dark
f 4//2 5//2 6//2
usemtl wood_dark
f 7//3 8//3 9//3
usemtl wood_dark
f 10//4 11//4 12//4
usemtl wood_dark
f 13//5 14//5 15//5
usemtl wood_dark
f 16//6 17//6 18//6
usemtl wood_dark
f 19//7 20//7 21//7
usemtl wood_dark
f 22//8 23//8 24//8
usemtl wood_dark
f 25//9 26//9 27//9
usemtl wood_dark
f 28//10 29//10 30//10
usemtl wood_dark
f 31//11 32//11 33//11
usemtl wood_dark
f 34//12 35//12 36//12
usemtl wood_dark
f 37//13 38//13 39//13
usemtl wood_dark
f 40//14 41//14 42//14
usemtl wood_dark
f 43//15 44//15 45//15
usemtl wood_dark
f 46//16 47//16 48//16
usemtl wood_dark
f 49//17 50//17 51//17
usemtl wood_dark
f 52//18 53//18 54//18
usemtl wood_dark
f 55//19 56//19 57//19
usemtl wood_dark
f 58//20 59//20 60//20
usemtl wood_dark
f 61//21 62//21 63//21
usemtl wood_dark
f 64//22 65//22 66//22
usemtl wood_dark
f 67//23 68//23 69//23
usemtl wood_dark
f 70//24 71//24 72//24
usemtl wood_light
f 73//25 74//25 75//25
usemtl wood_light
f 76//26 77//26 78//26
usemtl wood_light
f 79//27 80//27 81//27
usemtl wood_light
f 82//28 83//28 84//28
usemtl wood_light
f 85//29 86//29 87//29
usemtl wood_light
f 88//30 89//30 90//30
usemtl wood_light
f 91//31 92//31 93//31
usemtl wood_light
f 94//32 95//32 96//32
usemtl wood_light
f 97//33 98//33 99//33
usemtl wood_light
f 100//34 101//34 102//34
usemtl wood_light
f 103//35 104//35 105//35
usemtl wood_light
f 106//36 107//36 108//36
usemtl wood
f 109//37 110//37 111//37
usemtl wood
f 112//38 113//38 114//38
usemtl wood
f 115//39 116//39 117//39
usemtl wood
f 118//40 119//40 120//40
usemtl wood
f 121//41 122//41 123//41
usemtl wood
f 124//42 125//42 126//42
usemtl wood
f 127//43 128//43 129//43
usemtl wood
f 130//44 131//44 132//44
usemtl wood
f 133//45 134//45 135//45
usemtl wood
f 136//46 137//46 138//46
usemtl wood
f 139//47 140//47 141//47
usemtl wood
f 142//48 143//48 144//48
usemtl wood
f 145//49 146//49 147//49
usemtl wood
f 148//50 149//50 150//50
usemtl wood
f 151//51 152//51 153//51
usemtl wood
f 154//52 155//52 156//52
usemtl wood
f 157//53 158//53 159//53
usemtl wood
f 160//54 161//54 162//54
usemtl wood
f 163//55 164//55 165//55
usemtl wood
f 166//56 167//56 168//56
usemtl wood
f 169//57 170//57 171//57
usemtl wood
f 172//58 173//58 174//58
usemtl wood
f 175//59 176//59 177//59
usemtl wood
f 178//60 179//60 180//60
usemtl wood_light
f 181//61 182//61 183//61
usemtl wood_light
f 184//62 185//62 186//62
usemtl wood_light
f 187//63 188//63 189//63
usemtl wood_light
f 190//64 191//64 192//64
usemtl wood_light
f 193//65 194//65 195//65
usemtl wood_light
f 196//66 197//66 198//66
usemtl wood_light
f 199//67 200//67 201//67
usemtl wood_light
f 202//68 203//68 204//68
usemtl wood_light
f 205//69 206//69 207//69
usemtl wood_light
f 208//70 209//70 210//70
usemtl wood_light
f 211//71 212//71 213//71
usemtl wood_light
f 214//72 215//72 216//72
usemtl wood
f 217//73 218//73 219//73
usemtl wood
f 220//74 221//74 222//74
usemtl wood
f 223//75 224//75 225//75
usemtl wood
f 226//76 227//76 228//76
usemtl wood
f 229//77 230//77 231//77
usemtl wood
f 232//78 233//78 234//78
usemtl wood
f 235//79 236//79 237//79
usemtl wood
f 238//80 239//80 240//80
usemtl wood
f 241//81 242//81 243//81
usemtl wood
f 244//82 245//82 246//82
usemtl wood
f 247//83 248//83 249//83
usemtl wood
f 250//84 251//84 252//84
usemtl wood
f 253//85 254//85 255//85
usemtl wood
f 256//86 257//86 258//86
usemtl wood
f 259//87 260//87 261//87
usemtl wood
f 262//88 263//88 264//88
usemtl wood
f 265//89 266//89 267//89
usemtl wood
f 268//90 269//90 270//90
usemtl wood
f 271//91 272//91 273//91
usemtl wood
f 274//92 275//92 276//92
usemtl wood
f 277//93 278//93 279//93
usemtl wood
f 280//94 281//94 282//94
usemtl wood
f 283//95 284//95 285//95
usemtl wood
f 286//96 287//96 288//96
usemtl wood_light
f 289//97 290//97 291//97
usemtl wood_light
f 292//98 293//98 294//98
usemtl wood_light
f 295//99 296//99 297//99
usemtl wood_light
f 298//100 299//100 300//100
usemtl wood_light
f 301//101 302//101 303//101
usemtl wood_light
f 304//102 305//102 306//102
usemtl wood_light
f 307//103 308//103 309//103
usemtl wood_light
f 310//104 311//104 312//104
usemtl wood_light
f 313//105 314//105 315//105
usemtl wood_light
f 316//106 317//106 318//106
usemtl wood_light
f 319//107 320//107 321//107
usemtl wood_light
f 322//108 323//108 324//108
usemtl wood
f 325//109 326//109 327//109
usemtl wood
f 328//110 329//110 330//110
usemtl wood
f 331//111 332//111 333//111
usemtl wood
f 334//112 335//112 336//112
usemtl wood
f 337//113 338//113 339//113
usemtl wood
f 340//114 341//114 342//114
usemtl wood
f 343//115 344//115 345//115
usemtl wood
f 346//116 347//116 348//116
usemtl wood
f 349//117 350//117 351//117
usemtl wood
f 352//118 353//118 354//118
usemtl wood
f 355//119 356//119 357//119
usemtl wood
f 358//120 359//120 360//120
usemtl wood
f 361//121 362//121 363//121
usemtl wood
f 364//122 365//122 366//122
usemtl wood
f 367//123 368//123 369//123
usemtl wood
f 370//124 371//124 372//124
usemtl wood
f 373//125 374//125 375//125
usemtl wood
f 376//126 377//126 378//126
usemtl wood
f 379//127 380//127 381//127
usemtl wood
f 382//128 383//128 384//128
usemtl wood
f 385//129 386//129 387//129
usemtl wood
f 388//130 389//130 390//130
usemtl wood
f 391//131 392//131 393//131
usemtl wood
f 394//132 395//132 396//132
usemtl wood_light
f 397//133 398//133 399//133
usemtl wood_light
f 400//134 401//134 402//134
usemtl wood_light
f 403//135 404//135 405//135
usemtl wood_light
f 406//136 407//136 408//136
usemtl wood_light
f 409//137 410//137 411//137
usemtl wood_light
f 412//138 413//138 414//138
usemtl wood_light
f 415//139 416//139 417//139
usemtl wood_light
f 418//140 419//140 420//140
usemtl wood_light
f 421//141 422//141 423//141
usemtl wood_light
f 424//142 425//142 426//142
usemtl wood_light
f 427//143 428//143 429//143
usemtl wood_light
f 430//144 431//144 432//144
usemtl stone
f 433//145 434//145 435//145
usemtl stone
f 436//146 437//146 438//146
usemtl stone
f 439//147 440//147 441//147
usemtl stone
f 442//148 443//148 444//148
usemtl stone
f 445//149 446//149 447//149
usemtl stone
f 448//150 449//150 450//150
usemtl stone
f 451//151 452//151 453//151
usemtl stone
f 454//152 455//152 456//152
usemtl stone
f 457//153 458//153 459//153
usemtl stone
f 460//154 461//154 462//154
usemtl stone
f 463//155 464//155 465//155
usemtl stone
f 466//156 467//156 468//156
usemtl stone
f 469//157 470//157 471//157
usemtl stone
f 472//158 473//158 474//158
usemtl stone
f 475//159 476//159 477//159
usemtl stone
f 478//160 479//160 480//160
usemtl stone
f 481//161 482//161 483//161
usemtl stone
f 484//162 485//162 486//162
usemtl stone
f 487//163 488//163 489//163
usemtl stone
f 490//164 491//164 492//164
usemtl stone
f 493//165 494//165 495//165
usemtl stone
f 496//166 497//166 498//166
usemtl stone
f 499//167 500//167 501//167
usemtl stone
f 502//168 503//168 504//168
