# Original Quiet Camp environment study; NOT a downloaded Sketchfab donor
# Units: metres; Y up; no external geometry or textures
mtllib palette.mtl
o ua_poplar_lod
v -0.0600000 0.0000000 -0.0600000
v -0.0600000 0.0000000 0.0600000
v -0.0600000 3.3840000 0.0600000
v -0.0600000 0.0000000 -0.0600000
v -0.0600000 3.3840000 0.0600000
v -0.0600000 3.3840000 -0.0600000
v -0.0600000 0.0000000 0.0600000
v 0.0600000 0.0000000 0.0600000
v 0.0600000 3.3840000 0.0600000
v -0.0600000 0.0000000 0.0600000
v 0.0600000 3.3840000 0.0600000
v -0.0600000 3.3840000 0.0600000
v 0.0600000 0.0000000 0.0600000
v 0.0600000 0.0000000 -0.0600000
v 0.0600000 3.3840000 -0.0600000
v 0.0600000 0.0000000 0.0600000
v 0.0600000 3.3840000 -0.0600000
v 0.0600000 3.3840000 0.0600000
v 0.0600000 0.0000000 -0.0600000
v -0.0600000 0.0000000 -0.0600000
v -0.0600000 3.3840000 -0.0600000
v 0.0600000 0.0000000 -0.0600000
v -0.0600000 3.3840000 -0.0600000
v 0.0600000 3.3840000 -0.0600000
v 0.0600000 0.0000000 -0.0600000
v 0.0600000 0.0000000 0.0600000
v -0.0600000 0.0000000 0.0600000
v 0.0600000 0.0000000 -0.0600000
v -0.0600000 0.0000000 0.0600000
v -0.0600000 0.0000000 -0.0600000
v -0.0600000 3.3840000 -0.0600000
v -0.0600000 3.3840000 0.0600000
v 0.0600000 3.3840000 0.0600000
v -0.0600000 3.3840000 -0.0600000
v 0.0600000 3.3840000 0.0600000
v 0.0600000 3.3840000 -0.0600000
v 0.0650000 4.6060000 -0.0390000
v 0.2008610 3.1960000 0.6181867
v 0.6500000 3.1960000 0.0000000
v -0.0455000 1.7860000 0.0390000
v 0.6500000 3.1960000 0.0000000
v 0.2008610 3.1960000 0.6181867
v 0.0650000 4.6060000 -0.0390000
v -0.5258610 3.1960000 0.3820604
v 0.2008610 3.1960000 0.6181867
v -0.0455000 1.7860000 0.0390000
v 0.2008610 3.1960000 0.6181867
v -0.5258610 3.1960000 0.3820604
v 0.0650000 4.6060000 -0.0390000
v -0.5258610 3.1960000 -0.3820604
v -0.5258610 3.1960000 0.3820604
v -0.0455000 1.7860000 0.0390000
v -0.5258610 3.1960000 0.3820604
v -0.5258610 3.1960000 -0.3820604
v 0.0650000 4.6060000 -0.0390000
v 0.2008610 3.1960000 -0.6181867
v -0.5258610 3.1960000 -0.3820604
v -0.0455000 1.7860000 0.0390000
v -0.5258610 3.1960000 -0.3820604
v 0.2008610 3.1960000 -0.6181867
v 0.0650000 4.6060000 -0.0390000
v 0.6500000 3.1960000 0.0000000
v 0.2008610 3.1960000 -0.6181867
v -0.0455000 1.7860000 0.0390000
v 0.2008610 3.1960000 -0.6181867
v 0.6500000 3.1960000 0.0000000
vn -1.0000000 0.0000000 0.0000000
vn -1.0000000 0.0000000 0.0000000
vn 0.0000000 0.0000000 1.0000000
vn 0.0000000 0.0000000 1.0000000
vn 1.0000000 0.0000000 0.0000000
vn 1.0000000 -0.0000000 0.0000000
vn 0.0000000 0.0000000 -1.0000000
vn 0.0000000 0.0000000 -1.0000000
vn 0.0000000 -1.0000000 0.0000000
vn 0.0000000 -1.0000000 0.0000000
vn 0.0000000 1.0000000 0.0000000
vn 0.0000000 1.0000000 0.0000000
vn 0.7631409 0.3319583 0.5544543
vn 0.7555511 -0.3575015 0.5489400
vn -0.2855662 0.3821224 0.8788825
vn -0.2928645 -0.3190753 0.9013442
vn -0.9222945 0.3864879 0.0000000
vn -0.9465759 -0.3224810 0.0000000
vn -0.2906676 0.3394611 -0.8945829
vn -0.2879667 -0.3627669 -0.8862704
vn 0.7706619 0.3042556 -0.5599186
vn 0.7471428 -0.3835519 -0.5428310
usemtl wood_dark
f 1//1 2//1 3//1
usemtl wood_dark
f 4//2 5//2 6//2
usemtl wood_dark
f 7//3 8//3 9//3
usemtl wood_dark
f 10//4 11//4 12//4
usemtl wood_dark
f 13//5 14//5 15//5
usemtl wood_dark
f 16//6 17//6 18//6
usemtl wood_dark
f 19//7 20//7 21//7
usemtl wood_dark
f 22//8 23//8 24//8
usemtl wood_dark
f 25//9 26//9 27//9
usemtl wood_dark
f 28//10 29//10 30//10
usemtl wood_dark
f 31//11 32//11 33//11
usemtl wood_dark
f 34//12 35//12 36//12
usemtl leaf
f 37//13 38//13 39//13
usemtl leaf
f 40//14 41//14 42//14
usemtl leaf
f 43//15 44//15 45//15
usemtl leaf
f 46//16 47//16 48//16
usemtl leaf
f 49//17 50//17 51//17
usemtl leaf
f 52//18 53//18 54//18
usemtl leaf
f 55//19 56//19 57//19
usemtl leaf
f 58//20 59//20 60//20
usemtl leaf
f 61//21 62//21 63//21
usemtl leaf
f 64//22 65//22 66//22
