# Original Quiet Camp environment study; NOT a downloaded Sketchfab donor
# Units: metres; Y up; no external geometry or textures
mtllib palette.mtl
o ua_reed_clump_lod
v -0.2850000 0.0000000 -0.1150000
v -0.1800000 1.2000000 -0.0550000
v -0.1950000 0.0000000 -0.1150000
v -0.1950000 0.0000000 -0.1150000
v -0.1800000 1.2000000 -0.0550000
v -0.2850000 0.0000000 -0.1150000
v -0.0450000 0.0000000 -0.1150000
v 0.0600000 1.3600000 -0.0550000
v 0.0450000 0.0000000 -0.1150000
v 0.0450000 0.0000000 -0.1150000
v 0.0600000 1.3600000 -0.0550000
v -0.0450000 0.0000000 -0.1150000
v 0.1950000 0.0000000 -0.1150000
v 0.3000000 1.2000000 -0.0550000
v 0.2850000 0.0000000 -0.1150000
v 0.2850000 0.0000000 -0.1150000
v 0.3000000 1.2000000 -0.0550000
v 0.1950000 0.0000000 -0.1150000
vn 0.0000000 0.0499376 -0.9987523
vn 0.0000000 -0.0499376 0.9987523
vn 0.0000000 0.0440748 -0.9990282
vn 0.0000000 -0.0440748 0.9990282
vn 0.0000000 0.0499376 -0.9987523
vn 0.0000000 -0.0499376 0.9987523
usemtl stalk
f 1//1 2//1 3//1
usemtl wood_light
f 4//2 5//2 6//2
usemtl stalk
f 7//3 8//3 9//3
usemtl wood_light
f 10//4 11//4 12//4
usemtl stalk
f 13//5 14//5 15//5
usemtl wood_light
f 16//6 17//6 18//6
