# Original Quiet Camp environment study; NOT a downloaded Sketchfab donor
# Units: metres; Y up; no external geometry or textures
mtllib palette.mtl
o ua_valley_willow
v -0.0999570 0.0044000 -0.0999462
v -0.0999570 0.0014656 0.1000323
v -0.0199570 2.7274656 0.1400323
v -0.0999570 0.0044000 -0.0999462
v -0.0199570 2.7274656 0.1400323
v -0.0199570 2.7304000 -0.0599462
v -0.0999570 0.0014656 0.1000323
v 0.0999570 -0.0044000 0.0999462
v 0.1799570 2.7216000 0.1399462
v -0.0999570 0.0014656 0.1000323
v 0.1799570 2.7216000 0.1399462
v -0.0199570 2.7274656 0.1400323
v 0.0999570 -0.0044000 0.0999462
v 0.0999570 -0.0014656 -0.1000323
v 0.1799570 2.7245344 -0.0600323
v 0.0999570 -0.0044000 0.0999462
v 0.1799570 2.7245344 -0.0600323
v 0.1799570 2.7216000 0.1399462
v 0.0999570 -0.0014656 -0.1000323
v -0.0999570 0.0044000 -0.0999462
v -0.0199570 2.7304000 -0.0599462
v 0.0999570 -0.0014656 -0.1000323
v -0.0199570 2.7304000 -0.0599462
v 0.1799570 2.7245344 -0.0600323
v 0.0999570 -0.0014656 -0.1000323
v 0.0999570 -0.0044000 0.0999462
v -0.0999570 0.0014656 0.1000323
v 0.0999570 -0.0014656 -0.1000323
v -0.0999570 0.0014656 0.1000323
v -0.0999570 0.0044000 -0.0999462
v -0.0199570 2.7304000 -0.0599462
v -0.0199570 2.7274656 0.1400323
v 0.1799570 2.7216000 0.1399462
v -0.0199570 2.7304000 -0.0599462
v 0.1799570 2.7216000 0.1399462
v 0.1799570 2.7245344 -0.0600323
v -0.0611770 1.8040329 -0.0511691
v -0.0426518 1.8040329 0.0673923
v -0.6826518 2.9790329 0.1673923
v -0.0611770 1.8040329 -0.0511691
v -0.6826518 2.9790329 0.1673923
v -0.7011770 2.9790329 0.0488309
v -0.0426518 1.8040329 0.0673923
v 0.0611770 1.8619671 0.0511691
v -0.5788230 3.0369671 0.1511691
v -0.0426518 1.8040329 0.0673923
v -0.5788230 3.0369671 0.1511691
v -0.6826518 2.9790329 0.1673923
v 0.0611770 1.8619671 0.0511691
v 0.0426518 1.8619671 -0.0673923
v -0.5973482 3.0369671 0.0326077
v 0.0611770 1.8619671 0.0511691
v -0.5973482 3.0369671 0.0326077
v -0.5788230 3.0369671 0.1511691
v 0.0426518 1.8619671 -0.0673923
v -0.0611770 1.8040329 -0.0511691
v -0.7011770 2.9790329 0.0488309
v 0.0426518 1.8619671 -0.0673923
v -0.7011770 2.9790329 0.0488309
v -0.5973482 3.0369671 0.0326077
v 0.0674944 2.0825628 0.0399040
v 0.0277639 2.0825628 -0.0733280
v 0.5977639 3.0225628 -0.2733280
v 0.0674944 2.0825628 0.0399040
v 0.5977639 3.0225628 -0.2733280
v 0.6374944 3.0225628 -0.1600960
v 0.0277639 2.0825628 -0.0733280
v -0.0674944 2.1474372 -0.0399040
v 0.5025056 3.0874372 -0.2399040
v 0.0277639 2.0825628 -0.0733280
v 0.5025056 3.0874372 -0.2399040
v 0.5977639 3.0225628 -0.2733280
v -0.0674944 2.1474372 -0.0399040
v -0.0277639 2.1474372 0.0733280
v 0.5422361 3.0874372 -0.1266720
v -0.0674944 2.1474372 -0.0399040
v 0.5422361 3.0874372 -0.1266720
v 0.5025056 3.0874372 -0.2399040
v -0.0277639 2.1474372 0.0733280
v 0.0674944 2.0825628 0.0399040
v 0.6374944 3.0225628 -0.1600960
v -0.0277639 2.1474372 0.0733280
v 0.6374944 3.0225628 -0.1600960
v 0.5422361 3.0874372 -0.1266720
v 0.0000000 2.1676400 0.0000000
v 0.9856000 2.9046000 0.0000000
v 0.4928000 2.9046000 0.8535546
v 0.9856000 2.9046000 0.0000000
v 1.1776000 4.0100400 0.0000000
v 0.5888000 4.0100400 1.0198315
v 0.9856000 2.9046000 0.0000000
v 0.5888000 4.0100400 1.0198315
v 0.4928000 2.9046000 0.8535546
v 0.0500000 4.7996400 0.0000000
v 0.5888000 4.0100400 1.0198315
v 1.1776000 4.0100400 0.0000000
v 0.0000000 2.1676400 0.0000000
v 0.4928000 2.9046000 0.8535546
v -0.4928000 2.9046000 0.8535546
v 0.4928000 2.9046000 0.8535546
v 0.5888000 4.0100400 1.0198315
v -0.5888000 4.0100400 1.0198315
v 0.4928000 2.9046000 0.8535546
v -0.5888000 4.0100400 1.0198315
v -0.4928000 2.9046000 0.8535546
v 0.0500000 4.7996400 0.0000000
v -0.5888000 4.0100400 1.0198315
v 0.5888000 4.0100400 1.0198315
v 0.0000000 2.1676400 0.0000000
v -0.4928000 2.9046000 0.8535546
v -0.9856000 2.9046000 0.0000000
v -0.4928000 2.9046000 0.8535546
v -0.5888000 4.0100400 1.0198315
v -1.1776000 4.0100400 0.0000000
v -0.4928000 2.9046000 0.8535546
v -1.1776000 4.0100400 0.0000000
v -0.9856000 2.9046000 0.0000000
v 0.0500000 4.7996400 0.0000000
v -1.1776000 4.0100400 0.0000000
v -0.5888000 4.0100400 1.0198315
v 0.0000000 2.1676400 0.0000000
v -0.9856000 2.9046000 0.0000000
v -0.4928000 2.9046000 -0.8535546
v -0.9856000 2.9046000 0.0000000
v -1.1776000 4.0100400 0.0000000
v -0.5888000 4.0100400 -1.0198315
v -0.9856000 2.9046000 0.0000000
v -0.5888000 4.0100400 -1.0198315
v -0.4928000 2.9046000 -0.8535546
v 0.0500000 4.7996400 0.0000000
v -0.5888000 4.0100400 -1.0198315
v -1.1776000 4.0100400 0.0000000
v 0.0000000 2.1676400 0.0000000
v -0.4928000 2.9046000 -0.8535546
v 0.4928000 2.9046000 -0.8535546
v -0.4928000 2.9046000 -0.8535546
v -0.5888000 4.0100400 -1.0198315
v 0.5888000 4.0100400 -1.0198315
v -0.4928000 2.9046000 -0.8535546
v 0.5888000 4.0100400 -1.0198315
v 0.4928000 2.9046000 -0.8535546
v 0.0500000 4.7996400 0.0000000
v 0.5888000 4.0100400 -1.0198315
v -0.5888000 4.0100400 -1.0198315
v 0.0000000 2.1676400 0.0000000
v 0.4928000 2.9046000 -0.8535546
v 0.9856000 2.9046000 0.0000000
v 0.4928000 2.9046000 -0.8535546
v 0.5888000 4.0100400 -1.0198315
v 1.1776000 4.0100400 0.0000000
v 0.4928000 2.9046000 -0.8535546
v 1.1776000 4.0100400 0.0000000
v 0.9856000 2.9046000 0.0000000
v 0.0500000 4.7996400 0.0000000
v 1.1776000 4.0100400 0.0000000
v 0.5888000 4.0100400 -1.0198315
vn -0.9995697 0.0293281 0.0004303
vn -0.9995697 0.0293281 0.0004303
vn 0.0000000 -0.0146719 0.9998924
vn 0.0000000 -0.0146719 0.9998924
vn 0.9995697 -0.0293281 -0.0004303
vn 0.9995697 -0.0293281 -0.0004303
vn 0.0000000 0.0146719 -0.9998924
vn 0.0000000 0.0146719 -0.9998924
vn -0.0293312 -0.9994622 -0.0146656
vn -0.0293312 -0.9994622 -0.0146656
vn 0.0293312 0.9994622 0.0146656
vn 0.0293312 0.9994622 0.0146656
vn -0.8652402 -0.4827856 0.1351938
vn -0.8652402 -0.4827856 0.1351938
vn 0.1543769 0.0000000 0.9880120
vn 0.1543769 0.0000000 0.9880120
vn 0.8652402 0.4827856 -0.1351938
vn 0.8652402 0.4827856 -0.1351938
vn -0.1543769 0.0000000 -0.9880120
vn -0.1543769 0.0000000 -0.9880120
vn 0.7938190 -0.5406207 -0.2785330
vn 0.7938190 -0.5406207 -0.2785330
vn -0.3310877 0.0000000 -0.9436000
vn -0.3310877 0.0000000 -0.9436000
vn -0.7938190 0.5406207 0.2785330
vn -0.7938190 0.5406207 0.2785330
vn 0.3310877 0.0000000 0.9436000
vn 0.3310877 0.0000000 0.9436000
vn 0.5659631 -0.7569111 0.3267589
vn 0.8563916 -0.1487436 0.4944379
vn 0.8563916 -0.1487436 0.4944379
vn 0.5445164 0.7776048 0.3143767
vn 0.0000000 -0.7569111 0.6535179
vn 0.0000000 -0.1487436 0.9888758
vn 0.0000000 -0.1487436 0.9888758
vn 0.0000000 0.7907038 0.6121989
vn -0.5659631 -0.7569111 0.3267589
vn -0.8563916 -0.1487436 0.4944379
vn -0.8563916 -0.1487436 0.4944379
vn -0.5163661 0.8028002 0.2981241
vn -0.5659631 -0.7569111 -0.3267589
vn -0.8563916 -0.1487436 -0.4944379
vn -0.8563916 -0.1487436 -0.4944379
vn -0.5163661 0.8028002 -0.2981241
vn 0.0000000 -0.7569111 -0.6535179
vn 0.0000000 -0.1487436 -0.9888758
vn 0.0000000 -0.1487436 -0.9888758
vn 0.0000000 0.7907038 -0.6121989
vn 0.5659631 -0.7569111 -0.3267589
vn 0.8563916 -0.1487436 -0.4944379
vn 0.8563916 -0.1487436 -0.4944379
vn 0.5445164 0.7776048 -0.3143767
usemtl wood_dark
f 1//1 2//1 3//1
usemtl wood_dark
f 4//2 5//2 6//2
usemtl wood_dark
f 7//3 8//3 9//3
usemtl wood_dark
f 10//4 11//4 12//4
usemtl wood_dark
f 13//5 14//5 15//5
usemtl wood_dark
f 16//6 17//6 18//6
usemtl wood_dark
f 19//7 20//7 21//7
usemtl wood_dark
f 22//8 23//8 24//8
usemtl wood_dark
f 25//9 26//9 27//9
usemtl wood_dark
f 28//10 29//10 30//10
usemtl wood_dark
f 31//11 32//11 33//11
usemtl wood_dark
f 34//12 35//12 36//12
usemtl wood_dark
f 37//13 38//13 39//13
usemtl wood_dark
f 40//14 41//14 42//14
usemtl wood_dark
f 43//15 44//15 45//15
usemtl wood_dark
f 46//16 47//16 48//16
usemtl wood_dark
f 49//17 50//17 51//17
usemtl wood_dark
f 52//18 53//18 54//18
usemtl wood_dark
f 55//19 56//19 57//19
usemtl wood_dark
f 58//20 59//20 60//20
usemtl wood_dark
f 61//21 62//21 63//21
usemtl wood_dark
f 64//22 65//22 66//22
usemtl wood_dark
f 67//23 68//23 69//23
usemtl wood_dark
f 70//24 71//24 72//24
usemtl wood_dark
f 73//25 74//25 75//25
usemtl wood_dark
f 76//26 77//26 78//26
usemtl wood_dark
f 79//27 80//27 81//27
usemtl wood_dark
f 82//28 83//28 84//28
usemtl leaf_dark
f 85//29 86//29 87//29
usemtl leaf
f 88//30 89//30 90//30
usemtl leaf
f 91//31 92//31 93//31
usemtl leaf_light
f 94//32 95//32 96//32
usemtl leaf_dark
f 97//33 98//33 99//33
usemtl leaf
f 100//34 101//34 102//34
usemtl leaf
f 103//35 104//35 105//35
usemtl leaf_light
f 106//36 107//36 108//36
usemtl leaf_dark
f 109//37 110//37 111//37
usemtl leaf
f 112//38 113//38 114//38
usemtl leaf
f 115//39 116//39 117//39
usemtl leaf_light
f 118//40 119//40 120//40
usemtl leaf_dark
f 121//41 122//41 123//41
usemtl leaf
f 124//42 125//42 126//42
usemtl leaf
f 127//43 128//43 129//43
usemtl leaf_light
f 130//44 131//44 132//44
usemtl leaf_dark
f 133//45 134//45 135//45
usemtl leaf
f 136//46 137//46 138//46
usemtl leaf
f 139//47 140//47 141//47
usemtl leaf_light
f 142//48 143//48 144//48
usemtl leaf_dark
f 145//49 146//49 147//49
usemtl leaf
f 148//50 149//50 150//50
usemtl leaf
f 151//51 152//51 153//51
usemtl leaf_light
f 154//52 155//52 156//52
