# Original Quiet Camp environment study; NOT a downloaded Sketchfab donor
# Units: metres; Y up; no external geometry or textures
mtllib palette.mtl
o ua_valley_house
v -2.7600000 0.0000000 -2.9600000
v -2.7600000 0.2800000 -2.9600000
v 2.7600000 0.2800000 -2.9600000
v -2.7600000 0.0000000 -2.9600000
v 2.7600000 0.2800000 -2.9600000
v 2.7600000 0.0000000 -2.9600000
v -2.7600000 0.0000000 2.9600000
v 2.7600000 0.0000000 2.9600000
v 2.7600000 0.2800000 2.9600000
v -2.7600000 0.0000000 2.9600000
v 2.7600000 0.2800000 2.9600000
v -2.7600000 0.2800000 2.9600000
v -2.7600000 0.0000000 -2.9600000
v -2.7600000 0.0000000 2.9600000
v -2.7600000 0.2800000 2.9600000
v -2.7600000 0.0000000 -2.9600000
v -2.7600000 0.2800000 2.9600000
v -2.7600000 0.2800000 -2.9600000
v 2.7600000 0.0000000 -2.9600000
v 2.7600000 0.2800000 -2.9600000
v 2.7600000 0.2800000 2.9600000
v 2.7600000 0.0000000 -2.9600000
v 2.7600000 0.2800000 2.9600000
v 2.7600000 0.0000000 2.9600000
v -2.7600000 0.0000000 -2.9600000
v 2.7600000 0.0000000 -2.9600000
v 2.7600000 0.0000000 2.9600000
v -2.7600000 0.0000000 -2.9600000
v 2.7600000 0.0000000 2.9600000
v -2.7600000 0.0000000 2.9600000
v -2.7600000 0.2800000 -2.9600000
v -2.7600000 0.2800000 2.9600000
v 2.7600000 0.2800000 2.9600000
v -2.7600000 0.2800000 -2.9600000
v 2.7600000 0.2800000 2.9600000
v 2.7600000 0.2800000 -2.9600000
v -2.7800000 0.0000000 -2.9000000
v -2.7800000 2.5500000 -2.9000000
v -2.6200000 2.5500000 -2.9000000
v -2.7800000 0.0000000 -2.9000000
v -2.6200000 2.5500000 -2.9000000
v -2.6200000 0.0000000 -2.9000000
v -2.7800000 0.0000000 2.9000000
v -2.6200000 0.0000000 2.9000000
v -2.6200000 2.5500000 2.9000000
v -2.7800000 0.0000000 2.9000000
v -2.6200000 2.5500000 2.9000000
v -2.7800000 2.5500000 2.9000000
v -2.7800000 0.0000000 -2.9000000
v -2.7800000 0.0000000 2.9000000
v -2.7800000 2.5500000 2.9000000
v -2.7800000 0.0000000 -2.9000000
v -2.7800000 2.5500000 2.9000000
v -2.7800000 2.5500000 -2.9000000
v -2.6200000 0.0000000 -2.9000000
v -2.6200000 2.5500000 -2.9000000
v -2.6200000 2.5500000 2.9000000
v -2.6200000 0.0000000 -2.9000000
v -2.6200000 2.5500000 2.9000000
v -2.6200000 0.0000000 2.9000000
v -2.7800000 0.0000000 -2.9000000
v -2.6200000 0.0000000 -2.9000000
v -2.6200000 0.0000000 2.9000000
v -2.7800000 0.0000000 -2.9000000
v -2.6200000 0.0000000 2.9000000
v -2.7800000 0.0000000 2.9000000
v -2.7800000 2.5500000 -2.9000000
v -2.7800000 2.5500000 2.9000000
v -2.6200000 2.5500000 2.9000000
v -2.7800000 2.5500000 -2.9000000
v -2.6200000 2.5500000 2.9000000
v -2.6200000 2.5500000 -2.9000000
v 2.6200000 0.0000000 -2.9000000
v 2.6200000 2.5500000 -2.9000000
v 2.7800000 2.5500000 -2.9000000
v 2.6200000 0.0000000 -2.9000000
v 2.7800000 2.5500000 -2.9000000
v 2.7800000 0.0000000 -2.9000000
v 2.6200000 0.0000000 2.9000000
v 2.7800000 0.0000000 2.9000000
v 2.7800000 2.5500000 2.9000000
v 2.6200000 0.0000000 2.9000000
v 2.7800000 2.5500000 2.9000000
v 2.6200000 2.5500000 2.9000000
v 2.6200000 0.0000000 -2.9000000
v 2.6200000 0.0000000 2.9000000
v 2.6200000 2.5500000 2.9000000
v 2.6200000 0.0000000 -2.9000000
v 2.6200000 2.5500000 2.9000000
v 2.6200000 2.5500000 -2.9000000
v 2.7800000 0.0000000 -2.9000000
v 2.7800000 2.5500000 -2.9000000
v 2.7800000 2.5500000 2.9000000
v 2.7800000 0.0000000 -2.9000000
v 2.7800000 2.5500000 2.9000000
v 2.7800000 0.0000000 2.9000000
v 2.6200000 0.0000000 -2.9000000
v 2.7800000 0.0000000 -2.9000000
v 2.7800000 0.0000000 2.9000000
v 2.6200000 0.0000000 -2.9000000
v 2.7800000 0.0000000 2.9000000
v 2.6200000 0.0000000 2.9000000
v 2.6200000 2.5500000 -2.9000000
v 2.6200000 2.5500000 2.9000000
v 2.7800000 2.5500000 2.9000000
v 2.6200000 2.5500000 -2.9000000
v 2.7800000 2.5500000 2.9000000
v 2.7800000 2.5500000 -2.9000000
v -2.7000000 0.0000000 2.8200000
v -2.7000000 2.5500000 2.8200000
v 2.7000000 2.5500000 2.8200000
v -2.7000000 0.0000000 2.8200000
v 2.7000000 2.5500000 2.8200000
v 2.7000000 0.0000000 2.8200000
v -2.7000000 0.0000000 2.9800000
v 2.7000000 0.0000000 2.9800000
v 2.7000000 2.5500000 2.9800000
v -2.7000000 0.0000000 2.9800000
v 2.7000000 2.5500000 2.9800000
v -2.7000000 2.5500000 2.9800000
v -2.7000000 0.0000000 2.8200000
v -2.7000000 0.0000000 2.9800000
v -2.7000000 2.5500000 2.9800000
v -2.7000000 0.0000000 2.8200000
v -2.7000000 2.5500000 2.9800000
v -2.7000000 2.5500000 2.8200000
v 2.7000000 0.0000000 2.8200000
v 2.7000000 2.5500000 2.8200000
v 2.7000000 2.5500000 2.9800000
v 2.7000000 0.0000000 2.8200000
v 2.7000000 2.5500000 2.9800000
v 2.7000000 0.0000000 2.9800000
v -2.7000000 0.0000000 2.8200000
v 2.7000000 0.0000000 2.8200000
v 2.7000000 0.0000000 2.9800000
v -2.7000000 0.0000000 2.8200000
v 2.7000000 0.0000000 2.9800000
v -2.7000000 0.0000000 2.9800000
v -2.7000000 2.5500000 2.8200000
v -2.7000000 2.5500000 2.9800000
v 2.7000000 2.5500000 2.9800000
v -2.7000000 2.5500000 2.8200000
v 2.7000000 2.5500000 2.9800000
v 2.7000000 2.5500000 2.8200000
v -2.7000000 0.0000000 -2.9800000
v -2.7000000 2.5500000 -2.9800000
v -1.4400000 2.5500000 -2.9800000
v -2.7000000 0.0000000 -2.9800000
v -1.4400000 2.5500000 -2.9800000
v -1.4400000 0.0000000 -2.9800000
v -2.7000000 0.0000000 -2.8200000
v -1.4400000 0.0000000 -2.8200000
v -1.4400000 2.5500000 -2.8200000
v -2.7000000 0.0000000 -2.8200000
v -1.4400000 2.5500000 -2.8200000
v -2.7000000 2.5500000 -2.8200000
v -2.7000000 0.0000000 -2.9800000
v -2.7000000 0.0000000 -2.8200000
v -2.7000000 2.5500000 -2.8200000
v -2.7000000 0.0000000 -2.9800000
v -2.7000000 2.5500000 -2.8200000
v -2.7000000 2.5500000 -2.9800000
v -1.4400000 0.0000000 -2.9800000
v -1.4400000 2.5500000 -2.9800000
v -1.4400000 2.5500000 -2.8200000
v -1.4400000 0.0000000 -2.9800000
v -1.4400000 2.5500000 -2.8200000
v -1.4400000 0.0000000 -2.8200000
v -2.7000000 0.0000000 -2.9800000
v -1.4400000 0.0000000 -2.9800000
v -1.4400000 0.0000000 -2.8200000
v -2.7000000 0.0000000 -2.9800000
v -1.4400000 0.0000000 -2.8200000
v -2.7000000 0.0000000 -2.8200000
v -2.7000000 2.5500000 -2.9800000
v -2.7000000 2.5500000 -2.8200000
v -1.4400000 2.5500000 -2.8200000
v -2.7000000 2.5500000 -2.9800000
v -1.4400000 2.5500000 -2.8200000
v -1.4400000 2.5500000 -2.9800000
v -1.2400000 0.0000000 -2.9800000
v -1.2400000 2.5500000 -2.9800000
v -0.0800000 2.5500000 -2.9800000
v -1.2400000 0.0000000 -2.9800000
v -0.0800000 2.5500000 -2.9800000
v -0.0800000 0.0000000 -2.9800000
v -1.2400000 0.0000000 -2.8200000
v -0.0800000 0.0000000 -2.8200000
v -0.0800000 2.5500000 -2.8200000
v -1.2400000 0.0000000 -2.8200000
v -0.0800000 2.5500000 -2.8200000
v -1.2400000 2.5500000 -2.8200000
v -1.2400000 0.0000000 -2.9800000
v -1.2400000 0.0000000 -2.8200000
v -1.2400000 2.5500000 -2.8200000
v -1.2400000 0.0000000 -2.9800000
v -1.2400000 2.5500000 -2.8200000
v -1.2400000 2.5500000 -2.9800000
v -0.0800000 0.0000000 -2.9800000
v -0.0800000 2.5500000 -2.9800000
v -0.0800000 2.5500000 -2.8200000
v -0.0800000 0.0000000 -2.9800000
v -0.0800000 2.5500000 -2.8200000
v -0.0800000 0.0000000 -2.8200000
v -1.2400000 0.0000000 -2.9800000
v -0.0800000 0.0000000 -2.9800000
v -0.0800000 0.0000000 -2.8200000
v -1.2400000 0.0000000 -2.9800000
v -0.0800000 0.0000000 -2.8200000
v -1.2400000 0.0000000 -2.8200000
v -1.2400000 2.5500000 -2.9800000
v -1.2400000 2.5500000 -2.8200000
v -0.0800000 2.5500000 -2.8200000
v -1.2400000 2.5500000 -2.9800000
v -0.0800000 2.5500000 -2.8200000
v -0.0800000 2.5500000 -2.9800000
v 1.1600000 0.0000000 -2.9800000
v 1.1600000 2.5500000 -2.9800000
v 2.7000000 2.5500000 -2.9800000
v 1.1600000 0.0000000 -2.9800000
v 2.7000000 2.5500000 -2.9800000
v 2.7000000 0.0000000 -2.9800000
v 1.1600000 0.0000000 -2.8200000
v 2.7000000 0.0000000 -2.8200000
v 2.7000000 2.5500000 -2.8200000
v 1.1600000 0.0000000 -2.8200000
v 2.7000000 2.5500000 -2.8200000
v 1.1600000 2.5500000 -2.8200000
v 1.1600000 0.0000000 -2.9800000
v 1.1600000 0.0000000 -2.8200000
v 1.1600000 2.5500000 -2.8200000
v 1.1600000 0.0000000 -2.9800000
v 1.1600000 2.5500000 -2.8200000
v 1.1600000 2.5500000 -2.9800000
v 2.7000000 0.0000000 -2.9800000
v 2.7000000 2.5500000 -2.9800000
v 2.7000000 2.5500000 -2.8200000
v 2.7000000 0.0000000 -2.9800000
v 2.7000000 2.5500000 -2.8200000
v 2.7000000 0.0000000 -2.8200000
v 1.1600000 0.0000000 -2.9800000
v 2.7000000 0.0000000 -2.9800000
v 2.7000000 0.0000000 -2.8200000
v 1.1600000 0.0000000 -2.9800000
v 2.7000000 0.0000000 -2.8200000
v 1.1600000 0.0000000 -2.8200000
v 1.1600000 2.5500000 -2.9800000
v 1.1600000 2.5500000 -2.8200000
v 2.7000000 2.5500000 -2.8200000
v 1.1600000 2.5500000 -2.9800000
v 2.7000000 2.5500000 -2.8200000
v 2.7000000 2.5500000 -2.9800000
v 0.1400000 2.0900000 -2.9800000
v 0.1400000 2.5500000 -2.9800000
v 1.1000000 2.5500000 -2.9800000
v 0.1400000 2.0900000 -2.9800000
v 1.1000000 2.5500000 -2.9800000
v 1.1000000 2.0900000 -2.9800000
v 0.1400000 2.0900000 -2.8200000
v 1.1000000 2.0900000 -2.8200000
v 1.1000000 2.5500000 -2.8200000
v 0.1400000 2.0900000 -2.8200000
v 1.1000000 2.5500000 -2.8200000
v 0.1400000 2.5500000 -2.8200000
v 0.1400000 2.0900000 -2.9800000
v 0.1400000 2.0900000 -2.8200000
v 0.1400000 2.5500000 -2.8200000
v 0.1400000 2.0900000 -2.9800000
v 0.1400000 2.5500000 -2.8200000
v 0.1400000 2.5500000 -2.9800000
v 1.1000000 2.0900000 -2.9800000
v 1.1000000 2.5500000 -2.9800000
v 1.1000000 2.5500000 -2.8200000
v 1.1000000 2.0900000 -2.9800000
v 1.1000000 2.5500000 -2.8200000
v 1.1000000 2.0900000 -2.8200000
v 0.1400000 2.0900000 -2.9800000
v 1.1000000 2.0900000 -2.9800000
v 1.1000000 2.0900000 -2.8200000
v 0.1400000 2.0900000 -2.9800000
v 1.1000000 2.0900000 -2.8200000
v 0.1400000 2.0900000 -2.8200000
v 0.1400000 2.5500000 -2.9800000
v 0.1400000 2.5500000 -2.8200000
v 1.1000000 2.5500000 -2.8200000
v 0.1400000 2.5500000 -2.9800000
v 1.1000000 2.5500000 -2.8200000
v 1.1000000 2.5500000 -2.9800000
v 0.0950000 0.0000000 -3.4750000
v 0.0950000 0.1000000 -3.4750000
v 1.1450000 0.1000000 -3.4750000
v 0.0950000 0.0000000 -3.4750000
v 1.1450000 0.1000000 -3.4750000
v 1.1450000 0.0000000 -3.4750000
v 0.0950000 0.0000000 -2.8250000
v 1.1450000 0.0000000 -2.8250000
v 1.1450000 0.1000000 -2.8250000
v 0.0950000 0.0000000 -2.8250000
v 1.1450000 0.1000000 -2.8250000
v 0.0950000 0.1000000 -2.8250000
v 0.0950000 0.0000000 -3.4750000
v 0.0950000 0.0000000 -2.8250000
v 0.0950000 0.1000000 -2.8250000
v 0.0950000 0.0000000 -3.4750000
v 0.0950000 0.1000000 -2.8250000
v 0.0950000 0.1000000 -3.4750000
v 1.1450000 0.0000000 -3.4750000
v 1.1450000 0.1000000 -3.4750000
v 1.1450000 0.1000000 -2.8250000
v 1.1450000 0.0000000 -3.4750000
v 1.1450000 0.1000000 -2.8250000
v 1.1450000 0.0000000 -2.8250000
v 0.0950000 0.0000000 -3.4750000
v 1.1450000 0.0000000 -3.4750000
v 1.1450000 0.0000000 -2.8250000
v 0.0950000 0.0000000 -3.4750000
v 1.1450000 0.0000000 -2.8250000
v 0.0950000 0.0000000 -2.8250000
v 0.0950000 0.1000000 -3.4750000
v 0.0950000 0.1000000 -2.8250000
v 1.1450000 0.1000000 -2.8250000
v 0.0950000 0.1000000 -3.4750000
v 1.1450000 0.1000000 -2.8250000
v 1.1450000 0.1000000 -3.4750000
v -2.7000000 0.2400000 -2.9975000
v -2.7000000 0.4000000 -2.9975000
v 2.7000000 0.4000000 -2.9975000
v -2.7000000 0.2400000 -2.9975000
v 2.7000000 0.4000000 -2.9975000
v 2.7000000 0.2400000 -2.9975000
v -2.7000000 0.2400000 -2.9725000
v 2.7000000 0.2400000 -2.9725000
v 2.7000000 0.4000000 -2.9725000
v -2.7000000 0.2400000 -2.9725000
v 2.7000000 0.4000000 -2.9725000
v -2.7000000 0.4000000 -2.9725000
v -2.7000000 0.2400000 -2.9975000
v -2.7000000 0.2400000 -2.9725000
v -2.7000000 0.4000000 -2.9725000
v -2.7000000 0.2400000 -2.9975000
v -2.7000000 0.4000000 -2.9725000
v -2.7000000 0.4000000 -2.9975000
v 2.7000000 0.2400000 -2.9975000
v 2.7000000 0.4000000 -2.9975000
v 2.7000000 0.4000000 -2.9725000
v 2.7000000 0.2400000 -2.9975000
v 2.7000000 0.4000000 -2.9725000
v 2.7000000 0.2400000 -2.9725000
v -2.7000000 0.2400000 -2.9975000
v 2.7000000 0.2400000 -2.9975000
v 2.7000000 0.2400000 -2.9725000
v -2.7000000 0.2400000 -2.9975000
v 2.7000000 0.2400000 -2.9725000
v -2.7000000 0.2400000 -2.9725000
v -2.7000000 0.4000000 -2.9975000
v -2.7000000 0.4000000 -2.9725000
v 2.7000000 0.4000000 -2.9725000
v -2.7000000 0.4000000 -2.9975000
v 2.7000000 0.4000000 -2.9725000
v 2.7000000 0.4000000 -2.9975000
v -2.0950000 1.0700000 -3.0200000
v -2.0950000 1.9700000 -3.0200000
v -1.3050000 1.9700000 -3.0200000
v -2.0950000 1.0700000 -3.0200000
v -1.3050000 1.9700000 -3.0200000
v -1.3050000 1.0700000 -3.0200000
v -2.0950000 1.0700000 -2.9800000
v -1.3050000 1.0700000 -2.9800000
v -1.3050000 1.9700000 -2.9800000
v -2.0950000 1.0700000 -2.9800000
v -1.3050000 1.9700000 -2.9800000
v -2.0950000 1.9700000 -2.9800000
v -2.0950000 1.0700000 -3.0200000
v -2.0950000 1.0700000 -2.9800000
v -2.0950000 1.9700000 -2.9800000
v -2.0950000 1.0700000 -3.0200000
v -2.0950000 1.9700000 -2.9800000
v -2.0950000 1.9700000 -3.0200000
v -1.3050000 1.0700000 -3.0200000
v -1.3050000 1.9700000 -3.0200000
v -1.3050000 1.9700000 -2.9800000
v -1.3050000 1.0700000 -3.0200000
v -1.3050000 1.9700000 -2.9800000
v -1.3050000 1.0700000 -2.9800000
v -2.0950000 1.0700000 -3.0200000
v -1.3050000 1.0700000 -3.0200000
v -1.3050000 1.0700000 -2.9800000
v -2.0950000 1.0700000 -3.0200000
v -1.3050000 1.0700000 -2.9800000
v -2.0950000 1.0700000 -2.9800000
v -2.0950000 1.9700000 -3.0200000
v -2.0950000 1.9700000 -2.9800000
v -1.3050000 1.9700000 -2.9800000
v -2.0950000 1.9700000 -3.0200000
v -1.3050000 1.9700000 -2.9800000
v -1.3050000 1.9700000 -3.0200000
v -2.0250000 1.1400000 -3.0400000
v -2.0250000 1.9000000 -3.0400000
v -1.3750000 1.9000000 -3.0400000
v -2.0250000 1.1400000 -3.0400000
v -1.3750000 1.9000000 -3.0400000
v -1.3750000 1.1400000 -3.0400000
v -2.0250000 1.1400000 -3.0200000
v -1.3750000 1.1400000 -3.0200000
v -1.3750000 1.9000000 -3.0200000
v -2.0250000 1.1400000 -3.0200000
v -1.3750000 1.9000000 -3.0200000
v -2.0250000 1.9000000 -3.0200000
v -2.0250000 1.1400000 -3.0400000
v -2.0250000 1.1400000 -3.0200000
v -2.0250000 1.9000000 -3.0200000
v -2.0250000 1.1400000 -3.0400000
v -2.0250000 1.9000000 -3.0200000
v -2.0250000 1.9000000 -3.0400000
v -1.3750000 1.1400000 -3.0400000
v -1.3750000 1.9000000 -3.0400000
v -1.3750000 1.9000000 -3.0200000
v -1.3750000 1.1400000 -3.0400000
v -1.3750000 1.9000000 -3.0200000
v -1.3750000 1.1400000 -3.0200000
v -2.0250000 1.1400000 -3.0400000
v -1.3750000 1.1400000 -3.0400000
v -1.3750000 1.1400000 -3.0200000
v -2.0250000 1.1400000 -3.0400000
v -1.3750000 1.1400000 -3.0200000
v -2.0250000 1.1400000 -3.0200000
v -2.0250000 1.9000000 -3.0400000
v -2.0250000 1.9000000 -3.0200000
v -1.3750000 1.9000000 -3.0200000
v -2.0250000 1.9000000 -3.0400000
v -1.3750000 1.9000000 -3.0200000
v -1.3750000 1.9000000 -3.0400000
v -1.7175000 1.1100000 -3.0750000
v -1.7175000 1.8900000 -3.0750000
v -1.6825000 1.8900000 -3.0750000
v -1.7175000 1.1100000 -3.0750000
v -1.6825000 1.8900000 -3.0750000
v -1.6825000 1.1100000 -3.0750000
v -1.7175000 1.1100000 -3.0450000
v -1.6825000 1.1100000 -3.0450000
v -1.6825000 1.8900000 -3.0450000
v -1.7175000 1.1100000 -3.0450000
v -1.6825000 1.8900000 -3.0450000
v -1.7175000 1.8900000 -3.0450000
v -1.7175000 1.1100000 -3.0750000
v -1.7175000 1.1100000 -3.0450000
v -1.7175000 1.8900000 -3.0450000
v -1.7175000 1.1100000 -3.0750000
v -1.7175000 1.8900000 -3.0450000
v -1.7175000 1.8900000 -3.0750000
v -1.6825000 1.1100000 -3.0750000
v -1.6825000 1.8900000 -3.0750000
v -1.6825000 1.8900000 -3.0450000
v -1.6825000 1.1100000 -3.0750000
v -1.6825000 1.8900000 -3.0450000
v -1.6825000 1.1100000 -3.0450000
v -1.7175000 1.1100000 -3.0750000
v -1.6825000 1.1100000 -3.0750000
v -1.6825000 1.1100000 -3.0450000
v -1.7175000 1.1100000 -3.0750000
v -1.6825000 1.1100000 -3.0450000
v -1.7175000 1.1100000 -3.0450000
v -1.7175000 1.8900000 -3.0750000
v -1.7175000 1.8900000 -3.0450000
v -1.6825000 1.8900000 -3.0450000
v -1.7175000 1.8900000 -3.0750000
v -1.6825000 1.8900000 -3.0450000
v -1.6825000 1.8900000 -3.0750000
v -0.7150000 1.0700000 -3.0200000
v -0.7150000 1.9700000 -3.0200000
v 0.0750000 1.9700000 -3.0200000
v -0.7150000 1.0700000 -3.0200000
v 0.0750000 1.9700000 -3.0200000
v 0.0750000 1.0700000 -3.0200000
v -0.7150000 1.0700000 -2.9800000
v 0.0750000 1.0700000 -2.9800000
v 0.0750000 1.9700000 -2.9800000
v -0.7150000 1.0700000 -2.9800000
v 0.0750000 1.9700000 -2.9800000
v -0.7150000 1.9700000 -2.9800000
v -0.7150000 1.0700000 -3.0200000
v -0.7150000 1.0700000 -2.9800000
v -0.7150000 1.9700000 -2.9800000
v -0.7150000 1.0700000 -3.0200000
v -0.7150000 1.9700000 -2.9800000
v -0.7150000 1.9700000 -3.0200000
v 0.0750000 1.0700000 -3.0200000
v 0.0750000 1.9700000 -3.0200000
v 0.0750000 1.9700000 -2.9800000
v 0.0750000 1.0700000 -3.0200000
v 0.0750000 1.9700000 -2.9800000
v 0.0750000 1.0700000 -2.9800000
v -0.7150000 1.0700000 -3.0200000
v 0.0750000 1.0700000 -3.0200000
v 0.0750000 1.0700000 -2.9800000
v -0.7150000 1.0700000 -3.0200000
v 0.0750000 1.0700000 -2.9800000
v -0.7150000 1.0700000 -2.9800000
v -0.7150000 1.9700000 -3.0200000
v -0.7150000 1.9700000 -2.9800000
v 0.0750000 1.9700000 -2.9800000
v -0.7150000 1.9700000 -3.0200000
v 0.0750000 1.9700000 -2.9800000
v 0.0750000 1.9700000 -3.0200000
v -0.6450000 1.1400000 -3.0400000
v -0.6450000 1.9000000 -3.0400000
v 0.0050000 1.9000000 -3.0400000
v -0.6450000 1.1400000 -3.0400000
v 0.0050000 1.9000000 -3.0400000
v 0.0050000 1.1400000 -3.0400000
v -0.6450000 1.1400000 -3.0200000
v 0.0050000 1.1400000 -3.0200000
v 0.0050000 1.9000000 -3.0200000
v -0.6450000 1.1400000 -3.0200000
v 0.0050000 1.9000000 -3.0200000
v -0.6450000 1.9000000 -3.0200000
v -0.6450000 1.1400000 -3.0400000
v -0.6450000 1.1400000 -3.0200000
v -0.6450000 1.9000000 -3.0200000
v -0.6450000 1.1400000 -3.0400000
v -0.6450000 1.9000000 -3.0200000
v -0.6450000 1.9000000 -3.0400000
v 0.0050000 1.1400000 -3.0400000
v 0.0050000 1.9000000 -3.0400000
v 0.0050000 1.9000000 -3.0200000
v 0.0050000 1.1400000 -3.0400000
v 0.0050000 1.9000000 -3.0200000
v 0.0050000 1.1400000 -3.0200000
v -0.6450000 1.1400000 -3.0400000
v 0.0050000 1.1400000 -3.0400000
v 0.0050000 1.1400000 -3.0200000
v -0.6450000 1.1400000 -3.0400000
v 0.0050000 1.1400000 -3.0200000
v -0.6450000 1.1400000 -3.0200000
v -0.6450000 1.9000000 -3.0400000
v -0.6450000 1.9000000 -3.0200000
v 0.0050000 1.9000000 -3.0200000
v -0.6450000 1.9000000 -3.0400000
v 0.0050000 1.9000000 -3.0200000
v 0.0050000 1.9000000 -3.0400000
v -0.3375000 1.1100000 -3.0750000
v -0.3375000 1.8900000 -3.0750000
v -0.3025000 1.8900000 -3.0750000
v -0.3375000 1.1100000 -3.0750000
v -0.3025000 1.8900000 -3.0750000
v -0.3025000 1.1100000 -3.0750000
v -0.3375000 1.1100000 -3.0450000
v -0.3025000 1.1100000 -3.0450000
v -0.3025000 1.8900000 -3.0450000
v -0.3375000 1.1100000 -3.0450000
v -0.3025000 1.8900000 -3.0450000
v -0.3375000 1.8900000 -3.0450000
v -0.3375000 1.1100000 -3.0750000
v -0.3375000 1.1100000 -3.0450000
v -0.3375000 1.8900000 -3.0450000
v -0.3375000 1.1100000 -3.0750000
v -0.3375000 1.8900000 -3.0450000
v -0.3375000 1.8900000 -3.0750000
v -0.3025000 1.1100000 -3.0750000
v -0.3025000 1.8900000 -3.0750000
v -0.3025000 1.8900000 -3.0450000
v -0.3025000 1.1100000 -3.0750000
v -0.3025000 1.8900000 -3.0450000
v -0.3025000 1.1100000 -3.0450000
v -0.3375000 1.1100000 -3.0750000
v -0.3025000 1.1100000 -3.0750000
v -0.3025000 1.1100000 -3.0450000
v -0.3375000 1.1100000 -3.0750000
v -0.3025000 1.1100000 -3.0450000
v -0.3375000 1.1100000 -3.0450000
v -0.3375000 1.8900000 -3.0750000
v -0.3375000 1.8900000 -3.0450000
v -0.3025000 1.8900000 -3.0450000
v -0.3375000 1.8900000 -3.0750000
v -0.3025000 1.8900000 -3.0450000
v -0.3025000 1.8900000 -3.0750000
v -2.5750000 0.2650000 -2.7750000
v -2.5750000 0.3350000 -2.7750000
v 2.5750000 0.3350000 -2.7750000
v -2.5750000 0.2650000 -2.7750000
v 2.5750000 0.3350000 -2.7750000
v 2.5750000 0.2650000 -2.7750000
v -2.5750000 0.2650000 2.7750000
v 2.5750000 0.2650000 2.7750000
v 2.5750000 0.3350000 2.7750000
v -2.5750000 0.2650000 2.7750000
v 2.5750000 0.3350000 2.7750000
v -2.5750000 0.3350000 2.7750000
v -2.5750000 0.2650000 -2.7750000
v -2.5750000 0.2650000 2.7750000
v -2.5750000 0.3350000 2.7750000
v -2.5750000 0.2650000 -2.7750000
v -2.5750000 0.3350000 2.7750000
v -2.5750000 0.3350000 -2.7750000
v 2.5750000 0.2650000 -2.7750000
v 2.5750000 0.3350000 -2.7750000
v 2.5750000 0.3350000 2.7750000
v 2.5750000 0.2650000 -2.7750000
v 2.5750000 0.3350000 2.7750000
v 2.5750000 0.2650000 2.7750000
v -2.5750000 0.2650000 -2.7750000
v 2.5750000 0.2650000 -2.7750000
v 2.5750000 0.2650000 2.7750000
v -2.5750000 0.2650000 -2.7750000
v 2.5750000 0.2650000 2.7750000
v -2.5750000 0.2650000 2.7750000
v -2.5750000 0.3350000 -2.7750000
v -2.5750000 0.3350000 2.7750000
v 2.5750000 0.3350000 2.7750000
v -2.5750000 0.3350000 -2.7750000
v 2.5750000 0.3350000 2.7750000
v 2.5750000 0.3350000 -2.7750000
v -2.7000000 2.5500000 -2.9800000
v 0.0000000 3.7200000 -2.9800000
v 2.7000000 2.5500000 -2.9800000
v -2.7000000 2.5500000 -2.8200000
v 2.7000000 2.5500000 -2.8200000
v 0.0000000 3.7200000 -2.8200000
v -2.7000000 2.5500000 -2.9800000
v 2.7000000 2.5500000 -2.9800000
v 2.7000000 2.5500000 -2.8200000
v -2.7000000 2.5500000 -2.9800000
v 2.7000000 2.5500000 -2.8200000
v -2.7000000 2.5500000 -2.8200000
v 2.7000000 2.5500000 -2.9800000
v 0.0000000 3.7200000 -2.9800000
v 0.0000000 3.7200000 -2.8200000
v 2.7000000 2.5500000 -2.9800000
v 0.0000000 3.7200000 -2.8200000
v 2.7000000 2.5500000 -2.8200000
v 0.0000000 3.7200000 -2.9800000
v -2.7000000 2.5500000 -2.9800000
v -2.7000000 2.5500000 -2.8200000
v 0.0000000 3.7200000 -2.9800000
v -2.7000000 2.5500000 -2.8200000
v 0.0000000 3.7200000 -2.8200000
v -2.7000000 2.5500000 2.8200000
v 0.0000000 3.7200000 2.8200000
v 2.7000000 2.5500000 2.8200000
v -2.7000000 2.5500000 2.9800000
v 2.7000000 2.5500000 2.9800000
v 0.0000000 3.7200000 2.9800000
v -2.7000000 2.5500000 2.8200000
v 2.7000000 2.5500000 2.8200000
v 2.7000000 2.5500000 2.9800000
v -2.7000000 2.5500000 2.8200000
v 2.7000000 2.5500000 2.9800000
v -2.7000000 2.5500000 2.9800000
v 2.7000000 2.5500000 2.8200000
v 0.0000000 3.7200000 2.8200000
v 0.0000000 3.7200000 2.9800000
v 2.7000000 2.5500000 2.8200000
v 0.0000000 3.7200000 2.9800000
v 2.7000000 2.5500000 2.9800000
v 0.0000000 3.7200000 2.8200000
v -2.7000000 2.5500000 2.8200000
v -2.7000000 2.5500000 2.9800000
v 0.0000000 3.7200000 2.8200000
v -2.7000000 2.5500000 2.9800000
v 0.0000000 3.7200000 2.9800000
v -2.8800000 2.5960000 -3.1000000
v -1.0000000 3.3950000 -2.0600000
v 0.0000000 3.8200000 -2.0600000
v -2.8800000 2.5960000 -3.1000000
v 0.0000000 3.8200000 -2.0600000
v 0.0000000 3.8200000 -3.1000000
v -2.8800000 2.4960000 -3.1000000
v -1.0000000 3.2950000 -2.0600000
v -1.0000000 3.3950000 -2.0600000
v -2.8800000 2.4960000 -3.1000000
v -1.0000000 3.3950000 -2.0600000
v -2.8800000 2.5960000 -3.1000000
v -1.0000000 3.3950000 -2.0600000
v -1.4000000 3.2250000 -1.0200000
v 0.0000000 3.8200000 -1.0200000
v -1.0000000 3.3950000 -2.0600000
v 0.0000000 3.8200000 -1.0200000
v 0.0000000 3.8200000 -2.0600000
v -1.0000000 3.2950000 -2.0600000
v -1.4000000 3.1250000 -1.0200000
v -1.4000000 3.2250000 -1.0200000
v -1.0000000 3.2950000 -2.0600000
v -1.4000000 3.2250000 -1.0200000
v -1.0000000 3.3950000 -2.0600000
v -1.4000000 3.2250000 -1.0200000
v -2.8800000 2.5960000 0.0200000
v 0.0000000 3.8200000 0.0200000
v -1.4000000 3.2250000 -1.0200000
v 0.0000000 3.8200000 0.0200000
v 0.0000000 3.8200000 -1.0200000
v -1.4000000 3.1250000 -1.0200000
v -2.8800000 2.4960000 0.0200000
v -2.8800000 2.5960000 0.0200000
v -1.4000000 3.1250000 -1.0200000
v -2.8800000 2.5960000 0.0200000
v -1.4000000 3.2250000 -1.0200000
v -2.8800000 2.5960000 0.0200000
v -2.8800000 2.5960000 1.0600000
v 0.0000000 3.8200000 1.0600000
v -2.8800000 2.5960000 0.0200000
v 0.0000000 3.8200000 1.0600000
v 0.0000000 3.8200000 0.0200000
v -2.8800000 2.4960000 0.0200000
v -2.8800000 2.4960000 1.0600000
v -2.8800000 2.5960000 1.0600000
v -2.8800000 2.4960000 0.0200000
v -2.8800000 2.5960000 1.0600000
v -2.8800000 2.5960000 0.0200000
v -2.8800000 2.5960000 1.0600000
v -2.8800000 2.5960000 2.1000000
v 0.0000000 3.8200000 2.1000000
v -2.8800000 2.5960000 1.0600000
v 0.0000000 3.8200000 2.1000000
v 0.0000000 3.8200000 1.0600000
v -2.8800000 2.4960000 1.0600000
v -2.8800000 2.4960000 2.1000000
v -2.8800000 2.5960000 2.1000000
v -2.8800000 2.4960000 1.0600000
v -2.8800000 2.5960000 2.1000000
v -2.8800000 2.5960000 1.0600000
v -2.8800000 2.5960000 2.1000000
v -2.8800000 2.5960000 3.1400000
v 0.0000000 3.8200000 3.1400000
v -2.8800000 2.5960000 2.1000000
v 0.0000000 3.8200000 3.1400000
v 0.0000000 3.8200000 2.1000000
v -2.8800000 2.4960000 2.1000000
v -2.8800000 2.4960000 3.1400000
v -2.8800000 2.5960000 3.1400000
v -2.8800000 2.4960000 2.1000000
v -2.8800000 2.5960000 3.1400000
v -2.8800000 2.5960000 2.1000000
v 0.0195716 3.6339896 -2.6000000
v 0.0195716 3.6339896 -2.5000000
v -2.6604284 2.4939896 -2.5000000
v 0.0195716 3.6339896 -2.6000000
v -2.6604284 2.4939896 -2.5000000
v -2.6604284 2.4939896 -2.6000000
v 0.0195716 3.6339896 -2.5000000
v -0.0195716 3.7260104 -2.5000000
v -2.6995716 2.5860104 -2.5000000
v 0.0195716 3.6339896 -2.5000000
v -2.6995716 2.5860104 -2.5000000
v -2.6604284 2.4939896 -2.5000000
v -0.0195716 3.7260104 -2.5000000
v -0.0195716 3.7260104 -2.6000000
v -2.6995716 2.5860104 -2.6000000
v -0.0195716 3.7260104 -2.5000000
v -2.6995716 2.5860104 -2.6000000
v -2.6995716 2.5860104 -2.5000000
v -0.0195716 3.7260104 -2.6000000
v 0.0195716 3.6339896 -2.6000000
v -2.6604284 2.4939896 -2.6000000
v -0.0195716 3.7260104 -2.6000000
v -2.6604284 2.4939896 -2.6000000
v -2.6995716 2.5860104 -2.6000000
v -0.0195716 3.7260104 -2.6000000
v -0.0195716 3.7260104 -2.5000000
v 0.0195716 3.6339896 -2.5000000
v -0.0195716 3.7260104 -2.6000000
v 0.0195716 3.6339896 -2.5000000
v 0.0195716 3.6339896 -2.6000000
v -2.6604284 2.4939896 -2.6000000
v -2.6604284 2.4939896 -2.5000000
v -2.6995716 2.5860104 -2.5000000
v -2.6604284 2.4939896 -2.6000000
v -2.6995716 2.5860104 -2.5000000
v -2.6995716 2.5860104 -2.6000000
v 0.0195716 3.6339896 -1.8500000
v 0.0195716 3.6339896 -1.7500000
v -2.6604284 2.4939896 -1.7500000
v 0.0195716 3.6339896 -1.8500000
v -2.6604284 2.4939896 -1.7500000
v -2.6604284 2.4939896 -1.8500000
v 0.0195716 3.6339896 -1.7500000
v -0.0195716 3.7260104 -1.7500000
v -2.6995716 2.5860104 -1.7500000
v 0.0195716 3.6339896 -1.7500000
v -2.6995716 2.5860104 -1.7500000
v -2.6604284 2.4939896 -1.7500000
v -0.0195716 3.7260104 -1.7500000
v -0.0195716 3.7260104 -1.8500000
v -2.6995716 2.5860104 -1.8500000
v -0.0195716 3.7260104 -1.7500000
v -2.6995716 2.5860104 -1.8500000
v -2.6995716 2.5860104 -1.7500000
v -0.0195716 3.7260104 -1.8500000
v 0.0195716 3.6339896 -1.8500000
v -2.6604284 2.4939896 -1.8500000
v -0.0195716 3.7260104 -1.8500000
v -2.6604284 2.4939896 -1.8500000
v -2.6995716 2.5860104 -1.8500000
v -0.0195716 3.7260104 -1.8500000
v -0.0195716 3.7260104 -1.7500000
v 0.0195716 3.6339896 -1.7500000
v -0.0195716 3.7260104 -1.8500000
v 0.0195716 3.6339896 -1.7500000
v 0.0195716 3.6339896 -1.8500000
v -2.6604284 2.4939896 -1.8500000
v -2.6604284 2.4939896 -1.7500000
v -2.6995716 2.5860104 -1.7500000
v -2.6604284 2.4939896 -1.8500000
v -2.6995716 2.5860104 -1.7500000
v -2.6995716 2.5860104 -1.8500000
v 0.0195716 3.6339896 -1.0000000
v 0.0195716 3.6339896 -0.9000000
v -2.6604284 2.4939896 -0.9000000
v 0.0195716 3.6339896 -1.0000000
v -2.6604284 2.4939896 -0.9000000
v -2.6604284 2.4939896 -1.0000000
v 0.0195716 3.6339896 -0.9000000
v -0.0195716 3.7260104 -0.9000000
v -2.6995716 2.5860104 -0.9000000
v 0.0195716 3.6339896 -0.9000000
v -2.6995716 2.5860104 -0.9000000
v -2.6604284 2.4939896 -0.9000000
v -0.0195716 3.7260104 -0.9000000
v -0.0195716 3.7260104 -1.0000000
v -2.6995716 2.5860104 -1.0000000
v -0.0195716 3.7260104 -0.9000000
v -2.6995716 2.5860104 -1.0000000
v -2.6995716 2.5860104 -0.9000000
v -0.0195716 3.7260104 -1.0000000
v 0.0195716 3.6339896 -1.0000000
v -2.6604284 2.4939896 -1.0000000
v -0.0195716 3.7260104 -1.0000000
v -2.6604284 2.4939896 -1.0000000
v -2.6995716 2.5860104 -1.0000000
v -0.0195716 3.7260104 -1.0000000
v -0.0195716 3.7260104 -0.9000000
v 0.0195716 3.6339896 -0.9000000
v -0.0195716 3.7260104 -1.0000000
v 0.0195716 3.6339896 -0.9000000
v 0.0195716 3.6339896 -1.0000000
v -2.6604284 2.4939896 -1.0000000
v -2.6604284 2.4939896 -0.9000000
v -2.6995716 2.5860104 -0.9000000
v -2.6604284 2.4939896 -1.0000000
v -2.6995716 2.5860104 -0.9000000
v -2.6995716 2.5860104 -1.0000000
v 0.0000000 3.8200000 -3.1000000
v 0.0000000 3.8200000 -2.0600000
v 2.8800000 2.5960000 -2.0600000
v 0.0000000 3.8200000 -3.1000000
v 2.8800000 2.5960000 -2.0600000
v 2.8800000 2.5960000 -3.1000000
v 2.8800000 2.5960000 -3.1000000
v 2.8800000 2.5960000 -2.0600000
v 2.8800000 2.4960000 -2.0600000
v 2.8800000 2.5960000 -3.1000000
v 2.8800000 2.4960000 -2.0600000
v 2.8800000 2.4960000 -3.1000000
v 0.0000000 3.8200000 -2.0600000
v 0.0000000 3.8200000 -1.0200000
v 2.8800000 2.5960000 -1.0200000
v 0.0000000 3.8200000 -2.0600000
v 2.8800000 2.5960000 -1.0200000
v 2.8800000 2.5960000 -2.0600000
v 2.8800000 2.5960000 -2.0600000
v 2.8800000 2.5960000 -1.0200000
v 2.8800000 2.4960000 -1.0200000
v 2.8800000 2.5960000 -2.0600000
v 2.8800000 2.4960000 -1.0200000
v 2.8800000 2.4960000 -2.0600000
v 0.0000000 3.8200000 -1.0200000
v 0.0000000 3.8200000 0.0200000
v 2.8800000 2.5960000 0.0200000
v 0.0000000 3.8200000 -1.0200000
v 2.8800000 2.5960000 0.0200000
v 2.8800000 2.5960000 -1.0200000
v 2.8800000 2.5960000 -1.0200000
v 2.8800000 2.5960000 0.0200000
v 2.8800000 2.4960000 0.0200000
v 2.8800000 2.5960000 -1.0200000
v 2.8800000 2.4960000 0.0200000
v 2.8800000 2.4960000 -1.0200000
v 0.0000000 3.8200000 0.0200000
v 0.0000000 3.8200000 1.0600000
v 2.8800000 2.5960000 1.0600000
v 0.0000000 3.8200000 0.0200000
v 2.8800000 2.5960000 1.0600000
v 2.8800000 2.5960000 0.0200000
v 2.8800000 2.5960000 0.0200000
v 2.8800000 2.5960000 1.0600000
v 2.8800000 2.4960000 1.0600000
v 2.8800000 2.5960000 0.0200000
v 2.8800000 2.4960000 1.0600000
v 2.8800000 2.4960000 0.0200000
v 0.0000000 3.8200000 1.0600000
v 0.0000000 3.8200000 2.1000000
v 2.8800000 2.5960000 2.1000000
v 0.0000000 3.8200000 1.0600000
v 2.8800000 2.5960000 2.1000000
v 2.8800000 2.5960000 1.0600000
v 2.8800000 2.5960000 1.0600000
v 2.8800000 2.5960000 2.1000000
v 2.8800000 2.4960000 2.1000000
v 2.8800000 2.5960000 1.0600000
v 2.8800000 2.4960000 2.1000000
v 2.8800000 2.4960000 1.0600000
v 0.0000000 3.8200000 2.1000000
v 0.0000000 3.8200000 3.1400000
v 2.8800000 2.5960000 3.1400000
v 0.0000000 3.8200000 2.1000000
v 2.8800000 2.5960000 3.1400000
v 2.8800000 2.5960000 2.1000000
v 2.8800000 2.5960000 2.1000000
v 2.8800000 2.5960000 3.1400000
v 2.8800000 2.4960000 3.1400000
v 2.8800000 2.5960000 2.1000000
v 2.8800000 2.4960000 3.1400000
v 2.8800000 2.4960000 2.1000000
v -0.0195716 3.6339896 -2.5000000
v -0.0195716 3.6339896 -2.6000000
v 2.6604284 2.4939896 -2.6000000
v -0.0195716 3.6339896 -2.5000000
v 2.6604284 2.4939896 -2.6000000
v 2.6604284 2.4939896 -2.5000000
v -0.0195716 3.6339896 -2.6000000
v 0.0195716 3.7260104 -2.6000000
v 2.6995716 2.5860104 -2.6000000
v -0.0195716 3.6339896 -2.6000000
v 2.6995716 2.5860104 -2.6000000
v 2.6604284 2.4939896 -2.6000000
v 0.0195716 3.7260104 -2.6000000
v 0.0195716 3.7260104 -2.5000000
v 2.6995716 2.5860104 -2.5000000
v 0.0195716 3.7260104 -2.6000000
v 2.6995716 2.5860104 -2.5000000
v 2.6995716 2.5860104 -2.6000000
v 0.0195716 3.7260104 -2.5000000
v -0.0195716 3.6339896 -2.5000000
v 2.6604284 2.4939896 -2.5000000
v 0.0195716 3.7260104 -2.5000000
v 2.6604284 2.4939896 -2.5000000
v 2.6995716 2.5860104 -2.5000000
v 0.0195716 3.7260104 -2.5000000
v 0.0195716 3.7260104 -2.6000000
v -0.0195716 3.6339896 -2.6000000
v 0.0195716 3.7260104 -2.5000000
v -0.0195716 3.6339896 -2.6000000
v -0.0195716 3.6339896 -2.5000000
v 2.6604284 2.4939896 -2.5000000
v 2.6604284 2.4939896 -2.6000000
v 2.6995716 2.5860104 -2.6000000
v 2.6604284 2.4939896 -2.5000000
v 2.6995716 2.5860104 -2.6000000
v 2.6995716 2.5860104 -2.5000000
v -0.0195716 3.6339896 -1.7500000
v -0.0195716 3.6339896 -1.8500000
v 2.6604284 2.4939896 -1.8500000
v -0.0195716 3.6339896 -1.7500000
v 2.6604284 2.4939896 -1.8500000
v 2.6604284 2.4939896 -1.7500000
v -0.0195716 3.6339896 -1.8500000
v 0.0195716 3.7260104 -1.8500000
v 2.6995716 2.5860104 -1.8500000
v -0.0195716 3.6339896 -1.8500000
v 2.6995716 2.5860104 -1.8500000
v 2.6604284 2.4939896 -1.8500000
v 0.0195716 3.7260104 -1.8500000
v 0.0195716 3.7260104 -1.7500000
v 2.6995716 2.5860104 -1.7500000
v 0.0195716 3.7260104 -1.8500000
v 2.6995716 2.5860104 -1.7500000
v 2.6995716 2.5860104 -1.8500000
v 0.0195716 3.7260104 -1.7500000
v -0.0195716 3.6339896 -1.7500000
v 2.6604284 2.4939896 -1.7500000
v 0.0195716 3.7260104 -1.7500000
v 2.6604284 2.4939896 -1.7500000
v 2.6995716 2.5860104 -1.7500000
v 0.0195716 3.7260104 -1.7500000
v 0.0195716 3.7260104 -1.8500000
v -0.0195716 3.6339896 -1.8500000
v 0.0195716 3.7260104 -1.7500000
v -0.0195716 3.6339896 -1.8500000
v -0.0195716 3.6339896 -1.7500000
v 2.6604284 2.4939896 -1.7500000
v 2.6604284 2.4939896 -1.8500000
v 2.6995716 2.5860104 -1.8500000
v 2.6604284 2.4939896 -1.7500000
v 2.6995716 2.5860104 -1.8500000
v 2.6995716 2.5860104 -1.7500000
v -0.0195716 3.6339896 -0.9000000
v -0.0195716 3.6339896 -1.0000000
v 2.6604284 2.4939896 -1.0000000
v -0.0195716 3.6339896 -0.9000000
v 2.6604284 2.4939896 -1.0000000
v 2.6604284 2.4939896 -0.9000000
v -0.0195716 3.6339896 -1.0000000
v 0.0195716 3.7260104 -1.0000000
v 2.6995716 2.5860104 -1.0000000
v -0.0195716 3.6339896 -1.0000000
v 2.6995716 2.5860104 -1.0000000
v 2.6604284 2.4939896 -1.0000000
v 0.0195716 3.7260104 -1.0000000
v 0.0195716 3.7260104 -0.9000000
v 2.6995716 2.5860104 -0.9000000
v 0.0195716 3.7260104 -1.0000000
v 2.6995716 2.5860104 -0.9000000
v 2.6995716 2.5860104 -1.0000000
v 0.0195716 3.7260104 -0.9000000
v -0.0195716 3.6339896 -0.9000000
v 2.6604284 2.4939896 -0.9000000
v 0.0195716 3.7260104 -0.9000000
v 2.6604284 2.4939896 -0.9000000
v 2.6995716 2.5860104 -0.9000000
v 0.0195716 3.7260104 -0.9000000
v 0.0195716 3.7260104 -1.0000000
v -0.0195716 3.6339896 -1.0000000
v 0.0195716 3.7260104 -0.9000000
v -0.0195716 3.6339896 -1.0000000
v -0.0195716 3.6339896 -0.9000000
v 2.6604284 2.4939896 -0.9000000
v 2.6604284 2.4939896 -1.0000000
v 2.6995716 2.5860104 -1.0000000
v 2.6604284 2.4939896 -0.9000000
v 2.6995716 2.5860104 -1.0000000
v 2.6995716 2.5860104 -0.9000000
v 1.0900000 2.8850000 0.9700000
v 1.0900000 4.1350000 0.9700000
v 1.5100000 4.1350000 0.9700000
v 1.0900000 2.8850000 0.9700000
v 1.5100000 4.1350000 0.9700000
v 1.5100000 2.8850000 0.9700000
v 1.0900000 2.8850000 1.4300000
v 1.5100000 2.8850000 1.4300000
v 1.5100000 4.1350000 1.4300000
v 1.0900000 2.8850000 1.4300000
v 1.5100000 4.1350000 1.4300000
v 1.0900000 4.1350000 1.4300000
v 1.0900000 2.8850000 0.9700000
v 1.0900000 2.8850000 1.4300000
v 1.0900000 4.1350000 1.4300000
v 1.0900000 2.8850000 0.9700000
v 1.0900000 4.1350000 1.4300000
v 1.0900000 4.1350000 0.9700000
v 1.5100000 2.8850000 0.9700000
v 1.5100000 4.1350000 0.9700000
v 1.5100000 4.1350000 1.4300000
v 1.5100000 2.8850000 0.9700000
v 1.5100000 4.1350000 1.4300000
v 1.5100000 2.8850000 1.4300000
v 1.0900000 2.8850000 0.9700000
v 1.5100000 2.8850000 0.9700000
v 1.5100000 2.8850000 1.4300000
v 1.0900000 2.8850000 0.9700000
v 1.5100000 2.8850000 1.4300000
v 1.0900000 2.8850000 1.4300000
v 1.0900000 4.1350000 0.9700000
v 1.0900000 4.1350000 1.4300000
v 1.5100000 4.1350000 1.4300000
v 1.0900000 4.1350000 0.9700000
v 1.5100000 4.1350000 1.4300000
v 1.5100000 4.1350000 0.9700000
v 1.0250000 4.0900000 0.9150000
v 1.0250000 4.2100000 0.9150000
v 1.5750000 4.2100000 0.9150000
v 1.0250000 4.0900000 0.9150000
v 1.5750000 4.2100000 0.9150000
v 1.5750000 4.0900000 0.9150000
v 1.0250000 4.0900000 1.4850000
v 1.5750000 4.0900000 1.4850000
v 1.5750000 4.2100000 1.4850000
v 1.0250000 4.0900000 1.4850000
v 1.5750000 4.2100000 1.4850000
v 1.0250000 4.2100000 1.4850000
v 1.0250000 4.0900000 0.9150000
v 1.0250000 4.0900000 1.4850000
v 1.0250000 4.2100000 1.4850000
v 1.0250000 4.0900000 0.9150000
v 1.0250000 4.2100000 1.4850000
v 1.0250000 4.2100000 0.9150000
v 1.5750000 4.0900000 0.9150000
v 1.5750000 4.2100000 0.9150000
v 1.5750000 4.2100000 1.4850000
v 1.5750000 4.0900000 0.9150000
v 1.5750000 4.2100000 1.4850000
v 1.5750000 4.0900000 1.4850000
v 1.0250000 4.0900000 0.9150000
v 1.5750000 4.0900000 0.9150000
v 1.5750000 4.0900000 1.4850000
v 1.0250000 4.0900000 0.9150000
v 1.5750000 4.0900000 1.4850000
v 1.0250000 4.0900000 1.4850000
v 1.0250000 4.2100000 0.9150000
v 1.0250000 4.2100000 1.4850000
v 1.5750000 4.2100000 1.4850000
v 1.0250000 4.2100000 0.9150000
v 1.5750000 4.2100000 1.4850000
v 1.5750000 4.2100000 0.9150000
v -3.0000000 0.1400000 -3.3200000
v -3.0000000 0.2800000 -3.3200000
v -2.4000000 0.2800000 -3.3200000
v -3.0000000 0.1400000 -3.3200000
v -2.4000000 0.2800000 -3.3200000
v -2.4000000 0.1400000 -3.3200000
v -3.0000000 0.1400000 -2.8800000
v -2.4000000 0.1400000 -2.8800000
v -2.4000000 0.2800000 -2.8800000
v -3.0000000 0.1400000 -2.8800000
v -2.4000000 0.2800000 -2.8800000
v -3.0000000 0.2800000 -2.8800000
v -3.0000000 0.1400000 -3.3200000
v -3.0000000 0.1400000 -2.8800000
v -3.0000000 0.2800000 -2.8800000
v -3.0000000 0.1400000 -3.3200000
v -3.0000000 0.2800000 -2.8800000
v -3.0000000 0.2800000 -3.3200000
v -2.4000000 0.1400000 -3.3200000
v -2.4000000 0.2800000 -3.3200000
v -2.4000000 0.2800000 -2.8800000
v -2.4000000 0.1400000 -3.3200000
v -2.4000000 0.2800000 -2.8800000
v -2.4000000 0.1400000 -2.8800000
v -3.0000000 0.1400000 -3.3200000
v -2.4000000 0.1400000 -3.3200000
v -2.4000000 0.1400000 -2.8800000
v -3.0000000 0.1400000 -3.3200000
v -2.4000000 0.1400000 -2.8800000
v -3.0000000 0.1400000 -2.8800000
v -3.0000000 0.2800000 -3.3200000
v -3.0000000 0.2800000 -2.8800000
v -2.4000000 0.2800000 -2.8800000
v -3.0000000 0.2800000 -3.3200000
v -2.4000000 0.2800000 -2.8800000
v -2.4000000 0.2800000 -3.3200000
v -2.6000000 0.1400000 -3.6200000
v -2.6000000 0.2800000 -3.6200000
v -2.0000000 0.2800000 -3.6200000
v -2.6000000 0.1400000 -3.6200000
v -2.0000000 0.2800000 -3.6200000
v -2.0000000 0.1400000 -3.6200000
v -2.6000000 0.1400000 -3.1800000
v -2.0000000 0.1400000 -3.1800000
v -2.0000000 0.2800000 -3.1800000
v -2.6000000 0.1400000 -3.1800000
v -2.0000000 0.2800000 -3.1800000
v -2.6000000 0.2800000 -3.1800000
v -2.6000000 0.1400000 -3.6200000
v -2.6000000 0.1400000 -3.1800000
v -2.6000000 0.2800000 -3.1800000
v -2.6000000 0.1400000 -3.6200000
v -2.6000000 0.2800000 -3.1800000
v -2.6000000 0.2800000 -3.6200000
v -2.0000000 0.1400000 -3.6200000
v -2.0000000 0.2800000 -3.6200000
v -2.0000000 0.2800000 -3.1800000
v -2.0000000 0.1400000 -3.6200000
v -2.0000000 0.2800000 -3.1800000
v -2.0000000 0.1400000 -3.1800000
v -2.6000000 0.1400000 -3.6200000
v -2.0000000 0.1400000 -3.6200000
v -2.0000000 0.1400000 -3.1800000
v -2.6000000 0.1400000 -3.6200000
v -2.0000000 0.1400000 -3.1800000
v -2.6000000 0.1400000 -3.1800000
v -2.6000000 0.2800000 -3.6200000
v -2.6000000 0.2800000 -3.1800000
v -2.0000000 0.2800000 -3.1800000
v -2.6000000 0.2800000 -3.6200000
v -2.0000000 0.2800000 -3.1800000
v -2.0000000 0.2800000 -3.6200000
v -3.3000000 0.1400000 -2.8200000
v -3.3000000 0.2800000 -2.8200000
v -2.7000000 0.2800000 -2.8200000
v -3.3000000 0.1400000 -2.8200000
v -2.7000000 0.2800000 -2.8200000
v -2.7000000 0.1400000 -2.8200000
v -3.3000000 0.1400000 -2.3800000
v -2.7000000 0.1400000 -2.3800000
v -2.7000000 0.2800000 -2.3800000
v -3.3000000 0.1400000 -2.3800000
v -2.7000000 0.2800000 -2.3800000
v -3.3000000 0.2800000 -2.3800000
v -3.3000000 0.1400000 -2.8200000
v -3.3000000 0.1400000 -2.3800000
v -3.3000000 0.2800000 -2.3800000
v -3.3000000 0.1400000 -2.8200000
v -3.3000000 0.2800000 -2.3800000
v -3.3000000 0.2800000 -2.8200000
v -2.7000000 0.1400000 -2.8200000
v -2.7000000 0.2800000 -2.8200000
v -2.7000000 0.2800000 -2.3800000
v -2.7000000 0.1400000 -2.8200000
v -2.7000000 0.2800000 -2.3800000
v -2.7000000 0.1400000 -2.3800000
v -3.3000000 0.1400000 -2.8200000
v -2.7000000 0.1400000 -2.8200000
v -2.7000000 0.1400000 -2.3800000
v -3.3000000 0.1400000 -2.8200000
v -2.7000000 0.1400000 -2.3800000
v -3.3000000 0.1400000 -2.3800000
v -3.3000000 0.2800000 -2.8200000
v -3.3000000 0.2800000 -2.3800000
v -2.7000000 0.2800000 -2.3800000
v -3.3000000 0.2800000 -2.8200000
v -2.7000000 0.2800000 -2.3800000
v -2.7000000 0.2800000 -2.8200000
vn 0.0000000 0.0000000 -1.0000000
vn 0.0000000 0.0000000 -1.0000000
vn 0.0000000 0.0000000 1.0000000
vn 0.0000000 0.0000000 1.0000000
vn -1.0000000 0.0000000 0.0000000
vn -1.0000000 0.0000000 0.0000000
vn 1.0000000 0.0000000 0.0000000
vn 1.0000000 0.0000000 0.0000000
vn 0.0000000 -1.0000000 0.0000000
vn 0.0000000 -1.0000000 0.0000000
vn 0.0000000 1.0000000 0.0000000
vn 0.0000000 1.0000000 0.0000000
vn 0.0000000 0.0000000 -1.0000000
vn 0.0000000 0.0000000 -1.0000000
vn 0.0000000 0.0000000 1.0000000
vn 0.0000000 0.0000000 1.0000000
vn -1.0000000 0.0000000 0.0000000
vn -1.0000000 0.0000000 0.0000000
vn 1.0000000 0.0000000 0.0000000
vn 1.0000000 0.0000000 0.0000000
vn 0.0000000 -1.0000000 0.0000000
vn 0.0000000 -1.0000000 0.0000000
vn 0.0000000 1.0000000 0.0000000
vn 0.0000000 1.0000000 0.0000000
vn 0.0000000 0.0000000 -1.0000000
vn 0.0000000 0.0000000 -1.0000000
vn 0.0000000 0.0000000 1.0000000
vn 0.0000000 0.0000000 1.0000000
vn -1.0000000 0.0000000 0.0000000
vn -1.0000000 0.0000000 0.0000000
vn 1.0000000 0.0000000 0.0000000
vn 1.0000000 0.0000000 0.0000000
vn 0.0000000 -1.0000000 0.0000000
vn 0.0000000 -1.0000000 0.0000000
vn 0.0000000 1.0000000 0.0000000
vn 0.0000000 1.0000000 0.0000000
vn 0.0000000 0.0000000 -1.0000000
vn 0.0000000 0.0000000 -1.0000000
vn 0.0000000 0.0000000 1.0000000
vn 0.0000000 0.0000000 1.0000000
vn -1.0000000 0.0000000 0.0000000
vn -1.0000000 0.0000000 0.0000000
vn 1.0000000 0.0000000 0.0000000
vn 1.0000000 0.0000000 0.0000000
vn 0.0000000 -1.0000000 0.0000000
vn 0.0000000 -1.0000000 0.0000000
vn 0.0000000 1.0000000 0.0000000
vn 0.0000000 1.0000000 0.0000000
vn 0.0000000 0.0000000 -1.0000000
vn 0.0000000 0.0000000 -1.0000000
vn 0.0000000 0.0000000 1.0000000
vn 0.0000000 0.0000000 1.0000000
vn -1.0000000 0.0000000 0.0000000
vn -1.0000000 0.0000000 0.0000000
vn 1.0000000 0.0000000 0.0000000
vn 1.0000000 0.0000000 0.0000000
vn 0.0000000 -1.0000000 0.0000000
vn 0.0000000 -1.0000000 0.0000000
vn 0.0000000 1.0000000 0.0000000
vn 0.0000000 1.0000000 0.0000000
vn 0.0000000 0.0000000 -1.0000000
vn 0.0000000 0.0000000 -1.0000000
vn 0.0000000 0.0000000 1.0000000
vn 0.0000000 0.0000000 1.0000000
vn -1.0000000 0.0000000 0.0000000
vn -1.0000000 0.0000000 0.0000000
vn 1.0000000 0.0000000 0.0000000
vn 1.0000000 0.0000000 0.0000000
vn 0.0000000 -1.0000000 0.0000000
vn 0.0000000 -1.0000000 0.0000000
vn 0.0000000 1.0000000 0.0000000
vn 0.0000000 1.0000000 0.0000000
vn 0.0000000 0.0000000 -1.0000000
vn 0.0000000 0.0000000 -1.0000000
vn 0.0000000 0.0000000 1.0000000
vn 0.0000000 0.0000000 1.0000000
vn -1.0000000 0.0000000 0.0000000
vn -1.0000000 0.0000000 0.0000000
vn 1.0000000 0.0000000 0.0000000
vn 1.0000000 0.0000000 0.0000000
vn 0.0000000 -1.0000000 0.0000000
vn 0.0000000 -1.0000000 0.0000000
vn 0.0000000 1.0000000 0.0000000
vn 0.0000000 1.0000000 0.0000000
vn 0.0000000 0.0000000 -1.0000000
vn 0.0000000 0.0000000 -1.0000000
vn 0.0000000 0.0000000 1.0000000
vn 0.0000000 0.0000000 1.0000000
vn -1.0000000 0.0000000 0.0000000
vn -1.0000000 0.0000000 0.0000000
vn 1.0000000 0.0000000 0.0000000
vn 1.0000000 0.0000000 0.0000000
vn 0.0000000 -1.0000000 0.0000000
vn 0.0000000 -1.0000000 0.0000000
vn 0.0000000 1.0000000 0.0000000
vn 0.0000000 1.0000000 0.0000000
vn 0.0000000 0.0000000 -1.0000000
vn 0.0000000 0.0000000 -1.0000000
vn 0.0000000 0.0000000 1.0000000
vn 0.0000000 0.0000000 1.0000000
vn -1.0000000 0.0000000 0.0000000
vn -1.0000000 0.0000000 0.0000000
vn 1.0000000 0.0000000 0.0000000
vn 1.0000000 0.0000000 0.0000000
vn 0.0000000 -1.0000000 0.0000000
vn 0.0000000 -1.0000000 0.0000000
vn 0.0000000 1.0000000 0.0000000
vn 0.0000000 1.0000000 0.0000000
vn 0.0000000 0.0000000 -1.0000000
vn 0.0000000 0.0000000 -1.0000000
vn 0.0000000 0.0000000 1.0000000
vn 0.0000000 0.0000000 1.0000000
vn -1.0000000 0.0000000 0.0000000
vn -1.0000000 0.0000000 0.0000000
vn 1.0000000 0.0000000 0.0000000
vn 1.0000000 0.0000000 0.0000000
vn 0.0000000 -1.0000000 0.0000000
vn 0.0000000 -1.0000000 0.0000000
vn 0.0000000 1.0000000 0.0000000
vn 0.0000000 1.0000000 0.0000000
vn 0.0000000 0.0000000 -1.0000000
vn 0.0000000 0.0000000 -1.0000000
vn 0.0000000 0.0000000 1.0000000
vn 0.0000000 0.0000000 1.0000000
vn -1.0000000 0.0000000 0.0000000
vn -1.0000000 0.0000000 0.0000000
vn 1.0000000 0.0000000 0.0000000
vn 1.0000000 0.0000000 0.0000000
vn 0.0000000 -1.0000000 0.0000000
vn 0.0000000 -1.0000000 0.0000000
vn 0.0000000 1.0000000 0.0000000
vn 0.0000000 1.0000000 0.0000000
vn 0.0000000 0.0000000 -1.0000000
vn 0.0000000 0.0000000 -1.0000000
vn 0.0000000 0.0000000 1.0000000
vn 0.0000000 0.0000000 1.0000000
vn -1.0000000 0.0000000 0.0000000
vn -1.0000000 0.0000000 0.0000000
vn 1.0000000 0.0000000 0.0000000
vn 1.0000000 0.0000000 0.0000000
vn 0.0000000 -1.0000000 0.0000000
vn 0.0000000 -1.0000000 0.0000000
vn 0.0000000 1.0000000 0.0000000
vn 0.0000000 1.0000000 0.0000000
vn 0.0000000 0.0000000 -1.0000000
vn 0.0000000 0.0000000 -1.0000000
vn 0.0000000 0.0000000 1.0000000
vn 0.0000000 0.0000000 1.0000000
vn -1.0000000 0.0000000 0.0000000
vn -1.0000000 0.0000000 0.0000000
vn 1.0000000 0.0000000 0.0000000
vn 1.0000000 0.0000000 0.0000000
vn 0.0000000 -1.0000000 0.0000000
vn 0.0000000 -1.0000000 0.0000000
vn 0.0000000 1.0000000 0.0000000
vn 0.0000000 1.0000000 0.0000000
vn 0.0000000 0.0000000 -1.0000000
vn 0.0000000 0.0000000 -1.0000000
vn 0.0000000 0.0000000 1.0000000
vn 0.0000000 0.0000000 1.0000000
vn -1.0000000 0.0000000 0.0000000
vn -1.0000000 0.0000000 0.0000000
vn 1.0000000 0.0000000 0.0000000
vn 1.0000000 0.0000000 0.0000000
vn 0.0000000 -1.0000000 0.0000000
vn 0.0000000 -1.0000000 0.0000000
vn 0.0000000 1.0000000 0.0000000
vn 0.0000000 1.0000000 0.0000000
vn 0.0000000 0.0000000 -1.0000000
vn 0.0000000 0.0000000 -1.0000000
vn 0.0000000 0.0000000 1.0000000
vn 0.0000000 0.0000000 1.0000000
vn -1.0000000 0.0000000 0.0000000
vn -1.0000000 0.0000000 0.0000000
vn 1.0000000 0.0000000 0.0000000
vn 1.0000000 0.0000000 0.0000000
vn 0.0000000 -1.0000000 0.0000000
vn 0.0000000 -1.0000000 0.0000000
vn 0.0000000 1.0000000 0.0000000
vn 0.0000000 1.0000000 0.0000000
vn 0.0000000 0.0000000 -1.0000000
vn 0.0000000 0.0000000 -1.0000000
vn 0.0000000 0.0000000 1.0000000
vn 0.0000000 0.0000000 1.0000000
vn -1.0000000 0.0000000 0.0000000
vn -1.0000000 0.0000000 0.0000000
vn 1.0000000 0.0000000 0.0000000
vn 1.0000000 0.0000000 0.0000000
vn 0.0000000 -1.0000000 0.0000000
vn 0.0000000 -1.0000000 0.0000000
vn 0.0000000 1.0000000 0.0000000
vn 0.0000000 1.0000000 0.0000000
vn 0.0000000 0.0000000 -1.0000000
vn 0.0000000 0.0000000 -1.0000000
vn 0.0000000 0.0000000 1.0000000
vn 0.0000000 0.0000000 1.0000000
vn -1.0000000 0.0000000 0.0000000
vn -1.0000000 0.0000000 0.0000000
vn 1.0000000 0.0000000 0.0000000
vn 1.0000000 0.0000000 0.0000000
vn 0.0000000 -1.0000000 0.0000000
vn 0.0000000 -1.0000000 0.0000000
vn 0.0000000 1.0000000 0.0000000
vn 0.0000000 1.0000000 0.0000000
vn 0.0000000 0.0000000 -1.0000000
vn 0.0000000 0.0000000 1.0000000
vn 0.0000000 -1.0000000 0.0000000
vn 0.0000000 -1.0000000 0.0000000
vn 0.3976074 0.9175556 0.0000000
vn 0.3976074 0.9175556 0.0000000
vn -0.3976074 0.9175556 0.0000000
vn -0.3976074 0.9175556 0.0000000
vn 0.0000000 0.0000000 -1.0000000
vn 0.0000000 0.0000000 1.0000000
vn 0.0000000 -1.0000000 0.0000000
vn 0.0000000 -1.0000000 0.0000000
vn 0.3976074 0.9175556 0.0000000
vn 0.3976074 0.9175556 0.0000000
vn -0.3976074 0.9175556 0.0000000
vn -0.3976074 0.9175556 0.0000000
vn -0.3911406 0.9203309 0.0000000
vn -0.3911406 0.9203309 0.0000000
vn -0.4840614 0.0000000 0.8750340
vn -0.4840614 0.0000000 0.8750340
vn -0.3911406 0.9203309 0.0000000
vn -0.3911406 0.9203309 0.0000000
vn -0.9333456 0.0000000 -0.3589791
vn -0.9333456 0.0000000 -0.3589791
vn -0.3911406 0.9203309 0.0000000
vn -0.3911406 0.9203309 0.0000000
vn -0.5749455 0.0000000 -0.8181917
vn -0.5749455 0.0000000 -0.8181917
vn -0.3911406 0.9203309 0.0000000
vn -0.3911406 0.9203309 0.0000000
vn -1.0000000 0.0000000 0.0000000
vn -1.0000000 0.0000000 0.0000000
vn -0.3911406 0.9203309 0.0000000
vn -0.3911406 0.9203309 0.0000000
vn -1.0000000 0.0000000 0.0000000
vn -1.0000000 0.0000000 0.0000000
vn -0.3911406 0.9203309 0.0000000
vn -0.3911406 0.9203309 0.0000000
vn -1.0000000 0.0000000 0.0000000
vn -1.0000000 0.0000000 0.0000000
vn 0.3914315 -0.9202073 0.0000000
vn 0.3914315 -0.9202073 0.0000000
vn 0.0000000 0.0000000 1.0000000
vn 0.0000000 0.0000000 1.0000000
vn -0.3914315 0.9202073 0.0000000
vn -0.3914315 0.9202073 0.0000000
vn 0.0000000 0.0000000 -1.0000000
vn 0.0000000 0.0000000 -1.0000000
vn 0.9202073 0.3914315 0.0000000
vn 0.9202073 0.3914315 0.0000000
vn -0.9202073 -0.3914315 0.0000000
vn -0.9202073 -0.3914315 0.0000000
vn 0.3914315 -0.9202073 0.0000000
vn 0.3914315 -0.9202073 0.0000000
vn 0.0000000 0.0000000 1.0000000
vn 0.0000000 0.0000000 1.0000000
vn -0.3914315 0.9202073 0.0000000
vn -0.3914315 0.9202073 0.0000000
vn 0.0000000 0.0000000 -1.0000000
vn 0.0000000 0.0000000 -1.0000000
vn 0.9202073 0.3914315 0.0000000
vn 0.9202073 0.3914315 0.0000000
vn -0.9202073 -0.3914315 0.0000000
vn -0.9202073 -0.3914315 0.0000000
vn 0.3914315 -0.9202073 0.0000000
vn 0.3914315 -0.9202073 0.0000000
vn 0.0000000 0.0000000 1.0000000
vn 0.0000000 0.0000000 1.0000000
vn -0.3914315 0.9202073 0.0000000
vn -0.3914315 0.9202073 0.0000000
vn 0.0000000 0.0000000 -1.0000000
vn 0.0000000 0.0000000 -1.0000000
vn 0.9202073 0.3914315 0.0000000
vn 0.9202073 0.3914315 0.0000000
vn -0.9202073 -0.3914315 0.0000000
vn -0.9202073 -0.3914315 0.0000000
vn 0.3911406 0.9203309 0.0000000
vn 0.3911406 0.9203309 0.0000000
vn 1.0000000 0.0000000 0.0000000
vn 1.0000000 0.0000000 0.0000000
vn 0.3911406 0.9203309 0.0000000
vn 0.3911406 0.9203309 0.0000000
vn 1.0000000 0.0000000 0.0000000
vn 1.0000000 0.0000000 0.0000000
vn 0.3911406 0.9203309 0.0000000
vn 0.3911406 0.9203309 0.0000000
vn 1.0000000 0.0000000 0.0000000
vn 1.0000000 0.0000000 0.0000000
vn 0.3911406 0.9203309 0.0000000
vn 0.3911406 0.9203309 0.0000000
vn 1.0000000 0.0000000 0.0000000
vn 1.0000000 0.0000000 0.0000000
vn 0.3911406 0.9203309 0.0000000
vn 0.3911406 0.9203309 0.0000000
vn 1.0000000 0.0000000 0.0000000
vn 1.0000000 0.0000000 0.0000000
vn 0.3911406 0.9203309 0.0000000
vn 0.3911406 0.9203309 0.0000000
vn 1.0000000 0.0000000 0.0000000
vn 1.0000000 0.0000000 0.0000000
vn -0.3914315 -0.9202073 0.0000000
vn -0.3914315 -0.9202073 0.0000000
vn 0.0000000 0.0000000 -1.0000000
vn 0.0000000 0.0000000 -1.0000000
vn 0.3914315 0.9202073 0.0000000
vn 0.3914315 0.9202073 0.0000000
vn 0.0000000 0.0000000 1.0000000
vn 0.0000000 0.0000000 1.0000000
vn -0.9202073 0.3914315 0.0000000
vn -0.9202073 0.3914315 0.0000000
vn 0.9202073 -0.3914315 0.0000000
vn 0.9202073 -0.3914315 0.0000000
vn -0.3914315 -0.9202073 0.0000000
vn -0.3914315 -0.9202073 0.0000000
vn 0.0000000 0.0000000 -1.0000000
vn 0.0000000 0.0000000 -1.0000000
vn 0.3914315 0.9202073 0.0000000
vn 0.3914315 0.9202073 0.0000000
vn 0.0000000 0.0000000 1.0000000
vn 0.0000000 0.0000000 1.0000000
vn -0.9202073 0.3914315 0.0000000
vn -0.9202073 0.3914315 0.0000000
vn 0.9202073 -0.3914315 0.0000000
vn 0.9202073 -0.3914315 0.0000000
vn -0.3914315 -0.9202073 0.0000000
vn -0.3914315 -0.9202073 0.0000000
vn 0.0000000 0.0000000 -1.0000000
vn 0.0000000 0.0000000 -1.0000000
vn 0.3914315 0.9202073 0.0000000
vn 0.3914315 0.9202073 0.0000000
vn 0.0000000 0.0000000 1.0000000
vn 0.0000000 0.0000000 1.0000000
vn -0.9202073 0.3914315 0.0000000
vn -0.9202073 0.3914315 0.0000000
vn 0.9202073 -0.3914315 0.0000000
vn 0.9202073 -0.3914315 0.0000000
vn 0.0000000 0.0000000 -1.0000000
vn 0.0000000 0.0000000 -1.0000000
vn 0.0000000 0.0000000 1.0000000
vn 0.0000000 0.0000000 1.0000000
vn -1.0000000 0.0000000 0.0000000
vn -1.0000000 0.0000000 0.0000000
vn 1.0000000 0.0000000 0.0000000
vn 1.0000000 0.0000000 0.0000000
vn 0.0000000 -1.0000000 0.0000000
vn 0.0000000 -1.0000000 0.0000000
vn 0.0000000 1.0000000 0.0000000
vn 0.0000000 1.0000000 0.0000000
vn 0.0000000 0.0000000 -1.0000000
vn 0.0000000 0.0000000 -1.0000000
vn 0.0000000 0.0000000 1.0000000
vn 0.0000000 0.0000000 1.0000000
vn -1.0000000 0.0000000 0.0000000
vn -1.0000000 0.0000000 0.0000000
vn 1.0000000 0.0000000 0.0000000
vn 1.0000000 0.0000000 0.0000000
vn 0.0000000 -1.0000000 0.0000000
vn 0.0000000 -1.0000000 0.0000000
vn 0.0000000 1.0000000 0.0000000
vn 0.0000000 1.0000000 0.0000000
vn 0.0000000 0.0000000 -1.0000000
vn 0.0000000 0.0000000 -1.0000000
vn 0.0000000 0.0000000 1.0000000
vn 0.0000000 0.0000000 1.0000000
vn -1.0000000 0.0000000 0.0000000
vn -1.0000000 0.0000000 0.0000000
vn 1.0000000 0.0000000 0.0000000
vn 1.0000000 0.0000000 0.0000000
vn 0.0000000 -1.0000000 0.0000000
vn 0.0000000 -1.0000000 0.0000000
vn 0.0000000 1.0000000 0.0000000
vn 0.0000000 1.0000000 0.0000000
vn 0.0000000 0.0000000 -1.0000000
vn 0.0000000 0.0000000 -1.0000000
vn 0.0000000 0.0000000 1.0000000
vn 0.0000000 0.0000000 1.0000000
vn -1.0000000 0.0000000 0.0000000
vn -1.0000000 0.0000000 0.0000000
vn 1.0000000 0.0000000 0.0000000
vn 1.0000000 0.0000000 0.0000000
vn 0.0000000 -1.0000000 0.0000000
vn 0.0000000 -1.0000000 0.0000000
vn 0.0000000 1.0000000 0.0000000
vn 0.0000000 1.0000000 0.0000000
vn 0.0000000 0.0000000 -1.0000000
vn 0.0000000 0.0000000 -1.0000000
vn 0.0000000 0.0000000 1.0000000
vn 0.0000000 0.0000000 1.0000000
vn -1.0000000 0.0000000 0.0000000
vn -1.0000000 0.0000000 0.0000000
vn 1.0000000 0.0000000 0.0000000
vn 1.0000000 0.0000000 0.0000000
vn 0.0000000 -1.0000000 0.0000000
vn 0.0000000 -1.0000000 0.0000000
vn 0.0000000 1.0000000 0.0000000
vn 0.0000000 1.0000000 0.0000000
usemtl concrete_dark
f 1//1 2//1 3//1
usemtl concrete_dark
f 4//2 5//2 6//2
usemtl concrete_dark
f 7//3 8//3 9//3
usemtl concrete_dark
f 10//4 11//4 12//4
usemtl concrete_dark
f 13//5 14//5 15//5
usemtl concrete_dark
f 16//6 17//6 18//6
usemtl concrete_dark
f 19//7 20//7 21//7
usemtl concrete_dark
f 22//8 23//8 24//8
usemtl concrete_dark
f 25//9 26//9 27//9
usemtl concrete_dark
f 28//10 29//10 30//10
usemtl concrete_dark
f 31//11 32//11 33//11
usemtl concrete_dark
f 34//12 35//12 36//12
usemtl plaster_valley
f 37//13 38//13 39//13
usemtl plaster_valley
f 40//14 41//14 42//14
usemtl plaster_valley
f 43//15 44//15 45//15
usemtl plaster_valley
f 46//16 47//16 48//16
usemtl plaster_valley
f 49//17 50//17 51//17
usemtl plaster_valley
f 52//18 53//18 54//18
usemtl plaster_valley
f 55//19 56//19 57//19
usemtl plaster_valley
f 58//20 59//20 60//20
usemtl plaster_valley
f 61//21 62//21 63//21
usemtl plaster_valley
f 64//22 65//22 66//22
usemtl plaster_valley
f 67//23 68//23 69//23
usemtl plaster_valley
f 70//24 71//24 72//24
usemtl plaster_valley
f 73//25 74//25 75//25
usemtl plaster_valley
f 76//26 77//26 78//26
usemtl plaster_valley
f 79//27 80//27 81//27
usemtl plaster_valley
f 82//28 83//28 84//28
usemtl plaster_valley
f 85//29 86//29 87//29
usemtl plaster_valley
f 88//30 89//30 90//30
usemtl plaster_valley
f 91//31 92//31 93//31
usemtl plaster_valley
f 94//32 95//32 96//32
usemtl plaster_valley
f 97//33 98//33 99//33
usemtl plaster_valley
f 100//34 101//34 102//34
usemtl plaster_valley
f 103//35 104//35 105//35
usemtl plaster_valley
f 106//36 107//36 108//36
usemtl plaster_valley
f 109//37 110//37 111//37
usemtl plaster_valley
f 112//38 113//38 114//38
usemtl plaster_valley
f 115//39 116//39 117//39
usemtl plaster_valley
f 118//40 119//40 120//40
usemtl plaster_valley
f 121//41 122//41 123//41
usemtl plaster_valley
f 124//42 125//42 126//42
usemtl plaster_valley
f 127//43 128//43 129//43
usemtl plaster_valley
f 130//44 131//44 132//44
usemtl plaster_valley
f 133//45 134//45 135//45
usemtl plaster_valley
f 136//46 137//46 138//46
usemtl plaster_valley
f 139//47 140//47 141//47
usemtl plaster_valley
f 142//48 143//48 144//48
usemtl plaster_valley
f 145//49 146//49 147//49
usemtl plaster_valley
f 148//50 149//50 150//50
usemtl plaster_valley
f 151//51 152//51 153//51
usemtl plaster_valley
f 154//52 155//52 156//52
usemtl plaster_valley
f 157//53 158//53 159//53
usemtl plaster_valley
f 160//54 161//54 162//54
usemtl plaster_valley
f 163//55 164//55 165//55
usemtl plaster_valley
f 166//56 167//56 168//56
usemtl plaster_valley
f 169//57 170//57 171//57
usemtl plaster_valley
f 172//58 173//58 174//58
usemtl plaster_valley
f 175//59 176//59 177//59
usemtl plaster_valley
f 178//60 179//60 180//60
usemtl plaster_valley
f 181//61 182//61 183//61
usemtl plaster_valley
f 184//62 185//62 186//62
usemtl plaster_valley
f 187//63 188//63 189//63
usemtl plaster_valley
f 190//64 191//64 192//64
usemtl plaster_valley
f 193//65 194//65 195//65
usemtl plaster_valley
f 196//66 197//66 198//66
usemtl plaster_valley
f 199//67 200//67 201//67
usemtl plaster_valley
f 202//68 203//68 204//68
usemtl plaster_valley
f 205//69 206//69 207//69
usemtl plaster_valley
f 208//70 209//70 210//70
usemtl plaster_valley
f 211//71 212//71 213//71
usemtl plaster_valley
f 214//72 215//72 216//72
usemtl plaster_valley
f 217//73 218//73 219//73
usemtl plaster_valley
f 220//74 221//74 222//74
usemtl plaster_valley
f 223//75 224//75 225//75
usemtl plaster_valley
f 226//76 227//76 228//76
usemtl plaster_valley
f 229//77 230//77 231//77
usemtl plaster_valley
f 232//78 233//78 234//78
usemtl plaster_valley
f 235//79 236//79 237//79
usemtl plaster_valley
f 238//80 239//80 240//80
usemtl plaster_valley
f 241//81 242//81 243//81
usemtl plaster_valley
f 244//82 245//82 246//82
usemtl plaster_valley
f 247//83 248//83 249//83
usemtl plaster_valley
f 250//84 251//84 252//84
usemtl plaster_valley
f 253//85 254//85 255//85
usemtl plaster_valley
f 256//86 257//86 258//86
usemtl plaster_valley
f 259//87 260//87 261//87
usemtl plaster_valley
f 262//88 263//88 264//88
usemtl plaster_valley
f 265//89 266//89 267//89
usemtl plaster_valley
f 268//90 269//90 270//90
usemtl plaster_valley
f 271//91 272//91 273//91
usemtl plaster_valley
f 274//92 275//92 276//92
usemtl plaster_valley
f 277//93 278//93 279//93
usemtl plaster_valley
f 280//94 281//94 282//94
usemtl plaster_valley
f 283//95 284//95 285//95
usemtl plaster_valley
f 286//96 287//96 288//96
usemtl stone
f 289//97 290//97 291//97
usemtl stone
f 292//98 293//98 294//98
usemtl stone
f 295//99 296//99 297//99
usemtl stone
f 298//100 299//100 300//100
usemtl stone
f 301//101 302//101 303//101
usemtl stone
f 304//102 305//102 306//102
usemtl stone
f 307//103 308//103 309//103
usemtl stone
f 310//104 311//104 312//104
usemtl stone
f 313//105 314//105 315//105
usemtl stone
f 316//106 317//106 318//106
usemtl stone
f 319//107 320//107 321//107
usemtl stone
f 322//108 323//108 324//108
usemtl concrete_dark
f 325//109 326//109 327//109
usemtl concrete_dark
f 328//110 329//110 330//110
usemtl concrete_dark
f 331//111 332//111 333//111
usemtl concrete_dark
f 334//112 335//112 336//112
usemtl concrete_dark
f 337//113 338//113 339//113
usemtl concrete_dark
f 340//114 341//114 342//114
usemtl concrete_dark
f 343//115 344//115 345//115
usemtl concrete_dark
f 346//116 347//116 348//116
usemtl concrete_dark
f 349//117 350//117 351//117
usemtl concrete_dark
f 352//118 353//118 354//118
usemtl concrete_dark
f 355//119 356//119 357//119
usemtl concrete_dark
f 358//120 359//120 360//120
usemtl wood_dark
f 361//121 362//121 363//121
usemtl wood_dark
f 364//122 365//122 366//122
usemtl wood_dark
f 367//123 368//123 369//123
usemtl wood_dark
f 370//124 371//124 372//124
usemtl wood_dark
f 373//125 374//125 375//125
usemtl wood_dark
f 376//126 377//126 378//126
usemtl wood_dark
f 379//127 380//127 381//127
usemtl wood_dark
f 382//128 383//128 384//128
usemtl wood_dark
f 385//129 386//129 387//129
usemtl wood_dark
f 388//130 389//130 390//130
usemtl wood_dark
f 391//131 392//131 393//131
usemtl wood_dark
f 394//132 395//132 396//132
usemtl window
f 397//133 398//133 399//133
usemtl window
f 400//134 401//134 402//134
usemtl window
f 403//135 404//135 405//135
usemtl window
f 406//136 407//136 408//136
usemtl window
f 409//137 410//137 411//137
usemtl window
f 412//138 413//138 414//138
usemtl window
f 415//139 416//139 417//139
usemtl window
f 418//140 419//140 420//140
usemtl window
f 421//141 422//141 423//141
usemtl window
f 424//142 425//142 426//142
usemtl window
f 427//143 428//143 429//143
usemtl window
f 430//144 431//144 432//144
usemtl wood_light
f 433//145 434//145 435//145
usemtl wood_light
f 436//146 437//146 438//146
usemtl wood_light
f 439//147 440//147 441//147
usemtl wood_light
f 442//148 443//148 444//148
usemtl wood_light
f 445//149 446//149 447//149
usemtl wood_light
f 448//150 449//150 450//150
usemtl wood_light
f 451//151 452//151 453//151
usemtl wood_light
f 454//152 455//152 456//152
usemtl wood_light
f 457//153 458//153 459//153
usemtl wood_light
f 460//154 461//154 462//154
usemtl wood_light
f 463//155 464//155 465//155
usemtl wood_light
f 466//156 467//156 468//156
usemtl wood_dark
f 469//157 470//157 471//157
usemtl wood_dark
f 472//158 473//158 474//158
usemtl wood_dark
f 475//159 476//159 477//159
usemtl wood_dark
f 478//160 479//160 480//160
usemtl wood_dark
f 481//161 482//161 483//161
usemtl wood_dark
f 484//162 485//162 486//162
usemtl wood_dark
f 487//163 488//163 489//163
usemtl wood_dark
f 490//164 491//164 492//164
usemtl wood_dark
f 493//165 494//165 495//165
usemtl wood_dark
f 496//166 497//166 498//166
usemtl wood_dark
f 499//167 500//167 501//167
usemtl wood_dark
f 502//168 503//168 504//168
usemtl window
f 505//169 506//169 507//169
usemtl window
f 508//170 509//170 510//170
usemtl window
f 511//171 512//171 513//171
usemtl window
f 514//172 515//172 516//172
usemtl window
f 517//173 518//173 519//173
usemtl window
f 520//174 521//174 522//174
usemtl window
f 523//175 524//175 525//175
usemtl window
f 526//176 527//176 528//176
usemtl window
f 529//177 530//177 531//177
usemtl window
f 532//178 533//178 534//178
usemtl window
f 535//179 536//179 537//179
usemtl window
f 538//180 539//180 540//180
usemtl wood_light
f 541//181 542//181 543//181
usemtl wood_light
f 544//182 545//182 546//182
usemtl wood_light
f 547//183 548//183 549//183
usemtl wood_light
f 550//184 551//184 552//184
usemtl wood_light
f 553//185 554//185 555//185
usemtl wood_light
f 556//186 557//186 558//186
usemtl wood_light
f 559//187 560//187 561//187
usemtl wood_light
f 562//188 563//188 564//188
usemtl wood_light
f 565//189 566//189 567//189
usemtl wood_light
f 568//190 569//190 570//190
usemtl wood_light
f 571//191 572//191 573//191
usemtl wood_light
f 574//192 575//192 576//192
usemtl wood_dark
f 577//193 578//193 579//193
usemtl wood_dark
f 580//194 581//194 582//194
usemtl wood_dark
f 583//195 584//195 585//195
usemtl wood_dark
f 586//196 587//196 588//196
usemtl wood_dark
f 589//197 590//197 591//197
usemtl wood_dark
f 592//198 593//198 594//198
usemtl wood_dark
f 595//199 596//199 597//199
usemtl wood_dark
f 598//200 599//200 600//200
usemtl wood_dark
f 601//201 602//201 603//201
usemtl wood_dark
f 604//202 605//202 606//202
usemtl wood_dark
f 607//203 608//203 609//203
usemtl wood_dark
f 610//204 611//204 612//204
usemtl plaster_valley
f 613//205 614//205 615//205
usemtl plaster_valley
f 616//206 617//206 618//206
usemtl plaster_valley
f 619//207 620//207 621//207
usemtl plaster_valley
f 622//208 623//208 624//208
usemtl plaster_valley
f 625//209 626//209 627//209
usemtl plaster_valley
f 628//210 629//210 630//210
usemtl plaster_valley
f 631//211 632//211 633//211
usemtl plaster_valley
f 634//212 635//212 636//212
usemtl plaster_valley
f 637//213 638//213 639//213
usemtl plaster_valley
f 640//214 641//214 642//214
usemtl plaster_valley
f 643//215 644//215 645//215
usemtl plaster_valley
f 646//216 647//216 648//216
usemtl plaster_valley
f 649//217 650//217 651//217
usemtl plaster_valley
f 652//218 653//218 654//218
usemtl plaster_valley
f 655//219 656//219 657//219
usemtl plaster_valley
f 658//220 659//220 660//220
usemtl roof_valley
f 661//221 662//221 663//221
usemtl roof_valley
f 664//222 665//222 666//222
usemtl roof
f 667//223 668//223 669//223
usemtl roof
f 670//224 671//224 672//224
usemtl roof_valley
f 673//225 674//225 675//225
usemtl roof_valley
f 676//226 677//226 678//226
usemtl roof
f 679//227 680//227 681//227
usemtl roof
f 682//228 683//228 684//228
usemtl roof_valley
f 685//229 686//229 687//229
usemtl roof_valley
f 688//230 689//230 690//230
usemtl roof
f 691//231 692//231 693//231
usemtl roof
f 694//232 695//232 696//232
usemtl roof_valley
f 697//233 698//233 699//233
usemtl roof_valley
f 700//234 701//234 702//234
usemtl roof
f 703//235 704//235 705//235
usemtl roof
f 706//236 707//236 708//236
usemtl roof_valley
f 709//237 710//237 711//237
usemtl roof_valley
f 712//238 713//238 714//238
usemtl roof
f 715//239 716//239 717//239
usemtl roof
f 718//240 719//240 720//240
usemtl roof_valley
f 721//241 722//241 723//241
usemtl roof_valley
f 724//242 725//242 726//242
usemtl roof
f 727//243 728//243 729//243
usemtl roof
f 730//244 731//244 732//244
usemtl wood_dark
f 733//245 734//245 735//245
usemtl wood_dark
f 736//246 737//246 738//246
usemtl wood_dark
f 739//247 740//247 741//247
usemtl wood_dark
f 742//248 743//248 744//248
usemtl wood_dark
f 745//249 746//249 747//249
usemtl wood_dark
f 748//250 749//250 750//250
usemtl wood_dark
f 751//251 752//251 753//251
usemtl wood_dark
f 754//252 755//252 756//252
usemtl wood_dark
f 757//253 758//253 759//253
usemtl wood_dark
f 760//254 761//254 762//254
usemtl wood_dark
f 763//255 764//255 765//255
usemtl wood_dark
f 766//256 767//256 768//256
usemtl wood_dark
f 769//257 770//257 771//257
usemtl wood_dark
f 772//258 773//258 774//258
usemtl wood_dark
f 775//259 776//259 777//259
usemtl wood_dark
f 778//260 779//260 780//260
usemtl wood_dark
f 781//261 782//261 783//261
usemtl wood_dark
f 784//262 785//262 786//262
usemtl wood_dark
f 787//263 788//263 789//263
usemtl wood_dark
f 790//264 791//264 792//264
usemtl wood_dark
f 793//265 794//265 795//265
usemtl wood_dark
f 796//266 797//266 798//266
usemtl wood_dark
f 799//267 800//267 801//267
usemtl wood_dark
f 802//268 803//268 804//268
usemtl wood_dark
f 805//269 806//269 807//269
usemtl wood_dark
f 808//270 809//270 810//270
usemtl wood_dark
f 811//271 812//271 813//271
usemtl wood_dark
f 814//272 815//272 816//272
usemtl wood_dark
f 817//273 818//273 819//273
usemtl wood_dark
f 820//274 821//274 822//274
usemtl wood_dark
f 823//275 824//275 825//275
usemtl wood_dark
f 826//276 827//276 828//276
usemtl wood_dark
f 829//277 830//277 831//277
usemtl wood_dark
f 832//278 833//278 834//278
usemtl wood_dark
f 835//279 836//279 837//279
usemtl wood_dark
f 838//280 839//280 840//280
usemtl roof_valley
f 841//281 842//281 843//281
usemtl roof_valley
f 844//282 845//282 846//282
usemtl roof
f 847//283 848//283 849//283
usemtl roof
f 850//284 851//284 852//284
usemtl roof_valley
f 853//285 854//285 855//285
usemtl roof_valley
f 856//286 857//286 858//286
usemtl roof
f 859//287 860//287 861//287
usemtl roof
f 862//288 863//288 864//288
usemtl roof_valley
f 865//289 866//289 867//289
usemtl roof_valley
f 868//290 869//290 870//290
usemtl roof
f 871//291 872//291 873//291
usemtl roof
f 874//292 875//292 876//292
usemtl roof_valley
f 877//293 878//293 879//293
usemtl roof_valley
f 880//294 881//294 882//294
usemtl roof
f 883//295 884//295 885//295
usemtl roof
f 886//296 887//296 888//296
usemtl roof_valley
f 889//297 890//297 891//297
usemtl roof_valley
f 892//298 893//298 894//298
usemtl roof
f 895//299 896//299 897//299
usemtl roof
f 898//300 899//300 900//300
usemtl roof_valley
f 901//301 902//301 903//301
usemtl roof_valley
f 904//302 905//302 906//302
usemtl roof
f 907//303 908//303 909//303
usemtl roof
f 910//304 911//304 912//304
usemtl wood_dark
f 913//305 914//305 915//305
usemtl wood_dark
f 916//306 917//306 918//306
usemtl wood_dark
f 919//307 920//307 921//307
usemtl wood_dark
f 922//308 923//308 924//308
usemtl wood_dark
f 925//309 926//309 927//309
usemtl wood_dark
f 928//310 929//310 930//310
usemtl wood_dark
f 931//311 932//311 933//311
usemtl wood_dark
f 934//312 935//312 936//312
usemtl wood_dark
f 937//313 938//313 939//313
usemtl wood_dark
f 940//314 941//314 942//314
usemtl wood_dark
f 943//315 944//315 945//315
usemtl wood_dark
f 946//316 947//316 948//316
usemtl wood_dark
f 949//317 950//317 951//317
usemtl wood_dark
f 952//318 953//318 954//318
usemtl wood_dark
f 955//319 956//319 957//319
usemtl wood_dark
f 958//320 959//320 960//320
usemtl wood_dark
f 961//321 962//321 963//321
usemtl wood_dark
f 964//322 965//322 966//322
usemtl wood_dark
f 967//323 968//323 969//323
usemtl wood_dark
f 970//324 971//324 972//324
usemtl wood_dark
f 973//325 974//325 975//325
usemtl wood_dark
f 976//326 977//326 978//326
usemtl wood_dark
f 979//327 980//327 981//327
usemtl wood_dark
f 982//328 983//328 984//328
usemtl wood_dark
f 985//329 986//329 987//329
usemtl wood_dark
f 988//330 989//330 990//330
usemtl wood_dark
f 991//331 992//331 993//331
usemtl wood_dark
f 994//332 995//332 996//332
usemtl wood_dark
f 997//333 998//333 999//333
usemtl wood_dark
f 1000//334 1001//334 1002//334
usemtl wood_dark
f 1003//335 1004//335 1005//335
usemtl wood_dark
f 1006//336 1007//336 1008//336
usemtl wood_dark
f 1009//337 1010//337 1011//337
usemtl wood_dark
f 1012//338 1013//338 1014//338
usemtl wood_dark
f 1015//339 1016//339 1017//339
usemtl wood_dark
f 1018//340 1019//340 1020//340
usemtl plaster_valley
f 1021//341 1022//341 1023//341
usemtl plaster_valley
f 1024//342 1025//342 1026//342
usemtl plaster_valley
f 1027//343 1028//343 1029//343
usemtl plaster_valley
f 1030//344 1031//344 1032//344
usemtl plaster_valley
f 1033//345 1034//345 1035//345
usemtl plaster_valley
f 1036//346 1037//346 1038//346
usemtl plaster_valley
f 1039//347 1040//347 1041//347
usemtl plaster_valley
f 1042//348 1043//348 1044//348
usemtl plaster_valley
f 1045//349 1046//349 1047//349
usemtl plaster_valley
f 1048//350 1049//350 1050//350
usemtl plaster_valley
f 1051//351 1052//351 1053//351
usemtl plaster_valley
f 1054//352 1055//352 1056//352
usemtl concrete_dark
f 1057//353 1058//353 1059//353
usemtl concrete_dark
f 1060//354 1061//354 1062//354
usemtl concrete_dark
f 1063//355 1064//355 1065//355
usemtl concrete_dark
f 1066//356 1067//356 1068//356
usemtl concrete_dark
f 1069//357 1070//357 1071//357
usemtl concrete_dark
f 1072//358 1073//358 1074//358
usemtl concrete_dark
f 1075//359 1076//359 1077//359
usemtl concrete_dark
f 1078//360 1079//360 1080//360
usemtl concrete_dark
f 1081//361 1082//361 1083//361
usemtl concrete_dark
f 1084//362 1085//362 1086//362
usemtl concrete_dark
f 1087//363 1088//363 1089//363
usemtl concrete_dark
f 1090//364 1091//364 1092//364
usemtl roof_valley
f 1093//365 1094//365 1095//365
usemtl roof_valley
f 1096//366 1097//366 1098//366
usemtl roof_valley
f 1099//367 1100//367 1101//367
usemtl roof_valley
f 1102//368 1103//368 1104//368
usemtl roof_valley
f 1105//369 1106//369 1107//369
usemtl roof_valley
f 1108//370 1109//370 1110//370
usemtl roof_valley
f 1111//371 1112//371 1113//371
usemtl roof_valley
f 1114//372 1115//372 1116//372
usemtl roof_valley
f 1117//373 1118//373 1119//373
usemtl roof_valley
f 1120//374 1121//374 1122//374
usemtl roof_valley
f 1123//375 1124//375 1125//375
usemtl roof_valley
f 1126//376 1127//376 1128//376
usemtl roof_valley
f 1129//377 1130//377 1131//377
usemtl roof_valley
f 1132//378 1133//378 1134//378
usemtl roof_valley
f 1135//379 1136//379 1137//379
usemtl roof_valley
f 1138//380 1139//380 1140//380
usemtl roof_valley
f 1141//381 1142//381 1143//381
usemtl roof_valley
f 1144//382 1145//382 1146//382
usemtl roof_valley
f 1147//383 1148//383 1149//383
usemtl roof_valley
f 1150//384 1151//384 1152//384
usemtl roof_valley
f 1153//385 1154//385 1155//385
usemtl roof_valley
f 1156//386 1157//386 1158//386
usemtl roof_valley
f 1159//387 1160//387 1161//387
usemtl roof_valley
f 1162//388 1163//388 1164//388
usemtl roof_valley
f 1165//389 1166//389 1167//389
usemtl roof_valley
f 1168//390 1169//390 1170//390
usemtl roof_valley
f 1171//391 1172//391 1173//391
usemtl roof_valley
f 1174//392 1175//392 1176//392
usemtl roof_valley
f 1177//393 1178//393 1179//393
usemtl roof_valley
f 1180//394 1181//394 1182//394
usemtl roof_valley
f 1183//395 1184//395 1185//395
usemtl roof_valley
f 1186//396 1187//396 1188//396
usemtl roof_valley
f 1189//397 1190//397 1191//397
usemtl roof_valley
f 1192//398 1193//398 1194//398
usemtl roof_valley
f 1195//399 1196//399 1197//399
usemtl roof_valley
f 1198//400 1199//400 1200//400
