# Original Quiet Camp environment study; NOT a downloaded Sketchfab donor
# Units: metres; Y up; no external geometry or textures
mtllib palette.mtl
o ua_valley_well
v 0.5500000 0.6500000 0.0000000
v 0.2750000 0.6500000 0.4763140
v 0.2750000 0.0000000 0.4763140
v 0.5500000 0.6500000 0.0000000
v 0.2750000 0.0000000 0.4763140
v 0.5500000 0.0000000 0.0000000
v 0.3800000 0.6500000 0.0000000
v 0.1900000 0.6500000 0.3290897
v 0.2750000 0.6500000 0.4763140
v 0.3800000 0.6500000 0.0000000
v 0.2750000 0.6500000 0.4763140
v 0.5500000 0.6500000 0.0000000
v 0.3800000 0.0000000 0.0000000
v 0.1900000 0.0000000 0.3290897
v 0.1900000 0.6500000 0.3290897
v 0.3800000 0.0000000 0.0000000
v 0.1900000 0.6500000 0.3290897
v 0.3800000 0.6500000 0.0000000
v 0.2750000 0.6500000 0.4763140
v -0.2750000 0.6500000 0.4763140
v -0.2750000 0.0000000 0.4763140
v 0.2750000 0.6500000 0.4763140
v -0.2750000 0.0000000 0.4763140
v 0.2750000 0.0000000 0.4763140
v 0.1900000 0.6500000 0.3290897
v -0.1900000 0.6500000 0.3290897
v -0.2750000 0.6500000 0.4763140
v 0.1900000 0.6500000 0.3290897
v -0.2750000 0.6500000 0.4763140
v 0.2750000 0.6500000 0.4763140
v 0.1900000 0.0000000 0.3290897
v -0.1900000 0.0000000 0.3290897
v -0.1900000 0.6500000 0.3290897
v 0.1900000 0.0000000 0.3290897
v -0.1900000 0.6500000 0.3290897
v 0.1900000 0.6500000 0.3290897
v -0.2750000 0.6500000 0.4763140
v -0.5500000 0.6500000 0.0000000
v -0.5500000 0.0000000 0.0000000
v -0.2750000 0.6500000 0.4763140
v -0.5500000 0.0000000 0.0000000
v -0.2750000 0.0000000 0.4763140
v -0.1900000 0.6500000 0.3290897
v -0.3800000 0.6500000 0.0000000
v -0.5500000 0.6500000 0.0000000
v -0.1900000 0.6500000 0.3290897
v -0.5500000 0.6500000 0.0000000
v -0.2750000 0.6500000 0.4763140
v -0.1900000 0.0000000 0.3290897
v -0.3800000 0.0000000 0.0000000
v -0.3800000 0.6500000 0.0000000
v -0.1900000 0.0000000 0.3290897
v -0.3800000 0.6500000 0.0000000
v -0.1900000 0.6500000 0.3290897
v -0.5500000 0.6500000 0.0000000
v -0.2750000 0.6500000 -0.4763140
v -0.2750000 0.0000000 -0.4763140
v -0.5500000 0.6500000 0.0000000
v -0.2750000 0.0000000 -0.4763140
v -0.5500000 0.0000000 0.0000000
v -0.3800000 0.6500000 0.0000000
v -0.1900000 0.6500000 -0.3290897
v -0.2750000 0.6500000 -0.4763140
v -0.3800000 0.6500000 0.0000000
v -0.2750000 0.6500000 -0.4763140
v -0.5500000 0.6500000 0.0000000
v -0.3800000 0.0000000 0.0000000
v -0.1900000 0.0000000 -0.3290897
v -0.1900000 0.6500000 -0.3290897
v -0.3800000 0.0000000 0.0000000
v -0.1900000 0.6500000 -0.3290897
v -0.3800000 0.6500000 0.0000000
v -0.2750000 0.6500000 -0.4763140
v 0.2750000 0.6500000 -0.4763140
v 0.2750000 0.0000000 -0.4763140
v -0.2750000 0.6500000 -0.4763140
v 0.2750000 0.0000000 -0.4763140
v -0.2750000 0.0000000 -0.4763140
v -0.1900000 0.6500000 -0.3290897
v 0.1900000 0.6500000 -0.3290897
v 0.2750000 0.6500000 -0.4763140
v -0.1900000 0.6500000 -0.3290897
v 0.2750000 0.6500000 -0.4763140
v -0.2750000 0.6500000 -0.4763140
v -0.1900000 0.0000000 -0.3290897
v 0.1900000 0.0000000 -0.3290897
v 0.1900000 0.6500000 -0.3290897
v -0.1900000 0.0000000 -0.3290897
v 0.1900000 0.6500000 -0.3290897
v -0.1900000 0.6500000 -0.3290897
v 0.2750000 0.6500000 -0.4763140
v 0.5500000 0.6500000 0.0000000
v 0.5500000 0.0000000 0.0000000
v 0.2750000 0.6500000 -0.4763140
v 0.5500000 0.0000000 0.0000000
v 0.2750000 0.0000000 -0.4763140
v 0.1900000 0.6500000 -0.3290897
v 0.3800000 0.6500000 0.0000000
v 0.5500000 0.6500000 0.0000000
v 0.1900000 0.6500000 -0.3290897
v 0.5500000 0.6500000 0.0000000
v 0.2750000 0.6500000 -0.4763140
v 0.1900000 0.0000000 -0.3290897
v 0.3800000 0.0000000 0.0000000
v 0.3800000 0.6500000 0.0000000
v 0.1900000 0.0000000 -0.3290897
v 0.3800000 0.6500000 0.0000000
v 0.1900000 0.6500000 -0.3290897
v -0.7800000 0.0000000 -0.0600000
v -0.7800000 1.4000000 -0.0600000
v -0.6600000 1.4000000 -0.0600000
v -0.7800000 0.0000000 -0.0600000
v -0.6600000 1.4000000 -0.0600000
v -0.6600000 0.0000000 -0.0600000
v -0.7800000 0.0000000 0.0600000
v -0.6600000 0.0000000 0.0600000
v -0.6600000 1.4000000 0.0600000
v -0.7800000 0.0000000 0.0600000
v -0.6600000 1.4000000 0.0600000
v -0.7800000 1.4000000 0.0600000
v -0.7800000 0.0000000 -0.0600000
v -0.7800000 0.0000000 0.0600000
v -0.7800000 1.4000000 0.0600000
v -0.7800000 0.0000000 -0.0600000
v -0.7800000 1.4000000 0.0600000
v -0.7800000 1.4000000 -0.0600000
v -0.6600000 0.0000000 -0.0600000
v -0.6600000 1.4000000 -0.0600000
v -0.6600000 1.4000000 0.0600000
v -0.6600000 0.0000000 -0.0600000
v -0.6600000 1.4000000 0.0600000
v -0.6600000 0.0000000 0.0600000
v -0.7800000 0.0000000 -0.0600000
v -0.6600000 0.0000000 -0.0600000
v -0.6600000 0.0000000 0.0600000
v -0.7800000 0.0000000 -0.0600000
v -0.6600000 0.0000000 0.0600000
v -0.7800000 0.0000000 0.0600000
v -0.7800000 1.4000000 -0.0600000
v -0.7800000 1.4000000 0.0600000
v -0.6600000 1.4000000 0.0600000
v -0.7800000 1.4000000 -0.0600000
v -0.6600000 1.4000000 0.0600000
v -0.6600000 1.4000000 -0.0600000
v 0.6600000 0.0000000 -0.0600000
v 0.6600000 1.4000000 -0.0600000
v 0.7800000 1.4000000 -0.0600000
v 0.6600000 0.0000000 -0.0600000
v 0.7800000 1.4000000 -0.0600000
v 0.7800000 0.0000000 -0.0600000
v 0.6600000 0.0000000 0.0600000
v 0.7800000 0.0000000 0.0600000
v 0.7800000 1.4000000 0.0600000
v 0.6600000 0.0000000 0.0600000
v 0.7800000 1.4000000 0.0600000
v 0.6600000 1.4000000 0.0600000
v 0.6600000 0.0000000 -0.0600000
v 0.6600000 0.0000000 0.0600000
v 0.6600000 1.4000000 0.0600000
v 0.6600000 0.0000000 -0.0600000
v 0.6600000 1.4000000 0.0600000
v 0.6600000 1.4000000 -0.0600000
v 0.7800000 0.0000000 -0.0600000
v 0.7800000 1.4000000 -0.0600000
v 0.7800000 1.4000000 0.0600000
v 0.7800000 0.0000000 -0.0600000
v 0.7800000 1.4000000 0.0600000
v 0.7800000 0.0000000 0.0600000
v 0.6600000 0.0000000 -0.0600000
v 0.7800000 0.0000000 -0.0600000
v 0.7800000 0.0000000 0.0600000
v 0.6600000 0.0000000 -0.0600000
v 0.7800000 0.0000000 0.0600000
v 0.6600000 0.0000000 0.0600000
v 0.6600000 1.4000000 -0.0600000
v 0.6600000 1.4000000 0.0600000
v 0.7800000 1.4000000 0.0600000
v 0.6600000 1.4000000 -0.0600000
v 0.7800000 1.4000000 0.0600000
v 0.7800000 1.4000000 -0.0600000
v -0.7300000 0.8400000 0.0800000
v -0.7300000 0.8400000 -0.0800000
v 0.7300000 0.8400000 -0.0800000
v -0.7300000 0.8400000 0.0800000
v 0.7300000 0.8400000 -0.0800000
v 0.7300000 0.8400000 0.0800000
v -0.7300000 0.8400000 -0.0800000
v -0.7300000 1.0000000 -0.0800000
v 0.7300000 1.0000000 -0.0800000
v -0.7300000 0.8400000 -0.0800000
v 0.7300000 1.0000000 -0.0800000
v 0.7300000 0.8400000 -0.0800000
v -0.7300000 1.0000000 -0.0800000
v -0.7300000 1.0000000 0.0800000
v 0.7300000 1.0000000 0.0800000
v -0.7300000 1.0000000 -0.0800000
v 0.7300000 1.0000000 0.0800000
v 0.7300000 1.0000000 -0.0800000
v -0.7300000 1.0000000 0.0800000
v -0.7300000 0.8400000 0.0800000
v 0.7300000 0.8400000 0.0800000
v -0.7300000 1.0000000 0.0800000
v 0.7300000 0.8400000 0.0800000
v 0.7300000 1.0000000 0.0800000
v -0.7300000 1.0000000 0.0800000
v -0.7300000 1.0000000 -0.0800000
v -0.7300000 0.8400000 -0.0800000
v -0.7300000 1.0000000 0.0800000
v -0.7300000 0.8400000 -0.0800000
v -0.7300000 0.8400000 0.0800000
v 0.7300000 0.8400000 0.0800000
v 0.7300000 0.8400000 -0.0800000
v 0.7300000 1.0000000 -0.0800000
v 0.7300000 0.8400000 0.0800000
v 0.7300000 1.0000000 -0.0800000
v 0.7300000 1.0000000 0.0800000
v -0.9000000 1.6000000 0.0000000
v 0.9000000 1.6000000 0.0000000
v 0.9000000 1.2900000 -0.6500000
v -0.9000000 1.6000000 0.0000000
v 0.9000000 1.2900000 -0.6500000
v -0.9000000 1.2900000 -0.6500000
v -0.9000000 1.2900000 0.6500000
v 0.9000000 1.2900000 0.6500000
v 0.9000000 1.6000000 0.0000000
v -0.9000000 1.2900000 0.6500000
v 0.9000000 1.6000000 0.0000000
v -0.9000000 1.6000000 0.0000000
vn 0.8660254 0.0000000 0.5000000
vn 0.8660254 0.0000000 0.5000000
vn 0.0000000 1.0000000 0.0000000
vn 0.0000000 1.0000000 0.0000000
vn -0.8660254 0.0000000 -0.5000000
vn -0.8660254 0.0000000 -0.5000000
vn 0.0000000 0.0000000 1.0000000
vn 0.0000000 0.0000000 1.0000000
vn 0.0000000 1.0000000 0.0000000
vn 0.0000000 1.0000000 0.0000000
vn 0.0000000 0.0000000 -1.0000000
vn 0.0000000 0.0000000 -1.0000000
vn -0.8660254 0.0000000 0.5000000
vn -0.8660254 0.0000000 0.5000000
vn 0.0000000 1.0000000 0.0000000
vn 0.0000000 1.0000000 0.0000000
vn 0.8660254 0.0000000 -0.5000000
vn 0.8660254 0.0000000 -0.5000000
vn -0.8660254 0.0000000 -0.5000000
vn -0.8660254 0.0000000 -0.5000000
vn 0.0000000 1.0000000 0.0000000
vn 0.0000000 1.0000000 0.0000000
vn 0.8660254 0.0000000 0.5000000
vn 0.8660254 0.0000000 0.5000000
vn 0.0000000 0.0000000 -1.0000000
vn 0.0000000 0.0000000 -1.0000000
vn 0.0000000 1.0000000 0.0000000
vn 0.0000000 1.0000000 0.0000000
vn 0.0000000 0.0000000 1.0000000
vn 0.0000000 0.0000000 1.0000000
vn 0.8660254 0.0000000 -0.5000000
vn 0.8660254 0.0000000 -0.5000000
vn 0.0000000 1.0000000 0.0000000
vn 0.0000000 1.0000000 0.0000000
vn -0.8660254 0.0000000 0.5000000
vn -0.8660254 0.0000000 0.5000000
vn 0.0000000 0.0000000 -1.0000000
vn 0.0000000 0.0000000 -1.0000000
vn 0.0000000 0.0000000 1.0000000
vn 0.0000000 0.0000000 1.0000000
vn -1.0000000 0.0000000 0.0000000
vn -1.0000000 0.0000000 0.0000000
vn 1.0000000 0.0000000 0.0000000
vn 1.0000000 0.0000000 0.0000000
vn 0.0000000 -1.0000000 0.0000000
vn 0.0000000 -1.0000000 0.0000000
vn 0.0000000 1.0000000 0.0000000
vn 0.0000000 1.0000000 0.0000000
vn 0.0000000 0.0000000 -1.0000000
vn 0.0000000 0.0000000 -1.0000000
vn 0.0000000 0.0000000 1.0000000
vn 0.0000000 0.0000000 1.0000000
vn -1.0000000 0.0000000 0.0000000
vn -1.0000000 0.0000000 0.0000000
vn 1.0000000 0.0000000 0.0000000
vn 1.0000000 0.0000000 0.0000000
vn 0.0000000 -1.0000000 0.0000000
vn 0.0000000 -1.0000000 0.0000000
vn 0.0000000 1.0000000 0.0000000
vn 0.0000000 1.0000000 0.0000000
vn 0.0000000 -1.0000000 0.0000000
vn 0.0000000 -1.0000000 0.0000000
vn 0.0000000 0.0000000 -1.0000000
vn 0.0000000 0.0000000 -1.0000000
vn 0.0000000 1.0000000 0.0000000
vn 0.0000000 1.0000000 0.0000000
vn 0.0000000 0.0000000 1.0000000
vn 0.0000000 0.0000000 1.0000000
vn -1.0000000 0.0000000 0.0000000
vn -1.0000000 0.0000000 0.0000000
vn 1.0000000 0.0000000 0.0000000
vn 1.0000000 0.0000000 0.0000000
vn 0.0000000 0.9026037 -0.4304725
vn 0.0000000 0.9026037 -0.4304725
vn 0.0000000 0.9026037 0.4304725
vn 0.0000000 0.9026037 0.4304725
usemtl concrete_dark
f 1//1 2//1 3//1
usemtl concrete_dark
f 4//2 5//2 6//2
usemtl stone
f 7//3 8//3 9//3
usemtl stone
f 10//4 11//4 12//4
usemtl wood_dark
f 13//5 14//5 15//5
usemtl wood_dark
f 16//6 17//6 18//6
usemtl concrete_dark
f 19//7 20//7 21//7
usemtl concrete_dark
f 22//8 23//8 24//8
usemtl stone
f 25//9 26//9 27//9
usemtl stone
f 28//10 29//10 30//10
usemtl wood_dark
f 31//11 32//11 33//11
usemtl wood_dark
f 34//12 35//12 36//12
usemtl concrete_dark
f 37//13 38//13 39//13
usemtl concrete_dark
f 40//14 41//14 42//14
usemtl stone
f 43//15 44//15 45//15
usemtl stone
f 46//16 47//16 48//16
usemtl wood_dark
f 49//17 50//17 51//17
usemtl wood_dark
f 52//18 53//18 54//18
usemtl concrete_dark
f 55//19 56//19 57//19
usemtl concrete_dark
f 58//20 59//20 60//20
usemtl stone
f 61//21 62//21 63//21
usemtl stone
f 64//22 65//22 66//22
usemtl wood_dark
f 67//23 68//23 69//23
usemtl wood_dark
f 70//24 71//24 72//24
usemtl concrete_dark
f 73//25 74//25 75//25
usemtl concrete_dark
f 76//26 77//26 78//26
usemtl stone
f 79//27 80//27 81//27
usemtl stone
f 82//28 83//28 84//28
usemtl wood_dark
f 85//29 86//29 87//29
usemtl wood_dark
f 88//30 89//30 90//30
usemtl concrete_dark
f 91//31 92//31 93//31
usemtl concrete_dark
f 94//32 95//32 96//32
usemtl stone
f 97//33 98//33 99//33
usemtl stone
f 100//34 101//34 102//34
usemtl wood_dark
f 103//35 104//35 105//35
usemtl wood_dark
f 106//36 107//36 108//36
usemtl wood_dark
f 109//37 110//37 111//37
usemtl wood_dark
f 112//38 113//38 114//38
usemtl wood_dark
f 115//39 116//39 117//39
usemtl wood_dark
f 118//40 119//40 120//40
usemtl wood_dark
f 121//41 122//41 123//41
usemtl wood_dark
f 124//42 125//42 126//42
usemtl wood_dark
f 127//43 128//43 129//43
usemtl wood_dark
f 130//44 131//44 132//44
usemtl wood_dark
f 133//45 134//45 135//45
usemtl wood_dark
f 136//46 137//46 138//46
usemtl wood_dark
f 139//47 140//47 141//47
usemtl wood_dark
f 142//48 143//48 144//48
usemtl wood_dark
f 145//49 146//49 147//49
usemtl wood_dark
f 148//50 149//50 150//50
usemtl wood_dark
f 151//51 152//51 153//51
usemtl wood_dark
f 154//52 155//52 156//52
usemtl wood_dark
f 157//53 158//53 159//53
usemtl wood_dark
f 160//54 161//54 162//54
usemtl wood_dark
f 163//55 164//55 165//55
usemtl wood_dark
f 166//56 167//56 168//56
usemtl wood_dark
f 169//57 170//57 171//57
usemtl wood_dark
f 172//58 173//58 174//58
usemtl wood_dark
f 175//59 176//59 177//59
usemtl wood_dark
f 178//60 179//60 180//60
usemtl wood
f 181//61 182//61 183//61
usemtl wood
f 184//62 185//62 186//62
usemtl wood
f 187//63 188//63 189//63
usemtl wood
f 190//64 191//64 192//64
usemtl wood
f 193//65 194//65 195//65
usemtl wood
f 196//66 197//66 198//66
usemtl wood
f 199//67 200//67 201//67
usemtl wood
f 202//68 203//68 204//68
usemtl wood
f 205//69 206//69 207//69
usemtl wood
f 208//70 209//70 210//70
usemtl wood
f 211//71 212//71 213//71
usemtl wood
f 214//72 215//72 216//72
usemtl roof_valley
f 217//73 218//73 219//73
usemtl roof_valley
f 220//74 221//74 222//74
usemtl roof_valley
f 223//75 224//75 225//75
usemtl roof_valley
f 226//76 227//76 228//76
