# Original Quiet Camp environment study; NOT a downloaded Sketchfab donor
# Units: metres; Y up; no external geometry or textures
mtllib palette.mtl
o ua_valley_poplar
v -0.0999697 0.0036934 -0.0999621
v -0.0999697 0.0012305 0.1000227
v -0.0199697 3.2492305 0.1400227
v -0.0999697 0.0036934 -0.0999621
v -0.0199697 3.2492305 0.1400227
v -0.0199697 3.2516934 -0.0599621
v -0.0999697 0.0012305 0.1000227
v 0.0999697 -0.0036934 0.0999621
v 0.1799697 3.2443066 0.1399621
v -0.0999697 0.0012305 0.1000227
v 0.1799697 3.2443066 0.1399621
v -0.0199697 3.2492305 0.1400227
v 0.0999697 -0.0036934 0.0999621
v 0.0999697 -0.0012305 -0.1000227
v 0.1799697 3.2467695 -0.0600227
v 0.0999697 -0.0036934 0.0999621
v 0.1799697 3.2467695 -0.0600227
v 0.1799697 3.2443066 0.1399621
v 0.0999697 -0.0012305 -0.1000227
v -0.0999697 0.0036934 -0.0999621
v -0.0199697 3.2516934 -0.0599621
v 0.0999697 -0.0012305 -0.1000227
v -0.0199697 3.2516934 -0.0599621
v 0.1799697 3.2467695 -0.0600227
v 0.0999697 -0.0012305 -0.1000227
v 0.0999697 -0.0036934 0.0999621
v -0.0999697 0.0012305 0.1000227
v 0.0999697 -0.0012305 -0.1000227
v -0.0999697 0.0012305 0.1000227
v -0.0999697 0.0036934 -0.0999621
v -0.0199697 3.2516934 -0.0599621
v -0.0199697 3.2492305 0.1400227
v 0.1799697 3.2443066 0.1399621
v -0.0199697 3.2516934 -0.0599621
v 0.1799697 3.2443066 0.1399621
v 0.1799697 3.2467695 -0.0600227
v 0.0700000 1.7852800 0.0000000
v 0.7091000 2.8672000 0.0000000
v 0.3895500 2.8672000 0.5534768
v 0.7091000 2.8672000 0.0000000
v 0.8336000 4.4900800 0.0000000
v 0.4518000 4.4900800 0.6612970
v 0.7091000 2.8672000 0.0000000
v 0.4518000 4.4900800 0.6612970
v 0.3895500 2.8672000 0.5534768
v 0.1200000 5.6492800 0.0000000
v 0.4518000 4.4900800 0.6612970
v 0.8336000 4.4900800 0.0000000
v 0.0700000 1.7852800 0.0000000
v 0.3895500 2.8672000 0.5534768
v -0.2495500 2.8672000 0.5534768
v 0.3895500 2.8672000 0.5534768
v 0.4518000 4.4900800 0.6612970
v -0.3118000 4.4900800 0.6612970
v 0.3895500 2.8672000 0.5534768
v -0.3118000 4.4900800 0.6612970
v -0.2495500 2.8672000 0.5534768
v 0.1200000 5.6492800 0.0000000
v -0.3118000 4.4900800 0.6612970
v 0.4518000 4.4900800 0.6612970
v 0.0700000 1.7852800 0.0000000
v -0.2495500 2.8672000 0.5534768
v -0.5691000 2.8672000 0.0000000
v -0.2495500 2.8672000 0.5534768
v -0.3118000 4.4900800 0.6612970
v -0.6936000 4.4900800 0.0000000
v -0.2495500 2.8672000 0.5534768
v -0.6936000 4.4900800 0.0000000
v -0.5691000 2.8672000 0.0000000
v 0.1200000 5.6492800 0.0000000
v -0.6936000 4.4900800 0.0000000
v -0.3118000 4.4900800 0.6612970
v 0.0700000 1.7852800 0.0000000
v -0.5691000 2.8672000 0.0000000
v -0.2495500 2.8672000 -0.5534768
v -0.5691000 2.8672000 0.0000000
v -0.6936000 4.4900800 0.0000000
v -0.3118000 4.4900800 -0.6612970
v -0.5691000 2.8672000 0.0000000
v -0.3118000 4.4900800 -0.6612970
v -0.2495500 2.8672000 -0.5534768
v 0.1200000 5.6492800 0.0000000
v -0.3118000 4.4900800 -0.6612970
v -0.6936000 4.4900800 0.0000000
v 0.0700000 1.7852800 0.0000000
v -0.2495500 2.8672000 -0.5534768
v 0.3895500 2.8672000 -0.5534768
v -0.2495500 2.8672000 -0.5534768
v -0.3118000 4.4900800 -0.6612970
v 0.4518000 4.4900800 -0.6612970
v -0.2495500 2.8672000 -0.5534768
v 0.4518000 4.4900800 -0.6612970
v 0.3895500 2.8672000 -0.5534768
v 0.1200000 5.6492800 0.0000000
v 0.4518000 4.4900800 -0.6612970
v -0.3118000 4.4900800 -0.6612970
v 0.0700000 1.7852800 0.0000000
v 0.3895500 2.8672000 -0.5534768
v 0.7091000 2.8672000 0.0000000
v 0.3895500 2.8672000 -0.5534768
v 0.4518000 4.4900800 -0.6612970
v 0.8336000 4.4900800 0.0000000
v 0.3895500 2.8672000 -0.5534768
v 0.8336000 4.4900800 0.0000000
v 0.7091000 2.8672000 0.0000000
v 0.1200000 5.6492800 0.0000000
v 0.8336000 4.4900800 0.0000000
v 0.4518000 4.4900800 -0.6612970
vn -0.9996969 0.0246193 0.0003032
vn -0.9996969 0.0246193 0.0003032
vn 0.0000000 -0.0123143 0.9999242
vn 0.0000000 -0.0123143 0.9999242
vn 0.9996969 -0.0246193 -0.0003032
vn 0.9996969 -0.0246193 -0.0003032
vn 0.0000000 0.0123143 -0.9999242
vn 0.0000000 0.0123143 -0.9999242
vn -0.0246212 -0.9996211 -0.0123106
vn -0.0246212 -0.9996211 -0.0123106
vn 0.0246212 0.9996211 0.0123106
vn 0.0246212 0.9996211 0.0123106
vn 0.7709959 -0.4554343 0.4451347
vn 0.8641204 -0.0662914 0.4989002
vn 0.8641204 -0.0662914 0.4989002
vn 0.7642069 0.4704435 0.4412151
vn 0.0000000 -0.4554343 0.8902694
vn 0.0000000 -0.0662914 0.9978003
vn 0.0000000 -0.0662914 0.9978003
vn 0.0000000 0.4955158 0.8685989
vn -0.7709959 -0.4554343 0.4451347
vn -0.8641204 -0.0662914 0.4989002
vn -0.8641204 -0.0662914 0.4989002
vn -0.7400415 0.5194080 0.4272632
vn -0.7709959 -0.4554343 -0.4451347
vn -0.8641204 -0.0662914 -0.4989002
vn -0.8641204 -0.0662914 -0.4989002
vn -0.7400415 0.5194080 -0.4272632
vn 0.0000000 -0.4554343 -0.8902694
vn 0.0000000 -0.0662914 -0.9978003
vn 0.0000000 -0.0662914 -0.9978003
vn 0.0000000 0.4955158 -0.8685989
vn 0.7709959 -0.4554343 -0.4451347
vn 0.8641204 -0.0662914 -0.4989002
vn 0.8641204 -0.0662914 -0.4989002
vn 0.7642069 0.4704435 -0.4412151
usemtl wood_dark
f 1//1 2//1 3//1
usemtl wood_dark
f 4//2 5//2 6//2
usemtl wood_dark
f 7//3 8//3 9//3
usemtl wood_dark
f 10//4 11//4 12//4
usemtl wood_dark
f 13//5 14//5 15//5
usemtl wood_dark
f 16//6 17//6 18//6
usemtl wood_dark
f 19//7 20//7 21//7
usemtl wood_dark
f 22//8 23//8 24//8
usemtl wood_dark
f 25//9 26//9 27//9
usemtl wood_dark
f 28//10 29//10 30//10
usemtl wood_dark
f 31//11 32//11 33//11
usemtl wood_dark
f 34//12 35//12 36//12
usemtl leaf_dark
f 37//13 38//13 39//13
usemtl leaf
f 40//14 41//14 42//14
usemtl leaf
f 43//15 44//15 45//15
usemtl leaf_light
f 46//16 47//16 48//16
usemtl leaf_dark
f 49//17 50//17 51//17
usemtl leaf
f 52//18 53//18 54//18
usemtl leaf
f 55//19 56//19 57//19
usemtl leaf_light
f 58//20 59//20 60//20
usemtl leaf_dark
f 61//21 62//21 63//21
usemtl leaf
f 64//22 65//22 66//22
usemtl leaf
f 67//23 68//23 69//23
usemtl leaf_light
f 70//24 71//24 72//24
usemtl leaf_dark
f 73//25 74//25 75//25
usemtl leaf
f 76//26 77//26 78//26
usemtl leaf
f 79//27 80//27 81//27
usemtl leaf_light
f 82//28 83//28 84//28
usemtl leaf_dark
f 85//29 86//29 87//29
usemtl leaf
f 88//30 89//30 90//30
usemtl leaf
f 91//31 92//31 93//31
usemtl leaf_light
f 94//32 95//32 96//32
usemtl leaf_dark
f 97//33 98//33 99//33
usemtl leaf
f 100//34 101//34 102//34
usemtl leaf
f 103//35 104//35 105//35
usemtl leaf_light
f 106//36 107//36 108//36
