# Original Quiet Camp environment study; NOT a downloaded Sketchfab donor
# Units: metres; Y up; no external geometry or textures
mtllib palette.mtl
o ua_valley_gate
v -1.3333333 0.3025000 0.0150000
v -1.3333333 0.3975000 0.0150000
v 1.3333333 0.3975000 0.0150000
v -1.3333333 0.3025000 0.0150000
v 1.3333333 0.3975000 0.0150000
v 1.3333333 0.3025000 0.0150000
v -1.3333333 0.3025000 0.0950000
v 1.3333333 0.3025000 0.0950000
v 1.3333333 0.3975000 0.0950000
v -1.3333333 0.3025000 0.0950000
v 1.3333333 0.3975000 0.0950000
v -1.3333333 0.3975000 0.0950000
v -1.3333333 0.3025000 0.0150000
v -1.3333333 0.3025000 0.0950000
v -1.3333333 0.3975000 0.0950000
v -1.3333333 0.3025000 0.0150000
v -1.3333333 0.3975000 0.0950000
v -1.3333333 0.3975000 0.0150000
v 1.3333333 0.3025000 0.0150000
v 1.3333333 0.3975000 0.0150000
v 1.3333333 0.3975000 0.0950000
v 1.3333333 0.3025000 0.0150000
v 1.3333333 0.3975000 0.0950000
v 1.3333333 0.3025000 0.0950000
v -1.3333333 0.3025000 0.0150000
v 1.3333333 0.3025000 0.0150000
v 1.3333333 0.3025000 0.0950000
v -1.3333333 0.3025000 0.0150000
v 1.3333333 0.3025000 0.0950000
v -1.3333333 0.3025000 0.0950000
v -1.3333333 0.3975000 0.0150000
v -1.3333333 0.3975000 0.0950000
v 1.3333333 0.3975000 0.0950000
v -1.3333333 0.3975000 0.0150000
v 1.3333333 0.3975000 0.0950000
v 1.3333333 0.3975000 0.0150000
v -1.3333333 0.8225000 0.0150000
v -1.3333333 0.9175000 0.0150000
v 1.3333333 0.9175000 0.0150000
v -1.3333333 0.8225000 0.0150000
v 1.3333333 0.9175000 0.0150000
v 1.3333333 0.8225000 0.0150000
v -1.3333333 0.8225000 0.0950000
v 1.3333333 0.8225000 0.0950000
v 1.3333333 0.9175000 0.0950000
v -1.3333333 0.8225000 0.0950000
v 1.3333333 0.9175000 0.0950000
v -1.3333333 0.9175000 0.0950000
v -1.3333333 0.8225000 0.0150000
v -1.3333333 0.8225000 0.0950000
v -1.3333333 0.9175000 0.0950000
v -1.3333333 0.8225000 0.0150000
v -1.3333333 0.9175000 0.0950000
v -1.3333333 0.9175000 0.0150000
v 1.3333333 0.8225000 0.0150000
v 1.3333333 0.9175000 0.0150000
v 1.3333333 0.9175000 0.0950000
v 1.3333333 0.8225000 0.0150000
v 1.3333333 0.9175000 0.0950000
v 1.3333333 0.8225000 0.0950000
v -1.3333333 0.8225000 0.0150000
v 1.3333333 0.8225000 0.0150000
v 1.3333333 0.8225000 0.0950000
v -1.3333333 0.8225000 0.0150000
v 1.3333333 0.8225000 0.0950000
v -1.3333333 0.8225000 0.0950000
v -1.3333333 0.9175000 0.0150000
v -1.3333333 0.9175000 0.0950000
v 1.3333333 0.9175000 0.0950000
v -1.3333333 0.9175000 0.0150000
v 1.3333333 0.9175000 0.0950000
v 1.3333333 0.9175000 0.0150000
v -1.3333333 0.0000000 -0.0700000
v -1.3333333 1.3000000 -0.0700000
v -1.1933333 1.3000000 -0.0700000
v -1.3333333 0.0000000 -0.0700000
v -1.1933333 1.3000000 -0.0700000
v -1.1933333 0.0000000 -0.0700000
v -1.3333333 0.0000000 0.0700000
v -1.1933333 0.0000000 0.0700000
v -1.1933333 1.3000000 0.0700000
v -1.3333333 0.0000000 0.0700000
v -1.1933333 1.3000000 0.0700000
v -1.3333333 1.3000000 0.0700000
v -1.3333333 0.0000000 -0.0700000
v -1.3333333 0.0000000 0.0700000
v -1.3333333 1.3000000 0.0700000
v -1.3333333 0.0000000 -0.0700000
v -1.3333333 1.3000000 0.0700000
v -1.3333333 1.3000000 -0.0700000
v -1.1933333 0.0000000 -0.0700000
v -1.1933333 1.3000000 -0.0700000
v -1.1933333 1.3000000 0.0700000
v -1.1933333 0.0000000 -0.0700000
v -1.1933333 1.3000000 0.0700000
v -1.1933333 0.0000000 0.0700000
v -1.3333333 0.0000000 -0.0700000
v -1.1933333 0.0000000 -0.0700000
v -1.1933333 0.0000000 0.0700000
v -1.3333333 0.0000000 -0.0700000
v -1.1933333 0.0000000 0.0700000
v -1.3333333 0.0000000 0.0700000
v -1.3333333 1.3000000 -0.0700000
v -1.3333333 1.3000000 0.0700000
v -1.1933333 1.3000000 0.0700000
v -1.3333333 1.3000000 -0.0700000
v -1.1933333 1.3000000 0.0700000
v -1.1933333 1.3000000 -0.0700000
v -1.1308178 0.0509250 -0.1450000
v -1.1308178 0.0509250 0.0750000
v -1.0958178 1.0909250 0.0750000
v -1.1308178 0.0509250 -0.1450000
v -1.0958178 1.0909250 0.0750000
v -1.0958178 1.0909250 -0.1450000
v -1.1308178 0.0509250 0.0750000
v -1.0758489 0.0490750 0.0750000
v -1.0408489 1.0890750 0.0750000
v -1.1308178 0.0509250 0.0750000
v -1.0408489 1.0890750 0.0750000
v -1.0958178 1.0909250 0.0750000
v -1.0758489 0.0490750 0.0750000
v -1.0758489 0.0490750 -0.1450000
v -1.0408489 1.0890750 -0.1450000
v -1.0758489 0.0490750 0.0750000
v -1.0408489 1.0890750 -0.1450000
v -1.0408489 1.0890750 0.0750000
v -1.0758489 0.0490750 -0.1450000
v -1.1308178 0.0509250 -0.1450000
v -1.0958178 1.0909250 -0.1450000
v -1.0758489 0.0490750 -0.1450000
v -1.0958178 1.0909250 -0.1450000
v -1.0408489 1.0890750 -0.1450000
v -1.0758489 0.0490750 -0.1450000
v -1.0758489 0.0490750 0.0750000
v -1.1308178 0.0509250 0.0750000
v -1.0758489 0.0490750 -0.1450000
v -1.1308178 0.0509250 0.0750000
v -1.1308178 0.0509250 -0.1450000
v -1.0958178 1.0909250 -0.1450000
v -1.0958178 1.0909250 0.0750000
v -1.0408489 1.0890750 0.0750000
v -1.0958178 1.0909250 -0.1450000
v -1.0408489 1.0890750 0.0750000
v -1.0408489 1.0890750 -0.1450000
v -0.7808300 0.0495748 -0.1450000
v -0.7808300 0.0495748 0.0750000
v -0.7958300 1.0195748 0.0750000
v -0.7808300 0.0495748 -0.1450000
v -0.7958300 1.0195748 0.0750000
v -0.7958300 1.0195748 -0.1450000
v -0.7808300 0.0495748 0.0750000
v -0.7258366 0.0504252 0.0750000
v -0.7408366 1.0204252 0.0750000
v -0.7808300 0.0495748 0.0750000
v -0.7408366 1.0204252 0.0750000
v -0.7958300 1.0195748 0.0750000
v -0.7258366 0.0504252 0.0750000
v -0.7258366 0.0504252 -0.1450000
v -0.7408366 1.0204252 -0.1450000
v -0.7258366 0.0504252 0.0750000
v -0.7408366 1.0204252 -0.1450000
v -0.7408366 1.0204252 0.0750000
v -0.7258366 0.0504252 -0.1450000
v -0.7808300 0.0495748 -0.1450000
v -0.7958300 1.0195748 -0.1450000
v -0.7258366 0.0504252 -0.1450000
v -0.7958300 1.0195748 -0.1450000
v -0.7408366 1.0204252 -0.1450000
v -0.7258366 0.0504252 -0.1450000
v -0.7258366 0.0504252 0.0750000
v -0.7808300 0.0495748 0.0750000
v -0.7258366 0.0504252 -0.1450000
v -0.7808300 0.0495748 0.0750000
v -0.7808300 0.0495748 -0.1450000
v -0.7958300 1.0195748 -0.1450000
v -0.7958300 1.0195748 0.0750000
v -0.7408366 1.0204252 0.0750000
v -0.7958300 1.0195748 -0.1450000
v -0.7408366 1.0204252 0.0750000
v -0.7408366 1.0204252 -0.1450000
v -0.4308306 0.0496145 -0.1450000
v -0.4308306 0.0496145 0.0750000
v -0.4458306 1.1196145 0.0750000
v -0.4308306 0.0496145 -0.1450000
v -0.4458306 1.1196145 0.0750000
v -0.4458306 1.1196145 -0.1450000
v -0.4308306 0.0496145 0.0750000
v -0.3758360 0.0503855 0.0750000
v -0.3908360 1.1203855 0.0750000
v -0.4308306 0.0496145 0.0750000
v -0.3908360 1.1203855 0.0750000
v -0.4458306 1.1196145 0.0750000
v -0.3758360 0.0503855 0.0750000
v -0.3758360 0.0503855 -0.1450000
v -0.3908360 1.1203855 -0.1450000
v -0.3758360 0.0503855 0.0750000
v -0.3908360 1.1203855 -0.1450000
v -0.3908360 1.1203855 0.0750000
v -0.3758360 0.0503855 -0.1450000
v -0.4308306 0.0496145 -0.1450000
v -0.4458306 1.1196145 -0.1450000
v -0.3758360 0.0503855 -0.1450000
v -0.4458306 1.1196145 -0.1450000
v -0.3908360 1.1203855 -0.1450000
v -0.3758360 0.0503855 -0.1450000
v -0.3758360 0.0503855 0.0750000
v -0.4308306 0.0496145 0.0750000
v -0.3758360 0.0503855 -0.1450000
v -0.4308306 0.0496145 0.0750000
v -0.4308306 0.0496145 -0.1450000
v -0.4458306 1.1196145 -0.1450000
v -0.4458306 1.1196145 0.0750000
v -0.3908360 1.1203855 0.0750000
v -0.4458306 1.1196145 -0.1450000
v -0.3908360 1.1203855 0.0750000
v -0.3908360 1.1203855 -0.1450000
v -0.0808162 0.0509716 -0.1450000
v -0.0808162 0.0509716 0.0750000
v -0.0458162 1.0409716 0.0750000
v -0.0808162 0.0509716 -0.1450000
v -0.0458162 1.0409716 0.0750000
v -0.0458162 1.0409716 -0.1450000
v -0.0808162 0.0509716 0.0750000
v -0.0258505 0.0490284 0.0750000
v 0.0091495 1.0390284 0.0750000
v -0.0808162 0.0509716 0.0750000
v 0.0091495 1.0390284 0.0750000
v -0.0458162 1.0409716 0.0750000
v -0.0258505 0.0490284 0.0750000
v -0.0258505 0.0490284 -0.1450000
v 0.0091495 1.0390284 -0.1450000
v -0.0258505 0.0490284 0.0750000
v 0.0091495 1.0390284 -0.1450000
v 0.0091495 1.0390284 0.0750000
v -0.0258505 0.0490284 -0.1450000
v -0.0808162 0.0509716 -0.1450000
v -0.0458162 1.0409716 -0.1450000
v -0.0258505 0.0490284 -0.1450000
v -0.0458162 1.0409716 -0.1450000
v 0.0091495 1.0390284 -0.1450000
v -0.0258505 0.0490284 -0.1450000
v -0.0258505 0.0490284 0.0750000
v -0.0808162 0.0509716 0.0750000
v -0.0258505 0.0490284 -0.1450000
v -0.0808162 0.0509716 0.0750000
v -0.0808162 0.0509716 -0.1450000
v -0.0458162 1.0409716 -0.1450000
v -0.0458162 1.0409716 0.0750000
v 0.0091495 1.0390284 0.0750000
v -0.0458162 1.0409716 -0.1450000
v 0.0091495 1.0390284 0.0750000
v 0.0091495 1.0390284 -0.1450000
v 0.2691702 0.0495612 -0.1450000
v 0.2691702 0.0495612 0.0750000
v 0.2541702 0.9895612 0.0750000
v 0.2691702 0.0495612 -0.1450000
v 0.2541702 0.9895612 0.0750000
v 0.2541702 0.9895612 -0.1450000
v 0.2691702 0.0495612 0.0750000
v 0.3241632 0.0504388 0.0750000
v 0.3091632 0.9904388 0.0750000
v 0.2691702 0.0495612 0.0750000
v 0.3091632 0.9904388 0.0750000
v 0.2541702 0.9895612 0.0750000
v 0.3241632 0.0504388 0.0750000
v 0.3241632 0.0504388 -0.1450000
v 0.3091632 0.9904388 -0.1450000
v 0.3241632 0.0504388 0.0750000
v 0.3091632 0.9904388 -0.1450000
v 0.3091632 0.9904388 0.0750000
v 0.3241632 0.0504388 -0.1450000
v 0.2691702 0.0495612 -0.1450000
v 0.2541702 0.9895612 -0.1450000
v 0.3241632 0.0504388 -0.1450000
v 0.2541702 0.9895612 -0.1450000
v 0.3091632 0.9904388 -0.1450000
v 0.3241632 0.0504388 -0.1450000
v 0.3241632 0.0504388 0.0750000
v 0.2691702 0.0495612 0.0750000
v 0.3241632 0.0504388 -0.1450000
v 0.2691702 0.0495612 0.0750000
v 0.2691702 0.0495612 -0.1450000
v 0.2541702 0.9895612 -0.1450000
v 0.2541702 0.9895612 0.0750000
v 0.3091632 0.9904388 0.0750000
v 0.2541702 0.9895612 -0.1450000
v 0.3091632 0.9904388 0.0750000
v 0.3091632 0.9904388 -0.1450000
v 0.6191696 0.0495956 -0.1450000
v 0.6191696 0.0495956 0.0750000
v 0.6041696 1.0695956 0.0750000
v 0.6191696 0.0495956 -0.1450000
v 0.6041696 1.0695956 0.0750000
v 0.6041696 1.0695956 -0.1450000
v 0.6191696 0.0495956 0.0750000
v 0.6741637 0.0504044 0.0750000
v 0.6591637 1.0704044 0.0750000
v 0.6191696 0.0495956 0.0750000
v 0.6591637 1.0704044 0.0750000
v 0.6041696 1.0695956 0.0750000
v 0.6741637 0.0504044 0.0750000
v 0.6741637 0.0504044 -0.1450000
v 0.6591637 1.0704044 -0.1450000
v 0.6741637 0.0504044 0.0750000
v 0.6591637 1.0704044 -0.1450000
v 0.6591637 1.0704044 0.0750000
v 0.6741637 0.0504044 -0.1450000
v 0.6191696 0.0495956 -0.1450000
v 0.6041696 1.0695956 -0.1450000
v 0.6741637 0.0504044 -0.1450000
v 0.6041696 1.0695956 -0.1450000
v 0.6591637 1.0704044 -0.1450000
v 0.6741637 0.0504044 -0.1450000
v 0.6741637 0.0504044 0.0750000
v 0.6191696 0.0495956 0.0750000
v 0.6741637 0.0504044 -0.1450000
v 0.6191696 0.0495956 0.0750000
v 0.6191696 0.0495956 -0.1450000
v 0.6041696 1.0695956 -0.1450000
v 0.6041696 1.0695956 0.0750000
v 0.6591637 1.0704044 0.0750000
v 0.6041696 1.0695956 -0.1450000
v 0.6591637 1.0704044 0.0750000
v 0.6591637 1.0704044 -0.1450000
v 0.9691838 0.0509716 -0.1450000
v 0.9691838 0.0509716 0.0750000
v 1.0041838 1.0409716 0.0750000
v 0.9691838 0.0509716 -0.1450000
v 1.0041838 1.0409716 0.0750000
v 1.0041838 1.0409716 -0.1450000
v 0.9691838 0.0509716 0.0750000
v 1.0241495 0.0490284 0.0750000
v 1.0591495 1.0390284 0.0750000
v 0.9691838 0.0509716 0.0750000
v 1.0591495 1.0390284 0.0750000
v 1.0041838 1.0409716 0.0750000
v 1.0241495 0.0490284 0.0750000
v 1.0241495 0.0490284 -0.1450000
v 1.0591495 1.0390284 -0.1450000
v 1.0241495 0.0490284 0.0750000
v 1.0591495 1.0390284 -0.1450000
v 1.0591495 1.0390284 0.0750000
v 1.0241495 0.0490284 -0.1450000
v 0.9691838 0.0509716 -0.1450000
v 1.0041838 1.0409716 -0.1450000
v 1.0241495 0.0490284 -0.1450000
v 1.0041838 1.0409716 -0.1450000
v 1.0591495 1.0390284 -0.1450000
v 1.0241495 0.0490284 -0.1450000
v 1.0241495 0.0490284 0.0750000
v 0.9691838 0.0509716 0.0750000
v 1.0241495 0.0490284 -0.1450000
v 0.9691838 0.0509716 0.0750000
v 0.9691838 0.0509716 -0.1450000
v 1.0041838 1.0409716 -0.1450000
v 1.0041838 1.0409716 0.0750000
v 1.0591495 1.0390284 0.0750000
v 1.0041838 1.0409716 -0.1450000
v 1.0591495 1.0390284 0.0750000
v 1.0591495 1.0390284 -0.1450000
v -1.1490550 0.2415266 -0.0500000
v -1.1490550 0.2415266 -0.1300000
v 1.1709450 0.9015266 -0.1300000
v -1.1490550 0.2415266 -0.0500000
v 1.1709450 0.9015266 -0.1300000
v 1.1709450 0.9015266 -0.0500000
v -1.1490550 0.2415266 -0.1300000
v -1.1709450 0.3184734 -0.1300000
v 1.1490550 0.9784734 -0.1300000
v -1.1490550 0.2415266 -0.1300000
v 1.1490550 0.9784734 -0.1300000
v 1.1709450 0.9015266 -0.1300000
v -1.1709450 0.3184734 -0.1300000
v -1.1709450 0.3184734 -0.0500000
v 1.1490550 0.9784734 -0.0500000
v -1.1709450 0.3184734 -0.1300000
v 1.1490550 0.9784734 -0.0500000
v 1.1490550 0.9784734 -0.1300000
v -1.1709450 0.3184734 -0.0500000
v -1.1490550 0.2415266 -0.0500000
v 1.1709450 0.9015266 -0.0500000
v -1.1709450 0.3184734 -0.0500000
v 1.1709450 0.9015266 -0.0500000
v 1.1490550 0.9784734 -0.0500000
v -1.1709450 0.3184734 -0.0500000
v -1.1709450 0.3184734 -0.1300000
v -1.1490550 0.2415266 -0.1300000
v -1.1709450 0.3184734 -0.0500000
v -1.1490550 0.2415266 -0.1300000
v -1.1490550 0.2415266 -0.0500000
v 1.1709450 0.9015266 -0.0500000
v 1.1709450 0.9015266 -0.1300000
v 1.1490550 0.9784734 -0.1300000
v 1.1709450 0.9015266 -0.0500000
v 1.1490550 0.9784734 -0.1300000
v 1.1490550 0.9784734 -0.0500000
vn 0.0000000 0.0000000 -1.0000000
vn 0.0000000 0.0000000 -1.0000000
vn 0.0000000 0.0000000 1.0000000
vn 0.0000000 0.0000000 1.0000000
vn -1.0000000 0.0000000 0.0000000
vn -1.0000000 0.0000000 0.0000000
vn 1.0000000 0.0000000 0.0000000
vn 1.0000000 0.0000000 0.0000000
vn 0.0000000 -1.0000000 0.0000000
vn 0.0000000 -1.0000000 0.0000000
vn 0.0000000 1.0000000 0.0000000
vn 0.0000000 1.0000000 0.0000000
vn 0.0000000 0.0000000 -1.0000000
vn 0.0000000 0.0000000 -1.0000000
vn 0.0000000 0.0000000 1.0000000
vn 0.0000000 0.0000000 1.0000000
vn -1.0000000 0.0000000 0.0000000
vn -1.0000000 0.0000000 0.0000000
vn 1.0000000 0.0000000 0.0000000
vn 1.0000000 0.0000000 0.0000000
vn 0.0000000 -1.0000000 0.0000000
vn 0.0000000 -1.0000000 0.0000000
vn 0.0000000 1.0000000 0.0000000
vn 0.0000000 1.0000000 0.0000000
vn 0.0000000 0.0000000 -1.0000000
vn 0.0000000 0.0000000 -1.0000000
vn 0.0000000 0.0000000 1.0000000
vn 0.0000000 0.0000000 1.0000000
vn -1.0000000 0.0000000 0.0000000
vn -1.0000000 0.0000000 0.0000000
vn 1.0000000 0.0000000 0.0000000
vn 1.0000000 0.0000000 0.0000000
vn 0.0000000 -1.0000000 0.0000000
vn 0.0000000 -1.0000000 0.0000000
vn 0.0000000 1.0000000 0.0000000
vn 0.0000000 1.0000000 0.0000000
vn -0.9994342 0.0336348 0.0000000
vn -0.9994342 0.0336348 0.0000000
vn 0.0000000 0.0000000 1.0000000
vn 0.0000000 0.0000000 1.0000000
vn 0.9994342 -0.0336348 0.0000000
vn 0.9994342 -0.0336348 0.0000000
vn 0.0000000 0.0000000 -1.0000000
vn 0.0000000 0.0000000 -1.0000000
vn -0.0336348 -0.9994342 0.0000000
vn -0.0336348 -0.9994342 0.0000000
vn 0.0336348 0.9994342 0.0000000
vn 0.0336348 0.9994342 0.0000000
vn -0.9998805 -0.0154621 0.0000000
vn -0.9998805 -0.0154621 0.0000000
vn 0.0000000 0.0000000 1.0000000
vn 0.0000000 0.0000000 1.0000000
vn 0.9998805 0.0154621 0.0000000
vn 0.9998805 0.0154621 0.0000000
vn 0.0000000 0.0000000 -1.0000000
vn 0.0000000 0.0000000 -1.0000000
vn 0.0154621 -0.9998805 0.0000000
vn 0.0154621 -0.9998805 0.0000000
vn -0.0154621 0.9998805 0.0000000
vn -0.0154621 0.9998805 0.0000000
vn -0.9999018 -0.0140173 0.0000000
vn -0.9999018 -0.0140173 0.0000000
vn 0.0000000 0.0000000 1.0000000
vn 0.0000000 0.0000000 1.0000000
vn 0.9999018 0.0140173 0.0000000
vn 0.9999018 0.0140173 0.0000000
vn 0.0000000 0.0000000 -1.0000000
vn 0.0000000 0.0000000 -1.0000000
vn 0.0140173 -0.9999018 0.0000000
vn 0.0140173 -0.9999018 0.0000000
vn -0.0140173 0.9999018 0.0000000
vn -0.0140173 0.9999018 0.0000000
vn -0.9993756 0.0353315 0.0000000
vn -0.9993756 0.0353315 0.0000000
vn 0.0000000 0.0000000 1.0000000
vn 0.0000000 0.0000000 1.0000000
vn 0.9993756 -0.0353315 0.0000000
vn 0.9993756 -0.0353315 0.0000000
vn 0.0000000 0.0000000 -1.0000000
vn 0.0000000 0.0000000 -1.0000000
vn -0.0353315 -0.9993756 0.0000000
vn -0.0353315 -0.9993756 0.0000000
vn 0.0353315 0.9993756 0.0000000
vn 0.0353315 0.9993756 0.0000000
vn -0.9998727 -0.0159554 0.0000000
vn -0.9998727 -0.0159554 0.0000000
vn 0.0000000 0.0000000 1.0000000
vn 0.0000000 0.0000000 1.0000000
vn 0.9998727 0.0159554 0.0000000
vn 0.9998727 0.0159554 0.0000000
vn 0.0000000 0.0000000 -1.0000000
vn 0.0000000 0.0000000 -1.0000000
vn 0.0159554 -0.9998727 0.0000000
vn 0.0159554 -0.9998727 0.0000000
vn -0.0159554 0.9998727 0.0000000
vn -0.0159554 0.9998727 0.0000000
vn -0.9998919 -0.0147043 0.0000000
vn -0.9998919 -0.0147043 0.0000000
vn 0.0000000 0.0000000 1.0000000
vn 0.0000000 0.0000000 1.0000000
vn 0.9998919 0.0147043 0.0000000
vn 0.9998919 0.0147043 0.0000000
vn 0.0000000 0.0000000 -1.0000000
vn 0.0000000 0.0000000 -1.0000000
vn 0.0147043 -0.9998919 0.0000000
vn 0.0147043 -0.9998919 0.0000000
vn -0.0147043 0.9998919 0.0000000
vn -0.0147043 0.9998919 0.0000000
vn -0.9993756 0.0353315 0.0000000
vn -0.9993756 0.0353315 0.0000000
vn 0.0000000 0.0000000 1.0000000
vn 0.0000000 0.0000000 1.0000000
vn 0.9993756 -0.0353315 0.0000000
vn 0.9993756 -0.0353315 0.0000000
vn 0.0000000 0.0000000 -1.0000000
vn 0.0000000 0.0000000 -1.0000000
vn -0.0353315 -0.9993756 0.0000000
vn -0.0353315 -0.9993756 0.0000000
vn 0.0353315 0.9993756 0.0000000
vn 0.0353315 0.9993756 0.0000000
vn 0.2736258 -0.9618362 0.0000000
vn 0.2736258 -0.9618362 0.0000000
vn 0.0000000 0.0000000 -1.0000000
vn 0.0000000 0.0000000 -1.0000000
vn -0.2736258 0.9618362 0.0000000
vn -0.2736258 0.9618362 0.0000000
vn 0.0000000 0.0000000 1.0000000
vn 0.0000000 0.0000000 1.0000000
vn -0.9618362 -0.2736258 0.0000000
vn -0.9618362 -0.2736258 0.0000000
vn 0.9618362 0.2736258 0.0000000
vn 0.9618362 0.2736258 0.0000000
usemtl wood_dark
f 1//1 2//1 3//1
usemtl wood_dark
f 4//2 5//2 6//2
usemtl wood_dark
f 7//3 8//3 9//3
usemtl wood_dark
f 10//4 11//4 12//4
usemtl wood_dark
f 13//5 14//5 15//5
usemtl wood_dark
f 16//6 17//6 18//6
usemtl wood_dark
f 19//7 20//7 21//7
usemtl wood_dark
f 22//8 23//8 24//8
usemtl wood_dark
f 25//9 26//9 27//9
usemtl wood_dark
f 28//10 29//10 30//10
usemtl wood_dark
f 31//11 32//11 33//11
usemtl wood_dark
f 34//12 35//12 36//12
usemtl wood_dark
f 37//13 38//13 39//13
usemtl wood_dark
f 40//14 41//14 42//14
usemtl wood_dark
f 43//15 44//15 45//15
usemtl wood_dark
f 46//16 47//16 48//16
usemtl wood_dark
f 49//17 50//17 51//17
usemtl wood_dark
f 52//18 53//18 54//18
usemtl wood_dark
f 55//19 56//19 57//19
usemtl wood_dark
f 58//20 59//20 60//20
usemtl wood_dark
f 61//21 62//21 63//21
usemtl wood_dark
f 64//22 65//22 66//22
usemtl wood_dark
f 67//23 68//23 69//23
usemtl wood_dark
f 70//24 71//24 72//24
usemtl wood_dark
f 73//25 74//25 75//25
usemtl wood_dark
f 76//26 77//26 78//26
usemtl wood_dark
f 79//27 80//27 81//27
usemtl wood_dark
f 82//28 83//28 84//28
usemtl wood_dark
f 85//29 86//29 87//29
usemtl wood_dark
f 88//30 89//30 90//30
usemtl wood_dark
f 91//31 92//31 93//31
usemtl wood_dark
f 94//32 95//32 96//32
usemtl wood_dark
f 97//33 98//33 99//33
usemtl wood_dark
f 100//34 101//34 102//34
usemtl wood_dark
f 103//35 104//35 105//35
usemtl wood_dark
f 106//36 107//36 108//36
usemtl wood
f 109//37 110//37 111//37
usemtl wood
f 112//38 113//38 114//38
usemtl wood
f 115//39 116//39 117//39
usemtl wood
f 118//40 119//40 120//40
usemtl wood
f 121//41 122//41 123//41
usemtl wood
f 124//42 125//42 126//42
usemtl wood
f 127//43 128//43 129//43
usemtl wood
f 130//44 131//44 132//44
usemtl wood
f 133//45 134//45 135//45
usemtl wood
f 136//46 137//46 138//46
usemtl wood
f 139//47 140//47 141//47
usemtl wood
f 142//48 143//48 144//48
usemtl wood
f 145//49 146//49 147//49
usemtl wood
f 148//50 149//50 150//50
usemtl wood
f 151//51 152//51 153//51
usemtl wood
f 154//52 155//52 156//52
usemtl wood
f 157//53 158//53 159//53
usemtl wood
f 160//54 161//54 162//54
usemtl wood
f 163//55 164//55 165//55
usemtl wood
f 166//56 167//56 168//56
usemtl wood
f 169//57 170//57 171//57
usemtl wood
f 172//58 173//58 174//58
usemtl wood
f 175//59 176//59 177//59
usemtl wood
f 178//60 179//60 180//60
usemtl wood
f 181//61 182//61 183//61
usemtl wood
f 184//62 185//62 186//62
usemtl wood
f 187//63 188//63 189//63
usemtl wood
f 190//64 191//64 192//64
usemtl wood
f 193//65 194//65 195//65
usemtl wood
f 196//66 197//66 198//66
usemtl wood
f 199//67 200//67 201//67
usemtl wood
f 202//68 203//68 204//68
usemtl wood
f 205//69 206//69 207//69
usemtl wood
f 208//70 209//70 210//70
usemtl wood
f 211//71 212//71 213//71
usemtl wood
f 214//72 215//72 216//72
usemtl wood
f 217//73 218//73 219//73
usemtl wood
f 220//74 221//74 222//74
usemtl wood
f 223//75 224//75 225//75
usemtl wood
f 226//76 227//76 228//76
usemtl wood
f 229//77 230//77 231//77
usemtl wood
f 232//78 233//78 234//78
usemtl wood
f 235//79 236//79 237//79
usemtl wood
f 238//80 239//80 240//80
usemtl wood
f 241//81 242//81 243//81
usemtl wood
f 244//82 245//82 246//82
usemtl wood
f 247//83 248//83 249//83
usemtl wood
f 250//84 251//84 252//84
usemtl wood
f 253//85 254//85 255//85
usemtl wood
f 256//86 257//86 258//86
usemtl wood
f 259//87 260//87 261//87
usemtl wood
f 262//88 263//88 264//88
usemtl wood
f 265//89 266//89 267//89
usemtl wood
f 268//90 269//90 270//90
usemtl wood
f 271//91 272//91 273//91
usemtl wood
f 274//92 275//92 276//92
usemtl wood
f 277//93 278//93 279//93
usemtl wood
f 280//94 281//94 282//94
usemtl wood
f 283//95 284//95 285//95
usemtl wood
f 286//96 287//96 288//96
usemtl wood
f 289//97 290//97 291//97
usemtl wood
f 292//98 293//98 294//98
usemtl wood
f 295//99 296//99 297//99
usemtl wood
f 298//100 299//100 300//100
usemtl wood
f 301//101 302//101 303//101
usemtl wood
f 304//102 305//102 306//102
usemtl wood
f 307//103 308//103 309//103
usemtl wood
f 310//104 311//104 312//104
usemtl wood
f 313//105 314//105 315//105
usemtl wood
f 316//106 317//106 318//106
usemtl wood
f 319//107 320//107 321//107
usemtl wood
f 322//108 323//108 324//108
usemtl wood
f 325//109 326//109 327//109
usemtl wood
f 328//110 329//110 330//110
usemtl wood
f 331//111 332//111 333//111
usemtl wood
f 334//112 335//112 336//112
usemtl wood
f 337//113 338//113 339//113
usemtl wood
f 340//114 341//114 342//114
usemtl wood
f 343//115 344//115 345//115
usemtl wood
f 346//116 347//116 348//116
usemtl wood
f 349//117 350//117 351//117
usemtl wood
f 352//118 353//118 354//118
usemtl wood
f 355//119 356//119 357//119
usemtl wood
f 358//120 359//120 360//120
usemtl wood_dark
f 361//121 362//121 363//121
usemtl wood_dark
f 364//122 365//122 366//122
usemtl wood_dark
f 367//123 368//123 369//123
usemtl wood_dark
f 370//124 371//124 372//124
usemtl wood_dark
f 373//125 374//125 375//125
usemtl wood_dark
f 376//126 377//126 378//126
usemtl wood_dark
f 379//127 380//127 381//127
usemtl wood_dark
f 382//128 383//128 384//128
usemtl wood_dark
f 385//129 386//129 387//129
usemtl wood_dark
f 388//130 389//130 390//130
usemtl wood_dark
f 391//131 392//131 393//131
usemtl wood_dark
f 394//132 395//132 396//132
