# Original Quiet Camp environment study; NOT a downloaded Sketchfab donor
# Units: metres; Y up; no external geometry or textures
mtllib palette.mtl
o ua_valley_orchard
v -0.0999342 0.0054408 -0.0999177
v -0.0999342 0.0018116 0.1000493
v -0.0199342 2.2058116 0.1400493
v -0.0999342 0.0054408 -0.0999177
v -0.0199342 2.2058116 0.1400493
v -0.0199342 2.2094408 -0.0599177
v -0.0999342 0.0018116 0.1000493
v 0.0999342 -0.0054408 0.0999177
v 0.1799342 2.1985592 0.1399177
v -0.0999342 0.0018116 0.1000493
v 0.1799342 2.1985592 0.1399177
v -0.0199342 2.2058116 0.1400493
v 0.0999342 -0.0054408 0.0999177
v 0.0999342 -0.0018116 -0.1000493
v 0.1799342 2.2021884 -0.0600493
v 0.0999342 -0.0054408 0.0999177
v 0.1799342 2.2021884 -0.0600493
v 0.1799342 2.1985592 0.1399177
v 0.0999342 -0.0018116 -0.1000493
v -0.0999342 0.0054408 -0.0999177
v -0.0199342 2.2094408 -0.0599177
v 0.0999342 -0.0018116 -0.1000493
v -0.0199342 2.2094408 -0.0599177
v 0.1799342 2.2021884 -0.0600493
v 0.0999342 -0.0018116 -0.1000493
v 0.0999342 -0.0054408 0.0999177
v -0.0999342 0.0018116 0.1000493
v 0.0999342 -0.0018116 -0.1000493
v -0.0999342 0.0018116 0.1000493
v -0.0999342 0.0054408 -0.0999177
v -0.0199342 2.2094408 -0.0599177
v -0.0199342 2.2058116 0.1400493
v 0.1799342 2.1985592 0.1399177
v -0.0199342 2.2094408 -0.0599177
v 0.1799342 2.1985592 0.1399177
v 0.1799342 2.2021884 -0.0600493
v -0.0582411 1.4481984 -0.0516278
v -0.0397158 1.4481984 0.0669336
v -0.6797158 2.3981984 0.1669336
v -0.0582411 1.4481984 -0.0516278
v -0.6797158 2.3981984 0.1669336
v -0.6982411 2.3981984 0.0483722
v -0.0397158 1.4481984 0.0669336
v 0.0582411 1.5158016 0.0516278
v -0.5817589 2.4658016 0.1516278
v -0.0397158 1.4481984 0.0669336
v -0.5817589 2.4658016 0.1516278
v -0.6797158 2.3981984 0.1669336
v 0.0582411 1.5158016 0.0516278
v 0.0397158 1.5158016 -0.0669336
v -0.6002842 2.4658016 0.0330664
v 0.0582411 1.5158016 0.0516278
v -0.6002842 2.4658016 0.0330664
v -0.5817589 2.4658016 0.1516278
v 0.0397158 1.5158016 -0.0669336
v -0.0582411 1.4481984 -0.0516278
v -0.6982411 2.3981984 0.0483722
v 0.0397158 1.5158016 -0.0669336
v -0.6982411 2.3981984 0.0483722
v -0.6002842 2.4658016 0.0330664
v 0.0641865 1.6726666 0.0410647
v 0.0244560 1.6726666 -0.0721673
v 0.5944560 2.4326666 -0.2721673
v 0.0641865 1.6726666 0.0410647
v 0.5944560 2.4326666 -0.2721673
v 0.6341865 2.4326666 -0.1589353
v 0.0244560 1.6726666 -0.0721673
v -0.0641865 1.7473334 -0.0410647
v 0.5058135 2.5073334 -0.2410647
v 0.0244560 1.6726666 -0.0721673
v 0.5058135 2.5073334 -0.2410647
v 0.5944560 2.4326666 -0.2721673
v -0.0641865 1.7473334 -0.0410647
v -0.0244560 1.7473334 0.0721673
v 0.5455440 2.5073334 -0.1278327
v -0.0641865 1.7473334 -0.0410647
v 0.5455440 2.5073334 -0.1278327
v 0.5058135 2.5073334 -0.2410647
v -0.0244560 1.7473334 0.0721673
v 0.0641865 1.6726666 0.0410647
v 0.6341865 2.4326666 -0.1589353
v -0.0244560 1.7473334 0.0721673
v 0.6341865 2.4326666 -0.1589353
v 0.5455440 2.5073334 -0.1278327
v 0.0000000 1.7525600 0.0000000
v 0.8701000 2.3484000 0.0000000
v 0.4350500 2.3484000 0.7535287
v 0.8701000 2.3484000 0.0000000
v 1.0396000 3.2421600 0.0000000
v 0.5198000 3.2421600 0.9003200
v 0.8701000 2.3484000 0.0000000
v 0.5198000 3.2421600 0.9003200
v 0.4350500 2.3484000 0.7535287
v 0.0500000 3.8805600 0.0000000
v 0.5198000 3.2421600 0.9003200
v 1.0396000 3.2421600 0.0000000
v 0.0000000 1.7525600 0.0000000
v 0.4350500 2.3484000 0.7535287
v -0.4350500 2.3484000 0.7535287
v 0.4350500 2.3484000 0.7535287
v 0.5198000 3.2421600 0.9003200
v -0.5198000 3.2421600 0.9003200
v 0.4350500 2.3484000 0.7535287
v -0.5198000 3.2421600 0.9003200
v -0.4350500 2.3484000 0.7535287
v 0.0500000 3.8805600 0.0000000
v -0.5198000 3.2421600 0.9003200
v 0.5198000 3.2421600 0.9003200
v 0.0000000 1.7525600 0.0000000
v -0.4350500 2.3484000 0.7535287
v -0.8701000 2.3484000 0.0000000
v -0.4350500 2.3484000 0.7535287
v -0.5198000 3.2421600 0.9003200
v -1.0396000 3.2421600 0.0000000
v -0.4350500 2.3484000 0.7535287
v -1.0396000 3.2421600 0.0000000
v -0.8701000 2.3484000 0.0000000
v 0.0500000 3.8805600 0.0000000
v -1.0396000 3.2421600 0.0000000
v -0.5198000 3.2421600 0.9003200
v 0.0000000 1.7525600 0.0000000
v -0.8701000 2.3484000 0.0000000
v -0.4350500 2.3484000 -0.7535287
v -0.8701000 2.3484000 0.0000000
v -1.0396000 3.2421600 0.0000000
v -0.5198000 3.2421600 -0.9003200
v -0.8701000 2.3484000 0.0000000
v -0.5198000 3.2421600 -0.9003200
v -0.4350500 2.3484000 -0.7535287
v 0.0500000 3.8805600 0.0000000
v -0.5198000 3.2421600 -0.9003200
v -1.0396000 3.2421600 0.0000000
v 0.0000000 1.7525600 0.0000000
v -0.4350500 2.3484000 -0.7535287
v 0.4350500 2.3484000 -0.7535287
v -0.4350500 2.3484000 -0.7535287
v -0.5198000 3.2421600 -0.9003200
v 0.5198000 3.2421600 -0.9003200
v -0.4350500 2.3484000 -0.7535287
v 0.5198000 3.2421600 -0.9003200
v 0.4350500 2.3484000 -0.7535287
v 0.0500000 3.8805600 0.0000000
v 0.5198000 3.2421600 -0.9003200
v -0.5198000 3.2421600 -0.9003200
v 0.0000000 1.7525600 0.0000000
v 0.4350500 2.3484000 -0.7535287
v 0.8701000 2.3484000 0.0000000
v 0.4350500 2.3484000 -0.7535287
v 0.5198000 3.2421600 -0.9003200
v 1.0396000 3.2421600 0.0000000
v 0.4350500 2.3484000 -0.7535287
v 1.0396000 3.2421600 0.0000000
v 0.8701000 2.3484000 0.0000000
v 0.0500000 3.8805600 0.0000000
v 1.0396000 3.2421600 0.0000000
v 0.5198000 3.2421600 -0.9003200
vn -0.9993421 0.0362618 0.0006581
vn -0.9993421 0.0362618 0.0006581
vn 0.0000000 -0.0181458 0.9998354
vn 0.0000000 -0.0181458 0.9998354
vn 0.9993421 -0.0362618 -0.0006581
vn 0.9993421 -0.0362618 -0.0006581
vn 0.0000000 0.0181458 -0.9998354
vn 0.0000000 0.0181458 -0.9998354
vn -0.0362678 -0.9991776 -0.0181339
vn -0.0362678 -0.9991776 -0.0181339
vn 0.0362678 0.9991776 0.0181339
vn 0.0362678 0.9991776 0.0181339
vn -0.8163073 -0.5633595 0.1275480
vn -0.8163073 -0.5633595 0.1275480
vn 0.1543769 0.0000000 0.9880120
vn 0.1543769 0.0000000 0.9880120
vn 0.8163073 0.5633595 -0.1275480
vn 0.8163073 0.5633595 -0.1275480
vn -0.1543769 0.0000000 -0.9880120
vn -0.1543769 0.0000000 -0.9880120
vn 0.7386876 -0.6222233 -0.2591886
vn 0.7386876 -0.6222233 -0.2591886
vn -0.3310877 0.0000000 -0.9436000
vn -0.3310877 0.0000000 -0.9436000
vn -0.7386876 0.6222233 0.2591886
vn -0.7386876 0.6222233 0.2591886
vn 0.3310877 0.0000000 0.9436000
vn 0.3310877 0.0000000 0.9436000
vn 0.5371545 -0.7844021 0.3101263
vn 0.8545761 -0.1620688 0.4933897
vn 0.8545761 -0.1620688 0.4933897
vn 0.5173491 0.8019559 0.2986916
vn 0.0000000 -0.7844021 0.6202526
vn 0.0000000 -0.1620688 0.9867795
vn 0.0000000 -0.1620688 0.9867795
vn 0.0000000 0.8157366 0.5784235
vn -0.5371545 -0.7844021 0.3101263
vn -0.8545761 -0.1620688 0.4933897
vn -0.8545761 -0.1620688 0.4933897
vn -0.4852776 0.8282557 0.2801751
vn -0.5371545 -0.7844021 -0.3101263
vn -0.8545761 -0.1620688 -0.4933897
vn -0.8545761 -0.1620688 -0.4933897
vn -0.4852776 0.8282557 -0.2801751
vn 0.0000000 -0.7844021 -0.6202526
vn 0.0000000 -0.1620688 -0.9867795
vn 0.0000000 -0.1620688 -0.9867795
vn 0.0000000 0.8157366 -0.5784235
vn 0.5371545 -0.7844021 -0.3101263
vn 0.8545761 -0.1620688 -0.4933897
vn 0.8545761 -0.1620688 -0.4933897
vn 0.5173491 0.8019559 -0.2986916
usemtl wood_dark
f 1//1 2//1 3//1
usemtl wood_dark
f 4//2 5//2 6//2
usemtl wood_dark
f 7//3 8//3 9//3
usemtl wood_dark
f 10//4 11//4 12//4
usemtl wood_dark
f 13//5 14//5 15//5
usemtl wood_dark
f 16//6 17//6 18//6
usemtl wood_dark
f 19//7 20//7 21//7
usemtl wood_dark
f 22//8 23//8 24//8
usemtl wood_dark
f 25//9 26//9 27//9
usemtl wood_dark
f 28//10 29//10 30//10
usemtl wood_dark
f 31//11 32//11 33//11
usemtl wood_dark
f 34//12 35//12 36//12
usemtl wood_dark
f 37//13 38//13 39//13
usemtl wood_dark
f 40//14 41//14 42//14
usemtl wood_dark
f 43//15 44//15 45//15
usemtl wood_dark
f 46//16 47//16 48//16
usemtl wood_dark
f 49//17 50//17 51//17
usemtl wood_dark
f 52//18 53//18 54//18
usemtl wood_dark
f 55//19 56//19 57//19
usemtl wood_dark
f 58//20 59//20 60//20
usemtl wood_dark
f 61//21 62//21 63//21
usemtl wood_dark
f 64//22 65//22 66//22
usemtl wood_dark
f 67//23 68//23 69//23
usemtl wood_dark
f 70//24 71//24 72//24
usemtl wood_dark
f 73//25 74//25 75//25
usemtl wood_dark
f 76//26 77//26 78//26
usemtl wood_dark
f 79//27 80//27 81//27
usemtl wood_dark
f 82//28 83//28 84//28
usemtl leaf_dark
f 85//29 86//29 87//29
usemtl leaf
f 88//30 89//30 90//30
usemtl leaf
f 91//31 92//31 93//31
usemtl leaf_light
f 94//32 95//32 96//32
usemtl leaf_dark
f 97//33 98//33 99//33
usemtl leaf
f 100//34 101//34 102//34
usemtl leaf
f 103//35 104//35 105//35
usemtl leaf_light
f 106//36 107//36 108//36
usemtl leaf_dark
f 109//37 110//37 111//37
usemtl leaf
f 112//38 113//38 114//38
usemtl leaf
f 115//39 116//39 117//39
usemtl leaf_light
f 118//40 119//40 120//40
usemtl leaf_dark
f 121//41 122//41 123//41
usemtl leaf
f 124//42 125//42 126//42
usemtl leaf
f 127//43 128//43 129//43
usemtl leaf_light
f 130//44 131//44 132//44
usemtl leaf_dark
f 133//45 134//45 135//45
usemtl leaf
f 136//46 137//46 138//46
usemtl leaf
f 139//47 140//47 141//47
usemtl leaf_light
f 142//48 143//48 144//48
usemtl leaf_dark
f 145//49 146//49 147//49
usemtl leaf
f 148//50 149//50 150//50
usemtl leaf
f 151//51 152//51 153//51
usemtl leaf_light
f 154//52 155//52 156//52
