# Original Quiet Camp environment study; NOT a downloaded Sketchfab donor
# Units: metres; Y up; no external geometry or textures
mtllib palette.mtl
o ua_well_sweep
v 0.7000000 0.7500000 0.0000000
v 0.3500000 0.7500000 0.6062178
v 0.3500000 0.1000000 0.6062178
v 0.7000000 0.7500000 0.0000000
v 0.3500000 0.1000000 0.6062178
v 0.7000000 0.1000000 0.0000000
v 0.4900000 0.1000000 0.0000000
v 0.2450000 0.1000000 0.4243524
v 0.2450000 0.7500000 0.4243524
v 0.4900000 0.1000000 0.0000000
v 0.2450000 0.7500000 0.4243524
v 0.4900000 0.7500000 0.0000000
v 0.4900000 0.7500000 0.0000000
v 0.2450000 0.7500000 0.4243524
v 0.3500000 0.7500000 0.6062178
v 0.4900000 0.7500000 0.0000000
v 0.3500000 0.7500000 0.6062178
v 0.7000000 0.7500000 0.0000000
v 0.3500000 0.7500000 0.6062178
v -0.3500000 0.7500000 0.6062178
v -0.3500000 0.1000000 0.6062178
v 0.3500000 0.7500000 0.6062178
v -0.3500000 0.1000000 0.6062178
v 0.3500000 0.1000000 0.6062178
v 0.2450000 0.1000000 0.4243524
v -0.2450000 0.1000000 0.4243524
v -0.2450000 0.7500000 0.4243524
v 0.2450000 0.1000000 0.4243524
v -0.2450000 0.7500000 0.4243524
v 0.2450000 0.7500000 0.4243524
v 0.2450000 0.7500000 0.4243524
v -0.2450000 0.7500000 0.4243524
v -0.3500000 0.7500000 0.6062178
v 0.2450000 0.7500000 0.4243524
v -0.3500000 0.7500000 0.6062178
v 0.3500000 0.7500000 0.6062178
v -0.3500000 0.7500000 0.6062178
v -0.7000000 0.7500000 0.0000000
v -0.7000000 0.1000000 0.0000000
v -0.3500000 0.7500000 0.6062178
v -0.7000000 0.1000000 0.0000000
v -0.3500000 0.1000000 0.6062178
v -0.2450000 0.1000000 0.4243524
v -0.4900000 0.1000000 0.0000000
v -0.4900000 0.7500000 0.0000000
v -0.2450000 0.1000000 0.4243524
v -0.4900000 0.7500000 0.0000000
v -0.2450000 0.7500000 0.4243524
v -0.2450000 0.7500000 0.4243524
v -0.4900000 0.7500000 0.0000000
v -0.7000000 0.7500000 0.0000000
v -0.2450000 0.7500000 0.4243524
v -0.7000000 0.7500000 0.0000000
v -0.3500000 0.7500000 0.6062178
v -0.7000000 0.7500000 0.0000000
v -0.3500000 0.7500000 -0.6062178
v -0.3500000 0.1000000 -0.6062178
v -0.7000000 0.7500000 0.0000000
v -0.3500000 0.1000000 -0.6062178
v -0.7000000 0.1000000 0.0000000
v -0.4900000 0.1000000 0.0000000
v -0.2450000 0.1000000 -0.4243524
v -0.2450000 0.7500000 -0.4243524
v -0.4900000 0.1000000 0.0000000
v -0.2450000 0.7500000 -0.4243524
v -0.4900000 0.7500000 0.0000000
v -0.4900000 0.7500000 0.0000000
v -0.2450000 0.7500000 -0.4243524
v -0.3500000 0.7500000 -0.6062178
v -0.4900000 0.7500000 0.0000000
v -0.3500000 0.7500000 -0.6062178
v -0.7000000 0.7500000 0.0000000
v -0.3500000 0.7500000 -0.6062178
v 0.3500000 0.7500000 -0.6062178
v 0.3500000 0.1000000 -0.6062178
v -0.3500000 0.7500000 -0.6062178
v 0.3500000 0.1000000 -0.6062178
v -0.3500000 0.1000000 -0.6062178
v -0.2450000 0.1000000 -0.4243524
v 0.2450000 0.1000000 -0.4243524
v 0.2450000 0.7500000 -0.4243524
v -0.2450000 0.1000000 -0.4243524
v 0.2450000 0.7500000 -0.4243524
v -0.2450000 0.7500000 -0.4243524
v -0.2450000 0.7500000 -0.4243524
v 0.2450000 0.7500000 -0.4243524
v 0.3500000 0.7500000 -0.6062178
v -0.2450000 0.7500000 -0.4243524
v 0.3500000 0.7500000 -0.6062178
v -0.3500000 0.7500000 -0.6062178
v 0.3500000 0.7500000 -0.6062178
v 0.7000000 0.7500000 -0.0000000
v 0.7000000 0.1000000 -0.0000000
v 0.3500000 0.7500000 -0.6062178
v 0.7000000 0.1000000 -0.0000000
v 0.3500000 0.1000000 -0.6062178
v 0.2450000 0.1000000 -0.4243524
v 0.4900000 0.1000000 -0.0000000
v 0.4900000 0.7500000 -0.0000000
v 0.2450000 0.1000000 -0.4243524
v 0.4900000 0.7500000 -0.0000000
v 0.2450000 0.7500000 -0.4243524
v 0.2450000 0.7500000 -0.4243524
v 0.4900000 0.7500000 -0.0000000
v 0.7000000 0.7500000 -0.0000000
v 0.2450000 0.7500000 -0.4243524
v 0.7000000 0.7500000 -0.0000000
v 0.3500000 0.7500000 -0.6062178
v 1.4100000 0.0000000 -0.0900000
v 1.4100000 0.0000000 0.0900000
v 1.4100000 2.8000000 0.0900000
v 1.4100000 0.0000000 -0.0900000
v 1.4100000 2.8000000 0.0900000
v 1.4100000 2.8000000 -0.0900000
v 1.4100000 0.0000000 0.0900000
v 1.5900000 0.0000000 0.0900000
v 1.5900000 2.8000000 0.0900000
v 1.4100000 0.0000000 0.0900000
v 1.5900000 2.8000000 0.0900000
v 1.4100000 2.8000000 0.0900000
v 1.5900000 0.0000000 0.0900000
v 1.5900000 0.0000000 -0.0900000
v 1.5900000 2.8000000 -0.0900000
v 1.5900000 0.0000000 0.0900000
v 1.5900000 2.8000000 -0.0900000
v 1.5900000 2.8000000 0.0900000
v 1.5900000 0.0000000 -0.0900000
v 1.4100000 0.0000000 -0.0900000
v 1.4100000 2.8000000 -0.0900000
v 1.5900000 0.0000000 -0.0900000
v 1.4100000 2.8000000 -0.0900000
v 1.5900000 2.8000000 -0.0900000
v 1.5900000 0.0000000 -0.0900000
v 1.5900000 0.0000000 0.0900000
v 1.4100000 0.0000000 0.0900000
v 1.5900000 0.0000000 -0.0900000
v 1.4100000 0.0000000 0.0900000
v 1.4100000 0.0000000 -0.0900000
v 1.4100000 2.8000000 -0.0900000
v 1.4100000 2.8000000 0.0900000
v 1.5900000 2.8000000 0.0900000
v 1.4100000 2.8000000 -0.0900000
v 1.5900000 2.8000000 0.0900000
v 1.5900000 2.8000000 -0.0900000
v 1.4400000 2.3769231 -0.0553846
v 1.4400000 2.4230769 0.0553846
v 1.4400000 3.0230769 -0.1946154
v 1.4400000 2.3769231 -0.0553846
v 1.4400000 3.0230769 -0.1946154
v 1.4400000 2.9769231 -0.3053846
v 1.4400000 2.4230769 0.0553846
v 1.5600000 2.4230769 0.0553846
v 1.5600000 3.0230769 -0.1946154
v 1.4400000 2.4230769 0.0553846
v 1.5600000 3.0230769 -0.1946154
v 1.4400000 3.0230769 -0.1946154
v 1.5600000 2.4230769 0.0553846
v 1.5600000 2.3769231 -0.0553846
v 1.5600000 2.9769231 -0.3053846
v 1.5600000 2.4230769 0.0553846
v 1.5600000 2.9769231 -0.3053846
v 1.5600000 3.0230769 -0.1946154
v 1.5600000 2.3769231 -0.0553846
v 1.4400000 2.3769231 -0.0553846
v 1.4400000 2.9769231 -0.3053846
v 1.5600000 2.3769231 -0.0553846
v 1.4400000 2.9769231 -0.3053846
v 1.5600000 2.9769231 -0.3053846
v 1.5600000 2.3769231 -0.0553846
v 1.5600000 2.4230769 0.0553846
v 1.4400000 2.4230769 0.0553846
v 1.5600000 2.3769231 -0.0553846
v 1.4400000 2.4230769 0.0553846
v 1.4400000 2.3769231 -0.0553846
v 1.4400000 2.9769231 -0.3053846
v 1.4400000 3.0230769 -0.1946154
v 1.5600000 3.0230769 -0.1946154
v 1.4400000 2.9769231 -0.3053846
v 1.5600000 3.0230769 -0.1946154
v 1.5600000 2.9769231 -0.3053846
v 1.4400000 2.4230769 -0.0553846
v 1.4400000 2.3769231 0.0553846
v 1.4400000 2.9769231 0.3053846
v 1.4400000 2.4230769 -0.0553846
v 1.4400000 2.9769231 0.3053846
v 1.4400000 3.0230769 0.1946154
v 1.4400000 2.3769231 0.0553846
v 1.5600000 2.3769231 0.0553846
v 1.5600000 2.9769231 0.3053846
v 1.4400000 2.3769231 0.0553846
v 1.5600000 2.9769231 0.3053846
v 1.4400000 2.9769231 0.3053846
v 1.5600000 2.3769231 0.0553846
v 1.5600000 2.4230769 -0.0553846
v 1.5600000 3.0230769 0.1946154
v 1.5600000 2.3769231 0.0553846
v 1.5600000 3.0230769 0.1946154
v 1.5600000 2.9769231 0.3053846
v 1.5600000 2.4230769 -0.0553846
v 1.4400000 2.4230769 -0.0553846
v 1.4400000 3.0230769 0.1946154
v 1.5600000 2.4230769 -0.0553846
v 1.4400000 3.0230769 0.1946154
v 1.5600000 3.0230769 0.1946154
v 1.5600000 2.4230769 -0.0553846
v 1.5600000 2.3769231 0.0553846
v 1.4400000 2.3769231 0.0553846
v 1.5600000 2.4230769 -0.0553846
v 1.4400000 2.3769231 0.0553846
v 1.4400000 2.4230769 -0.0553846
v 1.4400000 3.0230769 0.1946154
v 1.4400000 2.9769231 0.3053846
v 1.5600000 2.9769231 0.3053846
v 1.4400000 3.0230769 0.1946154
v 1.5600000 2.9769231 0.3053846
v 1.5600000 3.0230769 0.1946154
v -0.2312541 3.8430072 0.0650000
v -0.2312541 3.8430072 -0.0650000
v 2.8687459 2.1430072 -0.0650000
v -0.2312541 3.8430072 0.0650000
v 2.8687459 2.1430072 -0.0650000
v 2.8687459 2.1430072 0.0650000
v -0.2312541 3.8430072 -0.0650000
v -0.1687459 3.9569928 -0.0650000
v 2.9312541 2.2569928 -0.0650000
v -0.2312541 3.8430072 -0.0650000
v 2.9312541 2.2569928 -0.0650000
v 2.8687459 2.1430072 -0.0650000
v -0.1687459 3.9569928 -0.0650000
v -0.1687459 3.9569928 0.0650000
v 2.9312541 2.2569928 0.0650000
v -0.1687459 3.9569928 -0.0650000
v 2.9312541 2.2569928 0.0650000
v 2.9312541 2.2569928 -0.0650000
v -0.1687459 3.9569928 0.0650000
v -0.2312541 3.8430072 0.0650000
v 2.8687459 2.1430072 0.0650000
v -0.1687459 3.9569928 0.0650000
v 2.8687459 2.1430072 0.0650000
v 2.9312541 2.2569928 0.0650000
v -0.1687459 3.9569928 0.0650000
v -0.1687459 3.9569928 -0.0650000
v -0.2312541 3.8430072 -0.0650000
v -0.1687459 3.9569928 0.0650000
v -0.2312541 3.8430072 -0.0650000
v -0.2312541 3.8430072 0.0650000
v 2.8687459 2.1430072 0.0650000
v 2.8687459 2.1430072 -0.0650000
v 2.9312541 2.2569928 -0.0650000
v 2.8687459 2.1430072 0.0650000
v 2.9312541 2.2569928 -0.0650000
v 2.9312541 2.2569928 0.0650000
v 2.5000000 2.1300000 -0.1850000
v 2.5000000 2.5300000 -0.1850000
v 2.9000000 2.5300000 -0.1850000
v 2.5000000 2.1300000 -0.1850000
v 2.9000000 2.5300000 -0.1850000
v 2.9000000 2.1300000 -0.1850000
v 2.5000000 2.1300000 0.1850000
v 2.9000000 2.1300000 0.1850000
v 2.9000000 2.5300000 0.1850000
v 2.5000000 2.1300000 0.1850000
v 2.9000000 2.5300000 0.1850000
v 2.5000000 2.5300000 0.1850000
v 2.5000000 2.1300000 -0.1850000
v 2.5000000 2.1300000 0.1850000
v 2.5000000 2.5300000 0.1850000
v 2.5000000 2.1300000 -0.1850000
v 2.5000000 2.5300000 0.1850000
v 2.5000000 2.5300000 -0.1850000
v 2.9000000 2.1300000 -0.1850000
v 2.9000000 2.5300000 -0.1850000
v 2.9000000 2.5300000 0.1850000
v 2.9000000 2.1300000 -0.1850000
v 2.9000000 2.5300000 0.1850000
v 2.9000000 2.1300000 0.1850000
v 2.5000000 2.1300000 -0.1850000
v 2.9000000 2.1300000 -0.1850000
v 2.9000000 2.1300000 0.1850000
v 2.5000000 2.1300000 -0.1850000
v 2.9000000 2.1300000 0.1850000
v 2.5000000 2.1300000 0.1850000
v 2.5000000 2.5300000 -0.1850000
v 2.5000000 2.5300000 0.1850000
v 2.9000000 2.5300000 0.1850000
v 2.5000000 2.5300000 -0.1850000
v 2.9000000 2.5300000 0.1850000
v 2.9000000 2.5300000 -0.1850000
v -0.2125000 3.9000000 0.0125000
v -0.2125000 3.9000000 -0.0125000
v -0.2125000 0.6000000 -0.0125000
v -0.2125000 3.9000000 0.0125000
v -0.2125000 0.6000000 -0.0125000
v -0.2125000 0.6000000 0.0125000
v -0.2125000 3.9000000 -0.0125000
v -0.1875000 3.9000000 -0.0125000
v -0.1875000 0.6000000 -0.0125000
v -0.2125000 3.9000000 -0.0125000
v -0.1875000 0.6000000 -0.0125000
v -0.2125000 0.6000000 -0.0125000
v -0.1875000 3.9000000 -0.0125000
v -0.1875000 3.9000000 0.0125000
v -0.1875000 0.6000000 0.0125000
v -0.1875000 3.9000000 -0.0125000
v -0.1875000 0.6000000 0.0125000
v -0.1875000 0.6000000 -0.0125000
v -0.1875000 3.9000000 0.0125000
v -0.2125000 3.9000000 0.0125000
v -0.2125000 0.6000000 0.0125000
v -0.1875000 3.9000000 0.0125000
v -0.2125000 0.6000000 0.0125000
v -0.1875000 0.6000000 0.0125000
v -0.1875000 3.9000000 0.0125000
v -0.1875000 3.9000000 -0.0125000
v -0.2125000 3.9000000 -0.0125000
v -0.1875000 3.9000000 0.0125000
v -0.2125000 3.9000000 -0.0125000
v -0.2125000 3.9000000 0.0125000
v -0.2125000 0.6000000 0.0125000
v -0.2125000 0.6000000 -0.0125000
v -0.1875000 0.6000000 -0.0125000
v -0.2125000 0.6000000 0.0125000
v -0.1875000 0.6000000 -0.0125000
v -0.1875000 0.6000000 0.0125000
vn 0.8660254 0.0000000 0.5000000
vn 0.8660254 0.0000000 0.5000000
vn -0.8660254 0.0000000 -0.5000000
vn -0.8660254 0.0000000 -0.5000000
vn 0.0000000 1.0000000 0.0000000
vn 0.0000000 1.0000000 -0.0000000
vn 0.0000000 0.0000000 1.0000000
vn 0.0000000 0.0000000 1.0000000
vn -0.0000000 0.0000000 -1.0000000
vn -0.0000000 0.0000000 -1.0000000
vn 0.0000000 1.0000000 0.0000000
vn 0.0000000 1.0000000 -0.0000000
vn -0.8660254 0.0000000 0.5000000
vn -0.8660254 0.0000000 0.5000000
vn 0.8660254 0.0000000 -0.5000000
vn 0.8660254 0.0000000 -0.5000000
vn 0.0000000 1.0000000 0.0000000
vn 0.0000000 1.0000000 0.0000000
vn -0.8660254 0.0000000 -0.5000000
vn -0.8660254 -0.0000000 -0.5000000
vn 0.8660254 0.0000000 0.5000000
vn 0.8660254 -0.0000000 0.5000000
vn 0.0000000 1.0000000 0.0000000
vn 0.0000000 1.0000000 0.0000000
vn -0.0000000 0.0000000 -1.0000000
vn -0.0000000 -0.0000000 -1.0000000
vn 0.0000000 0.0000000 1.0000000
vn 0.0000000 -0.0000000 1.0000000
vn 0.0000000 1.0000000 0.0000000
vn 0.0000000 1.0000000 0.0000000
vn 0.8660254 0.0000000 -0.5000000
vn 0.8660254 0.0000000 -0.5000000
vn -0.8660254 0.0000000 0.5000000
vn -0.8660254 0.0000000 0.5000000
vn 0.0000000 1.0000000 0.0000000
vn -0.0000000 1.0000000 0.0000000
vn -1.0000000 0.0000000 0.0000000
vn -1.0000000 0.0000000 0.0000000
vn 0.0000000 0.0000000 1.0000000
vn 0.0000000 0.0000000 1.0000000
vn 1.0000000 0.0000000 0.0000000
vn 1.0000000 -0.0000000 0.0000000
vn 0.0000000 0.0000000 -1.0000000
vn 0.0000000 0.0000000 -1.0000000
vn 0.0000000 -1.0000000 0.0000000
vn 0.0000000 -1.0000000 0.0000000
vn 0.0000000 1.0000000 0.0000000
vn 0.0000000 1.0000000 0.0000000
vn -1.0000000 0.0000000 0.0000000
vn -1.0000000 0.0000000 0.0000000
vn -0.0000000 0.3846154 0.9230769
vn 0.0000000 0.3846154 0.9230769
vn 1.0000000 0.0000000 0.0000000
vn 1.0000000 0.0000000 0.0000000
vn -0.0000000 -0.3846154 -0.9230769
vn 0.0000000 -0.3846154 -0.9230769
vn 0.0000000 -0.9230769 0.3846154
vn 0.0000000 -0.9230769 0.3846154
vn 0.0000000 0.9230769 -0.3846154
vn 0.0000000 0.9230769 -0.3846154
vn -1.0000000 0.0000000 0.0000000
vn -1.0000000 0.0000000 0.0000000
vn 0.0000000 -0.3846154 0.9230769
vn 0.0000000 -0.3846154 0.9230769
vn 1.0000000 -0.0000000 0.0000000
vn 1.0000000 0.0000000 0.0000000
vn 0.0000000 0.3846154 -0.9230769
vn 0.0000000 0.3846154 -0.9230769
vn 0.0000000 -0.9230769 -0.3846154
vn -0.0000000 -0.9230769 -0.3846154
vn 0.0000000 0.9230769 0.3846154
vn -0.0000000 0.9230769 0.3846154
vn -0.4808326 -0.8768124 -0.0000000
vn -0.4808326 -0.8768124 0.0000000
vn 0.0000000 0.0000000 -1.0000000
vn 0.0000000 0.0000000 -1.0000000
vn 0.4808326 0.8768124 -0.0000000
vn 0.4808326 0.8768124 0.0000000
vn 0.0000000 0.0000000 1.0000000
vn 0.0000000 0.0000000 1.0000000
vn -0.8768124 0.4808326 0.0000000
vn -0.8768124 0.4808326 0.0000000
vn 0.8768124 -0.4808326 0.0000000
vn 0.8768124 -0.4808326 0.0000000
vn 0.0000000 0.0000000 -1.0000000
vn 0.0000000 0.0000000 -1.0000000
vn 0.0000000 0.0000000 1.0000000
vn 0.0000000 0.0000000 1.0000000
vn -1.0000000 0.0000000 0.0000000
vn -1.0000000 0.0000000 0.0000000
vn 1.0000000 0.0000000 0.0000000
vn 1.0000000 0.0000000 0.0000000
vn 0.0000000 -1.0000000 0.0000000
vn 0.0000000 -1.0000000 0.0000000
vn 0.0000000 1.0000000 0.0000000
vn 0.0000000 1.0000000 0.0000000
vn -1.0000000 0.0000000 -0.0000000
vn -1.0000000 -0.0000000 0.0000000
vn 0.0000000 0.0000000 -1.0000000
vn 0.0000000 0.0000000 -1.0000000
vn 1.0000000 0.0000000 -0.0000000
vn 1.0000000 0.0000000 0.0000000
vn 0.0000000 0.0000000 1.0000000
vn 0.0000000 0.0000000 1.0000000
vn 0.0000000 1.0000000 0.0000000
vn 0.0000000 1.0000000 0.0000000
vn 0.0000000 -1.0000000 0.0000000
vn 0.0000000 -1.0000000 0.0000000
usemtl stone
f 1//1 2//1 3//1
usemtl stone
f 4//2 5//2 6//2
usemtl concrete_dark
f 7//3 8//3 9//3
usemtl concrete_dark
f 10//4 11//4 12//4
usemtl plaster_worn
f 13//5 14//5 15//5
usemtl plaster_worn
f 16//6 17//6 18//6
usemtl stone
f 19//7 20//7 21//7
usemtl stone
f 22//8 23//8 24//8
usemtl concrete_dark
f 25//9 26//9 27//9
usemtl concrete_dark
f 28//10 29//10 30//10
usemtl plaster_worn
f 31//11 32//11 33//11
usemtl plaster_worn
f 34//12 35//12 36//12
usemtl stone
f 37//13 38//13 39//13
usemtl stone
f 40//14 41//14 42//14
usemtl concrete_dark
f 43//15 44//15 45//15
usemtl concrete_dark
f 46//16 47//16 48//16
usemtl plaster_worn
f 49//17 50//17 51//17
usemtl plaster_worn
f 52//18 53//18 54//18
usemtl stone
f 55//19 56//19 57//19
usemtl stone
f 58//20 59//20 60//20
usemtl concrete_dark
f 61//21 62//21 63//21
usemtl concrete_dark
f 64//22 65//22 66//22
usemtl plaster_worn
f 67//23 68//23 69//23
usemtl plaster_worn
f 70//24 71//24 72//24
usemtl stone
f 73//25 74//25 75//25
usemtl stone
f 76//26 77//26 78//26
usemtl concrete_dark
f 79//27 80//27 81//27
usemtl concrete_dark
f 82//28 83//28 84//28
usemtl plaster_worn
f 85//29 86//29 87//29
usemtl plaster_worn
f 88//30 89//30 90//30
usemtl stone
f 91//31 92//31 93//31
usemtl stone
f 94//32 95//32 96//32
usemtl concrete_dark
f 97//33 98//33 99//33
usemtl concrete_dark
f 100//34 101//34 102//34
usemtl plaster_worn
f 103//35 104//35 105//35
usemtl plaster_worn
f 106//36 107//36 108//36
usemtl wood_dark
f 109//37 110//37 111//37
usemtl wood_dark
f 112//38 113//38 114//38
usemtl wood_dark
f 115//39 116//39 117//39
usemtl wood_dark
f 118//40 119//40 120//40
usemtl wood_dark
f 121//41 122//41 123//41
usemtl wood_dark
f 124//42 125//42 126//42
usemtl wood_dark
f 127//43 128//43 129//43
usemtl wood_dark
f 130//44 131//44 132//44
usemtl wood_dark
f 133//45 134//45 135//45
usemtl wood_dark
f 136//46 137//46 138//46
usemtl wood_dark
f 139//47 140//47 141//47
usemtl wood_dark
f 142//48 143//48 144//48
usemtl wood_dark
f 145//49 146//49 147//49
usemtl wood_dark
f 148//50 149//50 150//50
usemtl wood_dark
f 151//51 152//51 153//51
usemtl wood_dark
f 154//52 155//52 156//52
usemtl wood_dark
f 157//53 158//53 159//53
usemtl wood_dark
f 160//54 161//54 162//54
usemtl wood_dark
f 163//55 164//55 165//55
usemtl wood_dark
f 166//56 167//56 168//56
usemtl wood_dark
f 169//57 170//57 171//57
usemtl wood_dark
f 172//58 173//58 174//58
usemtl wood_dark
f 175//59 176//59 177//59
usemtl wood_dark
f 178//60 179//60 180//60
usemtl wood_dark
f 181//61 182//61 183//61
usemtl wood_dark
f 184//62 185//62 186//62
usemtl wood_dark
f 187//63 188//63 189//63
usemtl wood_dark
f 190//64 191//64 192//64
usemtl wood_dark
f 193//65 194//65 195//65
usemtl wood_dark
f 196//66 197//66 198//66
usemtl wood_dark
f 199//67 200//67 201//67
usemtl wood_dark
f 202//68 203//68 204//68
usemtl wood_dark
f 205//69 206//69 207//69
usemtl wood_dark
f 208//70 209//70 210//70
usemtl wood_dark
f 211//71 212//71 213//71
usemtl wood_dark
f 214//72 215//72 216//72
usemtl wood
f 217//73 218//73 219//73
usemtl wood
f 220//74 221//74 222//74
usemtl wood
f 223//75 224//75 225//75
usemtl wood
f 226//76 227//76 228//76
usemtl wood
f 229//77 230//77 231//77
usemtl wood
f 232//78 233//78 234//78
usemtl wood
f 235//79 236//79 237//79
usemtl wood
f 238//80 239//80 240//80
usemtl wood
f 241//81 242//81 243//81
usemtl wood
f 244//82 245//82 246//82
usemtl wood
f 247//83 248//83 249//83
usemtl wood
f 250//84 251//84 252//84
usemtl stone
f 253//85 254//85 255//85
usemtl stone
f 256//86 257//86 258//86
usemtl stone
f 259//87 260//87 261//87
usemtl stone
f 262//88 263//88 264//88
usemtl stone
f 265//89 266//89 267//89
usemtl stone
f 268//90 269//90 270//90
usemtl stone
f 271//91 272//91 273//91
usemtl stone
f 274//92 275//92 276//92
usemtl stone
f 277//93 278//93 279//93
usemtl stone
f 280//94 281//94 282//94
usemtl stone
f 283//95 284//95 285//95
usemtl stone
f 286//96 287//96 288//96
usemtl wood_dark
f 289//97 290//97 291//97
usemtl wood_dark
f 292//98 293//98 294//98
usemtl wood_dark
f 295//99 296//99 297//99
usemtl wood_dark
f 298//100 299//100 300//100
usemtl wood_dark
f 301//101 302//101 303//101
usemtl wood_dark
f 304//102 305//102 306//102
usemtl wood_dark
f 307//103 308//103 309//103
usemtl wood_dark
f 310//104 311//104 312//104
usemtl wood_dark
f 313//105 314//105 315//105
usemtl wood_dark
f 316//106 317//106 318//106
usemtl wood_dark
f 319//107 320//107 321//107
usemtl wood_dark
f 322//108 323//108 324//108
