# Original Quiet Camp environment study; NOT a downloaded Sketchfab donor
# Units: metres; Y up; no external geometry or textures
mtllib palette.mtl
o ua_young_willow_lod
v -0.0600000 0.0000000 -0.0600000
v -0.0600000 0.0000000 0.0600000
v -0.0600000 1.8720000 0.0600000
v -0.0600000 0.0000000 -0.0600000
v -0.0600000 1.8720000 0.0600000
v -0.0600000 1.8720000 -0.0600000
v -0.0600000 0.0000000 0.0600000
v 0.0600000 0.0000000 0.0600000
v 0.0600000 1.8720000 0.0600000
v -0.0600000 0.0000000 0.0600000
v 0.0600000 1.8720000 0.0600000
v -0.0600000 1.8720000 0.0600000
v 0.0600000 0.0000000 0.0600000
v 0.0600000 0.0000000 -0.0600000
v 0.0600000 1.8720000 -0.0600000
v 0.0600000 0.0000000 0.0600000
v 0.0600000 1.8720000 -0.0600000
v 0.0600000 1.8720000 0.0600000
v 0.0600000 0.0000000 -0.0600000
v -0.0600000 0.0000000 -0.0600000
v -0.0600000 1.8720000 -0.0600000
v 0.0600000 0.0000000 -0.0600000
v -0.0600000 1.8720000 -0.0600000
v 0.0600000 1.8720000 -0.0600000
v 0.0600000 0.0000000 -0.0600000
v 0.0600000 0.0000000 0.0600000
v -0.0600000 0.0000000 0.0600000
v 0.0600000 0.0000000 -0.0600000
v -0.0600000 0.0000000 0.0600000
v -0.0600000 0.0000000 -0.0600000
v -0.0600000 1.8720000 -0.0600000
v -0.0600000 1.8720000 0.0600000
v 0.0600000 1.8720000 0.0600000
v -0.0600000 1.8720000 -0.0600000
v 0.0600000 1.8720000 0.0600000
v 0.0600000 1.8720000 -0.0600000
v 0.0660000 2.6180000 -0.0396000
v 0.2039512 1.7680000 0.6276973
v 0.6600000 1.7680000 0.0000000
v -0.0462000 0.9180000 0.0396000
v 0.6600000 1.7680000 0.0000000
v 0.2039512 1.7680000 0.6276973
v 0.0660000 2.6180000 -0.0396000
v -0.5339512 1.7680000 0.3879383
v 0.2039512 1.7680000 0.6276973
v -0.0462000 0.9180000 0.0396000
v 0.2039512 1.7680000 0.6276973
v -0.5339512 1.7680000 0.3879383
v 0.0660000 2.6180000 -0.0396000
v -0.5339512 1.7680000 -0.3879383
v -0.5339512 1.7680000 0.3879383
v -0.0462000 0.9180000 0.0396000
v -0.5339512 1.7680000 0.3879383
v -0.5339512 1.7680000 -0.3879383
v 0.0660000 2.6180000 -0.0396000
v 0.2039512 1.7680000 -0.6276973
v -0.5339512 1.7680000 -0.3879383
v -0.0462000 0.9180000 0.0396000
v -0.5339512 1.7680000 -0.3879383
v 0.2039512 1.7680000 -0.6276973
v 0.0660000 2.6180000 -0.0396000
v 0.6600000 1.7680000 0.0000000
v 0.2039512 1.7680000 -0.6276973
v -0.0462000 0.9180000 0.0396000
v 0.2039512 1.7680000 -0.6276973
v 0.6600000 1.7680000 0.0000000
vn -1.0000000 0.0000000 0.0000000
vn -1.0000000 0.0000000 0.0000000
vn 0.0000000 0.0000000 1.0000000
vn 0.0000000 0.0000000 1.0000000
vn 1.0000000 0.0000000 0.0000000
vn 1.0000000 0.0000000 0.0000000
vn 0.0000000 0.0000000 -1.0000000
vn 0.0000000 0.0000000 -1.0000000
vn 0.0000000 -1.0000000 0.0000000
vn 0.0000000 -1.0000000 0.0000000
vn 0.0000000 1.0000000 0.0000000
vn 0.0000000 1.0000000 0.0000000
vn 0.6959443 0.5098988 0.5056331
vn 0.6799365 -0.5418926 0.4940028
vn -0.2535752 0.5715223 0.7804242
vn -0.2688047 -0.4932807 0.8272957
vn -0.8169900 0.5766519 0.0000000
vn -0.8673464 -0.4977050 0.0000000
vn -0.2640593 0.5194284 -0.8126911
vn -0.2584194 -0.5483290 -0.7953331
vn 0.7124604 0.4737685 -0.5176328
vn 0.6629176 -0.5732062 -0.4816378
usemtl wood_dark
f 1//1 2//1 3//1
usemtl wood_dark
f 4//2 5//2 6//2
usemtl wood_dark
f 7//3 8//3 9//3
usemtl wood_dark
f 10//4 11//4 12//4
usemtl wood_dark
f 13//5 14//5 15//5
usemtl wood_dark
f 16//6 17//6 18//6
usemtl wood_dark
f 19//7 20//7 21//7
usemtl wood_dark
f 22//8 23//8 24//8
usemtl wood_dark
f 25//9 26//9 27//9
usemtl wood_dark
f 28//10 29//10 30//10
usemtl wood_dark
f 31//11 32//11 33//11
usemtl wood_dark
f 34//12 35//12 36//12
usemtl leaf_light
f 37//13 38//13 39//13
usemtl leaf_light
f 40//14 41//14 42//14
usemtl leaf_light
f 43//15 44//15 45//15
usemtl leaf_light
f 46//16 47//16 48//16
usemtl leaf_light
f 49//17 50//17 51//17
usemtl leaf_light
f 52//18 53//18 54//18
usemtl leaf_light
f 55//19 56//19 57//19
usemtl leaf_light
f 58//20 59//20 60//20
usemtl leaf_light
f 61//21 62//21 63//21
usemtl leaf_light
f 64//22 65//22 66//22
