# Original Quiet Camp environment study; NOT a downloaded Sketchfab donor
# Units: metres; Y up; no external geometry or textures
mtllib palette.mtl
o ua_young_willow
v -0.0600000 0.0000000 -0.0600000
v -0.0600000 0.0000000 0.0600000
v -0.0600000 1.8720000 0.0600000
v -0.0600000 0.0000000 -0.0600000
v -0.0600000 1.8720000 0.0600000
v -0.0600000 1.8720000 -0.0600000
v -0.0600000 0.0000000 0.0600000
v 0.0600000 0.0000000 0.0600000
v 0.0600000 1.8720000 0.0600000
v -0.0600000 0.0000000 0.0600000
v 0.0600000 1.8720000 0.0600000
v -0.0600000 1.8720000 0.0600000
v 0.0600000 0.0000000 0.0600000
v 0.0600000 0.0000000 -0.0600000
v 0.0600000 1.8720000 -0.0600000
v 0.0600000 0.0000000 0.0600000
v 0.0600000 1.8720000 -0.0600000
v 0.0600000 1.8720000 0.0600000
v 0.0600000 0.0000000 -0.0600000
v -0.0600000 0.0000000 -0.0600000
v -0.0600000 1.8720000 -0.0600000
v 0.0600000 0.0000000 -0.0600000
v -0.0600000 1.8720000 -0.0600000
v 0.0600000 1.8720000 -0.0600000
v 0.0600000 0.0000000 -0.0600000
v 0.0600000 0.0000000 0.0600000
v -0.0600000 0.0000000 0.0600000
v 0.0600000 0.0000000 -0.0600000
v -0.0600000 0.0000000 0.0600000
v -0.0600000 0.0000000 -0.0600000
v -0.0600000 1.8720000 -0.0600000
v -0.0600000 1.8720000 0.0600000
v 0.0600000 1.8720000 0.0600000
v -0.0600000 1.8720000 -0.0600000
v 0.0600000 1.8720000 0.0600000
v 0.0600000 1.8720000 -0.0600000
v -0.3740000 2.4360000 0.0604000
v -0.0284967 1.5860000 0.6160088
v 0.2200000 1.5860000 0.1000000
v -0.4862000 0.7360000 0.1396000
v 0.2200000 1.5860000 0.1000000
v -0.0284967 1.5860000 0.6160088
v -0.3740000 2.4360000 0.0604000
v -0.5868638 1.5860000 0.7434524
v -0.0284967 1.5860000 0.6160088
v -0.4862000 0.7360000 0.1396000
v -0.0284967 1.5860000 0.6160088
v -0.5868638 1.5860000 0.7434524
v -0.3740000 2.4360000 0.0604000
v -1.0346395 1.5860000 0.3863633
v -0.5868638 1.5860000 0.7434524
v -0.4862000 0.7360000 0.1396000
v -0.5868638 1.5860000 0.7434524
v -1.0346395 1.5860000 0.3863633
v -0.3740000 2.4360000 0.0604000
v -1.0346395 1.5860000 -0.1863633
v -1.0346395 1.5860000 0.3863633
v -0.4862000 0.7360000 0.1396000
v -1.0346395 1.5860000 0.3863633
v -1.0346395 1.5860000 -0.1863633
v -0.3740000 2.4360000 0.0604000
v -0.5868638 1.5860000 -0.5434524
v -1.0346395 1.5860000 -0.1863633
v -0.4862000 0.7360000 0.1396000
v -1.0346395 1.5860000 -0.1863633
v -0.5868638 1.5860000 -0.5434524
v -0.3740000 2.4360000 0.0604000
v -0.0284967 1.5860000 -0.4160088
v -0.5868638 1.5860000 -0.5434524
v -0.4862000 0.7360000 0.1396000
v -0.5868638 1.5860000 -0.5434524
v -0.0284967 1.5860000 -0.4160088
v -0.3740000 2.4360000 0.0604000
v 0.2200000 1.5860000 0.1000000
v -0.0284967 1.5860000 -0.4160088
v -0.4862000 0.7360000 0.1396000
v -0.0284967 1.5860000 -0.4160088
v 0.2200000 1.5860000 0.1000000
v 0.4960000 2.5660000 0.1004000
v 0.8415033 1.7160000 0.6560088
v 1.0900000 1.7160000 0.1400000
v 0.3838000 0.8660000 0.1796000
v 1.0900000 1.7160000 0.1400000
v 0.8415033 1.7160000 0.6560088
v 0.4960000 2.5660000 0.1004000
v 0.2831362 1.7160000 0.7834524
v 0.8415033 1.7160000 0.6560088
v 0.3838000 0.8660000 0.1796000
v 0.8415033 1.7160000 0.6560088
v 0.2831362 1.7160000 0.7834524
v 0.4960000 2.5660000 0.1004000
v -0.1646395 1.7160000 0.4263633
v 0.2831362 1.7160000 0.7834524
v 0.3838000 0.8660000 0.1796000
v 0.2831362 1.7160000 0.7834524
v -0.1646395 1.7160000 0.4263633
v 0.4960000 2.5660000 0.1004000
v -0.1646395 1.7160000 -0.1463633
v -0.1646395 1.7160000 0.4263633
v 0.3838000 0.8660000 0.1796000
v -0.1646395 1.7160000 0.4263633
v -0.1646395 1.7160000 -0.1463633
v 0.4960000 2.5660000 0.1004000
v 0.2831362 1.7160000 -0.5034524
v -0.1646395 1.7160000 -0.1463633
v 0.3838000 0.8660000 0.1796000
v -0.1646395 1.7160000 -0.1463633
v 0.2831362 1.7160000 -0.5034524
v 0.4960000 2.5660000 0.1004000
v 0.8415033 1.7160000 -0.3760088
v 0.2831362 1.7160000 -0.5034524
v 0.3838000 0.8660000 0.1796000
v 0.2831362 1.7160000 -0.5034524
v 0.8415033 1.7160000 -0.3760088
v 0.4960000 2.5660000 0.1004000
v 1.0900000 1.7160000 0.1400000
v 0.8415033 1.7160000 -0.3760088
v 0.3838000 0.8660000 0.1796000
v 0.8415033 1.7160000 -0.3760088
v 1.0900000 1.7160000 0.1400000
v 0.0660000 2.8260000 -0.3696000
v 0.4115033 1.9760000 0.1860088
v 0.6600000 1.9760000 -0.3300000
v -0.0462000 1.1260000 -0.2904000
v 0.6600000 1.9760000 -0.3300000
v 0.4115033 1.9760000 0.1860088
v 0.0660000 2.8260000 -0.3696000
v -0.1468638 1.9760000 0.3134524
v 0.4115033 1.9760000 0.1860088
v -0.0462000 1.1260000 -0.2904000
v 0.4115033 1.9760000 0.1860088
v -0.1468638 1.9760000 0.3134524
v 0.0660000 2.8260000 -0.3696000
v -0.5946395 1.9760000 -0.0436367
v -0.1468638 1.9760000 0.3134524
v -0.0462000 1.1260000 -0.2904000
v -0.1468638 1.9760000 0.3134524
v -0.5946395 1.9760000 -0.0436367
v 0.0660000 2.8260000 -0.3696000
v -0.5946395 1.9760000 -0.6163633
v -0.5946395 1.9760000 -0.0436367
v -0.0462000 1.1260000 -0.2904000
v -0.5946395 1.9760000 -0.0436367
v -0.5946395 1.9760000 -0.6163633
v 0.0660000 2.8260000 -0.3696000
v -0.1468638 1.9760000 -0.9734524
v -0.5946395 1.9760000 -0.6163633
v -0.0462000 1.1260000 -0.2904000
v -0.5946395 1.9760000 -0.6163633
v -0.1468638 1.9760000 -0.9734524
v 0.0660000 2.8260000 -0.3696000
v 0.4115033 1.9760000 -0.8460088
v -0.1468638 1.9760000 -0.9734524
v -0.0462000 1.1260000 -0.2904000
v -0.1468638 1.9760000 -0.9734524
v 0.4115033 1.9760000 -0.8460088
v 0.0660000 2.8260000 -0.3696000
v 0.6600000 1.9760000 -0.3300000
v 0.4115033 1.9760000 -0.8460088
v -0.0462000 1.1260000 -0.2904000
v 0.4115033 1.9760000 -0.8460088
v 0.6600000 1.9760000 -0.3300000
vn -1.0000000 0.0000000 0.0000000
vn -1.0000000 0.0000000 0.0000000
vn 0.0000000 0.0000000 1.0000000
vn 0.0000000 0.0000000 1.0000000
vn 1.0000000 0.0000000 0.0000000
vn 1.0000000 0.0000000 0.0000000
vn 0.0000000 0.0000000 -1.0000000
vn 0.0000000 0.0000000 -1.0000000
vn 0.0000000 -1.0000000 0.0000000
vn 0.0000000 -1.0000000 0.0000000
vn 0.0000000 1.0000000 0.0000000
vn 0.0000000 1.0000000 0.0000000
vn 0.7554695 0.5448894 0.3638150
vn 0.7282788 -0.5887317 0.3507206
vn 0.1799226 0.5884071 0.7882924
vn 0.1851842 -0.5544603 0.8113449
vn -0.4905716 0.6171879 0.6151574
vn -0.5277047 -0.5325911 0.6617208
vn -0.7895645 0.6136676 0.0000000
vn -0.8402731 -0.5421634 0.0000000
vn -0.5080077 0.5797687 -0.6370215
vn -0.5102761 -0.5746215 -0.6398659
vn 0.1876886 0.5371840 -0.8223177
vn 0.1774111 -0.6036119 -0.7772888
vn 0.7693640 0.5203885 -0.3705062
vn 0.7142920 -0.6094763 -0.3439849
vn 0.7554695 0.5448894 0.3638150
vn 0.7282788 -0.5887317 0.3507206
vn 0.1799226 0.5884071 0.7882924
vn 0.1851842 -0.5544603 0.8113449
vn -0.4905716 0.6171879 0.6151574
vn -0.5277047 -0.5325911 0.6617208
vn -0.7895645 0.6136676 0.0000000
vn -0.8402731 -0.5421634 0.0000000
vn -0.5080077 0.5797687 -0.6370215
vn -0.5102761 -0.5746215 -0.6398659
vn 0.1876886 0.5371840 -0.8223177
vn 0.1774111 -0.6036119 -0.7772888
vn 0.7693640 0.5203885 -0.3705062
vn 0.7142920 -0.6094763 -0.3439849
vn 0.7554695 0.5448894 0.3638150
vn 0.7282788 -0.5887317 0.3507206
vn 0.1799226 0.5884071 0.7882924
vn 0.1851842 -0.5544603 0.8113449
vn -0.4905716 0.6171879 0.6151574
vn -0.5277047 -0.5325911 0.6617208
vn -0.7895645 0.6136676 0.0000000
vn -0.8402731 -0.5421634 0.0000000
vn -0.5080077 0.5797687 -0.6370215
vn -0.5102761 -0.5746215 -0.6398659
vn 0.1876886 0.5371840 -0.8223177
vn 0.1774111 -0.6036119 -0.7772888
vn 0.7693640 0.5203885 -0.3705062
vn 0.7142920 -0.6094763 -0.3439849
usemtl wood_dark
f 1//1 2//1 3//1
usemtl wood_dark
f 4//2 5//2 6//2
usemtl wood_dark
f 7//3 8//3 9//3
usemtl wood_dark
f 10//4 11//4 12//4
usemtl wood_dark
f 13//5 14//5 15//5
usemtl wood_dark
f 16//6 17//6 18//6
usemtl wood_dark
f 19//7 20//7 21//7
usemtl wood_dark
f 22//8 23//8 24//8
usemtl wood_dark
f 25//9 26//9 27//9
usemtl wood_dark
f 28//10 29//10 30//10
usemtl wood_dark
f 31//11 32//11 33//11
usemtl wood_dark
f 34//12 35//12 36//12
usemtl leaf_light
f 37//13 38//13 39//13
usemtl leaf_light
f 40//14 41//14 42//14
usemtl leaf_light
f 43//15 44//15 45//15
usemtl leaf_light
f 46//16 47//16 48//16
usemtl leaf_light
f 49//17 50//17 51//17
usemtl leaf_light
f 52//18 53//18 54//18
usemtl leaf_light
f 55//19 56//19 57//19
usemtl leaf_light
f 58//20 59//20 60//20
usemtl leaf_light
f 61//21 62//21 63//21
usemtl leaf_light
f 64//22 65//22 66//22
usemtl leaf_light
f 67//23 68//23 69//23
usemtl leaf_light
f 70//24 71//24 72//24
usemtl leaf_light
f 73//25 74//25 75//25
usemtl leaf_light
f 76//26 77//26 78//26
usemtl leaf_light
f 79//27 80//27 81//27
usemtl leaf_light
f 82//28 83//28 84//28
usemtl leaf_light
f 85//29 86//29 87//29
usemtl leaf_light
f 88//30 89//30 90//30
usemtl leaf_light
f 91//31 92//31 93//31
usemtl leaf_light
f 94//32 95//32 96//32
usemtl leaf_light
f 97//33 98//33 99//33
usemtl leaf_light
f 100//34 101//34 102//34
usemtl leaf_light
f 103//35 104//35 105//35
usemtl leaf_light
f 106//36 107//36 108//36
usemtl leaf_light
f 109//37 110//37 111//37
usemtl leaf_light
f 112//38 113//38 114//38
usemtl leaf_light
f 115//39 116//39 117//39
usemtl leaf_light
f 118//40 119//40 120//40
usemtl leaf_light
f 121//41 122//41 123//41
usemtl leaf_light
f 124//42 125//42 126//42
usemtl leaf_light
f 127//43 128//43 129//43
usemtl leaf_light
f 130//44 131//44 132//44
usemtl leaf_light
f 133//45 134//45 135//45
usemtl leaf_light
f 136//46 137//46 138//46
usemtl leaf_light
f 139//47 140//47 141//47
usemtl leaf_light
f 142//48 143//48 144//48
usemtl leaf_light
f 145//49 146//49 147//49
usemtl leaf_light
f 148//50 149//50 150//50
usemtl leaf_light
f 151//51 152//51 153//51
usemtl leaf_light
f 154//52 155//52 156//52
usemtl leaf_light
f 157//53 158//53 159//53
usemtl leaf_light
f 160//54 161//54 162//54
